<svg xmlns="http://www.w3.org/2000/svg" viewBox="0 0 140 140"><defs><style>.cls-2{fill:#154df3;}</style></defs><path class="cls-2" d="M42.7,133.93H55.25c2.47-5,4.57-11.08,4.57-20.47,0-11.36-3.65-17.71-6.87-23.31-3.13-5.44-5.83-10.14-5.83-20,0-8.42,2.51-12.78,5.41-17.82,3.42-6,7.3-12.69,7.3-25.46A39.65,39.65,0,0,0,54.56,6.42H41.91c.5.91,1,1.78,1.49,2.64,2.9,5,5.41,9.41,5.41,17.83,0,9.84-2.7,14.54-5.83,20S36.11,58.8,36.11,70.16c0,12.77,3.88,19.52,7.3,25.46,2.9,5.06,5.41,9.42,5.41,17.84,0,9.83-2.7,14.54-5.83,20-.09.17-.19.33-.28.49Z"/><path class="cls-2" d="M65.29,133.93H77.84c2.47-5,4.57-11.08,4.57-20.47,0-11.36-3.65-17.71-6.87-23.31-3.13-5.44-5.83-10.14-5.83-20,0-8.42,2.51-12.78,5.41-17.82,3.42-6,7.3-12.69,7.3-25.46A39.65,39.65,0,0,0,77.15,6.42H64.52c.5.91,1,1.78,1.49,2.64,2.9,5,5.41,9.41,5.41,17.83,0,9.84-2.7,14.54-5.83,20-3.22,5.59-6.87,12-6.87,23.31C58.72,83,62.6,89.7,66,95.64c2.9,5,5.41,9.4,5.41,17.83,0,9.84-2.7,14.54-5.83,20l-.28.49Z"/><path class="cls-2" d="M87.88,133.93h12.55c2.47-5,4.57-11.08,4.57-20.47,0-11.36-3.65-17.71-6.87-23.31C95,84.71,92.3,80,92.3,70.17c0-8.42,2.51-12.78,5.41-17.82,3.42-6,7.3-12.69,7.3-25.46A39.65,39.65,0,0,0,99.74,6.42H87.11c.5.91,1,1.78,1.49,2.64,2.9,5,5.41,9.41,5.41,17.83,0,9.84-2.7,14.54-5.83,20-3.22,5.59-6.87,12-6.87,23.31,0,12.77,3.88,19.52,7.3,25.46,2.9,5,5.41,9.4,5.41,17.83,0,9.84-2.7,14.54-5.83,20l-.28.49Z"/></svg>