<svg xmlns="http://www.w3.org/2000/svg" viewBox="0 0 140 140"><defs><style>.cls-1{fill:#0bcd1f;}</style></defs><path class="cls-1" d="M34.84,132.1a8,8,0,0,1-7.61-10.47L38.87,85.82,8.41,63.69a8,8,0,0,1,4.7-14.46H50.76L62.4,13.43a8,8,0,0,1,15.2,0L89.23,49.24h37.65a8,8,0,0,1,4.69,14.46L101.11,85.83l11.64,35.82a8,8,0,0,1-12.31,8.94L70,108.46,39.52,130.59a8.06,8.06,0,0,1-4.7,1.53ZM70,96.15a5.42,5.42,0,0,1,3.23,1l26.21,19L90.1,87.49A8.45,8.45,0,0,1,93.18,78l24.46-17.77H87.4a8.46,8.46,0,0,1-8.07-5.86L70,25.61,60.65,54.38a8.47,8.47,0,0,1-8.07,5.86H22.35L46.81,78a8.45,8.45,0,0,1,3.08,9.47l-9.34,28.76,26.21-19a5.49,5.49,0,0,1,3.23-1Z"/></svg>