<svg id="Layer_1" data-name="Layer 1" xmlns="http://www.w3.org/2000/svg" viewBox="0 0 466.59 352.17"><title>quirkybox</title><path d="M469.61,262.29l-1.48-3.79v-1.64h-.38l1.39-104.55-2.36-4.78.46-33.48,2.35-4.78-.38-51.42V33.77l.17-1-.17-.53V24.41l.45-1.21-.45-1v-16h-1V4.61L430.35,2.47l-4.19,1.69-8.38-1.72L413.58,5,388.43,2.4l-4.19,1.77L373.5,4l-6.26-.69v.6L292.06,2.84l-4.19,2.24-29.33-.44-4.19-2.22-50.28.4-4.19,2L197,4.35v-2H10.82V3.46H7.61v.11l-4.52.1v34.4h1L3.33,45.7l.82,1.14v10.5l-.88,2.39.88.8V87.37l-1,5.12,1,1.26v5.73H6.67L4.08,200l4.46,4.68-.88,32.74-4.44,4.68.21,14.73H3.07v93.26h1v1.61l37.84,2.14,4.19-1.69,8.38,1.72,4.19-2.58,25.16,2.61,4.19-1.77,92.17,1.33,4.19-2.24,29.33.44,4.19,2.22,50.28-.4,4.19-2L285,353.71l4.19-1.42,4.19,1.69,4.19-2,62.83,1.79,4.19-2.21,2.68,1.49v1.42h98.35v-1.17h1.7l0-.62,1.9,0v-34.4h-.1l.42-8.12-1.41-3.77v-3l1.44-7.58-1.44-2.53v-15.6Z" transform="translate(-3.07 -2.32)"/></svg>