<?xml version="1.0" encoding="UTF-8"?><svg id="Layer_2" xmlns="http://www.w3.org/2000/svg" viewBox="0 0 571.5 255.67"><defs><style>.cls-1{fill:#010101;}.cls-2{fill:#e9e3c4;}.cls-3{fill:#fff;}.cls-4{fill:#b14150;}</style></defs><g id="Layer_1-2"><path class="cls-3" d="m325.85,170.97c-8.65-9.12-22.19-23.7-40.61-43.74-12.93,7.94-22.5,12.87-28.73,14.8,2.05,2.18,4.28,4.73,6.7,7.67-3.12,1.3-6.72,2.81-10.8,4.54-9.02,13.04-16.79,24.23-23.33,33.59,5.55,8.78,18.73,26.34,39.53,52.7,23.17-10.04,42.1-18.21,56.81-24.52l.43-45.03Z"/><path class="cls-1" d="m284.81,147.42l22.46,27,4,30.46c-19.3,8.21-31.72,13.54-37.26,15.98-3.46-5.54-10.91-16.34-22.36-32.4,4.82-8.21,8.32-14.26,10.48-18.14,9.5-1.08,16.24-1.98,20.2-2.7,5.18,6.55,9.04,11.2,11.56,13.93,1.01,4.82,1.84,9.14,2.48,12.96v.11c.29.86.47,1.73.54,2.59l-17.93,7.78c-4.18-6.34-7.31-10.8-9.4-13.39,1.3-2.59,3.13-6.48,5.51-11.66l8.21,3.67,2.59,8.42-5.08,2.05-4.32-10.8c-1.37,4.54-1.04,10.08.97,16.63,6.41-1.94,11.2-3.31,14.36-4.1l-4.32-16.2-14.69-5.62c-3.67,4.9-7.38,10.62-11.12,17.17,5.98,8.14,11.2,15.59,15.66,22.36,12.38-4.82,21.2-9,26.46-12.53-.86-3.67-2.2-11.74-4-24.19-7.2-7.49-12.53-13.18-15.98-17.06-12.17,1.44-20.2,2.23-24.08,2.38l-18.68,24.52c6.34,11.02,16.09,25.38,29.27,43.09l48.06-22.36c.07-1.37-.94-13.18-3.02-35.42-13.03-14.18-23.33-25.42-30.89-33.7-6.14,2.32-11.62,4.37-16.42,6.16-9.42,3.53-16.19,6.02-20.3,7.45-9.79,14.33-17.86,26.06-24.19,35.21,9.79,13.39,23.76,33.26,41.9,59.61,26.5-10.94,48.53-19.94,66.09-27-.5-9.72-.94-27.43-1.3-53.13-18.36-16.78-33.37-31.36-45.03-43.74l-33.26,21.17,33.05-12.96c20.09,23.26,32.18,37.12,36.29,41.58l.32,42.55c-10.37,3.67-28.22,10.15-53.57,19.44-15.41-17.71-27.33-34.09-35.75-49.14-.04-.08-.07-.15-.11-.22.04-.05.08-.12.11-.22,7.82-9.62,15.41-18.98,22.79-28.08l29.7-9.5Z"/><path class="cls-2" d="m287.42,87.58c4.43,10.46,15.72,18.84,33.85,25.15l44.3-17.74c-4.77-20.36-18.27-35.4-40.48-45.15-13.35,4.46-25.91,17.04-37.67,37.73m-12.8,9.41l-42.25-15.9-34.4,19.07c-.19.11-.17.39.03.47,0,0,19.62,14.71,37.49,14.23,16.38-.44,29.16-8.93,39.13-17.87Z"/><path class="cls-1" d="m278.23,62.81c-.08-4.38-.65-13.89-1.7-28.51-2.51,2.62-4.68,14.08-6.52,34.36-26.58-7.15-48.35-13.14-65.33-17.96-11.37,10.44-17.84,21.89-19.42,34.34.15-.05.97-1.03,2.45-2.95.67-.75,3.93-4.18,9.76-10.3,5.41-5.65,8.45-8.85,9.12-9.6,6.54,2.06,19.41,6.19,38.61,12.38,20.94,6.73,31.98,10.32,33.1,10.75.11-1.31.17-2.51.19-3.61.11-1.6.03-7.91-.26-18.92m-57.36-26.22c-.05.09,0,.26.14.5.14.29.28.48.42.57.47.29,1.06.6,1.76.94.24.1,1.96.71,5.15,1.84,3.23,1.17,7.15,3.21,11.76,6.1,4.62,2.89,8.15,5.65,10.6,8.28,2.9,1.73,4.01,1.67,3.33-.17-5.01-6.2-9.85-10.49-14.51-12.86-6.25-3.19-12.47-4.92-18.64-5.19m76.06,21.42c-1.43,1.07-2.75,2.3-3.94,3.71-2.3,2.71-3.97,5.88-5.01,9.51-.25.89-.42,1.72-.53,2.47.02,2.03-.01,3.09-.11,3.19.57-.56,1.11-1.5,1.59-2.82,1.41-3.38,3.34-6.48,5.78-9.28,2.4-2.81,5.17-5.16,8.31-7.06.43-.28.93-.67,1.5-1.19.62-.61.91-.98.86-1.12-.05-.14-.61-.22-1.7-.23s-1.73.05-2.06.19c-1.66.69-3.23,1.57-4.71,2.63m-8.92-52.27c-.07,1.61-.01,4.91.16,9.92.17,5.44.36,9.22.57,11.35.16,2.69.59,7.59,1.31,14.69.3,2.65.67,5.06,1.12,7.24.95-.22,2.01-.47,3.2-.74,11.7-2.83,29.45-7.48,53.25-13.94,3.94,6.19,7.54,10.82,10.81,13.88,2.48,2.35,6.45,5.39,11.93,9.15-1.17-4.55-8.02-16.28-20.54-35.19-15.25,3.36-32.9,7.27-52.94,11.75-2.83-12.08-5.66-23.36-8.51-33.84-.17,2.55-.29,4.46-.35,5.74m104.81,80.81c-.19,0-.45.02-.78.06-4.88.88-9.79,2.38-14.72,4.5-1.38.6-2.47,1.27-3.28,2.01-.62.56-.91.93-.86,1.12.18.52.68.74,1.48.66,4.26-1.03,6.87-1.71,7.82-2.03.57-.13,2.3-.85,5.2-2.13,3.09-1.38,4.75-2.23,4.99-2.56.05-.09.29-.33.72-.7.29-.23.34-.44.15-.64-.19-.14-.42-.24-.71-.29m-18.86,12.38c.05.14,1.18.42,3.39.82,1.08.2,2.17.4,3.25.61,1.13.2,2.43.34,3.89.4.85.06,2.17.1,3.97.12,1.51.02,2.57,0,3.19-.03,1.23-.03,2.29-.11,3.19-.24.19-.04.45-.16.78-.34.38-.23.5-.37.36-.42-.66-.29-2.87-.7-6.65-1.22-3.68-.47-6.35-.74-8-.81-1.37-.06-2.48-.08-3.33-.04-1.23.03-2.32.16-3.26.38h-.14c-.09,0-.24.09-.43.28-.19.23-.26.4-.22.49m-181,6.48c-.14-.14-.52-.22-1.13-.23-.61,0-1.04.06-1.28.2-7.94,3.78-11.95,5.73-12.05,5.88-.05.09.12.21.49.36.33.1.59.15.78.15.28,0,.95-.13,1.99-.4,1.04-.27,1.8-.5,2.28-.68,1.8-.73,3.18-1.31,4.13-1.72,1.47-.74,2.74-1.5,3.78-2.29.29-.19.5-.37.64-.56.19-.23.31-.47.36-.7m-17.59-4.68c1.23.25,3.56.35,7.01.3,3.17,0,5.36-.12,6.59-.34.8-.13,1.4-.29,1.78-.47.1-.05.14-.19.15-.42s-.04-.38-.14-.43c-.99-.53-3.42-.68-7.29-.44-.99.08-3.05.22-6.17.42-2.6.2-3.95.38-4.05.52-.19.23.51.53,2.12.88m39.42-24.74c5.19-3.19,6.74-4.66,4.66-4.41-2.58.53-5.07,1.32-7.47,2.39-4.18,1.88-7.47,4.41-9.87,7.6-2.35,3.25-3.78,7.65-4.27,13.2.38-.18.72-.53,1.01-1.05,1.4-2.67,3.11-5.51,5.14-8.51,2.02-2.95,5.63-6.03,10.81-9.22m14.39,51.63c3.25.56,5.19.8,5.8.71.71-.09,4.72-1.69,12.04-4.81,7.36-3.17,11.5-5.06,12.4-5.66,10.48-6.86,16.1-11,16.88-12.41.29-.52.59-1.55.89-3.11-.53.65-4.34,3.18-11.43,7.58-3.67,2.27-7.76,4.77-12.28,7.5-1.62.92-7.98,3.59-19.09,7.99-21.52-5.42-32.78-7.96-33.78-7.64-.33.14-.62.35-.86.63-.24.28-.29.56-.15.85.09.24,3.83,1.42,11.22,3.54,7.91,2.32,14.03,3.93,18.37,4.83m1.79,9.87c2.32-.11,4.68-.51,7.1-1.19,2.09-.54,4.34-1.36,6.76-2.47,1.71-.78,3.85-1.84,6.42-3.18,2.24-1.2,3.97-2.22,5.21-3.05.71-.51,2.46-1.98,5.23-4.4,2.82-2.47,4.78-4.26,5.88-5.38.91-.89,1.6-1.63,2.08-2.24.72-.94,1.23-1.83,1.52-2.67-1.67,1.16-4.24,3.04-7.72,5.65-3.24,2.42-5.13,3.83-5.65,4.25-6.54,5.26-14.17,9.16-22.89,11.69-4.31,1.22-7.98,1.96-11.01,2.2,2.21.64,4.57.91,7.08.8m55.13-28.38c1.02,1.67,2.46,3.69,4.32,6.08,2.23,2.91,6.31,7.71,12.22,14.4,0,.09,1.19.96,3.58,2.6,2.62,1.78,4.52,2.91,5.7,3.4,2.26.97,4.8,1.78,7.62,2.43,2.74.36,7.06.63,12.96.8h.07c-.24-.1-5.77-1.53-16.6-4.31-1.27-.49-4.72-2.54-10.34-6.15-1.5-1.06-3.04-2.42-4.63-4.1-.98-1.05-2.35-2.63-4.12-4.73l-13.96-17.11c.68,2.13,1.74,4.37,3.18,6.7m68.27,9.49c-.71-.15-1.13-.18-1.27-.09-1.91,1.39-4.19,2.57-6.85,3.53-1.99.68-4.53,1.34-7.61,1.96-1.14.22-2.91.48-5.32.78-2.6.35-4.26.51-4.97.51-1.27-.2-3.82-.76-7.63-1.65-4.52-1.05-7.18-1.79-7.98-2.22-.61-.29-1.29-.7-2.04-1.23-.47-.29-1.15-.75-2.04-1.37-1.4-1.01-3.98-3.14-7.72-6.4-3.97-3.5-6.8-6.11-8.48-7.83-3.21-3.42-5.42-5.95-6.64-7.59v.07c-.38.23,1.5,3.14,5.63,8.72,4.46,5.91,8.17,10.02,11.12,12.33.89.72,2.48,1.92,4.77,3.6,2.44,1.73,3.86,2.69,4.29,2.89,4.88,2.38,11.03,4.03,18.44,4.98.76.06,3.34-.38,7.74-1.32,3.65-.85,6.97-2.16,9.97-3.92.33-.18,1.24-.79,2.72-1.81,1.57-1.11,2.62-1.88,3.15-2.3.24-.19.48-.73.73-1.62m-29.39-70.73c-9.9,3.65-18.23,9.15-25.01,16.49-6.72,7.38-11.71,15.42-14.97,24.12-.31.89-.6,1.71-.88,2.47,11.35,13.25,23.48,21.46,36.41,24.61,6.95,1.34,23.77-5.06,50.48-19.22l-1.1-2.99c-2.37-6.15-5.22-11.9-8.57-17.26-11.16-16.76-23.28-26.16-36.36-28.23m0,5.32c4.74,1.13,10.79,4.89,18.14,11.28,8.02,6.98,14.91,16.56,20.69,28.74-20.08,10.7-34.14,16.43-42.17,17.2-5.35-1.46-10.94-4.06-16.77-7.79-5.78-3.69-10.52-8.12-14.22-13.29,5.49-15.15,16.93-27.2,34.32-36.14m-9.26,9.59c-.66.09-1.3.34-1.92.76-.86.6-1.7,1.61-2.52,3.02-1.69,2.91-2.87,6.32-3.53,10.23-.51,3.16-.7,6.82-.56,10.98.11,2.98.38,5.49.83,7.52.58,2.65,1.5,4.93,2.75,6.84.56.86,1.12,1.41,1.68,1.65.52.29,1.11.39,1.77.31.57-.09,1.14-.27,1.71-.55,1.52-.83,2.7-2.19,3.52-4.07.34-.75.63-1.62.88-2.61.15-.66.3-1.56.46-2.69,1.07-6.7,1.35-13.71.83-21.04-.12-1.75-.29-3.17-.51-4.26-.31-1.52-.82-2.82-1.51-3.92-.6-.95-1.26-1.6-1.96-1.94-.56-.24-1.2-.32-1.91-.24m-37.78,34.76c-15.35-10.28-30.72-16.5-46.12-18.64-2.14.49-6.25,2.24-12.32,5.23-9.18,4.55-17.31,9.93-24.36,16.14,8.15,6.12,16.14,10.69,24,13.69,7.85,3,15.91,3.95,24.2,2.85,8.34-1.05,19.88-7.48,34.61-19.27m-15.2-2.88c4.64,2.12,7.08,3.33,7.33,3.63-12.09,8.24-23.06,12.59-32.9,13.06-12.09-.33-23.88-4.09-35.37-11.28,10.02-7.25,20.31-12.4,30.88-15.42l3.32.82c1.63,13.52,4.17,20.04,7.62,19.58,3.45-.42,5.74-5.47,6.85-15.15,3.59,1.06,7.68,2.64,12.27,4.76Z"/><path class="cls-4" d="m194.62,159.12h.03c-.14-.16-.32-.25-.54-.27l-37.44-4.16c-.15-.02-.31,0-.46.08h0c-.12.08-.22.17-.29.3,0,.01-.02.02-.03.03-.07.13-.11.27-.11.4l1.56,71.52c0,.15.04.29.11.4,0,.02,0,.03,0,.03.09.13.21.23.35.29.13.07.27.09.4.08h.03l11.53-1.07h0c.2-.03.37-.12.51-.27v-.03c.14-.14.22-.31.21-.51l.11-20.33c4.8.06,11.62.02,20.46-.13h.03c.21,0,.38-.09.54-.24.15-.14.23-.32.24-.54l2.98-45v-.03c.01-.2-.06-.39-.21-.56m39.66,5.04c0-.22-.08-.41-.24-.56v-.03c-.16-.14-.34-.22-.56-.21h-.16l-7.24-.83h0c-.15-.02-.31.01-.46.08h.03c-.14.06-.26.16-.35.29-.07.13-.11.27-.11.43l-.11,32.83c-3.01-11.69-5.49-22.92-7.46-33.68,0-.01,0-.03,0-.05-.02-.08-.06-.16-.11-.24l-.11-.19v.03c-.05-.12-.13-.22-.24-.29,0,0-.02-.01-.03-.03-.11-.06-.24-.1-.38-.11l-17.08-1.77s-.04,0-.05,0h-.03c-.35-.02-.62.08-.8.32-.16.17-.24.45-.24.83l1.21,61.55c0,.09.01.17.03.24,0,.01,0,.02,0,.03l.21.59c.07.18.18.31.32.4h.03c.15.1.31.15.48.13l9.04-.72h.03c.21-.02.38-.12.51-.29v.03c.15-.15.22-.34.21-.56l-.7-35.08c3.13,12.44,5.79,23.96,7.99,34.57h0c.06.2.16.36.32.48h0c.16.12.34.18.54.16h.03l14.51-1.31h0c.21-.03.37-.12.51-.27v-.03c.14-.14.22-.31.21-.51v-.03c-.07-13.69,0-32.41.24-56.18m-119.45-13.95c-.33-.23-.74-.24-1.23-.05l-13.92-1.88c-.07-.01-.14-.01-.21,0h-.03l-.72.11h0c-.21.04-.38.15-.51.32-.13.18-.19.37-.16.59l7.72,58.46c.03.21.13.38.29.51l-.03-.03c.17.15.36.22.56.21l10.46-.56.24,22.69c0,.15.04.28.11.4v.03c.09.13.21.23.35.29.14.07.28.09.43.08l13.97-1.42c.57.05,1.1-.36,1.61-1.23h-.03c.09-.13.13-.27.13-.43l-.8-20.62,9.2-.4c.2-.02.37-.1.51-.24l-.03.03c.16-.14.25-.32.27-.54l4.53-51.81h0c.01-.21-.05-.4-.19-.56-.14-.17-.32-.27-.54-.29l-13.92-1.56h-.03c-.14-.01-.27.01-.4.08h0c-.12.06-.23.15-.32.27l.03-.05c-.09.13-.14.26-.16.4v.03l-3.38,43.26-7.16.11c-.34-.03-.52-.16-.56-.4v-1.56s0-.05,0-.08l-5.23-42.78s-.01-.03-.03-.05c-.14-.7-.42-1.14-.83-1.31m-97.99-10.65c-.14.08-.24.19-.32.32l.03-.03c-.09.13-.14.27-.13.43l1.56,99.09c0,.15.04.29.11.4,0,.02,0,.03,0,.03.09.13.21.23.35.29.14.07.28.09.43.08l21.62-2.01h0c.21-.03.38-.11.51-.27v-.03c.15-.14.22-.32.21-.54l-.7-43.34.46-.05,25.1.13c.12,0,.24-.03.35-.08h0c.31-.15.58-.15.8,0,.05.04.09.07.13.08.03.12.09.35.19.7l.35,39.96c0,.15.03.28.11.4,0,.02,0,.03,0,.03.09.13.21.23.35.29.13.07.27.09.4.08l18.05-1.53h.03c.21-.02.38-.12.51-.3v.03c.15-.15.22-.34.21-.56l-1.66-84.5s0-.01,0-.03c0-.05-.03-.11-.05-.16l.03.03c-.35-1.42-.98-2.1-1.9-2.04h-.05l-16.55-1.53c-.16-.01-.31.01-.46.08h0c-.14.08-.24.19-.32.32l.03-.03c-.09.13-.13.28-.13.43l.67,35.32-26.55-.72c-.18-.04-.34-.09-.46-.16.02-.03.03-.06.03-.11l-.62-37.44c0-.19-.07-.36-.21-.51-.13-.15-.29-.24-.48-.27h-.03l-21.51-2.39c-.15-.02-.31.01-.46.08h0m320.48,22.45c-.14-.07-.28-.09-.43-.08l-15.69,1.42h-.05c-.22,0-.41.07-.56.21l-.03.03c-.15.16-.22.34-.21.56l.13,7.75c0,.15.05.28.13.4,0,.01.02.02.03.03.08.13.19.22.32.27v.03c.17.07.33.07.48.03.59-.12,1.37-.19,2.33-.19h1.34l.59,48c0,.2.06.38.19.54,0,0,.02.02.03.03.14.15.31.23.51.24l4.88.48c.15.02.3-.01.43-.08.45-.22.67-.58.67-1.07l-.7-48.59c2.04-.18,3.79-.27,5.26-.27.22,0,.41-.08.56-.24h0c.16-.16.24-.34.24-.56v-8.21c0-.15-.05-.3-.13-.43l.03.03c-.08-.13-.18-.24-.32-.32,0,0-.01,0-.03,0m22.55-.83c0-.13-.04-.27-.11-.4,0,0-.01,0-.03-.03-.08-.12-.18-.2-.32-.27-.13-.06-.27-.09-.43-.08l-17.94,1.42c-.2.01-.37.09-.51.24,0,0-.01.02-.03.03-.12.15-.19.33-.19.54l-.13,59.64c0,.2.06.38.19.54.14.15.31.24.51.27h0l19.26,2.25h.03c.15.02.3,0,.43-.08l.03-.03c.12-.06.22-.15.3-.27,0-.01.02-.03.03-.05.07-.12.11-.25.11-.4l-1.18-63.32m29.96-3.43c-.13-.07-.27-.1-.43-.08l-24.73,2.25h-.03c-.19.02-.35.11-.48.27h-.03c-.13.16-.19.34-.19.54l1.21,64.28c0,.2.07.37.19.51h0c.13.16.29.25.48.27,0,.01.02.02.03.03l6.89.94c.16.02.31,0,.46-.08h-.05c.16-.05.28-.14.38-.27,0,0,0-.02,0-.03.09-.14.14-.29.13-.46l-.48-22.69,2.55.32,5.34,23.76v.03c.06.17.14.3.27.4h0c.13.13.28.2.46.21l7.72.83h0c.18.01.34-.03.48-.13v.03c.15-.09.26-.21.32-.38l-.03.03c.09-.16.12-.33.08-.51v-.03l-5.44-23.95,2.63.11c.21,0,.4-.07.56-.21,0,0,.02,0,.03,0,.16-.15.24-.34.24-.56l1.9-44.68c0-.15-.03-.29-.11-.43,0,0-.01,0-.03-.03-.07-.12-.17-.21-.3-.29h-.03m13.76-.27c0-.21-.09-.39-.24-.54-.15-.16-.34-.24-.56-.24h0c-1.83,0-4.23.08-7.19.24-.2.01-.38.09-.54.24,0,0,0,0-.03,0-.13.16-.19.35-.19.56l.72,71.07c0,.21.06.38.19.54.14.15.31.24.51.27h.03l7.83.83c.15.02.3-.01.43-.08l.03-.03c.14-.06.24-.16.32-.29l-.03.03c.09-.13.13-.27.13-.43l-1.42-72.17m37.55-3.38c-.08-.11-.18-.2-.32-.27-.12-.06-.25-.09-.4-.08l-30.65,1.77c-.2.01-.38.09-.54.24,0,0,0,0-.03,0-.13.17-.19.36-.19.56l1.29,74.26c0,.21.07.39.19.54.14.15.31.24.51.27h0l32.1,3.81c.17.02.32,0,.46-.08l.03-.03c.13-.06.23-.16.29-.3.01,0,.02,0,.03-.03.07-.12.11-.25.11-.4l-2.74-79.84c0-.14-.05-.28-.13-.4v-.03m20.65-2.01l-9.98.59c-.2.01-.38.09-.54.24,0,0,0,0-.03,0-.13.17-.19.36-.19.56l1.31,81.05s0,.04,0,.05l.11,1.21h0c.02.19.09.35.21.48h.03c.13.14.28.22.46.24l36.12,4.37h.03c.14.01.26-.01.38-.08.03,0,.04,0,.05-.03.13-.05.23-.13.3-.24.02,0,.03-.03.03-.05.09-.11.13-.25.13-.4l1.77-89.57s0-.05,0-.08v-.03c-.11-.76-.31-1.27-.62-1.53l.03.03c-.37-.44-.86-.53-1.45-.27l-11.45.94c-.55-.21-.98-.11-1.29.29-.25.22-.38.67-.38,1.34l-1.29,75.23c-.04.14-.11.26-.21.35l-10.7-1.18-1.98-72.73c0-.15-.05-.28-.13-.4v-.03c-.08-.11-.18-.2-.32-.27-.12-.07-.25-.09-.4-.08m88.58-9.92s-.01,0-.03,0c-.14-.07-.28-.09-.43-.08l-46.8,4.29h-.03c-.2.02-.37.11-.51.27-.13.17-.19.35-.19.56l.94,36.96c-.04.69.37,1.32,1.23,1.88.03.02.06.04.08.05l29.93,19.5h.03c.23.15.93.57,2.12,1.23.15,11.24.31,19.86.46,25.85l-18.77-1.66-.86-7.54c-.02-.17-.1-.32-.24-.46v-.03c-.13-.12-.29-.19-.48-.21h0c-4.52-.48-8.96-.92-13.3-1.31-.15-.01-.29.01-.43.08-.01,0-.03,0-.05,0-.12.08-.22.19-.29.32l.03-.03c-.09.13-.13.27-.13.43,0,6.97.04,13.47.11,19.5,0,.2.06.38.19.54v-.03c.13.16.29.26.48.29h.03l51.57,6.52h0c.16.01.31-.01.46-.08,0,0,.02-.01.03-.03.13-.06.23-.16.29-.29.01,0,.02,0,.03-.03.07-.12.11-.25.11-.4l-1.56-50.87c0-.13-.05-.26-.13-.38v.03c-.06-.12-.15-.22-.27-.3-6.27-3.77-17.46-10.47-33.58-20.09l-.46-18.67,15.85-1.5c.02,2.93.14,6.73.35,11.4,0,.15.04.29.11.4.02.02.03.03.03.03.1.13.21.22.35.27l-.03-.03c.14.08.28.12.43.11,6.18-.64,10.73-1.08,13.65-1.31h.03c.21-.02.39-.12.54-.3h-.03c.15-.15.22-.33.21-.54-.41-13.84-.62-21.72-.62-23.63,0-.15-.05-.3-.13-.43l.03.03c-.08-.13-.18-.24-.32-.32Z"/><path class="cls-1" d="m499.04,143.03v1.18l-25.32,2.63v.83c-72.79,5.54-125.18,9.9-157.18,13.06.46,6.49.78,11.36.94,14.62,1.59.55,2.9.95,3.92,1.18.32,20.44.56,35.93.72,46.48,3.95.63,8.35,1.3,13.19,2.01,1.57-1.2,2.56-1.87,2.95-2.01l.13,1.77,38.03,4.64,2.12-2.49c.4,1.08.75,2.08,1.07,2.98l27.57,4.02,1.66-1.66.13,1.9,37.17,4.88,2.04-1.9.11,2.12,47.17,6.2,2.84-1.42v1.77l59.05,9.87c3.49-2.06,8.2-4.71,14.13-7.97l-1.29-58.22c-8.47-3.16-15.53-6.18-21.16-9.04l-.05-4.61c5.13-2.54,11.25-5.39,18.34-8.56l-.46-24-14.75-5.61-53.1,5.36m-157.91,19.6l17.94-1.42,1.18,63.32-19.26-2.25.13-59.64m-4.16.11v8.21c-1.66,0-3.68.12-6.06.35l.7,49.86c0,.07-1.7-.15-5.1-.67l-.59-48.81c-.46,0-1.25.03-2.36.08-1.25.04-2.01.08-2.28.13l-.13-7.72,15.82-1.42m50.61,40.42l-3.67-.13,5.69,24.97-7.72-.83-5.34-23.79c0-.39-1.39-.74-4.16-1.05l.48,23.63-6.89-.94-1.21-64.28,24.73-2.25-1.9,44.68m64.28-49.67l9.98-.59,2.01,73.43,12.6,1.29c.3-.16.7-25.49,1.18-75.98.75-.18,2.91-.44,6.46-.78,2.81-.27,5.17-.47,7.08-.62l-1.77,89.84-36.12-4.37-.11-1.21-1.31-81.02m101.7,43.96l1.56,50.85-51.57-6.52c-.07-6.03-.11-12.52-.11-19.5,4.34.39,8.78.83,13.3,1.31l.94,8.18,20.33,1.8c-.16-6.1-.32-15.17-.48-27.22-1.09-.64-6.83-4.39-17.22-11.24-10.78-7.12-16.17-10.77-16.17-10.97l-.94-36.96,46.8-4.29c0,1.91.21,9.8.62,23.65-2.93.23-7.49.67-13.68,1.31-.23-5.15-.35-9.23-.35-12.26l-17.46,1.66.46,19.85c16.32,9.74,27.65,16.52,33.98,20.33m-23.17,13.78l.38,7.59c-8.3-1.55-14.69-2.73-19.15-3.54-.08-5.53-.31-11.27-.7-17.24,4.04,2.77,10.53,7.17,19.47,13.19m-120.58-54.6c6.38-.4,16.6-1.09,30.65-2.07l2.74,79.84-32.1-3.81-1.29-73.97m-14.16,1.26c1.72-.08,4.1-.21,7.13-.38l1.42,72.14-7.83-.83-.72-70.93m35.53,6.76l-13.06.97,1.29,56.53,13.57,1.21-1.8-58.71m-50.61,29.82c.23-4.49.45-8.98.64-13.46.41-8.98.55-13.44.4-13.38l-9.84.72.35,25.64,8.45.48m-27.46-24.94l-6.76.48c-.16,21.54-.32,36.63-.48,45.27l8.21.7-.97-46.45M16.28,135.55c-.41.18-2.59,1.24-6.54,3.19-4.59,2.25-7.84,3.88-9.74,4.88l2.01,94.8c4.68,1.75,10.03,3.77,16.04,6.06l28.78-3.08-.72-43.47,5.71-.13.7,39.34c1.9.46,4.03.91,6.41,1.34,1.07.2,4.05.7,8.93,1.5l24.11-2.84-.59-25.8,14.13,4.53.24,13.78,11.4,4.99,19.98-2.15-.59-22.1,9.25.24c.16,4.27.44,9.57.83,15.9,3.58,1.27,6.98,2.58,10.22,3.94l16.41-1.45-.13-19.23,15.58.24c-.16,2.45-.21,6.96-.13,13.54l10.94,3.19,38.38-3.57.59-62.49c-5.38-.55-10.73-1.14-16.04-1.77l-1.31,1.88-.24-2.01c-29.93-3.4-60.03-6.77-90.3-10.11l-11.4,4.64-.83-5.82c-27.34-3.16-45.91-5.3-55.73-6.41-3.72,1.82-7.45,3.6-11.18,5.34l.13,30.3-5.58-.24-.67-37.65-29.04-3.33m153.51,69.27l-.11,21.13-11.53,1.07-1.56-71.52,37.44,4.16-2.98,45.03c-9.35.16-16.44.21-21.27.13M17.22,140.3l21.51,2.39c.64,25.64,1.02,38.47,1.13,38.48l28.11.59-.7-35.99,17.81,1.88,1.66,85.58-18.05,1.53c-.14-6.88-.29-13.78-.43-20.68-.3-13.78-.48-20.68-.54-20.68-.3-.23-9.65-.27-28.03-.11l.7,44.09-21.62,2.01-1.56-99.09m81.64,8.9c10.64,1.09,15.98,1.65,16.04,1.69,3.61,30.91,5.52,46.35,5.74,46.32l8.77-.11,3.43-43.98,13.92,1.56-4.53,51.81-9.98.46.83,22.34c-.02.2-5.01.63-14.96,1.31l-.24-23.52-11.29.59-7.72-58.46m134.39,14.96h.24c-.23,23.78-.31,42.52-.24,56.21l-14.51,1.31c-2.61-12.52-5.86-26.3-9.74-41.35l.83,42.05-9.31.72c-.16-10.41-.32-20.82-.48-31.24-.32-20.83-.46-31.24-.43-31.24l17.11,1.77,3.16,14.75c2.41,11,4.41,19.39,5.98,25.18l.13-38.99,7.24.83m-50.61,28.64l.21-.59,2.23-22.58-17.3-.7.7,24.22,14.16-.35Z"/></g></svg>