<svg id="Capa_1" data-name="Capa 1" xmlns="http://www.w3.org/2000/svg" viewBox="0 0 1635.32 162.31"><defs><style>.cls-1{fill:#4254f4;}.cls-2{fill:#fff;}</style></defs><g id="Layer_1" data-name="Layer 1"><path class="cls-1" d="M49.1,40.08H24v88.5c0,11.3-3.8,15.7-9.4,15.7a55.19,55.19,0,0,1-12.2-1.7L0,159.88a71.09,71.09,0,0,0,19.2,2.4c20.8,0,30-12.4,30-32.8ZM24,26.48H49.3V5.08H24Z" transform="translate(0 0.02)"/><path class="cls-1" d="M82.6,70.18a31.53,31.53,0,0,1-.3-4c0-7.3,5.1-10.6,15.5-10.6s15.2,5.2,15.2,12.7v6.8c-42.8.9-57.1,11.3-57.1,29.3,0,15.5,11,23,27.8,23,18.5,0,29-10.1,31.9-13.6h1c.3,6.5,3.1,13.6,15.9,13.6a46.92,46.92,0,0,0,14.3-2.3l-1-16.8a13.42,13.42,0,0,1-4.4.7c-2.4,0-3.8-1.4-3.8-4.9V69.38c0-16.1-8.2-31.1-38.6-31.1-27.1,0-39.4,10.5-39.4,26.9a44.34,44.34,0,0,0,.5,6.3Zm-2.4,31c0-7.3,7.2-12.6,32.8-13.1v12.6a29.11,29.11,0,0,1-21.1,9.4C84.42,110.08,80.2,107.48,80.2,101.18Z" transform="translate(0 0.02)"/><path class="cls-1" d="M146.5,83.08c0,28.1,15,44.3,45,44.3,35.8,0,39.4-21.3,39.4-29.8a26.05,26.05,0,0,0-.3-4.5l-25-.3a10.15,10.15,0,0,1,.3,2.8c0,5.2-2.8,14-15.2,14s-18.7-9.3-18.7-26.4c0-20.1,7-26.7,18.7-26.7,12.4,0,15.2,8.9,15.2,14a10.81,10.81,0,0,1-.3,3l25-.5a26.05,26.05,0,0,0,.3-4.5c0-9.3-3.7-29.8-39.4-29.8C160.1,38.38,146.5,58.78,146.5,83.08Z" transform="translate(0 0.02)"/><path class="cls-1" d="M238.3,125.68h25.12V99.28c3.1-1.9,10.1-6.6,13.4-9.3,3.8,4.2,19.7,32.5,23.4,35.6h27.1v-3c-4.7-3.8-27.2-40.8-31.8-46.3,8.4-7.2,21.1-19.9,30-33.3V40h-27.4c-8.4,13.4-22.7,26.9-34.7,35.1V0h-25.1Z" transform="translate(0 0.02)"/><path class="cls-1" d="M331,125.68h18.9l3.7-9.4h1c4,4.4,11.5,11.2,26.7,11.2,19.2,0,36.5-12.6,36.5-44.7,0-32.5-17.8-44.3-36.5-44.3-11.9,0-19.9,4.9-24.1,9.8h-1V0H331.1Zm25.1-61.8a21.91,21.91,0,0,1,15.9-7.5c11.2,0,20.1,5.8,20.1,26.4,0,20.4-8.4,26.7-20.1,26.7a20.12,20.12,0,0,1-15.9-7.3Z" transform="translate(0 0.02)"/><path class="cls-1" d="M420.42,83.08c0,26.9,14.7,44.3,45,44.3,30,0,45-17.5,45-44.3,0-27.1-15-44.7-45-44.7C435,38.38,420.42,56,420.42,83.08Zm45,26.3c-12,0-19.5-6.8-19.5-26.4,0-19.9,7.5-26.7,19.5-26.7,11.7,0,19.4,6.8,19.4,26.7C484.8,102.58,477.1,109.38,465.42,109.38Z" transform="translate(0 0.02)"/><path class="cls-1" d="M507.6,125.68h26.82l11.5-17.3c3.1-4.9,5.2-8.2,7.9-13.4H555a125.47,125.47,0,0,0,7.7,13.1l11.9,17.6h26.7v-2.4l-30.7-41.4,30.2-39.1v-2.7H574.1l-10.6,15.5a127,127,0,0,0-8.4,13.8h-1.2a102.08,102.08,0,0,0-8.2-14l-10.6-15.3H508.4v2.6l29.8,39.8-30.5,40.7Z" transform="translate(0 0.02)"/><rect class="cls-1" x="605.2" y="98.8" width="29" height="26.9"/><path class="cls-2" d="M875.62,56.7c4.6-9,12.6-16,25.7-16,13.6,0,20.7,6.6,23.3,16.7h1c4.6-8.5,12.1-16.7,25-16.7,15.6,0,24.8,8.2,24.8,23.8a58.05,58.05,0,0,1-1,9.2l-5.1,28.2c-.5,2.9-1.4,8,3.2,8a14.46,14.46,0,0,0,6.3-1.7l-2.4,16.7a66.27,66.27,0,0,1-16,2.6c-11.4,0-16.5-5.6-16.5-14.5a37,37,0,0,1,.7-6.8l5.6-32.5a46.49,46.49,0,0,0,.5-5.9c0-6-2.7-9.5-9.2-9.5-7.3,0-15.5,6.8-18.9,26.9l-7,40.6h-24.3l9.2-52a48.7,48.7,0,0,0,.7-5.9c0-6-2.5-9.5-9-9.5-7.3,0-15.6,6.8-19.2,26.9l-7.1,40.6h-24.5l10.5-60c.5-3.2.8-7.5-3.7-7.5a12.36,12.36,0,0,0-5.8,1.5l1.9-16.7a53.92,53.92,0,0,1,15.5-2.4c10.7,0,15.1,5.9,15.1,12.2,0,1-.2,2.5-.3,3.7Z" transform="translate(0 0.02)"/><path class="cls-2" d="M1029.12,40.7c25.2,0,37.2,13.8,37.2,33.7,0,30.8-15.8,53-46.2,53-25.3,0-37.1-13.6-37.1-33.3C983,63.3,998.32,40.7,1029.12,40.7Zm12.2,33.7c0-11-4.8-16.1-12.6-16.1-13.6,0-20.9,12.4-20.9,35.7,0,11,4.8,16,12.4,16C1033.52,109.9,1041.32,97.8,1041.32,74.4Z" transform="translate(0 0.02)"/><path class="cls-2" d="M1121.42,116c-4.4,4.2-12.4,11.4-26,11.4-13.3,0-25.7-9.5-25.7-33.5,0-38.2,22.1-53.2,39.9-53.2,11,0,17.5,4.8,20.6,9.5h.8l8.5-46.9H1164l-17.7,98.6c-.5,2.7-1.7,8,2.9,8a16.53,16.53,0,0,0,6.3-1.5l-2.4,16.5a63.83,63.83,0,0,1-16,2.6c-10,0-14.1-4.1-15-11.4l-.7-.1Zm7-50.3c-2.4-4.2-6.8-7.5-11.9-7.5-10.7,0-21.6,9.7-21.6,33.8,0,13.3,5.9,17.8,12.7,17.8,5.8,0,11-3.2,14.3-7.1Z" transform="translate(0 0.02)"/><path class="cls-2" d="M1207.92,40.7c21.4,0,34.2,11.4,34.2,27a55.45,55.45,0,0,1-3.9,19.2h-52.5a33.08,33.08,0,0,0-.8,8c0,10.5,4.4,15.5,12.8,15.5,8.7,0,16.3-3.9,16.3-13.4l22.4.3c0,20.6-18,30.1-39.3,30.1-24.6,0-36.2-12.6-36.2-32.3C1160.82,65.4,1175.12,40.7,1207.92,40.7Zm10.7,32.3a14.37,14.37,0,0,0,1-5.8c0-7.6-5.4-10.5-12.2-10.5-9.2,0-16.3,4.6-19.4,16.3Z" transform="translate(0 0.02)"/><path class="cls-2" d="M1278.12,81l-8.2,44.7h-24.4l10.5-60c.5-3.1.8-7.5-3.7-7.5a12.36,12.36,0,0,0-5.8,1.5l1.9-16.7a53.92,53.92,0,0,1,15.5-2.4c10.7,0,14.6,5.9,14.6,11.9a17.69,17.69,0,0,1-.5,4.1h1c4.2-8.2,11-16,23.3-16,12.9,0,18.7,8.7,18.7,18.7a37.37,37.37,0,0,1-4.6,18.5l-20.6-1.2c1.4-4.1,2.4-7.3,2.4-10.7,0-4.2-1.9-7.5-5.6-7.5C1287,58.6,1280.72,66,1278.12,81Z" transform="translate(0 0.02)"/><path class="cls-2" d="M1317.92,93.9c0-31.4,18.4-53.2,39.8-53.2,13.8,0,19.5,6.5,23,11.7h1l5.1-10h18.4l-10.5,59.5c-.5,2.5-1.7,8.2,2.9,8.2a15.73,15.73,0,0,0,6.3-1.7l-2.4,16.5a63.83,63.83,0,0,1-16,2.6c-10,0-14.1-4.1-15-11.4h-.8c-4.4,4.2-12.4,11.4-24.8,11.4C1330.72,127.4,1317.92,117.9,1317.92,93.9Zm58.7-28.2a12.22,12.22,0,0,0-11.4-7.5c-10.5,0-21.2,12.6-21.2,35,0,12.4,5.6,16.7,12.2,16.7,6,0,10.7-3.2,13.9-7.1Z" transform="translate(0 0.02)"/><path class="cls-2" d="M1424.52,57.5h-13.6l2.7-15.1h16.3l8.5-18.9h16.3l-3.2,18.9h25L1474,57.5h-25l-7,39.8c-1.2,6.5-.3,11,7.1,11,4.4,0,9.7-1.7,16-4.8l-2.4,19.5a63.52,63.52,0,0,1-22.4,4.2c-15.5,0-24-8.3-24-19.5a37.35,37.35,0,0,1,.9-8.3Z" transform="translate(0 0.02)"/><path class="cls-2" d="M1518.22,40.7c25.2,0,37.2,13.8,37.2,33.7,0,30.8-15.8,53-46.2,53-25.3,0-37.1-13.6-37.1-33.3C1472.12,63.3,1487.42,40.7,1518.22,40.7Zm12.2,33.7c0-11-4.8-16.1-12.6-16.1-13.6,0-20.9,12.4-20.9,35.7,0,11,4.8,16,12.4,16,13.3-.1,21.1-12.2,21.1-35.6Z" transform="translate(0 0.02)"/><path class="cls-2" d="M1592.52,81l-8.2,44.7h-24.5l10.5-60c.5-3.1.8-7.5-3.7-7.5a12.36,12.36,0,0,0-5.8,1.5l1.9-16.7a53.92,53.92,0,0,1,15.5-2.4c10.7,0,14.6,5.9,14.6,11.9a17.69,17.69,0,0,1-.5,4.1h1c4.2-8.2,11-16,23.3-16,12.9,0,18.7,8.7,18.7,18.7a37.37,37.37,0,0,1-4.6,18.5l-20.6-1.2c1.4-4.1,2.4-7.3,2.4-10.7,0-4.2-1.9-7.5-5.6-7.5C1601.32,58.6,1595,66,1592.52,81Z" transform="translate(0 0.02)"/></g><path class="cls-1" d="M644.42,131.59l27.12,3.3q.68,4.73,3.12,6.5,3.38,2.54,10.65,2.54,9.29,0,13.93-2.79a11.46,11.46,0,0,0,4.73-6q1.11-3,1.1-10.9V111.15q-10.64,14.53-26.86,14.53-18.08,0-28.64-15.29-8.28-12.08-8.27-30.07,0-22.56,10.85-34.47a35,35,0,0,1,27-11.91q16.64,0,27.45,14.62V36h22.22v80.5q0,15.89-2.62,23.74a29.43,29.43,0,0,1-7.35,12.33,32.4,32.4,0,0,1-12.63,7q-7.89,2.53-20,2.54-22.8,0-32.35-7.82a24.51,24.51,0,0,1-9.54-19.8C644.34,133.68,644.36,132.72,644.42,131.59ZM665.62,79q0,14.27,5.54,20.9a17.06,17.06,0,0,0,13.64,6.63,18.87,18.87,0,0,0,14.7-6.79q6-6.81,6-20.15,0-13.94-5.74-20.7a18.27,18.27,0,0,0-14.53-6.76,17.51,17.51,0,0,0-14.06,6.64Q665.63,65.37,665.62,79Z" transform="translate(0 0.02)"/><path class="cls-1" d="M741.1,131.59l27.12,3.3q.67,4.73,3.12,6.5,3.38,2.54,10.64,2.54,9.3,0,13.94-2.79a11.46,11.46,0,0,0,4.73-6q1.1-3,1.1-10.9V111.15q-10.63,14.53-26.86,14.53-18.07,0-28.64-15.29Q738,98.32,738,80.32q0-22.56,10.86-34.47a35,35,0,0,1,27-11.91q16.63,0,27.45,14.62V36h22.22v80.5q0,15.89-2.62,23.74a29.43,29.43,0,0,1-7.35,12.33,32.4,32.4,0,0,1-12.63,7q-7.89,2.53-20,2.54-22.8,0-32.35-7.82a24.51,24.51,0,0,1-9.54-19.8C741,133.68,741,132.72,741.1,131.59ZM762.3,79q0,14.27,5.54,20.9a17.06,17.06,0,0,0,13.64,6.63,18.87,18.87,0,0,0,14.7-6.79q6-6.81,6-20.15,0-13.94-5.74-20.7A18.27,18.27,0,0,0,781.9,52.1a17.51,17.51,0,0,0-14.06,6.64Q762.31,65.37,762.3,79Z" transform="translate(0 0.02)"/></svg>