<?xml version="1.0" encoding="utf-8"?>
<svg version="1.1" id="Layer_1" xmlns:serif="http://www.serif.com/" xmlns="http://www.w3.org/2000/svg" xmlns:xlink="http://www.w3.org/1999/xlink" x="0px" y="0px" viewBox="0 0 1615.8 162.3" style="enable-background:new 0 0 1615.8 162.3;" xml:space="preserve">
	<style type="text/css">
		.st0{fill:#4254F4;}
		.st1{fill:#FFFFFF;}
	</style>
	<g>
		<g transform="matrix(1,0,0,1,-105.42,-12.32)">
			<g>
				<g>
					<path class="st0" d="M154.5,52.4h-25.1v88.5c0,11.3-3.8,15.7-9.4,15.7c-4.5,0-8.6-0.9-12.2-1.7l-2.4,17.3
					c5.1,1.4,11.2,2.4,19.2,2.4c20.8,0,30-12.4,30-32.8V52.4H154.5z M129.4,38.8h25.3V17.4h-25.3V38.8z" />
					<path class="st0" d="M188,82.5c-0.2-1.4-0.3-3-0.3-4c0-7.3,5.1-10.6,15.5-10.6c10.5,0,15.2,5.2,15.2,12.7v6.8
					c-42.8,0.9-57.1,11.3-57.1,29.3c0,15.5,11,23,27.8,23c18.5,0,29-10.1,31.9-13.6h1c0.3,6.5,3.1,13.6,15.9,13.6
					c5.1,0,10.5-1,14.3-2.3l-1-16.8c-1.4,0.5-3,0.7-4.4,0.7c-2.4,0-3.8-1.4-3.8-4.9V81.7c0-16.1-8.2-31.1-38.6-31.1
					c-27.1,0-39.4,10.5-39.4,26.9c0,1.9,0.2,4.4,0.5,6.3L188,82.5z M185.6,113.5c0-7.3,7.2-12.6,32.8-13.1V113
					c-4.9,5.6-13.1,9.4-21.1,9.4C189.8,122.4,185.6,119.8,185.6,113.5z" />
					<path class="st0" d="M251.9,95.4c0,28.1,15,44.3,45,44.3c35.8,0,39.4-21.3,39.4-29.8c0-1.2,0-2.8-0.3-4.5l-25-0.3
					c0.3,1,0.3,2.1,0.3,2.8c0,5.2-2.8,14-15.2,14s-18.7-9.3-18.7-26.4c0-20.1,7-26.7,18.7-26.7c12.4,0,15.2,8.9,15.2,14
					c0,0.9,0,1.9-0.3,3l25-0.5c0.3-1.9,0.3-3.1,0.3-4.5c0-9.3-3.7-29.8-39.4-29.8C265.5,50.7,251.9,71.1,251.9,95.4z" />
					<path class="st0" d="M343.7,138h25.1v-26.4c3.1-1.9,10.1-6.6,13.4-9.3c3.8,4.2,19.7,32.5,23.4,35.6h27.1v-3
					c-4.7-3.8-27.2-40.8-31.8-46.3c8.4-7.2,21.1-19.9,30-33.3v-3h-27.4c-8.4,13.4-22.7,26.9-34.7,35.1V12.3h-25.1V138z" />
					<path class="st0" d="M436.4,138h18.9l3.7-9.4h1c4,4.4,11.5,11.2,26.7,11.2c19.2,0,36.5-12.6,36.5-44.7
					c0-32.5-17.8-44.3-36.5-44.3c-11.9,0-19.9,4.9-24.1,9.8h-1V12.3h-25.1V138H436.4z M461.5,76.2c3.8-4.4,9.9-7.5,15.9-7.5
					c11.2,0,20.1,5.8,20.1,26.4c0,20.4-8.4,26.7-20.1,26.7c-7.2,0-12.7-3.3-15.9-7.3V76.2z" />
					<path class="st0" d="M525.8,95.4c0,26.9,14.7,44.3,45,44.3c30,0,45-17.5,45-44.3c0-27.1-15-44.7-45-44.7
					C540.4,50.7,525.8,68.3,525.8,95.4z M570.8,121.7c-12,0-19.5-6.8-19.5-26.4c0-19.9,7.5-26.7,19.5-26.7
					c11.7,0,19.4,6.8,19.4,26.7C590.2,114.9,582.5,121.7,570.8,121.7z" />
					<path class="st0" d="M613,138h26.8l11.5-17.3c3.1-4.9,5.2-8.2,7.9-13.4h1.2c2.8,5.1,4,7.7,7.7,13.1L680,138h26.7v-2.4L676,94.2
					l30.2-39.1v-2.7h-26.7l-10.6,15.5c-3.3,4.9-5.6,8.4-8.4,13.8h-1.2c-2.6-5.4-5.2-9.6-8.2-14l-10.6-15.3h-26.7V55l29.8,39.8
					l-30.5,40.7L613,138L613,138z" />
					<rect x="710.6" y="111.1" class="st0" width="29" height="26.9" />
					<path class="st0" d="M757,112.1c0,19,8.6,27.6,28.5,27.6c9.3,0,19.4-1.6,26.4-4l-1.6-19.9c-5.9,2.6-12,4.4-17.1,4.4
					c-8.2,0-11-3.5-11-11.3V68h29V52.4h-29V33.1H762l-3.2,19.3h-17.5v15.5H757V112.1z" />
					<path class="st0" d="M840.8,138h27.4l33-83.8v-1.8h-25.3L860.5,98c-2.3,6.6-4,14.5-5.1,20.4h-1.9c-1-5.9-3-14.1-5.1-20.6
					l-15.3-45.4h-25.3v1.7L840.8,138z" />
				</g>
			</g>
		</g>
		<path class="st1" d="M855,56.6c4.6-9,12.6-16,25.7-16c13.6,0,20.7,6.6,23.3,16.7h1c4.6-8.5,12.1-16.7,25-16.7
		c15.6,0,24.8,8.2,24.8,23.8c0,2.9-0.5,6.3-1,9.2l-5.1,28.2c-0.5,2.9-1.4,8,3.2,8c2,0,4.4-0.7,6.3-1.7l-2.4,16.7
		c-3.7,1.2-11.4,2.5-16,2.5c-11.4,0-16.5-5.6-16.5-14.5c0-2.4,0.3-4.6,0.7-6.8l5.6-32.5c0.3-2,0.5-4.4,0.5-6c0-5.9-2.7-9.5-9.2-9.5
		c-7.3,0-15.5,6.8-18.9,26.9l-7,40.6h-24.2l9.2-52c0.3-2,0.7-4.4,0.7-6c0-5.9-2.5-9.5-9-9.5c-7.3,0-15.6,6.8-19.2,26.9l-7.1,40.6
		h-24.6l10.5-60c0.5-3.2,0.8-7.5-3.7-7.5c-2.2,0-4.4,0.7-5.8,1.5l1.9-16.7c3.2-1.2,10.2-2.4,15.5-2.4c10.7,0,15.1,6,15.1,12.2
		c0,1-0.2,2.5-0.3,3.7h1V56.6z" />
		<path class="st1" d="M1007.3,40.6c25.2,0,37.2,13.8,37.2,33.7c0,30.8-15.8,53-46.2,53c-25.3,0-37.1-13.6-37.1-33.3
		C961.3,63.3,976.6,40.6,1007.3,40.6z M1019.6,74.3c0-11-4.8-16.1-12.6-16.1c-13.6,0-20.9,12.4-20.9,35.7c0,11,4.8,16,12.4,16
		C1011.8,109.8,1019.6,97.8,1019.6,74.3z" />
		<path class="st1" d="M1100.2,116c-4.4,4.2-12.4,11.4-26,11.4c-13.3,0-25.7-9.5-25.7-33.5c0-38.2,22.1-53.2,40-53.2
		c11,0,17.5,4.8,20.6,9.5h0.8l8.5-46.9h24.5l-17.7,98.6c-0.5,2.7-1.7,8,2.9,8c2,0,4.6-0.7,6.3-1.5l-2.4,16.5
		c-3.6,1.2-11.2,2.5-16,2.5c-10,0-14.1-4.1-15-11.4H1100.2z M1107.2,65.6c-2.4-4.2-6.8-7.5-11.9-7.5c-10.7,0-21.6,9.7-21.6,33.8
		c0,13.3,5.9,17.8,12.8,17.8c5.8,0,11-3.2,14.3-7.1L1107.2,65.6z" />
		<path class="st1" d="M1186.3,40.6c21.4,0,34.2,11.4,34.2,27c0,5.8-1.7,14.3-3.9,19.2h-52.5c-0.7,3.1-0.8,5.4-0.8,8
		c0,10.5,4.4,15.5,12.8,15.5c8.7,0,16.3-3.9,16.3-13.4l22.4,0.3c0,20.6-18,30.1-39.3,30.1c-24.7,0-36.2-12.6-36.2-32.3
		C1139.2,65.3,1153.5,40.6,1186.3,40.6z M1197,72.9c0.7-1.5,1-3.6,1-5.8c0-7.6-5.4-10.5-12.2-10.5c-9.2,0-16.3,4.6-19.4,16.3H1197z" />
		<path class="st1" d="M1257.8,80.9l-8.2,44.7h-24.5l10.5-60c0.5-3.1,0.8-7.5-3.7-7.5c-2.2,0-4.4,0.7-5.8,1.5l1.9-16.7
		c3.2-1.2,10.2-2.4,15.5-2.4c10.7,0,14.6,6,14.6,11.9c0,1.4-0.2,2.9-0.5,4.1h1c4.2-8.2,11-16,23.3-16c12.9,0,18.7,8.7,18.7,18.7
		c0,8.5-2.2,13.8-4.6,18.5l-20.6-1.2c1.4-4.1,2.4-7.3,2.4-10.7c0-4.2-1.9-7.5-5.6-7.5C1266.6,58.5,1260.4,66,1257.8,80.9z" />
		<path class="st1" d="M1299.9,93.9c0-31.4,18.4-53.2,39.8-53.2c13.8,0,19.5,6.5,23,11.7h1l5.1-10h18.4l-10.5,59.5
		c-0.5,2.5-1.7,8.2,2.9,8.2c2.2,0,4.6-0.9,6.3-1.7l-2.4,16.5c-3.6,1.2-11.2,2.5-16,2.5c-10,0-14.1-4.1-15-11.4h-0.8
		c-4.4,4.2-12.4,11.4-24.8,11.4C1312.6,127.3,1299.9,117.8,1299.9,93.9z M1358.5,65.6c-1.7-3.7-5.3-7.5-11.4-7.5
		c-10.5,0-21.2,12.6-21.2,35c0,12.4,5.6,16.7,12.2,16.7c5.9,0,10.7-3.2,13.9-7.1L1358.5,65.6z" />
		<path class="st1" d="M1405.2,57.5h-13.6l2.7-15.1h16.3l8.5-18.9h16.3l-3.2,18.9h25l-2.5,15.1h-25l-7,39.8c-1.2,6.5-0.3,11,7.1,11
		c4.4,0,9.7-1.7,16-4.8l-2.4,19.5c-6.5,2.4-13.8,4.2-22.4,4.2c-15.5,0-24-8.3-24-19.5c0-2.7,0.3-5.8,0.8-8.3L1405.2,57.5z" />
		<path class="st1" d="M1498.3,40.6c25.2,0,37.2,13.8,37.2,33.7c0,30.8-15.8,53-46.2,53c-25.3,0-37.1-13.6-37.1-33.3
		C1452.2,63.3,1467.5,40.6,1498.3,40.6z M1510.5,74.3c0-11-4.8-16.1-12.6-16.1c-13.6,0-20.9,12.4-20.9,35.7c0,11,4.8,16,12.4,16
		C1502.7,109.8,1510.5,97.8,1510.5,74.3z" />
		<path class="st1" d="M1573,80.9l-8.2,44.7h-24.5l10.5-60c0.5-3.1,0.8-7.5-3.7-7.5c-2.2,0-4.4,0.7-5.8,1.5l1.9-16.7
		c3.2-1.2,10.2-2.4,15.5-2.4c10.7,0,14.6,6,14.6,11.9c0,1.4-0.2,2.9-0.5,4.1h1c4.2-8.2,11-16,23.3-16c12.9,0,18.7,8.7,18.7,18.7
		c0,8.5-2.2,13.8-4.6,18.5l-20.6-1.2c1.4-4.1,2.4-7.3,2.4-10.7c0-4.2-1.9-7.5-5.6-7.5C1581.8,58.5,1575.5,66,1573,80.9z" />
	</g>
</svg>