<svg version="1.1" width="1120" height="100" viewBox="0 0 1120 100" xmlns="http://www.w3.org/2000/svg">
    <defs>
        <style>
            .logo path { fill: #FFF; }
	        .moderator path { fill: #4254F4; }
        </style>
    </defs>
	<g class="logo">
		<path d="M36.66,78.98c-2.12,19.05-19.76,24.23-34.59,19.23l3.76-12.68c6.16,2.14,10.54,2.67,12.03-7.2,0,0,9.35-53.62,9.35-53.62h19.01l-9.56,54.26ZM31.19,2.69h18.9l-2.58,14.4h-18.9l2.58-14.4Z" />
		<path d="M45.26,56.95c-1.71-26.76,26.75-44.98,40.39-25.25h.64l3.76-6.98h14.18l-6.23,35.67c-1.35,4.71,1.39,6.18,5.59,4.19l-1.72,12.14c-6.84,2.02-22.35,4.07-22.45-5.8h-.54c-9.89,11.56-34.45,11.36-33.62-13.97ZM82.42,41.05c-6.39-10.67-17.43.29-16.86,15.04-.36,11.25,8.72,11.31,13.32,5.27,0,0,3.55-20.31,3.55-20.31Z" />
		<path d="M137.09,23.64c22.02.94,25.66,11.5,21.91,22.24l-18.58.22c3.93-16.27-16.48-10.67-15.25,10.64-.68,12.31,14.12,10.57,13.64-.64l18.47.11c4.71,27.32-52.63,31.81-51.56,1.07,0-17.73,9.24-33.63,31.36-33.63Z" />
		<path d="M211.42,64.79c.97,0,2.15-.22,3.11-.54l-2.26,12.68c-22.65,6.8-20.24-8.18-26.21-21.28h-5.05l-3.76,21.7h-19.01L171.89,0h19.01l-7.73,43.62,4.08-.43c2.26-2.15,11.39-16.66,13.53-18.48h19.98l-.43,2.15c-2.26,1.93-14.39,18.91-17.61,22.46,1.7,1.21,4.3,15.73,8.7,15.47Z" />
		<path d="M229.68,0h18.9l-5.37,29.87h.54c10.02-11.19,31.27-7.9,31.04,14.29.74,31.58-27.8,43.65-40.6,26.97h-.54l-3.65,6.23h-14.18L229.68,0ZM237.62,61.68c7.09,9.43,18.06-.24,17.83-15.58,0-6.99-3.44-9.24-6.77-9.24-2.58,0-5.69,1.83-7.52,4.19l-3.54,20.63Z" />
		<path d="M307.01,23.64c41.22-1.23,28.27,57.71-4.94,54.8-41.03,1.29-27.99-57.69,4.94-54.8ZM313.13,45.24c0-5.7-2.47-8.38-6.34-8.38-9.71-2.42-16.91,28.15-4.51,28.47,6.77,0,10.85-6.99,10.85-20.09Z" />
		<path d="M360.6,33.74c.97,3.12,1.83,6.02,2.36,8.6h.43c2.66-5.59,8.17-12.47,11.71-17.62h20.19l-.32,1.83-19.87,23.85,5.91,11.71c1.97,3.55,4.85,2.93,7.52,1.93l-2.26,12.9c-18.17,5.01-21.08-1.95-24.49-18.05h-.54c-2.62,5.87-8.54,13.21-12.14,18.48h-20.19l.32-1.72,20.3-24.82-5.37-10.85c-1.7-3.49-5.15-2.95-7.84-1.93l2.36-12.89c9.75-2.44,19.97-3.55,21.91,8.6Z" />
		<path d="M397.17,59.58h20.64l-3.35,19.03h-20.64l3.35-19.03Z" />
		<path d="M428.25,36.88h-8.43l1.94-11.24h10.91l5.73-12h12.97l-2.05,12h15.35l-1.95,11.24h-15.35l-3.67,21.84c-2.17,8.8,7.86,6.81,14.16,3.78l-1.95,14.59c-10.87,4.43-32.94,4.2-32.2-10.7-.21-3.9,4.01-25.27,4.54-29.51Z" />
		<path d="M466.67,27.04l.25-1.41h19.24c1.17,9.13,4.97,30.07,4.13,39.03h1.19c2.36-8.95,13.71-30.34,17.91-39.03h19.34l-.25,1.41-29.31,51.57h-21.51l-11-51.57Z" />
	</g>
	<g class="moderator">
		<path d="M546.97,25.51h11.34l1.93,7.7h.86c4.81-10.52,27.08-12.67,32.85.64h.75c2.89-4.49,7.17-9.42,17.01-9.42,27.03-1.54,18.05,36.42,19.47,53.5h-15.51v-31.03c0-9.2-3.53-11.45-8.88-11.45-5.78,0-9.09,3.85-10.16,7.28v35.2h-15.41v-31.99c1.19-13.54-14.23-12.71-18.83-4.17v36.16h-15.41V25.51Z" />
		<path d="M664.78,24.44c36.85-2.4,37.02,56.99,0,54.57-37.09,2.47-36.92-57.01,0-54.57ZM676.65,51.83c1.31-22.33-25.25-22.2-23.86,0-1.32,21.94,25.09,22.07,23.86,0Z" />
		<path d="M749.2,77.93h-11.66l-2.14-5.78h-.64c-12.47,13.38-40.29,7.48-38.73-20.54-1-26.88,23.83-33.82,37.13-21.19h.64V.9h15.41v77.04ZM733.79,40.06c-29.64-23.73-29.04,47.05,0,23.43v-23.43Z" />
		<path d="M783.12,24.44c20.75-.13,27.74,13.47,24.5,29.1h-36.91c-1.85,18.72,23.37,18.76,22.58,6.31l14.34.32c.76,7.94-2.14,18.35-24.82,18.83-35.69,2.81-37.04-56.34.32-54.57ZM794.03,44.77c1.81-13.74-23.18-13.74-22.9,0h22.9Z" />
		<path d="M830.41,77.93h-15.51V25.51h11.34l1.93,7.28h.75c12.23-17.42,34.18-6.35,27.71,15.09l-13.27-.75c3.43-12.48-8.94-15.55-12.95-4.92,0,0,0,35.74,0,35.74Z" />
		<path d="M861.55,44.77c-6.29-27.37,50.94-26.94,47.5-1.28,0,0,0,21.29,0,21.29-.12,3.56,2.74,3.29,5.03,2.57l.64,10.27c-7.24,2.8-19.21,1.7-18.51-6.95h-.64c-31.06,29.08-63.94-24.4-1.6-23.75,3.55-16.45-22.26-15-18.62-3l-13.8.86ZM881.02,68.41c4.92,0,9.95-2.35,12.95-5.78v-7.7c-15.73.32-20.12,3.53-20.12,8.02,0,3.85,2.57,5.46,7.17,5.46Z" />
		<path d="M923.07,35.03h-9.63v-9.52h10.7l1.93-11.88h12.41v11.88h17.76v9.52h-17.76v25.04c-.5,9.94,10.79,7.18,17.23,4.28l.96,12.2c-40.35,10.71-33.17-12.47-33.6-41.51Z" />
		<path d="M986.63,24.44c36.85-2.4,37.02,56.99,0,54.57-37.09,2.47-36.92-57.01,0-54.57ZM998.51,51.83c1.31-22.33-25.25-22.2-23.86,0-1.32,21.94,25.09,22.07,23.86,0Z" />
		<path d="M1036.28,77.93h-15.51V25.51h11.34l1.93,7.28h.75c12.23-17.42,34.18-6.35,27.71,15.09l-13.27-.75c3.43-12.48-8.94-15.55-12.95-4.92,0,0,0,35.74,0,35.74Z" />
		<path d="M1092.66,24.44c20.75-.13,27.74,13.47,24.5,29.1h-36.91c-1.85,18.72,23.37,18.76,22.58,6.31l14.34.32c.76,7.94-2.14,18.35-24.82,18.83-35.69,2.81-37.04-56.34.32-54.57ZM1103.58,44.77c1.81-13.74-23.18-13.74-22.9,0h22.9Z" />
	  </g>
</svg>
