<svg id="Ebene_1" data-name="Ebene 1" xmlns="http://www.w3.org/2000/svg" viewBox="0 0 629.94 100.11"><defs><style>.cls-1{fill:#fff;}.cls-2,.cls-3,.cls-4,.cls-5{fill-rule:evenodd;}.cls-3{fill:#333;}.cls-4{fill:red;}.cls-5{fill:#ff0;}</style></defs><path class="cls-1" d="M153.41,24.8h-15.5V79.4c0,7-2.4,9.7-5.8,9.7a28.4,28.4,0,0,1-7.5-1.1L123,98.6a42,42,0,0,0,11.8,1.5c12.8,0,18.5-7.6,18.5-20.2V24.8Zm-15.5-8.4h15.6V3.1h-15.6Z" transform="translate(0)"/><path class="cls-1" d="M174,43.3a23.18,23.18,0,0,1-.2-2.5c0-4.5,3.1-6.6,9.6-6.6s9.4,3.2,9.4,7.9v4.2c-26.4.5-35.2,7-35.2,18.1,0,9.6,6.8,14.2,17.1,14.2,11.4,0,17.9-6.2,19.7-8.4h.6c.2,4,1.9,8.4,9.8,8.4a28.87,28.87,0,0,0,8.8-1.4L213,66.9a8.5,8.5,0,0,1-2.7.4c-1.5,0-2.4-.9-2.4-3V42.8c0-9.9-5.1-19.2-23.8-19.2-16.7,0-24.3,6.5-24.3,16.6a25.42,25.42,0,0,0,.3,3.9Zm-1.5,19.1c0-4.5,4.4-7.7,20.2-8.1V62a18.15,18.15,0,0,1-13,5.8C175.11,67.9,172.51,66.3,172.51,62.4Z" transform="translate(0)"/><path class="cls-1" d="M213.41,51.2c0,17.3,9.3,27.3,27.8,27.3,22.1,0,24.3-13.1,24.3-18.4a14.55,14.55,0,0,0-.2-2.8l-15.4-.2a5.74,5.74,0,0,1,.2,1.7c0,3.2-1.7,8.6-9.4,8.6s-11.5-5.7-11.5-16.3c0-12.4,4.3-16.5,11.5-16.5,7.6,0,9.4,5.5,9.4,8.6a5.76,5.76,0,0,1-.2,1.8l15.4-.3a14.55,14.55,0,0,0,.2-2.8c0-5.7-2.3-18.4-24.3-18.4C221.85,23.7,213.41,36.3,213.41,51.2Z" transform="translate(0)"/><path class="cls-1" d="M270,77.5h15.5V61.2c1.9-1.2,6.2-4.1,8.3-5.7,2.4,2.6,12.2,20,14.4,22h16.7V75.7c-2.9-2.4-16.8-25.2-19.6-28.5a106.8,106.8,0,0,0,18.54-20.6V24.8H307c-5.2,8.3-14,16.6-21.4,21.6V0h-15.5Z" transform="translate(0)"/><path class="cls-1" d="M327.21,77.5h11.64l2.3-5.8h.6c2.5,2.7,7.1,6.9,16.5,6.9,11.8,0,22.5-7.7,22.5-27.6s-11-27.3-22.5-27.3c-7.3,0-12.3,3-14.9,6h-.6V0h-15.5V77.5Zm15.5-38.1a13.61,13.61,0,0,1,9.8-4.6c6.9,0,12.4,3.6,12.4,16.3s-5.2,16.5-12.4,16.5a12.21,12.21,0,0,1-9.8-4.5Z" transform="translate(0)"/><path class="cls-1" d="M382.31,51.2c0,16.6,9,27.3,27.8,27.3,18.5,0,27.8-10.8,27.8-27.3,0-16.7-9.3-27.6-27.8-27.6C391.31,23.7,382.31,34.5,382.31,51.2ZM410,67.5c-7.4,0-12.1-4.2-12.1-16.3,0-12.3,4.6-16.5,12.1-16.5,7.2,0,11.9,4.2,11.9,16.5C422,63.3,417.31,67.5,410,67.5Z" transform="translate(0)"/><path class="cls-1" d="M436.11,77.5h16.5l7.1-10.7a85.55,85.55,0,0,0,4.8-8.3h.8c1.7,3.1,2.5,4.7,4.7,8.1l7.3,10.9h16.54V76L475,50.5l18.6-24.1V24.8h-16.5l-6.6,9.6c-2,3-3.4,5.2-5.2,8.5h-.8a58.63,58.63,0,0,0-5.1-8.6l-6.5-9.5h-16.5v1.6l18.4,24.5L436.11,76Z" transform="translate(0)"/><rect class="cls-1" x="496.3" y="60.9" width="17.9" height="16.6"/><path class="cls-2" d="M35.2,3.43,75.85,14.77l24.5-6.54,13.5,1.7-2.2,78.14L84,96.57l-36.75-11L12.45,92.82,0,17.82,35.2,3.43" transform="translate(0)"/><path class="cls-3" d="M106.7,36,83.15,46,37.3,33.38,11.3,42,8.5,18.9l29.3-9L75,20.77l31.75-7.59V36" transform="translate(0)"/><path class="cls-4" d="M11.3,42l26-8.64L83.15,46,106.7,36V61.88L81.15,70.62,49.4,57.47l-35.15,9.2L11.3,42" transform="translate(0)"/><path class="cls-5" d="M14.25,66.67l35.15-9.2L81.15,70.62l25.55-8.74V84L81.6,89,45.2,78.4,16.65,86.48l-2.4-19.81" transform="translate(0)"/><path class="cls-1" d="M520.52,81.16l16.77,2a5.73,5.73,0,0,0,1.94,4c1.39,1,3.58,1.57,6.58,1.57q5.75,0,8.62-1.73a7.15,7.15,0,0,0,2.93-3.71,22.45,22.45,0,0,0,.67-6.74v-8.1q-6.57,9-16.61,9-11.17,0-17.71-9.46-5.13-7.47-5.12-18.6,0-13.95,6.71-21.31A21.68,21.68,0,0,1,542,20.76q10.29,0,17,9V22h13.74v49.8q0,9.81-1.62,14.68a18.13,18.13,0,0,1-4.55,7.62,20,20,0,0,1-7.81,4.34A41,41,0,0,1,546.38,100q-14.1,0-20-4.83a15.2,15.2,0,0,1-5.9-12.26C520.47,82.45,520.49,81.85,520.52,81.16Zm13.12-32.55c0,5.89,1.14,10.19,3.42,12.93a10.58,10.58,0,0,0,8.44,4.1,11.67,11.67,0,0,0,9.09-4.21q3.7-4.2,3.71-12.46,0-8.61-3.56-12.8a11.3,11.3,0,0,0-9-4.18,10.85,10.85,0,0,0-8.7,4.1Q533.64,40.2,533.64,48.61Z" transform="translate(0)"/><path class="cls-1" d="M577.75,81.16l16.77,2c.28,2,.92,3.29,1.93,4,1.4,1,3.59,1.57,6.59,1.57q5.75,0,8.62-1.73a7.08,7.08,0,0,0,2.92-3.71,22,22,0,0,0,.68-6.74v-8.1q-6.59,9-16.61,9-11.19,0-17.71-9.46-5.13-7.47-5.12-18.6,0-13.95,6.71-21.31a21.66,21.66,0,0,1,16.69-7.37q10.29,0,17,9V22h13.74v49.8q0,9.81-1.62,14.68a18.12,18.12,0,0,1-4.54,7.62A20,20,0,0,1,616,98.45,41,41,0,0,1,603.61,100q-14.1,0-20-4.83a15.2,15.2,0,0,1-5.9-12.26C577.7,82.45,577.71,81.85,577.75,81.16Zm13.11-32.55c0,5.89,1.14,10.19,3.43,12.93a10.58,10.58,0,0,0,8.43,4.1,11.64,11.64,0,0,0,9.09-4.21q3.72-4.2,3.71-12.46,0-8.61-3.55-12.8A11.31,11.31,0,0,0,603,32a10.84,10.84,0,0,0-8.69,4.1Q590.86,40.2,590.86,48.61Z" transform="translate(0)"/></svg>