<svg version="1.1" x="0px" y="0px" width="500px" height="100px" viewBox="0 0 500 100" xmlns="http://www.w3.org/2000/svg">
    <style type="text/css">
	    path, rect { fill: #FFFF; }
    </style>
    <path d="M35,24.8H19.5v54.6c0,7-2.4,9.7-5.8,9.7c-2.8,0-5.3-0.5-7.5-1.1L4.6,98.6c3.1,0.9,6.9,1.5,11.8,1.5 c12.8,0,18.5-7.6,18.5-20.2V24.8z M19.5,16.4h15.6V3.1H19.5V16.4z"/>
    <path d="M55.6,43.3c-0.1-0.9-0.2-1.8-0.2-2.5c0-4.5,3.1-6.6,9.6-6.6c6.5,0,9.4,3.2,9.4,7.9v4.2 c-26.4,0.5-35.2,7-35.2,18.1c0,9.6,6.8,14.2,17.1,14.2c11.4,0,17.9-6.2,19.7-8.4h0.6c0.2,4,1.9,8.4,9.8,8.4c3.1,0,6.5-0.6,8.8-1.4 l-0.6-10.3c-0.9,0.3-1.8,0.4-2.7,0.4c-1.5,0-2.4-0.9-2.4-3V42.8c0-9.9-5.1-19.2-23.8-19.2c-16.7,0-24.3,6.5-24.3,16.6 c0,1.2,0.1,2.7,0.3,3.9L55.6,43.3z M54.1,62.4c0-4.5,4.4-7.7,20.2-8.1v7.7c-3,3.4-8.1,5.8-13,5.8C56.7,67.9,54.1,66.3,54.1,62.4z"/>
    <path d="M95,51.2c0,17.3,9.3,27.3,27.8,27.3c22.1,0,24.3-13.1,24.3-18.4c0-0.8,0-1.7-0.2-2.8l-15.4-0.2 c0.2,0.6,0.2,1.3,0.2,1.7c0,3.2-1.7,8.6-9.4,8.6s-11.5-5.7-11.5-16.3c0-12.4,4.3-16.5,11.5-16.5c7.6,0,9.4,5.5,9.4,8.6 c0,0.5,0,1.2-0.2,1.8l15.4-0.3c0.2-1.2,0.2-1.9,0.2-2.8c0-5.7-2.3-18.4-24.3-18.4C103.4,23.7,95,36.3,95,51.2z"/>
    <path d="M151.6,77.5h15.5V61.2c1.9-1.2,6.2-4.1,8.3-5.7c2.4,2.6,12.2,20,14.4,22h16.7v-1.8 c-2.9-2.4-16.8-25.2-19.6-28.5c5.2-4.4,13-12.3,18.5-20.6v-1.8h-16.9c-5.2,8.3-14,16.6-21.4,21.6V0h-15.5V77.5z"/>
    <path d="M208.8,77.5h11.6l2.3-5.8h0.6c2.5,2.7,7.1,6.9,16.5,6.9c11.8,0,22.5-7.7,22.5-27.6c0-20-11-27.3-22.5-27.3 c-7.3,0-12.3,3-14.9,6h-0.6V0h-15.5V77.5z M224.3,39.4c2.4-2.7,6.1-4.6,9.8-4.6c6.9,0,12.4,3.6,12.4,16.3c0,12.6-5.2,16.5-12.4,16.5 c-4.4,0-7.9-2-9.8-4.5V39.4z"/>
    <path d="M263.9,51.2c0,16.6,9,27.3,27.8,27.3c18.5,0,27.8-10.8,27.8-27.3c0-16.7-9.3-27.6-27.8-27.6 C272.9,23.7,263.9,34.5,263.9,51.2z M291.6,67.5c-7.4,0-12.1-4.2-12.1-16.3c0-12.3,4.6-16.5,12.1-16.5c7.2,0,11.9,4.2,11.9,16.5 C303.6,63.3,298.9,67.5,291.6,67.5z"/>
    <path d="M317.7,77.5h16.5l7.1-10.7c1.9-3,3.2-5.1,4.8-8.3h0.8c1.7,3.1,2.5,4.7,4.7,8.1l7.3,10.9h16.5V76l-18.9-25.5 l18.6-24.1v-1.6h-16.5l-6.6,9.6c-2,3-3.4,5.2-5.2,8.5h-0.8c-1.6-3.3-3.2-5.9-5.1-8.6l-6.5-9.5h-16.5v1.6l18.4,24.5L317.7,76V77.5z" />
    <rect x="377.9" y="60.9" width="17.9" height="16.6"/>
    <path d="M406.5,61.6c0,11.7,5.3,17,17.5,17c5.7,0,11.9-1,16.3-2.5l-1-12.3c-3.7,1.6-7.4,2.7-10.5,2.7 c-5.1,0-6.8-2.2-6.8-7V34.3h17.9v-9.6H422V12.8h-12.5l-1.9,11.9h-10.8v9.6h9.7V61.6z"/>
    <path d="M458.1,77.5H475l20.3-51.7v-1.1h-15.6l-9.5,28.1c-1.4,4.1-2.5,8.9-3.1,12.6H466c-0.6-3.7-1.8-8.7-3.1-12.7 l-9.5-28h-15.6v1.1L458.1,77.5z"/>
</svg>