<?xml version="1.0" encoding="UTF-8" standalone="no"?>
<!DOCTYPE svg PUBLIC "-//W3C//DTD SVG 1.1//EN" "http://www.w3.org/Graphics/SVG/1.1/DTD/svg11.dtd">
<svg width="100%" height="100%" viewBox="0 0 178 50" version="1.1" xmlns="http://www.w3.org/2000/svg" xmlns:xlink="http://www.w3.org/1999/xlink" xml:space="preserve" xmlns:serif="http://www.serif.com/" style="fill-rule:evenodd;clip-rule:evenodd;stroke-linejoin:round;stroke-miterlimit:1.41421;">
    <g transform="matrix(0.12882,0,0,0.12882,57.2097,2.34377)">
        <clipPath id="_clip1">
            <path d="M59.975,51.035L884.49,50.519L884.657,317.313L60.142,317.829L59.975,51.035Z" clip-rule="nonzero"/>
        </clipPath>
        <g clip-path="url(#_clip1)">
            <g transform="matrix(0.320193,-0.0002004,-0.0002004,-0.320193,485.559,269.166)">
                <path d="M0,14.269L15.161,96.745C10.269,109.681 -2.665,120.83 -20.493,120.83C-52.597,120.83 -74.457,83.823 -74.457,37.449C-74.457,5.354 -57.071,-5.366 -38.803,-5.366C-27.19,-5.366 -12.031,1.333 0,14.269M-82.918,-73.135C-84.703,-77.585 -86.928,-83.393 -86.928,-88.294C-86.928,-99.885 -76.704,-106.573 -60.178,-106.573C-36.556,-106.573 -18.266,-93.639 -11.589,-53.953L-7.117,-26.31L-9.364,-26.31C-23.643,-41.029 -42.35,-49.953 -65.973,-49.953C-101.647,-49.953 -140.892,-29.429 -140.892,33.439C-140.892,114.142 -94.507,165.419 -31.664,165.419C4.474,165.419 19.635,143.108 24.967,133.303L27.655,133.303L41.933,160.956L88.738,160.956L50.837,-53.953C40.568,-113.712 8.044,-151.15 -62.425,-151.15C-123.067,-151.15 -149.793,-129.302 -149.793,-99.885C-149.793,-88.294 -145.807,-77.134 -141.332,-70.888L-82.918,-73.135Z" style="fill:rgb(66,84,244);fill-rule:nonzero;"/>
            </g>
            <g transform="matrix(0.320193,-0.0002004,-0.0002004,-0.320193,562.81,267.974)">
                <path d="M0,96.292C-4.45,106.11 -13.839,115.936 -29.88,115.936C-57.534,115.936 -85.629,82.918 -85.629,24.071C-85.629,-8.473 -70.91,-19.624 -53.502,-19.624C-37.901,-19.624 -25.428,-11.163 -16.966,-0.894L0,96.292ZM-153.829,22.277C-153.829,104.765 -105.681,161.847 -49.49,161.847C-13.397,161.847 1.762,144.89 10.686,131.086L13.353,131.086L26.752,157.384L74.919,157.384L47.244,1.331C45.922,-5.366 42.792,-20.075 54.846,-20.075C60.618,-20.075 66.877,-17.851 71.349,-15.612L65.092,-58.858C55.726,-61.975 35.653,-65.555 23.182,-65.555C-3.13,-65.555 -13.839,-54.858 -16.064,-35.676L-18.289,-35.676C-29.88,-46.825 -50.858,-65.555 -83.381,-65.555C-120.4,-65.555 -153.829,-40.579 -153.829,22.277" style="fill:rgb(66,84,244);fill-rule:nonzero;"/>
            </g>
            <g transform="matrix(0.320193,-0.0002004,-0.0002004,-0.320193,622.645,275.507)">
                <path d="M0,143.582C12.031,167.213 32.964,185.492 67.318,185.492C102.991,185.492 121.722,168.107 128.376,141.786L131.066,141.786C143.097,164.086 162.73,185.492 196.598,185.492C237.627,185.492 261.712,164.086 261.712,123.067C261.712,115.487 260.367,106.563 259.044,98.993L245.649,24.976C244.326,17.386 242.079,4.021 254.133,4.021C259.487,4.021 265.721,5.795 270.613,8.484L264.379,-35.213C254.572,-38.329 234.52,-41.91 222.466,-41.91C192.587,-41.91 179.233,-27.203 179.233,-4.021C179.233,2.225 180.115,8.033 181.018,13.816L195.716,98.993C196.598,104.348 197.061,110.573 197.061,114.594C197.061,130.206 189.922,139.581 172.976,139.581C153.806,139.581 132.408,121.722 123.484,69.125L105.196,-37.449L41.47,-37.449L65.533,98.993C66.413,104.348 67.318,110.573 67.318,114.594C67.318,130.206 60.596,139.581 43.673,139.581C24.502,139.581 2.665,121.722 -6.699,69.125L-25.43,-37.449L-89.64,-37.449L-62.008,119.937C-60.641,128.41 -59.761,139.581 -71.792,139.581C-77.587,139.581 -83.381,137.785 -86.951,135.538L-82.061,179.244C-73.577,182.363 -55.309,185.492 -41.47,185.492C-13.399,185.492 -1.807,169.869 -1.807,153.377C-1.807,150.699 -2.247,146.689 -2.69,143.582L0,143.582Z" style="fill:rgb(66,84,244);fill-rule:nonzero;"/>
            </g>
            <g transform="matrix(0.320193,-0.0002004,-0.0002004,-0.320193,759.986,261.715)">
                <path d="M0,57.973C1.784,61.962 2.667,67.337 2.667,73.134C2.667,93.196 -11.592,100.777 -29.44,100.777C-53.502,100.777 -72.253,88.735 -80.252,57.973L0,57.973ZM-28.095,142.688C28.094,142.688 61.523,112.808 61.523,71.789C61.523,56.617 57.071,34.33 51.276,21.394L-86.511,21.394C-88.296,13.373 -88.736,7.138 -88.736,0.45C-88.736,-27.204 -77.145,-40.129 -55.287,-40.129C-32.547,-40.129 -12.494,-29.882 -12.494,-4.904L46.385,-5.798C46.385,-59.739 -0.903,-84.715 -56.632,-84.715C-121.282,-84.715 -151.602,-51.706 -151.602,-0.001C-151.602,78.037 -114.143,142.688 -28.095,142.688" style="fill:rgb(66,84,244);fill-rule:nonzero;"/>
            </g>
            <g transform="matrix(0.320193,-0.0002004,-0.0002004,-0.320193,799.386,241.272)">
                <path d="M0,-69.567C-0.904,-73.577 -1.784,-77.146 -1.784,-82.501C-1.784,-94.092 5.354,-104.35 33.869,-104.35C61.081,-104.35 73.112,-94.972 73.112,-82.049C73.112,-71.352 64.651,-66.437 49.027,-62.428L22.3,-55.288C-19.633,-44.149 -41.008,-27.645 -41.008,3.568C-41.008,47.254 -6.699,78.918 63.748,78.918C135.098,78.918 149.354,46.36 149.354,23.18C149.354,17.384 148.011,9.364 146.247,3.105L89.618,2.214C91.402,6.235 91.865,10.698 91.865,14.708C91.865,23.18 84.726,34.329 60.178,34.329C34.331,34.329 21.838,24.072 21.838,12.029C21.838,-2.678 34.331,-5.368 48.587,-8.915L78.026,-16.065C118.615,-25.869 138.227,-45.493 138.227,-72.685C138.227,-113.262 109.228,-148.485 30.762,-148.485C-41.47,-148.485 -60.641,-115.476 -60.641,-90.08C-60.641,-84.286 -59.738,-77.146 -57.511,-70.458L0,-69.567Z" style="fill:rgb(66,84,244);fill-rule:nonzero;"/>
            </g>
            <g transform="matrix(0.320193,-0.0002004,-0.0002004,-0.320193,474.052,118.279)">
                <path d="M-1207.01,194.391L-1090.73,194.391L-1090.73,106.373L-1207.01,106.373L-1207.01,194.391ZM-1091.39,-273.382C-1091.39,-355.497 -1132.77,-400.186 -1214.24,-400.186C-1247.74,-400.186 -1271.39,-396.891 -1293.08,-391.645L-1283.23,-314.765C-1269.43,-317.398 -1254.96,-320.02 -1238.55,-320.02C-1219.49,-320.02 -1207.67,-305.577 -1207.67,-268.138L-1207.67,59.713L-1091.39,59.713L-1091.39,-273.382Z" style="fill:rgb(66,84,244);fill-rule:nonzero;"/>
            </g>
            <g transform="matrix(0.320193,-0.0002004,-0.0002004,-0.320193,182.03,120.589)">
                <path d="M0,-189.218C25.606,-189.218 51.87,-177.385 68.311,-159.646L68.311,-115.63C-17.099,-118.915 -39.442,-136.653 -39.442,-160.295C-39.442,-179.357 -25.649,-189.218 0,-189.218M-132.74,-53.215C-134.04,-45.977 -134.701,-37.439 -134.701,-29.561C-134.701,33.514 -85.43,72.925 25.606,72.925C147.813,72.925 181.307,15.765 181.307,-47.299L181.307,-160.295C181.307,-174.763 186.551,-181.33 195.761,-181.33C201.028,-181.33 206.294,-180.668 211.538,-179.357L216.143,-252.932C198.406,-258.199 176.061,-262.143 153.718,-262.143C99.864,-262.143 88.67,-234.556 87.348,-211.55L82.765,-211.55C66.988,-231.262 28.228,-262.143 -39.442,-262.143C-106.453,-262.143 -149.816,-233.222 -149.816,-176.083C-149.816,-110.375 -98.564,-70.955 68.311,-66.361L68.311,-44.666C68.311,-19.04 52.531,-2.622 19.04,-2.622C-16.438,-2.622 -32.215,-14.457 -32.215,-36.777C-32.215,-40.072 -31.554,-44.666 -30.892,-49.26L-132.74,-53.215Z" style="fill:rgb(66,84,244);fill-rule:nonzero;"/>
            </g>
            <g transform="matrix(0.320193,-0.0002004,-0.0002004,-0.320193,310.387,204.445)">
                <path d="M0,335.067C145.191,335.067 158.984,256.226 158.984,218.776C158.984,212.883 158.984,206.955 157.023,199.076L42.705,197.765C43.366,201.7 43.366,204.992 43.366,207.625C43.366,224.043 34.816,254.254 -4.605,254.254C-39.422,254.254 -63.064,233.892 -63.064,166.872C-63.064,109.724 -42.044,80.152 -4.605,80.152C34.816,80.152 43.366,109.724 43.366,126.801C43.366,130.084 43.366,133.367 42.705,136.661L157.023,136.011C158.984,128.123 158.984,120.884 158.984,115.629C158.984,80.813 145.191,0 0,0C-120.884,0 -181.327,61.103 -181.327,166.872C-181.327,258.207 -126.79,335.067 0,335.067" style="fill:rgb(66,84,244);fill-rule:nonzero;"/>
            </g>
            <g transform="matrix(0.320193,-0.0002004,-0.0002004,-0.320193,371.592,202.301)">
                <path d="M0,473.031L116.279,473.031L116.279,197.765C157.684,224.693 204.311,269.37 230.598,321.924L356.088,321.924L356.088,308.789C326.518,256.215 278.547,204.983 247.013,178.044C265.414,156.374 344.916,28.9 362.654,13.144L362.654,0L239.125,0C225.331,12.471 174.077,103.808 160.284,119.563C149.796,111.697 126.79,97.881 116.279,91.987L116.279,0L0,0L0,473.031Z" style="fill:rgb(66,84,244);fill-rule:nonzero;"/>
            </g>
            <g transform="matrix(0.320193,-0.0002004,-0.0002004,-0.320193,530.959,84.1869)">
                <path d="M0,-270.692C10.513,-283.836 28.889,-294.998 50.593,-294.998C86.709,-294.998 116.282,-274.614 116.282,-206.955C116.282,-138.625 85.409,-120.896 50.593,-120.896C31.533,-120.896 11.151,-131.397 0,-145.863L0,-270.692ZM-116.302,104.458L0,104.458L0,-78.182L4.585,-78.182C19.701,-58.47 49.912,-40.083 93.959,-40.083C161.606,-40.083 234.545,-80.154 234.545,-206.955C234.545,-333.095 163.589,-375.15 93.959,-375.15C35.477,-375.15 5.907,-347.563 -9.211,-330.462L-13.132,-330.462L-28.909,-368.573L-116.302,-368.573L-116.302,104.458Z" style="fill:rgb(66,84,244);fill-rule:nonzero;"/>
            </g>
            <g transform="matrix(0.320193,-0.0002004,-0.0002004,-0.320193,687.492,150.355)">
                <path d="M0,-1.322C0,65.048 -24.945,86.06 -61.081,86.06C-97.881,86.06 -123.506,65.048 -123.506,-1.322C-123.506,-66.347 -97.881,-88.042 -61.081,-88.042C-24.945,-88.042 0,-66.347 0,-1.322M-61.081,166.873C60.465,166.873 118.285,99.214 118.285,-1.322C118.285,-101.175 60.465,-168.195 -61.081,-168.195C-183.29,-168.195 -240.449,-101.175 -240.449,-1.322C-240.449,99.214 -183.29,166.873 -61.081,166.873" style="fill:rgb(66,84,244);fill-rule:nonzero;"/>
            </g>
            <g transform="matrix(0.320193,-0.0002004,-0.0002004,-0.320193,719.423,102.371)">
                <path d="M0,-300.903L113.657,-149.135L2.645,-0.65L2.645,10.51L125.49,10.51L159.645,-41.382C170.156,-57.159 178.044,-71.605 187.257,-91.976L192.521,-91.976C203.011,-71.605 208.939,-61.094 221.41,-42.044L255.588,10.51L377.772,10.51L377.772,-0.65L266.098,-146.513L380.417,-300.903L380.417,-311.413L258.21,-311.413L219.449,-251.621C206.955,-232.584 203.011,-223.393 192.521,-203.672L187.257,-203.672C177.385,-223.393 171.478,-235.205 160.329,-252.282L122.207,-311.413L0,-311.413L0,-300.903Z" style="fill:rgb(66,84,244);fill-rule:nonzero;"/>
            </g>
            <g transform="matrix(0.320193,-0.0002004,-0.0002004,-0.320193,867.865,222.341)">
                <path d="M0,4.062L4.874,4.062C10.561,4.062 15.163,5.958 15.163,10.56C15.163,14.623 12.185,17.33 5.687,17.33C2.979,17.33 1.083,17.058 0,16.789L0,4.062ZM-0.271,-20.848L-10.56,-20.848L-10.56,23.558C-6.498,24.099 -0.812,24.912 6.499,24.912C14.893,24.912 18.683,23.558 21.661,21.392C24.369,19.496 26.265,16.248 26.265,11.914C26.265,6.5 22.203,2.98 17.059,1.355L17.059,0.814C21.391,-0.542 23.557,-4.061 24.911,-10.018C26.265,-16.788 27.348,-19.223 28.16,-20.848L17.329,-20.848C15.976,-19.223 15.163,-15.432 13.81,-10.018C12.997,-5.415 10.289,-3.249 4.604,-3.249L-0.271,-3.249L-0.271,-20.848ZM-27.618,2.167C-27.618,-17.6 -12.726,-33.303 7.04,-33.303C26.265,-33.575 40.886,-17.6 40.886,1.896C40.886,21.662 26.265,37.638 6.499,37.638C-12.726,37.638 -27.618,21.662 -27.618,2.167M52.258,2.167C52.258,-22.745 32.222,-42.51 6.77,-42.51C-18.683,-42.51 -38.99,-22.745 -38.99,2.167C-38.99,27.078 -18.683,46.572 7.04,46.572C32.222,46.572 52.258,27.078 52.258,2.167" style="fill:rgb(66,84,244);fill-rule:nonzero;"/>
            </g>
        </g>
    </g>
    <g transform="matrix(0.028099,0,0,0.028099,3.77976,23.9641)">
        <g transform="matrix(4.16667,0,0,4.16667,383.333,659.51)">
            <path d="M0,-96L5,-46L2.5,-28.5L150.5,40L162.5,41.5L166,45.5L163.5,9.5L168.5,-1L163,-22L165.5,-141.5L66,-67.5L0,-96Z" style="fill:rgb(138,116,96);fill-rule:nonzero;"/>
        </g>
        <g transform="matrix(4.16667,0,0,4.16667,608.333,-648.823)">
            <path d="M0,133L-7.5,110L-7.5,80L10,75.5L12.5,31.5L36.5,-4.5L94,-35.5L145.5,-31L186.5,0.5L213,47.5L217,85L204.5,136.5L110,168.5L0,133Z" style="fill:rgb(240,185,170);fill-rule:nonzero;"/>
        </g>
        <g transform="matrix(4.16667,0,0,4.16667,822.917,-142.573)">
            <path d="M0,-1.5L0.5,4C0.5,4 2.5,10 16,11C29.5,12 41.5,10 41.5,10L43.5,6.5L37,0.5L28.221,-11.024L19,-13.5L7.5,-11.5L0,-1.5Z" style="fill:white;fill-rule:nonzero;"/>
        </g>
        <g transform="matrix(4.16667,0,0,4.16667,1225.73,-157.637)">
            <path d="M0,15.833C1.937,16.156 11.824,17.115 11.824,17.115L30.324,18.615C30.324,18.615 38.13,17.011 40.197,14.057C43.587,9.214 37.292,3.725 37.292,3.725C37.292,3.725 34.386,-0.472 29.704,-1.441C25.022,-2.409 16.057,-2.782 14.324,-1.385C12.592,0.012 6.065,7.563 4.324,9.115C2.583,10.667 0.807,10.829 -0.484,12.12C-1.776,13.411 -1.937,15.51 0,15.833" style="fill:white;fill-rule:nonzero;"/>
        </g>
        <g transform="matrix(4.16667,0,0,4.16667,886.615,-112.96)">
            <path d="M0,-20.763C-3.714,-19.001 -6.288,-15.234 -6.288,-10.857C-6.288,-4.796 -1.363,0.118 4.712,0.118C10.788,0.118 15.712,-4.796 15.712,-10.857C15.712,-13.652 14.657,-16.194 12.934,-18.132C10.679,-19.266 9.307,-19.813 7.498,-20.177C4.994,-20.68 3.091,-20.881 0,-20.763" style="fill:rgb(0,183,241);fill-rule:nonzero;"/>
        </g>
        <g transform="matrix(4.16667,0,0,4.16667,1308.05,-91.6363)">
            <path d="M0,-17.239C-4.167,-14.815 -8.216,-12.173 -12.351,-9.688C-11.711,-4.234 -7.07,0 -1.433,0C4.643,0 9.567,-4.913 9.567,-10.975C9.567,-13.165 8.91,-15.195 7.799,-16.905C5.199,-16.999 2.6,-17.118 0,-17.239" style="fill:rgb(0,183,241);fill-rule:nonzero;"/>
        </g>
        <g transform="matrix(0.0801134,4.1659,4.1659,-0.0801134,806.11,515.782)">
            <path d="M0.976,-52.995L26.981,-52.995L54.024,0.995L25.52,1.043L0.976,-52.995Z" style="fill:rgb(225,187,126);fill-rule:nonzero;"/>
        </g>
        <g transform="matrix(4.16667,0,0,4.16667,402.083,-192.573)">
            <path d="M0,6.5L49.5,23.5L43.5,7L41.5,-17L-3,-5L0,6.5Z" style="fill:rgb(92,70,58);fill-rule:nonzero;"/>
        </g>
        <g transform="matrix(4.16667,0,0,4.16667,1068.75,703.26)">
            <path d="M0,-148.5L-1.5,-32.5L4,-11.5L61,7.5L161.5,-40.5L163,-106.5L94,-79.5L78.5,-94.5L58,-105.5L5,-156L0,-148.5Z" style="fill:rgb(138,116,96);fill-rule:nonzero;"/>
        </g>
        <g transform="matrix(4.16667,0,0,4.16667,1085.42,840.76)">
            <path d="M0,-44.5L-5,-34L-5,0L36.5,-4L57,-25.5L0,-44.5Z" style="fill:rgb(119,100,83);fill-rule:nonzero;"/>
        </g>
        <g transform="matrix(4.16667,0,0,4.16667,1489.58,-82.1567)">
            <path d="M0,-35.5L-5,0L52,-21L0,-35.5Z" style="fill:rgb(92,70,58);fill-rule:nonzero;"/>
        </g>
        <g transform="matrix(4.16667,0,0,4.16667,62.5,215.76)">
            <path d="M0,-49L61,7L142.5,42.5L240.5,-35.5L238.5,-37.5L81.5,-91.5L39,-60.5L5.5,-54.5L0,-49Z" style="fill:rgb(190,166,146);fill-rule:nonzero;"/>
        </g>
        <g transform="matrix(4.16667,0,0,4.16667,1089.58,147.01)">
            <path d="M0,-22.5L55.5,31.5L73.5,39L89,54L243,-9.5L240.5,-16.5L218,-35L194,-46.5L152,-76.5L-1,-25L0,-22.5Z" style="fill:rgb(190,166,146);fill-rule:nonzero;"/>
        </g>
        <g transform="matrix(4.16667,0,0,4.16667,904.86,-173.648)">
            <path d="M0,7.333C2.025,7.333 3.667,5.691 3.667,3.667C3.667,1.641 2.025,0 0,0C-2.025,0 -3.667,1.641 -3.667,3.667C-3.667,5.691 -2.025,7.333 0,7.333" style="fill:rgb(35,31,32);fill-rule:nonzero;"/>
        </g>
        <g transform="matrix(4.16667,0,0,4.16667,1300.69,-153.511)">
            <path d="M0,7C1.933,7 3.5,5.433 3.5,3.5C3.5,1.567 1.933,0 0,0C-1.933,0 -3.5,1.567 -3.5,3.5C-3.5,5.433 -1.933,7 0,7" style="fill:rgb(35,31,32);fill-rule:nonzero;"/>
        </g>
        <g transform="matrix(4.16667,0,0,4.16667,1020.08,-307.518)">
            <path d="M0,2.347C-1.432,0.301 -10.063,-3.771 -13.836,-5.028C-17.776,-6.342 -37.153,-11.572 -40.433,-11.745C-40.545,-11.751 -40.661,-11.754 -40.78,-11.754C-44.76,-11.754 -52.543,-8.342 -54.063,-7.659C-57.624,-6.056 -61.256,-2.927 -62.702,-0.217C-64.152,2.502 -65.653,9.477 -65.653,10.92C-65.653,11.218 -65.604,11.463 -65.502,11.672C-65.304,12.08 -64.905,12.333 -64.461,12.333C-63.725,12.332 -63.071,11.821 -61.142,8.79C-60.095,7.145 -56.559,3.557 -53.567,1.397C-52.096,0.335 -49.239,-0.204 -45.077,-0.204C-43.53,-0.204 -42.075,-0.127 -41.206,-0.081C-39.218,0.023 -35.129,1.959 -30.395,4.2C-28.143,5.265 -25.59,6.474 -22.89,7.668C-19.686,9.085 -17.109,10.438 -15.039,11.524C-11.977,13.131 -10.129,14.101 -8.627,14.101C-8.159,14.101 -7.731,14.002 -7.357,13.807C-1.748,10.88 0.009,7.895 0.495,5.906C0.823,4.562 0.643,3.265 0,2.347" style="fill:rgb(92,70,58);fill-rule:nonzero;"/>
        </g>
        <g transform="matrix(4.16667,0,0,4.16667,1470.66,-223.066)">
            <path d="M0,-2.964C-0.863,-5.903 -3.08,-8.137 -5.134,-9.935C-6.901,-11.48 -9.086,-12.2 -12.008,-12.2C-12.275,-12.2 -12.552,-12.193 -12.837,-12.181C-16.623,-12.009 -30.142,-10.501 -38.039,-8.484C-45.584,-6.558 -50.688,-5.059 -52.791,-1.903C-54.029,-0.045 -54.499,3.175 -53.14,5.348C-52.251,6.772 -50.585,8.508 -48.579,9.11C-48.297,9.194 -47.946,9.236 -47.508,9.236C-45.274,9.236 -40.259,8.083 -35.31,6.433C-33.185,5.725 -31.159,4.797 -29.014,3.815C-25.572,2.239 -22.014,0.609 -17.771,-0.199C-14.146,-0.89 -10.974,-1.256 -8.6,-1.256C-6.428,-1.256 -5.437,-0.952 -5.04,-0.772C-4.15,-0.367 -3.512,0.367 -2.999,0.956C-2.503,1.527 -2.111,1.977 -1.534,2.122L-1.336,2.162L-1.213,2.162C-0.785,2.162 -0.397,1.959 -0.121,1.59C0.6,0.627 0.447,-1.446 0,-2.964" style="fill:rgb(92,70,58);fill-rule:nonzero;"/>
        </g>
        <g transform="matrix(4.16667,0,0,4.16667,843.693,-44.5413)">
            <path d="M0,-30.556C1.351,-31.963 3.072,-33.368 4.933,-34.436C3.469,-32.437 2.597,-29.98 2.597,-27.319C2.597,-20.657 8.018,-15.236 14.68,-15.236C21.343,-15.236 26.764,-20.657 26.764,-27.319C26.764,-27.979 26.709,-28.625 26.606,-29.256C28.856,-25.626 30.535,-21.274 35.71,-17.58C37.647,-16.198 36.104,-14.551 33.512,-14.798C26.889,-15.407 -18.287,-11.508 0,-30.556M9.935,-36.196C13.839,-36.711 18.292,-36.285 21.528,-34.456C21.743,-34.335 21.931,-34.2 22.13,-34.071C23.757,-32.282 24.764,-29.922 24.764,-27.319C24.764,-21.76 20.24,-17.236 14.68,-17.236C9.121,-17.236 4.597,-21.76 4.597,-27.319C4.597,-31.161 6.764,-34.496 9.935,-36.196M15.264,-44.528C5.514,-44.028 -2.712,-38.005 -5.486,-35.028C-10.611,-29.528 -13.111,-23.528 -14.236,-20.903C-14.985,-19.155 -11.52,-20.89 -10.736,-21.403C-8.38,-22.942 -6.747,-24.375 -5.515,-25.733C-5.582,-25.536 -5.653,-25.341 -5.714,-25.138C-8.418,-16.167 2.965,-11.884 9.843,-11.252C16.219,-10.665 22.409,-11.348 28.75,-11.93C31.061,-12.142 38.165,-11.492 39.558,-12.806C41.343,-14.49 41.249,-16.516 39.658,-17.905C37.277,-19.984 33.862,-23.278 32.606,-24.765C28.822,-29.245 26.399,-34.047 22.457,-36.116C19.111,-37.871 14.729,-38.328 9.301,-37.765C5.559,-37.377 2.112,-35.283 -0.479,-33.084C0.423,-34.28 1.558,-35.458 3.264,-36.653C8.264,-40.153 11.264,-40.278 18.514,-39.528C25.764,-38.778 31.514,-33.778 33.764,-30.278C36.014,-26.778 42.014,-20.028 45.514,-15.278C49.014,-10.528 48.014,-2.278 48.264,2.972C48.514,8.222 48.264,14.472 50.514,11.972C54.404,7.65 56.514,-8.028 54.264,-17.778C52.014,-27.528 44.764,-33.528 36.764,-38.778C28.764,-44.028 25.014,-45.028 15.264,-44.528" style="fill:rgb(35,31,32);fill-rule:nonzero;"/>
        </g>
        <g transform="matrix(4.16667,0,0,4.16667,904.86,-171.565)">
            <path d="M0,6.333C-1.749,6.333 -3.167,4.915 -3.167,3.167C-3.167,1.417 -1.749,0 0,0C1.749,0 3.167,1.417 3.167,3.167C3.167,4.915 1.749,6.333 0,6.333M0,-1.833C-2.761,-1.833 -5,0.405 -5,3.167C-5,5.928 -2.761,8.166 0,8.166C2.762,8.166 5,5.928 5,3.167C5,0.405 2.762,-1.833 0,-1.833" style="fill:rgb(35,31,32);fill-rule:nonzero;"/>
        </g>
        <g transform="matrix(4.16667,0,0,4.16667,987.5,-339.792)">
            <path d="M0,20.666C-1.927,21.671 -6,18.333 -14.667,14.499C-23.333,10.666 -30.167,6.833 -33.333,6.666C-36.5,6.499 -43.333,6.166 -46.333,8.333C-49.333,10.499 -53,14.166 -54.167,15.999C-55.333,17.833 -56.833,19.999 -56.833,18.666C-56.833,17.333 -55.333,10.499 -54,7.999C-52.667,5.499 -49.167,2.499 -45.833,0.999C-42.5,-0.501 -35.833,-3.167 -32.667,-3.001C-29.5,-2.834 -10.333,2.333 -6.333,3.666C-2.333,4.999 5.833,8.999 7,10.666C8.167,12.333 7.667,16.666 0,20.666M0.5,4.083C-5.75,0.833 -27.5,-3.917 -31.75,-4.917C-36,-5.917 -48.75,-1.167 -53.75,4.083C-58.75,9.333 -59.25,22.333 -59.25,22.333L-59,25.083L-57.25,24.583L-54.5,20.583L-52.75,18.583C-52.75,18.583 -50.25,15.333 -48.25,13.833C-44.921,11.336 -42.5,11.083 -37,11.083C-31.5,11.083 -19.75,16.583 -12.5,20.333C-7.432,22.954 -2,26.583 0.25,25.833C2.5,25.083 10,19.833 10.5,14.833C11,9.833 6.75,7.333 0.5,4.083" style="fill:rgb(35,31,32);fill-rule:nonzero;"/>
        </g>
        <g transform="matrix(4.16667,0,0,4.16667,2069.93,-46.7805)">
            <path d="M0,34.25L-144.448,96.504C-145.852,97.108 -147.484,96.779 -148.542,95.676L-158.782,85.01L-159.151,84.803L-61.782,21.01L-57.282,15.01L-162.501,82.924L-179.282,73.51L-234.032,21.76L-85.282,-27.49L-37.282,6.01L-15.282,17.51L0.355,32.228C0.999,32.834 0.812,33.9 0,34.25M-82.782,137.01L-179.282,186.01L-230.782,168.51L-237.282,149.51L-236.311,27.161L-180.782,79.51L-162.282,91.01L-149.547,106.38C-148.502,107.641 -146.749,108.056 -145.25,107.397L-82.782,79.952L-82.782,137.01ZM-205.282,206.01L-237.852,210.411L-239.282,177.51L-236.642,170.343L-236.282,170.26L-182.282,188.51L-205.282,206.01ZM-290.782,182.26L-284.532,181.76L-242.782,171.76L-242.47,171.687L-244.782,179.01L-243.448,206.591L-257.282,205.01L-289.282,191.51L-301.282,185.675L-301.282,160.01L-357.782,134.01L-357.338,158.418L-398.282,138.51L-392.282,116.01L-392.782,107.01L-396.282,119.51L-400.604,81.727L-339.37,109.561C-338.092,110.142 -336.594,109.946 -335.508,109.057L-244.251,34.313L-243.782,151.01L-237.782,168.01L-290.782,182.26ZM-304.282,184.216L-353.865,160.107L-354.782,139.01L-304.282,163.01L-304.282,184.216ZM-417.782,63.01L-476.782,13.01L-474.782,11.01L-441.282,5.01L-440.533,4.495L-414.782,55.51L-414.782,50.51L-437.764,2.591L-425.282,-5.99L-396.952,-26.017L-244.432,26.458L-335.546,97.162C-336.616,97.992 -338.054,98.169 -339.293,97.623L-417.782,63.01ZM-363.782,-46.99C-364.017,-42.936 -363.232,-39.089 -362.782,-33.99C-362.208,-27.484 -359.38,-20.708 -357.782,-16.49L-396.785,-29.128L-398.282,-36.99L-363.782,-46.99ZM-145.116,-41.157C-145.782,-41.324 -147.699,-43.907 -149.532,-44.74C-151.366,-45.574 -155.032,-45.49 -161.782,-43.49C-168.614,-41.466 -173.949,-38.657 -179.449,-36.824C-184.949,-34.99 -190.688,-33.729 -192.116,-34.157C-193.782,-34.657 -195.282,-36.157 -196.116,-37.49C-197.267,-39.333 -196.782,-42.157 -195.782,-43.657C-193.959,-46.392 -189.449,-47.824 -181.616,-49.824C-173.782,-51.824 -160.282,-53.324 -156.616,-53.49C-152.949,-53.657 -150.949,-52.657 -149.616,-51.49C-147.933,-50.018 -145.616,-47.824 -144.782,-44.99C-144.169,-42.905 -144.449,-40.99 -145.116,-41.157M-193.407,-24.74C-196.407,-20.74 -202.166,-16.218 -204.578,-14.628C-206.189,-13.567 -206.423,-11.843 -204.843,-10.263C-203.61,-9.031 -196.804,-9.028 -194.621,-8.666C-188.627,-7.67 -182.786,-6.6 -176.677,-6.6C-170.088,-6.6 -158.954,-9.366 -160.894,-17.245C-161.759,-20.76 -164.052,-23.713 -167.124,-26.007C-164.577,-24.838 -162.509,-23.363 -161.116,-21.824C-157.949,-18.324 -157.345,-14.785 -157.032,-13.865C-155.032,-7.99 -154.044,-11.88 -154.407,-15.365C-155.032,-21.365 -158.356,-25.494 -163.282,-29.115C-166.014,-31.124 -172.282,-34.49 -179.782,-33.24C-174.016,-34.906 -171.586,-35.783 -167.532,-37.74C-160.282,-41.24 -151.782,-42.74 -149.282,-41.24C-147.894,-40.407 -146.045,-37.881 -144.553,-36.065C-144.695,-35.457 -144.838,-34.833 -144.984,-34.174C-147.352,-23.518 -148.176,-13.225 -148.424,-9.347L-207.786,10.04C-207.633,8.018 -209.615,5.501 -210.532,0.76C-211.667,-5.104 -212.226,-8.677 -211.134,-12.019C-208.214,-14.5 -201.091,-24.578 -192.616,-26.49C-192.31,-26.56 -192.012,-26.627 -191.72,-26.694C-192.292,-26.106 -192.858,-25.473 -193.407,-24.74M-187.87,-10.616C-192.951,-10.998 -197.252,-11.49 -198.949,-11.49C-201.433,-11.483 -202.785,-13.012 -200.845,-14.041C-198.679,-15.189 -197.053,-16.401 -195.698,-17.61C-194.307,-14.23 -191.425,-11.623 -187.87,-10.616M-173.549,-26.72C-170.594,-25.924 -167.882,-24.456 -165.949,-22.324C-155.556,-10.858 -169.783,-9.697 -182.834,-10.304C-177.061,-11.169 -172.615,-16.146 -172.615,-22.157C-172.615,-23.777 -172.962,-25.31 -173.549,-26.72M-187.782,-22.115C-187.782,-23.864 -186.365,-25.282 -184.616,-25.282C-182.867,-25.282 -181.449,-23.864 -181.449,-22.115C-181.449,-20.366 -182.867,-18.949 -184.616,-18.949C-186.365,-18.949 -187.782,-20.366 -187.782,-22.115M-184.616,-17.157C-181.854,-17.157 -179.616,-19.396 -179.616,-22.157C-179.616,-24.423 -181.133,-26.315 -183.2,-26.929C-180.911,-27.467 -178.422,-27.554 -175.995,-27.214C-175.12,-25.729 -174.615,-24.001 -174.615,-22.157C-174.615,-16.643 -179.102,-12.157 -184.615,-12.157C-189.066,-12.157 -192.833,-15.086 -194.125,-19.113C-192.398,-20.883 -191.04,-22.584 -189.25,-24.016C-189.481,-23.44 -189.616,-22.815 -189.616,-22.157C-189.616,-19.396 -187.377,-17.157 -184.616,-17.157M-352.503,-62.525C-350.31,-63.841 -347.535,-64.09 -346.862,-63.734C-345.991,-62.597 -343.021,-56.418 -341.041,-52.298C-336.56,-42.975 -334.032,-37.24 -334.032,-37.24L-332.532,-36.49C-331.709,-37.194 -332.192,-44.038 -333.076,-53.393C-333.542,-58.334 -334.223,-63.801 -334.81,-67.319C-337.57,-83.881 -337.332,-98.175 -334.12,-108.654C-329.371,-124.15 -311.769,-146.931 -287.312,-160.491C-261.849,-174.61 -252.903,-175.986 -238.565,-175.741C-224.975,-175.514 -204.368,-171.498 -191.024,-160.923C-177.463,-150.175 -160.785,-131.694 -152.23,-117.935C-141.176,-100.15 -139.502,-86.514 -140.28,-67.572C-140.774,-55.572 -140.968,-50.786 -142.35,-44.879L-142.782,-44.99L-142.858,-44.883C-143.121,-45.878 -143.428,-46.781 -143.782,-47.49C-145.532,-50.99 -151.032,-56.74 -154.532,-55.99C-158.032,-55.24 -170.282,-54.74 -182.782,-51.99C-195.282,-49.24 -197.782,-46.99 -199.532,-41.99C-201.282,-36.99 -195.111,-32.013 -193.782,-30.99C-193.22,-30.558 -198.481,-28.399 -201.282,-26.824C-202.656,-26.051 -203.934,-25.069 -205.102,-23.98C-203.628,-27.365 -202.532,-30.24 -202.532,-30.24C-208.032,-24.74 -212.032,-19.74 -214.032,-13.74C-216.032,-7.74 -216.782,-3.99 -216.032,3.01C-215.533,7.666 -215.036,10.985 -214.758,12.692L-236.782,20.01L-238.22,21.51L-244.282,21.51L-328.592,-5.591C-329.196,-11.549 -330.536,-24.385 -331.282,-28.49C-332.069,-32.817 -332.546,-14.868 -332.714,-7.013L-335.37,-7.93C-336.917,-9.902 -338.463,-12.744 -337.782,-15.74C-336.532,-21.24 -334.782,-22.24 -337.532,-27.99C-340.282,-33.74 -346.532,-48.99 -348.782,-52.74C-351.032,-56.49 -353.782,-56.49 -353.782,-56.49C-351.323,-54.031 -347.186,-43.85 -344.259,-37.09C-347.171,-31.632 -350.049,-26.891 -345.782,-20.49C-345.782,-20.49 -346.032,-23.74 -344.032,-26.74C-342.409,-29.175 -341.032,-28.24 -341.782,-22.49C-342.001,-20.811 -341.333,-19.688 -340.145,-19.645C-340.777,-17.636 -340.712,-15.891 -340.282,-13.74C-339.991,-12.283 -339.276,-10.406 -338.729,-9.09L-350.024,-12.988C-350.886,-14.803 -352.705,-19.042 -354.005,-25.236C-354.036,-27.791 -353.593,-30.28 -352.532,-32.99C-350.282,-38.74 -348.782,-43.24 -348.782,-43.24C-348.782,-43.24 -353.309,-36.769 -354.955,-31.039C-355.086,-32.129 -355.206,-33.245 -355.29,-34.416C-355.649,-39.373 -355.464,-43.902 -355.232,-47.904C-355.076,-50.59 -355.929,-54.127 -356.035,-56.335C-356.277,-61.427 -353.976,-61.642 -352.503,-62.525M-91.449,-28.277L-142.116,-11.824C-141.503,-16.314 -140.193,-22.797 -138.08,-32.306C-137.477,-35.021 -136.91,-37.281 -136.39,-39.289L-91.449,-28.277ZM-139.391,-44.122L-85.377,-30.294L-139.391,-44.122ZM9.7,28.922L-7.3,12.422C-7.638,12.095 -8.019,11.816 -8.435,11.596L-31.659,-0.758C-31.659,-0.758 -68.77,-27.011 -76.746,-32.541C-77.702,-33.204 -78.765,-33.689 -79.893,-33.979L-133.389,-47.747C-132.421,-52.329 -131.674,-57.82 -131.289,-67.203C-130.456,-87.454 -132.365,-103.025 -144.588,-122.686C-153.761,-137.442 -170.94,-156.49 -185.435,-167.977C-200.542,-179.949 -223.417,-184.489 -238.416,-184.739C-239.209,-184.752 -239.992,-184.76 -240.76,-184.76C-257.314,-184.76 -268.735,-181.082 -291.676,-168.362C-318.219,-153.645 -337.448,-128.512 -342.725,-111.291C-345.89,-100.963 -346.541,-87.64 -344.652,-72.46C-345.651,-72.732 -346.728,-72.872 -347.864,-72.872C-351.469,-72.872 -355.017,-71.513 -357.135,-70.242C-363.819,-66.232 -364.253,-59.494 -364.02,-54.815L-364.02,-54.814L-407.124,-42.807C-408.209,-42.505 -409.16,-41.845 -409.823,-40.935L-430.798,-12.156L-445.703,-2.219L-479.695,4.094C-480.578,4.258 -481.399,4.656 -482.075,5.247L-486.075,8.747C-487.16,9.696 -487.782,11.068 -487.782,12.51L-487.782,17.01C-487.782,18.502 -487.116,19.916 -485.965,20.866L-422.965,72.866C-422.626,73.146 -422.252,73.38 -421.852,73.562L-409.202,79.312L-404.358,125.542L-408.076,138.089C-408.769,140.427 -407.675,142.923 -405.486,143.998L-292.486,199.498C-292.379,199.546 -292.272,199.594 -292.165,199.642L-260.164,212.642C-259.76,212.807 -259.335,212.917 -258.902,212.971L-248.03,214.33L-241.986,218.216C-241.175,218.737 -240.236,219.01 -239.282,219.01C-239.031,219.01 -238.778,218.991 -238.527,218.952L-202.527,213.452C-201.681,213.323 -200.882,212.979 -200.207,212.452L-175.584,193.246L-77.01,142.964C-75.349,142.116 -74.297,140.414 -74.282,138.549L-73.816,78.475L6.729,43.088C8.145,42.465 9.193,41.223 9.568,39.723L11.068,33.723C11.501,31.993 10.979,30.164 9.7,28.922" style="fill:rgb(35,31,32);fill-rule:nonzero;"/>
        </g>
    </g>
</svg>
