<svg version="1.1" width="180" height="50" viewBox="0 0 180 50" xmlns="http://www.w3.org/2000/svg">
    <defs>
        <style>    
            .box-flap { fill: #bea692; }
            .box-light { fill: #8b7460; }
            .box-medium { fill: #786453; }
            .box-dark, .eye-brows { fill: #5d463a; }
            .eye { fill: #fff; }
            .iris { fill: #00b7f1; }
            .logo path { fill: #3f55fe; }
            .outline, .pupil { fill: #000; }
            .skin { fill: #efb8a9; }
            .tape { fill: #e0bb7f; }
        </style>
      </defs>

    <g class="logo">
        <path d="M97.3,42.29c-.79,2.86,3.74,1.99,3.69-1.18,0,0,.19-1.54.19-1.54h-.17c-2.83,2.61-8.14,2.02-8.18-3.61-.58-7.14,7.59-10.8,10.55-6.12h.17l.96-1.82h3.55l-2.31,13.08c.72,7.39-16.13,8.72-12.92,1.1l4.46.08ZM101.68,36.75l.85-4.38c-4.22-5.83-7.36,9.67-.85,4.38Z" />
        <path d="M107.66,36.28c-.52-6.89,6.91-11.45,10.36-6.47h.17l.96-1.79h3.64l-1.6,9.15c-.39,1.12.44,1.61,1.43,1.07l-.44,3.11c-1.75.52-5.73,1.04-5.76-1.49h-.14c-2.54,2.96-8.84,2.91-8.62-3.58ZM117.19,32.21c-3.8-5.58-6.9,10.3-.91,5.21,0,0,.91-5.21.91-5.21Z" />
        <path d="M129.61,30.33c1.04-3.26,7.38-3.57,8.04.05h.17c1.32-3.72,8.46-3.62,8.1,1.29.44,1.28-2.61,8.06.61,6.53l-.44,3.14c-8.44,2.32-5.64-3.93-5.07-9.01,0-.8-.33-1.21-1.16-1.21-2.68-.36-3.04,8.37-3.61,10.38h-4.85c.07-.5,1.65-8.96,1.57-9.17,0-.8-.33-1.21-1.16-1.21-2.7-.37-3.08,8.36-3.66,10.38h-4.88l1.63-9.2c.36-1.05-.63-1.46-1.46-.99l.39-3.2c1.89-.72,6.39-.55,5.62,2.2h.17Z" />
        <path d="M155.37,27.74c5.29-.09,7.14,3.72,5.34,7.49h-8.54c-1.29,3.29,3.37,4.8,3.86,1.54l4.44.03c0,3.47-3,4.99-6.78,4.99-10.27.29-7.34-14.77,1.68-14.05ZM156.83,32.95c1-3.19-3.84-3.11-4.24,0h4.24Z" />
        <path d="M165.78,37.05c-1.27,2.26,3.88,2.72,3.83.74-1.02-2.39-7.41-.93-7.19-5.18-1.1-6.15,14.96-6.67,12.59-.25l-4.24.03c1.21-2.19-3.69-2.45-3.58-.61.87,2.36,7.48.8,7.38,5.12,1.31,6.07-15.42,6.73-13.14.16l4.35-.03Z" />
        <path d="M75.06,26.38c-.58,5.23-5.43,6.66-9.5,5.28l1.03-3.48c1.69.59,2.9.73,3.31-1.98,0,0,2.57-14.73,2.57-14.73h5.22l-2.63,14.91ZM73.55,5.42h5.2l-.71,3.96h-5.2l.71-3.96Z" />
        <path d="M77.42,20.33c-.56-7.38,7.4-12.27,11.1-6.94h.18l1.03-1.92h3.9l-1.71,9.8c-.42,1.2.47,1.73,1.53,1.15l-.47,3.34c-1.88.55-6.14,1.12-6.17-1.59h-.15c-2.72,3.18-9.47,3.12-9.24-3.84ZM87.63,15.96c-2.65-4.97-7.24,5.95-2.92,6.67,2.71.41,2.4-5.25,2.92-6.67Z" />
        <path d="M102.65,11.18c6.05.26,7.05,3.16,6.02,6.11l-5.11.06c.81-5.28-4.92-1.61-4.19,2.92-.19,3.38,3.88,2.9,3.75-.18l5.08.03c1.46,7.42-14.61,8.71-14.17.29,0-4.87,2.54-9.24,8.62-9.24Z" />
        <path d="M123.08,22.48c.27,0,.59-.06.86-.15l-.62,3.48c-5.8,2.01-5.81-2.45-7.2-5.84h-1.39l-1.03,5.96h-5.22l3.75-21.25h5.22l-2.13,11.98,1.12-.12c.62-.59,3.13-4.58,3.72-5.08h5.49l-.12.59c-.62.53-3.96,5.2-4.84,6.17.58.47.97,4.02,2.39,4.25Z" />
        <path d="M128.1,4.68h5.19l-1.48,8.21h.15c2.75-3.07,8.59-2.17,8.53,3.93.19,8.78-7.56,11.9-11.16,7.41h-.15l-1,1.71h-3.9l3.81-21.25ZM130.28,21.62c2.88,4.62,7.6-6.04,3.04-6.82-2.78-.32-2.55,5.25-3.04,6.82Z" />
        <path d="M149.35,11.18c11.33-.34,7.77,15.85-1.36,15.05-11.28.35-7.69-15.85,1.36-15.05ZM151.03,17.11c-.68-4.81-5.31-1.61-4.72,3.22.69,4.8,5.29,1.63,4.72-3.22Z" />
        <path d="M164.07,13.95c.27.86.5,1.65.65,2.36h.12c.73-1.54,2.25-3.42,3.22-4.84h5.55l-.09.5-5.46,6.55c.75,1.1,1.69,5.05,3.69,3.75l-.62,3.54c-4.54,1.53-6.08-.84-6.73-4.96h-.15c-.72,1.61-2.35,3.63-3.34,5.08h-5.55l.09-.47,5.58-6.82c-.74-1.19-1.57-4.78-3.63-3.51l.65-3.54c2.42-.76,5.74-.75,6.02,2.36Z" />
        <path d="M177.7,28.47c.86.17.84-.78,0-.56v.56ZM177.69,29.57h-.45s0-1.95,0-1.95c.69-.31,2.45.26,1.22.98v.02c.33.02.39.82.49.95h-.48c-.13-.3-.18-.94-.77-.77v.77ZM176.49,28.56c-.05,2.01,3.06,2.05,3.01,0,.06-2.03-3.06-2.05-3.01,0M180,28.56c.05,2.56-4.06,2.55-4.01,0-.05-2.52,4.06-2.56,4.01,0" />
    </g>

    <path class="box-light" d="M10.34,31.99c.15,1.59.87,6.88.31,8.36.68.16,19.44,9.44,19.82,8.67l.43.5c-.04-1.11-.65-4.88.31-5.76-1.15-1.39-.3-15.52-.37-17.4l-12.32,9.17-8.17-3.53Z M30.72,26.79c.08,1.97-.64,15.48.5,16.97l7.06,2.35,12.45-5.95.19-8.17-8.55,3.34c-.9-1.13-3.13-2.68-4.46-3.22,0,0-6.56-6.25-6.56-6.25l-.62.93Z" />
    <path class="skin" d="M17.03,21.46l-.93-2.85v-3.72l2.17-.56.31-5.45,2.97-4.46,7.12-3.84,6.38.56,5.08,3.9,3.28,5.82.5,4.64-1.55,6.38-11.7,3.96-13.62-4.4Z" />
    <path class="eye" d="M23.41,19.85c-.46,1.89,3.67,1.68,5.14,1.42l.25-.43c-.55-.4-1.5-1.61-1.89-2.17-.68-.33-1.86-.27-2.57-.06l-.93,1.24Z M35.39,21.55c1.08.15,2.74.26,3.76.34,3.29-.71-.3-3.36-1.98-2.48-.21.17-1.02,1.11-1.24,1.3-.28.2-1.09.54-.54.83Z" />
    <path class="iris" d="M25.3,18.35c-1.29.57-.83,2.63.58,2.59,2.17-.19,1.47-3.1-.58-2.59Z M37.83,19.42c-.52.3-1.02.63-1.53.94.3,2.17,3.65.97,2.5-.89-.32-.01-.64-.03-.97-.04Z" />
    <path class="tape" d="M16.35,39.86l.06,3.22,6.75,3.22-.06-3.53-6.75-2.91Z" />
    <path class="box-dark" d="M10.9,19.36l6.13,2.11c-.63-1.14-.98-3.73-.99-5.02l-5.51,1.49.37,1.42Z M43.23,17.44l-.62,4.4,7.06-2.6-6.44-1.8Z" />
    <path class="box-medium" d="M31.21,43.76c-.86.81-.6,4.46-.62,5.51l5.14-.5,2.54-2.66-7.06-2.35Z" />
    <path class="box-flap" d="M.81,24.62l7.56,6.94,10.09,4.4,12.14-9.66c-.07-.48-19.44-6.7-19.69-6.94l-5.26,3.84-4.15.74-.68.68Z M31.34,25.86l6.87,6.69,2.23.93,1.92,1.86,19.07-7.86-.31-.87c-1.26-1.25-4.08-3.14-5.76-3.72,0,0-5.2-3.72-5.2-3.72l-18.95,6.38.12.31Z" />
    <path class="pupil" d="M25.85,19.11c.59,0,.59.92,0,.91-.59,0-.59-.92,0-.91Z M37.61,19.71c.56,0,.56.88,0,.87-.56,0-.56-.88,0-.87Z" />
    <path class="eye-brows" d="M29.27,15.43c-.98-.91-3.78-1.52-5.06-1.75-1.6.09-3.52,1.52-2.94,2.98,2.63-4.6,7.51,3.06,8-1.24Z M42.67,17.28c-.78-2.17-5.13-.82-6.54.13-.71,1.94,1.84,1.34,2.95.71,1-.41,2.52-1.1,3.4-.21.3,0,.26-.38.2-.63Z" />
    <path class="outline" d="M25.92,17.44c-2.17-.4-5.16,4.59-2.57,2.33-.24,2.64,4,1.7,5.58,1.6.54-.62-.59-1-.85-1.48-.86-1.6-2.63-2.25-4.1-1.03,2.04-2.26,4.46.26,5.7,2.2.7.63-.04,3.36.62,3.38,1.87-2.73-.73-7.48-4.37-7ZM25.26,18.47c1.91-.58,2.6,2.18.59,2.35-1.26.04-1.72-1.79-.59-2.35ZM24.03,19.17c.18-.19.39-.35.61-.48-1.52,2.36,2.98,3.43,2.68.64-.08.4,1.9,1.83.86,1.79-.82-.06-6.42.41-4.15-1.95Z M25.85,18.94c-.8,0-.8,1.25,0,1.24.8,0,.8-1.25,0-1.24ZM25.85,19.96c-.51,0-.51-.79,0-.79.51,0,.51.79,0,.79h0Z M28.36,14.68c-3-1.42-7.77-1.82-7.37,2.6l.22-.06c1.58-3.38,4.82-.58,7.12.16,1.18-.45,1.96-2.08.03-2.69ZM28.3,16.74c-2.44-.74-5.1-3.32-7.04-.25.16-3.23,4.04-2.8,6.25-1.86,1.18.51,2.76.94.78,2.11Z M61.68,26.47c-.13-.1-2.09-2.09-2.25-2.15,0,0-2.88-1.53-2.88-1.53-.19-.06-4.81-3.55-5.98-4.12,0,0-6.63-1.7-6.63-1.7C46.02,9.24,38.67-.23,30.66,0c-6.47.17-14.58,7.05-12.87,13.91-1.34-.39-2.68,1.05-2.4,2.19-.17.11-5.77,1.46-5.67,1.72-.9,1.32-2.87,4.2-4.44,4.79-1.2.44-6.57.31-4.99,2.86,1.09.8,8.24,7.19,9.51,7.24l.6,5.73c0,.54-.97,1.95-.14,2.29,4.57,2.21,15.97,8.19,20.68,9.28,0,0,4.46-.68,4.46-.68.1-.02.2-.06.29-.12,0,0,3.05-2.38,3.05-2.38l12.21-6.23c.71.23.24-7.73.4-7.98l9.98-4.38c.45-.27.74-1.34.36-1.75ZM43.21,17.42l6.69,1.71-6.69-1.71ZM49.15,19.38l-6.27,2.04c.07-.58.44-2.39.7-3.4l5.57,1.37ZM16.83,15.14c1.09-1.02,2.05,3.18,2.29,3.13l.19.09c.22-2.18-1.09-6.99-.2-8.94.53-3.42,8.35-9.02,11.84-8.31,7.56-.02,13.92,9.15,11.92,16.21h-.05s0,0,0,0c-.12-.58-.9-1.44-1.45-1.38-.48.12-5.51.32-5.57,1.73.06,2,1.79.69-.69,2.23.18-.42.32-.78.32-.78-1.62,1.37-1.96,3.44-1.51,5.32-.08.04-3.03.93-2.9,1.09h-.76l-10.44-3.36c-.25-2.54-.45-4.33-.51-.18l-.33-.11c-.78-.8.27-1.59-.27-2.48-.56-.92-1.09-3.35-2.01-3.53.3.3.82,1.57,1.18,2.4-.36.68-.72,1.26-.19,2.06-.09-.52.66-1.64.5-.25-.03.21.06.35.2.35-.14.44,0,.9.17,1.31l-1.4-.48c-.8-.97-.25-3.04.15-3.75,0,0-.56.8-.76,1.51.13-1.09-.59-3.28.31-3.9h0ZM37.62,20.76c.69,0,.84-1.03.17-1.21.29-.07.6-.08.89-.03.92,1.55-1.71,2.72-2.25,1,.19-.21.39-.42.6-.61-.17.39.15.86.57.85ZM37.23,20.14c0-.51.79-.51.79,0,0,.51-.79.51-.79,0h0ZM38.99,19.57c2.28.88,1.41,2.46-1.15,2.03.93-.12,1.54-1.17,1.14-2.03h0ZM37.22,21.57c-1.28-.13-2.41.02-.97-.87.17.42.53.74.96.87h0ZM36.53,19.82c-.37.79-1.87,1.08-1.42,1.79,1.59.59,7.52.97,4.67-1.95.63.26,1.11.84,1.25,1.51.94,1.32,0-3.03-2.82-2.4,1.45-.3,3.57-1.99,4.36-.35-.25,1.09-.41,2.2-.48,3.31l-7.36,2.4c-.13-.51-.7-2.19-.41-2.73.37-.32,1.32-1.65,2.4-1.82-.07.08-.14.16-.21.24h0ZM42.51,17.78c-.56-.55-.83-.66-2.06-.29-1.35.26-3.35,1.88-4.25.74-.6-1.82,4.04-1.78,4.89-1.98.86-.1,1.73.88,1.42,1.53h0ZM15.42,17.07c-.04,1.1.3,2.86.74,3.78l-4.83-1.56-.19-.97,4.27-1.24ZM8.73,30.69l-7.31-6.19.25-.25c.09-.06,4.2-.67,4.24-.81l3.19,6.32c.43-.11-2.78-6.31-2.85-6.55,1.01-.68,4.01-2.8,5.05-3.54l18.89,6.5c-14.46,10.19-7.26,10.63-21.47,4.52ZM22.79,45.7l-6.14-2.99-.11-2.61,6.25,2.97v2.63ZM24.46,45.45c.38.11,5.47-1.21,5.98-1.31-.45.59-.13,3.63-.12,4.33-2.07,0-5.33-1.76-7.16-2.59v-3.18l-7-3.22.05,3.02-5.07-2.47c.21-.78.94-3.11.68-3.9l-.43,1.55-.54-4.68c.08-.04,8.2,3.98,8.06,3.39,0,0,11.3-9.26,11.3-9.26.13,1.54-.41,15.64.8,16.56l-6.56,1.76ZM35.05,48.39l-4.03.54c0-.72-.38-4.4.15-4.96h.04s6.69,2.25,6.69,2.25l-2.85,2.17ZM50.23,39.85l-11.95,6.07-6.38-2.16c-1.34-1.09-.56-15.82-.68-17.51l6.87,6.48,2.29,1.42,1.58,1.9c.08.73,8-3.33,8.27-3.27v7.06ZM60.48,27.12l-17.89,7.72c-.52.29-1.45-1.28-1.82-1.45l12.06-7.9.56-.74-13.03,8.41c-1.67-.38-7.55-6.41-8.86-7.58l18.42-6.1,5.95,4.15c1.37.56,3.73,2.09,4.66,3.25.08.07.05.21-.04.25h0Z" />
</svg>
