<?xml version="1.0" encoding="utf-8"?>
<!-- Generator: Adobe Illustrator 24.0.3, SVG Export Plug-In . SVG Version: 6.00 Build 0)  -->
<svg version="1.1" id="Layer_1" xmlns:serif="http://www.serif.com/"
	 xmlns="http://www.w3.org/2000/svg" xmlns:xlink="http://www.w3.org/1999/xlink" x="0px" y="0px" viewBox="0 0 612 612"
	 style="enable-background:new 0 0 612 612;" xml:space="preserve">
<style type="text/css">
	.st0{fill:#FFFFFF;}
</style>
<path class="st0" d="M562,0H50C22.4,0,0,22.4,0,50v512c0,27.6,22.4,50,50,50h512c27.6,0,50-22.4,50-50V50C612,22.4,589.6,0,562,0z
	 M458.1,228.1c0.2,3.4,0.2,6.7,0.2,10.1c0,103.6-78.9,223.2-223.2,223.2c-44.2,0-85.5-13-120.1-35c6.1,0.8,12.4,1.1,18.7,1.1
	c36.7,0,70.5-12.5,97.5-33.7c-34.3-0.6-63.3-23.3-73.3-54.5c4.7,0.9,9.6,1.4,14.7,1.4c7.2,0,14.1-0.9,20.7-2.8
	c-35.8-7.2-62.9-39-62.9-77v-1.1c10.6,5.8,22.6,9.3,35.5,9.8c-21-14.1-34.9-38.1-34.9-65.3c0-14.4,3.8-27.8,10.6-39.5
	c38.7,47.4,96.5,78.8,161.7,82c-1.2-5.8-2-11.8-2-17.9c0-43.3,35.2-78.5,78.5-78.5c22.5,0,42.8,9.5,57.2,24.8
	c17.9-3.5,34.7-9.9,49.9-19c-6,18.4-18.4,33.8-34.6,43.5c15.9-2,31.1-6.1,45.1-12.4C486.7,203.2,473.4,217.1,458.1,228.1z"/>
</svg>
