<?xml version="1.0" encoding="utf-8"?>
<!-- Generator: Adobe Illustrator 24.0.3, SVG Export Plug-In . SVG Version: 6.00 Build 0)  -->
<svg version="1.1" xmlns="http://www.w3.org/2000/svg" xmlns:xlink="http://www.w3.org/1999/xlink" x="0px" y="0px"
	 viewBox="0 0 612 612" style="enable-background:new 0 0 612 612;" xml:space="preserve">
<style type="text/css">
	.st0{fill:#FFFFFF;}
</style>
<g id="Layer_2">
</g>
<g id="Layer_1" xmlns:serif="http://www.serif.com/">
	<path class="st0" d="M467.7,183.6c-3.8-9.7-8.3-16.6-15.5-23.9c-7.3-7.3-14.2-11.8-23.9-15.5c-7.3-2.8-18.3-6.2-38.5-7.1
		c-21.9-1-28.4-1.2-83.8-1.2c-55.4,0-62,0.2-83.8,1.2c-20.2,0.9-31.2,4.3-38.5,7.1c-9.7,3.8-16.6,8.3-23.9,15.5
		c-7.3,7.3-11.8,14.2-15.5,23.9c-2.8,7.3-6.2,18.3-7.1,38.5c-1,21.9-1.2,28.4-1.2,83.8c0,55.4,0.2,62,1.2,83.8
		c0.9,20.2,4.3,31.2,7.1,38.5c3.8,9.7,8.3,16.6,15.5,23.9c7.3,7.3,14.2,11.8,23.9,15.5c7.3,2.8,18.3,6.2,38.5,7.1
		c21.9,1,28.4,1.2,83.8,1.2c55.4,0,62-0.2,83.8-1.2c20.2-0.9,31.2-4.3,38.5-7.1c9.7-3.8,16.6-8.3,23.9-15.5
		c7.3-7.3,11.8-14.2,15.5-23.9c2.8-7.3,6.2-18.3,7.1-38.5c1-21.9,1.2-28.4,1.2-83.8c0-55.4-0.2-62-1.2-83.8
		C474,201.9,470.6,190.9,467.7,183.6z M306,412.5c-58.8,0-106.5-47.7-106.5-106.5c0-58.8,47.7-106.5,106.5-106.5
		c58.8,0,106.5,47.7,106.5,106.5C412.5,364.8,364.8,412.5,306,412.5z M416.8,220.1c-13.8,0-24.9-11.1-24.9-24.9
		c0-13.8,11.1-24.9,24.9-24.9c13.8,0,24.9,11.1,24.9,24.9C441.7,209,430.5,220.1,416.8,220.1z M306,236.8c-38.2,0-69.2,31-69.2,69.2
		c0,38.2,31,69.2,69.2,69.2c38.2,0,69.2-31,69.2-69.2C375.2,267.8,344.2,236.8,306,236.8z M562,0H50C22.4,0,0,22.4,0,50v512
		c0,27.6,22.4,50,50,50h512c27.6,0,50-22.4,50-50V50C612,22.4,589.6,0,562,0z M512.2,391.5c-1,22.1-4.5,37.2-9.6,50.4
		c-5.3,13.6-12.4,25.2-23.9,36.8c-11.5,11.5-23.1,18.6-36.8,23.9c-13.2,5.1-28.3,8.6-50.4,9.6c-22.1,1-29.2,1.2-85.5,1.2
		c-56.4,0-63.4-0.2-85.5-1.2c-22.1-1-37.2-4.5-50.4-9.6c-13.6-5.3-25.2-12.4-36.8-23.9c-11.5-11.5-18.6-23.1-23.9-36.8
		c-5.1-13.2-8.6-28.3-9.6-50.4c-1-22.1-1.2-29.2-1.2-85.5c0-56.4,0.2-63.4,1.2-85.5c1-22.1,4.5-37.2,9.6-50.4
		c5.3-13.6,12.4-25.2,23.9-36.8c11.5-11.5,23.1-18.6,36.8-23.9c13.2-5.1,28.3-8.6,50.4-9.6c22.1-1,29.2-1.2,85.5-1.2
		c56.4,0,63.4,0.2,85.5,1.2c22.1,1,37.2,4.5,50.4,9.6c13.6,5.3,25.2,12.4,36.8,23.9c11.5,11.5,18.6,23.1,23.9,36.8
		c5.1,13.2,8.6,28.3,9.6,50.4c1,22.1,1.2,29.2,1.2,85.5C513.5,362.4,513.2,369.4,512.2,391.5z"/>
</g>
</svg>
