<?xml version="1.0" encoding="UTF-8"?>
<svg id="Layer_2" xmlns="http://www.w3.org/2000/svg" viewBox="0 0 122 90">
    <defs>
        <style>.cls-1{fill:#fff;stroke-width:0px;}</style>
    </defs>
    <path class="cls-1"
        d="M48.27,44.59h-8.91v4.11h-6.3v-18.91h10.86c1.43,1.44,2.86,2.87,4.35,4.35v10.45h0Z" />
    <path class="cls-1"
        d="M75.39,39.26c-1.79-1.74-3.48-3.4-5.14-5.03,1.53-1.54,2.99-3,4.52-4.53,1.65,1.68,3.32,3.37,5.02,5.09,1.74-1.76,3.42-3.44,5.08-5.11,1.52,1.53,2.97,2.99,4.47,4.49-1.66,1.63-3.34,3.29-5.03,4.95,1.75,1.75,3.44,3.43,5.07,5.06-1.56,1.56-3.03,3.03-4.56,4.56-1.61-1.62-3.28-3.3-4.98-5.01-1.7,1.71-3.38,3.4-5.01,5.04-1.52-1.52-2.99-2.98-4.54-4.53,1.63-1.59,3.33-3.25,5.1-4.98h0Z" />
    <path class="cls-1"
        d="M59.48,29.55c3.2,4.98,6.36,9.87,9.48,14.72-1.47,1.47-2.9,2.91-4.43,4.44h-10.14c-1.49-1.47-2.94-2.9-4.43-4.37,3.16-4.9,6.32-9.81,9.52-14.79h0Z" />
    <path class="cls-1"
        d="M39.34,60.21h-4.9c-.2-2.26.11-3.27,2.45-4.14,1.4-.92-.71-2.02-.37-.12h-1.95v-1.8c3.43-2.55,7.46,1.85,2.86,3.68-1.04.54-.97.54-.98,1,.56.05,1-.06.92-.7h1.96s0,2.08,0,2.08Z" />
    <path class="cls-1"
        d="M45.16,58.22c.52,2.85-5.55,2.84-4.96-.1,0,0,0-2.55,0-2.55-.52-2.85,5.55-2.84,4.96.1,0,0,0,2.55,0,2.55ZM42.29,58.19c-.17.96.95.96.79,0,0,0,0-2.59,0-2.59.16-.96-.94-.95-.79,0,0,0,0,2.59,0,2.59Z" />
    <path class="cls-1"
        d="M50.97,58.22c.52,2.85-5.55,2.84-4.96-.1,0,0,0-2.55,0-2.55-.52-2.85,5.55-2.84,4.96.1,0,0,0,2.55,0,2.55ZM48.1,58.19c-.17.96.95.96.79,0,0,0,0-2.59,0-2.59.16-.96-.94-.95-.79,0,0,0,0,2.59,0,2.59Z" />
    <path class="cls-1"
        d="M56.3,57.27h.43v1.35h-.43c0,.25.1.36.26.43v1.18h-2.68v-1.16c.23-.08.37-.15.37-.44h-2.64v-1.58l2.29-3.48h2.4s0,3.7,0,3.7ZM54.25,55.8l-.97,1.48h.97v-1.48Z" />
    <path class="cls-1" d="M60.06,58.43v-1.53h2.6v1.53h-2.6Z" />
    <path class="cls-1"
        d="M70.95,60.21h-4.9c-.2-2.26.11-3.27,2.45-4.14,1.4-.92-.71-2.02-.37-.12h-1.95v-1.8c3.43-2.55,7.46,1.85,2.86,3.68-1.04.54-.97.54-.98,1,.56.05,1-.06.92-.7h1.96v2.08Z" />
    <path class="cls-1"
        d="M76.77,58.22c.52,2.85-5.55,2.84-4.96-.1,0,0,0-2.55,0-2.55-.52-2.85,5.55-2.84,4.96.1,0,0,0,2.55,0,2.55ZM73.9,58.19c-.17.96.95.96.79,0,0,0,0-2.59,0-2.59.16-.96-.94-.95-.79,0,0,0,0,2.59,0,2.59Z" />
    <path class="cls-1"
        d="M82.42,60.21h-4.9c-.2-2.26.11-3.27,2.45-4.14,1.4-.92-.71-2.02-.37-.12h-1.95v-1.8c3.43-2.55,7.46,1.85,2.86,3.68-1.04.54-.97.54-.98,1,.56.05,1-.06.92-.7h1.96s0,2.08,0,2.08Z" />
    <path class="cls-1"
        d="M87.56,57.27h.43v1.35h-.43c0,.25.1.36.26.43v1.18h-2.68v-1.16c.23-.08.37-.15.37-.44h-2.64v-1.58l2.29-3.48h2.4s0,3.7,0,3.7ZM85.51,55.8l-.97,1.48h.97v-1.48Z" />
    <path class="cls-1"
        d="M28.35,35.4c-1.66-3.11-4.44-5.17-7.87-5.73.69-.96,3.25-1.12,4.55-.13-1.85-5.18-8.93-4.8-11.84-2.68-.37-.2.48-2.54,1.19-2.8-4.57-.79-7.12,3.89-8.26,6-.73-.16-.85-2.51-.25-3.8-2.95,2.01-5.04,7.73-3.7,11.86,2.01-.61,3.55,2.62,3.93,5.27h0c.71-.98,0-5.38-.06-5.52.56-.51,2.05,2.45,1.92,3.88.88-1.05.37-4.71.07-5.16,3.38-.99,5.25,1.75,6.44,3.69.82-.98-.24-4.5-.64-4.83,6.81-.09,10.88,5.83,15.04,11.05,1.38-4.25,1.03-8.16-.54-11.09ZM20.46,42.03c.22-1.77-2.13-2.23-3.11-1.03-.13.81-.09,2.18.23,2.72h0c1.27.49,2.79-.42,2.89-1.7ZM18.43,41.25c1.15-.05,1.1,1.46.1,1.53-1.07.08-1.15-1.49-.1-1.53ZM8.78,47.2c-.58,2.9,4.7,3.48,7.38,3.69l.16-1.29c-.87.11-6.02-1.03-7.54-2.4ZM12.06,44.35c3.41-.41,2.01-4.3-.67-3.72-3.06.61-1.86,4.02.67,3.72ZM11.79,41.39c1.19,0,1.24,1.75,0,1.75s-1.15-1.75,0-1.75ZM9.58,40.05c.61-.72,2.07-1.43,3.14-1.48-.53-.63-1.31-1.06-1.31-1.06-.35,0-1.99,1.76-1.83,2.53ZM11.22,56.15c-.52-.39-1.07-.94-1.58-1.46-.04,1.12-.11,2.86-.15,3.97.52.18,1.12.29,1.66.34.02-.83.05-2.03.07-2.85ZM6.66,63.16h0c-.22-2.55-1.31-2.84-1.9-2.99C2.76,62.92,1.12,68.38,0,74.98h6.04c.17-2.47.77-10.3.61-11.82ZM18.84,37.83h0c-.15-.17-1.29,1.37-1.16,1.53.35-.65,3.67-.16,3.64.32-.33-2.41-2.48-1.84-2.48-1.84ZM18.35,39.48c-.5.12-.83.37-.83.37.02-.06-.07.44-.06.39.91-.52,1.38-.44,1.7-.43v-.41s-.36-.03-.81.08ZM19.72,44c-.43.3-1.24.41-1.81.3.48.75,1.6.89,1.6.89.53,3.08-3.49,3.43-4.29,1.92,2.07.85,3.89.09,3.77-1.61-3.19-.57-2.81-8.07.28-8.15-2.91-1.4-4.56-1.39-4.56-1.39.89.34.16,5.68-.09,5.37-1.19-3.39-3.54-2.41-5.5-.4-.4-.61.95-3.58,1.96-3.71-.2-.32-1.93-.58-2.51-.31.96,1.07.03,5.66-.76,5.87-.09-1.51-.63-3.53-1.19-4.05.36,1.29.51,4.35-.58,5.38-4.01-13.7-9.07,1.45.03,3.5,1.08,3.32,4.55,8.68,8.74,9.52,3.12-1.26,8.77-7.16,4.93-13.18l-.02.03ZM5.47,45.89h0c-.57-.77-2.09-6.41-3.89-4.22,1.37-4.61,4.55,4.72,3.89,4.22ZM11.32,40.05c4.05-.6,4.57,4.99.46,4.93-2.99-.05-4.12-4.12-.46-4.93ZM18.96,48.4c-.17.39-1.41,1.07-1.52,1.13,0,0-.17.42-.27,1.52-.12,1.28-.05,2.41-.05,2.41,0,0-3.33,1.38-5.97-.41h0c-2.53-1.5-3.21-4.44-2.79-6.73,1.46,1.5,8.35,3.72,10.66,1.9,0,0-.02.09-.07.18ZM13.75,58.45h.02c-1.05-.63-1.69-.69-2.17-.81v1.42c.91.18,1.91-.09,1.91-.09-.2,1.54-6.57-.14-6.27-1.65.47.35.77.73,1.77,1.17l-.03-1.42c-1.69-.41-4.85-.39-3.11,1.21,1.87,1.15,1.75,1.77-.16.63-.23.24-.46.52-.71.82,3.9.52,1.45,11.46,1.62,15.27h.77c2.13-21.99,9.68-11.02,3.64,0h1.13c-.02-2.86,1.82-3.07,1.81,0h.17c-.57-2.7-.85-11.1-1.12-13.73-4.5-.5,4.56,0,.73-2.82Z" />
    <path class="cls-1"
        d="M113.85,61.39c-3.48,1.86-.83,9.11-1.36,13.59h4.58c-.55-6.57-1.3-10.69-3.22-13.59ZM109.86,59.89h0c.28-.13.57-.31.84-.54-.02-1.79-.08-3.58-.09-5.44-.5.78-.95,1.42-1.37,1.93.02,1.15.17,3.08.14,4.19.17-.04.34-.08.48-.14ZM106.64,38.62c1.12-.17,3.34.17,3.16-.23-1.3-2.11-4.3-.61-6.08-1.41-.07,1.66,1.09,1.91,2.92,1.64ZM104.59,40.75c-.09,2.69,6.22,2.19,5.59-.63-.1,0-1,.02-1.61.08.64,1.87-2.35,1.65-1.83.12,0,0-2.06.14-2.06.14,0,0-.04.09-.09.29ZM100.73,42.67h0c-.13-.22-.48-.67-.58-.92-.47.99-1.47-.37-1.15-.61,0,0-1.08.11-1.28.14.16,1.74,1.98,2.02,2.99,1.39ZM99.35,37.84c-1.06.17-2.54.68-2.45,1.75.57-.08,2-.25,2.6-.33-.03.08-.18-1.54-.15-1.43ZM98.62,40.68l1.19-.13h0c-.05-.19-.16-.63-.21-.83l-1.48.21c-.22.27-.33.58-.36.89.22-.03.57-.1.87-.14ZM108.77,55.48v-.02c2.46-2.36,3.14-7.14,3.14-9.14,2.41.03,3.44-2.74,3.55-4.68.6-4-2.5-3.14-3.4-.72-.34,1.68-.38,4.29-.32,5.38-3.52,2.01-2,1.05-1.52-4.57-.67,1.96-5.69,1.18-5.77.16-.32.11.68,3.2.89,3.02,0,0-1.21.25-2.97-.71-.24.84-.98,2.04-1.89,2.64.28,2.07,4.55.83,4.84.61-1.41,1.95-5.15,1.99-5.55-.8.77-.37,2.15-2.18,2.14-2.81-.28-.23-.52-.49-.74-.78-.29.18-1.21.51-1.86.36l.22,14.16c2.34.46,6.74.84,9.25-2.11ZM112.77,41.53c.51-1.38,1.53-2.2,1.75-1.18.03.13-.69-.73-1.5,1.76-.81,4.59-1.02,2.11-.25-.6h0ZM109.34,47.53c.87,0,2.14-.6,2.37-.92.43.79-3.1,2.19-2.37.92ZM106.1,52.21c-1.3.42-3.38.74-4.49-.02,2.27.63,7.91-2.19,8.52-3.32.13.07-.82,2.28-4.04,3.33h0ZM108.89,68.14c-.6.03-1.64,0-2.23-.05-.07.42-1.41,6.5-1.49,6.89h6.77c0-.09-.08-6.6-.16-7.32-.53.11-1.57.4-2.89.48ZM113.94,58c-.32-.65-1.54-.57-2.79-.16,0,.4.02.78.02,1.1,2.34-1.62-1.77,3.13-3.71,1.37.13-.11.94-.05,1.45-.18,0-.43,0-1.02-.02-1.77-4.3,1.64-4.48,4.36-.14,3.15.04.19-.81.66-1.38.75.04.58-.27,3.11-.6,5.18,1.01.34,4.77-.19,4.94-.45-.28-.92-.31-5.84,1.94-6.04-.05-.09-.4-.58-.47-.7-3.55,1.38,1.49-1.02.76-2.24ZM121.2,30.89c-.79-.56-1.83-.37-1.83-.37-.08-.55,1.46-2.05,2.63-1.96-.47-.98-2.65-.8-3.12.26-.25-.35,1.16-3.94,1.81-4.17-2.12.28-2.66,2.15-3.04,3.53-1.26-5.05-7.72-5.39-10.95-2.8-3.2,2.49-4.33-2.62-3.26-4.53-1.9.38-2.18,3.52-1.53,4.3-2.84-1.46-11.56-1.66-10.46,5.45,2.39-2.75,5.79-2.15,7.26-.1-6.12.29-7.13,7.12-3.05,10.94-.78-1.93,2.51-7.88,5.19-7.38-2.67,2.91,0,10.26,3.64,10.33-.46.13-.86-4.61.2-5.14-1.92.08-1.65-4.02-1-2.73.31.23,2.44.34,2.67.24-.06-.06,1.19-1.04,1.22-.96-.03-.06-.04.97.04.94.5-.22,3.21,1.12,2.78,2.35-.57-.02-1.46-.05-1.46-.05.28.48,1.12.81,1.66.67l-.03.66c.07.18,1.32.4,1.21.32-.31-.76-1.02-5.08.42-6.54.2,3.2,5.06,3.03,7.25,2.34.15.91-1.93,4.39-3.48,4.13l-.04.4.04.04c4.12-.7,5.13-6.76,3.07-9.05.2-.32,2.39-.37,2.87.48.04-.41-.02-1.1-.71-1.59ZM101.82,36.71c-.62-.46.72-2.13,1.29-1.81.06.12-.52.52-.8.87-.25.33-.36.95-.49.95ZM102.9,36.39h0c-.35.5-.1.92-.19,1.02-.05.05-.79-.43-.2-1.29,1.42-1.76,1.79-1.52.38.27ZM107.05,39.83c.35-.03,1.57-.06,2.15-.09-.06.02-.68-.61-.66-.64,0,0-2.77.13-3.4.17-.17.23-.27.42-.36.76.63-.08,1.77-.17,2.26-.2Z" />
</svg>