<?xml version="1.0" encoding="UTF-8" standalone="no"?>
<svg
   xmlns:dc="http://purl.org/dc/elements/1.1/"
   xmlns:cc="http://creativecommons.org/ns#"
   xmlns:rdf="http://www.w3.org/1999/02/22-rdf-syntax-ns#"
   xmlns:svg="http://www.w3.org/2000/svg"
   xmlns="http://www.w3.org/2000/svg"
   xmlns:sodipodi="http://sodipodi.sourceforge.net/DTD/sodipodi-0.dtd"
   xmlns:inkscape="http://www.inkscape.org/namespaces/inkscape"
   viewBox="0 0 100 99.999999"
   version="1.1"
   id="svg54"
   sodipodi:docname="ColorSelect.svg"
   width="100"
   height="100"
   inkscape:version="1.0.1 (3bc2e813f5, 2020-09-07)">
  <metadata
     id="metadata60">
    <rdf:RDF>
      <cc:Work
         rdf:about="">
        <dc:format>image/svg+xml</dc:format>
        <dc:type
           rdf:resource="http://purl.org/dc/dcmitype/StillImage" />
        <dc:title></dc:title>
      </cc:Work>
    </rdf:RDF>
  </metadata>
  <defs
     id="defs58" />
  <sodipodi:namedview
     pagecolor="#ffffff"
     bordercolor="#666666"
     borderopacity="1"
     objecttolerance="10"
     gridtolerance="10"
     guidetolerance="10"
     inkscape:pageopacity="0"
     inkscape:pageshadow="2"
     inkscape:window-width="2000"
     inkscape:window-height="1368"
     id="namedview56"
     showgrid="false"
     fit-margin-top="4.5"
     fit-margin-left="4"
     fit-margin-right="4"
     fit-margin-bottom="4.5"
     inkscape:zoom="11.080576"
     inkscape:cx="44.869734"
     inkscape:cy="51.701976"
     inkscape:window-x="342"
     inkscape:window-y="0"
     inkscape:window-maximized="0"
     inkscape:current-layer="svg54" />
  <path
     d="m 95.76,18.84 a 37,37 0 0 0 -0.7,-6 C 94.46,9.26 92,6.99 88.14,6.08 A 49.23,49.23 0 0 0 79.3,5.21 h -6.74 -6 C 34.5,4.97 73.89,4.66 41.84,4.5 36.24,4.5 30.65,5.11 25.06,5.14 6.39,5.22 34.46,4.78 15.78,4.83 A 14.73,14.73 0 0 0 11.52,5.58 C 5.39,7.5 4.06,12.02 4,16.99 4,26.05 4,72.57 4.05,81.13 a 37,37 0 0 0 0.71,6 c 0.6,3.57 3.06,5.85 6.92,6.76 a 49.23,49.23 0 0 0 8.84,0.86 c 17.41,0.07 -13.67,0 3.74,0.06 32.06,0.17 -7.33,0.49 24.73,0.65 5.59,0 11.18,-0.61 16.77,-0.64 18.68,-0.09 -0.4,0.36 18.27,0.31 a 14.79,14.79 0 0 0 4.27,-0.75 c 6.12,-1.92 7.46,-6.45 7.49,-11.42 0.06,-9.04 0.02,-55.56 -0.03,-64.12 z M 82.27,61.16 c 0,2.11 0,3.34 0,4 0,0.51 0,1.78 0,4.52 a 31.1,31.1 0 0 1 -0.62,5.94 5.73,5.73 0 0 1 -4.88,4.64 29,29 0 0 1 -4.34,0.48 c -6.18,0 -39.76,0 -46.3,0 -3.58,0 -6.85,-0.91 -8.24,-5 a 9.34,9.34 0 0 1 -0.54,-2.86 c 0,-12.54 0.29,0.27 0.22,-12.27 0,-3.76 -0.47,-7.51 -0.45,-11.27 0.11,-21.52 0.34,4.93 0.46,-16.6 0.07,-11.69 0,9.18 0.05,-2.51 a 31.09,31.09 0 0 1 0.61,-5.94 5.75,5.75 0 0 1 4.89,-4.64 28.83,28.83 0 0 1 4.33,-0.48 c 6.19,0 39.77,0 46.3,0 3.59,0 6.86,0.91 8.24,5 a 9.36,9.36 0 0 1 0.55,2.86 c 0,12.54 -0.29,-6.31 -0.23,6.23 0,3.75 0.48,7.51 0.46,11.26 -0.15,21.57 -0.38,-4.88 -0.51,16.64 z"
     id="path50" />
  <path
     style="fill:#a0a0a0;stroke:none;stroke-width:0.0911505"
     d="m 24.674841,80.964093 c -2.53527,-0.247984 -3.97558,-0.818724 -5.249833,-2.080311 -1.007461,-0.997446 -1.515304,-1.910747 -2.05347,-3.692941 -0.196892,-0.652029 -0.207986,-0.854054 -0.240015,-4.370557 -0.02481,-2.723643 -0.0054,-3.739661 0.07444,-3.88876 0.156667,-0.292734 0.05196,-9.203441 -0.138585,-11.793791 -0.189412,-2.574944 -0.276386,-8.308298 -0.1763,-11.62169 0.04391,-1.453849 0.09273,-2.44853 0.108481,-2.210399 0.01575,0.238131 0.06268,0.432965 0.104291,0.432965 0.07402,0 0.104402,-1.115922 0.275467,-10.117705 0.08621,-4.536938 0.1601,-5.482612 0.591071,-7.565491 0.411726,-1.989866 1.824998,-3.650128 3.706276,-4.354004 0.472783,-0.176892 1.809902,-0.431448 3.545085,-0.674901 1.032293,-0.144836 47.002008,-0.221915 49.449724,-0.08291 1.933145,0.109779 3.073523,0.358224 4.192344,0.913352 1.65418,0.820759 2.752578,2.159163 3.449644,4.203411 0.406366,1.191729 0.517141,2.109979 0.498421,4.131556 -0.01196,1.291678 -0.03243,1.604794 -0.06925,1.059079 l -0.05227,-0.774779 -0.0808,0.638054 c -0.11303,0.892605 0.0095,5.987031 0.230135,9.570802 0.152344,2.474163 0.183608,3.949842 0.176169,8.315402 -0.0051,2.964305 -0.04577,5.398896 -0.09224,5.514605 -0.07169,0.178495 -0.084,0.157335 -0.08898,-0.152875 -0.0044,-0.276662 -0.03069,-0.335133 -0.113345,-0.252478 -0.08056,0.08056 -0.123572,2.619553 -0.171316,10.113147 -0.06052,9.49925 -0.07353,10.076101 -0.257007,11.399105 -0.432186,3.116322 -0.764055,3.977443 -2.010302,5.21625 -0.872149,0.866944 -1.542264,1.254132 -2.663793,1.53912 -0.826984,0.210143 -2.413758,0.438599 -3.85949,0.55567 -0.998637,0.08087 -48.269538,0.110798 -49.084543,0.03108 z"
     id="path68" />
</svg>
