<svg xmlns="http://www.w3.org/2000/svg" viewBox="0 0 547.33 319.79"><g id="Layer_2" data-name="Layer 2"><g id="Owls"><path d="M546.44,18.4c-.22-8.41-4.51-15.32-9.75-16-6.5-.84-13.06-1.75-19.58-1.66-15.81.21-32.19-.41-48-.3C435,.69,355.48,2.28,321.37,2.28c-35.57,0-125.13.19-160.7,0C114.24,1.92,67.81.19,21.38,0,5-.07-.78,9.06.23,27.67,1.18,45.19-.1,66.23,0,83.78c.44,72.54.42,164.55.86,234.89,59.79.88,194,1,253.74.67s119.63-.39,179.44-.09c30.25.15,68.83.14,100.72.44v.1h10.16c.45-57.66.1-112.33.38-170,.13-26,2.1-52,2-78C547.28,54,546.91,36.19,546.44,18.4ZM534.7,308.19q-89.72-.65-179.43-.56T175.84,309c-33.35.5-131.88.89-166,2.49V15H534.77V308.2Z"/></g></g></svg>