<svg xmlns="http://www.w3.org/2000/svg" viewBox="0 0 770.97 78.46"><g id="Layer_2" data-name="Layer 2"><g id="UI"><path d="M770.86,21c-.33-9.6-6.68-17.49-14.44-18.26-9.63-1-19.34-2-29-1.89C704,1.1,679.77.39,656.37.52,605.86.79,556.22,2.6,505.71,2.6c-52.66,0-215.32.22-268-.05C169,2.19,100.23.21,31.48,0,7.17-.08-1.33,10.34.17,31.59c.13,1.93.24,3.29.33,4.23,0,2.19,0,5.32,0,9.72,0,5.3,10,26.38,20.26,28.78a84.6,84.6,0,0,0,18.86,2.26c46.26.19,92.53-.09,138.79.16,85.17.47,280.34,1.3,365.51,1.72,14.86.08,29.72-1.61,44.58-1.68,49.61-.23,99.23,0,148.85-.18a39.44,39.44,0,0,0,11.33-2c16.27-5.06,19.82-12,19.9-25.2C768.87,2.6,771.55,41.33,770.86,21Z"/></g></g></svg>