<svg xmlns="http://www.w3.org/2000/svg" viewBox="0 0 547.33 627.47"><g id="Layer_2" data-name="Layer 2"><g id="Owls"><path d="M.94,505.71c0-19-.27-38,.05-56.92.58-33.94,2.27-20,.77-53.78C.33,337.23.65,187.53,0,83.78-.1,66.23,1.18,45.19.23,27.67-.78,9.06,5-.07,21.38,0c46.43.19,92.86,1.92,139.29,2.23,35.57.24,125.13,0,160.7,0C355.48,2.28,435,.69,469.12.45c15.8-.11,32.18.51,48,.3,6.52-.09,13.08.82,19.58,1.66,5.24.67,9.53,7.58,9.75,16,.47,17.79.84,35.59.89,53.39.08,26-1.89,52-2,78-.29,60.64.12,121.28-.44,181.91-.15,15.44-1.14,30.86-1.1,46.28.12,48.23-.15,48.45.1,96.68.22,41,1.23,82,1,123,0,11.52-2.45,22-13.44,26.45a21.23,21.23,0,0,1-7.65,1.74c-33.51.11-113-.05-146.53.15-10,.06-20.07,1.54-30.11,1.48-57.52-.37-169-1.1-226.56-1.51-31.25-.22-62.49,0-93.74-.14a45,45,0,0,1-12.74-2c-6.92-2.1-11.33-7.38-12.41-15.67A110.28,110.28,0,0,1,.45,594.26c-.11-29.52,0-59,0-88.55ZM9.83,15V612.91H534.77V15Z"/><path d="M534.7,308.19q-89.72-.65-179.43-.56T175.84,309c-33.56.5-133.12.89-166.65,2.52-5.59.27-5.66,8.61,0,8.69,59.79.88,185.63-.47,245.42-.82s119.63-.39,179.44-.09q50.32.25,100.65.83C542.39,320.17,542.4,308.25,534.7,308.19Z"/></g></g></svg>