<?xml version="1.0" encoding="UTF-8" standalone="no"?>
<svg
   xmlns:dc="http://purl.org/dc/elements/1.1/"
   xmlns:cc="http://creativecommons.org/ns#"
   xmlns:rdf="http://www.w3.org/1999/02/22-rdf-syntax-ns#"
   xmlns:svg="http://www.w3.org/2000/svg"
   xmlns="http://www.w3.org/2000/svg"
   xmlns:sodipodi="http://sodipodi.sourceforge.net/DTD/sodipodi-0.dtd"
   xmlns:inkscape="http://www.inkscape.org/namespaces/inkscape"
   viewBox="0 0 722.47 176.63"
   version="1.1"
   id="svg6"
   sodipodi:docname="AnswerChoiceButtonActive.svg"
   inkscape:version="1.0.1 (3bc2e813f5, 2020-09-07)">
  <metadata
     id="metadata12">
    <rdf:RDF>
      <cc:Work
         rdf:about="">
        <dc:format>image/svg+xml</dc:format>
        <dc:type
           rdf:resource="http://purl.org/dc/dcmitype/StillImage" />
        <dc:title></dc:title>
      </cc:Work>
    </rdf:RDF>
  </metadata>
  <defs
     id="defs10" />
  <sodipodi:namedview
     pagecolor="#ffffff"
     bordercolor="#666666"
     borderopacity="1"
     objecttolerance="10"
     gridtolerance="10"
     guidetolerance="10"
     inkscape:pageopacity="0"
     inkscape:pageshadow="2"
     inkscape:window-width="2560"
     inkscape:window-height="1377"
     id="namedview8"
     showgrid="false"
     inkscape:zoom="1.4422745"
     inkscape:cx="349.10137"
     inkscape:cy="88.315002"
     inkscape:window-x="-8"
     inkscape:window-y="-8"
     inkscape:window-maximized="1"
     inkscape:current-layer="UI" />
  <g
     id="Layer_2"
     data-name="Layer 2">
    <g
       id="UI">
      <path
         d="M722.33,20.5C721.88,8.91,714,1.54,700,1.3,671.87.81,409.18.91,381.09,1c-38.82.11-77.7,1.53-116.46.33-31.16-1-206.16-2.51-237.29.21C14,2.71,5.71,7.26,3,18.67A110.33,110.33,0,0,0,.09,38.73c-.71,13.44,3,91.43,1.15,105.14C-2,167.68,8.78,175.94,38,175.94H315.34c46.92,1.81,328.54-.57,375.51-.06,18.29.2,31-8.86,30.19-23.67C719.83,129.85,723.19,42.8,722.33,20.5Z"
         id="path2"
         style="fill:#ffffff;fill-opacity:1" />
    </g>
  </g>
</svg>
