<svg xmlns="http://www.w3.org/2000/svg" viewBox="0 0 60.57 53.44"><defs><style>.cls-1{fill:#ff25b9;}</style></defs><g id="Layer_2" data-name="Layer 2"><g id="UI"><path class="cls-1" d="M58.63,1.58a6.08,6.08,0,0,0-8.44.25h0A41.94,41.94,0,0,1,45.3,5.62a37.8,37.8,0,0,0-8.67,7.62Q30.86,20.59,25.13,28l-1.05,1.36-4.23,5.47c-.22.28-.45.59-.68.91s-.63.85-1,1.29a32.83,32.83,0,0,1-2.9-6L15,30.42a7.82,7.82,0,0,0-9.61-4.5A7.43,7.43,0,0,0,.16,34.66C1,39,3.53,46.79,10.31,51.09a14.69,14.69,0,0,0,7.92,2.35c4.39,0,8.82-2,12.43-5.9a85.28,85.28,0,0,0,8.29-11c1.72-2.59,3.35-5,5.24-7.39,1.77-2.2,3-3.45,4-4.56a37.2,37.2,0,0,0,6.58-8.94c.39-.68,2.2-3,3-3.93.46-.58.87-1.09,1.16-1.47C62.59,5.45,59,2,58.63,1.58Zm-.21,9-4-4.28h0l4,4.27Z"/></g></g></svg>