<svg xmlns="http://www.w3.org/2000/svg" viewBox="0 0 728.97 145.46"><defs><style>.cls-1{fill:#fff;}</style></defs><g id="Layer_2" data-name="Layer 2"><g id="UI"><rect class="cls-1" x="12.29" y="17.18" width="707.42" height="114.36"/><path d="M.17,31.59C-1.33,10.34,7.17-.08,31.48,0,100.23.21,197,2.19,265.73,2.55c52.66.27,105.32.05,158,.05C474.22,2.6,563.86.79,614.37.52c23.4-.13,47.65.58,71.06.34,9.65-.1,19.36.93,29,1.89,7.76.77,14.11,8.66,14.44,18.26.69,20.32-2,48.59-2.28,95.4-.08,13.15-3.63,20.14-19.9,25.2a39.44,39.44,0,0,1-11.33,2c-49.62.13-139.24,0-188.85.18-14.86.07-29.72,1.76-44.58,1.68-85.17-.42-170.34-1.25-255.51-1.72-46.26-.25-120.53,0-166.79-.16a84.6,84.6,0,0,1-18.86-2.26C10.5,138.92.53,117.84.5,112.54.34,78.83,1.57,51.61.17,31.59ZM14.38,17.18V127.84H711.57V17.18Z"/></g></g></svg>