<?xml version="1.0" encoding="UTF-8" standalone="no"?>
<svg
   xmlns:dc="http://purl.org/dc/elements/1.1/"
   xmlns:cc="http://creativecommons.org/ns#"
   xmlns:rdf="http://www.w3.org/1999/02/22-rdf-syntax-ns#"
   xmlns:svg="http://www.w3.org/2000/svg"
   xmlns="http://www.w3.org/2000/svg"
   xmlns:sodipodi="http://sodipodi.sourceforge.net/DTD/sodipodi-0.dtd"
   xmlns:inkscape="http://www.inkscape.org/namespaces/inkscape"
   viewBox="0 0 321 106"
   version="1.1"
   id="svg12"
   sodipodi:docname="TabInactiveBottom.svg"
   inkscape:version="1.0.1 (3bc2e813f5, 2020-09-07)">
  <metadata
     id="metadata16">
    <rdf:RDF>
      <cc:Work
         rdf:about="">
        <dc:format>image/svg+xml</dc:format>
        <dc:type
           rdf:resource="http://purl.org/dc/dcmitype/StillImage" />
        <dc:title></dc:title>
      </cc:Work>
    </rdf:RDF>
  </metadata>
  <sodipodi:namedview
     pagecolor="#ffffff"
     bordercolor="#666666"
     borderopacity="1"
     objecttolerance="10"
     gridtolerance="10"
     guidetolerance="10"
     inkscape:pageopacity="0"
     inkscape:pageshadow="2"
     inkscape:window-width="2560"
     inkscape:window-height="1377"
     id="namedview14"
     showgrid="false"
     inkscape:zoom="4"
     inkscape:cx="138.31709"
     inkscape:cy="107.63267"
     inkscape:window-x="-8"
     inkscape:window-y="-8"
     inkscape:window-maximized="1"
     inkscape:current-layer="svg12" />
  <defs
     id="defs4">
    <inkscape:path-effect
       effect="spiro"
       id="path-effect24"
       is_visible="true"
       lpeversion="1" />
    <inkscape:path-effect
       effect="spiro"
       id="path-effect20"
       is_visible="true"
       lpeversion="1" />
    <style
       id="style2">.cls-1{fill:#c9c9c9;}</style>
  </defs>
  <g
     id="Layer_2"
     data-name="Layer 2">
    <g
       id="UI">
      <path
         d="M321,92.38c0-18.69,0-42.39-.09-61.08a81.94,81.94,0,0,0-1.53-13.11c-1.32-7.81-6.68-12.79-15.11-14.77-5-1.18-14.12-1.85-19.3-1.87-38-.15-26.28.08-64.28-.13-70-.38-12.05-1.07-82-1.42C126.47-.06,114.26,1.34,102,1.39,61.29,1.58,66.45.61,25.69.72a32.13,32.13,0,0,0-9.31,1.64C3,6.54.1,16.43,0,27.27-.09,47,.17,71.8.49,91.56"
         id="path6" />
      <path
         class="cls-1"
         d="M308,106V17.36H13V106Z"
         id="path8" />
    </g>
  </g>
  <path
     style="fill:none;stroke:#000000;stroke-width:16.1705px;stroke-linecap:butt;stroke-linejoin:miter;stroke-opacity:1"
     d="M -0.15624998,98.0625 H 321.06342"
     id="path22"
     inkscape:path-effect="#path-effect24"
     inkscape:original-d="m -0.15624998,98.0625 c 107.07425998,0.001 214.14747998,0.001 321.21966998,0" />
</svg>
