<svg xmlns="http://www.w3.org/2000/svg" viewBox="0 0 106.87 101.79"><defs><style>.cls-1{fill:#ff25b9;}.cls-2{fill:#fff;}</style></defs><g id="Layer_2" data-name="Layer 2"><g id="Arrows"><path d="M1.21,59.61C-5.31,37.12,15.35,8.94,43.47,1.46c25.11-6.69,54.39,10.35,61.25,35.63,7.66,28.25-5.64,54.24-31.37,61.29C36.29,110.14,10,90,1.21,59.61Zm42.64-43c-18.14,5.43-33,26-26.77,40.57,9.45,21.93,24.06,36,49.26,28.33C85,79.85,95.92,60.19,90.62,42,84.58,21.33,64.51,10.42,43.85,16.61Z"/><path class="cls-1" d="M96,40.65C89.07,16.89,66,4.37,42.31,11.47,21.49,17.71,4.37,41.33,11.58,58.05,22.43,83.23,39.2,99.35,68.13,90.57,89.53,84.07,102.09,61.5,96,40.65Z"/><path class="cls-2" d="M55.07,69.8c3.76-3.86,8.52-6.82,12.86-10,3.41-2.51,6.85-5,10.28-7.45-3.93-2.78-7.76-5.69-11.45-8.78A162,162,0,0,1,53.7,31c-2.09-2.18,2.29-4.68,4.18-3,4.44,4,9.24,7.77,13.95,11.46S81.43,46.66,86.46,50a2.85,2.85,0,0,1,.16,4.43c-4.46,3.36-8.92,6.75-13.41,10.08s-8.89,7.12-13.86,9.71C56.49,75.66,52.27,72.67,55.07,69.8Z"/><path class="cls-2" d="M22.65,49.14c4.64-.87,9.53-.4,14.23-.4l13.18,0c9.1,0,18.21.1,27.31.57,4.23.21,4.6,7,.27,7.23-9.07.56-18.16.76-27.26.87l-13.16.16c-4.68.06-9.61.66-14.26-.16C19.26,56.78,18.8,49.86,22.65,49.14Z"/></g></g></svg>