<svg xmlns="http://www.w3.org/2000/svg" viewBox="0 0 765.84 854.14"><defs><style>.cls-1{fill:#c9c9c9;}.cls-2{fill:#fff;}</style></defs><g id="Layer_2" data-name="Layer 2"><g id="UI"><path d="M715.55,92.38c0-18.69,0-42.39-.08-61.08a81.94,81.94,0,0,0-1.53-13.11c-1.33-7.81-6.68-12.79-15.11-14.77-5-1.18-14.12-1.85-19.3-1.87-38-.15-26.28.08-64.29-.13-70-.38-12-1.07-82-1.42C521-.06,508.81,1.34,496.6,1.39,455.84,1.58,461,.61,420.25.72a32.13,32.13,0,0,0-9.31,1.64c-13.37,4.18-16.29,14.07-16.35,24.91-.12,19.76.14,44.53.46,64.29"/><path class="cls-1" d="M702.51,106V17.36H407.56V106Z"/><path d="M1.6,714.77c0-21.72-.45-43.44.1-65.15,1-38.84,3.88-77.8,1.32-116.49C.56,467,1.11,295.65,0,176.9c-.18-20.08,2-44.17.38-64.23C-1.34,91.37,8.48,80.93,36.6,81c79.49.21,159,2.2,238.47,2.55,60.89.28,121.78.06,182.66,0,58.4,0,115.81-1.81,174.2-2.08,27.06-.13,55.11.58,82.16.34,11.17-.1,22.39.94,33.52,1.89,9,.77,16.33,8.68,16.7,18.31.8,20.36,1.43,40.74,1.53,61.11.13,29.76-3.24,59.52-3.46,89.28-.51,69.41.2,138.82-.76,208.22-.25,17.67-2,35.32-1.88,53,.2,55.2-.26,110.39.18,165.59.37,46.92,2.09,93.85,1.76,140.77-.1,13.18-4.2,25.19-23,30.27a52.13,52.13,0,0,1-13.11,2c-57.36.13-114.73,0-172.1.18-17.19.07-34.37,1.76-51.55,1.69-98.48-.42-197-1.26-295.43-1.73-53.49-.25-107,0-160.48-.16A112.45,112.45,0,0,1,24.2,850c-11.86-2.41-19.4-8.46-21.26-17.94-1-5.28-2.13-10.61-2.16-15.92-.2-33.79-.1-67.57-.1-101.36ZM16.83,98.22V837.48h727.5V98.22Z"/><path class="cls-2" d="M16.83,98.22h727.5V837.48H16.83Z"/><path d="M372.55,92.38c0-18.69,0-42.39-.08-61.08a81.94,81.94,0,0,0-1.53-13.11c-1.33-7.81-6.68-12.79-15.11-14.77-5-1.18-14.12-1.85-19.3-1.87-38-.15-26.28.08-64.29-.13-70-.38-12-1.07-82-1.42C178-.06,165.81,1.34,153.6,1.39,112.84,1.58,118,.61,77.25.72a32.13,32.13,0,0,0-9.31,1.64C54.57,6.54,51.65,16.43,51.59,27.27c-.12,19.76.14,44.53.46,64.29"/><path class="cls-2" d="M359.51,106V17.36H64.56V106Z"/></g></g></svg>