<svg xmlns="http://www.w3.org/2000/svg" viewBox="0 0 707.58 811.18"><g id="Layer_2" data-name="Layer 2"><g id="Owls"><path d="M1.21,653.77c0-24.53-.34-49.07.07-73.59.75-43.87,2.93-25.82,1-69.52C.42,436,.84,242.43,0,108.3-.13,85.62,1.52,58.42.29,35.77-1,11.71,6.41-.09,27.64,0c60,.24,120.05,2.48,180.07,2.89,46,.3,161.77.06,207.74,0,44.1,0,146.92-2,191-2.35,20.43-.15,41.6.65,62,.38,8.43-.11,16.9,1.06,25.31,2.14,6.77.87,12.32,9.8,12.61,20.68.6,23,1.08,46,1.15,69,.1,33.61-2.45,67.23-2.61,100.84-.39,78.4.15,156.79-.58,235.18-.18,19.95-1.47,39.89-1.42,59.83.15,62.34-.2,62.63.14,125,.28,53,1.58,106,1.33,159-.07,14.88-3.17,28.45-17.38,34.19a27.57,27.57,0,0,1-9.89,2.25c-43.32.15-146.11-.06-189.43.2-13,.08-25.95,2-38.92,1.91-74.37-.48-218.54-1.42-292.9-1.95-40.39-.29-80.79,0-121.18-.18a58.17,58.17,0,0,1-16.47-2.56c-8.95-2.72-14.65-9.55-16-20.26a143.16,143.16,0,0,1-1.63-18C.44,730.09.51,691.93.51,653.77ZM12.71,19.45V792.36H691.34V19.45Z"/></g></g></svg>