<svg xmlns="http://www.w3.org/2000/svg" viewBox="0 0 837.5 15.39"><defs><style>.cls-1{fill:#000103;}</style></defs><g id="Layer_2" data-name="Layer 2"><g id="UI"><path class="cls-1" d="M6,14.65c10-1,20.12-1.11,30.15-1.3,23.7-.45,47.43-.14,71.14.18,33.62.45,67.21,1.37,100.84,1.07,26.39-.24,52.75-.33,79.14,0,27.37.32,54.75,0,82.12-.16,25-.19,50.07-.1,75.07-1.06C457.25,12.86,470,12,482.81,12c13.31.07,25,1.72,38.26,1.78,16.26.08,32.52-.34,48.77-.56,12.9-.17,25.89-.6,38.76.4,1.52.12-1-.15-.07,0l1,.16c1.44.22,2.88.4,4.33.54,2.85.28,5.71.43,8.57.56,7.89.36,15.79.46,23.69.5,15,.07,30.2.13,45.2-1,2.08-.16,4.14-.4,6.2-.72-2.75.43.7,0,1.61-.06,4.06-.24,8.13-.32,12.2-.4,13.29-.27,26.6-.31,39.9-.35q37.89-.09,75.8.16l4.65,0c7.72.05,7.73-11.95,0-12q-29-.2-57.88-.21c-24.87,0-50-.75-74.82.78-1.51.09-3,.25-4.5.46s.68,0-.47.07-2.14.2-3.21.28c-6.47.47-13,.63-19.46.77-16.41.35-32.88.46-49.28-.3-2.82-.13-5.64-.29-8.45-.57l-1.43-.16c-.31,0,1.07.15-.2,0s-2.4-.36-3.6-.48c-5.3-.53-10.67-.5-16-.53-16.28-.08-32.56.32-48.83.55-12.48.17-25.14.76-37.59-.37-.69-.06.94.13.83.12-.76-.09-1.51-.21-2.27-.31L502.35.8c-2-.21-4-.34-6.05-.45C491.62.1,486.94,0,482.25,0,473,0,463.73.18,454.49.7,434,1.85,413.43,2,392.88,2.21c-30.27.3-60.55.52-90.82.45-22.45-.05-44.87-.51-67.32-.31-31.51.27-62.94.29-94.44-.29C97.89,1.27,55.16-.26,12.77,2.17c-2.26.13-4.52.26-6.77.48-3.25.33-6,2.53-6,6,0,3,2.78,6.33,6,6Z"/></g></g></svg>