<svg xmlns="http://www.w3.org/2000/svg" viewBox="0 0 105.72 101.45"><defs><style>.cls-1{fill:#3688b9;}</style></defs><g id="Layer_2" data-name="Layer 2"><g id="Arrows"><path d="M105.72,57.14c.08,23.42-27.53,44.83-56.61,44.3C23.12,101-.36,76.54,0,50.35.41,21.08,20.34-.25,47,0,85.88-1.09,105.6,25.47,105.72,57.14ZM52.9,86.77c18.93-.24,38.92-15.93,36.89-31.65C86.73,31.43,76.54,13.91,50.21,14.34c-19.48.32-35.4,16.22-35.29,35.14C15,71,31.34,87,52.9,86.77Z"/><path class="cls-1" d="M9.36,49.32C9.5,74.07,28.21,92.44,53,92.13,74.7,91.86,97.65,73.85,95.32,55.8,91.81,28.6,80.11,8.49,49.89,9,27.52,9.34,9.25,27.6,9.36,49.32Z"/></g></g></svg>