<svg xmlns="http://www.w3.org/2000/svg" viewBox="0 0 57.19 56.67"><defs><style>.cls-1{fill:#fff;}</style></defs><g id="Layer_2" data-name="Layer 2"><g id="UI"><rect class="cls-1" x="2.83" y="6.38" width="51" height="45.33"/><path d="M57.16,8.93a23.7,23.7,0,0,0-.44-3.74C56.35,3,54.82,1.54,52.41,1A30.72,30.72,0,0,0,46.9.44H42.7L39,.41C19,.3,43.53.1,23.57,0c-3.48,0-7,.38-10.45.4C1.49.45,19,.17,7.34.2A9.66,9.66,0,0,0,4.68.67C.87,1.87,0,4.69,0,7.78,0,13.42,0,42.4,0,47.73a23.82,23.82,0,0,0,.44,3.75,5.15,5.15,0,0,0,4.31,4.21,29.82,29.82,0,0,0,5.51.53c10.84.05-8.51,0,2.33,0,20,.11-4.56.31,15.4.4,3.48,0,7-.38,10.45-.39,11.63-.06-.25.22,11.38.19A8.91,8.91,0,0,0,52.51,56c3.82-1.19,4.65-4,4.67-7.11C57.21,43.24,57.19,14.27,57.16,8.93ZM48.76,35.3c0,1.31,0,2.08,0,2.51s0,1.11,0,2.82a18.93,18.93,0,0,1-.38,3.69,3.59,3.59,0,0,1-3.05,2.9,17.55,17.55,0,0,1-2.7.29c-3.85,0-24.77,0-28.84,0-2.23,0-4.27-.57-5.13-3.13a5.79,5.79,0,0,1-.34-1.78c0-7.81.18.16.14-7.65,0-2.34-.3-4.68-.29-7,.08-13.41.22,3.06.3-10.34,0-7.29,0,5.71,0-1.57a19.94,19.94,0,0,1,.39-3.7,3.58,3.58,0,0,1,3-2.89,19.06,19.06,0,0,1,2.7-.3c3.85,0,24.77,0,28.84,0,2.24,0,4.27.57,5.13,3.13a5.79,5.79,0,0,1,.34,1.79c0,7.81-.18-3.93-.14,3.88,0,2.34.3,4.68.29,7C49,38.36,48.84,21.89,48.76,35.3Z"/></g></g></svg>