<svg xmlns="http://www.w3.org/2000/svg" viewBox="0 0 321 106"><defs><style>.cls-1{fill:#c9c9c9;}</style></defs><g id="Layer_2" data-name="Layer 2"><g id="UI"><path d="M321,92.38c0-18.69,0-42.39-.09-61.08a81.94,81.94,0,0,0-1.53-13.11c-1.32-7.81-6.68-12.79-15.11-14.77-5-1.18-14.12-1.85-19.3-1.87-38-.15-26.28.08-64.28-.13-70-.38-12.05-1.07-82-1.42C126.47-.06,114.26,1.34,102,1.39,61.29,1.58,66.45.61,25.69.72a32.13,32.13,0,0,0-9.31,1.64C3,6.54.1,16.43,0,27.27-.09,47,.17,71.8.49,91.56"/><path class="cls-1" d="M308,106V17.36H13V106Z"/></g></g></svg>