<svg xmlns="http://www.w3.org/2000/svg" viewBox="0 0 700.02 153.33"><defs><style>.cls-1{fill:#000103;}</style></defs><g id="Layer_2" data-name="Layer 2"><g id="UI"><path class="cls-1" d="M626.64,56.79c.78-7.09,1.21-15.46-1.43-22.19-2-5-5.59-7.59-11-7.6-3.1,0-6.2,0-9.29.06-20.73.26-41.44.71-62.17.87-9.55.08-19.11.13-28.66-.09-3-.07-6.08-.16-9.11-.4-.54,0-1.08-.11-1.62-.15-1.14-.09,1.8.35.18,0-1.38-.28-2.77-.48-4.18-.63-8.55-.93-17.34-.49-25.92-.35-11,.18-22,.5-33,.59-4.29,0-8.58.06-12.87-.11-1.43-.05-2.84-.17-4.27-.28-1.21-.09.69.13.56.08a5.22,5.22,0,0,0-.93-.17c-1.52-.27-3.05-.47-4.57-.64-11.81-1.33-24.07-.82-35.9.12-12.67,1-25.37,1.13-38.08,1.33q-31.1.47-62.18.56c-12.94,0-25.85-.3-38.78-.44-22.08-.24-44.16.5-66.24.54-23.87.05-47.76-1.14-71.63-1.44q-11.31-.15-22.61-.16a6.08,6.08,0,0,0-6,6V57.79c0,7.73,12,7.74,12,0V32.3l-6,6c27.58,0,55.17.6,82.73,1.48,20.75.66,41.57-.24,62.33-.4,13.22-.1,26.41.38,39.63.42,19.73.06,39.47-.1,59.2-.33,16-.18,32.05-.22,48-.94,7.07-.32,14.09-1.11,21.17-1.29,6.27-.16,12.57-.19,18.83.24,1.26.09,2.5.22,3.75.34.73.08-.22,0-.3,0l1,.15,1.18.22c1.61.26,3.23.44,4.85.55,9,.59,18.09.21,27.09,0,10.82-.21,21.64-.51,32.46-.52,4,0,8,0,12,.25l2.07.17c1.78.14-1.15-.27.42,0,1.23.25,2.45.43,3.7.58,6.51.78,13.18.66,19.72.71,21.2.16,42.39-.27,63.58-.62,8.28-.13,16.55-.29,24.83-.34,1.25,0,2.51.06,3.75,0,.22,0,.45,0,.67,0-.08,0-1.56-.34-.67-.08.09,0-1.3-.61-.74-.31.32.18-1.18-.86-.26-.15.43.33-.41-.52-.42-.55a4.84,4.84,0,0,0,.45.79c.12.17-.31-1.08,0,0,.14.49.3,1,.42,1.47s.2.9.28,1.36.11.64.16,1c-.08-.51-.08-.81,0-.12.14,2.26.28,4.5.25,6.77,0,2.54-.15,5.1-.43,7.62-.36,3.23,3,6,6,6,3.54,0,5.64-2.76,6-6Z"/><path class="cls-1" d="M76.94,12.3V37.79a6,6,0,0,0,12,0V12.3a6,6,0,1,0-12,0Z"/><path class="cls-1" d="M626.64,34.79l-.88-25.23L625.64,6c-.11-3.14-2.68-6.15-6-6-3.16.14-6.12,2.64-6,6l.87,25.23.13,3.55c.11,3.14,2.68,6.15,6,6,3.15-.14,6.11-2.64,6-6Z"/><path class="cls-1" d="M492.34,47.54l-.88-25.23-.12-3.56c-.11-3.13-2.68-6.15-6-6-3.16.14-6.12,2.64-6,6L480.21,44l.13,3.56c.11,3.13,2.68,6.15,6,6,3.16-.14,6.11-2.64,6-6Z"/><path class="cls-1" d="M223.74,48.54l-.88-25.23-.12-3.56c-.11-3.13-2.68-6.15-6-6-3.16.14-6.12,2.64-6,6L211.61,45l.13,3.56c.11,3.13,2.68,6.15,6,6,3.16-.14,6.11-2.64,6-6Z"/><path class="cls-1" d="M358,48.54l-.88-25.23L357,19.75c-.11-3.13-2.68-6.15-6-6-3.16.14-6.12,2.64-6,6L345.91,45l.13,3.56c.11,3.13,2.68,6.15,6,6,3.16-.14,6.11-2.64,6-6Z"/><path d="M117.54,119.63c-4.44-3.63-8.72-6.58-11.27-11.9s-4.2-10.52-7.88-15.06c-2.64-3.26-5-7.2-9-9-4.82-2.24-9.51-1-14.48-.27-10,1.51-18,5.75-24.57,13.54-3.4,4-5.77,8.52-8.29,13.11-1.88,3.41-4.11,6.18-3.44,10.24.42,2.61,5.23,2,5.28-.61.06-3.25,4-6.79,5.78-9.38a74.56,74.56,0,0,1,8.17-10.22c6.51-6.54,13.45-8.86,22.43-9.76,5.11-.51,6.33,2.28,9.16,5.88,3,3.8,4.67,7.84,6.56,12.23a33.85,33.85,0,0,0,8.81,12.39c-2.58.54-4.94,1.42-6.42,4.24-1.86,3.56-1,8.42-.81,12.29,0,1.25.18,2.51.15,3.76,0-.13-.28,2.44.14,3.07-.93,0-2.63,0-2.8,0a26.11,26.11,0,0,0-4,.94,19.66,19.66,0,0,1-3.4.67,9.69,9.69,0,0,1-1.44-.1,36.77,36.77,0,0,0,.49-5.32c.17-3.77-.17-7.81-3.51-10.18-3.15-2.23-8-2.12-11.75-2.19s-8.35,0-10.81,3.3-1.1,7.12-1.12,10.8c-2.82.83-6.31,1.72-7.2.26-.76-1.24.32-4.72.46-6.09.21-2,.45-4-.39-5.88-1.49-3.39-6-3.64-8.29-.92l-.89,1.07a2.54,2.54,0,0,0,.19,3.8c-.29,5.09-1,11.31,3.19,14.43,5.15,3.84,12.62.87,18.14-.36,1.18-.26,2.82-1.25,3-2.58A23.7,23.7,0,0,0,68,140.1c-.12-1.87-.74-3.73.56-4.4,1.53-.79,8.51-.21,9.24,1.09,1.76,3.14-.85,8.54.12,12,1.16,4.13,5.58,4.67,9.19,4.55,4.09-.14,8.21-1.11,12.22-1.68s6.57-3.55,7.22-7.54-.21-8.41-.39-12.5c-.12-2.65-.43-3.86,2.44-4.16s5.2-.35,8-1.43A3.78,3.78,0,0,0,117.54,119.63Z"/><path d="M47,128.12c-4-6.58-12.24-5.92-18.66-3.73S14,132.48,10,124c-1.12-2.36-1.93-7.33,1.08-8.86,3.21-1.62,7.78,1.77,10.44,3,2.9,1.38,5.82,3.74,8.92,4.54,4.36,1.13,7.32-1.51,11.17-2.79a2.12,2.12,0,0,0,1.7-1.89c0-.38,0-.76,0-1.14,0-2.14-2.9-2.08-3.88-.7-2.12.29-4.45.92-6.27,0s-3.27-2.69-5.16-3.68c-4.18-2.2-8.07-4.68-12.87-5.13-8.71-.82-16.1,4.4-15,13.85C1,128.79,7.07,136,15,136.38c9.71.46,17.66-8.59,27.35-4.34C44.85,133.14,48.83,131.13,47,128.12Z"/><path d="M595.22,124.23c-2,.84-3.32.43-5.32-.51-1.78-.84-3.11-1.24-3.44-3.27-.39-2.42.54-3.68,2.22-5.31s2.3-2.8,4.69-2.14,4.1-2.27,1.85-3.72c-1.75-1.13-3.3-2.25-5.47-2s-3.71,1.6-5.26,2.94c-3.76,3.27-6.34,6.74-5.47,12,.71,4.28,4.42,6.61,8.19,8.16,3.95,1.63,11.26,2.46,12.68-3C600.61,124.54,597.34,123.33,595.22,124.23Z"/><path d="M651.17,108.8c-1-2.68-3.21-3.74-5.66-5-3.42-1.78-5.07-4.33-7.5-7.28-4.26-5.17-9.77-8.77-16.58-9.38-14.69-1.31-22.66,15.3-25.91,27.16a2.7,2.7,0,0,0,2.88,3.21l1.25,0a2.29,2.29,0,0,0,2.41-2.76c2.69-4,5-8.16,7.9-12,3.55-4.75,6.78-9.2,13.32-6.67,5,1.92,7.17,6.74,10.62,10.41s7.4,4.14,11.91,5.91C648,113.15,652.41,112,651.17,108.8Z"/><path d="M696.17,73c-7.35-3.43-16.17-.36-21.53,4.9a43.82,43.82,0,0,0-7.38,9.75c-.16-6.15.12-12.18.42-18.31.4-8-3.88-21-14.4-17.45-4.41,1.49-8.64,5.61-10.83,9.66-2.65,4.89-1.09,9.65-2.23,14.79-1.28,5.74-.73,10.86.64,16.55.79,3.27,2,6.21,3,9.37.82,2.44.87,4,2.8,5.76a3,3,0,0,0,4.89-1.72l.12-.93a1.67,1.67,0,0,0-.69-1.62c-.1-1,0-2.06-.22-3.11-.32-2.09-.94-4.18-1.39-6.25-1-4.79-2.57-9.85-1.6-14.77a41.16,41.16,0,0,0,1.09-9.6c-.07-4.39,1.92-7.5,5.36-10.15,2.24-1.73,1.89-2,3.39.34a10.8,10.8,0,0,1,1.77,5.13c.37,3.65-.25,7.41-.24,11.07,0,4.61.06,9.37.44,14,.35,4.15,2.37,8.31.47,12.29s5.62,5.42,7.39,1.74c3-6.51,5.52-13.47,10.44-18.81,2.16-2.33,5.18-5.86,8.49-6.32a17.76,17.76,0,0,1,4.31.09c1.28.24,1.25-.58.73,1.59-1.61,6.72-4.57,11.16-9.55,15.87-2.2,2.08-3.78,4.47-5.76,6.71s-4.35,3.56-5.66,6.55c-1.92,4.36,6.23,6,8,1.87.73-1.68,3.57-3.32,4.78-4.87a46.15,46.15,0,0,1,4.46-5.3c3.17-3,6.33-5.74,8.3-9.71C698.53,87,703.51,76.45,696.17,73Z"/><path d="M687.8,115.12c-2.16-3.56-6.13-3.87-9.73-5-2.89-.93-5.05,2.86-2.23,4.49,1.85,1.06,7.44,3,3.71,5.27-2.74,1.68-8.11,1-11.28,1.49s-6.43,1.06-9,3.09c-2.39,1.87-3.94,4.57-6.14,6.64-4,3.71,2.55,8.28,6,5.13a35.2,35.2,0,0,0,4.13-5c2.3-2.95,5.14-3.14,8.74-3.52,4.49-.47,9.66-.21,13.55-2.88A7,7,0,0,0,687.8,115.12Z"/><path d="M630.71,135.54a116.36,116.36,0,0,0-23.82-.34c-2,.22-6.84,2.16-9.88,2.49.74-1.65,2.29-3.76,2.6-4.83.87-3-3.76-4.09-5.27-1.89-2,2.94-6.56,5.52-5.67,9.7.85,4,5.36,4.42,8.7,4.14,4.4-.36,8.41-2.08,12.83-2.29,6.83-.33,13.71,1,20.51.48C636.29,142.55,636.21,136.1,630.71,135.54Z"/><path d="M662.85,143.76c-.55-3-3-4.43-4.48-6.72a2.12,2.12,0,0,0-1.62-2.53l-1.1-.33c-1.35-.41-3.37.36-3.76,1.82a5.79,5.79,0,0,0,.37,4.09c-.69-.59-1.37-1.31-2.12-2.06-2.31-2.32-5-4.24-7.23-6.65-3.07-3.4-6.11-5.68-10.5-2.74-2.41,1.61-.43,4.49,1.58,5.1,1.68.51,3.08,3,4.39,4.23,2.42,2.19,4.84,4.3,7.23,6.53,4.08,3.82,8.91,5.36,14.33,3.62C662,147.45,663.26,146,662.85,143.76Z"/></g></g></svg>