<svg xmlns="http://www.w3.org/2000/svg" viewBox="0 0 105.72 101.45"><defs><style>.cls-1{fill:#3688b9;}.cls-2{fill:#fff;}</style></defs><g id="Layer_2" data-name="Layer 2"><g id="Arrows"><path d="M105.72,57.14c.08,23.42-27.53,44.83-56.61,44.3C23.12,101-.36,76.54,0,50.35.41,21.08,20.34-.25,47,0,85.88-1.09,105.6,25.47,105.72,57.14ZM52.9,86.77c18.93-.24,38.92-15.93,36.89-31.65C86.73,31.43,76.54,13.91,50.21,14.34c-19.48.32-35.4,16.22-35.29,35.14C15,71,31.34,87,52.9,86.77Z"/><path class="cls-1" d="M9.36,49.32C9.5,74.07,28.21,92.44,53,92.13,74.7,91.86,97.65,73.85,95.32,55.8,91.81,28.6,80.11,8.49,49.89,9,27.52,9.34,9.25,27.6,9.36,49.32Z"/><path class="cls-2" d="M54.13,69.27c3.76-3.86,8.53-6.82,12.87-10,3.41-2.51,6.84-5,10.27-7.45C73.34,49,69.52,46.13,65.82,43A163.66,163.66,0,0,1,52.76,30.43c-2.08-2.18,2.29-4.68,4.18-3,4.44,4,9.25,7.76,14,11.45s9.6,7.22,14.62,10.51a2.86,2.86,0,0,1,.17,4.43c-4.47,3.37-8.93,6.75-13.42,10.08s-8.89,7.12-13.86,9.71C55.55,75.13,51.33,72.14,54.13,69.27Z"/><path class="cls-2" d="M21.71,48.61c4.64-.87,9.54-.4,14.23-.39H49.12c9.1,0,18.21.1,27.31.57,4.23.21,4.6,7,.28,7.23-9.08.57-18.17.76-27.26.87l-13.17.16c-4.68.06-9.61.66-14.26-.16C18.32,56.25,17.86,49.33,21.71,48.61Z"/></g></g></svg>