<?xml version="1.0" encoding="UTF-8" standalone="no"?>
<svg
   xmlns:dc="http://purl.org/dc/elements/1.1/"
   xmlns:cc="http://creativecommons.org/ns#"
   xmlns:rdf="http://www.w3.org/1999/02/22-rdf-syntax-ns#"
   xmlns:svg="http://www.w3.org/2000/svg"
   xmlns="http://www.w3.org/2000/svg"
   xmlns:sodipodi="http://sodipodi.sourceforge.net/DTD/sodipodi-0.dtd"
   xmlns:inkscape="http://www.inkscape.org/namespaces/inkscape"
   viewBox="0 0 100 100"
   version="1.1"
   id="svg32"
   sodipodi:docname="ColorSquare.svg"
   width="100"
   height="100"
   inkscape:version="1.0.1 (3bc2e813f5, 2020-09-07)">
  <metadata
     id="metadata36">
    <rdf:RDF>
      <cc:Work
         rdf:about="">
        <dc:format>image/svg+xml</dc:format>
        <dc:type
           rdf:resource="http://purl.org/dc/dcmitype/StillImage" />
        <dc:title></dc:title>
      </cc:Work>
    </rdf:RDF>
  </metadata>
  <sodipodi:namedview
     pagecolor="#ffffff"
     bordercolor="#666666"
     borderopacity="1"
     objecttolerance="10"
     gridtolerance="10"
     guidetolerance="10"
     inkscape:pageopacity="0"
     inkscape:pageshadow="2"
     inkscape:window-width="1904"
     inkscape:window-height="1315"
     id="namedview34"
     showgrid="false"
     fit-margin-bottom="0"
     fit-margin-top="0"
     fit-margin-left="0"
     fit-margin-right="0"
     inkscape:zoom="9.5811982"
     inkscape:cx="44.468217"
     inkscape:cy="51.528522"
     inkscape:window-x="3"
     inkscape:window-y="4"
     inkscape:window-maximized="0"
     inkscape:current-layer="svg32" />
  <defs
     id="defs26">
    <style
       id="style24">.cls-1{fill:#ffaf23;}</style>
  </defs>
  <path
     class="cls-1"
     d="m 76.89,87 a 34,34 0 0 0 5.21,-0.56 6.91,6.91 0 0 0 5.86,-5.58 36.94,36.94 0 0 0 0.74,-7.13 c 0.06,-14 0,3.77 0,-10.26 0.15,-25.84 0.43,5.9 0.56,-19.93 0,-4.5 -0.52,-9 -0.55,-13.52 -0.07,-15 0.31,7.57 0.27,-7.47 A 11,11 0 0 0 88.33,19.11 C 86.72,14.12 82.8,13.05 78.5,13 70.65,13 30.34,13 22.92,13 a 35.19,35.19 0 0 0 -5.2,0.57 6.9,6.9 0 0 0 -5.86,5.62 36.07,36.07 0 0 0 -0.74,7.12 c -0.07,14 0,-11 -0.06,3 -0.15,25.85 -0.42,-5.89 -0.56,19.94 0,4.51 0.53,9 0.55,13.53 0.08,15 -0.31,-0.33 -0.27,14.72 a 11.34,11.34 0 0 0 0.66,3.44 c 1.65,4.93 5.58,6 9.88,6 C 29.17,87 69.5,87 76.89,87 Z"
     id="path28" />
</svg>
