<svg xmlns="http://www.w3.org/2000/svg" viewBox="0 0 765.84 773.13"><defs><style>.cls-1{fill:#fff;}</style></defs><g id="Layer_2" data-name="Layer 2"><g id="UI"><path d="M1.6,633.76c0-21.71-.45-43.44.1-65.15,1-38.84,3.88-77.8,1.32-116.49C.56,386,1.11,214.64,0,95.89-.17,75.81,2,51.72.39,31.67-1.34,10.37,8.48-.08,36.6,0c79.49.22,159,2.2,238.47,2.56,60.89.27,121.78,0,182.66,0,58.4,0,115.81-1.82,174.2-2.09C659,.39,687,1.1,714.09.86c11.17-.1,22.39.94,33.52,1.89,9,.78,16.33,8.68,16.7,18.31.8,20.36,1.43,40.74,1.53,61.11.13,29.76-3.24,59.52-3.46,89.28-.51,69.41.2,138.82-.76,208.22-.25,17.67-2,35.32-1.88,53,.2,55.2-.26,110.4.18,165.59.37,46.93,2.09,93.85,1.76,140.77-.1,13.18-4.2,25.19-23,30.27a52.13,52.13,0,0,1-13.11,2c-57.36.13-114.73,0-172.1.18-17.19.07-34.37,1.76-51.55,1.69-98.48-.42-197-1.26-295.43-1.73-53.49-.25-107,0-160.48-.15A113.25,113.25,0,0,1,24.2,769C12.34,766.57,4.8,760.53,2.94,751c-1-5.28-2.13-10.61-2.16-15.92-.2-33.79-.1-67.57-.1-101.36ZM16.83,17.22V756.47h727.5V17.22Z"/><path class="cls-1" d="M16.83,17.22h727.5V756.47H16.83Z"/></g></g></svg>