<svg xmlns="http://www.w3.org/2000/svg" width="259" height="237" fill="none">
  <path fill="#B2BBFF" fill-rule="evenodd" d="M63.57 197.33a48.5 48.5 0 0 1-52.33-67.68 37.49 37.49 0 0 1 11.9-54.85 56.5 56.5 0 0 1 89.1-56.63A48.35 48.35 0 0 1 146.5 4a48.4 48.4 0 0 1 37.71 18h.29a37.51 37.51 0 0 1 35.59 25.64 50.02 50.02 0 0 1 23.68 77.67 35 35 0 0 1-29.81 60.17 35 35 0 0 1-53.84 37.33A68.68 68.68 0 0 1 124 233a68.98 68.98 0 0 1-60.43-35.67Z" clip-rule="evenodd"/>
  <path fill="#fff" d="m63.57 197.33 3.5-1.93-1.37-2.48-2.8.47.67 3.94Zm-52.33-67.68 3.64 1.64.96-2.13-1.38-1.88-3.22 2.37ZM23.13 74.8l1.96 3.49 2.54-1.43-.58-2.86-3.92.8Zm89.1-56.63-2.38 3.21 2.77 2.07 2.44-2.45-2.82-2.83ZM184.22 22l-3.1 2.52 1.2 1.5 1.93-.02-.03-4Zm35.88 25.64-3.8 1.27.63 1.88 1.88.64 1.29-3.79Zm23.68 77.67-3.18-2.43-2.2 2.9 2.66 2.47 2.72-2.94Zm-29.81 60.17.68-3.94-6.06-1.05 1.5 5.96 3.88-.97Zm-53.85 37.33 2.28-3.3-2.15-1.48-2.22 1.37 2.1 3.4ZM55.5 202c2.97 0 5.89-.25 8.73-.72l-1.32-7.9c-2.4.41-4.88.62-7.41.62v8ZM3 149.5c0 29 23.5 52.5 52.5 52.5v-8A44.5 44.5 0 0 1 11 149.5H3ZM7.59 128A52.33 52.33 0 0 0 3 149.5h8c0-6.5 1.39-12.66 3.88-18.21L7.58 128ZM0 107.5c0 9.16 2.97 17.64 8.01 24.51l6.45-4.73A33.33 33.33 0 0 1 8 107.5H0Zm21.17-36.19A41.49 41.49 0 0 0 0 107.5h8a33.49 33.49 0 0 1 17.1-29.21l-3.93-6.98ZM18 63.5c0 4.14.42 8.18 1.21 12.1l7.84-1.6C26.36 70.61 26 67.1 26 63.5h-8ZM78.5 3A60.5 60.5 0 0 0 18 63.5h8C26 34.5 49.5 11 78.5 11V3Zm36.13 11.97A60.25 60.25 0 0 0 78.5 3v8c11.76 0 22.6 3.86 31.35 10.38l4.78-6.41ZM146.5 0a52.35 52.35 0 0 0-37.09 15.34l5.65 5.66A44.35 44.35 0 0 1 146.5 8V0Zm40.82 19.48A52.4 52.4 0 0 0 146.5 0v8a44.4 44.4 0 0 1 34.6 16.52l6.22-5.04ZM184.5 18h-.32l.06 8h.26v-8Zm39.38 28.38A41.52 41.52 0 0 0 184.5 18v8c14.8 0 27.36 9.6 31.8 22.9l7.58-2.52ZM258 95a54.02 54.02 0 0 0-36.63-51.14l-2.57 7.57A46.02 46.02 0 0 1 250 95h8Zm-11.05 32.74A53.78 53.78 0 0 0 258 95h-8c0 10.49-3.5 20.15-9.41 27.88l6.36 4.86Zm-5.9.5A30.9 30.9 0 0 1 251 151h8a38.9 38.9 0 0 0-12.51-28.63l-5.44 5.88ZM251 151a31 31 0 0 1-31 31v8a39 39 0 0 0 39-39h-8Zm-31 31c-1.83 0-3.62-.16-5.36-.46l-1.37 7.88c2.19.38 4.44.58 6.73.58v-8Zm-1 12c0-3.27-.4-6.45-1.16-9.5l-7.77 1.95c.6 2.41.93 4.94.93 7.55h8Zm-39 39a39 39 0 0 0 39-39h-8a31 31 0 0 1-31 31v8Zm-22.16-6.9A38.84 38.84 0 0 0 180 233v-8a30.84 30.84 0 0 1-17.61-5.48l-4.55 6.58ZM124 237c14 0 27.1-3.95 38.21-10.79l-4.2-6.81A64.68 64.68 0 0 1 124 229v8Zm-63.93-37.73A72.98 72.98 0 0 0 124 237v-8a64.98 64.98 0 0 1-56.93-33.6l-7 3.87Z"/>
</svg>