<svg xmlns="http://www.w3.org/2000/svg" width="39" height="19">
  <path fill="#fff" d="M2.13 18.35c-.805 0-1.208-.185-1.208-.554 0-.134.026-.285.076-.452l3.871-15.99c.118-.469.629-.703 1.534-.703h1.634c.922 0 1.441.234 1.559.704l3.871 15.989c.034.234.05.385.05.452 0 .369-.36.553-1.08.553h-1.333c-.804 0-1.249-.176-1.332-.528l-.654-3.067H5.297l-.679 3.067c-.067.352-.46.528-1.182.528H2.13Zm6.56-6.663-1.13-5.33a28.619 28.619 0 0 1-.302-1.91h-.126a28.62 28.62 0 0 1-.302 1.91l-1.106 5.33h2.967ZM15.928 18.299c-.319 0-.553-.075-.704-.226-.15-.168-.226-.428-.226-.78V1.682c0-.336.075-.579.226-.73.15-.167.386-.25.704-.25h4.5c3.52 0 5.28 1.415 5.28 4.248 0 1.877-.755 3.26-2.263 4.148l.025.1a3.56 3.56 0 0 1 2.011 1.458c.486.721.729 1.618.729 2.69 0 1.492-.486 2.69-1.458 3.595-.955.905-2.372 1.358-4.249 1.358h-4.575Zm4.525-10.433c.536 0 .93-.168 1.182-.503.268-.352.402-.897.402-1.634 0-.72-.126-1.232-.377-1.533-.235-.319-.62-.478-1.157-.478h-1.785v4.148h1.735Zm.176 7.391c.62 0 1.073-.176 1.358-.528.301-.352.452-.93.452-1.735 0-.77-.142-1.315-.427-1.634-.285-.335-.746-.502-1.383-.502h-1.91v4.399h1.91ZM34.76 18.5c-2.347 0-4.057-.72-5.13-2.162-1.055-1.458-1.583-3.754-1.583-6.888 0-3.017.553-5.263 1.659-6.738C30.829 1.237 32.556.5 34.885.5c.788 0 1.517.092 2.187.277.52.15.78.51.78 1.08 0 .637-.118 1.207-.353 1.71-.218.503-.494.696-.83.578a5.368 5.368 0 0 0-1.608-.251c-1.006 0-1.76.46-2.263 1.383-.486.921-.729 2.32-.729 4.198 0 1.877.243 3.285.73 4.223.502.922 1.298 1.383 2.388 1.383.318 0 .586-.017.804-.05.218-.05.503-.126.855-.226a.76.76 0 0 1 .226-.026c.335 0 .586.21.754.629.168.419.252.972.252 1.659 0 .251-.05.47-.151.654-.1.167-.294.301-.578.402-.285.1-.662.184-1.132.251-.47.084-.955.126-1.458.126Z"/>
</svg>