<svg xmlns="http://www.w3.org/2000/svg" width="25" height="25" fill="none">
  <path fill="#000" d="M5.962 7.75h2.72c.956 0 1.73.782 1.73 1.75s-.774 1.75-1.73 1.75h-6.92c-.957 0-1.73-.782-1.73-1.75v-7c0-.968.773-1.75 1.73-1.75s1.73.782 1.73 1.75v2.8l.951-.962a12.009 12.009 0 0 1 17.125 0c4.73 4.785 4.73 12.54 0 17.325a12.008 12.008 0 0 1-17.125 0 1.767 1.767 0 0 1 0-2.478 1.718 1.718 0 0 1 2.45 0 8.579 8.579 0 0 0 12.232 0c3.378-3.418 3.378-8.958 0-12.376a8.578 8.578 0 0 0-12.233 0l-.93.941Z"/>
</svg>