<svg xmlns="http://www.w3.org/2000/svg" xmlns:xlink="http://www.w3.org/1999/xlink" viewBox="0 0 450 450">
  <defs>
    <g id="a">
      <path d="M15.95-5.05q-.2-.05-.4-.05-5.3.15-8.1 4.7L5.3.5q-.25 0-.3.2L1.75 3.55H.5q-4.25.25-6.95 3.5-4.5 2.2-6.4 7-5.45 14.15-11.65 27.9-2.8-8.2-6.4-16.05v.1q-.7-1.55-2.05-2.4-4.8-3.45-9.05 0-1.7-1.7-4.2-2.05 0-.05-.1-.05-.6 0-1.3.15-3.3.35-6.6.85h-.1q-1.25.3-2.2 1.15-4.4 4-2.3 9.25-.45.7-.75 1.35v.05q-.6 1.25-.6 2.7.05 4.1 1.9 7.85Q-45 71.3-34.3 99q.5 1.3 1.4 2.3 2.2 2.4 5.45 2.8h.15q4.6.1 8.2-3.6 2.4-.25 4.15-2 1.85-2 2.8-4.45 10.65 3 21.55 4.75 9.5 1.7 19.2-.3 4.45-.95 8.8-2.35 10.9-3.65 17.25-13.3Q61.6 72.2 58.9 59.9q-.4-1.75-1.4-3.15-6.75-9.1-16.6-14.75 2.85-.2 5.65.7h.05q1.05.35 2.15.6h.05q5.25.95 8.15-3.45.25-.45.6-.9 2.7-3.6 2.3-8 2.5-4.1 0-8.35-2.1-3.6-5.9-5.4-1.25-2.1-3.45-3.3-1.1-.7-2.2-1.05h-.1q-13.45-2.75-26.15 1.9.15-.5.4-1.05 1.35-3.5-.75-6.3.7-1.85.85-3.75.35-5.55-4.65-7.95-1-.45-1.95-.75M13.1-.95q0-.05.05-.1Q13.6-2 14.5-2.5q.55-.35 1.2-.5.95-.4 1.9.05.95.4 1.35 1.3 1.2 2.4-.3 4.8-.2.3-.35.75v.05q-.35 1.3-.7 2.5.7.05 1.3.5.85.55 1.05 1.5.3.95-.15 1.9-3.7 7.65-7.3 15.4 1.5-1.9 3.25-3.55l.05-.05q3.45-3.25 7.65-5.05.05-.05.15-.05 2.05-.9 4.25-1.55h.1q6.6-1.85 13.55-2.05h.25q3.95.35 7.65 1.5h.1q.3.15.55.3.9.45 1.3 1.25t.2 1.65q1.1.35 2.15.75h.1v.1q3.25 1.25 4.15 4.65.2.9-.2 1.75-.45.9-1.35 1.3-.3.15-.65.3.35.55.6 1.2 1.5 3.2-1.45 5.05-.05.05-.1.05.1.95-.4 1.85-.5.85-1.5 1.2-.95.35-1.9-.05-5.35-2.25-11.3-1.15h-.1q-3.1.5-5.7 2.3l-.05.05q-.7.45-.7 1.2.9 1.4 2.35 2.2h.05q3.55 2.05 7.05 4.25h.05q2.8 1.75 5.5 3.8l.05.05q3.2 2.25 5.65 5.35 2 2.55 2.45 5.7v.05q1 6.5-1.4 12.6-1.75 4.7-4.9 8.4h-.05q-3.8 4.35-9.15 6.5-.1 0-.15.05-1.55.65-3.25 1.3h-.1q-10.9 4.3-22.75 3.2h-.1q-2.9-.35-5.7-.9H8.7q-4.8-.85-9.6-1.9h-.05L-9.8 87.3q-.85-.2-1.45-.9h-.05q-.6-.7-.6-1.6-.05-.9.35-1.65.1-.7.45-1.3.3-.5.75-.95-.55-.45-.9-.95-.05-.15-.05-.2h-.05l-.2-.5q-2.05 5.6-3.6 11.5-.3 1.1-1.15 1.85-.8.7-1.8.7-.65.05-1.2-.2-.55.6-1.25 1.1h-.05l-.65.45q-.8 1.15-1.95 1.95-.75.55-1.65.55h-.3q-1.1 0-1.85-.65-1.55-1.25-2.25-3.4v-.05q-.55-1.45-1.15-2.95-6.65-16.2-13.6-32.3l-.05-.05Q-47.6 49.6-51.7 41.8v-.05q-1.25-2.2-2.2-4.5v-.05q-1.15-2.7.45-4.8.7-1 2-1.5.15-.05.25-.05-.25-.25-.5-.6-.55-.15-.95-.6-.55-.5-.75-1.2l-.05-.4q-.4-1.05.25-2.15l.25-.5q.35-.55.95-.95.6-.35 1.3-.45h1.1q.8-.05 1.5.4.5-.45 1.2-.75.8-.3 1.65-.15.8.15 1.35.8 1.15 1.2 2.05 2.55l.25-.45q.6-.85 1.7-1.05.75-.15 1.3.05h.1l.35-.45q.6-.8 1.5-1.05.95-.25 1.85.2.9.35 1.3 1.25 1.65 3.2 2.75 6.75.7 2.4 1.55 4.75 2.4 6.15 4.85 12.35l.05.05.8 1.95h.05q2.95-6.6 6.05-13.35v.05q5-11.15 9.25-22.6 0-.05.05-.1.9-2.45 2.35-4.6.4-.55.9-1 .75-.85 1.95-.85.45 0 .8.1.1-.1.15-.25v-.1q.75-2.2 3.1-2.8h.1q2.1-.55 3.5.6 1.7-1.95 3.4-3.95.35-.45.85-.65.45-.3 1.1-.3h.3q.75-.05 1.35.2.05.05.1.05l1.25-2.6M29.2 68.4l.05.2.7-.3-.75.1M6.5 49.45Q5.05 45.6 5.4 41.5q.1-.7.15-1.4-1.95 4.1-3.9 8.3-2.1 4.3-4.05 8.8-1.25 2.7-2.4 5.4 2-.5 4.1.6l.05.05Q4.4 66 10.1 66.95h.05q7.45 1.35 14.9 1.65h.05q1.9.05 3.9-.45h.05q-.5-1.2-1.6-1.8h-.1q-1.05-.65-2.15-1.2-.75-.45-1.05-1.2-.3-.5-.35-1.05-7.4-3-12.4-9.35-1.45-.25-2.75-1.2-.05 0-.05-.1-1.4-1.05-2.1-2.8M.4 61.75l2.25-4.95q1.55 1.8 3.85 2.9.3.15.55.4 2.85 3.1 6.2 5.45Q10 65.05 7 64.3h.05Q3.6 63.35.4 61.75Z"/>
      <path fill="#FFF" d="M13.15-1.05q-.05.05-.05.1l-1.25 2.6q-.05 0-.1-.05-.6-.25-1.35-.2h-.3q-.65 0-1.1.3-.5.2-.85.65-1.7 2-3.4 3.95-1.4-1.15-3.5-.6h-.1q-2.35.6-3.1 2.8v.1q-.05.15-.15.25-.35-.1-.8-.1-1.2 0-1.95.85-.5.45-.9 1-1.45 2.15-2.35 4.6-.05.05-.05.1-4.25 11.45-9.25 22.6v-.05q-3.1 6.75-6.05 13.35h-.05l-.8-1.95-.05-.05Q-26.8 43-29.2 36.85q-.85-2.35-1.55-4.75-1.1-3.55-2.75-6.75-.4-.9-1.3-1.25-.9-.45-1.85-.2-.9.25-1.5 1.05l-.35.45h-.1q-.55-.2-1.3-.05-1.1.2-1.7 1.05l-.25.45q-.9-1.35-2.05-2.55-.55-.65-1.35-.8-.85-.15-1.65.15-.7.3-1.2.75-.7-.45-1.5-.4h-1.1q-.7.1-1.3.45-.6.4-.95.95l-.25.5q-.65 1.1-.25 2.15l.05.4q.2.7.75 1.2.4.45.95.6.25.35.5.6-.1 0-.25.05-1.3.5-2 1.5-1.6 2.1-.45 4.8v.05q.95 2.3 2.2 4.5v.05q4.1 7.8 7.65 15.95l.05.05q6.95 16.1 13.6 32.3.6 1.5 1.15 2.95v.05q.7 2.15 2.25 3.4.75.65 1.85.65h.3q.9 0 1.65-.55 1.15-.8 1.95-1.95l.65-.45h.05q.7-.5 1.25-1.1.55.25 1.2.2 1 0 1.8-.7.85-.75 1.15-1.85 1.55-5.9 3.6-11.5l.2.5h.05q0 .05.05.2.35.5.9.95-.45.45-.75.95-.35.6-.45 1.3-.4.75-.35 1.65 0 .9.6 1.6h.05q.6.7 1.45.9l8.85 2.05h.05q4.8 1.05 9.6 1.9h.05q2.8.55 5.7.9h.1q11.85 1.1 22.75-3.2h.1q1.7-.65 3.25-1.3.05-.05.15-.05 5.35-2.15 9.15-6.5H50q3.15-3.7 4.9-8.4 2.4-6.1 1.4-12.6v-.05q-.45-3.15-2.45-5.7-2.45-3.1-5.65-5.35l-.05-.05q-2.7-2.05-5.5-3.8h-.05q-3.5-2.2-7.05-4.25h-.05q-1.45-.8-2.35-2.2 0-.75.7-1.2l.05-.05q2.6-1.8 5.7-2.3h.1q5.95-1.1 11.3 1.15.95.4 1.9.05 1-.35 1.5-1.2.5-.9.4-1.85.05 0 .1-.05 2.95-1.85 1.45-5.05-.25-.65-.6-1.2.35-.15.65-.3.9-.4 1.35-1.3.4-.85.2-1.75-.9-3.4-4.15-4.65v-.1h-.1q-1.05-.4-2.15-.75.2-.85-.2-1.65-.4-.8-1.3-1.25-.25-.15-.55-.3h-.1q-3.7-1.15-7.65-1.5h-.25q-6.95.2-13.55 2.05h-.1q-2.2.65-4.25 1.55-.1 0-.15.05-4.2 1.8-7.65 5.05l-.05.05Q14 23.85 12.5 25.75q3.6-7.75 7.3-15.4.45-.95.15-1.9-.2-.95-1.05-1.5-.6-.45-1.3-.5.35-1.2.7-2.5V3.9q.15-.45.35-.75 1.5-2.4.3-4.8-.4-.9-1.35-1.3-.95-.45-1.9-.05-.65.15-1.2.5-.9.5-1.35 1.45m3.3.65q.2.2.25.3v.4q0 .6-.2.8-.5.6-1.6 4.75-.2.55-3.25 7.5l-3.5 8.15q1.8-3.45 4.7-7.2 2.45-3.25 4.45-5.15-1.3 3-8.8 18.35-10.4 21-16.95 36.75-6.7 15.7-8.3 22-1.65 6.3-1.6 3.4.05-2.95-1.6-.2-1.6 2.7-2.75 2.7-.3 0-1.05 1.15-.9 1.15-1.2 1.15-.25 0-.4-.05-.1-.15-.2-.2-.45-.3-3.4-7.65Q-39.15 62-44.7 49.8q-1.05-2.3-5.7-11.5-1.75-3.35-1-4.15l.45-.45q.25-.2.5-.2.05 0 1.4 1.5 1.25 1.45 1.35 1.45.2 0 .3-.9 0-.95-.3-2.25-.8-3.45-3.05-5.6l-.1-.4q.1-.35.3-.55.15-.05.55-.05h.5q1.1 1 3.05 2.85-.45-1.5-.4-2.25.05-.6.45-.9.25-.25.5-.25 1.6 1.55 2.75 4.2.15.5.45 1 .65.95 1.85.75l.3-1.1q.35-1.15.35-1.45.05-.2.3-.65.2-.45.5-.85l.75 1.9q.5 1.45 2 1.6l.3-.1q.3-.25.3-.55l.1-.9q0-.1-.2-1.05-.15-1.1-.15-1.9.05-.35.3-.5.45.45 1.25 2.5.2.75 1.1 3.35 1.15 3.65 5.3 14.05 4.4 11.1 4.6 11.5l.1-.45q.25-.45.35-.4 5.4-11.7 8-17.25l1.8-4q3.35-7.65 7.4-18.3 2.05-5.5 3.2-6.05l.45.45q.1.1.1.35 0 .65-.3 1.2-.3.55-.4 1 0 .3.1.45 0 .05.1.05Q-1 14.25-.1 11.05q.4-1.4.8-1.9.55-.9 1.65-.9.6 0 1.2.85.55.75.8.75 1.15 0 3.4-2.85 2.45-2.95 2.5-2.95.3 0 .35.05.15.15.15.4 0 .3-.2.85Q9.95 6.7 9.5 8.2q-.05.3-.05.65-.05.35 0 .45 0 .1.05.15l.1.1q.55-.65 2-2.6.8-1.2 1.45-1.35Q15.1.65 15.5.15q.3-.45.95-.55m32.4 18.1q-.8.2-2.35.3-1.25.15-1.75.15-.7 0-1.4.15-1 .05-1.05.1l-.75.1q8 1.6 10.6 2.65 2.75 1.1 3.05 3.15l-2.65-.65q.65 1.9.6 2.2v.3l-.05.15q0 .1-.35.1-.25 0-.5-.1-.35-.25-.4-.25.3.65 1.35 2.2.9 1.1.8 1.85-.05.7-.55.9-.1.1-.55.1-.45 0-2.35-.5-.2-.2-.7-.15L48.6 31q.2.1 3.45 2.75-.85-.65-3.7-1.2-2.75-.55-5.1-.5-5.8.05-9.5 2.2-3.35 1.9-3.55 4.35-.15.75.8 1.95.85 1.15 1.7 1.7 12 7.5 13.25 8.3 1.2.9 2.85 2.4 2.9 2.3 4.1 5 1.3 3.1.95 7.45-.6 5.15-3.2 10-3.25 5.8-8.5 8.4-5.4 2.65-8.55 3.65-7 2.2-14.65 2.2-1.2 0-2.45-.05-2.75-.15-11.15-1.8-7.8-1.55-14.55-3.2l.6-.2q-.2-.4-.2-.95 0-.85 1.6-.8.85 0 2.05.2.2 0 .7-.2.6-.1.8-.1l.45-.1q-.6-.25-1.25-.85-.85-.7-.9-.7-2.8-1.8-3.25-2.15-.5-.3-.5-.75 0-.15.2-.45.3-.4.75-.5.75-.15 1.05-.5.25-.25.3-.8-2-.3-2.9-1.1l-.45-.55q-.15-.25-.15-.6.1-.25.4-.4.2-.1.3-.1.25 0 1.8.1.6.05 1.95.35 1.25.2 1.4.2.4 0 2.1-.2-.05-.2.25-.45-2.15-.85-3.45-1.5-2.55-1.3-2.5-3.2.05-.65.6-1.1.7-.6 1.7-.55.85-.05 1.4.25 1.5.7 3.8 1.5-.95-.55-1.95-1.35-1.15-.9-1.75-1.55l.15-.2q0-.15.3-.15.6 0 2.75.95 2.95 1.3 5.8 2.45 1.8.7 3.65 1l8.9 1.2q7 .95 11.05.35 4.05-.7 3.5-3.35-.55-2.75-5.3-5 3.9-.45 1.8-1.1-9-2.65-14.5-9.4-.95-1.35-1.1-1.45-.95.1-1.45-.05-3.55-1.05-3.1-9.05.35-6.05 4.8-12.25 4.2-5.8 10.25-9.4 5.2-2.2 11.15-3.2 3.7-.6 7.15-.65.6-.05 3.2.45 3.1.5 4.1 1.05M5.4 41.5q-.35 4.1 1.1 7.95.7 1.75 2.1 2.8 0 .1.05.1 1.3.95 2.75 1.2 5 6.35 12.4 9.35.05.55.35 1.05.3.75 1.05 1.2 1.1.55 2.15 1.2h.1q1.1.6 1.6 1.8H29q-2 .5-3.9.45h-.05q-7.45-.3-14.9-1.65h-.05Q4.4 66-.65 63.25l-.05-.05q-2.1-1.1-4.1-.6 1.15-2.7 2.4-5.4 1.95-4.5 4.05-8.8 1.95-4.2 3.9-8.3-.05.7-.15 1.4m23.85 27.1-.05-.2.75-.1-.7.3Z"/>
      <path fill="red" d="M46.5 18q1.55-.1 2.35-.3-1-.55-4.1-1.05-2.6-.5-3.2-.45-3.45.05-7.15.65-5.95 1-11.15 3.2-6.05 3.6-10.25 9.4-4.45 6.2-4.8 12.25-.45 8 3.1 9.05.5.15 1.45.05.15.1 1.1 1.45 5.5 6.75 14.5 9.4 2.1.65-1.8 1.1 4.75 2.25 5.3 5 .55 2.65-3.5 3.35-4.05.6-11.05-.35l-8.9-1.2q-1.85-.3-3.65-1-2.85-1.15-5.8-2.45-2.15-.95-2.75-.95-.3 0-.3.15l-.15.2q.6.65 1.75 1.55 1 .8 1.95 1.35-2.3-.8-3.8-1.5-.55-.3-1.4-.25-1-.05-1.7.55-.55.45-.6 1.1-.05 1.9 2.5 3.2 1.3.65 3.45 1.5-.3.25-.25.45-1.7.2-2.1.2-.15 0-1.4-.2-1.35-.3-1.95-.35-1.55-.1-1.8-.1-.1 0-.3.1-.3.15-.4.4 0 .35.15.6l.45.55q.9.8 2.9 1.1-.05.55-.3.8-.3.35-1.05.5-.45.1-.75.5-.2.3-.2.45 0 .45.5.75.45.35 3.25 2.15.05 0 .9.7.65.6 1.25.85l-.45.1q-.2 0-.8.1-.5.2-.7.2-1.2-.2-2.05-.2-1.6-.05-1.6.8 0 .55.2.95l-.6.2q6.75 1.65 14.55 3.2 8.4 1.65 11.15 1.8 1.25.05 2.45.05 7.65 0 14.65-2.2 3.15-1 8.55-3.65 5.25-2.6 8.5-8.4 2.6-4.85 3.2-10 .35-4.35-.95-7.45-1.2-2.7-4.1-5-1.65-1.5-2.85-2.4-1.25-.8-13.25-8.3-.85-.55-1.7-1.7-.95-1.2-.8-1.95.2-2.45 3.55-4.35 3.7-2.15 9.5-2.2 2.35-.05 5.1.5 2.85.55 3.7 1.2Q48.8 31.1 48.6 31l1.25-.55q.5-.05.7.15 1.9.5 2.35.5.45 0 .55-.1.5-.2.55-.9.1-.75-.8-1.85-1.05-1.55-1.35-2.2.05 0 .4.25.25.1.5.1.35 0 .35-.1l.05-.15v-.3q.05-.3-.6-2.2l2.65.65q-.3-2.05-3.05-3.15-2.6-1.05-10.6-2.65l.75-.1q.05-.05 1.05-.1.7-.15 1.4-.15.5 0 1.75-.15M16.7-.1q-.05-.1-.25-.3-.65.1-.95.55-.4.5-2.45 5.45-.65.15-1.45 1.35-1.45 1.95-2 2.6l-.1-.1q-.05-.05-.05-.15-.05-.1 0-.45 0-.35.05-.65.45-1.5 1.05-2.85.2-.55.2-.85 0-.25-.15-.4-.05-.05-.35-.05-.05 0-2.5 2.95-2.25 2.85-3.4 2.85-.25 0-.8-.75-.6-.85-1.2-.85-1.1 0-1.65.9-.4.5-.8 1.9-.9 3.2-2.75 3.95-.1 0-.1-.05-.1-.15-.1-.45.1-.45.4-1 .3-.55.3-1.2 0-.25-.1-.35l-.45-.45q-1.15.55-3.2 6.05-4.05 10.65-7.4 18.3l-1.8 4q-2.6 5.55-8 17.25-.1-.05-.35.4l-.1.45q-.2-.4-4.6-11.5-4.15-10.4-5.3-14.05-.9-2.6-1.1-3.35-.8-2.05-1.25-2.5-.25.15-.3.5 0 .8.15 1.9.2.95.2 1.05l-.1.9q0 .3-.3.55l-.3.1q-1.5-.15-2-1.6l-.75-1.9q-.3.4-.5.85-.25.45-.3.65 0 .3-.35 1.45l-.3 1.1q-1.2.2-1.85-.75-.3-.5-.45-1-1.15-2.65-2.75-4.2-.25 0-.5.25-.4.3-.45.9-.05.75.4 2.25-1.95-1.85-3.05-2.85h-.5q-.4 0-.55.05-.2.2-.3.55l.1.4q2.25 2.15 3.05 5.6.3 1.3.3 2.25-.1.9-.3.9-.1 0-1.35-1.45-1.35-1.5-1.4-1.5-.25 0-.5.2l-.45.45q-.75.8 1 4.15 4.65 9.2 5.7 11.5 5.55 12.2 15.75 36.75 2.95 7.35 3.4 7.65.1.05.2.2.15.05.4.05.3 0 1.2-1.15.75-1.15 1.05-1.15 1.15 0 2.75-2.7 1.65-2.75 1.6.2-.05 2.9 1.6-3.4 1.6-6.3 8.3-22Q-1.9 48.5 8.5 27.5 16 12.15 17.3 9.15q-2 1.9-4.45 5.15-2.9 3.75-4.7 7.2l3.5-8.15q3.05-6.95 3.25-7.5Q16 1.7 16.5 1.1q.2-.2.2-.8v-.4Z"/>
    </g>
  </defs>
  <use xlink:href="#a" transform="matrix(2.21964 0 0 2.21964 224 115.1)"/>
</svg>