<svg xmlns="http://www.w3.org/2000/svg" xmlns:xlink="http://www.w3.org/1999/xlink" viewBox="0 0 450 450">
  <defs>
    <g id="a">
      <path d="M165.7 83q-1.45-2-3.45-3.4.25-2.3-1.5-3.95-1.55-1.55-3.55-1.4-.55-.05-1.1.05-17.5 2.7-24.65 3.35-1.95.2-3.85.3l-10.75-.2q-3.35-.35-6.65-.95.7-1.75-.1-3.45-.7-1.65-2.3-2.6-1.45-.85-2.9-.7-.5-.1-1 0-1.85.3-3 2.1-2.7 5.15-3.55 7.4-.35.9-1.05 3.05l-2.2 6.6q-.65-2.55-3.05-5.25-2.8-3.2-6.6-5-3.15-1.55-5.6-1.45-1.05-.05-1.95.15-3 .75-4 4.15-1.05-1.95-2.75-3.1-1.7-1.2-3.55-1.05-.7-.05-1.3.05-2.55-2.7-6.85-2.75h-.6q-2.8 0-7.4 1.35h-.6q-2.45-.15-4.45 1.25t-2.7 3.5q-.15.45-.25.9-.2.4-.35.9-.3.9-.3 1.75-4.3-7.55-11.05-7.35-1.2-.05-2.45.2-4.45.75-9.1 4.55-4.4 3.6-8.05 9.05Q7.5 96.5 5.6 102.4q-.15.3-.2.65-.25.55-.4 1.15-2.05 6.2-1.65 11.4.9 12.4 14.15 14.35 3 .2 6.15-1.1 3.25-1.35 5.3-3.7.05-.05 3.65-1.75 2.55-1.3 3.15-2.8 3.35 6.05 8.85 6.9 5.4.9 11.3-3.45 1.8 5.45 8.2 3.65 3.6-1 9.2-4.7.4-.85.95-1.65l.25-.15q.2-.45.45-.85 1.8-2.4 4.65-4.75 2 7.1 7.55 9.3 5.65 2.2 10.9-2.5 1.05 6.55 7.4 3.85 4.5-1.9 9.1-6.65.75 5.15 5.15 4.75 4.05-.3 6.5-4.65.25-.3.45-.6 2.7-.4 5.1-2.3 1.8-1.4 3.95-4.25 5.75 6.15 13.75 9.25 8.05 3.1 16.7 2.4 1.25.05 4.45.55 3.1.5 4.75.6 5.6.25 7.25-3.1 7 5.75 10.25 4.3 1.35-.6 2-2.3 2-1.7 1.9-6.9-.05-5.25-2.1-12.8-1.8-6.8-4.1-11.8-2.1-7.25-3.4-10.15-2.15-4.8-6.95-7.2-1.7-1.6-3.4-1.45-3-.3-5.85 4.85-1.15 2-2.6 5.6-.55 1.4-.9 2.1-.5-1.75-1.75-3.5m8.8-5q.45-1.1 1.75-1.35.15-.05.25-.05 1.15-.1 1.9.7 4.95 2.75 6.6 6.65.45 1.15 1.35 4.25.9 3.25 1.8 5.55 1.65 4.7 4.55 12.85 1.85 6.35.5 9.7.3 1.05 1.2 3.7.25 2.25-2.45 2.5h-.5q-3-.15-5.6-2.95-1.75-1.9-4.2-6.3-2.35-4.2-3.4-5.25-1-1-2.1-.85-.8.15-1.65 1-1.4.45-3.85.95-2.6.55-3.5.45-.15 0-.25-.05l-.1.05-1.95 1.25q-1.4.9-2.25.75-.3-.05-.5-.25l-.25.3q3.65 1.5 9.55 2.65 6.75 1.35 8.6 1.95 3.9 3.5-.6 4.55-1.85.4-3.8.4-2.3-.05-4.8-.75-1.95-.4-3.95-.35-.35 0-.7.05h-.6q-1.5-.1-3.2-.75-.2 0-.45.1-1.4.2-2.9.2-5.15-.15-10.9-3.3-6.35-3.5-11.35-9.3l-.25.35q-2.65 3.35-4.2 4.85-2.75 2.7-5.65 2.55h-.3q-2.3 3.35-3.5 4.45-1.2 1.05-2.45 1h-.1q-1.4-.15-2-1.5-.7-1.35.15-2.45 1.2-1.65 6.55-9.85 5.35-8.25 7.55-11.8-.8-.5-2.65-.75-1.7-.25-1.95-.5 0 .1-.05.25-1.4 5.25-4.35 9.35-3.95 5-6.55 8.9-2.75 4.15-4.45 5.65-1.7 1.55-5.2 3.05-3.2 2.5-4.55 2.25-2.5-.5 1-10.2 1.55-4.4 4.85-11.9 2.95-6.65 3.15-7.3-1.9-.3-4.1-1.05 0 .05.05.2.35 6.7-2.6 14.25-2.95 7.4-7.4 11.5-3.6 3.25-6.75 3.1-1.15-.1-2.25-.6-4.75-2.15-7.2-12.5-.2.4-.45.75-1.35 2.2-4.35 5-3.25 3.1-4.2 5.5-.3.55-1.9 1.05-2.4.75-2.6.85-1 .85-1.45 1.3-.9.75-1.75.95-1.35.3-2.35.3-2.25-.15-3-1.95-1.15-2.6 1.8-6.95-.9 1.05-1.8 2.05-5.45 5.65-11.55 6.05-.5.05-1 .05-7.05-.2-9.75-9.4-.25.1-.5.3-.9.7-1.55 2.2-1 2.05-1.8 2.65-1.55.55-7.15 4.35-3.75 2.55-6.95 2.4-.35 0-.65-.05-9.85-.95-11.4-10.5-1.35-8.4 3.9-18.9Q16.25 85.9 23.7 81.8q3.1-1.7 6-1.75 4.85-.15 8.95 4.35 2.1 1.6 2.75 4.75.6 2.95-.3 5.85-.85 2.9-2.65 4-.95.55-1.95.5-1.25-.15-2.55-1.15-1-.75-1.45-1.8-.35-.95-.5-1.2-.15-.3-.85-.2-1 .2-3.2 1.25-4.15 1.65-6.85 7.15-2.4 4.9-2.2 9.15h.05q.9.4 8.4-3.35 5.85-2.9 8.35-3.1.35-.05.7.05.3 0 .5.1 3.25-6.65 6.6-10.95 4.05-5.2 10.7-10.4-.6-.8-2.05-.7h-.2q-1.95.4-2.75.35-.6.2-1.15.15-.45-.1-.9-.3-.95-.45-1.45-1.45-1.2-2.35 1.75-3.7 2.55-.3 8.75-1.85.75-.1 1.4-.1 4.3-.1 6.6 2.75.05 0 .05.1.75-.2 1.45-.25 3.8-.15 5.35 4.1.9 2.55 1.65 8 .1.45.15.95 1.5-2.85 2.1-5.7.15-.75.55-3.95.15-1.75.8-2.4.75-.75 2.65-1 .2-.05.4-.05 7.4 1.65 10.5 6.6 2.05 3.25 3.55 11.2l.2 1.05q1.1-2.65 5-14.05 2.8-8.15 4.75-11.25 1.1-1 2-1.15 1.25-.25 2 1.4 1.2 2.65-.4 4.8 3.55.95 7.5 1.5l12.05.4q2.15-.1 4.4-.3 9.05-.8 26-3.4.1-.05.2-.05 1.45-.15 2.3 1.3.8 1.55-.15 2.75 2.35 1 4 3.25t1.95 4.9q.7 6.4-6.1 9.55-.05.05-.1.05 3.2.1 6.3-3.85 1.65-2.1 4.1-5.9.95-1.6 5.1-10.8m1.7 34.85-2.5-.5q1.25-.4 1.9-.7.3.55.6 1.2M44.3 90.25q-.5-1.45-1.05-2.75 1 .85 2.65 1.2-.75.75-1.6 1.55m-12.55 12.1q1.15.8 2.35 1.15-1.9 1.2-5.25 2.6-5.35 2.2-7.05 3 .65-2.45 1.55-4.85.05-.2.2-.45.6-.75 1.5-1.5 2-1.8 4.2-2.65.65 1.45 2.5 2.7Z"/>
      <path fill="#FFF" d="M176.25 76.65q-1.3.25-1.75 1.35-4.15 9.2-5.1 10.8-2.45 3.8-4.1 5.9-3.1 3.95-6.3 3.85.05 0 .1-.05 6.8-3.15 6.1-9.55-.3-2.65-1.95-4.9-1.65-2.25-4-3.25.95-1.2.15-2.75-.85-1.45-2.3-1.3-.1 0-.2.05-16.95 2.6-26 3.4-2.25.2-4.4.3l-12.05-.4q-3.95-.55-7.5-1.5 1.6-2.15.4-4.8-.75-1.65-2-1.4-.9.15-2 1.15-1.95 3.1-4.75 11.25-3.9 11.4-5 14.05l-.2-1.05q-1.5-7.95-3.55-11.2-3.1-4.95-10.5-6.6-.2 0-.4.05-1.9.25-2.65 1-.65.65-.8 2.4-.4 3.2-.55 3.95-.6 2.85-2.1 5.7-.05-.5-.15-.95-.75-5.45-1.65-8-1.55-4.25-5.35-4.1-.7.05-1.45.25 0-.1-.05-.1-2.3-2.85-6.6-2.75-.65 0-1.4.1-6.2 1.55-8.75 1.85-2.95 1.35-1.75 3.7.5 1 1.45 1.45.45.2.9.3.55.05 1.15-.15.8.05 2.75-.35h.2q1.45-.1 2.05.7-6.65 5.2-10.7 10.4-3.35 4.3-6.6 10.95-.2-.1-.5-.1-.35-.1-.7-.05-2.5.2-8.35 3.1-7.5 3.75-8.4 3.35h-.05q-.2-4.25 2.2-9.15 2.7-5.5 6.85-7.15 2.2-1.05 3.2-1.25.7-.1.85.2.15.25.5 1.2.45 1.05 1.45 1.8 1.3 1 2.55 1.15 1 .05 1.95-.5 1.8-1.1 2.65-4 .9-2.9.3-5.85-.65-3.15-2.75-4.75-4.1-4.5-8.95-4.35-2.9.05-6 1.75-7.45 4.1-12.6 14.55-5.25 10.5-3.9 18.9 1.55 9.55 11.4 10.5.3.05.65.05 3.2.15 6.95-2.4 5.6-3.8 7.15-4.35.8-.6 1.8-2.65.65-1.5 1.55-2.2.25-.2.5-.3 2.7 9.2 9.75 9.4.5 0 1-.05 6.1-.4 11.55-6.05.9-1 1.8-2.05-2.95 4.35-1.8 6.95.75 1.8 3 1.95 1 0 2.35-.3.85-.2 1.75-.95.45-.45 1.45-1.3.2-.1 2.6-.85 1.6-.5 1.9-1.05.95-2.4 4.2-5.5 3-2.8 4.35-5 .25-.35.45-.75 2.45 10.35 7.2 12.5 1.1.5 2.25.6 3.15.15 6.75-3.1 4.45-4.1 7.4-11.5 2.95-7.55 2.6-14.25-.05-.15-.05-.2 2.2.75 4.1 1.05-.2.65-3.15 7.3-3.3 7.5-4.85 11.9-3.5 9.7-1 10.2 1.35.25 4.55-2.25 3.5-1.5 5.2-3.05 1.7-1.5 4.45-5.65 2.6-3.9 6.55-8.9 2.95-4.1 4.35-9.35.05-.15.05-.25.25.25 1.95.5 1.85.25 2.65.75-2.2 3.55-7.55 11.8-5.35 8.2-6.55 9.85-.85 1.1-.15 2.45.6 1.35 2 1.5h.1q1.25.05 2.45-1 1.2-1.1 3.5-4.45h.3q2.9.15 5.65-2.55 1.55-1.5 4.2-4.85l.25-.35q5 5.8 11.35 9.3 5.75 3.15 10.9 3.3 1.5 0 2.9-.2.25-.1.45-.1 1.7.65 3.2.75h.6q.35-.05.7-.05 2-.05 3.95.35 2.5.7 4.8.75 1.95 0 3.8-.4 4.5-1.05.6-4.55-1.85-.6-8.6-1.95-5.9-1.15-9.55-2.65l.25-.3q.2.2.5.25.85.15 2.25-.75l1.95-1.25.1-.05q.1.05.25.05.9.1 3.5-.45 2.45-.5 3.85-.95.85-.85 1.65-1 1.1-.15 2.1.85 1.05 1.05 3.4 5.25 2.45 4.4 4.2 6.3 2.6 2.8 5.6 2.95h.5q2.7-.25 2.45-2.5-.9-2.65-1.2-3.7 1.35-3.35-.5-9.7-2.9-8.15-4.55-12.85-.9-2.3-1.8-5.55-.9-3.1-1.35-4.25-1.65-3.9-6.6-6.65-.75-.8-1.9-.7-.1 0-.25.05m.45 2.8q.1-.2.15-.4.75.75 3.95 2.95 2.7 2.25 2.25 4.4l.85.25q-.85.3 2.55 9.25 3.5 8.95 3.35 9.1l-.15-.05q-.1-.1 1.2 4.4 1.35 4.7.5 4.45.35.6.3.75-.05.25-.65.25.05.15 0 1.15-.05.95.1 1.15-.25.15-.4.1-.2-.1-.2-.4h-.1q-.3.1-.2.45.15.4.9 1.2 1.55 1.65 1.1 1.8l-.55-.1q-3.95-.8-8.35-8.3-3.05-5.15-6-13-.15.25-.4.55-.35.45-.95.9l-1.25 1.15q-.95 1.05 2.45 1.5-.6.05-.4.25.15.15.95.1l-.1.45q.35-.2.45.15l-1.7.2q-1.65.1-1.75.4h1.65q-.55 1.25-4.85 1.95l-2.1.25q-.5.1.7.25v.3h-1.65q-1.4 0-2 .15-1.2.3-3.1 1.9-.15-.1-.1-.4.05-.25.25-.55.5-.8.7-.6l.05-.3q-.15-.05-.65.3-.4.3-.55.35-.05.05-.1.05.05-.3-.05-.3-.1-.05-.35.15-.1.05-.15.15-.45.4-.55.4.1 0 .2.1-.8-.05-1.3.95-.6 1.05-1.25 1.1l-1.75 1.15q3.9 2.85 11.05 4.45.15.05 5.7 1.1 3.25.7 5.1 1.3-.85.05-1.8.05l-4.2-.15q-2.1-.2-4.6-.5-7.5-1.1-10.35-1.45v.1q.05.2.75.45.4.1.6.2.15-.05.15.05.15.05.15.1.5-.35.5.05-.55.05-.9.05-.55-.1-.8-.35-.15.1-.45.15H158q-1.4-.1-4.35-1.15-4.55-1.55-4.1-2.25-3.9-1.4-6.9-4.35-2.65-3.1-3.65-4-1.05-.95-2.2-.8-.55.05-1.1.4-1.95 1.2-5.8 6.5-.15-.15.1-.7l.15-.45v-.25q-.3.1-.6.5l-.25.4q-.05.1-.05.2-.2.05-.55-.05-.9 1.15-1.35 1.25 0-.15.3-.65l.85-1.8q1.05-1.95 1.1-2.6-.1-.25-.65.35-1.1 1.05-3.75 4.8-4.25 5.9-4.6 5.05l.35-.45q1.75-2.45 8.3-12.6 7.35-11.45 8.2-13.2l-.8.4q-1.05.45-1.6.6-.55.15-.9.1-.65-.1-.95-.75-3.4-.15-3.95-.65-.6-.5 0-2.5-.35.05-.65.2-1.15.4-1.7 1.2-.45.7-1.15 2.95-1.65 5.7-6.7 12.6-6.15 7.75-9 11.3.15-.6.1-.9 0-.3-.25-.15-.2.2-.3.35l-.6.6q-.4-.2-1.1.65-.75.85-1 .85 0-.2.05-.45.05-.8.5-1.85-.3-.1-1.05 1.3l-.5 1.1q-1.15 2.45-1.9 2.15v-.15q.2-2.5 5.4-14.65 5.6-13.05 5.75-14.35-2.7-.15-4.85-.75-2.15-.6-4.6-1.85-.05.05-.1.2-.1.15-.25.3-.2.25.1.25-.25 4.75-.65 7.4-.45 2.85-1.45 6.5l-.6 1.85q.25-.15.85-1.2.15-.35.35-.75.85-1.8 1.25-1.95-2.65 7.35-5.9 11.95-3.3 4.65-6.4 5.5-.85.2-1.65.15-5.85-.4-8.15-16.3-.3.45-.45.75-.3.35-.3.4-.55.6-1.1.45-1.75 3.85-4.2 6.4-3.05 2.75-4.9 4.7-.75 2-1.05 2.4-.6.8-2.05.7l.75-1.85q-.2.15-1 1.2l-.2.3q-.65.85-.9 1-.15-.45-1.15.5-.55.55-.5-.1 0-.2.1-.5-.2.2-.55.9-.25.35-.55.95-.4.8-.8.3-.05 0-.05-.05 1-1.7-.15-1.1-1.2.65-1.4 1.6-.4.05-.6-.05-1.05-.7 1.6-5.45 3.35-6 3.85-5.4 4.7-9.95 6.85-14.8 3.7-8.55 3.65-12.85.15-.65.55-.8.25-.15.6 0 .6.15 1.45.9.1.1.25.2.05-.05.15-.1.3-.25.8.15l.35.35.6.6v-.7q1.55.2 3.25 1.7 1.05.95 1.25 1.75.1.45 0 .9-.05.2-.2.35l.3-.2.25.2-.7.55q.1.05.55 1.35.2.6.45.85l.05.05q.3.3.55.2 0-.2.15-.45v-.05l-.5-1.45-.1-.35-.45-1.9.3-.05q1.25 3.2 2.35 7.05 1.5 5.45.85 6.1.7.3.95 1.65.3 1.35-.25 1.9.2-.05.5.1.2.15.45.4-.1-.3.4-.55.5-.3.75-.15-.05-.2-.4-.1 2.05-2.2 5.95-13.35Q104 77.6 104.1 77.4q.15-.05.3.05.05 0 .15.05-.1-1 .9-2.55.25.3-.4 2.25-.65 1.9-.25 2.25-.65.2-.55.5.35-.1.5.05.1.2-.05.5 4.3 1.25 8.95 1.95l9.65.6 2.75-.05q1.7-.05 3.45-.2 5.1-.35 13.05-1.45 4.5-.6 14.3-2.05l.55-.1.05.25q-1.6.45-7.35 1.6-.05 0-.1.05.35-.05.75-.05 2.4-.05 4.95.85 3.1 1.05 5.1 3.05 4.9 4.85-.3 10.25-.75.25-5.45 3.05-4.9 2.9-5.1 3 .65 0 1.95-.05 1.45-.05 3.65-.1 1-.05 1.8-.05h3.55q.65-.05 1 0 .45 0 .5.05 6.25-6.15 8.35-9.5 1.25-2 5.95-12.15m-144.6 2.7q1.65-.1 4.8 3.75 3.1 3.75 2.8 5.35l-1.5 4.2q-.95 1.8-1.95 1.5-.45-.15-.95-.7-.25-2.8-2.45-3.35-.65-.15-1.4-.1-1.5.05-3.4.9-2.7 1.15-5.1 3.2-2.45 2.1-3.2 3.95-4.2 8.75-2.95 12.2.65 1.75 2.65 1.85 3.05.2 9.35-3.4.2 0 3.65-1.9 1.5-.8 2.2-1 .8-.35.55.05.55.35.4.6l-.05.05q-.2.1-.75.25l-.25.1q.15.3 1.8-.5.3-.15.6-.25 1.1-.55 1.1-.45-.05.2-1.55 1.1-.95.55-1.3.95-.2.25-.2.4l1.5-.75q.3.4-.75.9-1.05.45-1.15.6v.05l.1.05q.2 0 .6-.1l-.1.15h.05q1.75-.3-1.2 1.8l-1.65 1.15q-1.9 1.35-1.9 1.45.9-.5 1.9-1.1l.5-.3q.55-.25-.7 1.5.35.75-4.05 2.75-4.35 2-3.7 3.15-3.2.8-5.75.75-5.3-.1-7.7-4.1-3.05-5.1-.4-14.4 2.55-8.95 8.45-15.55 5.9-6.6 11.95-6.75h1.1m21.85-.9q-1.05.05-.95.45l.35-.1v.3q-.15-.05-3.65.35-.75.1-1.2.05-.95-.1.2-.85 6.1-1.45 9.35-1.55 2.4 0 3.25.7.5.5 1.35 1.45.7.45 2.2.5.7 0 1.55-.05.1 0 .25-.05 1.2 0 1.75 1.5.35-.25.65.9.3 1.2-.15 1.1.65 1 .4 1.25.65.25.55.7-.05.5-.7.55 1.2 2.95 1.3 4.15.6 4.25-3.15 11.2-3.7 6.85-9.1 11.75-5.9 5.45-10.65 5.3-5.55-.2-7.9-8.2l.2-.05q-.55-.5-.1-.6-.45-7.5 4.8-14.2 3-3.8 12.9-12.2-.55.05-.55-.25.95-.1.85-1.15-1 .1-1.7-.95 1.25-.75 1.25-.9-1.4 0-.6-.5.6-.4 1.05-.3-.5-.25-1.05-.2-.05 0-.15.05-.35 0-1.5.2v-.05q-.05-.35-1.05-.3h-.05m6.6 12.2q-.3-.05-.6.05-2.35.7-7.55 7.45-5.7 7.25-5.05 9.5l.1.3q4.35-2.45 8.3-7.3 4.55-5.45 4.8-10m27.4-2.05q-.05-.05-.05-.1l-.1.05.25 1.05q.15-.1-.1-1m67.65 15.4q-.1-.05-.2 0-2.2-.15-5.15-1.2-3.55-1.5-4.5-1.85l8.2 5.5q.1-.15 1.15-1.2 1-.95 1.1-1.3-.3 0-.6.05m-9.65-13.6q-.05.1-.05.25 5.7-2.05 8.2-4.2-3.3-.55-4.75-.5-.55.05-.8.1-2.1.55-2.6 4.35m-41.1-5.3.05.1.1-.1h-.15Z"/>
      <path fill="red" d="M53 81.7q-.1-.4.95-.45H54q1-.05 1.05.3v.05q1.15-.2 1.5-.2.1-.05.15-.05.55-.05 1.05.2-.45-.1-1.05.3-.8.5.6.5 0 .15-1.25.9.7 1.05 1.7.95.1 1.05-.85 1.15 0 .3.55.25-9.9 8.4-12.9 12.2-5.25 6.7-4.8 14.2-.45.1.1.6l-.2.05q2.35 8 7.9 8.2 4.75.15 10.65-5.3 5.4-4.9 9.1-11.75 3.75-6.95 3.15-11.2-.1-1.2-1.3-4.15.65-.05.7-.55.1-.45-.55-.7.25-.25-.4-1.25.45.1.15-1.1-.3-1.15-.65-.9-.55-1.5-1.75-1.5-.15.05-.25.05-.85.05-1.55.05-1.5-.05-2.2-.5-.85-.95-1.35-1.45-.85-.7-3.25-.7-3.25.1-9.35 1.55-1.15.75-.2.85.45.05 1.2-.05 3.5-.4 3.65-.35v-.3l-.35.1m6.95 11.8q.3-.1.6-.05-.25 4.55-4.8 10-3.95 4.85-8.3 7.3l-.1-.3q-.65-2.25 5.05-9.5 5.2-6.75 7.55-7.45M36.9 85.9q-3.15-3.85-4.8-3.75H31q-6.05.15-11.95 6.75-5.9 6.6-8.45 15.55-2.65 9.3.4 14.4 2.4 4 7.7 4.1 2.55.05 5.75-.75-.65-1.15 3.7-3.15 4.4-2 4.05-2.75 1.25-1.75.7-1.5l-.5.3q-1 .6-1.9 1.1 0-.1 1.9-1.45l1.65-1.15q2.95-2.1 1.2-1.8h-.05l.1-.15q-.4.1-.6.1l-.1-.05v-.05q.1-.15 1.15-.6 1.05-.5.75-.9l-1.5.75q0-.15.2-.4.35-.4 1.3-.95 1.5-.9 1.55-1.1 0-.1-1.1.45-.3.1-.6.25-1.65.8-1.8.5l.25-.1q.55-.15.75-.25l.05-.05q.15-.25-.4-.6.25-.4-.55-.05-.7.2-2.2 1-3.45 1.9-3.65 1.9-6.3 3.6-9.35 3.4-2-.1-2.65-1.85-1.25-3.45 2.95-12.2.75-1.85 3.2-3.95 2.4-2.05 5.1-3.2 1.9-.85 3.4-.9.75-.05 1.4.1 2.2.55 2.45 3.35.5.55.95.7 1 .3 1.95-1.5l1.5-4.2q.3-1.6-2.8-5.35m139.95-6.85q-.05.2-.15.4-4.7 10.15-5.95 12.15-2.1 3.35-8.35 9.5-.05-.05-.5-.05-.35-.05-1 0h-3.55q-.8 0-1.8.05-2.2.05-3.65.1-1.3.05-1.95.05.2-.1 5.1-3 4.7-2.8 5.45-3.05 5.2-5.4.3-10.25-2-2-5.1-3.05-2.55-.9-4.95-.85-.4 0-.75.05.05-.05.1-.05 5.75-1.15 7.35-1.6l-.05-.25-.55.1q-9.8 1.45-14.3 2.05-7.95 1.1-13.05 1.45-1.75.15-3.45.2l-2.75.05-9.65-.6q-4.65-.7-8.95-1.95.15-.3.05-.5-.15-.15-.5-.05-.1-.3.55-.5-.4-.35.25-2.25.65-1.95.4-2.25-1 1.55-.9 2.55-.1-.05-.15-.05-.15-.1-.3-.05-.1.2-4.65 12.95-3.9 11.15-5.95 13.35.35-.1.4.1-.25-.15-.75.15-.5.25-.4.55-.25-.25-.45-.4-.3-.15-.5-.1.55-.55.25-1.9-.25-1.35-.95-1.65.65-.65-.85-6.1-1.1-3.85-2.35-7.05l-.3.05.45 1.9.1.35.5 1.45v.05q-.15.25-.15.45-.25.1-.55-.2l-.05-.05q0 .05.05.1.25.9.1 1l-.25-1.05.1-.05q-.25-.25-.45-.85-.45-1.3-.55-1.35l.7-.55-.25-.2-.3.2q.15-.15.2-.35.1-.45 0-.9-.2-.8-1.25-1.75-1.7-1.5-3.25-1.7v.7l-.6-.6-.35-.35q-.5-.4-.8-.15-.1.05-.15.1-.15-.1-.25-.2-.85-.75-1.45-.9-.35-.15-.6 0-.4.15-.55.8.05 4.3-3.65 12.85-2.15 4.85-6.85 14.8-.5-.6-3.85 5.4-2.65 4.75-1.6 5.45.2.1.6.05.2-.95 1.4-1.6 1.15-.6.15 1.1 0 .05.05.05.4.5.8-.3.3-.6.55-.95.35-.7.55-.9-.1.3-.1.5-.05.65.5.1 1-.95 1.15-.5.25-.15.9-1l.2-.3q.8-1.05 1-1.2l-.75 1.85q1.45.1 2.05-.7.3-.4 1.05-2.4 1.85-1.95 4.9-4.7 2.45-2.55 4.2-6.4.55.15 1.1-.45 0-.05.3-.4.15-.3.45-.75 2.3 15.9 8.15 16.3.8.05 1.65-.15 3.1-.85 6.4-5.5 3.25-4.6 5.9-11.95-.4.15-1.25 1.95-.2.4-.35.75-.6 1.05-.85 1.2l.6-1.85q1-3.65 1.45-6.5.4-2.65.65-7.4-.3 0-.1-.25.15-.15.25-.3.05-.15.1-.2 2.45 1.25 4.6 1.85 2.15.6 4.85.75-.15 1.3-5.75 14.35-5.2 12.15-5.4 14.65v.15q.75.3 1.9-2.15l.5-1.1q.75-1.4 1.05-1.3-.45 1.05-.5 1.85-.05.25-.05.45.25 0 1-.85.7-.85 1.1-.65l.6-.6q.1-.15.3-.35.25-.15.25.15.05.3-.1.9 2.85-3.55 9-11.3 5.05-6.9 6.7-12.6.7-2.25 1.15-2.95.55-.8 1.7-1.2.3-.15.65-.2-.6 2 0 2.5.55.5 3.95.65.3.65.95.75.35.05.9-.1.55-.15 1.6-.6l.8-.4q-.85 1.75-8.2 13.2-6.55 10.15-8.3 12.6l-.35.45q.35.85 4.6-5.05 2.65-3.75 3.75-4.8.55-.6.65-.35-.05.65-1.1 2.6l-.85 1.8q-.3.5-.3.65.45-.1 1.35-1.25.35.1.55.05 0-.1.05-.2l.25-.4q.3-.4.6-.5v.25l-.15.45q-.25.55-.1.7 3.85-5.3 5.8-6.5.55-.35 1.1-.4 1.15-.15 2.2.8 1 .9 3.65 4 3 2.95 6.9 4.35-.45.7 4.1 2.25 2.95 1.05 4.35 1.15h.55q.3-.05.45-.15.25.25.8.35.35 0 .9-.05 0-.4-.5-.05 0-.05-.15-.1 0-.1-.15-.05-.2-.1-.6-.2-.7-.25-.75-.45v-.1q2.85.35 10.35 1.45 2.5.3 4.6.5l4.2.15q.95 0 1.8-.05-1.85-.6-5.1-1.3-5.55-1.05-5.7-1.1-7.15-1.6-11.05-4.45l1.75-1.15q.65-.05 1.25-1.1.5-1 1.3-.95-.1-.1-.2-.1.1 0 .55-.4.05-.1.15-.15.25-.2.35-.15.1 0 .05.3.05 0 .1-.05.15-.05.55-.35.5-.35.65-.3l-.05.3q-.2-.2-.7.6-.2.3-.25.55-.05.3.1.4 1.9-1.6 3.1-1.9.6-.15 2-.15H170v-.3q-1.2-.15-.7-.25l2.1-.25q4.3-.7 4.85-1.95h-1.65q.1-.3 1.75-.4l1.7-.2q-.1-.35-.45-.15l.1-.45q-.8.05-.95-.1-.2-.2.4-.25-3.4-.45-2.45-1.5l1.25-1.15q.6-.45.95-.9.25-.3.4-.55 2.95 7.85 6 13 4.4 7.5 8.35 8.3l.55.1q.45-.15-1.1-1.8-.75-.8-.9-1.2-.1-.35.2-.45h.1q0 .3.2.4.15.05.4-.1-.15-.2-.1-1.15.05-1 0-1.15.6 0 .65-.25.05-.15-.3-.75.85.25-.5-4.45-1.3-4.5-1.2-4.4l.15.05q.15-.15-3.35-9.1-3.4-8.95-2.55-9.25l-.85-.25q.45-2.15-2.25-4.4-3.2-2.2-3.95-2.95M104.9 88l-.05-.1h.15l-.1.1m41 5.45q0-.15.05-.25.5-3.8 2.6-4.35.25-.05.8-.1 1.45-.05 4.75.5-2.5 2.15-8.2 4.2m9.5 13.35q.1-.05.2 0 .3-.05.6-.05-.1.35-1.1 1.3-1.05 1.05-1.15 1.2l-8.2-5.5q.95.35 4.5 1.85 2.95 1.05 5.15 1.2Z"/>
    </g>
  </defs>
  <use xlink:href="#a" transform="matrix(2.21964 0 0 2.21964 3.05 3.05)"/>
</svg>