<svg preserveAspectRatio="none" version="1.1" viewBox="0 0 600 465.5" xmlns="http://www.w3.org/2000/svg">
    <path fill="#fff" d="m483 61.55q-9.599-7.771-12.79-9.214-3.144-1.454-3.187-3.239-20.19-6.781-29.55-9.99-9.309-3.16-12.29-1.688-2.98 1.464-3.916-2.281-0.928-3.74-0.2732-7.435 0.6892-3.696-2.914-10.58-3.599-6.885-14.66-11.36-11.06-4.429-18.71-3.877-25.4-1.598-59.23 5.656-7.376 0.1825-21.13 0.4105-11.43 0.178-23.72-2.19-12.24-2.359-44.89-4.014-15.07-1.272-16.76-1.277-1.637 0.03491-11.38-0.1825-9.708-0.2256-16.16 1.004-6.467 1.281-13.84 6.295-7.325 5.005-8.651 6.888-1.322 1.888-2.641 13.37l-0.9106 11.22q-9.521 1.715-22.9 6.341-13.34 4.679-28.91 23.63-15.52 18.94-27.77 41.51-12.25 22.63-31.37 61.31-19.08 27.14-22.04 52.32-2.955 25.18 0.0455 44.52 3.035 19.39 4.599 32.3 1.613 12.95 2.276 35.17 0.7102 22.22 3.278 36.36 2.559 14.18 3.051 19.11 0.4978 4.932 6.511 10.13 6.057 5.191 6.01 9.351 0.0017 4.212 0.5008 12.27 0.5533 8.058 6.283 11.45 5.766 3.437 22.9 4.744 17.19 1.306 30.51-0.8211 13.36-2.127 20.44-0.5018-2.35 8.301 3.415 11.4 5.646 4.288 43.85 9.169 36.61 4.653 59.14 4.653 33.92 0 52.91 0.9123 19.03 0.8667 33.51 0.8667 32.24 0 72.03-5.93 9.971-1.505 26.13-4.105 12.29-1.87 17.76-1.87 0.4553 0 2.732 0.4562 2.231 0.4106 2.686 0.4106 3.233 0 5.099-1.186 2.413-1.916 4.781-3.376 4.966-5.476 1.867-13.91 5.179 4.162 13.48 3.102 10.2-0.3193 22.9-0.3193 23.22 0 32.69-7.299 7.604-5.839 7.604-18.06 0-1.916 2.595-6.021 1.594-2.463 5.737-8.986 8.332-14.14 8.332-28.97 3e-3 -3.653 1.275-15.83 1.308-12.12 2.231-24.27 0.9707-12.1 4.143-35.53 3.224-23.44 4.917-31.52 1.686-8.031 1.685-16.97 0-17.24-8.969-42.74-9.015-25.55-24.77-52.91-21.53-37.37-33.74-58.71-12.21-21.33-21.81-29.15z"/>
    <path d="m171.1 10.21q-4.242 3.992-5.838 10-1.176 4.412-1.176 11.47l0.9659 7.312q-14.36 3.025-23.81 7.186-11.42 5.042-21.08 13.95-20.37 18.7-45.44 68.24l-18.23 31.81q-10.12 12.86-19.23 38.03-9.533 26.39-9.533 44.16 0 5.841 3.57 28.99 4.326 28.49 4.41 29.08 1.68 13.87 5.04 55.76 3.318 36.05 6.426 40.55 2.856 4.076 6.216 8.152 2.142 2.647 2.688 3.95 0.714 1.597 1.26 5.883 0.378 2.983 1.722 13.99 0.672 4.958 9.617 8.11 11.68 4.076 35.32 4.076 3.696 0 15.08-1.597 11.34-1.639 12.81-1.639l1.722 0.4202q1.722 0.4202 2.142 0.4622-1.092 17.61 62.49 23.53 33.93 3.152 105.1 3.152 69.46 0 96.22-3.362 5.628-0.7144 18.27-3.068 10.5-1.891 21-2.857 9.575-0.8404 16.46-3.278 9.281-3.278 9.281-8.362 0-0.8404-0.462-7.564 0.588 0.1261 1.722 0.5883 0.8399 0.3362 1.302 0.3362 2.1 0 13.52 1.639 11.38 1.639 17.05 1.639 33.01 0 41.58-7.354 2.772-2.395 2.898-5.631-0.378-3.11-0.336-3.824 0.504-5.673 0.588-10.46 0.042-3.95 0.126-4.454 0.21-1.177 1.302-2.269 0.7979-0.7564 3.99-3.698 3.444-3.278 6.93-11.43 3.108-7.228 3.108-9.791 0-38.83 7.181-83.96 3.612-21.35 4.956-30.38 2.226-15.09 2.226-24.25 0-15.67-6.258-35.59-7.559-24.12-22.55-47.69l-18.23-31.81q-16.25-27.52-21.25-36.01-7.769-13.15-11.13-18.11-3.738-5.421-7.769-9.371-1.26-1.261-11.09-9.959-12.18-8.236-32.13-13.95-6.342-1.807-12.6-3.11-5.04-0.9665-5.082-0.9665l-3.108 0.4202q-0.252-0.7144-1.134-8.95-0.756-7.48-3.192-12.4-7.895-15.72-36.37-15.72-17.39 0-35.49 3.152-18.14 3.152-35.19 3.152-7.559 0-12.22-0.1681-6.174-0.2521-14.95-0.9665-51.24-4.412-51.74-4.454-7.601-0.5463-19.7-0.5463-29.52 0-39.94 9.791m1.176 21.56q0-6.723 1.092-10.46 1.47-4.874 5.376-7.816 8.777-6.555 35.78-6.555 9.029 0 40.23 2.479 31.16 2.479 44.77 2.479 26.04 0 43.09-2.479 17.05-2.521 34.94-2.521 21.54 0 30.41 8.95 6.552 6.597 6.552 19.08 0 7.396-7.853 14.67-6.132 5.673-20.54 14.08-18.27 10.25-28.68 16.47-18.56 11.09-32.3 21.81 0.462 0.1681 0.462 0.2942 3.78-2.101 27.93-13.87 19.53-9.539 38.76-21.35 20.96-12.9 23.98-16.68 0.9239-1.177 1.554-3.53 0.7559-2.647 2.436-5.253h3.99q22.13 3.488 37.5 12.23 15.92 9.118 27.89 25.72 4.074 5.715 18.56 29.29 18.48 30.17 27.09 47.44 1.302 2.605 8.567 15.72 6.3 11.35 10.04 19.54 11.8 25.88 11.8 48.32 0 17.56-0.588 20-0.126 0.3782-0.42 0.5883-0.21 0.1261-0.21 1.765 0 4.16-8.315 55.68-2.646 16.01-3.864 37.9-1.302 23.41-2.1 28.99-1.302 9.539-8.609 17.27-13.27 13.95-41.58 13.95-20.75 0-25.74-0.4622-10.16-0.9665-14.7-5-4.872-4.37-6.594-14.96-1.554-9.329-1.554-30.25 0.126-34.96 1.428-65.55 0-0.3782 0.252-1.135 0.252-0.7564 0.252-1.177 0-16.77 2.268-27.9 2.058-10.08 6.636-18.49 3.276-5.925 10.79-15.72 10.33-13.49 14.66-19.75-14.28 9.497-20.03 17.77-2.394 3.446-5.838 10.08-6.552 12.61-7.517 14.41-1.008-4.286-1.26-5.631-0.126-0.7564-0.126-1.765-0.714-8.278-0.714-9.118 0-10.63 6.72-23.91 7.014-11.85 7.559-13.87-0.294-0.2101-0.756-0.2942-0.336-0.042-0.378-0.2521-7.139 9.076-9.491 12.69-2.31 3.95-4.998 8.11 0-4.748-2.058-31.18-2.058-26.43-2.058-27.82 0-0.3782 2.142-7.396 2.142-7.017 2.142-12.52 0-0.7984 0.042-1.093 0.126-0.6723 0.672-2.731 0.21-0.8404 0.8819-5.211 0.714-4.79 0.798-6.513 0.336-5.547 0.672-8.614 0.21-1.807 0.21-3.572 0-2.857-1.47-5.379-0.168 0.042-0.168 0.5463 0 0.2521 0.042 0.5042 0.63 0.8404-0.126 3.404-0.378 1.303-0.9239 2.605 0 3.824-0.126 4.454 0 0.1681-0.672 1.387-2.016 3.656-5.46 21.26-1.596-20.42-2.478-28.87-1.386-13.36-4.494-29.67-1.344 1.639-1.344 4.538 0 4.832 5.628 65.05 1.05 13.19 2.562 35.68 2.394 35.26 2.394 45.59 0 11.01 2.268 19.2 1.092 4.118 2.226 6.093 0 0.084-2.352 15.46-2.352 16.47-2.352 21.77 0 0.9244-1.092 13.57-1.092 15.63-1.092 31.52l0.63 30.59q0 15.72 2.016 24.62 1.302 5.757 4.41 11.47 3.318 6.093 4.41 10.08 2.016 7.396 2.016 20.51 0 2.647-4.242 4.454-2.73 1.135-5.712 1.513-43.05 5.757-61.15 7.522-14.45 1.429-24.4 1.345l-52.62 1.135q-10.08 0.2101-16.21 0.2101-25.91 0-48.8-1.639l-50.4-3.362q-26.08 0.042-42.33-5.127-5.586-1.807-9.029-3.908-2.73-1.681-2.73-2.479 0-5.967 3.696-10.72 1.932-2.521 2.52-3.698 1.134-2.311 1.134-5.295 0-2.941-0.9659-5.505-1.008-2.563-1.008-3.782 0-0.9665 1.68-3.446 2.982-4.412 3.738-5.631 5.376-9.076 5.376-19.16-0.756-7.059-0.756-7.9l0.378-2.815q-2.016-15.72-2.016-18.95 0-13.19-3.234-32.57-3.276-19.41-3.276-21.47 0-14.37 4.326-80.01 2.184-32.86 4.41-64.88 0.21-7.228 3.024-32.65 2.646-24.08 2.646-32.27 0-2.227-0.294-3.236-0.294-0.9665-1.092-1.429-3.612 19.92-4.578 30.84-1.512 21.43-3.99 49.79-10.46-10.51-14.24-22.69-1.428-4.538-2.898-12.4-2.436-13.11-2.856-15.09l-0.462 0.0841q-0.378 1.051-0.378 1.933 0 0.8404-0.252 1.387-0.294 0.5463-0.294 1.555l1.89 15.84q2.31 16.51 10.67 32.27 4.2 7.9 7.895 12.56 0 13.19-3.024 48.03-3.696 42.65-3.822 44.46-0.378-16.98-21.08-42.36-6.552-8.026-15.24-16.98-7.895-7.9-9.155-9.287h-0.294q-0.126 0-0.126 0.5042 0 0.4202 13.4 19.96 12.77 18.66 19.15 27.69 3.528 5.042 6.384 17.35 1.176 5.253 2.898 15.72l-0.8399-1.471q-4.116-5.967-53.59-56.22-13.1-13.28-18.6-24.75-1.89-4.37-2.562-5.547-1.05-1.723-2.772-1.723-0.546 0-0.63 0.2521-0.042 0.1681 0 0.8824 11.59 22.57 28.56 41.47 5.838 6.513 14.28 14.75 4.62 4.538 13.27 12.98 14.53 14.62 20.7 27.1 8.189 16.6 8.189 39.75 0 0.6303 0.7979 8.152-0.504-0.6303-0.714-0.042 1.092 3.025 2.268 16.43 1.092 12.31 1.092 18.07 0 7.059 0.126 17.77-0.336 7.816-3.066 11.6-3.192 4.454-11.3 6.345-8.273 1.891-24.65 1.891-21.54 0-37.8-5.042-9.953-3.11-16.08-7.396-5.796-4.076-7.853-20.72-1.638-22.61-3.066-36.14-4.074-39.12-9.281-72.23-3.318-21.01-3.318-32.69 0-26.22 11.13-49.54 2.772-5.799 9.155-16.93 5.46-9.455 7.349-14.29 3.612-9.118 8.021-16.68 11.34-18.7 26.21-43.66 9.323-15.59 16.08-24.54 7.307-9.665 14.7-15.59 7.223-5.799 16.88-9.959 8.231-3.53 22.64-7.648 0.504 10.93 35.99 29.71 27.42 14.46 50.19 22.06-1.218-3.866-14.19-10.13-17.64-7.858-27.42-12.73-17.55-8.782-26.67-17.14-11.97-11.01-11.97-23.24m-45.86 385.2q1.974 0 4.074-0.2521 2.1-0.2942 2.982-0.2942 0.8399 0 3.654 0.3362 2.94 0.084 5.376-0.9665l0.378 1.849q1.806 5.925-3.906 11.64-1.218 1.219-4.2 3.614-1.974 1.597-1.974 2.101-5.67 0.2521-13.48 0.5042-6.888 0.2521-7.727 0.2521-9.451-1.7e-4 -20.96-1.093-11.46-1.051-20.96-5.337-5.964-1.765-7.139-10.13-0.336-2.563-0.252-5.925 0.168-2.941 0.126-3.362 18.31 5.799 22.68 6.681 8.231 1.639 24.48 1.639 5.67 0 16.84-1.261m411.1-7.059q-0.042 0.3782 0.126 3.32 0.084 3.362-0.294 5.967-1.176 8.488-6.93 10.13-7.014 2.059-20.58 4.16-14.53 2.227-22.64 2.227-14.95 0-18.98-1.261-7.685-2.437-7.685-11.68 0-1.597-0.672-6.513 0.336 0.084 3.234 1.008 0.9239 0.2941 2.73 0.2941 1.26 0 3.78 0.2521 2.52 0.2101 5.124 0.2101 0.8399 0 3.654-0.4202 8.777 0.6303 12.81 0.6303l12.85-0.3362q8.063-0.1261 19.49-3.152 9.617-2.563 13.99-4.832m-311.7-393.9q1.302 0.2941 1.722 0.2941 11.89 0 18.44 1.135 3.276 0.5883 4.746 1.135 1.008 0 2.184-0.2101 1.638-0.3362 2.058-0.9665l-0.336-0.9245q-7.601-2.269-20.2-3.404-14.24-0.9245-20.24-1.345-10.12 0.2521-14.61 6.261-2.856 3.824-2.856 8.656 0 3.74 5.754 11.09 7.559 9.665 22.17 20.72 7.769 5.925 32.17 22.23 30.99 20.67 35.4 20.67 6.468 0 31.33-16.47 20.28-13.4 31.54-22.69 20.12-16.6 26.92-24.46 5.754-6.681 5.754-11.98 0-4.454-3.906-8.782-5.04-5.547-13.61-5.547-10.5-0.3782-20.12 0.2101-18.98 1.093-20.66 5.757 0.336 0.08404 1.806 0.7143 1.092 0.4202 1.806 0.4202 0.8399 0 5.544-1.219 6.552-1.219 16.88-1.219 0.84 0 4.872-0.4202 8.231 0 13.78 1.681 7.014 2.101 7.014 6.303 0 3.404-8.189 14.2-8.105 10.67-10.71 10.34-2.605-0.2861-8.315-0.8404-4.914-0.6723-7.601-1.261-10.79-2.479-34.27-2.479l-33.26-0.5883-12.01 0.2941q-38.81 2.857-39.65 2.857-4.116 0-5.88-0.8824-2.352-1.219-9.743-7.438-5.754-4.874-7.517-9.413-0.714-1.807-0.714-4.202 0-3.194 4.032-5.505 5.46-3.068 16.71-3.068 0.42 0 1.764 0.3362m98.82 60.13q-28.39 16.39-32.42 19.25-15.58-8.782-31.46-18.45-31.62-19.25-38.81-28.36 4.62 0 7.014-0.5042 1.428-0.3362 5.124-0.5042 8.976-0.4941 25.74-1.429 16.76-0.8859 58 1.429 42.17 2.395 43.13 2.395-8.063 9.118-36.33 26.18z"/>
    <path d="m292.8 95.5q4.032-2.857 32.42-19.25 28.26-17.06 36.33-26.18-0.9659 0-43.13-2.395-41.24-2.315-58-1.429-16.77 0.9346-25.74 1.429-3.696 0.1681-5.124 0.5042-2.394 0.5042-7.014 0.5042 7.181 9.118 38.81 28.36 15.87 9.665 31.46 18.45z" fill-opacity=".5"/>
</svg>