<svg xmlns="http://www.w3.org/2000/svg" width="34" height="21">
  <path fill="#fff" d="m10.88 18.744.104 1.415-.105.105h-.577l-1.389-.21-.34.053-.551-.577.052-.996-.21-.131v-.21l.132-.13-.472-.76.131-.394-.839.21-.655-.053-1.94.079-.262-.34-.288.76-.42 1.703-.105.918-2.595-.236.997-8.257L2.7 5.585l.262-.812V3.672l.183-.21v-.76l.263-.498.157-1.206 3.643.157.105.996.21.682.262.524.131.105v1.075l.315.524-.053.577.184-.027.55 2.7.236.315.34 2.018.342 1.258-.079.21.524 1.966.158.944.052.917.262.498v.131l-.131.21.105.288.157 1.678ZM7.077 13.79 5.846 5.9h-.314l-.682 6.212h.236v.157l-.42.918-.235.839.55-.105 2.097-.131ZM22.39 12.82l.131.13-.21 1.443.158 3.695-.131.787.105 1.625-.394-.131-.524.052-.367-.157h-1.337v.079h-1.258l-1.232-.131-.078.157h-3.041l-.813-.157-.078-.079-.131.131h-.184l-.21-2.621-.21-4.273v-2.935l.184-2.727V5.69l-.157-.157V.815h7.392l.446.235v3.854l.262.367-.027.314-.21.603.132.131-.079 1.232.21.131-.105.289v1.205h1.809l-.21.787.21.498v2.123l-.053.236Zm-2.647 2.752V14.34l-.236-.813v-1.65l-.813.366H15.55l.078 1.049-.157.419.105.236.131.079-.079.865-.104.393-.053-.027.21.289-.105 1.546.052.394 2.307-.158h1.73v-1.415l-.079-.236.158-.105Zm-1.835-6.265V3.83h-2.569l.079 1.573-.105.21.157.052v.13l-.157.237.13.445v2.831h2.465ZM33.782 11.876v7.838l-.184.183-2.332-.21h-5.688l-1.101.053-.158-1.127-.21-2.57v-2.2l-.104-.525.13-1.363-.157-.472V8.967l.263-.892V5.507l-.315-.367.184-.158V.58h8.623L33.205.5l.472.446-.157.602v7.156l-.682-.104-.471-.236-.236.026L32 8.18l-.472.131h-.289l-.55-.157V4.825l.105-.446V3.2h-4.09v1.39l.368 3.827-.158.367v5.845l-.13.131.209.21-.157.446v.445l.157.08-.079 1.048.865.13h3.355v-4.56l2.648-.682Z"/>
</svg>
