<svg xmlns="http://www.w3.org/2000/svg" width="42.48" height="18.18">
  <path fill="#fff" d="M41.88 8.46v.1q0 .78-.45 1.16-.45.38-1.02.38a1.48 1.48 0 0 1-.72-.2 1.9 1.9 0 0 1-.17-.1q-.43-.3-.55-.95a2.3 2.3 0 0 1 0 0q-.17-.83-.58-1.38a2.49 2.49 0 0 0-.05-.06 1.57 1.57 0 0 0-1.07-.58 2.16 2.16 0 0 0-.16-.01q-.48-.03-.89.09a2.31 2.31 0 0 0-.57.24 3.34 3.34 0 0 0-1.06 1 4.33 4.33 0 0 0-.55 1.15 5.05 5.05 0 0 0-.08.27 6.5 6.5 0 0 0-.2 1.62 5.45 5.45 0 0 0 .19 1.47q.2.7.58 1.24a2.95 2.95 0 0 0 .96.87 2.54 2.54 0 0 0 .9.3 3.29 3.29 0 0 0 .47.03 2.63 2.63 0 0 0 .73-.1 3 3 0 0 0 .1-.04q.42-.14.78-.43a2.63 2.63 0 0 0 .41-.42 3.4 3.4 0 0 0 .24-.34 3.8 3.8 0 0 0 .27-.55 5.14 5.14 0 0 0 .19-.56q.1-.65.52-.97a1.6 1.6 0 0 1 .55-.27 1.5 1.5 0 0 1 .39-.05 1.45 1.45 0 0 1 1 .4 1.86 1.86 0 0 1 0 0 1.25 1.25 0 0 1 .35.54q.06.2.09.45a2.74 2.74 0 0 1 0 .23 8.38 8.38 0 0 1-.34 1.19 6.42 6.42 0 0 1-.48 1.02 6.13 6.13 0 0 1-.73 1 5.12 5.12 0 0 1-.58.54 5.35 5.35 0 0 1-1.64.9q-.9.3-1.81.33-.81.02-1.52-.13a5.05 5.05 0 0 1-1.17-.4q-1.16-.57-1.93-1.53a6.67 6.67 0 0 1-1.1-2.05 7.62 7.62 0 0 1-.06-.18 8.26 8.26 0 0 1-.37-2.46 8.6 8.6 0 0 1 0-.13q.02-1.34.44-2.63.42-1.3 1.23-2.3.8-1.02 2-1.64a5.51 5.51 0 0 1 1.88-.56 6.91 6.91 0 0 1 .83-.05 5.1 5.1 0 0 1 1.71.4 4.9 4.9 0 0 1 1.45.96 5.32 5.32 0 0 1 1.05 1.42 5.16 5.16 0 0 1 .53 1.7 5.81 5.81 0 0 1 .01.07ZM.12 16.03 5.71 1.4A2.3 2.3 0 0 1 5.9.9a1.64 1.64 0 0 1 .5-.54Q6.9.04 7.46.04q.55 0 1.03.32a2.08 2.08 0 0 1 .62.67 2.61 2.61 0 0 1 .13.24l6.1 14.67a1.71 1.71 0 0 1 .09.29q.03.14.03.28a1.19 1.19 0 0 1-.03.24 1.61 1.61 0 0 1-.17.48 1.48 1.48 0 0 1-.13.18q-.22.29-.56.45a1.53 1.53 0 0 1-.57.16 1.47 1.47 0 0 1-.1 0q-.42 0-.78-.2a1.43 1.43 0 0 1-.45-.44 1.84 1.84 0 0 1-.13-.21l-.85-2.03a385.27 385.27 0 0 1-.41-.99 496.88 496.88 0 0 1-.46-1.06H4.55a680.89 680.89 0 0 1-.81 2.06q-.42 1.02-.8 2.04a1.62 1.62 0 0 1-.21.35 1.26 1.26 0 0 1-.35.31q-.36.22-.77.22-.36 0-.7-.16-.34-.16-.57-.43a1.42 1.42 0 0 1-.32-.64 1.65 1.65 0 0 1 0 0q-.05-.27.02-.57a1.77 1.77 0 0 1 .08-.23Zm16.93.9V1.4a1.72 1.72 0 0 1 .09-.44 1.2 1.2 0 0 1 .41-.6 1.75 1.75 0 0 1 .49-.26 1.5 1.5 0 0 1 .5-.09 1.56 1.56 0 0 1 .92.3 1.95 1.95 0 0 1 .06.04 1.1 1.1 0 0 1 .4.64 1.75 1.75 0 0 1 .04.4v3.39a5.1 5.1 0 0 1 1.4-.57A6.89 6.89 0 0 1 22.8 4a7.38 7.38 0 0 1 .18 0q.76 0 1.43.16a4.96 4.96 0 0 1 1.17.44 6.04 6.04 0 0 1 2 1.68 7.3 7.3 0 0 1 1.17 2.26 8.27 8.27 0 0 1 .03.12q.4 1.34.4 2.7 0 1.32-.4 2.55a6.54 6.54 0 0 1-.99 1.93 6.2 6.2 0 0 1-.19.23q-.78.94-1.92 1.5-1.07.52-2.45.52a7.54 7.54 0 0 1-.2 0 5.18 5.18 0 0 1-1.23-.19 6.02 6.02 0 0 1-.32-.1 5.8 5.8 0 0 1-1.42-.7 6.47 6.47 0 0 1-.1-.07 1.3 1.3 0 0 1-.08.39 1.02 1.02 0 0 1-.37.47 1.59 1.59 0 0 1-.93.3q-.27 0-.55-.09a1.57 1.57 0 0 1-.4-.17 1.45 1.45 0 0 1-.09-.06 1.26 1.26 0 0 1-.35-.39 1 1 0 0 1-.12-.37 1.28 1.28 0 0 1-.02-.18ZM19.96 9v3.71a4.13 4.13 0 0 0 .61 1.03 4.73 4.73 0 0 0 .54.57 4.13 4.13 0 0 0 .26.21 4.3 4.3 0 0 0 .48.32 3.46 3.46 0 0 0 .38.18 2.49 2.49 0 0 0 .42.13 1.9 1.9 0 0 0 .4.04 3.2 3.2 0 0 0 .71-.07 2.5 2.5 0 0 0 .66-.25 2.95 2.95 0 0 0 .97-.86 3.72 3.72 0 0 0 .5-.96 4.38 4.38 0 0 0 .1-.28 5.38 5.38 0 0 0 .19-1.44 6.34 6.34 0 0 0-.22-1.63 5.01 5.01 0 0 0-.36-.96 4.3 4.3 0 0 0-.27-.48 3.21 3.21 0 0 0-1.06-1q-.63-.37-1.45-.33-.82.04-1.59.53a3.03 3.03 0 0 0-.72.67q-.3.37-.55.87ZM7.54 4.88l-1.83 5.16h3.83q-.28-.64-.5-1.22-.2-.58-.43-1.18a448.3 448.3 0 0 1-.35-.94 513.9 513.9 0 0 1-.12-.33 25.47 25.47 0 0 0-.25-.66l-.35-.83Z" />
</svg>