<svg xmlns="http://www.w3.org/2000/svg" width="40.8" height="22.68">
  <path fill="#fff" fill-rule="evenodd" d="M3.69 22.28a5.76 5.76 0 0 0 2.17.4 5.12 5.12 0 0 0 4.07-1.9q.63-.73 1.13-1.76a10.8 10.8 0 0 0 .03-.06 7.13 7.13 0 0 0 .03.19q.11.64.33 1.17a3.92 3.92 0 0 0 .94 1.39 3.44 3.44 0 0 0 1.5.82 4.72 4.72 0 0 0 1.2.15q1.64 0 2.77-.74a7.54 7.54 0 0 0 .48-.35q.47-.37.95-.85a14.57 14.57 0 0 0 .39-.41 6.54 6.54 0 0 0 .27.5 3.57 3.57 0 0 0 2.09 1.66 4.97 4.97 0 0 0 1.43.19 3.97 3.97 0 0 0 1.75-.4 4.94 4.94 0 0 0 1.2-.82 5.74 5.74 0 0 0 1.14-1.47 7 7 0 0 0 .67-1.75 12.55 12.55 0 0 0 1.05-.09 10.3 10.3 0 0 0 .36-.05 6.34 6.34 0 0 0 .08.77 4.49 4.49 0 0 0 1.23 2.48 4.09 4.09 0 0 0 .34.3q.76.63 1.83.87a6.67 6.67 0 0 0 1.49.16 6.2 6.2 0 0 0 1.59-.21 8.15 8.15 0 0 0 1.45-.55q1.57-.75 2.7-2.14a1.9 1.9 0 0 0 .01-.03q.44-.57.44-1.46a2.42 2.42 0 0 0-.01-.23l-.05-.29a1.05 1.05 0 0 0-.12-.27.76.76 0 0 0-.07-.1.53.53 0 0 0-.42-.2.75.75 0 0 0-.45.16 1.14 1.14 0 0 0-.2.18 12.55 12.55 0 0 1-.24.28q-.47.53-.94.94a7 7 0 0 1-1.06.76q-.6.36-1.17.52a3.4 3.4 0 0 1-.96.14q-2.42 0-2.42-2.78 0-1 .29-1.85a5.13 5.13 0 0 1 .05-.15q.28-.73.71-1.18.48-.5 1.04-.5.1 0 .19.03a.5.5 0 0 1 .25.15.5.5 0 0 1 .07.1q.05.08.07.19a1 1 0 0 1 .02.19 1.85 1.85 0 0 1-.04.33 2.5 2.5 0 0 1-.08.34 3.63 3.63 0 0 0 0 0l-.07.31a2.54 2.54 0 0 0-.02.06l-.02.17a1.42 1.42 0 0 0-.01.15q0 .39.27.6a.89.89 0 0 0 .1.07q.15.09.33.12a1.56 1.56 0 0 0 .3.03 1.24 1.24 0 0 0 .85-.32 1.76 1.76 0 0 0 .32-.38 2.74 2.74 0 0 0 .36-.9 3.8 3.8 0 0 0 .08-.8q0-1.22-.73-2a2.38 2.38 0 0 0-1.21-.7 3.59 3.59 0 0 0-.84-.08q-1.34 0-2.57.79a5.35 5.35 0 0 0-1.06.9 6.49 6.49 0 0 0-.93 1.35 6.46 6.46 0 0 0-.45 1.09 15.7 15.7 0 0 1-.64.1 10.34 10.34 0 0 1-.9.11q-.2-1.78-1.2-2.99a3.69 3.69 0 0 0-1.06-.88 3.77 3.77 0 0 0-1.56-.45 22.12 22.12 0 0 0 .45-.58q.66-.87 1.15-1.7a12.2 12.2 0 0 0 .87-1.8 12.25 12.25 0 0 0 .05-.12 10.84 10.84 0 0 0 .7-3.8q0-1.5-.68-2.45Q26.47 0 25.38 0q-2.04 0-3.52 2.56-.8 1.4-1.4 3.11a25.55 25.55 0 0 0-.84 3.08 38.06 38.06 0 0 0-.54 3.18 28.9 28.9 0 0 0-.23 3.55 21.93 21.93 0 0 0 0 .14q0 1.04.11 1.94a10.87 10.87 0 0 0 .05.33 23.89 23.89 0 0 1-.04.05q-.54.6-.97 1a5.72 5.72 0 0 1-.44.37 3 3 0 0 1-.3.2 2.32 2.32 0 0 1-1.17.31 1.88 1.88 0 0 1-.26-.01 1.25 1.25 0 0 1-.92-.57 1.57 1.57 0 0 1-.1-.18q-.28-.6-.28-1.7t.3-2.97a51.4 51.4 0 0 1 .22-1.32q.51-2.82 1.14-5.15a3.15 3.15 0 0 0 .04-.17l.02-.16a1.33 1.33 0 0 0 0-.15 1 1 0 0 0-.14-.56q-.26-.4-.98-.5a3.94 3.94 0 0 0-.57-.04q-.73 0-1.16.24a.96.96 0 0 0-.26.21q-.12.14-.2.34a2.01 2.01 0 0 0-.11.36 110.75 110.75 0 0 1-.09.42q-.84 4.3-1.71 6.87-.62 1.81-1.32 2.95a6.21 6.21 0 0 1-.7.94 4.56 4.56 0 0 1-.32.32 3.29 3.29 0 0 1-2.25.88 2.42 2.42 0 0 1-1.41-.42 2.87 2.87 0 0 1-.69-.7q-.55-.76-.72-1.96a8.36 8.36 0 0 1-.08-1.19 14.8 14.8 0 0 1 0-.26 12.89 12.89 0 0 1 1.06-4.97q1.05-2.43 3.19-3.9a8.04 8.04 0 0 1 2.69-1.2 10.5 10.5 0 0 1 2.5-.28 14.15 14.15 0 0 1 .48.01 12.3 12.3 0 0 1 1.38.12 19.25 19.25 0 0 1 .6.1l.65.13a38.76 38.76 0 0 1 .89.2.52.52 0 0 0 .03 0q.1.02.26.02a1.29 1.29 0 0 0 .73-.23 1.76 1.76 0 0 0 .36-.32q.47-.56.47-1.18a1.39 1.39 0 0 0-.03-.3q-.12-.5-.64-.66a11.32 11.32 0 0 0-.95-.26 14.35 14.35 0 0 0-1.35-.24 20.46 20.46 0 0 0-.93-.1 16.55 16.55 0 0 0-1.43-.07 16.73 16.73 0 0 0-2.91.24A12.4 12.4 0 0 0 6.17 4.1q-3.05 1.89-4.6 5Q0 12.18 0 15.83a9.81 9.81 0 0 0 .15 1.74 7.15 7.15 0 0 0 .62 1.92 6.75 6.75 0 0 0 .3.55 5.44 5.44 0 0 0 1.8 1.81 5.47 5.47 0 0 0 .82.42Zm21.13-19.9q-.48 0-1.05 1.42-.54 1.37-1 3.67a43.5 43.5 0 0 0-.04.21 44.04 44.04 0 0 0-.46 2.9 55.58 55.58 0 0 0-.26 2.45 80.93 80.93 0 0 0 1.1-2.08q.52-1.03.95-1.96a41.77 41.77 0 0 0 .48-1.08 14.17 14.17 0 0 0 .57-1.58q.38-1.28.38-2.37 0-.71-.16-1.11a1.37 1.37 0 0 0-.02-.07 1.07 1.07 0 0 0-.1-.17q-.06-.1-.14-.15a.42.42 0 0 0-.25-.08Zm-.6 11.37h-.07a1.8 1.8 0 0 0-1.32.57 2.83 2.83 0 0 0-.33.4 3.52 3.52 0 0 0-.47 1.06q-.13.47-.17 1.02a7.3 7.3 0 0 0-.02.53q0 1.37.52 2.09a2.18 2.18 0 0 0 .33.37q.26.23.55.3a1.26 1.26 0 0 0 .33.05 1.67 1.67 0 0 0 1.1-.41 2.36 2.36 0 0 0 .22-.22 2.58 2.58 0 0 0 .44-.68q.15-.31.24-.7a5.41 5.41 0 0 0 .09-.42q-.75-.5-1.14-1.32-.4-.81-.4-1.73 0-.33.1-.9Z" />
</svg>