<svg preserveAspectRatio="none" version="1.1" viewBox="0 0 600 465.5" xmlns="http://www.w3.org/2000/svg">
    <path fill="#fff" d="m459.9 8.897-15.02-2.287q0.4117-0.2108-35.8-3.083-36.2-2.819-48.53 3.729-12.29 6.537-46.34 8.502-33.99 1.973-58.42-5.867-24.43-7.848-30.78-7.707-6.285 0.186-41.96 3.381-35.68 3.197-44.15 4.674l-7.607 1.79q-47.26 22.04-129.2 112.7 51.08 58.18 103.9 83.98l28.74-48.68-19.49 287.4q192.4 30.67 370.5 1.144l-19.84-290.2 27.89 49.77q63.77-30.32 102.3-86.71-95.78-107-136.2-112.6z"/>
    <path d="m233.7 0.9697-9.189-0.9697c-31.49 1.847-54.74 3.833-69.73 5.957-15.73 2.186-28.04 5.28-36.94 9.282-7.296 3.263-15.27 8.697-23.92 16.3-11.33 10.53-21.46 19.5-30.38 26.92-1.355 1.139-3.417 3.017-6.188 5.634-4.033 3.786-7.019 6.85-8.958 9.189-6.711 6.711-13.47 13.51-20.27 20.41-13.48 13.7-22.86 23.98-28.12 30.85 1.632 1.754 3.017 3.539 4.156 5.356 1.17 1.939 2.663 3.909 4.479 5.911 6.557 7.296 23.7 23.23 51.44 47.79 2.463 2.186 7.419 5.848 14.87 10.99 8.004 5.51 14.61 9.727 19.81 12.65 0.3076 0.185 1.54 0.477 3.694 0.877 2.186 0.432 3.971 1.016 5.356 1.755 0.308 0.185 0.662 0.4 1.062 0.647 0.339 0.184 0.693 0.277 1.062 0.277 1.97 0 6.158-5.557 12.56-16.67 5.48-9.451 10.08-18.33 13.81-26.64-6.218 70.71-10.48 121.4-12.79 152.1-3.601 48.33-6.065 92-7.388 131 5.572 1.324 8.358 1.801 8.358 1.432 44.08 6.095 67.31 9.281 69.68 9.558 10.47 1.231 24.2 2.078 41.19 2.54 8.435 0.215 21.44 0.585 39.02 1.108 16.22 0.4 31.52 0.601 45.9 0.601 28.04 0 63.74-2.002 107.1-6.003 21.89-2.002 43.58-4.11 65.06-6.327-2.801-58.34-4.572-92.26-5.31-101.8l-13.44-168.2c0-2.925-0.492-8.265-1.477-16.02 0.215 1.2 1.785 4.525 4.71 9.974 3.202 6.033 6.926 12.5 11.17 19.39 1.817 2.956 3.849 5.988 6.096 9.097 1.847 2.555 3.001 4.064 3.463 4.525l0.185 0.139c0.184 0.092 0.461 0.138 0.831 0.138 0.215 0 0.831-0.23 1.847-0.692 1.17-0.524 2.463-0.893 3.879-1.108l5.449-1.709c6.064-3.232 13.25-7.82 21.56-13.76 1.817-1.323 6.204-4.617 13.16-9.881 10.62-8.128 22.64-18.95 36.06-32.46 12.13-12.19 20.09-21.06 23.87-26.6-25.15-27.55-41.36-44.99-48.62-52.32-5.48-5.049-10.53-9.759-15.15-14.13-16.81-15.98-28.32-26.27-34.54-30.89-6.034-4.433-14.84-9.205-26.41-14.31-7.112-3.14-19.89-6.003-38.33-8.589-19.86-2.771-39.24-4.156-58.14-4.156-1.046 0-3.539 0.6308-7.48 1.893-5.326 1.662-11.34 3.11-18.06 4.341-13.39 2.893-22.55 4.726-27.48 5.495-7.112 1.108-18.46 1.662-34.03 1.662-3.756 0-8.974-0.4156-15.65-1.247-8.743-1.108-16.3-2.602-22.67-4.479-4.587-1.355-9.312-2.955-14.18-4.802-3.571-1.355-5.587-2.032-6.049-2.032m-23.69 5.449 16.25-1.201c9.45 13.85 21.3 24.37 35.56 31.54 12.84 6.495 26.4 9.743 40.68 9.743 21.36 0 39.04-5.326 53.01-15.98 8.959-6.834 15.75-15.22 20.36-25.17l16.48 0.6003c0 0.4987-0.015 0.9762-0.046 1.431-4.217 15.95-14.07 29.57-29.55 40.87-17.21 12.53-37.39 18.79-60.54 18.79-1.601 0-4.034-0.1228-7.296-0.3694-1.94-0.1542-2.741-0.0923-2.402 0.1847 6.126 2.278 12.42 3.417 18.89 3.417 23.83 0 44.34-7.85 61.55-23.55 6.773-6.188 12.34-13.05 16.72-20.59 3.91-6.772 6.218-12.96 6.927-18.56 0.055-0.2216 0.101-0.4368 0.138-0.6465 38.08 4.064 60.09 6.665 66.03 7.804 2.863 0.5542 5.341 1.293 7.434 2.216 3.448 1.54 6.296 2.694 8.543 3.463 2.401 0.8312 8.22 4.68 17.46 11.54 4.956 3.664 11.24 8.435 18.84 14.31 8.804 6.68 22.04 18.99 39.71 36.94 14.25 14.5 26.49 27.54 36.71 39.11-17.85 18.38-33.62 33.6-47.28 45.67-18.84 16.59-34.71 28.18-47.61 34.77-2.186-1.785-4.294-4.495-6.326-8.127-2.094-4.187-3.694-7.219-4.802-9.097 13.51-7.049 20.64-10.8 21.38-11.27 1.386-0.862 3.741-2.801 7.066-5.818 19.09-14.84 30.12-23.52 33.11-26.04 5.941-5.018 10.05-9.574 12.33-13.67l0.601-0.693c-21.52 16.99-36.65 28.83-45.39 35.51-14.68 11.24-24.89 17.72-30.62 19.44l-16.76-30.52c2.955-2.647 4.971-9.589 6.049-20.82 0.524-5.572 0.785-12.08 0.785-19.53 0.554-6.25 0.831-9.681 0.831-10.3 0-1.94-0.247-3.864-0.739-5.772-0.523-1.939-1.2-3.463-2.032-4.572-0.954 0.954-1.785 5.511-2.493 13.67-0.986 11.36-2.57 21.72-4.756 31.08-2.063-15.67-4.172-30.89-6.327-45.67-1.662-11.54-2.555-17.87-2.678-18.98-0.584-5.418-0.923-8.435-1.016-9.051-0.492-2.709-1.339-4.756-2.539-6.142-0.155 0.0924-0.324 0.8469-0.508 2.263-0.155 1.262-0.231 2.201-0.231 2.817 0 3.048 0.492 7.358 1.477 12.93 0.954 5.572 1.432 10.88 1.432 15.93 0 2.893 0.4 6.172 1.201 9.835 0.769 3.664 1.154 6.834 1.154 9.513 0 1.57 0.231 4.063 0.693 7.48 0.431 3.417 0.646 5.634 0.646 6.65 0 2.339 0.446 7.542 1.339 15.61 1.447 12.78 2.801 26.6 4.064 41.47 4.987 57.81 10.42 146.1 16.3 264.8-41.99 4.311-68.42 6.927-79.28 7.851-35.34 3.078-64.05 4.617-86.12 4.617-12.25 0-32.65-0.446-61.18-1.339-27.68-0.923-43.7-1.431-48.07-1.524-3.971-0.062-6.418-0.169-7.342-0.323-1.139-0.339-2.771-0.677-4.895-1.016-9.45-1.57-33.54-3.833-72.27-6.788v-1.985c0.677-25.46 2.662-62.85 5.957-112.2 4.001-57.1 6.864-99.68 8.588-127.7 2.986-35.22 4.541-53.32 4.664-54.3 0.308-2.556 0.631-6.542 0.97-11.96 0.308-4.648 0.462-7.265 0.462-7.85 0.646-5.511 0.969-8.312 0.969-8.404 0-0.739 0.231-3.279 0.693-7.619 0.462-4.341 0.693-6.665 0.693-6.973 0-2.309 0.4-5.695 1.2-10.16 0.77-4.433 1.155-7.681 1.155-9.743 0-1.508 0.492-5.772 1.477-12.79 0.986-6.988 1.478-11.67 1.478-14.04-0.123-2.062-0.169-3.494-0.138-4.294-0.031-0.2466-0.093-0.4313-0.185-0.5541-0.185-0.0305-0.323-0.108-0.416-0.2309-1.57 5.295-2.524 9.097-2.863 11.41-2.278 14.59-3.756 23.89-4.433 27.89-2.955-10.41-4.448-15.7-4.479-15.88-0.092-1.632-0.307-3.248-0.646-4.848-0.647-3.202-1.616-5.049-2.909-5.541-0.185 0.6464-0.277 1.416-0.277 2.309 0 0.616 0.23 3.263 0.692 7.942 0 0.6769 0.169 2.108 0.508 4.294s0.508 4.572 0.508 7.157c0 0.616 0.215 4.787 0.647 12.51 0 1.54 0.399 4.787 1.2 9.744 0.801 4.956 1.201 8.327 1.201 10.11 0 2.771-0.677 8.035-2.032 15.79-1.355 7.727-2.032 12.13-2.032 13.21 0 0.432-1.724 3.803-5.172 10.11-3.14 5.818-6.079 11.08-8.819 15.79-2.894 5.017-7.712 12.88-14.45 23.6l-0.969 0.785c-4.926-2.062-12.41-6.834-22.44-14.32-19.95-14.87-44.1-36.91-72.45-66.12 0.5541-1.046 2.678-3.355 6.372-6.926 4.402-4.341 7.157-7.142 8.266-8.405 18.07 21.76 33.08 38.22 45.02 49.36 9.45 8.866 18.07 15.28 25.86 19.26-5.756-5.449-12.85-12.31-21.29-20.6-17.12-16.9-32.89-33.76-47.33-50.56 22.35-24.44 40.76-42.93 55.23-55.46 8.035-6.988 18.07-14.52 30.11-22.58 11.91-7.973 27.68-13.08 47.28-15.33 4.278-0.4923 12.62-1.17 25.03-2.032 10.47-0.7084 18.73-1.54 24.8-2.494 8.374 14.28 18.32 26.38 29.83 36.29 11.27 9.697 22.12 15.68 32.56 17.96l0.508 0.1385c-14.72-6.527-27.88-15.65-39.48-27.38-6.834-6.896-14.08-15.95-21.75-27.15m151.3 3.186c0.8-0.2466 1.447-0.3694 1.939-0.3694 0.646 0 1.185 0.3537 1.616 1.062 0.339 0.5541 0.508 1.092 0.508 1.616 0 1.6-1.478 3.956-4.433 7.065-3.694 3.817-8.697 7.496-15.01 11.04-5.142 2.863-11.81 5.433-20 7.712-9.05 2.524-17.06 3.786-24.01 3.786-9.882 0-19.72-1.817-29.51-5.449-8.527-3.202-15.96-7.342-22.3-12.42-3.602-2.893-6.049-4.957-7.342-6.188-3.355-3.202-5.033-5.696-5.033-7.481 0-0.1228 0.184-0.4618 0.554-1.016 0.431-0.616 0.739-0.9235 0.923-0.9235 0.277 0 1.709 0.4313 4.295 1.293 3.724 1.231 8.065 2.863 13.02 4.895 6.31 2.555 14.14 4.433 23.5 5.634 6.249 0.7693 12.05 1.154 17.41 1.154 4.895 0 9.928-0.2152 15.1-0.6465 3.294-0.2466 9.974-0.8007 20.04-1.662l0.646-0.6003c0.831-0.5236 2.309-1 4.433-1.431 5.049-1.17 10.07-2.401 15.05-3.694 0.954-0.2466 1.662-0.5541 2.124-0.9235 3.294-1.293 5.449-2.108 6.465-2.447z"/>
    <path d="m363.2 9.235c-0.492 0-1.139 0.1228-1.939 0.3694-1.016 0.3389-3.171 1.154-6.465 2.447-0.462 0.3694-1.17 0.6769-2.124 0.9235-4.987 1.293-10 2.524-15.05 3.694-2.124 0.4313-3.602 0.9078-4.433 1.431l-0.646 0.6003c-10.07 0.8617-16.75 1.416-20.04 1.662-5.172 0.4313-10.2 0.6465-15.1 0.6465-5.356 0-11.16-0.3851-17.41-1.154-9.359-1.201-17.19-3.078-23.5-5.634-4.957-2.032-9.298-3.664-13.02-4.895-2.586-0.8617-4.018-1.293-4.295-1.293-0.184 0-0.492 0.3075-0.923 0.9235-0.37 0.5541-0.554 0.8931-0.554 1.016 0 1.785 1.678 4.279 5.033 7.481 1.293 1.231 3.74 3.294 7.342 6.188 6.342 5.08 13.78 9.22 22.3 12.42 9.79 3.632 19.62 5.449 29.51 5.449 6.957 0 14.96-1.262 24.01-3.786 8.189-2.278 14.85-4.848 20-7.712 6.31-3.54 11.31-7.219 15.01-11.04 2.955-3.11 4.433-5.464 4.433-7.065 0-0.5237-0.169-1.062-0.508-1.616-0.431-0.7084-0.97-1.062-1.616-1.062z" fill-opacity=".5"/>
</svg>