
<svg xmlns="http://www.w3.org/2000/svg" version="1.1" xmlns:xlink="http://www.w3.org/1999/xlink" preserveAspectRatio="none" x="0px" y="0px" width="173px" height="60px" viewBox="0 0 173 60">
<defs>
<g id="Layer0_0_FILL">
<path fill="#000000" stroke="none" d="
M 106.9 57.55
Q 109.5 58.75 112.4 59.3 116.95 60.25 121.6 59.75
L 121.65 59.75
Q 121.75 59.75 121.9 59.7 125.9 59.1 129.5 57.55 132.85 59 136.55 59.6 136.6 59.6 136.65 59.65 140.7 60.2 144.9 59.6 150.95 58.7 156.05 55.35 159.55 53.05 162.25 49.75 161.25 50.55 160.15 51.25 155.05 54.6 148.95 55.5 144.8 56.15 140.75 55.6 140.65 55.55 140.6 55.55 136.9 54.95 133.55 53.5 129.95 55 126 55.65 125.85 55.7 125.75 55.7
L 125.65 55.7
Q 121.05 56.2 116.45 55.2 113.55 54.65 110.95 53.5 106.6 55.4 101.75 55.85 101.65 55.85 101.6 55.85 95.9 56.2 90.55 54.35 90.4 54.35 90.25 54.25 89.35 53.9 88.5 53.5 86 54.7 83.25 55.2 80.2 55.85 77.15 55.85
L 77.1 55.85
Q 74.1 55.9 71 55.2 70.9 55.2 70.8 55.15 68.2 54.6 65.75 53.5 62.1 55.1 58.05 55.65 57.9 55.65 57.8 55.7
L 57.75 55.7
Q 53.1 56.2 48.55 55.2 48.4 55.2 48.3 55.15 45.65 54.5 43.15 53.45 40.2 54.75 37.1 55.35 36.9 55.4 36.75 55.45 31.95 56.2 27.2 55.35 27.05 55.35 26.9 55.3 23.7 54.6 20.6 53.25 20.5 53.2 20.4 53.15 17.3 51.75 14.55 49.6 14.4 49.5 14.35 49.4 9.05 45.1 6.4 38.85 6.35 38.75 6.3 38.65 1.9 28.05 6.25 17.25 6.25 17.15 6.35 17.05 7.9 13.4 10.3 10.4 4.95 14.75 2.25 21.15 2.2 21.25 2.15 21.35 -2.2 32.15 2.25 42.75 2.25 42.85 2.35 42.95 5 49.15 10.25 53.45 10.35 53.55 10.5 53.65 13.25 55.8 16.35 57.25 16.4 57.25 16.55 57.3 19.65 58.65 22.85 59.35 22.95 59.4 23.1 59.4 27.9 60.3 32.65 59.5 32.85 59.45 33.05 59.45 36.15 58.85 39.1 57.5 41.6 58.6 44.25 59.2 44.35 59.25 44.45 59.3 49.05 60.3 53.7 59.75
L 53.75 59.75
Q 53.85 59.7 54 59.7 58 59.15 61.65 57.55 64.1 58.65 66.75 59.2 66.85 59.25 66.95 59.25 70 59.95 73.05 59.95 76.1 59.95 79.2 59.3 81.9 58.75 84.4 57.6 85.25 58 86.2 58.35 86.35 58.4 86.5 58.45 91.8 60.3 97.5 59.95 97.6 59.95 97.65 59.95 102.5 59.45 106.9 57.55 Z"/>

<path fill="#FFFFFF" stroke="none" d="
M 172.6 30.2
Q 173.25 23.5 170.6 17.25 168.85 13.25 166.05 9.8 166 9.75 165.95 9.7
L 165.95 9.65
Q 163.7 7.1 160.85 5.15 155.2 1.35 148.3 0.3 148.15 0.25 148 0.3 140.4 -0.65 133.5 2.35 129.7 0.8 125.35 0.2
L 125.25 0.2
Q 125.15 0.15 125.05 0.15 117.75 -0.45 110.95 2.35 107.2 0.8 102.75 0.2 102.7 0.15 102.6 0.15 102.5 0.1 102.45 0.1 95.05 -0.55 88.3 2.35 84.3 0.75 80 0.2 79.95 0.15 79.9 0.15 79.8 0.1 79.7 0.1 72.4 -0.55 65.7 2.35 61.95 0.8 57.55 0.2 57.4 0.2 57.25 0.15 49.95 -0.55 43.2 2.3 39 0.55 34.5 0.1 24.75 -0.65 16.65 4.65 16.55 4.65 16.5 4.75 12.9 7.2 10.3 10.4 7.9 13.4 6.35 17.05 6.25 17.15 6.25 17.25 1.9 28.05 6.3 38.65 6.35 38.75 6.4 38.85 9.05 45.1 14.35 49.4 14.4 49.5 14.55 49.6 17.3 51.75 20.4 53.15 20.5 53.2 20.6 53.25 23.7 54.6 26.9 55.3 27.05 55.35 27.2 55.35 31.95 56.2 36.75 55.45 36.9 55.4 37.1 55.35 40.2 54.75 43.15 53.45 45.65 54.5 48.3 55.15 48.4 55.2 48.55 55.2 53.1 56.2 57.75 55.7
L 57.8 55.7
Q 57.9 55.65 58.05 55.65 62.1 55.1 65.75 53.5 68.2 54.6 70.8 55.15 70.9 55.2 71 55.2 74.1 55.9 77.1 55.85
L 77.15 55.85
Q 80.2 55.85 83.25 55.2 86 54.7 88.5 53.5 89.35 53.9 90.25 54.25 90.4 54.35 90.55 54.35 95.9 56.2 101.6 55.85 101.65 55.85 101.75 55.85 106.6 55.4 110.95 53.5 113.55 54.65 116.45 55.2 121.05 56.2 125.65 55.7
L 125.75 55.7
Q 125.85 55.7 126 55.65 129.95 55 133.55 53.5 136.9 54.95 140.6 55.55 140.65 55.55 140.75 55.6 144.8 56.15 148.95 55.5 155.05 54.6 160.15 51.25 161.25 50.55 162.25 49.75 164.9 47.6 167.05 44.7
L 167 44.7
Q 171.75 38.25 172.6 30.2
M 166.7 21.75
Q 167.45 24.65 167.45 27.85 167.45 37.25 160.85 43.85 154.25 50.5 144.85 50.5 138.6 50.5 133.6 47.55 128.55 50.5 122.3 50.5 116 50.5 110.95 47.5 105.9 50.5 99.6 50.5 93.35 50.5 88.35 47.55 83.35 50.5 77.05 50.5 70.75 50.5 65.75 47.5 60.65 50.5 54.35 50.5 48.1 50.5 43.1 47.55 38.1 50.5 31.8 50.5 22.45 50.5 15.8 43.85 9.2 37.25 9.2 27.85 9.2 18.5 15.8 11.85 22.45 5.25 31.8 5.25 35.7 5.25 39.1 6.35 41.2 7.05 43.1 8.2 48.1 5.25 54.35 5.25 57.9 5.25 61.05 6.2 61.4 6.25 61.7 6.35 63.8 7.1 65.75 8.2 70.75 5.25 77.05 5.25 80.15 5.25 82.95 5.95 83.7 6.1 84.4 6.35 86.45 7.1 88.35 8.2 93.35 5.25 99.6 5.25 102.95 5.25 105.95 6.1 106.5 6.25 107 6.4 109.05 7.1 110.95 8.2 116 5.25 122.3 5.25 125.4 5.25 128.25 6 128.95 6.15 129.65 6.35 131.7 7.1 133.6 8.2 138.6 5.25 144.85 5.25 147.5 5.25 149.9 5.75 156.1 7.1 160.85 11.85 165.15 16.2 166.7 21.75 Z"/>

<path fill="#FFCC00" stroke="none" d="
M 167.45 27.85
Q 167.45 24.65 166.7 21.75 165.15 16.2 160.85 11.85 156.1 7.1 149.9 5.75 147.5 5.25 144.85 5.25 138.6 5.25 133.6 8.2 131.7 7.1 129.65 6.35 128.95 6.15 128.25 6 125.4 5.25 122.3 5.25 116 5.25 110.95 8.2 109.05 7.1 107 6.4 106.5 6.25 105.95 6.1 102.95 5.25 99.6 5.25 93.35 5.25 88.35 8.2 86.45 7.1 84.4 6.35 83.7 6.1 82.95 5.95 80.15 5.25 77.05 5.25 70.75 5.25 65.75 8.2 63.8 7.1 61.7 6.35 61.4 6.25 61.05 6.2 57.9 5.25 54.35 5.25 48.1 5.25 43.1 8.2 41.2 7.05 39.1 6.35 35.7 5.25 31.8 5.25 22.45 5.25 15.8 11.85 9.2 18.5 9.2 27.85 9.2 37.25 15.8 43.85 22.45 50.5 31.8 50.5 38.1 50.5 43.1 47.55 48.1 50.5 54.35 50.5 60.65 50.5 65.75 47.5 70.75 50.5 77.05 50.5 83.35 50.5 88.35 47.55 93.35 50.5 99.6 50.5 105.9 50.5 110.95 47.5 116 50.5 122.3 50.5 128.55 50.5 133.6 47.55 138.6 50.5 144.85 50.5 154.25 50.5 160.85 43.85 167.45 37.25 167.45 27.85 Z"/>
</g>
</defs>

<g transform="matrix( 1, 0, 0, 1, 0,0) ">
<use xlink:href="#Layer0_0_FILL"/>
</g>
</svg>
