<svg preserveAspectRatio="none" version="1.1" viewBox="0 0 600 465.5" xmlns="http://www.w3.org/2000/svg">
    <path fill="#fff" d="m419.7 5.469-24.29-1.758-7.698-2.946c-2.332 4.466-11.19 11.14-26.59 20.01-15.35 8.907-35.79 14.63-61.3 17.16-25.49 2.535-54.85-9.44-88.08-35.93l-29.79 2.756c-18.45 74.39-33.82 126.4-46.1 156.1l-5.5 287.2c108.6 19.13 221.7 19.65 339.4 1.569l-7.699-288.1c-15.46-42.1-29.57-94.11-42.32-156z"/>
    <path d="m178.5 10.73c-0.56 1.416-1.564 5.385-3.01 11.91-3.334 15.05-5.532 24.92-6.595 29.61-2.242 7.495-6.255 21.54-12.04 42.14l-11.86 38.02c-2.449 7.436-4.928 14.89-7.436 22.35-1.268 4.249-2.006 8.204-2.213 11.86-0.029 0.649-0.073 6.89-0.132 18.72-0.06 12.51-0.443 26.8-1.151 42.89-0.414 9.649-1.52 33.93-3.32 72.85-1.564 43.31-2.345 89.58-2.345 138.8 0 0.03 0.044 1.24 0.132 3.63 0.089 2.507 0.148 4.809 0.177 6.904 17.38 3.216 37.73 6.093 61.04 8.631 40.01 4.337 79.86 6.506 119.5 6.506 5.547 0 17.39-0.339 35.54-1.018 18.15-0.708 27.64-1.062 28.46-1.062l24.83-3.452c20.71-2.892 45.22-5.504 73.52-7.834-0.738-2.804-0.945-5.356-0.62-7.657 0.472-2.243 0.708-4.043 0.708-5.4 0-3.659-0.782-33.99-2.346-91-1.564-58.22-2.522-90.73-2.877-97.55-0.885-13.01-1.416-27.31-1.593-42.89v-31.25c0.089-7.082 0.148-11.44 0.177-13.06 0.029-2.095-0.148-3.703-0.531-4.824-2.242-4.632-5.385-13.37-9.427-26.2l-11.86-38.02c-5.99-22.75-9.843-37.13-11.55-43.15-0.797-3.452-3.304-13.99-7.524-31.6-0.414-4.072-1.062-7.318-1.948-9.737-1.593-4.455-4.558-6.89-8.896-7.303-3.039-0.295-8.011-0.8704-14.92-1.726-4.426-0.5606-7.819-0.8409-10.18-0.8409-0.679 0-3.393 1.83-8.144 5.488-6.344 4.898-12.17 8.923-17.48 12.08-19.65 11.68-40.52 17.53-62.58 17.53-21.98 0-42.78-5.842-62.41-17.53-5.252-3.127-11.08-7.155-17.48-12.08-4.78-3.659-7.539-5.488-8.276-5.488l-4.736 0.8852c-3.158 0.5606-4.913 0.8557-5.267 0.8852-0.974 0.05904-4.53 0.1033-10.67 0.1328-3.688 0.02948-5.871 0.2803-6.55 0.7524-2.833 1.918-4.884 4.603-6.152 8.055m7.347-0.0443c0.472 1.299 0.708 2.582 0.708 3.851 0 14.69-0.841 27.82-2.523 39.39-1.711 11.57-2.567 18.92-2.567 22.04 0 3.718-1.21 10.43-3.629 20.14-2.597 10.45-5.71 20.67-9.339 30.67-9.764 26.94-18.77 40.41-27 40.41-0.59 0-1.21-0.427-1.859-1.283-0.531-0.708-0.796-1.24-0.796-1.594 0-0.147 1.564-4.853 4.691-14.12 5.695-17 13.46-41.49 23.28-73.47 1.534-4.986 4.175-15.29 7.923-30.89 4.278-17.79 7.406-30.32 9.383-37.58l0.354-0.177c0.531 0.6787 0.988 1.549 1.372 2.611m10.4-5.046c0.885-0.118 2.773-0.295 5.665-0.5311 2.242-0.177 3.364-0.3098 3.364-0.3983-0.148 1.534-0.221 2.596-0.221 3.187 0 8.203 2.626 16.95 7.878 26.25 5.193 9.206 12.28 17.73 21.24 25.58 9.409 8.232 19.78 14.71 31.11 19.43 12.39 5.134 24.89 7.701 37.49 7.701 12.37 0 24.52-2.862 36.47-8.586 10.47-5.016 20.16-11.89 29.08-20.63 7.967-7.79 14.38-16.09 19.25-24.92 4.632-8.409 6.949-15.58 6.949-21.51 0-0.8259 0.059-1.874 0.177-3.142 0.117-1.151 0.162-2.272 0.132-3.364 2.154 0.08852 5.208 0.4131 9.162 0.9737 4.633 0.6196 7.363 0.9737 8.188 1.062-0.796 2.479-1.711 6.595-2.744 12.35-1.15 6.403-1.726 11.13-1.726 14.16 0 14.34 1.372 29.92 4.116 46.74 2.774 17 6.522 32.59 11.24 46.78 5.046 15.22 10.58 26.82 16.6 34.79 6.698 8.879 13.48 12.51 20.36 10.89l-0.088 5.665c-0.266 0-0.856 0.074-1.77 0.222-0.915 0.148-1.52 0.221-1.815 0.221-8.085 0-16.4-6.256-24.96-18.77-3.186-4.662-7.081-11.71-11.68-21.16l-0.443-0.222c-0.443 0.266-0.664 0.693-0.664 1.284 0 2.419 2.685 8.159 8.055 17.22 2.745 4.662 5.843 9.631 9.295 14.92 2.656 4.249 7.067 7.464 13.23 9.648 5.163 1.83 8.704 2.361 10.62 1.594l-0.133 9.427c0 10.21 0.177 22.86 0.532 37.93 0.531 23.4 1.077 61.5 1.637 114.4h0.664c0.177 12.51 0.649 31.8 1.416 57.89 0.738 24.58 1.107 38.17 1.107 40.76-17.2 3.541-30.54 6.079-40.01 7.613-10.33 1.682-17.15 2.346-20.45 1.992l-47.71 2.434c-20.95 0.649-33.18 1.018-36.69 1.106-3.246 0.089-8.808 0.133-16.69 0.133-36.23 0-67.01-1.328-92.33-3.983-28.5-3.718-53.86-6.639-76.08-8.764 1.387-51.9 2.493-95.96 3.319-132.2 1.593-68.43 2.213-112.2 1.859-131.3 1.387 0.266 2.877 0.399 4.47 0.399 7.731 0 14.68-3.202 20.85-9.605 5.606-5.813 9.188-12.57 10.76-20.27-8.292 10.24-13.92 16.67-16.86 19.3-5.105 4.515-10.51 6.772-16.2 6.772l-3.099-0.088-0.088-4.515c1.033 0.118 1.962 0.177 2.788 0.177 5.725 0 11.58-3.895 17.57-11.68 5.813-7.584 11.13-18.01 15.93-31.29 4.957-13.54 8.837-28.57 11.64-45.1 2.98-17.59 4.47-35.29 4.47-53.11 0-1.653-0.591-5.68-1.771-12.08-1.18-6.403-2.109-10.6-2.788-12.61 1.711-0.177 4.485-0.5459 8.321-1.106m13.1 2.921c0-0.02948 0.133-0.7524 0.398-2.169 0.383-1.476 0.915-2.375 1.594-2.7 9.622 9.534 22.33 17.64 38.15 24.34 17.32 7.347 34.19 11.02 50.59 11.02 12.3 0 27.15-3.113 44.52-9.339 19.86-7.111 34.58-15.78 44.17-26.02 0.148 0.1476 0.531 0.5163 1.151 1.106 0.56 0.8557 0.841 2.109 0.841 3.762 0 4.957-2.966 11.86-8.897 20.71-4.308 6.462-9.339 12.82-15.09 19.08-2.05 2.554-5.842 6.095-11.38 10.62-5.537 4.524-12.07 8.848-19.61 12.97-7.528 4.128-19.42 6.193-35.67 6.196-10.83 0-21.97-2.479-33.42-7.436-10.3-4.455-19.99-10.51-29.08-18.15-8.527-7.199-15.36-14.8-20.49-22.79-5.194-8.026-7.79-15.09-7.79-21.2m204.2 5.975c0-1.268 0.251-2.552 0.753-3.851 0.443-1.122 0.929-1.977 1.46-2.567 2.922 8.527 6.153 20.34 9.693 35.45 1.859 7.967 4.132 17.77 6.816 29.39 9.446 35.76 17.17 61.59 23.19 77.5 1.593 4.249 3.098 7.805 4.514 10.67 0.856 1.741 1.284 2.803 1.284 3.186 0 0.354-0.266 0.886-0.797 1.594-0.62 0.856-1.239 1.283-1.859 1.283-3.57 0-7.583-3.157-12.04-9.471-4.012-5.666-8.04-13.35-12.08-23.06-3.777-9.029-7.037-18.5-9.781-28.42s-4.47-18.46-5.178-25.63c-1.122-3.895-2.169-9.056-3.143-15.49-1.888-12.63-2.833-29.49-2.833-50.59m-42 52.71c-13.22 10.8-24.76 18.35-34.61 22.66-10.18 4.455-21.32 6.683-33.42 6.683-19.24 0-36.05-3.806-50.46-11.42-10.56-5.606-20.01-13.41-28.33-23.41-0.029-0.0293-0.073-0.0293-0.132 0-0.089 0.0593-0.133 0.2655-0.133 0.6196 0 3.777 2.449 7.996 7.347 12.66 4.603 4.367 10.76 8.557 18.46 12.57 7.761 4.013 15.87 7.229 24.34 9.649 9.056 2.567 17.35 3.85 24.87 3.85 15.7 0 29.24-2.64 40.63-7.922 11.62-5.4 22.1-14.05 31.42-25.94z" />
    <path d="m414.3 10.64c-0.502 1.299-0.752 2.582-0.752 3.851 0 21.09 0.944 37.96 2.832 50.59 0.974 6.433 2.021 11.6 3.143 15.49 0.708 7.17 2.434 15.71 5.178 25.63s6.005 19.39 9.782 28.42c4.042 9.711 8.07 17.39 12.08 23.06 4.455 6.314 8.468 9.471 12.04 9.471 0.62 0 1.24-0.427 1.859-1.283 0.531-0.708 0.797-1.24 0.797-1.594 0-0.383-0.428-1.445-1.284-3.186-1.416-2.862-2.921-6.418-4.514-10.67-6.019-15.91-13.75-41.74-23.19-77.5-2.685-11.62-4.957-21.42-6.816-29.39-3.541-15.11-6.772-26.93-9.693-35.45-0.531 0.5902-1.018 1.446-1.461 2.567m-204.6-4.293c-0.265 1.416-0.398 2.14-0.398 2.169 0 6.108 2.596 13.17 7.79 21.2 5.134 7.996 11.97 15.6 20.49 22.79 9.091 7.642 18.78 13.69 29.08 18.15 11.45 4.957 22.59 7.436 33.42 7.436 16.25-0.0036 28.15-2.069 35.67-6.196 7.535-4.121 14.08-8.444 19.61-12.97 5.533-4.528 9.321-8.069 11.38-10.62 5.754-6.256 10.78-12.61 15.09-19.08 5.93-8.852 8.896-15.76 8.896-20.71 0-1.653-0.281-2.906-0.841-3.762-0.62-0.5902-1.003-0.9587-1.151-1.106-9.587 10.24-24.32 18.92-44.17 26.02-17.38 6.226-32.22 9.339-44.53 9.339-16.4 0-33.27-3.674-50.59-11.02-15.82-6.698-28.53-14.81-38.15-24.34-0.679 0.3246-1.21 1.224-1.594 2.7m-23.19 8.144c0-1.268-0.236-2.552-0.708-3.851-0.383-1.062-0.841-1.932-1.372-2.611l-0.354 0.177c-1.977 7.259-5.105 19.78-9.383 37.58-3.747 15.61-6.389 25.91-7.923 30.89-9.825 31.98-17.59 56.48-23.28 73.47-3.127 9.268-4.691 13.97-4.691 14.12 0 0.354 0.265 0.886 0.797 1.594 0.648 0.856 1.268 1.283 1.859 1.283 8.232 0 17.23-13.47 27-40.41 3.629-10 6.743-20.23 9.339-30.67 2.419-9.711 3.629-16.42 3.629-20.14 0-3.127 0.856-10.47 2.567-22.04 1.682-11.57 2.523-24.7 2.523-39.39z" fill-opacity=".5" />
</svg>