<svg width="46" height="46" viewBox="0 0 46 46" fill="none" xmlns="http://www.w3.org/2000/svg">
<path d="M33.8589 37.3664C41.5905 31.1055 42.7827 19.7624 36.5218 12.0309C30.2609 4.29935 18.9178 3.10714 11.1863 9.36802C3.45472 15.6289 2.26252 26.972 8.5234 34.7036C14.7843 42.4351 26.1274 43.6273 33.8589 37.3664Z" fill="#696969" stroke="#0C0C0C" stroke-width="4"/>
<path d="M19.1478 7.73418L22.7726 12.2104C23.4696 13.0712 23.9746 14.0469 24.2922 15.0928L27.2595 24.5402L22.6603 28.2646L14.0117 23.4178C13.0546 22.8897 12.1854 22.1683 11.5082 21.3321L7.88343 16.8559C8.90798 14.6009 10.4034 12.5755 12.4448 10.9224C14.4616 9.28926 16.7537 8.24759 19.1478 7.73418Z" fill="#0C0C0C"/>
<path d="M27.4144 25.6365L29.0511 28.2612C29.61 29.1525 29.9768 30.1586 30.1608 31.1905C30.3085 31.9261 29.5707 32.5236 28.8819 32.2262C27.9108 31.8316 27.0276 31.2437 26.2473 30.5317L24.0203 28.385L27.4144 25.6365Z" fill="#0C0C0C"/>
<path d="M24.0203 28.385L27.4144 25.6365L29.0511 28.2612C29.61 29.1525 29.9768 30.1586 30.1608 31.1905C30.3085 31.9261 29.5707 32.5236 28.8819 32.2262C27.9108 31.8316 27.0276 31.2437 26.2473 30.5317L24.0203 28.385Z" fill="#0C0C0C"/>
<path d="M19.1478 7.73418L22.7726 12.2104C23.4696 13.0712 23.9746 14.0469 24.2922 15.0928L27.2595 24.5402L22.6603 28.2646L14.0117 23.4178C13.0546 22.8897 12.1854 22.1683 11.5082 21.3321L7.88343 16.8559C8.90798 14.6009 10.4034 12.5755 12.4448 10.9224C14.4616 9.28926 16.7537 8.24759 19.1478 7.73418Z" fill="#0C0C0C"/>
</svg>
