<svg width="24" height="20" viewBox="0 0 24 20" fill="none" xmlns="http://www.w3.org/2000/svg">
<mask id="path-1-inside-1" fill="white">
<path fill-rule="evenodd" clip-rule="evenodd" d="M18 0H6V3H0V20H24V3H18V0Z"/>
</mask>
<path d="M6 0V-2H4V0H6ZM18 0H20V-2H18V0ZM6 3V5H8V3H6ZM0 3V1H-2V3H0ZM0 20H-2V22H0V20ZM24 20V22H26V20H24ZM24 3H26V1H24V3ZM18 3H16V5H18V3ZM6 2H18V-2H6V2ZM8 3V0H4V3H8ZM0 5H6V1H0V5ZM2 20V3H-2V20H2ZM24 18H0V22H24V18ZM22 3V20H26V3H22ZM18 5H24V1H18V5ZM16 0V3H20V0H16Z" fill="#0C0C0C" mask="url(#path-1-inside-1)"/>
<path d="M17 11C17 13.7614 14.7614 16 12 16C9.23858 16 7 13.7614 7 11C7 8.23858 9.23858 6 12 6C14.7614 6 17 8.23858 17 11Z" stroke="#0C0C0C" stroke-width="2"/>
</svg>
