<svg width="127" height="156" viewBox="0 0 127 156" fill="none" xmlns="http://www.w3.org/2000/svg">
<path d="M61.9321 145.267C89.4053 144.764 111.614 140.945 111.537 136.739C111.46 132.532 89.1261 129.53 61.6529 130.034C34.1797 130.537 11.9707 134.355 12.0478 138.562C12.1249 142.769 34.4589 145.771 61.9321 145.267Z" fill="black"/>
<path d="M80.9321 75.325C80.9321 74.6104 48.1445 74.6104 48.1445 75.325V142.537C48.1445 144.959 80.925 144.774 80.9321 142.537V75.325Z" fill="#3FB58A" stroke="black" stroke-width="2" stroke-miterlimit="10"/>
<path d="M120 64.8206C119.838 79.7763 113.814 94.0642 103.236 104.582C92.6575 115.101 78.379 121 63.5 121C48.621 121 34.3425 115.101 23.7643 104.582C13.1861 94.0642 7.16206 79.7763 7 64.8206C7 59.9487 32.2921 56 63.4967 56C94.7012 56 120 59.9487 120 64.8206Z" fill="#FBB03B" stroke="black" stroke-width="2" stroke-miterlimit="10"/>
<path d="M120 65.0034C120 69.9694 94.7057 74 63.5067 74C32.3077 74 7 69.9763 7 65.0034C7 60.0306 32.2876 56 63.4866 56C94.6856 56 120 60.0306 120 65.0034Z" fill="#3FB58A" stroke="black" stroke-width="2" stroke-miterlimit="10"/>
<path d="M63.5 71C85.3153 71 103 68.3137 103 65C103 61.6863 85.3153 59 63.5 59C41.6847 59 24 61.6863 24 65C24 68.3137 41.6847 71 63.5 71Z" fill="black"/>
<path d="M32.3145 65.4406C32.3145 57.2414 35.5716 49.378 41.3693 43.5802C47.1671 37.7825 55.0305 34.5254 63.2297 34.5254C71.4289 34.5254 79.2923 37.7825 85.09 43.5802C90.8877 49.378 94.1449 57.2414 94.1449 65.4406C94.1449 68.0919 80.3095 70.243 63.2297 70.243C46.1498 70.243 32.3145 68.0919 32.3145 65.4406Z" fill="#FF4D44" stroke="black" stroke-width="2" stroke-miterlimit="10"/>
<path d="M63.2291 28.9231C68.1785 28.9231 72.1907 24.9109 72.1907 19.9616C72.1907 15.0122 68.1785 11 63.2291 11C58.2798 11 54.2676 15.0122 54.2676 19.9616C54.2676 24.9109 58.2798 28.9231 63.2291 28.9231Z" fill="#FBB03B" stroke="black" stroke-width="2" stroke-miterlimit="10"/>
<circle cx="69.103" cy="60.6675" r="1.78659" fill="black"/>
<circle cx="85.5405" cy="59.2378" r="1.78659" fill="black"/>
</svg>
