<svg width="127" height="156" viewBox="0 0 127 156" fill="none" xmlns="http://www.w3.org/2000/svg">
<path d="M64.0239 145.199C91.4971 144.695 113.706 140.877 113.629 136.67C113.552 132.464 91.2179 129.462 63.7447 129.965C36.2715 130.469 14.0625 134.287 14.1396 138.494C14.2167 142.7 36.5507 145.702 64.0239 145.199Z" fill="black"/>
<path d="M109 76.4524C109 91.7197 101.466 105.229 89.9037 113.473C84.037 117.656 79.24 123.993 79.24 131.468V143.156C68.7762 144.281 58.2225 144.281 47.76 143.158V131.468C47.76 123.993 42.963 117.656 37.0963 113.473C25.5343 105.229 18 91.7197 18 76.4524C18 51.3507 38.3701 31 63.5 31C88.6299 31 109 51.3507 109 76.4524Z" fill="#FF4D44" stroke="black" stroke-width="2"/>
<path d="M109 74C109 78.4159 88.6303 82 63.5054 82C38.3805 82 18 78.422 18 74" stroke="black" stroke-width="2" stroke-miterlimit="10"/>
<circle cx="51" cy="79" r="26" fill="#3FB58A" stroke="black" stroke-width="2"/>
</svg>
