<svg width="24" height="24" viewBox="0 0 24 24" fill="none" xmlns="http://www.w3.org/2000/svg">
<path d="M12 16.3048C11.2127 16.3048 10.4921 16.1111 9.8381 15.7238C9.18413 15.3365 8.66349 14.8159 8.27619 14.1619C7.88889 13.5079 7.69524 12.7873 7.69524 12C7.69524 11.2063 7.88889 10.4857 8.27619 9.8381C8.66349 9.18413 9.18413 8.66349 9.8381 8.27619C10.4921 7.88889 11.2127 7.69524 12 7.69524C12.7937 7.69524 13.5143 7.88889 14.1619 8.27619C14.8159 8.66349 15.3365 9.18413 15.7238 9.8381C16.1111 10.4857 16.3048 11.2063 16.3048 12C16.3048 12.7873 16.1111 13.5079 15.7238 14.1619C15.3365 14.8159 14.8159 15.3365 14.1619 15.7238C13.5143 16.1111 12.7937 16.3048 12 16.3048ZM12 14.4C12.4444 14.4 12.8476 14.2921 13.2095 14.0762C13.5714 13.8603 13.8603 13.5714 14.0762 13.2095C14.2921 12.8413 14.4 12.4381 14.4 12C14.4 11.5556 14.2921 11.1524 14.0762 10.7905C13.8603 10.4286 13.5714 10.1397 13.2095 9.92381C12.8476 9.70794 12.4444 9.6 12 9.6C11.5619 9.6 11.1587 9.70794 10.7905 9.92381C10.4286 10.1397 10.1397 10.4286 9.92381 10.7905C9.70794 11.1524 9.6 11.5556 9.6 12C9.6 12.4381 9.70794 12.8413 9.92381 13.2095C10.1397 13.5714 10.4286 13.8603 10.7905 14.0762C11.1587 14.2921 11.5619 14.4 12 14.4ZM11.0857 5.79048V0H12.9143V5.79048H11.0857ZM17.0286 8.26667L15.7333 6.97143L19.8476 2.85714L21.1429 4.15238L17.0286 8.26667ZM18.2095 12.9143V11.0857H24V12.9143H18.2095ZM19.8476 21.1429L15.7333 17.0286L17.0286 15.7333L21.1429 19.8476L19.8476 21.1429ZM11.0857 24V18.2095H12.9143V24H11.0857ZM4.15238 21.1429L2.85714 19.8476L6.97143 15.7333L8.26667 17.0286L4.15238 21.1429ZM0 12.9143V11.0857H5.79048V12.9143H0ZM6.97143 8.26667L2.85714 4.15238L4.15238 2.85714L8.26667 6.97143L6.97143 8.26667Z" fill="#FBB03B"/>
</svg>
