<svg width="1424" height="1148" viewBox="0 0 1424 1148" fill="none" xmlns="http://www.w3.org/2000/svg">
<g clip-path="url(#clip0_939_606)">
<path d="M1424 128.415C1396.2 375.831 1396.2 625.585 1424 873.001C1424 907.051 1410.48 939.706 1386.41 963.787C1362.35 987.868 1329.71 1001.4 1295.66 1001.42H1227.44C1219.03 1001.42 1210.72 1003.3 1203.11 1006.9C1195.51 1010.5 1188.8 1015.75 1183.46 1022.26L1090.07 1135.87C1085.9 1140.96 1080.29 1144.67 1073.97 1146.52C1067.66 1148.36 1060.94 1148.26 1054.68 1146.23C1048.43 1144.19 1042.93 1140.31 1038.91 1135.1C1034.9 1129.89 1032.55 1123.58 1032.17 1117.01L1028.67 1055.04C1027.84 1040.52 1021.5 1026.87 1010.93 1016.88C1000.36 1006.89 986.369 1001.32 971.829 1001.32C758.305 980.39 453.877 987.49 128.243 1001.32C94.2424 1001.29 61.6445 987.762 37.6021 963.713C13.5597 939.664 0.0366062 907.057 0 873.046C24.8927 644.71 23.5098 395.439 0 128.463C0 94.4045 13.526 61.7416 37.6022 37.6589C61.6784 13.5761 94.3328 0.0459067 128.382 0.0459067C517.168 20.8415 906.787 20.8415 1295.57 0.0459067C1312.43 0.0398504 1329.13 3.35582 1344.71 9.80375C1360.28 16.2517 1374.44 25.7048 1386.37 37.6251C1398.29 49.5454 1407.75 63.6993 1414.21 79.2772C1420.67 94.855 1423.99 111.551 1424 128.415Z" fill="white"/>
<path d="M209.974 461.33C209.862 458.769 210.769 456.269 212.497 454.376C214.225 452.483 216.634 451.352 219.194 451.233C222.098 451.233 227.353 452.662 229.289 452.662C241.321 452.662 243.718 444.501 244.686 421.907C245.654 392.074 247.083 350.252 247.083 306.954C247.083 276.199 246.115 244.936 244.686 218.515C243.718 203.114 242.75 188.221 230.856 188.221C226.569 188.221 222.236 189.651 219.332 189.651C218.027 189.718 216.722 189.497 215.513 189C214.304 188.504 213.22 187.746 212.338 186.78C211.457 185.815 210.8 184.666 210.415 183.416C210.03 182.167 209.927 180.847 210.112 179.553C210.012 178.249 210.172 176.938 210.583 175.696C210.993 174.455 211.646 173.308 212.504 172.321C213.362 171.334 214.407 170.527 215.58 169.948C216.752 169.369 218.027 169.028 219.332 168.946C256.21 168.946 291.429 170.885 332.778 170.885C369.333 170.885 457.795 168.946 479.922 168.946C491.446 168.946 494.811 172.821 494.811 182.412C494.811 187.254 493.336 203.114 493.336 224.74C493.336 244.936 495.272 266.24 495.272 273.295C495.272 280.35 492.414 283.899 484.209 283.899C436.129 283.899 435.668 189.144 378.461 189.144C361.174 189.144 359.238 204.083 358.27 219.438C356.334 252.176 355.366 289.663 355.366 320.418C355.366 334.85 357.809 337.248 367.397 337.248C397.684 337.248 409.208 287.727 441.937 287.727C443.246 287.53 444.582 287.644 445.838 288.06C447.094 288.476 448.235 289.18 449.168 290.118C450.102 291.056 450.801 292.2 451.211 293.459C451.62 294.717 451.728 296.055 451.525 297.363C451.525 304.556 448.667 328.119 448.667 351.22C448.667 370.909 451.064 394.979 451.064 407.014C450.995 409.438 450.001 411.743 448.287 413.457C446.573 415.172 444.268 416.166 441.845 416.236C411.559 416.236 398.098 356.615 367.305 356.615C359.607 356.615 354.813 359.474 354.813 371.002C354.813 387.371 355.781 407.567 356.242 422C357.21 444.593 362.004 452.755 377.908 452.755C384.131 452.755 400.495 451.831 410.176 451.831C411.446 451.885 412.692 452.188 413.844 452.725C414.996 453.262 416.03 454.022 416.887 454.961C417.744 455.9 418.406 456.998 418.837 458.194C419.268 459.39 419.457 460.66 419.395 461.929C419.395 468.154 416.537 472.027 410.176 472.027C391.737 472.027 340.476 469.123 304.428 469.123C275.571 469.123 233.761 472.027 219.332 472.027C212.878 471.889 209.974 467.601 209.974 461.33Z" fill="black"/>
<path d="M572.901 212.705C591.34 212.705 608.027 209.846 625.314 209.846C633.519 209.846 635.916 214.18 635.916 223.31C635.916 232.439 632.551 304.557 632.551 344.949C632.551 359.382 632.551 397.376 633.012 421.907C633.473 446.437 634.948 452.662 641.678 452.662C645.504 452.662 648.87 451.739 651.774 451.739C653.047 451.687 654.317 451.899 655.504 452.362C656.691 452.826 657.768 453.532 658.669 454.434C659.57 455.335 660.275 456.412 660.738 457.599C661.202 458.786 661.414 460.056 661.362 461.33C661.362 467.601 658.504 471.934 651.774 471.934C638.774 471.934 601.297 469.998 575.344 469.998C552.71 469.998 533.487 471.934 513.297 471.934C507.534 471.934 504.077 469.03 504.077 461.33C504.077 454.598 507.442 451.739 513.297 451.739C515.233 451.739 518.598 452.662 521.963 452.662C527.264 452.662 527.725 444.039 528.232 433.434C529.661 395.947 531.09 354.586 531.09 313.548C531.09 292.891 530.629 270.296 529.661 251.529C528.693 232.763 525.789 229.398 517.63 229.398C513.297 229.398 510.439 229.904 508.963 229.904C502.74 229.904 500.804 224.602 500.804 219.806C500.804 215.011 502.74 209.708 508.963 209.708C529.154 209.847 548.423 212.705 572.901 212.705ZM640.71 159.357C640.71 185.778 624.853 195.414 578.709 195.875C532.565 196.337 516.616 186.008 516.616 159.357C516.616 129.062 545.473 116.565 578.663 116.565C611.853 116.565 640.71 128.555 640.71 159.357Z" fill="black"/>
<path d="M665.004 230.041C662.94 228.954 661.246 227.278 660.138 225.225C659.03 223.173 658.557 220.836 658.78 218.514C658.78 213.211 661.684 209.846 665.511 209.846C680.4 209.846 707.321 212.705 738.575 212.705C764.528 212.705 800.116 209.846 811.64 209.846C818.37 209.846 819.845 214.18 819.845 219.437C819.845 224.693 818.37 229.073 813.115 229.073C811.179 229.073 808.275 228.614 805.878 228.614C804.588 228.493 803.288 228.657 802.07 229.096C800.852 229.535 799.745 230.238 798.83 231.154C797.914 232.069 797.212 233.177 796.773 234.396C796.333 235.614 796.169 236.913 796.289 238.203C796.289 246.364 804.449 261.259 815.512 281.962C829.341 308.429 835.196 313.224 842.894 313.224C854.418 313.224 859.259 298.331 859.259 272.833C859.259 247.334 851.56 233.407 839.529 230.041C837.034 229.647 834.772 228.35 833.173 226.394C831.575 224.438 830.752 221.961 830.863 219.437C830.813 218.195 831.015 216.956 831.456 215.794C831.897 214.632 832.568 213.572 833.429 212.676C834.29 211.78 835.323 211.068 836.467 210.582C837.61 210.096 838.84 209.845 840.082 209.846C854.972 209.846 871.797 211.275 888.116 211.275C900.654 211.275 912.179 209.846 921.306 209.846C922.244 209.791 923.183 209.945 924.056 210.294C924.929 210.643 925.714 211.179 926.356 211.865C926.999 212.552 927.482 213.371 927.772 214.265C928.063 215.16 928.153 216.106 928.036 217.039C928.036 226.676 917.941 240.095 901.115 266.101C879.496 298.793 859.305 318.021 859.305 339.186C859.305 349.791 863.131 357.629 870.368 370.909C888.116 408.442 906.877 440.672 920.338 449.802C922.591 450.837 924.531 452.448 925.963 454.472C927.396 456.495 928.27 458.861 928.497 461.33C928.497 467.601 925.639 471.934 921.306 471.934C908.814 471.934 880.925 469.03 849.209 469.03C823.256 469.03 787.669 471.934 776.145 471.934C769.414 471.934 767.939 467.6 767.939 462.298C767.939 456.995 769.415 452.662 775.177 452.662C776.145 452.662 780.432 453.168 781.907 453.168C788.13 453.168 792.002 450.264 792.002 444.5C792.002 437.768 788.637 426.055 771.305 393.547C756.415 365.651 751.621 359.381 744.891 359.381C730.462 359.381 724.7 380.084 724.7 402.17C724.7 431.496 734.288 447.865 748.256 451.738C754.986 453.629 756.876 456.995 756.876 462.298C757.013 463.561 756.872 464.839 756.463 466.042C756.055 467.245 755.387 468.346 754.509 469.264C753.631 470.182 752.562 470.896 751.378 471.358C750.195 471.819 748.924 472.015 747.656 471.934C731.799 471.427 714.005 470.459 696.212 470.459C686.116 470.459 676.989 471.934 665.465 471.934C664.373 472.088 663.26 472.003 662.205 471.684C661.149 471.366 660.175 470.823 659.351 470.09C658.527 469.358 657.872 468.453 657.431 467.442C656.99 466.431 656.774 465.337 656.798 464.234C656.798 452.66 668.323 441.594 687.084 412.268C699.116 391.611 710.133 375.382 717.877 357.445C721.699 350.477 723.993 342.773 724.608 334.849C724.608 326.227 722.165 318.988 715.941 307.922C694.829 265.132 676.574 240.601 665.004 230.041Z" fill="black"/>
<path d="M931.909 218.513C931.853 217.399 932.023 216.286 932.41 215.24C932.796 214.193 933.391 213.236 934.158 212.425C934.925 211.615 935.848 210.968 936.872 210.525C937.896 210.082 938.999 209.85 940.114 209.845C955.004 209.845 980.957 212.704 1012.21 212.704C1034.8 212.704 1057.39 210.306 1079.97 209.845C1081.2 209.823 1082.41 210.065 1083.54 210.552C1084.66 211.039 1085.67 211.762 1086.49 212.671C1087.31 213.579 1087.93 214.653 1088.3 215.82C1088.67 216.988 1088.79 218.22 1088.64 219.436C1088.64 221.789 1087.75 224.055 1086.14 225.77C1084.53 227.484 1082.32 228.517 1079.97 228.658C1069.42 228.658 1067.48 232.947 1067.48 246.411C1067.48 282.515 1080.94 349.328 1094.91 386.862C1099.52 400.326 1105.01 406.089 1115.1 406.089C1123.72 406.089 1132.89 401.756 1132.89 374.828C1132.89 309.905 1106.43 242.123 1106.43 221.926C1106.43 215.656 1108.37 209.892 1116.53 209.892C1123.72 209.892 1144.42 211.322 1159.31 211.322C1176.64 211.322 1191.02 209.892 1200.8 209.892C1206.1 209.892 1208.96 212.29 1208.96 219.114C1208.96 226.815 1184.43 260.612 1169.08 354.216C1146.03 461.467 1127.59 538.885 1028.21 538.885C974.365 538.885 953.713 517.722 953.713 486.46C953.713 457.134 974.872 437.905 1015.25 437.905C1053.7 437.905 1071.49 449.94 1071.49 474.793C1071.49 486.828 1064.25 493.561 1056.56 498.863C1050.79 502.69 1046.46 505.088 1046.46 511.359C1046.46 514.725 1048.9 517.123 1053.7 517.123C1079.19 517.123 1109.94 473.826 1109.94 448.327C1109.94 424.304 1096.11 418.999 1068.45 418.999C1047.8 418.999 1026.13 421.906 1005.48 421.906C993.449 421.906 988.194 418.999 984.322 400.74C962.195 299.759 956.94 261.305 938.639 231.979C936.475 230.483 934.723 228.463 933.547 226.11C932.37 223.756 931.807 221.143 931.909 218.513Z" fill="black"/>
<path d="M495.872 515.648C509.701 515.648 511.268 523.809 511.268 535.383C510.3 554.61 509.332 575.774 509.332 596.892C509.332 619.025 513.665 651.717 513.665 659.924C513.665 668.132 510.3 673.39 503.109 673.39C465.586 673.39 457.011 624.789 448.299 577.665C443.689 551.244 438.204 537.274 426.679 537.274C417.045 537.274 413.219 544.513 413.219 556.501C413.219 791.662 420.41 799.362 443.966 799.362C453.6 799.362 459.362 796.458 466.093 796.458C467.478 796.399 468.859 796.636 470.145 797.156C471.43 797.675 472.59 798.464 473.546 799.468C474.502 800.472 475.232 801.671 475.688 802.98C476.143 804.29 476.314 805.681 476.188 807.062C476.188 813.794 474.252 818.59 466.093 818.59C448.76 818.59 396.946 817.621 360.806 817.621C324.665 817.621 273.22 818.59 256.487 818.59C248.789 818.59 246.853 813.979 246.853 807.062C246.717 805.718 246.865 804.36 247.288 803.077C247.711 801.794 248.399 800.612 249.308 799.612C250.216 798.612 251.325 797.814 252.562 797.27C253.799 796.727 255.136 796.451 256.487 796.458C263.217 796.458 268.979 799.362 278.614 799.362C302.17 799.362 309.361 791.662 309.361 556.501C309.361 544.513 305.535 537.274 295.9 537.274C284.376 537.274 279.536 551.106 274.281 577.665C265.614 624.789 257.455 673.39 219.471 673.39C212.233 673.39 208.868 668.086 208.868 659.924C208.868 651.763 213.478 619.025 213.478 596.892C213.478 575.774 212.003 554.61 211.081 535.383C211.081 523.809 212.51 515.648 226.938 515.648C271.653 516.617 316.829 519.474 362.511 519.474C405.981 519.474 451.157 516.617 495.872 515.648Z" fill="black"/>
<path d="M653.295 825.784C582.627 825.784 519.612 796.458 519.612 693.587C519.612 587.303 577.28 549.309 656.153 549.309C744.568 549.309 771.028 590.162 771.028 638.761C771.028 674.819 754.663 698.382 672.01 698.382C642.646 698.382 626.789 702.21 626.789 719.04C626.789 738.775 645.228 750.81 684.964 750.81C723.916 750.81 758.028 739.235 758.028 707.051C757.866 705.929 757.941 704.787 758.25 703.696C758.559 702.605 759.094 701.592 759.82 700.722C760.546 699.852 761.448 699.144 762.465 698.646C763.483 698.148 764.594 697.869 765.727 697.829C770.06 697.829 773.425 700.734 773.425 707.051C773.471 791.662 741.756 825.784 653.295 825.784ZM622.64 648.859C622.467 656.741 622.96 664.625 624.115 672.423C626.005 680.123 631.306 682.012 637.944 682.012C651.405 682.012 681.691 672.792 681.691 609.898C681.691 582.97 674.961 569.504 656.706 569.504C631.859 569.504 622.64 593.527 622.64 648.859Z" fill="black"/>
<path d="M766.649 576.696C764.581 575.614 762.884 573.939 761.775 571.885C760.666 569.831 760.197 567.492 760.426 565.169C760.426 559.866 763.284 556.5 767.156 556.5C782.045 556.5 808.967 559.405 840.221 559.405C866.174 559.405 901.761 556.5 913.285 556.5C920.015 556.5 921.445 560.834 921.445 566.137C921.445 571.439 920.015 575.773 914.714 575.773C912.824 575.773 910.104 575.266 907.523 575.266C906.228 575.145 904.922 575.311 903.698 575.753C902.474 576.194 901.363 576.902 900.443 577.822C899.523 578.742 898.817 579.853 898.376 581.077C897.934 582.301 897.768 583.607 897.889 584.903C897.889 593.064 906.094 607.959 917.111 628.662C930.941 655.083 936.841 659.924 944.539 659.924C956.064 659.924 960.858 644.985 960.858 619.532C960.858 594.08 953.206 580.062 941.174 576.696C938.674 576.332 936.401 575.047 934.798 573.094C933.195 571.141 932.378 568.66 932.508 566.137C932.452 564.891 932.649 563.647 933.087 562.48C933.525 561.313 934.195 560.247 935.057 559.346C935.919 558.445 936.954 557.728 938.101 557.239C939.247 556.75 940.481 556.499 941.727 556.5C956.663 556.5 973.489 557.975 989.807 557.975C1002.3 557.975 1013.87 556.5 1023 556.5C1023.94 556.453 1024.88 556.612 1025.75 556.966C1026.62 557.321 1027.41 557.862 1028.05 558.551C1028.69 559.241 1029.17 560.062 1029.46 560.958C1029.75 561.855 1029.84 562.804 1029.73 563.739C1029.73 573.33 1019.63 586.794 1002.81 612.8C981.141 645.492 960.95 664.721 960.95 685.885C960.95 696.444 964.822 704.329 972.014 717.608C989.807 755.096 1008.57 787.327 1022.03 796.457C1024.29 797.499 1026.23 799.117 1027.66 801.149C1029.09 803.181 1029.96 805.553 1030.19 808.029C1030.19 814.254 1027.33 818.589 1023 818.589C1010.51 818.589 982.616 815.684 950.855 815.684C924.902 815.684 889.361 818.589 877.79 818.589C871.06 818.589 869.631 814.255 869.631 808.952C869.631 803.65 871.06 799.361 876.822 799.361C877.79 799.361 882.123 799.823 883.552 799.823C889.822 799.823 893.648 796.963 893.648 791.2C893.648 784.468 890.283 772.755 872.996 740.202C858.106 712.536 853.266 706.081 846.536 706.081C832.154 706.081 826.345 726.737 826.345 748.87C826.345 778.196 835.98 794.566 849.901 798.393C856.631 800.33 858.567 803.696 858.567 808.952C858.704 810.216 858.564 811.493 858.155 812.697C857.746 813.9 857.079 814.998 856.2 815.916C855.322 816.834 854.254 817.551 853.07 818.012C851.886 818.474 850.616 818.67 849.348 818.589C833.49 818.128 815.697 817.159 797.903 817.159C787.808 817.159 778.68 818.589 767.156 818.589C766.064 818.743 764.952 818.658 763.896 818.339C762.841 818.02 761.867 817.475 761.043 816.743C760.218 816.01 759.563 815.108 759.122 814.097C758.681 813.086 758.465 811.991 758.49 810.889C758.49 799.361 770.014 788.294 788.776 758.968C800.807 738.264 811.824 722.081 819.523 704.145C823.363 697.184 825.658 689.479 826.253 681.551C825.94 671.948 822.955 662.621 817.633 654.621C796.474 611.831 778.219 587.163 766.649 576.696Z" fill="black"/>
<path d="M1136.26 823.386C1081.45 823.386 1060.75 801.299 1060.75 743.569C1060.75 721.437 1063.15 683.627 1063.15 650.751C1063.15 632.307 1063.15 614.232 1062.23 592.607C1061.72 581.033 1057.39 575.775 1051.16 575.775C1045.86 575.775 1041.94 576.698 1040.1 576.698C1034.34 576.698 1032.86 571.441 1032.86 566.6C1032.68 565.389 1032.75 564.154 1033.08 562.973C1033.4 561.792 1033.96 560.69 1034.74 559.74C1035.51 558.789 1036.47 558.01 1037.56 557.452C1038.65 556.895 1039.85 556.572 1041.07 556.502C1079.97 552.675 1122.29 527.682 1144.88 500.754C1146.16 498.855 1147.88 497.295 1149.9 496.203C1151.91 495.112 1154.16 494.521 1156.45 494.483C1157.52 494.415 1158.6 494.56 1159.62 494.911C1160.63 495.262 1161.57 495.813 1162.37 496.53C1163.17 497.246 1163.82 498.115 1164.29 499.085C1164.75 500.056 1165.02 501.109 1165.07 502.183C1165.07 507.486 1163.64 521.411 1163.64 543.682C1163.64 555.717 1169.91 557.515 1181.43 557.515C1185.77 557.515 1198.26 556.547 1205.45 556.547C1206.8 556.533 1208.15 556.805 1209.39 557.346C1210.63 557.888 1211.74 558.686 1212.65 559.688C1213.56 560.69 1214.25 561.873 1214.67 563.16C1215.09 564.446 1215.23 565.808 1215.09 567.154C1215.27 568.53 1215.16 569.929 1214.76 571.258C1214.36 572.588 1213.68 573.818 1212.77 574.865C1211.86 575.912 1210.73 576.752 1209.47 577.33C1208.21 577.909 1206.84 578.212 1205.45 578.22C1195.86 578.22 1183.37 576.745 1174.7 576.745C1164.1 576.745 1161.24 581.586 1161.24 590.209C1160.28 640.238 1159.81 690.266 1161.24 723.419C1162.21 751.777 1169.4 756.112 1178.53 756.112C1189.13 756.112 1191.99 744.583 1191.99 734.946C1191.99 723.926 1183.83 710.462 1183.83 698.428C1183.83 690.727 1188.16 686.394 1194.43 686.394C1204.02 686.394 1208.82 693.634 1208.82 725.357C1208.82 793.093 1190.56 823.386 1136.26 823.386Z" fill="black"/>
</g>
<defs>
<clipPath id="clip0_939_606">
<rect width="1424" height="1148" fill="white"/>
</clipPath>
</defs>
</svg>
