<svg width="114" height="131" viewBox="0 0 114 131" fill="none" xmlns="http://www.w3.org/2000/svg">
<path d="M56.3343 130.17C83.8075 129.667 106.017 125.848 105.939 121.642C105.862 117.435 83.5283 114.433 56.0551 114.937C28.5818 115.44 6.37286 119.259 6.44996 123.465C6.52706 127.672 28.861 130.674 56.3343 130.17Z" fill="black"/>
<path d="M72.6017 83.1437C72.6017 82.6648 39.8141 82.6648 39.8141 83.1437V127.451C39.8141 130.253 72.6017 130.253 72.6017 127.451V83.1437Z" fill="#FF4D44" stroke="black" stroke-width="2" stroke-miterlimit="10"/>
<path d="M31.4527 3.50439L71.0436 1.43909L91.0606 9.07141L112.793 43.4526L83.1639 101.181L41.865 102.532L24.4493 96.6073L2.0025 60.6897L31.4527 3.50439Z" fill="#29ABE2" stroke="black" stroke-width="2" stroke-miterlimit="10"/>
<path d="M27.6437 12.4304L64.2188 15.8035L68.5281 53.7793L34.4113 73.1746L9.50616 48.5625" fill="#FBB03B"/>
<path d="M27.6437 12.4304L64.2188 15.8035L68.5281 53.7793L34.4113 73.1746L9.50616 48.5625" stroke="black" stroke-width="2" stroke-miterlimit="10" stroke-linecap="square"/>
<path d="M64.2189 15.8034L91.0606 9.07153" stroke="black" stroke-width="2" stroke-miterlimit="10"/>
<path d="M68.5281 53.7793L98.6715 70.9592" stroke="black" stroke-width="2" stroke-miterlimit="10"/>
<path d="M34.4114 73.1747L42.3153 102.518" stroke="black" stroke-width="2" stroke-miterlimit="10"/>
<path d="M19.4232 44.035H21.0289C21.1282 44.4925 21.2943 44.8983 21.5274 45.2522C21.7605 45.6018 22.0432 45.8975 22.3756 46.1392C22.7123 46.3766 23.0835 46.5557 23.4892 46.6766C23.8949 46.7975 24.3179 46.8579 24.7582 46.8579C25.561 46.8579 26.2862 46.655 26.9336 46.2493C27.5854 45.8436 28.1012 45.2457 28.481 44.4559C28.8652 43.666 29.0572 42.697 29.0572 41.5488C29.0572 40.4007 28.8652 39.4317 28.481 38.6418C28.1012 37.8519 27.5854 37.2541 26.9336 36.8484C26.2862 36.4426 25.561 36.2397 24.7582 36.2397C24.3179 36.2397 23.8949 36.3002 23.4892 36.421C23.0835 36.5419 22.7123 36.7232 22.3756 36.9649C22.0432 37.2023 21.7605 37.4958 21.5274 37.8454C21.2943 38.195 21.1282 38.6008 21.0289 39.0626H19.4232C19.5484 38.3806 19.7685 37.7742 20.0836 37.2433C20.403 36.7081 20.8001 36.2549 21.2749 35.8837C21.7497 35.5081 22.2828 35.2233 22.8741 35.029C23.4654 34.8348 24.0935 34.7377 24.7582 34.7377C25.8891 34.7377 26.8948 35.0139 27.7753 35.5664C28.6558 36.1189 29.3486 36.9045 29.8536 37.9231C30.3586 38.9418 30.6111 40.1503 30.6111 41.5488C30.6111 42.9473 30.3586 44.1559 29.8536 45.1745C29.3486 46.1932 28.6558 46.9787 27.7753 47.5312C26.8948 48.0837 25.8891 48.36 24.7582 48.36C24.0935 48.36 23.4654 48.2629 22.8741 48.0686C22.2828 47.8744 21.7497 47.5917 21.2749 47.2205C20.8001 46.8449 20.403 46.3896 20.0836 45.8543C19.7685 45.3191 19.5484 44.7127 19.4232 44.035ZM24.81 42.6106C24.4906 42.6106 24.2165 42.4963 23.9877 42.2675C23.759 42.0387 23.6446 41.7646 23.6446 41.4452C23.6446 41.1258 23.759 40.8517 23.9877 40.623C24.2165 40.3942 24.4906 40.2798 24.81 40.2798C25.1294 40.2798 25.4035 40.3942 25.6322 40.623C25.861 40.8517 25.9754 41.1258 25.9754 41.4452C25.9754 41.6567 25.9214 41.851 25.8135 42.0279C25.7099 42.2049 25.5697 42.3473 25.3927 42.4552C25.22 42.5588 25.0258 42.6106 24.81 42.6106Z" fill="black"/>
<path d="M45.6885 38.2339V39.6583H32.5065V38.2339H45.6885ZM34.0474 38.2339H35.7826C35.3639 38.9461 35.0445 39.5806 34.8244 40.1374C34.6086 40.6942 34.4618 41.2208 34.3841 41.7172C34.3064 42.2135 34.2676 42.7272 34.2676 43.2581C34.2676 44.4235 34.4532 45.3278 34.8244 45.9709C35.1956 46.614 35.7006 46.9356 36.3394 46.9356C36.9048 46.9356 37.3559 46.6831 37.6926 46.1781C38.0336 45.6731 38.2041 44.9414 38.2041 43.9832V41.5488H39.4213V43.9832C39.4213 44.9199 39.2961 45.7141 39.0457 46.3658C38.7997 47.0176 38.4371 47.514 37.958 47.855C37.4789 48.1916 36.8962 48.36 36.2099 48.36C35.4632 48.36 34.8244 48.1528 34.2935 47.7384C33.7669 47.3241 33.3633 46.7284 33.0827 45.9515C32.8022 45.1702 32.6619 44.2293 32.6619 43.1286C32.6619 42.2265 32.7763 41.3719 33.005 40.5647C33.2338 39.7532 33.5813 38.9763 34.0474 38.2339ZM42.4125 38.2339H44.1476C44.6138 38.9763 44.9613 39.7532 45.19 40.5647C45.4188 41.3719 45.5332 42.2265 45.5332 43.1286C45.5332 44.2293 45.3929 45.1702 45.1123 45.9515C44.8318 46.7284 44.426 47.3241 43.8951 47.7384C43.3685 48.1528 42.7319 48.36 41.9851 48.36C41.2989 48.36 40.7162 48.1916 40.237 47.855C39.7579 47.514 39.3932 47.0176 39.1429 46.3658C38.8968 45.7141 38.7738 44.9199 38.7738 43.9832V41.5488H39.991V43.9832C39.991 44.9414 40.1615 45.6731 40.5025 46.1781C40.8435 46.6831 41.2945 46.9356 41.8557 46.9356C42.2873 46.9356 42.6563 46.791 42.9628 46.5018C43.2736 46.2126 43.511 45.7939 43.675 45.2457C43.8433 44.6976 43.9275 44.035 43.9275 43.2581C43.9275 42.7272 43.8886 42.2135 43.8109 41.7172C43.7333 41.2208 43.5843 40.6942 43.3642 40.1374C43.1484 39.5806 42.8311 38.9461 42.4125 38.2339Z" fill="black"/>
<path d="M58.7751 39.0626H57.1694C57.0745 38.6008 56.9083 38.195 56.6709 37.8454C56.4378 37.4958 56.1529 37.2023 55.8162 36.9649C55.4839 36.7232 55.1148 36.5419 54.7091 36.421C54.3034 36.3002 53.8804 36.2397 53.4401 36.2397C52.6373 36.2397 51.91 36.4426 51.2582 36.8484C50.6108 37.2541 50.095 37.8519 49.7108 38.6418C49.331 39.4317 49.1411 40.4007 49.1411 41.5488C49.1411 42.697 49.331 43.666 49.7108 44.4559C50.095 45.2457 50.6108 45.8436 51.2582 46.2493C51.91 46.655 52.6373 46.8579 53.4401 46.8579C53.8804 46.8579 54.3034 46.7975 54.7091 46.6766C55.1148 46.5557 55.4839 46.3766 55.8162 46.1392C56.1529 45.8975 56.4378 45.6018 56.6709 45.2522C56.9083 44.8983 57.0745 44.4925 57.1694 44.035H58.7751C58.6542 44.7127 58.4341 45.3191 58.1147 45.8543C57.7953 46.3896 57.3982 46.8449 56.9234 47.2205C56.4486 47.5917 55.9155 47.8744 55.3242 48.0686C54.7372 48.2629 54.1091 48.36 53.4401 48.36C52.3092 48.36 51.3035 48.0837 50.423 47.5312C49.5425 46.9787 48.8497 46.1932 48.3447 45.1745C47.8397 44.1559 47.5872 42.9473 47.5872 41.5488C47.5872 40.1503 47.8397 38.9418 48.3447 37.9231C48.8497 36.9045 49.5425 36.1189 50.423 35.5664C51.3035 35.0139 52.3092 34.7377 53.4401 34.7377C54.1091 34.7377 54.7372 34.8348 55.3242 35.029C55.9155 35.2233 56.4486 35.5081 56.9234 35.8837C57.3982 36.2549 57.7953 36.7081 58.1147 37.2433C58.4341 37.7742 58.6542 38.3806 58.7751 39.0626ZM53.5178 42.6106C53.1984 42.6106 52.9243 42.4963 52.6955 42.2675C52.4668 42.0387 52.3524 41.7646 52.3524 41.4452C52.3524 41.1258 52.4668 40.8517 52.6955 40.623C52.9243 40.3942 53.1984 40.2798 53.5178 40.2798C53.8372 40.2798 54.1113 40.3942 54.3401 40.623C54.5688 40.8517 54.6832 41.1258 54.6832 41.4452C54.6832 41.6567 54.6293 41.851 54.5214 42.0279C54.4178 42.2049 54.2775 42.3473 54.1005 42.4552C53.9279 42.5588 53.7336 42.6106 53.5178 42.6106Z" fill="black"/>
</svg>
