<svg width="127" height="156" viewBox="0 0 127 156" fill="none" xmlns="http://www.w3.org/2000/svg">
<g clip-path="url(#clip0_2013_2091)">
<ellipse cx="62.9609" cy="139" rx="55" ry="7" fill="black"/>
<path d="M8.56568 78.7402C8.11335 78.4564 7.69514 78.1254 7.31478 77.7461C2.14998 72.5956 5.91819 60.4874 15.7313 50.7015C25.5445 40.9156 37.6865 37.1579 42.8513 42.3083C43.2312 42.6873 43.5629 43.1038 43.8473 43.5544L47.3624 47.0598C56.7296 56.4009 71.8892 56.4009 81.2563 47.0598L86.7172 41.614L122 76.7987L97.2324 101.497C91.9646 106.751 89.0039 113.884 89.0039 121.324V143.848C74.9976 145.158 54.8636 145.594 39.1065 143.848V120.817C39.1065 113.377 36.1458 106.244 30.8779 100.99L8.56568 78.7402Z" fill="#29ABE2" stroke="black" stroke-width="2"/>
<ellipse cx="106.545" cy="57.0114" rx="25.0275" ry="13.1724" transform="rotate(45 106.545 57.0114)" fill="#FBB03B" stroke="black" stroke-width="2"/>
<path d="M89 121C89 124.314 77.8071 127 64 127C50.1929 127 39 124.314 39 121" stroke="black" stroke-width="2"/>
<path d="M117.5 49L96 64.5" stroke="black" stroke-width="2"/>
</g>
<defs>
<clipPath id="clip0_2013_2091">
<rect width="127" height="156" fill="white"/>
</clipPath>
</defs>
</svg>
