<svg width="127" height="156" viewBox="0 0 127 156" fill="none" xmlns="http://www.w3.org/2000/svg">
<path d="M63.3325 144.731C90.8057 144.227 113.015 140.409 112.938 136.202C112.861 131.996 90.5265 128.994 63.0533 129.497C35.5801 130.001 13.3711 133.819 13.4482 138.026C13.5253 142.233 35.8593 145.234 63.3325 144.731Z" fill="black"/>
<path d="M79.6001 97.7048C79.6001 97.226 46.8125 97.226 46.8125 97.7048V142.012C46.8125 144.814 79.6001 144.814 79.6001 142.012V97.7048Z" fill="#FF4D44" stroke="black" stroke-width="2" stroke-miterlimit="10"/>
<path d="M38.4502 28.0653L78.0411 26L98.0581 33.6323L119.79 68.0135L90.1614 125.742L48.8625 127.093L31.4468 121.168L9 85.2506L38.4502 28.0653Z" fill="#29ABE2" stroke="black" stroke-width="2" stroke-miterlimit="10"/>
<path d="M34.6414 36.9912L71.2165 40.3643L75.5258 78.3401L41.409 97.7354L16.5039 73.1233" fill="#FBB03B"/>
<path d="M34.6414 36.9912L71.2165 40.3643L75.5258 78.3401L41.409 97.7354L16.5039 73.1233" stroke="black" stroke-width="2" stroke-miterlimit="10" stroke-linecap="square"/>
<path d="M71.2168 40.3647L98.0586 33.6328" stroke="black" stroke-width="2" stroke-miterlimit="10"/>
<path d="M75.5254 78.3398L105.669 95.5197" stroke="black" stroke-width="2" stroke-miterlimit="10"/>
<path d="M41.4082 97.7354L49.3121 127.078" stroke="black" stroke-width="2" stroke-miterlimit="10"/>
</svg>
