<svg width="25" height="17" viewBox="0 0 25 17" fill="none" xmlns="http://www.w3.org/2000/svg">
<path d="M10 6H17V12H10V6Z" fill="black"/>
<path fill-rule="evenodd" clip-rule="evenodd" d="M7.20715 10.8343L10 13.6271L11.4142 12.2129L8.62137 9.42004L11.4143 6.6271L10.0001 5.21289L7.20715 8.00583L4.41421 5.21289L3 6.6271L5.79294 9.42004L3.00009 12.2129L4.41431 13.6271L7.20715 10.8343Z" fill="#FF4D44"/>
<path fill-rule="evenodd" clip-rule="evenodd" d="M10.0001 16.4556L7.20721 13.6627L4.41436 16.4556L0.171723 12.2129L2.96457 9.4201L0.171631 6.62716L4.41427 2.38452L7.20721 5.17746L10.0002 2.38452L14.2428 6.62716L11.4499 9.4201L14.2427 12.2129L10.0001 16.4556ZM7.20721 8.00589L4.41427 5.21295L3.00006 6.62716L5.793 9.4201L3.00015 12.2129L4.41436 13.6272L7.20721 10.8343L10.0001 13.6272L11.4143 12.2129L8.62142 9.4201L11.4144 6.62716L10.0002 5.21295L7.20721 8.00589Z" fill="black"/>
<path d="M14.2151 13.92V12.336L18.6951 7.68C19.3991 6.944 19.9111 6.368 19.9111 5.504C19.9111 4.688 19.2071 3.952 18.1991 3.952C17.1591 3.952 16.3751 4.592 16.1031 5.92L14.1511 5.44C14.6951 3.136 16.3271 2 18.2151 2C19.9911 2 22.0071 3.264 22.0071 5.504C22.0071 6.864 21.2391 7.888 20.0071 9.168L17.1911 12.048H22.1831V13.92H14.2151Z" fill="#FF4D44"/>
<path fill-rule="evenodd" clip-rule="evenodd" d="M12.2151 15.92V11.5301L15.7216 7.88578L11.7493 6.90897L12.2046 4.98042C12.5648 3.45515 13.3218 2.18433 14.4265 1.29683C15.5287 0.411339 16.8627 0 18.2151 0C20.7085 0 24.0071 1.80847 24.0071 5.504C24.0071 7.44597 23.0016 8.86477 21.9244 10.048H24.1831V15.92H12.2151ZM21.3314 7.58669C21.7638 6.92853 22.0071 6.26949 22.0071 5.504C22.0071 4.20609 21.3303 3.23585 20.4154 2.64932C19.7514 2.22358 18.962 2 18.2151 2C18.2098 2 18.2044 2.00001 18.1991 2.00003C16.9221 2.00437 15.7635 2.52925 14.9813 3.58457C14.7074 3.95413 14.4796 4.38874 14.3091 4.88883C14.2611 5.02975 14.2176 5.17586 14.1788 5.32719C14.1693 5.36448 14.1601 5.40208 14.1511 5.44L16.1031 5.92C16.1251 5.8125 16.1505 5.7095 16.1791 5.61099C16.1878 5.58102 16.1968 5.55146 16.2061 5.52232C16.5435 4.46399 17.2689 3.952 18.1991 3.952C18.2044 3.952 18.2098 3.95202 18.2151 3.95206C18.6476 3.95541 19.0235 4.09452 19.3106 4.31704C19.687 4.60868 19.9111 5.0436 19.9111 5.504C19.9111 5.88557 19.8112 6.21097 19.6391 6.51879C19.4214 6.90797 19.0882 7.26904 18.6951 7.68L14.2151 12.336V13.92H22.1831V12.048H17.1911L20.0071 9.168C20.045 9.12862 20.0825 9.08947 20.1195 9.05056C20.1208 9.04914 20.1222 9.04773 20.1235 9.04632C20.6107 8.53397 21.02 8.06056 21.3314 7.58669ZM17.9129 5.50273C17.9131 5.50234 17.913 5.50273 17.9129 5.50273Z" fill="black"/>
</svg>