<svg width="375" height="265" viewBox="0 0 375 265" fill="none" xmlns="http://www.w3.org/2000/svg">
<path fill-rule="evenodd" clip-rule="evenodd" d="M-443.881 678.883L773.231 678.883L773.231 43.6403L786.702 30.1696C789.826 27.0453 789.826 21.98 786.702 18.8558L770.189 2.34326C767.065 -0.780947 762 -0.780947 758.875 2.34326L751.45 9.76873C748.326 12.8929 743.26 12.8929 740.136 9.76873L732.711 2.34326C729.587 -0.780889 724.521 -0.780889 721.397 2.34326L713.972 9.76873C710.847 12.8929 705.782 12.8929 702.658 9.76873L695.232 2.34325C692.108 -0.780892 687.043 -0.780893 683.919 2.34325L676.493 9.76885C673.369 12.8931 668.304 12.8931 665.179 9.76885L657.754 2.34325C654.63 -0.780896 649.564 -0.780896 646.44 2.34325L639.015 9.76872C635.891 12.8929 630.825 12.8929 627.701 9.76872L620.276 2.34325C617.151 -0.780899 612.086 -0.780899 608.962 2.34325L601.536 9.76872C598.412 12.8929 593.347 12.8929 590.223 9.76872L582.797 2.3433C579.673 -0.780902 574.608 -0.780903 571.484 2.3433L564.058 9.76884C560.934 12.893 555.868 12.893 552.744 9.76884L545.319 2.3433C542.195 -0.780905 537.129 -0.780906 534.005 2.3433L526.58 9.76871C523.455 12.8929 518.39 12.8929 515.266 9.76871L507.84 2.3433C504.716 -0.780909 499.651 -0.780909 496.527 2.3433L489.101 9.76883C485.977 12.893 480.912 12.893 477.787 9.76883L470.362 2.34329C467.238 -0.780912 462.172 -0.780912 459.048 2.34329L451.623 9.76871C448.499 12.8929 443.433 12.8929 440.309 9.76871L432.884 2.34329C429.759 -0.780915 424.694 -0.780916 421.57 2.34329L414.144 9.76871C411.02 12.8929 405.955 12.8929 402.831 9.7687L395.405 2.34329C392.281 -0.780918 387.216 -0.780919 384.092 2.34329L376.666 9.76882C373.542 12.893 368.477 12.893 365.352 9.76882L357.927 2.34329C354.803 -0.780922 349.737 -0.780922 346.613 2.34328L339.188 9.7687C336.063 12.8929 330.998 12.8929 327.874 9.7687L320.448 2.34328C317.324 -0.780925 312.259 -0.780925 309.135 2.34328L301.709 9.7687C298.585 12.8929 293.52 12.8929 290.396 9.76869L282.97 2.34328C279.846 -0.780928 274.781 -0.780929 271.656 2.34328L264.231 9.76869C261.107 12.8929 256.041 12.8929 252.917 9.76869L245.492 2.34328C242.368 -0.780932 237.302 -0.780932 234.178 2.34327L226.753 9.76881C223.628 12.893 218.563 12.893 215.439 9.76881L208.013 2.34327C204.889 -0.780935 199.824 -0.780935 196.7 2.34327L189.274 9.76881C186.15 12.893 181.085 12.893 177.96 9.76881L170.535 2.34327C167.411 -0.780938 162.345 -0.780939 159.221 2.34327L151.796 9.76874C148.671 12.8929 143.606 12.8929 140.482 9.76874L133.056 2.34327C129.932 -0.780941 124.867 -0.780942 121.743 2.34326L114.317 9.76874C111.193 12.8929 106.128 12.8929 103.004 9.76874L95.5781 2.34326C92.454 -0.780884 87.3886 -0.780945 84.2644 2.34326L76.8389 9.76874C73.7147 12.8929 68.6494 12.8929 65.5253 9.76874L58.0997 2.34326C54.9755 -0.780948 49.9102 -0.780887 46.7861 2.34326L39.3606 9.76873C36.2364 12.8929 31.1711 12.8929 28.0469 9.76867L20.6215 2.34326C17.4973 -0.780951 12.4319 -0.780952 9.3078 2.34325L1.8822 9.76879C-1.24195 12.893 -6.30731 12.893 -9.43146 9.76879L-16.857 2.34331C-19.9811 -0.780893 -25.0465 -0.780894 -28.1707 2.34325L-35.5961 9.76873C-38.7203 12.8929 -43.7856 12.8929 -46.9098 9.76873L-54.3353 2.34325C-57.4595 -0.780958 -62.5248 -0.780897 -65.6489 2.34325L-73.0745 9.76878C-76.1987 12.893 -81.264 12.893 -84.3882 9.76878L-91.8137 2.34331C-94.9379 -0.7809 -100.003 -0.7809 -103.127 2.34331L-110.553 9.76878C-113.677 12.8929 -118.742 12.8929 -121.867 9.76878L-129.292 2.34324C-132.416 -0.780903 -137.482 -0.780904 -140.606 2.34324L-148.031 9.76884C-151.156 12.893 -156.221 12.893 -159.345 9.76884L-166.771 2.3433C-169.895 -0.780907 -174.96 -0.780907 -178.084 2.3433L-185.51 9.76871C-188.634 12.8929 -193.699 12.8929 -196.823 9.76871L-204.249 2.3433C-207.373 -0.78091 -212.438 -0.78091 -215.563 2.3433L-222.988 9.76877C-226.112 12.893 -231.178 12.893 -234.302 9.76877L-241.727 2.34329C-244.852 -0.780913 -249.917 -0.780914 -253.041 2.34323L-260.466 9.76877C-263.591 12.893 -268.656 12.893 -271.78 9.76877L-279.206 2.34329C-282.33 -0.780916 -287.395 -0.780917 -290.519 2.34329L-297.945 9.76876C-301.069 12.893 -306.134 12.893 -309.259 9.76876L-316.684 2.34329C-319.808 -0.78092 -324.874 -0.78092 -327.998 2.34329L-335.423 9.76876C-338.548 12.893 -343.613 12.893 -346.737 9.76876L-354.162 2.34328C-357.287 -0.780923 -362.352 -0.780923 -365.476 2.34328L-372.902 9.7687C-376.026 12.8929 -381.091 12.8929 -384.215 9.7687L-391.641 2.34328C-394.765 -0.780926 -399.83 -0.780927 -402.954 2.34328L-410.38 9.76876C-413.504 12.893 -418.57 12.893 -421.694 9.76875L-429.119 2.34328C-432.243 -0.78093 -437.309 -0.78093 -440.433 2.34328L-456.945 18.8558C-460.07 21.9801 -460.07 27.0454 -456.945 30.1696L-443.881 43.2338L-443.881 678.883Z" fill="#FBB03B"/>
</svg>
