<svg width="365" height="299" viewBox="0 0 365 299" fill="none" xmlns="http://www.w3.org/2000/svg">
<path d="M38 122C38 155.653 35.8193 186.098 32.3011 208.109C30.5408 219.123 28.4526 227.979 26.1548 234.059C25.0039 237.105 23.8219 239.395 22.6418 240.906C21.448 242.434 20.3914 243 19.5 243C18.6086 243 17.552 242.434 16.3582 240.906C15.1781 239.395 13.9961 237.105 12.8452 234.059C10.5474 227.979 8.45923 219.123 6.69888 208.109C3.18072 186.098 1 155.653 1 122C1 88.3466 3.18072 57.9019 6.69888 35.8908C8.45923 24.8773 10.5474 16.0212 12.8452 9.94086C13.9961 6.89523 15.1781 4.60495 16.3582 3.09418C17.552 1.56571 18.6086 1 19.5 1C20.3914 1 21.448 1.56571 22.6418 3.09418C23.8219 4.60495 25.0039 6.89523 26.1548 9.94086C28.4526 16.0212 30.5408 24.8773 32.3011 35.8908C35.8193 57.9019 38 88.3466 38 122Z" fill="#2A164A" stroke="black" stroke-width="2"/>
<path fill-rule="evenodd" clip-rule="evenodd" d="M189.329 256.983C214.631 234.17 233.949 193.782 245.114 152.333L253.805 154.674C242.452 196.817 222.535 239.163 195.356 263.667C181.689 275.989 165.97 283.985 148.458 284.865C130.924 285.746 112.245 279.461 92.7446 264.46C82.0482 256.232 71.9067 247.323 62.1853 238.784C56.0981 233.437 50.1756 228.235 44.3847 223.435C31.1615 212.474 18.1757 203.186 4 197.321C3.5 193 3.49999 191 3 187.285C20.2731 193.52 35.4207 204.315 50.1282 216.506C56.363 221.674 62.4341 227.012 68.5624 232.401C78.0427 240.737 87.6599 249.194 98.2321 257.326C116.482 271.365 133.111 276.625 148.006 275.877C162.923 275.127 176.756 268.319 189.329 256.983Z" fill="black"/>
<path fill-rule="evenodd" clip-rule="evenodd" d="M215.893 195.585C215.758 181.009 215.673 166.657 216.856 154.585L225.813 155.463C224.686 166.966 224.757 180.814 224.892 195.502C224.899 196.178 224.905 196.856 224.911 197.536C225.043 211.502 225.18 226.087 224.283 239.552C223.347 253.61 221.262 266.928 216.583 277.312C211.823 287.875 204.161 295.799 192.182 297.921C169.327 301.97 153.393 288.168 141.145 271.622C135.032 263.363 129.569 254.069 124.447 245.355L124.333 245.16C119.113 236.279 114.283 228.082 109.296 221.64C88.9161 195.313 67.0383 175.917 26.6191 172.484L26.5484 172.478L26.4779 172.47C18.2696 171.511 9.95842 171.31 1.67056 171.624L1.32941 162.631C9.96041 162.304 18.7203 162.507 27.4515 163.522C71.3053 167.268 95.2225 188.757 116.413 216.131C121.804 223.095 126.92 231.8 132.043 240.515L132.092 240.6C137.297 249.455 142.555 258.399 148.379 266.268C160.099 282.101 173.041 292.172 190.612 289.059C198.846 287.6 204.455 282.319 208.377 273.615C212.379 264.733 214.386 252.723 215.303 238.953C216.177 225.841 216.043 211.568 215.911 197.498C215.905 196.86 215.899 196.222 215.893 195.585Z" fill="black"/>
<mask id="path-4-inside-1_2655_2012" fill="white">
<path fill-rule="evenodd" clip-rule="evenodd" d="M205.704 81.2905H1.1L0.7 89L0 112.353H205.626C205.633 112.353 205.639 112.353 205.646 112.353C205.652 112.353 205.659 112.353 205.665 112.353H205.704V112.352C209.478 112.281 212.528 105.355 212.528 96.8216C212.528 88.2881 209.478 81.362 205.704 81.2911V81.2905Z"/>
</mask>
<path fill-rule="evenodd" clip-rule="evenodd" d="M205.704 81.2905H1.1L0.7 89L0 112.353H205.626C205.633 112.353 205.639 112.353 205.646 112.353C205.652 112.353 205.659 112.353 205.665 112.353H205.704V112.352C209.478 112.281 212.528 105.355 212.528 96.8216C212.528 88.2881 209.478 81.362 205.704 81.2911V81.2905Z" fill="#FBB03B"/>
<path d="M1.1 81.2905V79.7905H-0.324191L-0.397985 81.2128L1.1 81.2905ZM205.704 81.2905H207.204V79.7905H205.704V81.2905ZM0.7 89L-0.797985 88.9223L-0.798835 88.9387L-0.799327 88.9551L0.7 89ZM0 112.353L-1.49933 112.308L-1.54564 113.853H0V112.353ZM205.626 112.353L205.636 110.853H205.626V112.353ZM205.665 112.353V110.853L205.656 110.853L205.665 112.353ZM205.704 112.353V113.853H207.204V112.353H205.704ZM205.704 112.352L205.676 110.852L204.204 110.88V112.352H205.704ZM205.704 81.2911H204.204V82.7632L205.676 82.7909L205.704 81.2911ZM1.1 82.7905H205.704V79.7905H1.1V82.7905ZM2.19799 89.0777L2.59799 81.3682L-0.397985 81.2128L-0.797985 88.9223L2.19799 89.0777ZM1.49933 112.398L2.19933 89.0449L-0.799327 88.9551L-1.49933 112.308L1.49933 112.398ZM205.626 110.853H0V113.853H205.626V110.853ZM205.646 110.853C205.643 110.853 205.639 110.853 205.636 110.853L205.617 113.853C205.626 113.853 205.636 113.853 205.646 113.853V110.853ZM205.656 110.853C205.652 110.853 205.649 110.853 205.646 110.853V113.853C205.656 113.853 205.665 113.853 205.675 113.853L205.656 110.853ZM205.704 110.853H205.665V113.853H205.704V110.853ZM204.204 112.352V112.353H207.204V112.352H204.204ZM211.028 96.8216C211.028 100.93 210.291 104.58 209.158 107.157C208.591 108.447 207.953 109.403 207.318 110.019C206.689 110.63 206.135 110.844 205.676 110.852L205.732 113.852C207.16 113.825 208.403 113.147 209.407 112.172C210.406 111.203 211.238 109.881 211.905 108.364C213.24 105.326 214.028 101.247 214.028 96.8216H211.028ZM205.676 82.7909C206.135 82.7995 206.689 83.0136 207.318 83.624C207.953 84.2406 208.591 85.1967 209.158 86.4866C210.291 89.063 211.028 92.7135 211.028 96.8216H214.028C214.028 92.3962 213.24 88.3169 211.905 85.2792C211.238 83.7621 210.406 82.44 209.407 81.4713C208.403 80.4965 207.16 79.8182 205.732 79.7914L205.676 82.7909ZM204.204 81.2905V81.2911H207.204V81.2905H204.204Z" fill="black" mask="url(#path-4-inside-1_2655_2012)"/>
<mask id="path-6-inside-2_2655_2012" fill="white">
<path fill-rule="evenodd" clip-rule="evenodd" d="M211.868 120.062C217.437 120.062 221.951 113.108 221.951 104.531C221.951 96.0209 217.508 89.1095 212 89.0011V89H211.926C211.907 88.9998 211.887 88.9998 211.868 88.9998C211.849 88.9998 211.83 88.9998 211.811 89H0.7L0.25 96.75L0 110V120H210.963C211.261 120.041 211.563 120.062 211.868 120.062Z"/>
</mask>
<path fill-rule="evenodd" clip-rule="evenodd" d="M211.868 120.062C217.437 120.062 221.951 113.108 221.951 104.531C221.951 96.0209 217.508 89.1095 212 89.0011V89H211.926C211.907 88.9998 211.887 88.9998 211.868 88.9998C211.849 88.9998 211.83 88.9998 211.811 89H0.7L0.25 96.75L0 110V120H210.963C211.261 120.041 211.563 120.062 211.868 120.062Z" fill="#FBB03B"/>
<path d="M212 89.0011H210.5V90.4718L211.97 90.5008L212 89.0011ZM212 89H213.5V87.5H212V89ZM211.926 89L211.913 90.5H211.926V89ZM211.811 89V90.5001L211.824 90.4999L211.811 89ZM0.7 89V87.5H-0.71543L-0.797478 88.913L0.7 89ZM0.25 96.75L-1.24748 96.663L-1.24918 96.6924L-1.24973 96.7217L0.25 96.75ZM0 110L-1.49973 109.972L-1.5 109.986V110H0ZM0 120H-1.5V121.5H0V120ZM210.963 120L211.167 118.514L211.065 118.5H210.963V120ZM220.451 104.531C220.451 108.573 219.384 112.162 217.74 114.696C216.085 117.244 213.976 118.562 211.868 118.562V121.562C215.329 121.562 218.261 119.403 220.256 116.33C222.26 113.242 223.451 109.067 223.451 104.531H220.451ZM211.97 90.5008C214.058 90.5419 216.145 91.8793 217.778 94.4252C219.401 96.9558 220.451 100.521 220.451 104.531H223.451C223.451 100.03 222.279 95.8852 220.303 92.8056C218.338 89.7412 215.45 87.5687 212.03 87.5013L211.97 90.5008ZM210.5 89V89.0011H213.5V89H210.5ZM211.926 90.5H212V87.5H211.926V90.5ZM211.868 90.4998C211.883 90.4998 211.898 90.4998 211.913 90.4999L211.938 87.5001C211.915 87.4999 211.892 87.4998 211.868 87.4998V90.4998ZM211.824 90.4999C211.839 90.4998 211.854 90.4998 211.868 90.4998V87.4998C211.845 87.4998 211.822 87.4999 211.798 87.5001L211.824 90.4999ZM0.7 90.5H211.811V87.5H0.7V90.5ZM1.74748 96.837L2.19748 89.087L-0.797478 88.913L-1.24748 96.663L1.74748 96.837ZM1.49973 110.028L1.74973 96.7783L-1.24973 96.7217L-1.49973 109.972L1.49973 110.028ZM1.5 120V110H-1.5V120H1.5ZM210.963 118.5H0V121.5H210.963V118.5ZM211.868 118.562C211.632 118.562 211.398 118.546 211.167 118.514L210.759 121.486C211.124 121.536 211.495 121.562 211.868 121.562V118.562Z" fill="black" mask="url(#path-6-inside-2_2655_2012)"/>
<path d="M149.122 82.407L157.75 89.6194V100.226H160.205C162.9 100.226 165.084 102.41 165.084 105.105V105.105C165.084 107.8 162.9 109.984 160.205 109.984H157.75V118.893" stroke="black" stroke-width="1.5"/>
<circle cx="176.106" cy="104.831" r="4.19088" stroke="black" stroke-width="1.5"/>
<path d="M323.44 31.1091L360.439 48.3365L228.752 183.149L200.245 162.009C198.21 160.5 197.01 158.116 197.01 155.583V38.3615C197.01 33.9432 200.592 30.3615 205.01 30.3615H320.063C321.229 30.3615 322.382 30.6167 323.44 31.1091Z" fill="#FF8B6E" stroke="black" stroke-width="1.5"/>
<rect x="-0.75" y="0.75" width="137.605" height="136.845" rx="7.25" transform="matrix(-1 0 0 1 363.5 47.0845)" fill="#FF8B6E" stroke="black" stroke-width="1.5"/>
<path fill-rule="evenodd" clip-rule="evenodd" d="M295.84 96.4932L295.882 96.4932L295.924 96.4932C297.431 96.4949 298.652 97.7183 298.65 99.2257C298.648 100.733 297.425 101.954 295.918 101.952L295.882 101.952L295.846 101.952C294.339 101.954 293.116 100.733 293.114 99.2257C293.112 97.7183 294.333 96.4949 295.84 96.4932ZM303.7 100.017C304.164 98.5829 305.703 97.7963 307.137 98.2602C307.164 98.2688 307.19 98.2774 307.216 98.286C308.65 98.7532 309.433 100.294 308.965 101.727C308.498 103.16 306.958 103.943 305.525 103.476C305.502 103.469 305.48 103.461 305.457 103.454C304.023 102.99 303.236 101.451 303.7 100.017ZM288.064 100.017C288.527 101.451 287.741 102.99 286.307 103.454C286.284 103.461 286.262 103.469 286.239 103.476C284.806 103.943 283.266 103.16 282.798 101.727C282.331 100.294 283.114 98.7532 284.547 98.286C284.574 98.2774 284.6 98.2688 284.627 98.2602C286.061 97.7963 287.6 98.5829 288.064 100.017ZM313.517 104.052C314.403 102.832 316.11 102.561 317.329 103.447C317.352 103.463 317.374 103.479 317.397 103.496C318.614 104.384 318.881 106.091 317.993 107.309C317.105 108.527 315.397 108.794 314.179 107.905C314.16 107.892 314.141 107.878 314.122 107.864C312.902 106.978 312.632 105.271 313.517 104.052ZM278.247 104.052C279.132 105.271 278.861 106.978 277.642 107.864C277.623 107.878 277.604 107.892 277.584 107.905C276.367 108.794 274.659 108.527 273.771 107.309C272.883 106.091 273.15 104.384 274.367 103.496C274.39 103.479 274.412 103.463 274.435 103.447C275.654 102.561 277.361 102.832 278.247 104.052ZM321.607 110.923C322.825 110.035 324.532 110.302 325.42 111.519C325.437 111.542 325.453 111.564 325.469 111.587C326.355 112.806 326.084 114.513 324.864 115.399C323.644 116.284 321.938 116.013 321.052 114.794C321.042 114.78 321.032 114.766 321.022 114.752L321.01 114.736C320.122 113.519 320.389 111.811 321.607 110.923ZM270.157 110.923C271.375 111.811 271.642 113.519 270.753 114.736C270.746 114.747 270.738 114.758 270.73 114.769C270.724 114.777 270.718 114.786 270.712 114.794C269.826 116.013 268.119 116.284 266.9 115.399C265.68 114.513 265.409 112.806 266.295 111.587C266.311 111.564 266.327 111.542 266.344 111.519C267.232 110.302 268.939 110.035 270.157 110.923ZM327.189 119.95C328.622 119.483 330.163 120.266 330.63 121.699C330.639 121.726 330.647 121.752 330.656 121.779C331.12 123.213 330.333 124.752 328.899 125.216C327.465 125.679 325.926 124.893 325.462 123.459C325.455 123.436 325.447 123.414 325.44 123.391C324.973 121.958 325.756 120.418 327.189 119.95ZM264.575 119.95C266.008 120.418 266.791 121.958 266.324 123.391C266.317 123.414 266.309 123.436 266.302 123.459C265.838 124.893 264.299 125.679 262.865 125.216C261.431 124.752 260.644 123.213 261.108 121.779C261.117 121.752 261.125 121.726 261.134 121.699C261.601 120.266 263.142 119.483 264.575 119.95ZM262.074 130.266C263.581 130.268 264.802 131.491 264.8 132.998L264.8 133.034L264.8 133.07C264.802 134.577 263.581 135.8 262.074 135.802C260.566 135.804 259.343 134.583 259.341 133.076L259.341 133.034L259.341 132.992C259.343 131.485 260.566 130.264 262.074 130.266ZM329.69 130.266C331.198 130.264 332.421 131.485 332.423 132.992L332.423 133.034L332.423 133.076C332.421 134.583 331.198 135.804 329.69 135.802C328.183 135.8 326.962 134.577 326.964 133.07L326.964 133.034L326.964 132.998C326.962 131.491 328.183 130.268 329.69 130.266ZM328.899 140.852C330.333 141.316 331.12 142.855 330.656 144.289C330.647 144.316 330.639 144.342 330.63 144.368C330.163 145.802 328.622 146.585 327.189 146.117C325.756 145.65 324.973 144.11 325.44 142.677C325.447 142.654 325.455 142.632 325.462 142.609C325.926 141.175 327.465 140.388 328.899 140.852ZM262.865 140.852C264.299 140.388 265.838 141.175 266.302 142.609C266.309 142.632 266.317 142.654 266.324 142.677C266.791 144.11 266.008 145.65 264.575 146.117C263.142 146.585 261.601 145.802 261.134 144.368C261.125 144.342 261.117 144.316 261.108 144.289C260.644 142.855 261.431 141.316 262.865 140.852ZM324.864 150.669C326.084 151.555 326.355 153.262 325.469 154.481L325.447 154.511C325.438 154.524 325.429 154.536 325.42 154.549C324.532 155.766 322.825 156.033 321.607 155.145C320.389 154.257 320.122 152.549 321.01 151.331L321.028 151.307C321.036 151.296 321.044 151.285 321.052 151.274C321.938 150.054 323.644 149.784 324.864 150.669ZM266.9 150.669C268.119 149.784 269.826 150.054 270.712 151.274C270.726 151.293 270.74 151.312 270.753 151.331C271.642 152.549 271.375 154.257 270.157 155.145C268.939 156.033 267.232 155.766 266.344 154.549C266.327 154.526 266.311 154.504 266.295 154.481C265.409 153.262 265.68 151.555 266.9 150.669ZM317.993 158.759C318.881 159.977 318.614 161.684 317.397 162.572L317.366 162.594C317.354 162.603 317.342 162.612 317.329 162.621C316.11 163.507 314.403 163.236 313.517 162.016C312.632 160.796 312.902 159.09 314.122 158.204C314.141 158.19 314.16 158.176 314.179 158.162C315.397 157.274 317.105 157.541 317.993 158.759ZM273.771 158.759C274.659 157.541 276.367 157.274 277.584 158.162C277.604 158.176 277.623 158.19 277.642 158.204C278.861 159.09 279.132 160.796 278.247 162.016C277.361 163.236 275.654 163.507 274.435 162.621C274.412 162.605 274.39 162.589 274.367 162.572C273.15 161.684 272.883 159.977 273.771 158.759ZM308.966 164.341C309.433 165.774 308.65 167.315 307.216 167.782C307.19 167.79 307.164 167.799 307.137 167.808C305.703 168.272 304.164 167.485 303.7 166.051C303.236 164.617 304.023 163.078 305.457 162.614C305.48 162.607 305.502 162.599 305.525 162.592C306.958 162.125 308.498 162.908 308.966 164.341ZM282.798 164.341C283.266 162.908 284.806 162.125 286.239 162.592C286.262 162.599 286.284 162.607 286.307 162.614C287.741 163.078 288.527 164.617 288.064 166.051C287.6 167.485 286.061 168.272 284.627 167.808C284.6 167.799 284.574 167.791 284.547 167.782C283.114 167.315 282.331 165.774 282.798 164.341ZM293.114 166.842C293.116 165.335 294.339 164.114 295.846 164.116L295.882 164.116L295.918 164.116C297.425 164.114 298.648 165.335 298.65 166.842C298.652 168.35 297.431 169.573 295.924 169.575L295.882 169.575L295.84 169.575C294.333 169.573 293.112 168.35 293.114 166.842Z" fill="black"/>
<path fill-rule="evenodd" clip-rule="evenodd" d="M295.834 107.9C295.85 107.899 295.866 107.899 295.882 107.899C295.898 107.899 295.914 107.899 295.93 107.9C297.437 107.902 298.657 109.127 298.654 110.634C298.651 112.141 297.427 113.361 295.92 113.358C295.911 113.358 295.903 113.358 295.895 113.358L295.882 113.358C295.869 113.358 295.857 113.358 295.844 113.358C294.337 113.361 293.113 112.141 293.11 110.634C293.107 109.127 294.327 107.902 295.834 107.9ZM304.684 112.244C305.437 110.937 307.106 110.489 308.412 111.241C308.439 111.257 308.467 111.273 308.494 111.289C309.798 112.046 310.24 113.717 309.483 115.02C308.725 116.323 307.055 116.766 305.752 116.008C305.73 115.996 305.709 115.983 305.687 115.971C304.381 115.219 303.932 113.55 304.684 112.244ZM287.079 112.244C287.832 113.55 287.383 115.219 286.077 115.971C286.055 115.983 286.034 115.996 286.012 116.008C284.709 116.766 283.038 116.323 282.281 115.02C281.524 113.717 281.966 112.046 283.269 111.289C283.297 111.273 283.324 111.257 283.352 111.241C284.658 110.489 286.327 110.937 287.079 112.244ZM313.896 119.433C315.199 118.676 316.87 119.118 317.627 120.421C317.643 120.449 317.659 120.476 317.675 120.504C318.427 121.81 317.978 123.479 316.672 124.231C315.366 124.984 313.697 124.535 312.945 123.229C312.932 123.207 312.92 123.186 312.907 123.164C312.15 121.861 312.593 120.19 313.896 119.433ZM277.868 119.433C279.171 120.19 279.614 121.861 278.856 123.164C278.851 123.173 278.846 123.182 278.841 123.19C278.834 123.203 278.826 123.216 278.819 123.229C278.067 124.535 276.398 124.984 275.092 124.231C273.785 123.479 273.337 121.81 274.089 120.504C274.105 120.476 274.121 120.449 274.137 120.421C274.894 119.118 276.565 118.676 277.868 119.433ZM318.282 130.262C319.789 130.259 321.014 131.479 321.016 132.986C321.016 133.002 321.016 133.018 321.016 133.034C321.016 133.05 321.016 133.066 321.016 133.082C321.014 134.589 319.789 135.809 318.282 135.806C316.775 135.803 315.555 134.579 315.558 133.072C315.558 133.059 315.558 133.046 315.558 133.034C315.558 133.021 315.558 133.009 315.558 132.996C315.555 131.489 316.775 130.265 318.282 130.262ZM273.482 130.262C274.989 130.265 276.209 131.489 276.206 132.996C276.206 133.009 276.206 133.021 276.206 133.034C276.206 133.046 276.206 133.059 276.206 133.072C276.209 134.579 274.989 135.803 273.482 135.806C271.975 135.809 270.75 134.589 270.747 133.082C270.747 133.066 270.747 133.05 270.747 133.034C270.747 133.026 270.747 133.018 270.747 133.011C270.747 133.003 270.747 132.994 270.747 132.986C270.75 131.479 271.975 130.259 273.482 130.262ZM316.672 141.836C317.978 142.589 318.427 144.258 317.675 145.564C317.659 145.591 317.643 145.619 317.627 145.646C316.87 146.95 315.199 147.392 313.896 146.635C312.593 145.877 312.15 144.207 312.907 142.904C312.916 142.888 312.925 142.873 312.934 142.858L312.945 142.839C313.697 141.533 315.366 141.084 316.672 141.836ZM275.092 141.836C276.398 141.084 278.067 141.533 278.819 142.839C278.831 142.861 278.844 142.882 278.856 142.904C279.614 144.207 279.171 145.877 277.868 146.635C276.565 147.392 274.894 146.95 274.137 145.646C274.121 145.619 274.105 145.591 274.089 145.564C273.337 144.258 273.785 142.589 275.092 141.836ZM309.483 151.048C310.24 152.351 309.798 154.022 308.494 154.779C308.467 154.795 308.439 154.811 308.412 154.827C307.106 155.579 305.437 155.13 304.684 153.824C303.932 152.518 304.381 150.849 305.687 150.097C305.7 150.089 305.713 150.082 305.726 150.074C305.735 150.069 305.743 150.064 305.752 150.059C307.055 149.302 308.725 149.745 309.483 151.048ZM282.281 151.048C283.038 149.745 284.709 149.302 286.012 150.059C286.034 150.072 286.055 150.084 286.077 150.097C287.383 150.849 287.832 152.518 287.079 153.824C286.327 155.13 284.658 155.579 283.352 154.827C283.324 154.811 283.297 154.795 283.269 154.779C281.966 154.022 281.524 152.351 282.281 151.048ZM293.11 155.434C293.113 153.927 294.337 152.707 295.844 152.71L295.882 152.71C295.894 152.71 295.907 152.71 295.92 152.71C297.427 152.707 298.651 153.927 298.654 155.434C298.657 156.941 297.437 158.166 295.93 158.168C295.92 158.168 295.91 158.168 295.9 158.168L295.882 158.168C295.866 158.168 295.85 158.168 295.834 158.168C294.327 158.166 293.107 156.941 293.11 155.434Z" fill="black"/>
<path fill-rule="evenodd" clip-rule="evenodd" d="M295.838 118.409C295.853 118.409 295.867 118.409 295.882 118.409C295.897 118.409 295.912 118.409 295.926 118.409C297.434 118.414 298.652 119.64 298.648 121.147C298.643 122.654 297.418 123.873 295.91 123.868C295.901 123.868 295.891 123.868 295.882 123.868C295.873 123.868 295.863 123.868 295.854 123.868C294.347 123.873 293.121 122.654 293.117 121.147C293.112 119.64 294.331 118.414 295.838 118.409ZM289.432 122.673C290.495 123.742 290.49 125.47 289.421 126.533C289.408 126.546 289.394 126.559 289.381 126.572C288.319 127.641 286.591 127.647 285.522 126.584C284.452 125.521 284.447 123.793 285.51 122.724C285.531 122.703 285.552 122.682 285.572 122.662C286.641 121.599 288.37 121.604 289.432 122.673ZM302.332 122.673C303.395 121.604 305.123 121.599 306.192 122.662C306.213 122.682 306.234 122.703 306.254 122.724C307.317 123.793 307.312 125.521 306.243 126.584C305.174 127.647 303.446 127.641 302.383 126.572C302.37 126.559 302.357 126.546 302.344 126.533C301.275 125.47 301.269 123.742 302.332 122.673ZM307.769 130.268C309.276 130.264 310.502 131.482 310.507 132.99C310.507 133.004 310.507 133.019 310.507 133.034C310.507 133.049 310.507 133.063 310.507 133.078C310.502 134.585 309.276 135.804 307.769 135.799C306.262 135.795 305.043 134.569 305.048 133.062C305.048 133.056 305.048 133.051 305.048 133.045L305.048 133.034C305.048 133.025 305.048 133.015 305.048 133.006C305.043 131.498 306.262 130.273 307.769 130.268ZM283.995 130.268C285.503 130.273 286.721 131.498 286.716 133.006C286.716 133.015 286.716 133.025 286.716 133.034C286.716 133.043 286.716 133.053 286.716 133.062C286.721 134.569 285.503 135.795 283.995 135.799C282.488 135.804 281.262 134.585 281.258 133.078C281.258 133.063 281.258 133.049 281.258 133.034C281.258 133.024 281.258 133.015 281.258 133.005C281.258 133 281.258 132.995 281.258 132.99C281.262 131.482 282.488 130.264 283.995 130.268ZM285.522 139.484C286.591 138.421 288.319 138.426 289.381 139.495C289.394 139.508 289.408 139.522 289.421 139.535C290.49 140.597 290.495 142.325 289.432 143.394C288.37 144.464 286.641 144.469 285.572 143.406C285.552 143.385 285.531 143.365 285.51 143.344C284.447 142.275 284.452 140.546 285.522 139.484ZM306.243 139.484C307.312 140.546 307.317 142.275 306.254 143.344C306.234 143.365 306.213 143.385 306.192 143.406C305.123 144.469 303.395 144.464 302.332 143.394C301.269 142.325 301.275 140.597 302.344 139.535C302.357 139.522 302.37 139.508 302.383 139.495C303.446 138.426 305.174 138.421 306.243 139.484ZM293.117 144.921C293.121 143.413 294.347 142.195 295.854 142.2C295.863 142.2 295.873 142.2 295.882 142.2C295.891 142.2 295.901 142.2 295.91 142.2C297.418 142.195 298.643 143.413 298.648 144.921C298.652 146.428 297.434 147.654 295.926 147.658C295.912 147.658 295.897 147.658 295.882 147.658C295.874 147.658 295.866 147.658 295.858 147.658C295.851 147.658 295.845 147.658 295.838 147.658C294.331 147.654 293.112 146.428 293.117 144.921Z" fill="black"/>
<path d="M298.815 133.034C298.815 134.654 297.502 135.967 295.882 135.967C294.262 135.967 292.949 134.654 292.949 133.034C292.949 131.414 294.262 130.101 295.882 130.101C297.502 130.101 298.815 131.414 298.815 133.034Z" fill="black"/>
<path d="M197.01 38.723L226.655 56.9662" stroke="black" stroke-width="1.5"/>
<path d="M207.652 30.3615L235.777 47.8446" stroke="black" stroke-width="1.5"/>
<path d="M296.664 26V36.776L304.326 41.7014H331.142V28.1191C331.142 27.0425 330.565 26.0485 329.63 25.5143L325.555 23.1858C324.195 22.4087 322.656 22 321.09 22H300.664C298.455 22 296.664 23.7909 296.664 26Z" fill="#FF8B6E" stroke="black" stroke-width="1.5"/>
<path d="M304.326 41.7015V30.9254C304.326 28.7163 306.117 26.9254 308.326 26.9254H327.142C329.351 26.9254 331.142 28.7163 331.142 30.9254V41.7015" stroke="black" stroke-width="1.5"/>
<path d="M262.734 26V36.776L270.395 41.7014H297.211V28.1191C297.211 27.0425 296.634 26.0485 295.7 25.5143L291.625 23.1858C290.265 22.4087 288.726 22 287.159 22H266.734C264.525 22 262.734 23.7909 262.734 26Z" fill="#FF8B6E" stroke="black" stroke-width="1.5"/>
<path d="M270.395 41.7015V30.9254C270.395 28.7163 272.186 26.9254 274.395 26.9254H293.211C295.42 26.9254 297.211 28.7163 297.211 30.9254V41.7015" stroke="black" stroke-width="1.5"/>
<path d="M228.803 26V36.776L236.465 41.7014H263.281V28.1191C263.281 27.0425 262.704 26.0485 261.769 25.5143L257.694 23.1858C256.334 22.4087 254.795 22 253.229 22H232.803C230.594 22 228.803 23.7909 228.803 26Z" fill="#FF8B6E" stroke="black" stroke-width="1.5"/>
<path d="M236.465 41.7015V30.9254C236.465 28.7163 238.256 26.9254 240.465 26.9254H259.281C261.49 26.9254 263.281 28.7163 263.281 30.9254V41.7015" stroke="black" stroke-width="1.5"/>
<path d="M253.486 89.6087C246.826 88.0825 241.858 82.1199 241.858 74.997C241.858 66.7181 248.569 60.0068 256.848 60.0068C260.079 60.0068 263.071 61.0287 265.518 62.7669L275.265 68.1443L271.758 76.5608C271.448 79.5486 270.261 82.2758 268.458 84.4801L264.558 93.8418L253.486 89.6087Z" fill="#FF8B6E" stroke="black" stroke-width="1.5"/>
<circle cx="267.984" cy="80.1364" r="14.2402" fill="#FF8B6E" stroke="black" stroke-width="1.5"/>
<circle cx="268.083" cy="80.1503" r="4.94088" fill="black"/>
<path d="M243.571 67.716L255.135 73.7121" stroke="black" stroke-width="1.5"/>
<path fill-rule="evenodd" clip-rule="evenodd" d="M330.261 89.6089C323.6 88.0831 318.632 82.1203 318.632 74.997C318.632 66.7181 325.343 60.0068 333.622 60.0068C336.852 60.0068 339.843 61.0284 342.291 62.7661L352.039 68.1442L348.532 76.5614C348.222 79.5487 347.035 82.2756 345.232 84.4797L341.331 93.8417L330.261 89.6089Z" fill="#FF8B6E"/>
<path d="M330.261 89.6089L330.529 88.9084L330.48 88.8896L330.428 88.8778L330.261 89.6089ZM342.291 62.7661L341.856 63.3776L341.891 63.4022L341.928 63.4227L342.291 62.7661ZM352.039 68.1442L352.731 68.4327L352.989 67.8123L352.401 67.4876L352.039 68.1442ZM348.532 76.5614L347.839 76.2729L347.797 76.3745L347.786 76.484L348.532 76.5614ZM345.232 84.4797L344.652 84.0049L344.582 84.0899L344.54 84.1912L345.232 84.4797ZM341.331 93.8417L341.064 94.5422L341.744 94.8023L342.024 94.1302L341.331 93.8417ZM330.428 88.8778C324.101 87.4284 319.382 81.7629 319.382 74.997H317.882C317.882 82.4776 323.1 88.7378 330.093 90.34L330.428 88.8778ZM319.382 74.997C319.382 67.1323 325.757 60.7568 333.622 60.7568V59.2568C324.929 59.2568 317.882 66.3039 317.882 74.997H319.382ZM333.622 60.7568C336.691 60.7568 339.532 61.727 341.856 63.3776L342.725 62.1545C340.155 60.3297 337.013 59.2568 333.622 59.2568V60.7568ZM352.401 67.4876L342.653 62.1094L341.928 63.4227L351.676 68.8009L352.401 67.4876ZM349.224 76.8498L352.731 68.4327L351.346 67.8558L347.839 76.2729L349.224 76.8498ZM347.786 76.484C347.491 79.321 346.364 81.9106 344.652 84.0049L345.813 84.9544C347.705 82.6405 348.952 79.7765 349.278 76.6387L347.786 76.484ZM342.024 94.1302L345.925 84.7681L344.54 84.1912L340.639 93.5532L342.024 94.1302ZM329.993 90.3094L341.064 94.5422L341.599 93.1412L330.529 88.9084L329.993 90.3094Z" fill="black"/>
<circle cx="344.758" cy="80.1364" r="14.2402" fill="#FF8B6E" stroke="black" stroke-width="1.5"/>
<circle cx="344.758" cy="80.1364" r="5.67437" fill="black" stroke="#FF8B6E" stroke-width="1.5"/>
<path d="M327.198 61.7199L338.761 67.716" stroke="black" stroke-width="1.5"/>
</svg>
