<svg width="127" height="156" viewBox="0 0 127 156" fill="none" xmlns="http://www.w3.org/2000/svg">
<path d="M64.4575 145.199C91.9307 144.695 114.14 140.877 114.063 136.67C113.986 132.464 91.6515 129.462 64.1783 129.965C36.7051 130.469 14.4961 134.287 14.5732 138.494C14.6503 142.7 36.9843 145.702 64.4575 145.199Z" fill="black"/>
<path d="M62.3276 144.022C74.5745 143.797 84.4748 142.095 84.4404 140.22C84.4239 139.321 84.4404 108.812 84.4404 108.812L40.0905 108.812C40.0905 108.812 40.056 139.158 40.0903 141.033C40.1247 142.908 50.0807 144.246 62.3276 144.022Z" fill="#29ABE2" stroke="black" stroke-width="2"/>
<path d="M62.3761 122.047C89.8493 121.544 112.058 117.725 111.981 113.519C111.944 111.503 111.981 88.4998 111.981 88.4998L12.4921 88.4998C12.4921 88.4998 12.4147 111.135 12.4918 115.342C12.5689 119.549 34.9029 122.551 62.3761 122.047Z" fill="#FBB03B" stroke="black" stroke-width="2"/>
<ellipse cx="62.1445" cy="88" rx="50" ry="7" fill="#FB693B" stroke="black" stroke-width="2"/>
<path d="M62.349 91.3287C81.3623 90.9802 96.7325 88.3376 96.6791 85.4264C96.6535 84.0312 96.6791 62.191 96.6791 62.191L27.826 62.191C27.826 62.191 27.7724 83.7771 27.8258 86.6883C27.8791 89.5996 43.3357 91.6771 62.349 91.3287Z" fill="#FBB03B" stroke="black" stroke-width="2"/>
<ellipse cx="62.1445" cy="62" rx="34.5" ry="5" fill="#FB693B" stroke="black" stroke-width="2"/>
<path d="M62.3275 64.5529C74.5744 64.3285 84.4747 62.6264 84.4403 60.7511C84.4238 59.8525 84.4403 37.3434 84.4403 37.3434L40.0904 37.3434C40.0904 37.3434 40.0559 59.6888 40.0902 61.564C40.1246 63.4392 50.0806 64.7774 62.3275 64.5529Z" fill="#FBB03B" stroke="black" stroke-width="2"/>
<ellipse cx="62.3164" cy="37" rx="22.5" ry="3" fill="#FB693B" stroke="black" stroke-width="2"/>
<path d="M55 67.5V91" stroke="black" stroke-width="2"/>
<path d="M88 65V88.5" stroke="black" stroke-width="2"/>
<path d="M93 93L93 119.5" stroke="black" stroke-width="2"/>
<path d="M24 93L24 119.5" stroke="black" stroke-width="2"/>
<path d="M46 40V63.5" stroke="black" stroke-width="2"/>
<path d="M78 40V63.5" stroke="black" stroke-width="2"/>
</svg>
