<svg width="74" height="26" viewBox="0 0 74 26" fill="none" xmlns="http://www.w3.org/2000/svg">
<path d="M0 17.7452H3.01941C3.2061 18.6185 3.51859 19.3929 3.95689 20.0684C4.3952 20.7357 4.92684 21.3001 5.55183 21.7614C6.18493 22.2145 6.88297 22.5564 7.64594 22.7871C8.40891 23.0177 9.20434 23.1331 10.0322 23.1331C11.542 23.1331 12.9056 22.7459 14.1231 21.9715C15.3487 21.1971 16.3186 20.0561 17.0329 18.5485C17.7553 17.0409 18.1165 15.1914 18.1165 13C18.1165 10.8086 17.7553 8.95913 17.0329 7.45152C16.3186 5.94392 15.3487 4.80292 14.1231 4.02852C12.9056 3.25412 11.542 2.86692 10.0322 2.86692C9.20434 2.86692 8.40891 2.98226 7.64594 3.21293C6.88297 3.4436 6.18493 3.78961 5.55183 4.25095C4.92684 4.70406 4.3952 5.26426 3.95689 5.93156C3.51859 6.59886 3.2061 7.37326 3.01941 8.25475H0C0.235384 6.9531 0.649336 5.79563 1.24186 4.78232C1.84249 3.76077 2.58923 2.89575 3.48207 2.18726C4.3749 1.47053 5.37732 0.926807 6.48931 0.556084C7.60129 0.185361 8.78227 0 10.0322 0C12.1588 0 14.05 0.52725 15.7058 1.58175C17.3616 2.63625 18.6644 4.13562 19.614 6.07985C20.5637 8.02408 21.0385 10.3308 21.0385 13C21.0385 15.6692 20.5637 17.9759 19.614 19.9202C18.6644 21.8644 17.3616 23.3638 15.7058 24.4183C14.05 25.4727 12.1588 26 10.0322 26C8.78227 26 7.60129 25.8146 6.48931 25.4439C5.37732 25.0732 4.3749 24.5336 3.48207 23.8251C2.58923 23.1084 1.84249 22.2392 1.24186 21.2177C0.649336 20.1961 0.235384 19.0387 0 17.7452ZM10.1296 15.0266C9.52901 15.0266 9.0136 14.8083 8.58342 14.3717C8.15323 13.935 7.93814 13.4119 7.93814 12.8023C7.93814 12.1926 8.15323 11.6695 8.58342 11.2329C9.0136 10.7963 9.52901 10.5779 10.1296 10.5779C10.7303 10.5779 11.2457 10.7963 11.6759 11.2329C12.1061 11.6695 12.3212 12.1926 12.3212 12.8023C12.3212 13.206 12.2197 13.5767 12.0168 13.9144C11.822 14.2522 11.5582 14.5241 11.2254 14.73C10.9007 14.9278 10.5355 15.0266 10.1296 15.0266Z" fill="black"/>
<path d="M49.3912 6.673V9.39163H24.6027V6.673H49.3912ZM27.5004 6.673H30.7633C29.976 8.03232 29.3754 9.24335 28.9614 10.3061C28.5556 11.3688 28.2796 12.3739 28.1335 13.3213C27.9874 14.2687 27.9144 15.249 27.9144 16.2624C27.9144 18.4867 28.2634 20.2126 28.9614 21.4401C29.6595 22.6676 30.6091 23.2814 31.8104 23.2814C32.8737 23.2814 33.7219 22.7994 34.355 21.8356C34.9962 20.8717 35.3168 19.4753 35.3168 17.6464V13H37.6057V17.6464C37.6057 19.4341 37.3703 20.9499 36.8996 22.1939C36.4369 23.4379 35.7551 24.3853 34.8541 25.0361C33.9532 25.6787 32.8574 26 31.5669 26C30.1627 26 28.9614 25.6046 27.9631 24.8137C26.9728 24.0228 26.2139 22.8859 25.6863 21.403C25.1587 19.9119 24.8949 18.116 24.8949 16.0152C24.8949 14.2934 25.11 12.6622 25.5402 11.1217C25.9704 9.57288 26.6238 8.08999 27.5004 6.673ZM43.2306 6.673H46.4935C47.3701 8.08999 48.0235 9.57288 48.4537 11.1217C48.8839 12.6622 49.099 14.2934 49.099 16.0152C49.099 18.116 48.8352 19.9119 48.3076 21.403C47.78 22.8859 47.017 24.0228 46.0187 24.8137C45.0284 25.6046 43.8312 26 42.427 26C41.1365 26 40.0407 25.6787 39.1398 25.0361C38.2388 24.3853 37.553 23.4379 37.0822 22.1939C36.6195 20.9499 36.3882 19.4341 36.3882 17.6464V13H38.6771V17.6464C38.6771 19.4753 38.9977 20.8717 39.6389 21.8356C40.2802 22.7994 41.1284 23.2814 42.1835 23.2814C42.9952 23.2814 43.6892 23.0054 44.2655 22.4534C44.8499 21.9015 45.2963 21.1023 45.6047 20.0561C45.9213 19.0098 46.0796 17.7452 46.0796 16.2624C46.0796 15.249 46.0065 14.2687 45.8604 13.3213C45.7143 12.3739 45.4343 11.3688 45.0203 10.3061C44.6145 9.24335 44.0179 8.03232 43.2306 6.673Z" fill="black"/>
<path d="M74 8.25475H70.9806C70.802 7.37326 70.4895 6.59886 70.0431 5.93156C69.6048 5.26426 69.0691 4.70406 68.436 4.25095C67.811 3.78961 67.117 3.4436 66.3541 3.21293C65.5911 2.98226 64.7957 2.86692 63.9678 2.86692C62.458 2.86692 61.0904 3.25412 59.8648 4.02852C58.6473 4.80292 57.6773 5.94392 56.9549 7.45152C56.2406 8.95913 55.8835 10.8086 55.8835 13C55.8835 15.1914 56.2406 17.0409 56.9549 18.5485C57.6773 20.0561 58.6473 21.1971 59.8648 21.9715C61.0904 22.7459 62.458 23.1331 63.9678 23.1331C64.7957 23.1331 65.5911 23.0177 66.3541 22.7871C67.117 22.5564 67.811 22.2145 68.436 21.7614C69.0691 21.3001 69.6048 20.7357 70.0431 20.0684C70.4895 19.3929 70.802 18.6185 70.9806 17.7452H74C73.7727 19.0387 73.3588 20.1961 72.7581 21.2177C72.1575 22.2392 71.4108 23.1084 70.5179 23.8251C69.6251 24.5336 68.6227 25.0732 67.5107 25.4439C66.4068 25.8146 65.2258 26 63.9678 26C61.8412 26 59.95 25.4727 58.2942 24.4183C56.6384 23.3638 55.3356 21.8644 54.386 19.9202C53.4363 17.9759 52.9615 15.6692 52.9615 13C52.9615 10.3308 53.4363 8.02408 54.386 6.07985C55.3356 4.13562 56.6384 2.63625 58.2942 1.58175C59.95 0.52725 61.8412 0 63.9678 0C65.2258 0 66.4068 0.185361 67.5107 0.556084C68.6227 0.926807 69.6251 1.47053 70.5179 2.18726C71.4108 2.89575 72.1575 3.76077 72.7581 4.78232C73.3588 5.79563 73.7727 6.9531 74 8.25475ZM64.1139 15.0266C63.5132 15.0266 62.9978 14.8083 62.5676 14.3717C62.1374 13.935 61.9223 13.4119 61.9223 12.8023C61.9223 12.1926 62.1374 11.6695 62.5676 11.2329C62.9978 10.7963 63.5132 10.5779 64.1139 10.5779C64.7145 10.5779 65.2299 10.7963 65.6601 11.2329C66.0903 11.6695 66.3054 12.1926 66.3054 12.8023C66.3054 13.206 66.2039 13.5767 66.001 13.9144C65.8062 14.2522 65.5424 14.5241 65.2096 14.73C64.8849 14.9278 64.5197 15.0266 64.1139 15.0266Z" fill="black"/>
</svg>
