<svg width="201" height="162" viewBox="0 0 201 162" fill="none" xmlns="http://www.w3.org/2000/svg">
<g id="Group 260">
<rect id="Rectangle 569" x="16.9548" y="8.51465" width="169.003" height="120.337" fill="#FBB03B"/>
<path id="Subtract" fill-rule="evenodd" clip-rule="evenodd" d="M201 18.3476C197.093 53.1155 197.093 88.2119 201 122.98C201 127.765 199.099 132.353 195.716 135.737C192.333 139.121 187.745 141.023 182.959 141.025H173.369C172.186 141.026 171.018 141.289 169.949 141.796C168.88 142.302 167.937 143.039 167.187 143.954L154.058 159.92C153.471 160.635 152.683 161.156 151.795 161.415C150.908 161.675 149.962 161.661 149.083 161.374C148.204 161.088 147.431 160.543 146.867 159.811C146.302 159.078 145.972 158.193 145.919 157.27L145.426 148.561C145.31 146.521 144.418 144.602 142.932 143.198C141.447 141.794 139.48 141.012 137.436 141.012C107.42 138.07 64.6253 139.068 18.8496 141.012C14.0699 141.007 9.48743 139.106 6.10768 135.727C2.72793 132.348 0.826923 127.765 0.821777 122.986C4.32106 90.8994 4.12665 55.8709 0.821777 18.3542C0.821777 13.5682 2.72318 8.97832 6.10769 5.59412C9.4922 2.20992 14.0826 0.308595 18.869 0.308595C73.5224 3.23088 128.293 3.23088 182.946 0.308595C185.316 0.307745 187.663 0.773719 189.853 1.67981C192.043 2.5859 194.033 3.91429 195.71 5.58937C197.386 7.26446 198.716 9.25343 199.624 11.4425C200.531 13.6316 200.999 15.9778 201 18.3476ZM30.3389 65.1301C30.323 64.7702 30.4506 64.4188 30.6935 64.1528C30.9365 63.8868 31.275 63.728 31.6349 63.7112C31.8596 63.7112 32.1845 63.772 32.4765 63.8268H32.4766L32.4766 63.8268C32.7151 63.8715 32.9317 63.9121 33.0541 63.9121C34.7454 63.9121 35.0823 62.7652 35.2184 59.5902L35.2374 59.006V59.0058C35.3724 54.861 35.5554 49.2432 35.5554 43.4366C35.5554 39.1147 35.4193 34.7215 35.2184 31.0087C35.0823 28.8445 34.9463 26.7517 33.2744 26.7517C32.9438 26.7517 32.6113 26.8122 32.311 26.8667C32.0639 26.9117 31.8387 26.9526 31.6543 26.9526C31.4708 26.9621 31.2875 26.9309 31.1175 26.8612C30.9475 26.7914 30.7951 26.6849 30.6712 26.5492C30.5473 26.4136 30.4549 26.2521 30.4009 26.0765C30.3468 25.901 30.3322 25.7155 30.3583 25.5336C30.3442 25.3504 30.3667 25.1661 30.4244 24.9917C30.4821 24.8172 30.5739 24.6561 30.6945 24.5174C30.8151 24.3787 30.9621 24.2653 31.1269 24.1839C31.2916 24.1026 31.4709 24.0546 31.6543 24.0431C34.1723 24.0431 36.6351 24.1074 39.1685 24.1735H39.1686L39.1687 24.1735C41.8512 24.2435 44.6126 24.3155 47.602 24.3155C50.492 24.3155 55.6898 24.2294 60.2389 24.154L60.2397 24.154L60.2399 24.154C63.7792 24.0953 66.9256 24.0431 68.2866 24.0431C69.9066 24.0431 70.3797 24.5877 70.3797 25.9354C70.3797 26.1539 70.3583 26.5319 70.3293 27.0452L70.3293 27.0457V27.0459C70.2679 28.1312 70.1723 29.8207 70.1723 31.8835C70.1723 33.6673 70.2799 35.5125 70.3597 36.8835C70.4069 37.6938 70.4445 38.3384 70.4445 38.7066C70.4445 39.698 70.0427 40.1968 68.8893 40.1968C65.6566 40.1968 63.9553 37.1508 62.1801 33.9725C60.2437 30.5057 58.2194 26.8814 54.0238 26.8814C51.5938 26.8814 51.3216 28.9807 51.1855 31.1384C50.9133 35.7389 50.7773 41.0067 50.7773 45.3286C50.7773 47.3567 51.1207 47.6935 52.4686 47.6935C54.556 47.6935 56.0094 46.0206 57.491 44.3153C59.0312 42.5425 60.6019 40.7347 62.947 40.7347C63.1309 40.7071 63.3188 40.7231 63.4953 40.7815C63.6719 40.8399 63.8323 40.9388 63.9635 41.0707C64.0947 41.2025 64.1931 41.3633 64.2506 41.5402C64.3082 41.717 64.3233 41.905 64.2948 42.0888C64.2948 42.4508 64.2433 43.1079 64.1771 43.9514C64.0586 45.4631 63.8931 47.5734 63.8931 49.657C63.8931 51.2098 63.9992 52.9565 64.0923 54.4893L64.0924 54.4894C64.1652 55.6877 64.23 56.7553 64.23 57.4974C64.2203 57.838 64.0806 58.1619 63.8396 58.4028C63.5986 58.6438 63.2746 58.7835 62.934 58.7933C60.8141 58.7933 59.2806 56.7161 57.7408 54.6303C56.1881 52.5271 54.629 50.4151 52.4556 50.4151C51.3734 50.4151 50.6995 50.8169 50.6995 52.4368C50.6995 54.1352 50.7737 56.1269 50.8386 57.8692L50.8386 57.8694L50.8387 57.8711L50.8389 57.8765L50.8389 57.8767C50.8618 58.4913 50.8835 59.0748 50.9004 59.6032C51.0365 62.7782 51.7104 63.925 53.946 63.925C54.3353 63.925 55.0067 63.8993 55.752 63.8708L55.7524 63.8708L55.7526 63.8708H55.7528L55.753 63.8708C56.6826 63.8353 57.727 63.7953 58.4822 63.7953C58.6606 63.8028 58.8359 63.8454 58.9978 63.9209C59.1597 63.9964 59.305 64.1032 59.4255 64.2351C59.546 64.367 59.6391 64.5214 59.6997 64.6894C59.7602 64.8575 59.7869 65.0359 59.7782 65.2143C59.7782 66.089 59.3764 66.6333 58.4822 66.6333C57.4013 66.6333 55.5183 66.5623 53.3226 66.4796L53.3221 66.4795H53.3218C50.2519 66.3638 46.5709 66.2251 43.6167 66.2251C41.2409 66.2251 38.2404 66.3652 35.7545 66.4811H35.7544L35.7541 66.4812H35.7539L35.7536 66.4812H35.7534H35.7534L35.7531 66.4812C33.995 66.5633 32.4945 66.6333 31.6543 66.6333C30.7471 66.6138 30.3389 66.0114 30.3389 65.1301ZM85.1603 29.9867C83.9272 30.0887 82.6738 30.1924 81.3569 30.1924C79.51 30.1924 77.8741 30.0767 76.3159 29.9665C74.9709 29.8714 73.6838 29.7803 72.3689 29.7713C71.4941 29.7713 71.2219 30.5164 71.2219 31.1903C71.2219 31.8642 71.4941 32.6093 72.3689 32.6093C72.4451 32.6093 72.5475 32.5997 72.6768 32.5876L72.6772 32.5875L72.6773 32.5875L72.6779 32.5874L72.678 32.5874L72.6781 32.5874C72.9006 32.5665 73.2026 32.5381 73.5872 32.5381C74.7342 32.5381 75.1424 33.011 75.2785 35.6482C75.4146 38.2854 75.4794 41.4605 75.4794 44.3633C75.4794 50.1301 75.2785 55.9423 75.0776 61.2102C75.0063 62.7005 74.9416 63.9121 74.1963 63.9121C73.9273 63.9121 73.6583 63.8702 73.4263 63.834C73.2502 63.8065 73.0955 63.7824 72.9781 63.7824C72.1551 63.7824 71.682 64.1842 71.682 65.1302C71.682 66.2123 72.168 66.6204 72.9781 66.6204C74.3565 66.6204 75.7029 66.5562 77.0877 66.4901H77.0877H77.0878H77.0879H77.088H77.0881H77.0882C78.5546 66.4202 80.064 66.3483 81.7003 66.3483C83.8367 66.3483 86.5285 66.4416 88.7597 66.5189C90.3388 66.5736 91.6871 66.6204 92.4444 66.6204C92.8788 66.6204 93.1985 66.492 93.4172 66.2678C93.446 66.3006 93.4769 66.3317 93.5098 66.3609C93.6256 66.4638 93.7625 66.5401 93.9109 66.5849C94.0593 66.6297 94.2157 66.6416 94.3692 66.62C95.2059 66.62 95.9527 66.5647 96.6748 66.5112H96.6749H96.6749H96.675H96.6751C97.351 66.4612 98.0053 66.4128 98.6914 66.4128C100.48 66.4128 102.269 66.4823 103.959 66.548H103.959H103.959H103.959H103.96H103.96C104.632 66.5742 105.289 66.5997 105.923 66.62C106.101 66.6314 106.28 66.6038 106.446 66.539C106.613 66.4741 106.763 66.3738 106.887 66.2448C107.01 66.1157 107.104 65.9611 107.161 65.792C107.219 65.6229 107.239 65.4434 107.219 65.2659C107.219 64.5207 106.954 64.0477 106.007 63.782C104.044 63.2377 102.696 60.9375 102.696 56.8165C102.696 53.7128 103.506 50.8036 105.534 50.8036C106.481 50.8036 107.154 51.6846 109.248 55.6047C111.684 60.1728 112.157 61.8188 112.157 62.7648C112.157 63.5748 111.613 63.9829 110.738 63.9829C110.623 63.9829 110.388 63.9612 110.178 63.9418L110.178 63.9418L110.178 63.9417C110.007 63.926 109.853 63.9117 109.792 63.9117C108.982 63.9117 108.775 64.5207 108.775 65.2659C108.775 66.011 108.982 66.62 109.928 66.62C110.576 66.62 111.764 66.5547 113.191 66.4764L113.191 66.4764C115.332 66.3588 118.01 66.2119 120.199 66.2119C122.938 66.2119 125.474 66.3659 127.43 66.4847C128.658 66.5593 129.657 66.62 130.334 66.62C130.943 66.62 131.345 66.011 131.345 65.1298C131.313 64.7828 131.19 64.4505 130.989 64.1661C130.787 63.8817 130.515 63.6553 130.198 63.5099C128.306 62.227 125.668 57.6978 123.173 52.4235C122.156 50.5574 121.618 49.4559 121.618 47.9656C121.618 45.8277 123.085 43.8305 125.038 41.17L125.039 41.1696C125.803 40.129 126.641 38.987 127.496 37.6955C127.893 37.0808 128.265 36.5161 128.607 35.9957C130.298 33.4217 131.28 31.9276 131.28 30.8011C131.296 30.67 131.284 30.537 131.243 30.4113C131.202 30.2857 131.134 30.1705 131.044 30.0741C130.954 29.9776 130.843 29.9023 130.721 29.8532C130.598 29.8042 130.466 29.7826 130.334 29.7903C129.743 29.7903 129.081 29.8328 128.367 29.8788C127.529 29.9327 126.619 29.9912 125.668 29.9912C124.495 29.9912 123.303 29.9386 122.138 29.8873L122.138 29.8873C121.026 29.8382 119.938 29.7903 118.916 29.7903C118.741 29.7901 118.568 29.8254 118.408 29.8937C118.247 29.9621 118.102 30.0621 117.981 30.188C117.86 30.3138 117.765 30.4629 117.703 30.6262C117.641 30.7894 117.613 30.9636 117.62 31.1381C117.604 31.4927 117.72 31.8408 117.945 32.1157C118.169 32.3906 118.487 32.5729 118.838 32.6282C120.529 33.1012 121.612 35.0582 121.612 38.6414C121.612 42.2246 120.931 44.3174 119.311 44.3174C118.229 44.3174 117.406 43.6437 115.462 39.9244L115.266 39.558C113.811 36.8389 112.76 34.8733 112.76 33.7751C112.743 33.5939 112.766 33.4114 112.828 33.2401C112.889 33.0689 112.988 32.9132 113.117 32.7845C113.246 32.6558 113.401 32.5571 113.572 32.4954C113.744 32.4336 113.926 32.4106 114.108 32.4276C114.285 32.4276 114.482 32.4455 114.669 32.4625C114.837 32.4777 114.996 32.4922 115.125 32.4922C115.864 32.4922 116.071 31.8767 116.071 31.1381C116.071 30.3994 115.864 29.7903 114.918 29.7903C114.27 29.7903 113.081 29.8545 111.654 29.9316C109.513 30.0474 106.836 30.1921 104.647 30.1921C102.047 30.1921 99.6611 30.0514 97.7123 29.9366L97.7122 29.9365C96.3671 29.8573 95.2303 29.7903 94.3756 29.7903C93.8378 29.7903 93.4295 30.2632 93.4295 31.0083C93.3982 31.3347 93.4646 31.663 93.6204 31.9515C93.7762 32.2399 94.0143 32.4755 94.3044 32.6282C95.9309 34.1121 98.497 37.5593 101.465 43.5723C102.34 45.1274 102.683 46.1446 102.683 47.3563C102.597 48.4697 102.274 49.5523 101.737 50.5315C100.952 52.3493 99.9275 54.0423 98.7828 55.934L98.7828 55.934L98.7827 55.9341C98.3403 56.6653 97.8798 57.4262 97.4083 58.2355C96.5693 59.5465 95.8332 60.5978 95.2195 61.4743C94.41 62.6307 93.8133 63.4828 93.4742 64.2257C93.4548 64.2036 93.4347 64.182 93.4138 64.1611C93.2871 64.0345 93.1356 63.9352 92.9688 63.87C92.8019 63.8049 92.6234 63.7751 92.4444 63.7824C92.2543 63.7824 92.0502 63.8105 91.832 63.8406L91.832 63.8406C91.5816 63.8751 91.3127 63.9121 91.0253 63.9121C90.0792 63.9121 89.8718 63.0374 89.807 59.5903C89.7422 56.1432 89.7422 50.804 89.7422 48.7759C89.7422 44.9288 89.9595 39.0338 90.0996 35.2346C90.1661 33.4285 90.2153 32.096 90.2153 31.6826C90.2153 30.3997 89.8783 29.7906 88.7248 29.7906C87.5294 29.7906 86.3543 29.8879 85.1603 29.9867ZM82.1734 27.8275C88.66 27.7627 90.8892 26.4085 90.8892 22.6957C90.8892 18.3674 86.8326 16.6825 82.1669 16.6825C77.5012 16.6825 73.4446 18.4386 73.4446 22.6957C73.4446 26.4409 75.6868 27.8923 82.1734 27.8275ZM131.895 30.5484C131.841 30.6955 131.817 30.8519 131.825 31.0085C131.81 31.378 131.889 31.7452 132.055 32.0759C132.22 32.4067 132.466 32.6905 132.771 32.9008C134.845 36.2228 135.727 40.3783 137.62 49.2982C138.076 51.4436 138.589 53.8645 139.193 56.6157C139.737 59.1816 140.476 59.59 142.167 59.59C143.618 59.59 145.106 59.4879 146.593 59.3858L146.593 59.3858C148.08 59.2837 149.567 59.1816 151.019 59.1816C154.907 59.1816 156.851 59.927 156.851 63.3028C156.851 66.886 152.529 72.9703 148.945 72.9703C148.271 72.9703 147.928 72.6333 147.928 72.1603C147.928 71.3388 148.457 70.9903 149.185 70.5111L149.236 70.4774L149.347 70.4044C150.429 69.6592 151.447 68.7131 151.447 67.0219C151.447 63.5294 148.945 61.8383 143.541 61.8383C137.864 61.8383 134.89 64.5404 134.89 68.6614C134.89 73.0546 137.793 76.0284 145.362 76.0284C159.333 76.0284 161.925 65.1494 165.165 50.0779C166.751 40.4132 169.032 35.2856 170.131 32.8163C170.528 31.9249 170.77 31.3799 170.77 31.0929C170.77 30.134 170.369 29.797 169.623 29.797C169.034 29.797 168.326 29.834 167.517 29.8762C166.439 29.9324 165.183 29.9979 163.791 29.9979C162.556 29.9979 161.037 29.928 159.792 29.8706L159.791 29.8706C158.926 29.8308 158.192 29.797 157.778 29.797C156.631 29.797 156.358 30.6069 156.358 31.4881C156.358 32.5042 156.835 34.3777 157.448 36.7829C158.545 41.0955 160.078 47.1177 160.078 52.9744C160.078 56.7585 158.788 57.3674 157.577 57.3674C156.158 57.3674 155.386 56.5575 154.738 54.6655C152.775 49.3911 150.883 40.0023 150.883 34.9288C150.883 33.0368 151.155 32.4341 152.639 32.4341C152.969 32.4142 153.279 32.2691 153.505 32.0282C153.732 31.7873 153.858 31.4688 153.857 31.1382C153.878 30.9673 153.861 30.7941 153.809 30.6301C153.757 30.466 153.67 30.3151 153.554 30.1874C153.439 30.0597 153.298 29.9582 153.14 29.8897C152.982 29.8213 152.811 29.7873 152.639 29.7904C151.22 29.8193 149.801 29.9026 148.383 29.9859C146.626 30.0891 144.87 30.1922 143.113 30.1922C140.514 30.1922 138.175 30.0515 136.265 29.9367C134.947 29.8574 133.833 29.7904 132.978 29.7904C132.821 29.7911 132.666 29.8236 132.522 29.8859C132.378 29.9482 132.249 30.0391 132.141 30.153C132.033 30.2668 131.949 30.4014 131.895 30.5484ZM70.5288 72.7632C72.4729 72.7632 72.6932 73.9099 72.6932 75.5363C72.5571 78.2383 72.421 81.2123 72.421 84.1799C72.421 86.113 72.6563 88.6192 72.8344 90.5163L72.8345 90.5166C72.9429 91.6717 73.0302 92.601 73.0302 93.0374C73.0302 94.1908 72.5571 94.9297 71.5462 94.9297C66.3279 94.9297 65.0924 88.2458 63.8807 81.6911L63.8413 81.478C63.1933 77.7652 62.4222 75.8021 60.8021 75.8021C59.4478 75.8021 58.9099 76.8193 58.9099 78.504C58.9099 111.55 59.9208 112.632 63.2322 112.632C63.9699 112.632 64.5462 112.511 65.0709 112.4C65.5094 112.308 65.9119 112.224 66.3427 112.224C66.5374 112.215 66.7316 112.249 66.9123 112.322C67.093 112.395 67.256 112.506 67.3904 112.647C67.5248 112.788 67.6274 112.956 67.6915 113.14C67.7556 113.324 67.7795 113.52 67.7618 113.714C67.7618 114.66 67.4897 115.334 66.3427 115.334C65.3457 115.334 63.5373 115.311 61.4003 115.284H61.4H61.3995H61.3986C58.3131 115.245 54.5432 115.198 51.542 115.198C48.5187 115.198 44.7336 115.246 41.6683 115.285H41.6682H41.6681H41.668C39.5823 115.311 37.8299 115.334 36.8775 115.334C35.7953 115.334 35.5231 114.686 35.5231 113.714C35.504 113.525 35.5249 113.334 35.5843 113.154C35.6438 112.973 35.7405 112.807 35.8683 112.667C35.996 112.526 36.1518 112.414 36.3257 112.338C36.4995 112.261 36.6875 112.223 36.8775 112.224C37.3082 112.224 37.7107 112.308 38.1493 112.4C38.6739 112.511 39.2502 112.632 39.9879 112.632C43.2993 112.632 44.3102 111.55 44.3102 78.504C44.3102 76.8193 43.7723 75.8021 42.418 75.8021C40.7979 75.8021 40.1175 77.7458 39.3788 81.478L39.3069 81.8693C38.1137 88.3664 36.9084 94.9297 31.6739 94.9297C30.6565 94.9297 30.1835 94.1843 30.1835 93.0374C30.1835 92.6041 30.276 91.6778 30.3911 90.5252C30.5806 88.627 30.8315 86.115 30.8315 84.1799C30.8315 81.9066 30.7098 79.6295 30.5946 77.4738L30.5946 77.4733C30.5594 76.8152 30.5248 76.1683 30.4945 75.5363C30.4945 73.9099 30.6954 72.7632 32.7237 72.7632C35.2009 72.8168 37.6882 72.9117 40.186 73.0069L40.1864 73.0069C44.0263 73.1534 47.891 73.3007 51.7818 73.3007C55.4404 73.3007 59.1849 73.1568 62.9501 73.0121C65.4736 72.9151 68.0065 72.8178 70.5288 72.7632ZM73.866 97.7679C73.866 112.224 82.7244 116.345 92.6584 116.345C105.094 116.345 109.552 111.55 109.546 99.6599C109.546 98.7722 109.073 98.364 108.464 98.364C108.304 98.3696 108.148 98.4088 108.005 98.4788C107.862 98.5488 107.735 98.6482 107.633 98.7705C107.531 98.8928 107.456 99.0352 107.412 99.1885C107.369 99.3417 107.358 99.5022 107.381 99.6599C107.381 104.183 102.586 105.809 97.1103 105.809C91.5244 105.809 88.9324 104.118 88.9324 101.345C88.9324 98.9796 91.1615 98.4418 95.2894 98.4418C106.908 98.4418 109.209 95.1306 109.209 90.0636C109.209 83.2341 105.489 77.4933 93.0602 77.4933C81.9727 77.4933 73.866 82.8325 73.866 97.7679ZM88.5565 94.7939C88.3942 93.698 88.3248 92.5901 88.3491 91.4826C88.3491 83.7071 89.6452 80.3313 93.138 80.3313C95.7041 80.3313 96.6502 82.2235 96.6502 86.0075C96.6502 94.8457 92.3928 96.1413 90.5006 96.1413C89.5674 96.1413 88.8222 95.876 88.5565 94.7939ZM108.593 81.3418C108.303 81.1897 108.064 80.9543 107.908 80.6657C107.752 80.377 107.686 80.0483 107.718 79.7219C107.718 78.9767 108.12 78.5038 108.664 78.5038C109.519 78.5038 110.656 78.5719 112.001 78.6524C113.95 78.7691 116.336 78.9119 118.936 78.9119C121.125 78.9119 123.802 78.765 125.943 78.6474L125.944 78.6474C127.37 78.5691 128.559 78.5038 129.207 78.5038C130.153 78.5038 130.354 79.1128 130.354 79.8579C130.354 80.6031 130.153 81.2121 129.407 81.2121C129.285 81.2121 129.138 81.1969 128.979 81.1806L128.979 81.1806C128.793 81.1615 128.592 81.1409 128.397 81.1409C128.214 81.1239 128.031 81.1472 127.859 81.2092C127.687 81.2713 127.531 81.3707 127.401 81.5C127.272 81.6293 127.173 81.7854 127.111 81.9575C127.049 82.1295 127.025 82.3129 127.042 82.495C127.042 83.5754 128.066 85.4956 129.479 88.1469L129.744 88.6442C131.688 92.357 132.518 93.0373 133.6 93.0373C135.22 93.0373 135.894 90.938 135.894 87.3613C135.894 83.7846 134.818 81.8148 133.127 81.3418C132.776 81.2906 132.456 81.11 132.231 80.8356C132.005 80.5611 131.891 80.2125 131.909 79.8579C131.901 79.6829 131.929 79.5081 131.99 79.3441C132.052 79.1801 132.146 79.0303 132.267 78.9037C132.388 78.7771 132.534 78.6763 132.695 78.6076C132.856 78.5388 133.03 78.5036 133.205 78.5038C134.231 78.5038 135.321 78.5533 136.436 78.604L136.436 78.604C137.601 78.6569 138.791 78.711 139.964 78.711C140.91 78.711 141.82 78.6508 142.657 78.5953C143.374 78.5478 144.038 78.5038 144.629 78.5038C144.762 78.4971 144.894 78.5195 145.016 78.5693C145.139 78.6191 145.249 78.6951 145.339 78.792C145.43 78.889 145.497 79.0043 145.538 79.1302C145.579 79.2562 145.592 79.3896 145.575 79.521C145.575 80.6448 144.589 82.1472 142.889 84.7342L142.889 84.7344L142.889 84.7347C142.551 85.25 142.184 85.8083 141.791 86.4153C140.937 87.7032 140.1 88.8424 139.336 89.8806C137.377 92.5457 135.907 94.5451 135.907 96.6855C135.907 98.1693 136.451 99.2772 137.462 101.143C139.964 106.411 142.601 110.941 144.493 112.223C144.81 112.37 145.083 112.597 145.285 112.883C145.486 113.168 145.609 113.502 145.64 113.85C145.64 114.724 145.238 115.334 144.629 115.334C143.952 115.334 142.954 115.273 141.727 115.198C139.77 115.08 137.232 114.925 134.488 114.925C132.3 114.925 129.628 115.072 127.488 115.19C126.059 115.268 124.868 115.334 124.217 115.334C123.271 115.334 123.07 114.725 123.07 113.979C123.07 113.234 123.271 112.632 124.081 112.632C124.142 112.632 124.3 112.645 124.473 112.659C124.684 112.677 124.917 112.696 125.027 112.696C125.908 112.696 126.446 112.295 126.446 111.485C126.446 110.539 125.973 108.893 123.543 104.318C121.45 100.431 120.769 99.5235 119.823 99.5235C117.801 99.5235 116.985 102.426 116.985 105.536C116.985 109.657 118.339 111.958 120.296 112.496C121.242 112.768 121.515 113.241 121.515 113.979C121.534 114.157 121.514 114.336 121.457 114.506C121.399 114.675 121.305 114.829 121.182 114.958C121.058 115.087 120.908 115.188 120.742 115.253C120.575 115.317 120.397 115.345 120.219 115.334C119.528 115.313 118.811 115.287 118.077 115.259H118.076C116.439 115.197 114.713 115.133 112.987 115.133C112.301 115.133 111.646 115.18 110.971 115.228L110.97 115.228C110.248 115.28 109.501 115.334 108.664 115.334C108.511 115.355 108.355 115.343 108.206 115.298C108.058 115.254 107.921 115.177 107.805 115.074C107.689 114.971 107.597 114.844 107.535 114.702C107.473 114.56 107.443 114.406 107.446 114.251C107.446 113.148 108.198 112.075 109.511 110.2C110.125 109.322 110.863 108.269 111.704 106.955C112.18 106.136 112.646 105.366 113.092 104.628L113.092 104.627C114.231 102.745 115.249 101.062 116.026 99.2514C116.566 98.2733 116.888 97.1904 116.972 96.0764C116.928 94.7269 116.508 93.4162 115.76 92.2922C112.786 86.2791 110.22 82.8126 108.593 81.3418ZM149.937 104.792C149.937 112.904 152.846 116.008 160.551 116.008C168.185 116.008 170.751 111.751 170.751 102.232C170.751 97.7745 170.077 96.757 168.729 96.757C167.848 96.757 167.239 97.366 167.239 98.4481C167.239 99.3123 167.538 100.229 167.831 101.125C168.111 101.983 168.386 102.823 168.386 103.58C168.386 104.934 167.984 106.554 166.493 106.554C165.21 106.554 164.199 105.945 164.063 101.96C163.862 97.3012 163.927 90.2711 164.063 83.2408C164.063 82.0291 164.465 81.3488 165.955 81.3488C166.549 81.3488 167.271 81.398 168.01 81.4485C168.788 81.5016 169.587 81.556 170.278 81.556C170.473 81.555 170.665 81.5124 170.843 81.431C171.02 81.3497 171.178 81.2317 171.306 81.0846C171.434 80.9375 171.53 80.7646 171.586 80.5778C171.642 80.3909 171.658 80.1944 171.632 80.001C171.652 79.8119 171.632 79.6205 171.573 79.4397C171.514 79.2589 171.417 79.0926 171.289 78.9519C171.161 78.8111 171.005 78.6989 170.831 78.6228C170.656 78.5468 170.468 78.5085 170.278 78.5105C169.709 78.5105 168.903 78.5536 168.199 78.5913C167.653 78.6206 167.168 78.6465 166.902 78.6465C165.282 78.6465 164.4 78.3938 164.4 76.7027C164.4 74.5994 164.491 73.0258 164.55 71.9937C164.58 71.4901 164.601 71.1154 164.601 70.8711C164.594 70.7201 164.556 70.5721 164.491 70.4357C164.426 70.2993 164.334 70.1773 164.222 70.0766C164.109 69.9759 163.977 69.8985 163.834 69.8491C163.691 69.7998 163.54 69.7794 163.389 69.789C163.067 69.7943 162.751 69.8773 162.468 70.0308C162.185 70.1842 161.943 70.4033 161.763 70.6702C158.588 74.4542 152.639 77.9664 147.17 78.5042C146.998 78.514 146.83 78.5593 146.677 78.6377C146.523 78.716 146.388 78.8256 146.28 78.9591C146.171 79.0927 146.092 79.2475 146.046 79.4135C146.001 79.5795 145.991 79.753 146.016 79.9232C146.016 80.6035 146.223 81.3421 147.033 81.3421C147.13 81.3421 147.266 81.3243 147.437 81.3018C147.728 81.2637 148.12 81.2124 148.589 81.2124C149.463 81.2124 150.073 81.9513 150.144 83.5777C150.273 86.6166 150.274 89.1565 150.274 91.7484C150.274 94.2861 150.172 97.033 150.08 99.509C150.005 101.541 149.937 103.39 149.937 104.792Z" fill="black"/>
</g>
</svg>
