<svg width="127" height="156" viewBox="0 0 127 156" fill="none" xmlns="http://www.w3.org/2000/svg">
<path d="M64.0239 145.189C91.4971 144.685 113.706 140.867 113.629 136.66C113.552 132.454 91.2179 129.452 63.7447 129.955C36.2715 130.459 14.0625 134.277 14.1396 138.484C14.2167 142.691 36.5507 145.692 64.0239 145.189Z" fill="black"/>
<path d="M85.4258 103.739C85.4258 102.754 40.4258 102.754 40.4258 103.739V139.677C40.4258 145.441 85.4258 145.441 85.4258 139.677V103.739Z" fill="#3FB58A" stroke="black" stroke-width="2" stroke-miterlimit="10"/>
<path d="M40.4258 110C40.4258 111.658 50.4988 113 62.9258 113C75.3527 113 85.4258 111.658 85.4258 110" stroke="black" stroke-width="2" stroke-miterlimit="10"/>
<path d="M46.4258 113V143" stroke="black" stroke-width="2" stroke-miterlimit="10"/>
<path d="M54.4258 114V144" stroke="black" stroke-width="2" stroke-miterlimit="10"/>
<path d="M63.4258 114V144" stroke="black" stroke-width="2" stroke-miterlimit="10"/>
<path d="M71.4258 113V143" stroke="black" stroke-width="2" stroke-miterlimit="10"/>
<path d="M79.4258 112V142" stroke="black" stroke-width="2" stroke-miterlimit="10"/>
<path d="M72.3142 127C91.537 126.384 108.426 123.919 108.426 119.551V86.2797C108.424 74.2702 103.629 62.7532 95.096 54.2618C86.5627 45.7703 74.9898 41 62.9227 41C50.8562 41 39.2838 45.7705 30.7515 54.2621C22.2192 62.7537 17.4258 74.2708 17.4258 86.2797V119.551C17.4258 121.553 20.9546 123.149 26.6192 124.363L72.3142 127Z" fill="#3FB58A" stroke="black" stroke-width="2" stroke-miterlimit="10"/>
<path d="M26.4258 123.795C26.4257 123.927 26.4589 124.057 26.5223 124.172L72.4258 127V100.793C72.4257 95.3638 70.47 90.1135 66.9109 85.987C63.3518 81.8604 58.4232 79.1289 53.0125 78.2842C51.8257 78.0926 50.6251 77.9975 49.4227 78C46.4025 77.9992 43.4117 78.5882 40.6212 79.7334C37.8307 80.8785 35.2952 82.5574 33.1596 84.674C31.024 86.7907 29.3301 89.3036 28.1746 92.0693C27.0192 94.835 26.425 97.7992 26.4258 100.793V123.795Z" fill="#FBB03B"/>
<path d="M27.5475 124.518C27.4261 124.571 27.2931 124.594 27.1605 124.584C27.028 124.573 26.9002 124.53 26.7887 124.458C26.6773 124.386 26.5857 124.288 26.5223 124.172M26.5223 124.172C26.4589 124.057 26.4257 123.927 26.4258 123.795V100.793C26.425 97.7992 27.0192 94.835 28.1746 92.0693C29.3301 89.3036 31.024 86.7907 33.1596 84.674C35.2952 82.5574 37.8307 80.8785 40.6212 79.7334C43.4117 78.5882 46.4025 77.9992 49.4227 78C50.6251 77.9975 51.8257 78.0926 53.0125 78.2842C58.4232 79.1289 63.3518 81.8604 66.9109 85.987C70.47 90.1135 72.4257 95.3638 72.4258 100.793V127L26.5223 124.172Z" stroke="black" stroke-width="2" stroke-miterlimit="10"/>
</svg>
