<svg width="52" height="17" viewBox="0 0 52 17" fill="none" xmlns="http://www.w3.org/2000/svg">
<path d="M40 7.541V6H51.431V7.541H40Z" fill="#FF4D44"/>
<path d="M0 8.027C0 3.243 3.358 0 7.291 0C11.063 0 12.834 2.231 12.834 4.807V11.454H11.247V9.821C10.534 11.017 9.338 11.684 8.073 11.684C6.118 11.684 4.646 10.258 4.646 8.303C4.646 6.348 6.118 4.807 8.625 4.807C9.361 4.807 10.373 4.968 11.063 5.175V4.761C11.063 3.22 9.959 1.61 7.291 1.61C4.646 1.61 1.771 3.795 1.771 8.027C1.771 12.42 4.462 14.582 8.096 14.582H13.133V16.192H8.096C3.105 16.192 0 12.949 0 8.027ZM8.694 6.348C7.222 6.348 6.417 7.176 6.417 8.303C6.417 9.43 7.452 10.097 8.395 10.097C10.097 10.097 11.063 8.993 11.063 7.314V6.693C10.281 6.486 9.43 6.348 8.694 6.348Z" fill="#FF4D44"/>
<path d="M34 8C34 12.4183 30.4183 16 26 16C21.5817 16 18 12.4183 18 8" stroke="#FF4D44" stroke-width="1.4"/>
</svg>
