<svg width="17" height="21" viewBox="0 0 17 21" fill="none" xmlns="http://www.w3.org/2000/svg">
<path fill-rule="evenodd" clip-rule="evenodd" d="M0.891113 0.401611H17V3.0003H15.8754V3.49352C15.8754 5.10169 15.2365 6.64399 14.0994 7.78114L11.4699 10.4106L14.0994 13.0401C15.2365 14.1772 15.8754 15.7195 15.8754 17.3277V17.8206H17V20.4193H0.891113V17.8206H2.01572V17.3277C2.01572 15.7195 2.65456 14.1772 3.79171 13.0401L6.42118 10.4106L3.79171 7.78114C2.65456 6.644 2.01572 5.10169 2.01572 3.49352V3.0003H0.891113V0.401611ZM14.1429 17.8206H3.74818V17.3277C3.74818 16.179 4.2045 15.0774 5.01675 14.2651L7.64621 11.6356C8.32278 10.9591 8.32278 9.86214 7.64621 9.18558L5.01675 6.55611C4.2045 5.74386 3.74818 4.64222 3.74818 3.49352V3.0003H14.1429V3.49352C14.1429 4.64222 13.6866 5.74386 12.8744 6.55611L10.2449 9.18558C9.56833 9.86214 9.56833 10.9591 10.2449 11.6356L12.8744 14.2651C13.6866 15.0774 14.1429 16.179 14.1429 17.3277V17.8206Z" fill="black"/>
</svg>
