<svg width="127" height="156" viewBox="0 0 127 156" fill="none" xmlns="http://www.w3.org/2000/svg">
<path d="M65.813 145.199C93.2862 144.695 115.495 140.877 115.418 136.67C115.341 132.464 93.007 129.462 65.5338 129.965C38.0605 130.469 15.8516 134.287 15.9287 138.494C16.0058 142.7 38.3397 145.702 65.813 145.199Z" fill="black"/>
<path d="M45.293 94.7072L46.0001 94.0001L45.293 93.293L38.7073 86.7072L39.1215 86.293H86.793L94.5001 94.0001L87.2072 101.293L86.5001 102L87.2072 102.707L94.5001 110L87.2072 117.293L86.5001 118L87.2072 118.707L94.5001 126L87.2072 133.293L86.5001 134L87.2072 134.707L94.7285 142.228C73.4586 144.457 60.9156 144.223 52.5045 144.065C50.8225 144.034 49.3057 144.006 47.9174 144.001L37.9974 134.003L45.293 126.707L46.0001 126L45.293 125.293L38.0002 118L45.293 110.707L46.0001 110L45.293 109.293L38.0002 102L45.293 94.7072Z" fill="#FBB03B" stroke="black" stroke-width="2"/>
<path d="M45 109.5C59.5 112.5 79.5 107 86.5 102" stroke="black" stroke-width="2"/>
<path d="M45 125.5C59.5 128.5 79.5 123 86.5 118" stroke="black" stroke-width="2"/>
<path d="M45 93.5C59.5 96.5 79.5 91 86.5 86" stroke="black" stroke-width="2"/>
<path d="M45 141.5C59.5 144.5 79.5 139 86.5 134" stroke="black" stroke-width="2"/>
<path d="M38.5 117.5C53 120.5 79.5 121.5 93.5 109.5" stroke="black" stroke-width="2"/>
<path d="M38.5 133.5C53 136.5 79.5 137.5 93.5 125.5" stroke="black" stroke-width="2"/>
<path d="M38.5 101.5C53 104.5 79.5 105.5 93.5 93.5" stroke="black" stroke-width="2"/>
<path d="M63.7312 88.0477C91.2044 87.5442 113.413 83.7258 113.336 79.5192C113.299 77.5032 113.336 44.5003 113.336 44.5003L13.8472 44.5003C13.8472 44.5003 13.7698 77.136 13.8469 81.3427C13.924 85.5493 36.258 88.5512 63.7312 88.0477Z" fill="#3FB58A" stroke="black" stroke-width="2"/>
<ellipse cx="63.5" cy="44" rx="50" ry="7" fill="#3FB58A" stroke="black" stroke-width="2"/>
<path d="M13 44H113.5" stroke="black" stroke-width="2"/>
</svg>
