<svg width="49" height="17" viewBox="0 0 49 17" fill="none" xmlns="http://www.w3.org/2000/svg">
<path d="M23.5714 10.4023H25.2222V11.2508H23.7619C23.1905 11.2508 22.6958 11.3392 22.2778 11.516C21.8598 11.6927 21.537 11.9301 21.3095 12.2281C21.082 12.521 20.9683 12.8518 20.9683 13.2205C20.9683 13.766 21.246 14.2054 21.8016 14.5387C22.3571 14.872 23.0952 15.0387 24.0159 15.0387C24.9048 15.0387 25.5899 14.8771 26.0714 14.5538C26.5529 14.2306 26.873 13.7357 27.0317 13.069H29C28.9312 13.6144 28.7645 14.1094 28.5 14.5538C28.2354 14.9983 27.8836 15.3796 27.4444 15.6978C27.0053 16.0109 26.4894 16.2533 25.8968 16.425C25.3042 16.5917 24.6455 16.675 23.9206 16.675C22.9788 16.675 22.1349 16.5362 21.3889 16.2584C20.6481 15.9756 20.0635 15.5816 19.6349 15.0766C19.2116 14.5715 19 13.9831 19 13.3114C19 13.0033 19.0608 12.6801 19.1825 12.3417C19.3095 12.0033 19.5344 11.6877 19.8571 11.3947C20.1852 11.1018 20.6481 10.8644 21.246 10.6826C21.8492 10.4958 22.6243 10.4023 23.5714 10.4023ZM25.2222 10.8872H23.5714C22.6455 10.8872 21.8942 10.8013 21.3175 10.6296C20.746 10.4579 20.3069 10.2357 20 9.96293C19.6984 9.68515 19.4921 9.38212 19.381 9.05384C19.2751 8.72555 19.2222 8.40737 19.2222 8.09929C19.2222 7.38212 19.418 6.76848 19.8095 6.25838C20.2011 5.74828 20.746 5.35687 21.4444 5.08414C22.1481 4.81141 22.963 4.67505 23.8889 4.67505C24.8148 4.67505 25.6243 4.80889 26.3175 5.07656C27.0159 5.34424 27.5741 5.7306 27.9921 6.23565C28.4153 6.73565 28.6772 7.33667 28.7778 8.03869H26.8095C26.6772 7.51343 26.3624 7.08919 25.8651 6.76596C25.3677 6.44273 24.709 6.28111 23.8889 6.28111C23.0529 6.28111 22.3836 6.4503 21.8809 6.78868C21.3783 7.12202 21.127 7.55889 21.127 8.09929C21.127 8.58414 21.3439 8.97303 21.7778 9.26596C22.2169 9.55889 22.8783 9.70535 23.7619 9.70535H25.2222V10.8872Z" fill="#3FB58A"/>
<path d="M15.157 8.441C15.157 9.71367 14.996 10.8713 14.674 11.914C14.352 12.9413 13.869 13.8307 13.225 14.582C12.5963 15.3333 11.8067 15.9083 10.856 16.307C9.92067 16.7057 8.832 16.905 7.59 16.905C6.302 16.905 5.18267 16.7057 4.232 16.307C3.28133 15.893 2.49167 15.318 1.863 14.582C1.23433 13.8307 0.766667 12.9337 0.46 11.891C0.153333 10.8483 0 9.69067 0 8.418C0 6.73133 0.276 5.25933 0.828 4.002C1.38 2.74467 2.21567 1.76333 3.335 1.058C4.46967 0.352667 5.89567 0 7.613 0C9.25367 0 10.6337 0.352667 11.753 1.058C12.8723 1.748 13.7157 2.72933 14.283 4.002C14.8657 5.25933 15.157 6.739 15.157 8.441ZM7.59 15.111C8.75533 15.111 9.72133 14.881 10.488 14.421C11.2547 13.9457 11.8373 13.271 12.236 12.397C12.65 11.5077 12.8877 10.442 12.949 9.2H2.208C2.26933 10.442 2.49933 11.5077 2.898 12.397C3.312 13.271 3.90233 13.9457 4.669 14.421C5.451 14.881 6.42467 15.111 7.59 15.111ZM7.613 1.817C6.463 1.817 5.50467 2.03933 4.738 2.484C3.97133 2.92867 3.381 3.57267 2.967 4.416C2.553 5.244 2.3 6.24067 2.208 7.406H12.926C12.788 5.658 12.2897 4.29333 11.431 3.312C10.5877 2.31533 9.315 1.817 7.613 1.817Z" fill="#3FB58A"/>
<path d="M48.157 8.441C48.157 9.71367 47.996 10.8713 47.674 11.914C47.352 12.9413 46.869 13.8307 46.225 14.582C45.5963 15.3333 44.8067 15.9083 43.856 16.307C42.9207 16.7057 41.832 16.905 40.59 16.905C39.302 16.905 38.1827 16.7057 37.232 16.307C36.2813 15.893 35.4917 15.318 34.863 14.582C34.2343 13.8307 33.7667 12.9337 33.46 11.891C33.1533 10.8483 33 9.69067 33 8.418C33 6.73133 33.276 5.25933 33.828 4.002C34.38 2.74467 35.2157 1.76333 36.335 1.058C37.4697 0.352667 38.8957 0 40.613 0C42.2537 0 43.6337 0.352667 44.753 1.058C45.8723 1.748 46.7157 2.72933 47.283 4.002C47.8657 5.25933 48.157 6.739 48.157 8.441ZM40.59 15.111C41.7553 15.111 42.7213 14.881 43.488 14.421C44.2547 13.9457 44.8373 13.271 45.236 12.397C45.65 11.5077 45.8877 10.442 45.949 9.2H35.208C35.2693 10.442 35.4993 11.5077 35.898 12.397C36.312 13.271 36.9023 13.9457 37.669 14.421C38.451 14.881 39.4247 15.111 40.59 15.111ZM40.613 1.817C39.463 1.817 38.5047 2.03933 37.738 2.484C36.9713 2.92867 36.381 3.57267 35.967 4.416C35.553 5.244 35.3 6.24067 35.208 7.406H45.926C45.788 5.658 45.2897 4.29333 44.431 3.312C43.5877 2.31533 42.315 1.817 40.613 1.817Z" fill="#3FB58A"/>
</svg>
