<?xml version="1.0" encoding="UTF-8"?><svg id="a" xmlns="http://www.w3.org/2000/svg" viewBox="0 0 108.33 37.5"><defs><style>.b{fill:#f8f8d2;}.b,.c,.d,.e{fill-rule:evenodd;}.c{fill:#d3d1ba;}.d{fill:#bab9a4;}</style></defs><polygon class="d" points="98.42 7.02 10.07 7.02 1.05 12.69 1.05 30.29 9.08 36.5 54.17 36.47 99.25 36.5 107.28 30.29 107.28 13.69 98.42 7.02"/><path class="e" d="M99.25,5.77H9.08L0,12.69V30.29l9.08,7.21,45.08-.03,45.08,.03,9.08-7.21V12.69l-9.08-6.92ZM10.37,35.05v-14.93h-2.57v13.17l-5.22-4.15V13.87l7.41-5.65H98.34l7.41,5.65v15.27l-5.22,4.15v-14.17h-2.57v15.93"/><polyline class="c" points="9.08 1 1.05 6.92 1.05 24.52 9.08 30.73 54.17 30.7 99.25 30.73 107.28 24.52 107.28 6.92 99.25 1"/><path class="e" d="M9.08,0L0,6.92V24.52l9.08,7.21,45.08-.03,45.08,.03,9.08-7.21V6.92L99.25,0M10.01,29.28l-7.44-5.91V8.1L9.99,2.45H98.34l7.41,5.65v15.27l-7.44,5.91"/><polyline class="b" points="10.86 4.47 4.38 8.98 4.38 22.37 10.86 27.09 53.82 27.07 96.79 27.09 103.27 22.37 103.27 8.98 96.79 4.47"/></svg>