<?xml version="1.0" encoding="UTF-8"?><svg xmlns="http://www.w3.org/2000/svg" viewBox="0 0 111.5 37.9"><defs><style>.d{fill:#7c7d7b;}.e{fill:#454443;}.f{fill:#5d5d5d;}</style></defs><g id="a"/><g id="b"><g id="c"><g><path class="d" d="M101.35,33c.2-.27,.33-.42,.4-.45,.77-.6,3.33-2.9,7.7-6.9l-.25-17.35L99.8,.9H10.1c-2.8,3.43-5.15,6.18-7.05,8.25V25.7c1.97,1.9,4.58,4.38,7.85,7.45l90.45-.15Z"/><path class="f" d="M104.5,12.1c-2.57-2.2-4.47-3.78-5.7-4.75H13l-5.65,5.05v10.7l6.1,5.35H98.65l5.8-5.35,.05-11Z"/><path class="e" d="M111.5,7.75c-1.73-.3-3.4-1.1-5-2.4-1.9-1.57-2.97-3.35-3.2-5.35H9.05c-.37,1.33-1.33,2.85-2.9,4.55-1.87,1.97-3.83,3.32-5.9,4.05l-.25,19.6,.25,.15v.2c2.58,2.43,5.83,5.55,9.75,9.35H103.45c2.84-3.09,5.51-6.01,8-8.75v-.95l.05-20.45m-10.6-3.8c.8,1.63,1.9,3.12,3.3,4.45,1.37,1.27,2.67,2.08,3.9,2.45l-.05,14.5c-4.07,4.5-6.12,6.77-6.15,6.8H11.7c-4.77-4.47-7.27-6.78-7.5-6.95-.07-2.57-.13-5.02-.2-7.35-.1-4.63-.1-6.98,0-7.05,1.4-.67,2.82-1.68,4.25-3.05,1.47-1.4,2.43-2.68,2.9-3.85l89.75,.05Z"/></g></g></g></svg>