<svg width="352" height="86" viewBox="0 0 352 86" fill="none" xmlns="http://www.w3.org/2000/svg">
<path d="M305.39 59.6254L307.51 49.3759L314.33 46.4381L319.03 47.3086V53.0318L312.85 56.1436L305.39 59.6254Z" fill="#8C7D55"/>
<path d="M293.66 21.9785H308.98L319.41 25.6126V48.9516L312.9 47.0475L306.37 51.835H301.37L293.66 52.2376V21.9785Z" fill="#CFB684"/>
<path d="M320.32 52.7817L320.92 44.8715L327.36 48.9626V48.9517L336.53 45.731L341.23 48.9517L348.5 49.7786V51.8351L344.26 54.5226H340.92L335.32 52.7708L325.16 56.5899L326.45 63.8147L335.16 61.7256L340.01 64.0323L346.67 71.4529L336.53 70.1037L328.95 72.443H324.71L320.92 67.3291L317.54 65.5229L306.22 62.7157V58.9292L315.62 55.6324L320.32 52.7817Z" fill="#CFB684"/>
<path d="M291.99 24.1002V20.9121C302.88 18.551 316.88 21.1842 321 24.1437C320.91 29.6711 321.01 35.8077 321.32 42.5646C321.47 42.6299 321.63 42.7278 321.8 42.8366C322.02 42.989 322.34 43.2501 322.76 43.6091C323.16 43.9682 323.49 44.2402 323.75 44.4034C324.65 44.991 325.78 45.263 327.15 45.2521C328.16 45.2412 329.38 45.0345 330.82 44.6537C332.55 44.1858 333.75 43.9029 334.42 43.805C335.8 43.5874 336.99 43.6418 338 43.9791C338.69 44.2185 339.59 44.7299 340.66 45.4915C341.59 46.4272 342.39 47.2324 342.78 47.5697C344.85 49.3759 347.53 48.9624 350.14 47.2868L350.98 46.8298H351.04C350.54 51.8349 345.75 54.7183 344.33 55.2514C342.69 55.9043 341.07 56.0348 339.47 55.654C338.87 55.5343 338 55.2732 336.85 54.8597C335.81 54.5551 334.94 54.5115 334.23 54.7074C333.95 54.7727 333.65 54.8924 333.31 55.0773C333.13 55.197 332.84 55.3602 332.44 55.5779C331.12 56.3069 329.71 56.6877 328.2 56.7312V56.7094C328.11 56.7421 327.8 56.9706 327.26 57.384C327.64 58.2218 327.98 58.9617 328.27 59.6254C328.59 60.3109 328.83 60.7788 329 61.0182C329.06 61.0182 329.12 61.0182 329.18 61.0399C329.3 61.0726 329.44 61.1052 329.59 61.1161C329.7 61.2031 329.77 61.2793 329.82 61.3446C329.87 61.3772 329.9 61.4208 329.93 61.4643H329.95C330.03 61.4534 331.27 61.2249 333.67 60.7897C335.14 60.5394 336.36 60.485 337.34 60.6373C338.61 60.8223 339.86 61.3772 341.1 62.313C341.99 62.9767 342.99 63.9559 344.11 65.229C344.66 65.8601 345.04 66.3497 345.23 66.6979C345.38 66.9808 345.61 67.4269 345.92 68.0253C345.98 68.1123 346.05 68.1994 346.11 68.2864C346.15 68.3626 346.19 68.4279 346.23 68.5041C346.62 69.0916 347.06 69.6356 347.51 70.147C347.8 70.517 348.12 70.876 348.47 71.1916C348.69 71.3874 348.94 71.5506 349.19 71.6812C348.83 71.9532 348.5 72.1708 348.2 72.3232C347.68 72.5734 346.89 72.7801 345.84 72.9434H345.68C345.02 72.8563 343.99 72.6496 342.58 72.3232C340.96 71.9423 339.52 71.7138 338.27 71.6268C336.91 71.5398 335.64 71.6268 334.46 71.8771C333.76 72.0294 332.85 72.3232 331.75 72.7801C330.42 73.3133 329.55 73.6397 329.13 73.7812C328.66 73.9444 328.17 74.0858 327.66 74.2055C326.97 74.1511 326.42 74.1076 326.01 74.0532C325.24 73.9553 324.59 73.7812 324.04 73.5309C323.26 73.1718 322.46 72.4972 321.63 71.5289L319.54 69.1351C319.07 68.689 318.52 68.2538 317.89 67.8403C317.19 67.4813 316.41 67.1766 315.57 66.9699C314.5 66.6652 312.8 66.3823 310.48 66.0994C308.47 65.7512 307 65.1311 306.05 64.2497C305.94 64.1518 305.85 64.0647 305.77 63.9777C304.15 62.5197 303.61 60.3653 304.16 57.5364C304.72 54.6856 305.17 53.0318 305.49 52.5422C304.42 52.9339 297.24 54.0002 294.62 52.7706L294.98 49.3215C297.66 50.0396 305.34 49.3759 307.83 47.7438C309.36 46.7537 310.23 46.3075 310.33 46.2423C312.15 45.2739 313.94 44.9039 315.7 45.1216C316.33 45.1868 316.91 45.3392 317.44 45.5677C317.35 43.0107 317.3 40.1382 317.3 36.9502C317.31 32.5435 317.3 28.9203 317.23 26.0913C315.96 25.3079 301.15 22.3266 291.93 24.0784L291.99 24.1002ZM317.29 50.0831C317.18 49.5717 316.92 49.1692 316.51 48.8863C315.49 48.1681 313.97 48.4837 311.97 49.8329C310.69 50.7142 309.55 51.3888 308.57 51.8567C308.56 51.8567 308.54 51.8567 308.52 51.8784C308.53 51.9437 308.54 51.9981 308.54 52.0525C308.62 52.7815 308.59 53.4452 308.45 54.0546C308.45 54.0872 308.37 54.3592 308.22 54.8815C308.13 55.2188 308.07 55.4908 308.06 55.7084C308.05 55.8063 308.04 55.9587 308.04 56.1545C308.6 55.8716 309.23 55.6214 309.92 55.4038C312.82 54.468 314.52 53.8696 315.01 53.6085C316.11 53.01 316.82 52.3245 317.14 51.5411C317.34 51.0733 317.38 50.5945 317.28 50.094L317.29 50.0831ZM316.9 56.1545C316.24 56.5571 315.15 56.9162 314.31 57.3079C313.45 57.7105 312.14 58.2762 310.39 59.0053C309.37 59.4514 308.83 59.9736 308.78 60.5829C308.75 61.0726 309.03 61.4643 309.63 61.7798C310.1 62.041 310.69 62.215 311.4 62.3021C314.28 62.6612 316.62 63.1943 318.44 63.8798C320.9 64.7829 322.77 66.0341 324.04 67.6445C324.19 67.8403 324.4 68.1123 324.66 68.4388C325.26 68.9066 325.83 69.2331 326.38 69.4071C327.65 69.8424 329.28 69.7118 331.27 69.0046C332.31 68.6237 333.1 68.3408 333.63 68.1559C334.55 67.8512 335.36 67.6662 336.06 67.6118C337.07 67.5466 338.26 67.7206 339.64 68.1341C341.12 68.6346 342.26 68.9828 343.04 69.1787L342.97 69.1025C342.6 68.6346 342.33 68.2864 342.14 68.0579C341.19 66.959 340.06 66.0124 338.74 65.2072C337.82 64.6741 337.02 64.4129 336.33 64.4347C336.04 64.4456 335.7 64.5109 335.32 64.6088C335.1 64.6741 334.78 64.7829 334.36 64.9352C333.34 65.2725 332.19 65.4792 330.94 65.588C329.98 65.5772 328.88 65.3487 327.64 64.9134C326.41 64.4782 324.9 61.0943 323.1 54.7509C326.27 54.4136 328.39 54.0437 329.48 53.6302C330.15 53.3473 330.66 53.0644 331.02 52.7815C331.39 52.466 331.63 52.1178 331.75 51.737C332.18 51.5194 332.41 51.3997 332.44 51.3888C333.23 51.0406 333.95 50.8557 334.6 50.8448C335.46 50.8339 336.61 51.1712 338.06 51.8676C339.59 52.5966 340.74 52.9991 341.5 53.0644C342.83 53.1841 344.21 52.7598 345.63 51.8132C345.91 51.6173 346.19 51.3997 346.48 51.193C345.59 51.2474 344.7 51.193 343.82 51.0189C342.46 50.7686 341.24 50.2899 340.15 49.5935C339.77 49.3541 339.21 48.9951 338.48 48.4946C337.82 48.0593 337.23 47.7656 336.69 47.6241C335.83 47.4065 334.81 47.4391 333.62 47.722C332.92 47.907 331.89 48.2117 330.52 48.6469C328.78 49.0821 326.99 49.1365 325.15 48.7992C323.68 48.5381 322.34 48.0376 321.11 47.3303C321 49.0386 320.88 50.7577 320.74 52.4769C320.68 53.0753 320.65 53.3364 320.35 53.7717L320.19 54.0219C320.13 54.1198 320.05 54.2069 319.96 54.2939C319.96 54.3048 319.96 54.3375 319.94 54.3701C319.86 54.5007 319.7 54.653 319.44 54.8162C318.54 55.382 317.93 55.8499 316.92 56.1654L316.9 56.1545Z" fill="black"/>
<path d="M45.65 59.6254L43.53 49.3759L36.71 46.4381L32.01 47.3086V53.0318L38.19 56.1436L45.65 59.6254Z" fill="#8C7D55"/>
<path d="M57.38 21.9785H42.06L31.63 25.6126V48.9516L38.14 47.0475L44.67 51.835H49.67L57.38 52.2376V21.9785Z" fill="#CFB684"/>
<path d="M30.72 52.7817L30.12 44.8715L23.68 48.9626V48.9517L14.51 45.731L9.81001 48.9517L2.54001 49.7786V51.8351L6.78001 54.5226H10.12L15.72 52.7708L25.88 56.5899L24.59 63.8147L15.88 61.7256L11.03 64.0323L4.37001 71.4529L14.51 70.1037L22.09 72.443H26.33L30.12 67.3291L33.5 65.5229L44.82 62.7157V58.9292L35.42 55.6324L30.72 52.7817Z" fill="#CFB684"/>
<path d="M59.05 24.1002V20.9121C48.16 18.551 34.16 21.1842 30.04 24.1437C30.13 29.6711 30.03 35.8077 29.72 42.5646C29.57 42.6299 29.41 42.7278 29.24 42.8366C29.02 42.989 28.7 43.2501 28.28 43.6091C27.88 43.9682 27.55 44.2402 27.29 44.4034C26.39 44.991 25.26 45.263 23.89 45.2521C22.88 45.2412 21.66 45.0345 20.22 44.6537C18.49 44.1858 17.29 43.9029 16.62 43.805C15.24 43.5874 14.05 43.6418 13.04 43.9791C12.35 44.2185 11.45 44.7299 10.38 45.4915C9.45 46.4272 8.65 47.2324 8.26 47.5697C6.19 49.3759 3.51 48.9624 0.9 47.2868L0.06 46.8298H0C0.5 51.8349 5.29 54.7183 6.71 55.2514C8.35 55.9043 9.97 56.0348 11.57 55.654C12.17 55.5343 13.04 55.2732 14.19 54.8597C15.23 54.5551 16.1 54.5115 16.81 54.7074C17.09 54.7727 17.39 54.8924 17.73 55.0773C17.91 55.197 18.2 55.3602 18.6 55.5779C19.92 56.3069 21.33 56.6877 22.84 56.7312V56.7094C22.93 56.7421 23.24 56.9706 23.78 57.384C23.4 58.2218 23.06 58.9617 22.77 59.6254C22.45 60.3109 22.21 60.7788 22.04 61.0182C21.98 61.0182 21.92 61.0182 21.86 61.0399C21.74 61.0726 21.6 61.1052 21.45 61.1161C21.34 61.2031 21.27 61.2793 21.22 61.3446C21.17 61.3772 21.14 61.4208 21.11 61.4643H21.09C21.01 61.4534 19.77 61.2249 17.37 60.7897C15.9 60.5394 14.68 60.485 13.7 60.6373C12.43 60.8223 11.18 61.3772 9.94 62.313C9.05 62.9767 8.05 63.9559 6.93 65.229C6.38 65.8601 6 66.3497 5.81 66.6979C5.66 66.9808 5.43 67.4269 5.12 68.0253C5.06 68.1123 4.99 68.1994 4.93 68.2864C4.89 68.3626 4.85 68.4279 4.81 68.5041C4.42 69.0916 3.98 69.6356 3.53 70.147C3.24 70.517 2.92 70.876 2.57 71.1916C2.35 71.3874 2.1 71.5506 1.85 71.6812C2.21 71.9532 2.54 72.1708 2.84 72.3232C3.36 72.5734 4.15 72.7801 5.2 72.9434H5.36C6.02 72.8563 7.05 72.6496 8.46 72.3232C10.08 71.9423 11.52 71.7138 12.77 71.6268C14.13 71.5398 15.4 71.6268 16.58 71.8771C17.28 72.0294 18.19 72.3232 19.29 72.7801C20.62 73.3133 21.49 73.6397 21.91 73.7812C22.38 73.9444 22.87 74.0858 23.38 74.2055C24.07 74.1511 24.62 74.1076 25.03 74.0532C25.8 73.9553 26.45 73.7812 27 73.5309C27.78 73.1718 28.58 72.4972 29.41 71.5289L31.5 69.1351C31.97 68.689 32.52 68.2538 33.15 67.8403C33.85 67.4813 34.63 67.1766 35.47 66.9699C36.54 66.6652 38.24 66.3823 40.56 66.0994C42.57 65.7512 44.04 65.1311 44.99 64.2497C45.1 64.1518 45.19 64.0647 45.27 63.9777C46.89 62.5197 47.43 60.3653 46.88 57.5364C46.32 54.6856 45.87 53.0318 45.55 52.5422C46.62 52.9339 53.8 54.0002 56.42 52.7706L56.06 49.3215C53.38 50.0396 45.7 49.3759 43.21 47.7438C41.68 46.7537 40.81 46.3075 40.71 46.2423C38.89 45.2739 37.1 44.9039 35.34 45.1216C34.71 45.1868 34.13 45.3392 33.6 45.5677C33.69 43.0107 33.74 40.1382 33.74 36.9502C33.73 32.5435 33.74 28.9203 33.81 26.0913C35.08 25.3079 49.89 22.3266 59.11 24.0784L59.05 24.1002ZM33.75 50.0831C33.86 49.5717 34.12 49.1692 34.53 48.8863C35.55 48.1681 37.07 48.4837 39.07 49.8329C40.35 50.7142 41.49 51.3888 42.47 51.8567C42.48 51.8567 42.5 51.8567 42.52 51.8784C42.51 51.9437 42.5 51.9981 42.5 52.0525C42.42 52.7815 42.45 53.4452 42.59 54.0546C42.59 54.0872 42.67 54.3592 42.82 54.8815C42.91 55.2188 42.97 55.4908 42.98 55.7084C42.99 55.8063 43 55.9587 43 56.1545C42.44 55.8716 41.81 55.6214 41.12 55.4038C38.22 54.468 36.52 53.8696 36.03 53.6085C34.93 53.01 34.22 52.3245 33.9 51.5411C33.7 51.0733 33.66 50.5945 33.76 50.094L33.75 50.0831ZM34.14 56.1545C34.8 56.5571 35.89 56.9162 36.73 57.3079C37.59 57.7105 38.9 58.2762 40.65 59.0053C41.67 59.4514 42.21 59.9736 42.26 60.5829C42.29 61.0726 42.01 61.4643 41.41 61.7798C40.94 62.041 40.35 62.215 39.64 62.3021C36.76 62.6612 34.42 63.1943 32.6 63.8798C30.14 64.7829 28.27 66.0341 27 67.6445C26.85 67.8403 26.64 68.1123 26.38 68.4388C25.78 68.9066 25.21 69.2331 24.66 69.4071C23.39 69.8424 21.76 69.7118 19.77 69.0046C18.73 68.6237 17.94 68.3408 17.41 68.1559C16.49 67.8512 15.68 67.6662 14.98 67.6118C13.97 67.5466 12.78 67.7206 11.4 68.1341C9.92 68.6346 8.78 68.9828 8 69.1787L8.07 69.1025C8.44 68.6346 8.71 68.2864 8.9 68.0579C9.85 66.959 10.98 66.0124 12.3 65.2072C13.22 64.6741 14.02 64.4129 14.71 64.4347C15 64.4456 15.34 64.5109 15.72 64.6088C15.94 64.6741 16.26 64.7829 16.68 64.9352C17.7 65.2725 18.85 65.4792 20.1 65.588C21.06 65.5772 22.16 65.3487 23.4 64.9134C24.63 64.4782 26.14 61.0943 27.94 54.7509C24.77 54.4136 22.65 54.0437 21.56 53.6302C20.89 53.3473 20.38 53.0644 20.02 52.7815C19.65 52.466 19.41 52.1178 19.29 51.737C18.86 51.5194 18.63 51.3997 18.6 51.3888C17.81 51.0406 17.09 50.8557 16.44 50.8448C15.58 50.8339 14.43 51.1712 12.98 51.8676C11.45 52.5966 10.3 52.9991 9.54 53.0644C8.21 53.1841 6.83 52.7598 5.41 51.8132C5.13 51.6173 4.85 51.3997 4.56 51.193C5.45 51.2474 6.34 51.193 7.22 51.0189C8.58 50.7686 9.8 50.2899 10.89 49.5935C11.27 49.3541 11.83 48.9951 12.56 48.4946C13.22 48.0593 13.81 47.7656 14.35 47.6241C15.21 47.4065 16.23 47.4391 17.42 47.722C18.12 47.907 19.15 48.2117 20.52 48.6469C22.26 49.0821 24.05 49.1365 25.89 48.7992C27.36 48.5381 28.7 48.0376 29.93 47.3303C30.04 49.0386 30.16 50.7577 30.3 52.4769C30.36 53.0753 30.39 53.3364 30.69 53.7717L30.85 54.0219C30.91 54.1198 30.99 54.2069 31.08 54.2939C31.08 54.3048 31.08 54.3375 31.1 54.3701C31.18 54.5007 31.34 54.653 31.6 54.8162C32.5 55.382 33.11 55.8499 34.12 56.1654L34.14 56.1545Z" fill="black"/>
<g filter="url(#filter0_d_0_1)">
<rect x="45" width="260" height="78" fill="#CFB684"/>
<rect x="47" y="2" width="256" height="74" stroke="black" stroke-width="4"/>
</g>
<defs>
<filter id="filter0_d_0_1" x="41" y="0" width="268" height="86" filterUnits="userSpaceOnUse" color-interpolation-filters="sRGB">
<feFlood flood-opacity="0" result="BackgroundImageFix"/>
<feColorMatrix in="SourceAlpha" type="matrix" values="0 0 0 0 0 0 0 0 0 0 0 0 0 0 0 0 0 0 127 0" result="hardAlpha"/>
<feOffset dy="4"/>
<feGaussianBlur stdDeviation="2"/>
<feComposite in2="hardAlpha" operator="out"/>
<feColorMatrix type="matrix" values="0 0 0 0 0 0 0 0 0 0 0 0 0 0 0 0 0 0 0.25 0"/>
<feBlend mode="normal" in2="BackgroundImageFix" result="effect1_dropShadow_0_1"/>
<feBlend mode="normal" in="SourceGraphic" in2="effect1_dropShadow_0_1" result="shape"/>
</filter>
</defs>
</svg>
