<?xml version="1.0" encoding="UTF-8"?><svg xmlns="http://www.w3.org/2000/svg" viewBox="0 0 190.65 189.5"><defs><style>.d{fill:#f8f8d0;}.e{fill:#d8d8b8;}</style></defs><g id="a"/><g id="b"><g id="c"><path class="d" d="M188.9,185.45V2.55H2.45V185.45H26.65l4.7-6.25,3.25,5.8,3.85-5.8,3.05,6.25H188.9Z"/><path class="e" d="M179.1,184.8h11.05V1.2H1.05V184.8H9.6l.25-173.75H180.95l-1.85,173.75Z"/><path d="M190.65,188.85l-.1-188.85H0V189l27.15-.55,3.6-7.8,3.65,8.85,3.25-7.95,3.75,7.1,149.25,.2M185.4,4.5V183.55c-35.47-.2-83.37-.45-143.7-.75l-2.95-7.05-4.15,6.25-3.4-9.6-5.15,10.8-21.65,.3-.1-179.05,181.1,.05Z"/></g></g></svg>