<?xml version="1.0" encoding="UTF-8"?><svg id="Layer_2" xmlns="http://www.w3.org/2000/svg" xmlns:xlink="http://www.w3.org/1999/xlink" viewBox="0 0 541.21 180.09"><defs><style>.cls-1{fill:none;}.cls-2{clip-path:url(#clippath);}.cls-3{fill:#818e46;}.cls-4{fill:#866d9e;}.cls-5{fill:#424c17;}.cls-6{fill:#6f7b37;}.cls-7{clip-path:url(#clippath-1);}</style><clipPath id="clippath"><rect class="cls-1" y="0" width="541.21" height="180.09"/></clipPath><clipPath id="clippath-1"><rect class="cls-1" y="0" width="541.21" height="180.09"/></clipPath></defs><g id="Layer_1-2"><g id="Junktopia_Logo"><g class="cls-2"><g class="cls-7"><path class="cls-4" d="M106.16,7.59l-2.45-3.79h-14.27l-7.5,15.68-7.8-15.68H29.85l-2.45,3.79c-2.28,3.02-4.98,5.75-8.1,8.17-3.12,2.43-6.84,4.56-11.15,6.39l-5.57,2.08V157.55l5.57,2.08c4.31,1.88,8.03,4.04,11.15,6.46,3.12,2.43,5.82,5.13,8.1,8.1,1.14,1.54,1.96,2.8,2.45,3.79H103.71c.5-.99,1.31-2.25,2.45-3.79,2.28-2.97,4.98-5.67,8.1-8.1,3.12-2.43,6.84-4.58,11.15-6.46,2.18-.94,4.04-1.63,5.57-2.08V24.24c-1.54-.45-3.39-1.14-5.57-2.08-4.31-1.83-8.03-3.96-11.15-6.39-3.12-2.43-5.82-5.15-8.1-8.17"/><path class="cls-4" d="M236.64,39.45c2.97-.76,4.67-1.26,5.12-1.49,1.4-.51,6.68-2.55,15.85-6.11-.34,6.58-.84,18.36-1.49,35.33l36.07-14.69-24.93-48.37c-9.3,7.28-16.12,12.64-20.47,16.1-1.64-3.42-4.01-8.23-7.1-14.44-6.76,6.41-12.57,12.18-17.42,17.33-.06,.1-.5,.67-1.32,1.73-.57,.85-4.84,5.03-12.79,12.55,11.59-4.18,20.92-7.68,27.98-10.48,.13,3.09,.29,7.27,.49,12.55"/><path class="cls-3" d="M99.41,16.68l-2.08-3.34H35.8c-.4,.89-1.07,2.01-2.01,3.34-1.88,2.68-4.14,5.08-6.76,7.21-2.58,2.18-5.67,4.09-9.29,5.72-1.78,.84-3.32,1.46-4.61,1.86v118.45l4.61,1.86c3.62,1.69,6.71,3.59,9.29,5.72,2.62,2.13,4.88,4.53,6.76,7.21,.94,1.39,1.61,2.53,2.01,3.42h61.53c.45-.89,1.14-2.03,2.08-3.42,1.88-2.68,4.11-5.08,6.69-7.21,2.63-2.13,5.72-4.04,9.29-5.72,1.78-.84,3.32-1.46,4.61-1.86V31.47c-1.29-.4-2.82-1.02-4.61-1.86-3.57-1.63-6.66-3.54-9.29-5.72-2.58-2.13-4.81-4.53-6.69-7.21"/><path class="cls-6" d="M27.32,40.81c-.25,0-.37,.15-.37,.45l-1.04,15.16,1.34,24.67c0,.3,.15,.45,.45,.45s.44-.15,.44-.45l.74-27.87-1.12-11.96c0-.3-.15-.45-.45-.45"/><path class="cls-6" d="M21.97,121.66c-.25,0-.42,.15-.52,.45l-1.34,6.69-.07,4.31,.82,6.76c0,.3,.15,.45,.45,.45s.45-.15,.45-.45l1.11-5.28,.37-5.65-.07-1.41-.82-5.35c0-.25-.12-.42-.37-.52"/><path class="cls-6" d="M112.33,124.93c-.3,0-.45,.12-.45,.37l-1.04,4.98-.07,5.2,.15,1.34,.97,4.9c0,.3,.15,.45,.45,.45,.25,0,.37-.15,.37-.45l.97-4.9,.15-1.34-.07-5.2-1.04-4.98c0-.25-.12-.37-.37-.37"/><path class="cls-6" d="M36.09,66.52c-.3,0-.45,.12-.45,.37l-1.12,14.19,.15,5.65c.05,.5,.2,1.91,.45,4.24l.52,4.24c0,.3,.15,.45,.45,.45s.45-.15,.45-.45l.52-4.24c.3-2.33,.45-3.74,.45-4.24l.15-5.65-1.12-14.19c0-.25-.15-.37-.45-.37"/><path class="cls-6" d="M112.33,43.11c-.3,0-.45,.15-.45,.45l-1.11,10.78,.07,8.99,1.04,8.55c0,.3,.15,.45,.45,.45,.25,0,.37-.15,.37-.45l1.19-14.19-1.19-14.12c0-.3-.12-.45-.37-.45"/><path class="cls-5" d="M100.6,15.79l-2.45-3.94h-13.82v2.97h12.19l1.63,2.6v.07c1.99,2.81,4.32,5.31,6.99,7.51,2.72,2.28,5.92,4.26,9.59,5.94,1.42,.66,2.68,1.18,3.79,1.56v116.29c-1.11,.43-2.37,.98-3.79,1.63-3.66,1.74-6.85,3.7-9.59,5.87-2.66,2.24-4.99,4.74-6.99,7.51v.07c-.7,1.05-1.27,1.97-1.71,2.75H36.7c-.4-.78-.97-1.7-1.71-2.75v-.07c-1.94-2.76-4.3-5.26-7.06-7.51-2.63-2.18-5.83-4.13-9.59-5.87v-.07h-.07l-3.64-1.49V32.51c1.1-.38,2.34-.9,3.71-1.56,3.76-1.68,6.98-3.67,9.66-5.94h-.07c2.76-2.19,5.12-4.69,7.06-7.51,.75-1,1.32-1.89,1.71-2.68h43.99v-2.97H34.84l-.44,.89c-.35,.82-.96,1.84-1.86,3.05-1.78,2.59-3.93,4.89-6.46,6.91-2.47,2.13-5.44,3.99-8.92,5.57h-.08c-1.69,.81-3.15,1.4-4.38,1.78l-1.04,.3v120.53l5.42,2.23c3.52,1.63,6.52,3.46,8.99,5.5,2.53,2.07,4.69,4.37,6.46,6.91,.9,1.3,1.52,2.36,1.86,3.2l.44,.89h63.39l.45-.82c.42-.85,1.07-1.94,1.93-3.27,1.82-2.54,3.95-4.84,6.39-6.91,2.57-2.04,5.56-3.87,8.99-5.5,1.74-.81,3.22-1.4,4.46-1.78l1.04-.37V30.35l-1.04-.3c-1.24-.38-2.72-.98-4.46-1.78-3.41-1.58-6.39-3.44-8.92-5.57h-.07c-2.44-2.02-4.57-4.32-6.39-6.91"/><path d="M513.16,70.15c-.5,.23-1.03-.03-1.6-.8-.67-.83-1.55-1.25-2.65-1.25s-2,.42-2.6,1.25c-3.03,4-6.57,7.93-10.6,11.8-5.83,5.83-9.7,10.75-11.6,14.75-4.03,8.37-3.6,16.87,1.3,25.5,1.7,2.93,4.15,5.6,7.35,8,2.27,1.67,5.82,3.82,10.65,6.45l12.35-13.1v5.25l12.15,8.25,11.65-13.1-6.55-4.55v-27.8c0-4.53,1.38-9.33,4.15-14.4,1.33-2.5,2.68-4.58,4.05-6.25h-28.05Zm7.35,15.85l-4.75,5.85v20.95l-3.2,3.5c-3.63-.4-6.8-1.63-9.5-3.7-2.57-2.07-4.43-4.72-5.6-7.95-2.1-5.77-.87-11.98,3.7-18.65h19.35m-44.1-9.65l-10.5-7.5-12.95,11.85,6.35,4.15-.05,45.95h17.15v-54.45m-68.15-10.4l-13.65,12.85,7.85,5.9v34.25l-8.6,11.85h8.6v19.6h17.25v-19.6h17.5c.5-3.23,2.58-7.1,6.25-11.6,5.97-6.93,9.2-14.03,9.7-21.3,.27-4.53-.6-9.33-2.6-14.4-1.2-3.13-3.45-6.28-6.75-9.45-3.7-3.53-7.85-6.22-12.45-8.05l-11.65,12v-3.45l-11.45-8.6m11.45,22.75l4.55-4.45c4.73,2.17,8.5,6.18,11.3,12.05,3.23,6.67,3.58,13.12,1.05,19.35h-16.9v-26.95m-53.65-18.55l-1.9-1.75c-.87-.87-1.77-1.25-2.7-1.15-1,.07-1.78,.73-2.35,2-3.57,5.6-6.4,10.13-8.5,13.6-3.8,6.43-5.63,12.6-5.5,18.5,.17,9.37,3.65,17.1,10.45,23.2,5.73,5.1,12.75,8.43,21.05,10,2.37-3,6.5-7.38,12.4-13.15,4.9-5.77,7.53-12.1,7.9-19,.4-6.53-1.02-12.88-4.25-19.05-2.6-4.9-6.1-9.3-10.5-13.2h-16.1m5.95,15.1c5.33,4.97,8.88,10.85,10.65,17.65,1.3,5.2,1.43,9.17,.4,11.9-4.23-.17-7.97-1.02-11.2-2.55-2.37-1.17-5.05-3.07-8.05-5.7-6.37-5.67-8.58-12.77-6.65-21.3h14.85m-46.5-20.95c-4.23,6.67-8.43,11.48-12.6,14.45v2.4h6.95v43.55l11.55,9.85,13.1-13.25-7.4-5v-35.15h7.25l4.2-11h-11.45v-18.15h-5.4c-.5,2.57-2.57,6.67-6.2,12.3m-90.5-28.75c.03,.73,.03,2.88,0,6.45l19.8-6.75c-.9,12.6-1.73,24.23-2.5,34.9h-15.6c-.53-.17-.95-.47-1.25-.9-.63-.83-1.42-1.17-2.35-1-.93,.1-1.88,.73-2.85,1.9l-10.05,11.7v-6.15l-10.55-7.55-12.9,11.8,6.3,4.15-.1,46.8h17.25v-40.1l5.35-5.9h12.4l-5.3,5.3v37.4l11.75,8.65,11.95-12.35-6.6-4.8v-29.05c0-3.9,.63-7.1,1.9-9.6,.7-1.47,1.88-3.63,3.55-6.5l2.3-3.8h-.65l3.8-1.55v62.2h17.15v-28.6c3.93,.8,6.68,3.6,8.25,8.4,.93,2.7,2.23,6.67,3.9,11.9,4.23,7.3,9.63,10.82,16.2,10.55l10.3-15.6c-3.7-.23-6.62-1.88-8.75-4.95-2.27-4.3-4.28-7.73-6.05-10.3-3.17-4.8-7.15-7.95-11.95-9.45,1.7-1.03,3.35-3.08,4.95-6.15,.77-1.57,1.37-3.03,1.8-4.4h11.4l4.9-12.05h-13.05c-.33,0-.63-.42-.9-1.25-.47-1.03-.72-1.6-.75-1.7-.73-.9-1.73-1.27-3-1.1-1.37,.17-2.22,.93-2.55,2.3-.37,1.57-.88,3.92-1.55,7.05-.67,2.87-1.6,5.37-2.8,7.5-1.4,2.43-2.78,4.27-4.15,5.5-1.63,1.5-3.7,2.55-6.2,3.15v-27.8c0-.9,.07-1.75,.2-2.55l17.65-7.45L267.76,0c-9.47,8.53-16.22,14.63-20.25,18.3-3-6.8-5.25-12.32-6.75-16.55-13.87,15.33-28.17,29.42-42.9,42.25,19.73-7.23,32.03-12.08,36.9-14.55l.25,6.1m4.2,.85l-1.1-14.45c-4.17,2.1-11.48,5.45-21.95,10.05,5.13-4.57,7.78-6.95,7.95-7.15,4.83-5.17,9.8-10.15,14.9-14.95,1.6,4.3,3.62,9.68,6.05,16.15,11.23-8.9,18.33-14.78,21.3-17.65l20.95,42.35c-.77,.23-1.67,.53-2.7,.9-.93,.33-1.95,.72-3.05,1.15-6.73,2.7-13.7,5.53-20.9,8.5-.73,.3-1.48,.62-2.25,.95,.57-9.97,1.2-21.33,1.9-34.1-12.6,4.9-19.15,7.43-19.65,7.6-.53,.27-1.02,.48-1.45,.65m-97.9,41.85l5.85,5.5v31.7c0,4.57-.88,8.33-2.65,11.3-.1,.17-1.25,1.52-3.45,4.05h28.7l5.8-10.05v4.85l11.25,8.25,11.95-11.85-5.95-4.55v-47.3h-17.25v41.5l-3.65,5.3h-11.7l4.2-4.95v-36.25l-11.3-8.9-11.8,11.4M51.81,43.1c5.2-1.83,10.1-1.73,14.7,.3,3.7,1.6,6.13,5.9,7.3,12.9,.97,5.93,1.45,16.88,1.45,32.85,0,19.2-.85,32.22-2.55,39.05-2.8,11-8.8,16.47-18,16.4-6.97-.07-12.38-2.07-16.25-6-3.37-3.47-5.07-7.88-5.1-13.25-.07-5.1,1.38-9.63,4.35-13.6,.67-.87,1.35-1.63,2.05-2.3-1.13,2.03-1.7,4.33-1.7,6.9,0,4.3,1.6,7.97,4.8,11,3.13,2.97,6.92,4.45,11.35,4.45s8.27-1.48,11.4-4.45c3.2-3.03,4.8-6.7,4.8-11,0-2.47-.55-4.75-1.65-6.85-.1-.17-.22-.35-.35-.55-3.07-5.93-9.37-8.75-18.9-8.45-6.7,.17-12.28,3.23-16.75,9.2-4.13,5.53-6.05,11.97-5.75,19.3,.33,7.7,3.25,14.05,8.75,19.05,6.3,5.73,15.2,8.6,26.7,8.6,16.03,0,27.35-3.72,33.95-11.15,5.43-6.1,8.15-15.62,8.15-28.55,.33-14.1,.42-28.27,.25-42.5-.33-28.63-1.65-43.47-3.95-44.5-2.13-1-6.27-1.82-12.4-2.45-7.73-.9-14.9-.9-21.5,0-19.67,2.63-29.5,11.98-29.5,28.05,0,5.77,2.53,10.22,7.6,13.35,4.5,2.8,9.75,3.97,15.75,3.5,2.37-.3,4.42-1.25,6.15-2.85,1.97-1.87,2.95-4.15,2.95-6.85s-.98-4.88-2.95-6.75c-2-1.93-4.43-2.9-7.3-2.9s-5.12,.97-7.15,2.9c-2,1.87-3,4.12-3,6.75,0,1.83,.47,3.47,1.4,4.9-.6-.23-1.17-.52-1.7-.85-4.23-2.4-6.35-6.13-6.35-11.2,0-6.23,2.98-10.38,8.95-12.45m23.4,.3l3.8,.25c2.73,.4,4.48,1.28,5.25,2.65,1.7,2.73,2.55,17.45,2.55,44.15s-.85,41.6-2.55,44.6c-.77,1.47-2.52,2.75-5.25,3.85l-3.8,1.35c3.5-4.37,5.25-21.4,5.25-51.1,0-14.37-.43-24.92-1.3-31.65-.73-5.6-2.05-10.3-3.95-14.1"/><path d="M82.43,15.51c-1.15-2.7-3.29-7.23-6.41-13.6l-48.21-.43C21.72,11.99,12.51,18.77,.15,21.83V157.35c0,.28-.05,.7-.15,1.28,13.95,3.74,23.03,10.89,27.23,21.46H104.62c8.82-11.81,18.34-18.91,28.57-21.31-.08-.85-.12-1.33-.12-1.43l-.21-134.86c-13.32-3.47-22.42-10.37-27.32-20.71-6.9,0-12.43-.01-16.58-.06l-6.53,13.78Zm-9.47-10.11c3.51,5.81,6.51,11.13,8.99,15.97,4.79-8.17,7.79-13.57,8.99-16.18l11.48,.3c.97,1.88,2.4,3.91,4.28,6.07,1.84,2.09,3.88,4.02,6.1,5.8,2.19,1.68,4.96,3.41,8.32,5.19,2.63,1.36,5.11,2.4,7.44,3.13l.06,130.12c-2.33,.75-4.83,1.79-7.5,3.13-3.12,1.54-5.89,3.27-8.32,5.19-2.33,1.78-4.38,3.68-6.16,5.71-1.58,1.74-3.04,3.65-4.37,5.74l-71.19-.09c-1.54-2.27-2.98-4.17-4.31-5.71-1.94-2.12-4.03-4.03-6.25-5.71-2.17-1.7-4.94-3.44-8.32-5.22-2.23-1.09-4.71-2.14-7.44-3.13V25.77c2.53-.95,5.01-2.02,7.44-3.22,3.28-1.62,6.05-3.35,8.32-5.19,2.33-1.78,4.39-3.68,6.19-5.71,1.58-1.74,3.04-3.65,4.37-5.74l41.9-.52Z"/></g></g></g></g></svg>