<?xml version="1.0" standalone="no"?>
<!DOCTYPE svg PUBLIC "-//W3C//DTD SVG 1.1//EN" "http://www.w3.org/Graphics/SVG/1.1/DTD/svg11.dtd" >
<svg xmlns="http://www.w3.org/2000/svg" xmlns:xlink="http://www.w3.org/1999/xlink" version="1.1">
<metadata></metadata>
<defs>
<font id="mouse_memoirs_proregular" horiz-adv-x="784" >
<font-face units-per-em="2048" ascent="1638" descent="-410" />
<missing-glyph horiz-adv-x="337" />
<glyph unicode="&#xfb01;" horiz-adv-x="897" d="M905 1329q0 -65 -41 -105t-121 -40q-136 0 -157 102q-44 12 -88 12q-45 0 -71.5 -8t-49.5 -34.5t-34.5 -77t-16.5 -134.5l520 -6q-23 -211 -23 -522q0 -342 21 -465q-135 0 -258 -16q28 302 28 606q0 101 -4 215l-293 6v-78q-6 -427 -6 -786l-194 -6q-11 458 -11 874 l-90 2v181l93 -2l4 114q0 159 104 255.5t254 96.5q157 0 272 -38q88 -28 125 -58.5t37 -87.5z" />
<glyph unicode="&#xfb02;" horiz-adv-x="841" d="M776 27q-88 -5 -207 -17q-15 629 -51 1303q-24 6 -45 6q-23 0 -41.5 -4.5t-32 -16t-23.5 -22t-17.5 -31t-12 -34.5t-8 -40.5t-5 -41t-4 -44.5t-3.5 -43h157v-182h-166v-76q-6 -427 -6 -786l-194 -6q-11 470 -11 776v100h-90v174h93l4 119q0 179 83.5 274t229.5 95 q159 0 344 -100v-3h2q0 -536 1 -886t2 -432z" />
<glyph horiz-adv-x="0" />
<glyph horiz-adv-x="682" />
<glyph unicode=" "  horiz-adv-x="337" />
<glyph unicode="&#x09;" horiz-adv-x="337" />
<glyph unicode="&#xa0;" horiz-adv-x="337" />
<glyph unicode="!" horiz-adv-x="360" d="M66 1448l241 2q-57 -565 -63 -1114l-133 -4q-11 491 -45 1116zM289 84q0 -47 -35 -81t-82 -34t-81 34t-34 81t34 81t81 34t82 -34t35 -81z" />
<glyph unicode="&#x22;" horiz-adv-x="571" d="M539 1432q-15 -96 -28 -218t-19 -196l-5 -74h-135q-16 291 -45 488q43 -2 105 -2q27 0 62.5 1t64.5 1zM264 1432q-14 -96 -25.5 -218t-16.5 -196l-5 -74h-137q-16 291 -45 488q43 -2 104 -2q27 0 62 1t63 1z" />
<glyph unicode="#" horiz-adv-x="659" d="M377 1114l153 8l-6 -188l84 4v-137l-88 -2l-4 -119l92 2l-2 -150h-94l-6 -206l-127 -9q-2 92 -2 213h-86l-2 -194l-135 -10l-2 202h-105l4 150h99v110l-101 -2v136l98 2v196l150 -2l-2 -190l80 2q0 184 2 184zM293 678h82v117l-82 -2v-115z" />
<glyph unicode="$" horiz-adv-x="466" d="M270 1382l-4 -290q66 -3 164 -43l-12 -172q-24 20 -57.5 32.5t-54.5 15.5l-21 3q-32 -3 -54 -29t-22 -63q0 -38 22 -70t53.5 -58t64 -55.5t56 -76t25.5 -105.5q0 -95 -50.5 -150.5t-123.5 -72.5l8 -311h-88l8 303q-92 0 -147 47l8 168q35 -25 77 -40t66 -17l25 -3 q47 24 47 78q0 28 -23 58.5t-56 61.5t-66.5 67t-56.5 88t-23 112q0 85 42 143.5t113 79.5l-8 299h88z" />
<glyph unicode="%" horiz-adv-x="915" d="M444 1053q0 -154 -58 -233t-148 -79q-91 0 -149 78t-58 234q0 161 57 235t150 74q91 0 148.5 -76.5t57.5 -232.5zM305 1053q0 219 -67 219q-68 0 -68 -219q0 -111 18.5 -166.5t49.5 -55.5t49 56t18 166zM885 379q0 -155 -58 -233t-149 -78t-149 77.5t-58 233.5 q0 160 57.5 234.5t149.5 74.5q91 0 149 -76.5t58 -232.5zM745 379q0 219 -67 219q-68 0 -68 -219q0 -112 18.5 -166.5t49.5 -54.5t49 55t18 166zM614 1305l158 -25q-217 -444 -477 -1141q-12 3 -31 7.5t-62.5 11.5t-68.5 6q128 239 275.5 592.5t205.5 548.5z" />
<glyph unicode="&#x26;" horiz-adv-x="935" d="M936 8l-258 -39q-3 4 -21 25t-26 33q-50 -37 -106.5 -58t-87.5 -23l-31 -3q-179 0 -287.5 97.5t-108.5 262.5q-1 127 64 249.5t178 262.5q-18 82 -28.5 159t-11.5 114l-1 36q1 104 22.5 178.5t59.5 113t79.5 55t90.5 16.5q85 0 144 -68.5t59 -183.5q0 -54 -15.5 -107.5 t-48.5 -110.5t-61 -97.5t-76 -102.5q67 -221 158 -395q8 44 8 100q0 66 -17 142l228 2q2 -31 2 -86q0 -231 -78 -387q77 -107 170 -185zM389 109q73 0 131 67q-135 211 -209 430q-86 -135 -86 -250q0 -119 46 -183t118 -64zM389 1192q0 -56 25 -170q67 96 67 164 q0 47 -12 70.5t-31 23.5t-34 -24t-15 -64z" />
<glyph unicode="'" horiz-adv-x="299" d="M264 1432q-14 -96 -25.5 -218t-16.5 -196l-5 -74h-137q-16 291 -45 488q43 -2 104 -2q27 0 62 1t63 1z" />
<glyph unicode="(" horiz-adv-x="520" d="M397 1614l138 -113q-76 -65 -133 -163.5t-86 -205.5t-42.5 -203t-13.5 -184q0 -140 25.5 -287.5t85.5 -293t143 -227.5l-137 -152q-177 208 -258.5 442t-81.5 518q0 151 42.5 315t126 314t191.5 240z" />
<glyph unicode=")" horiz-adv-x="520" d="M-14 1501l137 113q108 -90 191.5 -240t126 -314t42.5 -315q0 -284 -81.5 -518t-258.5 -442l-137 152q83 82 143 227.5t85.5 293t25.5 287.5q0 88 -13.5 184t-42.5 203t-85.5 205.5t-132.5 163.5z" />
<glyph unicode="*" horiz-adv-x="684" d="M106 1251q-1 -1 20 -15t71.5 -47t66.5 -44q-5 40 -12 98t-11.5 93t-4.5 34t50 0.5t100 3.5l50 2l-20 -221q28 19 73 51.5t69 49t24 14.5l71 -203l-182 -55l143 -121l-122 -176l-148 233l-104 -239l-148 157l133 138l-196 49q5 13 13.5 33.5t26 64t28 72.5t9.5 28z" />
<glyph unicode="+" horiz-adv-x="647" d="M414 596l-4 -176h-185v174h-176v201l174 -4v178h201l-6 -185l180 -4v-184h-184z" />
<glyph unicode="," horiz-adv-x="305" d="M270 80q0 -70 -25 -119.5t-81 -105.5l-74 34q25 27 39 74q-42 8 -69 40.5t-27 76.5q0 50 34.5 84.5t84.5 34.5q49 0 83.5 -34.5t34.5 -84.5z" />
<glyph unicode="-" horiz-adv-x="661" d="M606 780v-184l-549 -2v201z" />
<glyph unicode="." horiz-adv-x="303" d="M270 82q0 -50 -34.5 -84.5t-83.5 -34.5q-50 0 -84.5 34.5t-34.5 84.5t34.5 84.5t84.5 34.5q49 0 83.5 -34.5t34.5 -84.5z" />
<glyph unicode="/" horiz-adv-x="851" d="M829 1468q-50 -120 -128 -310t-232.5 -597.5t-208.5 -603.5q-16 3 -43 6.5t-91.5 9.5t-107.5 4q84 166 232.5 543.5t255.5 671.5l106 295z" />
<glyph unicode="0" horiz-adv-x="823" d="M780 717q0 -190 -28.5 -337.5t-79.5 -238t-116.5 -136.5t-143.5 -46q-163 0 -266 189.5t-103 568.5q0 163 19 292t52 215t80.5 143t101 81.5t116.5 24.5q163 0 265.5 -188.5t102.5 -567.5zM551 717q0 287 -38.5 429t-100.5 142q-30 0 -55 -30.5t-45 -95.5t-31 -178.5 t-11 -266.5q0 -146 11 -258t31 -180t45 -102t55 -34q62 0 100.5 145t38.5 429z" />
<glyph unicode="1" horiz-adv-x="563" d="M297 1458l211 -12q-31 -597 -31 -1149q0 -201 2 -301h-215q10 403 10 743q0 153 -4 443l-159 -140l-113 150q171 138 299 266z" />
<glyph unicode="2" horiz-adv-x="649" d="M606 1061q0 -394 -332 -873h326v-188h-547v201q69 103 123.5 196.5t110 210t86 235.5t30.5 228q0 84 -29.5 124t-92.5 40q-96 0 -203 -115l-55 219q40 53 99.5 84.5t103 39t87.5 7.5q76 0 134 -33t92 -91t50.5 -129.5t16.5 -155.5z" />
<glyph unicode="3" horiz-adv-x="679" d="M649 350q0 -85 -24.5 -155.5t-63 -115.5t-87 -76.5t-95 -44.5t-88.5 -13q-13 0 -37.5 3.5t-87 27t-123.5 63.5l31 242q42 -46 92 -73.5t79 -31.5l29 -4q66 0 110 60t44 139q0 95 -70 163t-172 74v162q89 53 148 141t59 189q0 58 -32 105.5t-93 47.5q-74 0 -182 -108 l-61 198q58 58 127.5 91.5t108.5 40t73 6.5q122 0 205.5 -102.5t83.5 -248.5q0 -117 -68.5 -225.5t-179.5 -181.5q72 -32 126.5 -82.5t81 -99t43 -92.5t20.5 -71z" />
<glyph unicode="4" horiz-adv-x="716" d="M432 1442l221 2q-18 -452 -18 -895q0 -273 6 -543l-227 -2q8 167 20 492l-411 -2q65 481 81 895h218q-54 -401 -62 -723l178 8q2 94 2 284q0 268 -8 484z" />
<glyph unicode="5" horiz-adv-x="665" d="M641 459q0 -69 -11 -133t-38 -125t-67.5 -106t-103.5 -72t-142 -27q-141 0 -242 70l18 196q92 -67 183 -67q47 0 83.5 24.5t56.5 64t30 83.5t10 90q0 124 -59 188t-140 64q-90 0 -166 -43l53 723l451 16v-188l-268 -9l-23 -321q36 4 49 4q141 0 233.5 -119.5t92.5 -312.5 z" />
<glyph unicode="6" horiz-adv-x="755" d="M731 500q0 -134 -29.5 -236t-80.5 -161t-111 -88t-127 -29q-338 0 -338 680q0 134 13.5 245.5t35.5 189t54 137.5t66 95.5t74 58t75 30.5t73 8q103 0 197 -35l-21 -185q-45 35 -102 35q-73 0 -123.5 -49t-75.5 -126t-37 -189q27 37 66 58t64 23l26 3q301 0 301 -465z M389 776q-4 0 -10.5 -1t-24 -9t-33 -22t-32.5 -44t-27 -71v-25q0 -420 135 -420q51 0 86 85t35 227q0 129 -32.5 204.5t-96.5 75.5z" />
<glyph unicode="7" horiz-adv-x="550" d="M25 1413l522 10q-167 -723 -246 -1441l-219 8q98 681 223 1227h-280v196z" />
<glyph unicode="8" horiz-adv-x="727" d="M678 336q0 -91 -26 -160.5t-71 -110.5t-100 -61t-119 -20q-131 0 -222 91.5t-91 260.5q0 111 40 191.5t108 125.5q-67 60 -107.5 157t-40.5 208q0 434 313 434q316 0 316 -434q0 -112 -41 -208.5t-109 -156.5q69 -46 109.5 -127.5t40.5 -189.5zM469 1006 q0 141 -29.5 207.5t-77.5 66.5q-47 0 -76.5 -65.5t-29.5 -208.5q0 -113 31.5 -194t74.5 -81q44 0 75.5 80.5t31.5 194.5zM469 344q0 92 -31.5 156.5t-75.5 64.5q-43 0 -74.5 -64.5t-31.5 -156.5q0 -114 29.5 -167.5t76.5 -53.5q48 0 77.5 52.5t29.5 168.5z" />
<glyph unicode="9" horiz-adv-x="753" d="M25 915q0 134 29.5 236t80 161.5t111 88.5t127.5 29q338 0 338 -680q0 -186 -26 -327t-65 -222t-93.5 -131.5t-104 -67t-103.5 -16.5q-102 -1 -196 34l20 185q48 -37 103 -37q105 0 159.5 96t75.5 268q-28 -36 -66.5 -56.5t-63.5 -22.5l-25 -2q-301 0 -301 464zM367 639 q4 0 10.5 1t24 9t33 22t32.5 44t27 71v25q0 420 -136 420q-51 0 -85.5 -84.5t-34.5 -226.5q0 -129 32.5 -205t96.5 -76z" />
<glyph unicode=":" horiz-adv-x="368" d="M303 786q0 -47 -35 -81.5t-84 -34.5t-83.5 34t-34.5 82q0 51 34 86t84 35t84.5 -35t34.5 -86zM303 82q0 -50 -34.5 -84.5t-84.5 -34.5q-49 0 -83.5 34.5t-34.5 84.5t34.5 84.5t83.5 34.5q50 0 84.5 -34.5t34.5 -84.5z" />
<glyph unicode=";" horiz-adv-x="368" d="M303 80q0 -70 -25 -119.5t-81 -105.5l-74 34q25 27 39 74q-42 8 -69 40.5t-27 76.5q0 50 34.5 84.5t83.5 34.5q50 0 84.5 -34.5t34.5 -84.5zM303 774q0 -48 -35 -82.5t-84 -34.5t-83.5 34.5t-34.5 82.5q0 51 34 86t84 35t84.5 -35t34.5 -86z" />
<glyph unicode="&#x3c;" horiz-adv-x="565" d="M520 565l-71 -190l-408 233v199l393 264l86 -184l-323 -168z" />
<glyph unicode="=" horiz-adv-x="671" d="M61 631l549 -15v-184l-549 -2v201zM61 958l549 -14v-184h-549v198z" />
<glyph unicode="&#x3e;" horiz-adv-x="565" d="M117 375l-72 190l324 154l-324 168l86 184l393 -264v-199z" />
<glyph unicode="?" horiz-adv-x="632" d="M604 1114q0 -76 -14 -140t-38 -112.5t-53.5 -92.5t-62 -89.5t-62.5 -93.5t-57 -115.5t-43 -144.5h-135q0 5 -1 14t-1 14q0 75 20.5 150.5t40.5 113.5l21 39q21 36 63.5 96t67.5 99t46.5 98t21.5 117q0 106 -41 155.5t-105 49.5q-52 0 -107 -27.5t-95 -70.5l-41 157 q36 35 77.5 61t73 38.5t63.5 20t45.5 8.5t22.5 1q124 0 208.5 -95t84.5 -251zM336 84q0 -47 -34 -81t-81 -34t-82 34t-35 81t35 81t82 34t81 -34t34 -81z" />
<glyph unicode="@" horiz-adv-x="1089" d="M1057 637q0 -210 -63.5 -324t-159.5 -114q-126 0 -162 137q-60 -113 -164 -113q-73 0 -113.5 69.5t-40.5 211.5q0 164 56 234.5t143 70.5q8 0 21 -2.5t43.5 -23t48.5 -56.5q2 25 10 80l131 -10q-8 -131 -8 -324q0 -141 37 -141q61 0 61 252q0 83 -8 148.5t-29.5 125.5 t-56 99.5t-89.5 63t-128 23.5q-72 0 -133 -27.5t-105 -76t-74.5 -114t-45.5 -142.5t-15 -160q0 -189 72 -297.5t166 -120.5l-9 -141h-14q-78 0 -141.5 31.5t-102.5 81.5t-67.5 111t-41.5 122t-20.5 111t-8.5 82l-1 31q0 120 23 219.5t59 165.5t86 117.5t99 79.5t102.5 46 t91.5 23.5t72 5.5q33 0 68.5 -4.5t84 -19.5t92 -39t87.5 -67t75.5 -99.5t51.5 -140.5t20 -185zM659 594q-10 22 -23.5 38.5t-24.5 24t-21 12t-16 5.5h-5q-32 0 -51.5 -37.5t-19.5 -101.5q0 -179 67 -179q3 0 7 1t16.5 7t23.5 16t24 31t21 50q0 55 2 133z" />
<glyph unicode="A" horiz-adv-x="720" d="M723 8l-248 -16q-13 193 -20 280q-128 9 -168 9h-13q-12 -186 -16 -281l-250 4q130 752 197 1428l301 -5q80 -746 217 -1419zM358 1180q-42 -380 -71 -736q29 -2 88 -2h65q-32 338 -82 738z" />
<glyph unicode="B" horiz-adv-x="712" d="M688 1040q0 -137 -59 -263.5t-174 -186.5q55 -25 93 -64t54 -83t21.5 -76t5.5 -62q0 -73 -21.5 -130.5t-58.5 -92.5t-78 -59t-87.5 -35t-78 -15t-59.5 -4q-99 0 -162 39q6 190 6 379q0 490 -45 1014q55 17 119 27t100 11l37 1q41 0 88 -11t101 -40t97.5 -72t72 -115 t28.5 -162zM494 995q0 151 -78 223q-44 41 -111 48q-16 -437 -20 -658q55 20 96.5 67.5t62 100.5t33 103t15.5 83zM438 332q0 7 -1 18.5t-9.5 42.5t-23 56t-46.5 48.5t-75 30.5q-7 -243 -7 -417q45 17 78 45.5t48.5 58t24.5 56.5t10 44z" />
<glyph unicode="C" horiz-adv-x="634" d="M592 223l37 -198q-45 -21 -98.5 -33t-84.5 -14l-30 -1q-47 0 -94 18t-99.5 69.5t-92 131t-65.5 216t-26 311.5q0 127 16 233.5t42 180.5t62 132t73 92.5t77.5 56.5t72.5 30t62 8q11 0 29.5 -1.5t59.5 -13.5t65 -34l-20 -201q-56 27 -99 27q-46 0 -83 -29t-60 -75 t-40 -102t-24.5 -112t-12 -102t-5.5 -75v-29q0 -11 0.5 -29.5t5 -72.5t12.5 -103t25 -109t40 -103t61 -72.5t85 -29.5q50 0 109 33z" />
<glyph unicode="D" horiz-adv-x="737" d="M696 680q0 -128 -17 -233.5t-44.5 -177.5t-66 -127t-77.5 -86.5t-82.5 -51.5t-77.5 -26.5t-67 -6.5l-205 17q27 456 27 827q0 296 -16 627q66 4 92 4q130 0 225 -37.5t154 -101t94 -164t48 -209.5t13 -254zM492 707q0 71 -3 128.5t-14.5 130t-30.5 124.5t-55.5 95 t-85.5 58q-24 -440 -24 -825q0 -179 2 -271q45 5 80 34t57.5 76.5t37.5 101.5t22.5 119.5t10.5 118.5t3 110z" />
<glyph unicode="E" horiz-adv-x="614" d="M473 735v-200q-82 4 -127 4q-12 0 -38 -1t-38 -1l-4 -357q150 3 324 27v-209q-148 4 -213 4q-129 0 -311 -10q20 410 20 737q0 370 -20 707q120 -9 225 -9q114 0 280 13v-230q-135 23 -243 23h-39q-16 -216 -19 -498q35 -2 107 -2q63 0 96 2z" />
<glyph unicode="F" horiz-adv-x="585" d="M473 735v-200q-82 4 -127 4q-12 0 -35 -1t-35 -1l13 -545q-31 4 -101 4l-122 -4q20 410 20 737q0 370 -20 707q120 -9 225 -9q114 0 280 13v-230q-135 23 -243 23h-39q-13 -191 -13 -459v-39q33 -2 101 -2q63 0 96 2z" />
<glyph unicode="G" horiz-adv-x="669" d="M397 713l238 4q-29 -199 -29 -406q0 -39 9 -151.5t14 -134.5q-45 -21 -98.5 -33t-84.5 -14l-30 -1q-47 0 -94 18t-99.5 69.5t-92 131t-65.5 216t-26 311.5q0 127 16 233.5t42 180.5t62 132t73 92.5t77.5 56.5t72.5 30t62 8q11 0 29.5 -1.5t59.5 -13.5t65 -34l-20 -201 q-56 27 -99 27q-46 0 -83 -29t-60 -75t-40 -102t-24.5 -112t-12 -102t-5.5 -75v-29q0 -9 0.5 -25.5t4 -64.5t10 -93t20.5 -101.5t32.5 -100t49.5 -79.5t69 -48q-3 261 -43 516z" />
<glyph unicode="H" horiz-adv-x="825" d="M66 1436h266q-23 -492 -27 -783q33 -2 101 -2q43 0 133 4q2 57 2 174q0 277 -13 607h246q-37 -472 -37 -957q0 -181 11 -471h-228q15 397 17 473q-152 8 -226 8h-8v-206q0 -183 2 -275h-229q8 253 8 567q0 431 -18 861z" />
<glyph unicode="I" horiz-adv-x="497" d="M473 213l-10 -199q-106 4 -160 4q-117 0 -264 -10l2 215q32 -4 92 -8q17 436 17 616q0 102 -9 406q-34 0 -108 -4l2 209q170 -10 309 -10q74 0 113 2l-6 -199q-15 0 -45 1t-46 1q-26 -344 -26 -715q0 -157 6 -313q43 0 133 4z" />
<glyph unicode="J" horiz-adv-x="583" d="M147 1440l377 4q-7 -285 -11 -530.5t-5 -349.5v-103q-1 -98 -20 -179.5t-49 -134t-68.5 -89.5t-77 -53.5t-76.5 -18.5q-129 0 -209 39l29 174q45 -23 92 -23q60 0 96 17t58.5 64.5t30.5 122t8 200.5q0 93 -17 663h-158v197z" />
<glyph unicode="K" horiz-adv-x="724" d="M72 1444h231q-29 -362 -35 -750q118 312 254 754l219 -16q-179 -412 -307 -793q102 -276 275 -610l-222 -25q-103 304 -221 569v-124q0 -221 6 -435l-206 2q14 472 14 815q0 203 -8 613z" />
<glyph unicode="L" horiz-adv-x="604" d="M590 207v-209q-148 4 -213 4q-129 0 -311 -10q20 410 20 737q0 370 -20 707q35 -2 86 -2q68 0 145 6q-16 -172 -21.5 -382.5t-6.5 -485.5t-3 -392q150 3 324 27z" />
<glyph unicode="M" horiz-adv-x="1067" d="M1010 4l-236 -6q14 529 14 907q0 119 -2 170q-101 -606 -143 -1057l-190 5q-103 678 -156 1048v-348q0 -566 16 -719l-272 -16q49 285 49 882q0 136 -2.5 275.5t-5.5 210.5l-2 71q111 -18 260 -18l78 2q100 -699 133 -907q27 182 51 412t34 368l11 139q70 -8 172 -8 q90 0 174 8q-12 -375 -12 -647q0 -236 7.5 -429t14.5 -268z" />
<glyph unicode="N" horiz-adv-x="849" d="M528 1444l263 -2q-27 -449 -27 -795q0 -320 20 -610l-202 6q-28 92 -96 319.5t-117.5 388t-100.5 310.5q8 -661 33 -1038l-231 2q12 320 12 641q0 366 -16 782l280 -6q120 -513 232 -895q-8 284 -50 897z" />
<glyph unicode="O" d="M743 700q0 -157 -18 -282t-49 -209t-75.5 -139.5t-96 -80t-111.5 -24.5q-61 0 -112 23t-96 77.5t-76.5 137.5t-49.5 209.5t-18 287.5q0 201 27 350.5t76 237t111 129t138 41.5q60 0 111.5 -24.5t96 -81.5t75.5 -143.5t49 -215.5t18 -293zM520 700q0 152 -10 264.5 t-27.5 177t-40 95.5t-49.5 31q-28 0 -50.5 -31.5t-40.5 -96.5t-28 -177t-10 -263q0 -544 129 -544q27 0 49.5 29.5t40 91.5t27.5 169.5t10 253.5z" />
<glyph unicode="P" horiz-adv-x="679" d="M662 993q0 -88 -23 -169t-68 -151.5t-118.5 -124.5t-167.5 -81q2 -164 14 -475h-244q31 467 31 911q0 311 -10 533q81 26 200 26q40 0 82.5 -8t99.5 -38t100 -77.5t73.5 -137.5t30.5 -208zM285 672v-35q49 18 84.5 57.5t52 83t26 85t10.5 68.5l1 27q0 7 -0.5 18t-3.5 42 t-8.5 60t-17.5 65.5t-28 65t-42.5 53t-59.5 34.5q-14 -290 -14 -624z" />
<glyph unicode="Q" d="M721 -166l-193 -108q-25 118 -84 245q-24 -6 -51 -6q-61 0 -112 23t-96 77.5t-76.5 137.5t-49.5 209.5t-18 287.5q0 201 27 350.5t76 237t111 129t138 41.5q60 0 111.5 -24.5t96 -81.5t75.5 -143.5t49 -215.5t18 -293q0 -499 -174 -663q61 -103 152 -203zM520 700 q0 152 -10 264.5t-27.5 177t-40 95.5t-49.5 31q-28 0 -50.5 -31.5t-40.5 -96.5t-28 -177t-10 -263q0 -544 129 -544q27 0 49.5 29.5t40 91.5t27.5 169.5t10 253.5z" />
<glyph unicode="R" horiz-adv-x="694" d="M653 1008q0 -145 -56.5 -272.5t-176.5 -205.5q116 -297 274 -528l-250 -14l-170 483q6 -227 25 -479h-244q31 467 31 911q0 311 -10 533q81 26 200 26q40 0 81.5 -8t97.5 -36.5t97.5 -75t71 -133.5t29.5 -201zM272 672v-39q52 15 90.5 54.5t56 84t28 87.5t11.5 71l1 28 q0 7 -0.5 18.5t-3.5 43t-8.5 60.5t-17.5 66t-28.5 65.5t-43.5 52.5t-60 34q-25 -327 -25 -626z" />
<glyph unicode="S" horiz-adv-x="616" d="M573 354q0 -90 -23.5 -161t-58 -111.5t-78.5 -66.5t-79.5 -35t-67.5 -9q-104 0 -209 49l11 252q99 -84 184 -84q60 0 92.5 44t32.5 118q0 113 -107 236q-108 124 -149 185q-98 149 -98 300q0 96 27.5 172t74 122.5t105 70.5t124.5 24q119 0 236 -63l-19 -252 q-78 98 -196 98q-58 0 -95.5 -53t-37.5 -129q0 -46 18.5 -89t47.5 -80t64.5 -76t70.5 -85t64 -98t47.5 -124.5t18.5 -154.5z" />
<glyph unicode="T" horiz-adv-x="583" d="M571 1427l-6 -200q-86 4 -162 4q-24 -331 -24 -805q0 -253 8 -430h-213q19 356 19 749q0 142 -9 484q-78 0 -168 -4l2 209q141 -9 379 -9q127 0 174 2z" />
<glyph unicode="U" horiz-adv-x="741" d="M637 1448q41 -360 41 -848q0 -81 -7 -153t-21.5 -143t-41 -127.5t-63.5 -100.5t-90 -68t-119 -24q-291 0 -291 561q0 303 57 864l209 -4q-49 -563 -49 -885q0 -147 19.5 -239.5t62.5 -92.5q52 0 86.5 150.5t34.5 343.5q0 373 -27 743z" />
<glyph unicode="V" horiz-adv-x="718" d="M475 1432l248 -17q-137 -673 -217 -1419l-301 -4q-66 673 -197 1427l250 4q25 -501 100 -1181q83 642 117 1190z" />
<glyph unicode="W" horiz-adv-x="1064" d="M791 1427l256 -26l-140 -1440h-264q-7 250 -27 433t-67 470q-53 -320 -135 -893l-277 -14l-100 1438l252 6q-2 -209 -2 -453q0 -410 4 -557l137 871h231l109 -830z" />
<glyph unicode="X" horiz-adv-x="710" d="M465 1434l248 -19q-146 -331 -267 -723q110 -343 261 -674l-238 -24l-117 379q-27 -99 -96 -385l-252 28q121 301 246 686q-124 387 -244 703l232 31q75 -302 108 -418q52 174 119 416z" />
<glyph unicode="Y" horiz-adv-x="712" d="M481 1440l246 -6q-113 -357 -281 -1012v-62q0 -151 19 -368h-240q31 257 31 448q-115 477 -248 975l250 21q12 -270 98 -742q83 411 125 746z" />
<glyph unicode="Z" horiz-adv-x="600" d="M592 1436q-204 -691 -297 -1215h51q93 0 213 10l4 -233q-199 20 -422 20q-96 0 -143 -2q225 647 340 1225q-100 -4 -281 -27l-6 220q144 -7 246 -7q148 0 295 9z" />
<glyph unicode="[" horiz-adv-x="499" d="M475 14v-188q-234 0 -403 8q22 346 22 948q0 548 -22 834l399 16l4 -205q-68 3 -162 3q-12 -214 -12 -637q0 -469 12 -783z" />
<glyph unicode="\" horiz-adv-x="851" d="M23 1468l217 19q45 -127 117.5 -326.5t232.5 -608.5t244 -575h-23q-43 0 -97.5 -5t-87.5 -10l-34 -5q-54 196 -196 573.5t-258 657.5z" />
<glyph unicode="]" horiz-adv-x="499" d="M25 1444v188q234 0 403 -8q-22 -346 -22 -948q0 -548 22 -834l-399 -16l-4 205q45 -2 161 -2q13 231 13 637q0 442 -13 782z" />
<glyph unicode="^" horiz-adv-x="495" d="M326 1452l170 -520l-185 -23q-73 355 -73 375l-66 -381l-172 25l154 524q54 -4 79 -4z" />
<glyph unicode="_" horiz-adv-x="630" d="M561 -92q-4 -12 -4 -96q0 -79 4 -115q-222 12 -377 12q-18 0 -55 -1t-55 -1q0 15 1 53.5t1 61.5q0 55 -2 86q114 -19 270 -19q155 0 217 19z" />
<glyph unicode="`" horiz-adv-x="358" d="M162 1595l196 -340l-94 -69l-264 284q94 78 162 125z" />
<glyph unicode="a" horiz-adv-x="710" d="M653 637q0 -342 -8 -645l-174 10v135q-22 -40 -53 -69.5t-59 -43t-52.5 -21t-39.5 -8.5l-15 -1q-95 0 -162 78t-67 180q0 131 108 213q41 32 95 71t80 58.5t57.5 46t44.5 44.5t22.5 41.5t9.5 49.5q0 64 -21.5 97.5t-58.5 33.5q-41 0 -61 -38.5t-20 -88.5q0 -35 8 -71 l-230 -4q-4 46 -4 63q0 85 36 160.5t109.5 125.5t168.5 50q54 0 97 -14t72.5 -37.5t51 -60t34 -74t20 -88t9.5 -94.5t2 -99zM428 354q19 82 21 209q-18 -25 -40 -49t-35 -36l-12 -11q-147 -123 -147 -199q0 -29 19.5 -52t46.5 -23q43 0 87.5 47t59.5 114z" />
<glyph unicode="b" horiz-adv-x="733" d="M696 506q-10 -144 -38 -250.5t-69 -166.5t-86.5 -88t-96.5 -28q-3 0 -8 1t-21 8t-32 17.5t-38.5 32t-42.5 50.5v-94h-198v1419h249l-22 -401q30 44 69 69t63 28l24 3q58 0 103 -33t70.5 -86.5t44.5 -120t23.5 -133t7.5 -127t-2 -100.5zM483 504q0 12 0.5 43.5t0.5 52.5 t-0.5 54t-3.5 56.5t-7 52t-11.5 47.5t-17.5 36.5t-25 26t-34 8.5q-127 0 -127 -424q0 -127 25 -206t77 -79q41 0 69 52.5t40 123.5t14 156z" />
<glyph unicode="c" horiz-adv-x="546" d="M530 1055l-16 -234q-40 51 -135 51q-60 0 -93.5 -99.5t-33.5 -270.5q0 -177 56.5 -272t197.5 -105l-6 -172q-46 -4 -66 -4q-72 0 -129.5 16.5t-98.5 44.5t-71.5 71t-49 89.5t-29.5 107.5t-15 118t-4 126q0 56 1.5 99t8.5 107t18.5 112t34.5 100t54.5 86t80 56t109.5 22 q58 0 111.5 -16t74.5 -33z" />
<glyph unicode="d" horiz-adv-x="735" d="M440 1415l242 10l-25 -1437h-192v102q-34 -50 -71.5 -79.5t-57.5 -33.5l-21 -4q-42 0 -81 18.5t-76 63.5t-63.5 113t-43 173t-16.5 237q0 250 76 391t184 141q4 0 10.5 -1t26 -7t37.5 -16.5t42 -32.5t42 -52zM471 483q-5 209 -21 284q-27 117 -94 118q-25 0 -43.5 -13.5 t-29.5 -40.5t-18 -55.5t-10 -72t-4 -74.5t-1 -78q0 -379 110 -379q57 0 84 86t27 225z" />
<glyph unicode="e" horiz-adv-x="663" d="M602 215l27 -188q-149 -52 -295 -52q-59 0 -107 23.5t-80 64.5t-55 92t-35.5 111.5t-18 116.5t-5.5 113q0 271 84 439.5t231 168.5q129 0 202 -130t73 -392q0 -62 -7 -158l-354 -47q23 -184 119 -184q78 0 221 22zM256 578v-31l166 31v38q0 63 -8.5 110t-20.5 68.5 t-24 34.5t-21 15l-8 2q-23 -2 -39 -19t-24.5 -40.5t-13.5 -61.5t-6 -69.5t-1 -77.5z" />
<glyph unicode="f" horiz-adv-x="485" d="M569 1479l-24 -215q-37 32 -80 32q-116 0 -139 -254h157v-186l-166 4v-76q-6 -427 -6 -786l-194 -6q-11 470 -11 776v98l-90 2v174h93l4 119q0 168 74 267.5t200 99.5q90 0 182 -49z" />
<glyph unicode="g" horiz-adv-x="749" d="M676 1040l14 -772q-8 -272 -22 -358q-23 -136 -95 -190q-79 -60 -278 -60q-112 0 -217 18l8 220l303 -17q46 0 71.5 55.5t28.5 155.5q-33 -71 -80.5 -100t-93.5 -29q-54 0 -101.5 32t-88.5 100t-65.5 189.5t-24.5 284.5q0 250 76 393.5t184 143.5q57 0 113.5 -41.5 t91.5 -138.5l-2 123zM471 473q0 210 -23 298q-28 110 -92 110q-25 0 -43.5 -14t-29.5 -42t-18 -57t-10 -73t-4 -75.5t-1 -78.5q0 -379 110 -379q57 0 84 86t27 225z" />
<glyph unicode="h" horiz-adv-x="772" d="M686 18l-221 -12q16 118 26 273.5t11 251.5l2 96q0 82 -6.5 136t-19.5 78.5t-25.5 33t-30.5 8.5q-27 0 -45.5 -10t-37.5 -42.5t-30.5 -90t-18.5 -157t-7 -239.5q0 -268 4 -303l-226 2q9 363 9 725q0 271 -7 651l252 6q-26 -286 -28 -462q28 47 66.5 78.5t75.5 43.5 t57.5 15.5t35.5 3.5q201 0 201 -486q0 -93 -6.5 -201.5t-17 -229.5t-13.5 -169z" />
<glyph unicode="i" horiz-adv-x="358" d="M367 1329q0 -65 -41 -105t-121 -40q-84 0 -123 39.5t-39 105.5q0 65 40 105.5t122 40.5t122 -40.5t40 -105.5zM307 1038q-22 -202 -22 -522q0 -348 20 -465q-135 0 -258 -16q29 303 29 598q0 120 -5 223.5t-11 147.5l-5 43q102 -11 183 -11z" />
<glyph unicode="j" horiz-adv-x="344" d="M70 -322q-49 -10 -105 -10q-46 0 -88.5 8t-62.5 16l-19 7l8 199q74 -17 160 -17q65 0 91 86t26 275q0 143 -9 358t-19 358l-9 144h225q17 -621 17 -834q0 -142 -9 -239.5t-32.5 -176t-66 -121t-107.5 -53.5zM307 1325q0 -64 -41 -104.5t-121 -40.5q-84 0 -122.5 40 t-38.5 105t39.5 105t121.5 40t122 -40.5t40 -104.5z" />
<glyph unicode="k" horiz-adv-x="643" d="M416 1067l231 -35q-175 -442 -246 -577q90 -195 232 -451l-240 -16l-149 358q0 -305 10 -371h-57q-87 0 -146 -4q10 133 16 282.5t7 232.5v83q0 321 -39 850q123 -6 190 -6l68 2q-27 -628 -27 -823q98 272 150 475z" />
<glyph unicode="l" horiz-adv-x="356" d="M291 27q-88 -5 -207 -17q-10 400 -24.5 751t-23.5 503l-9 151l260 12q0 -536 1 -886t2 -432z" />
<glyph unicode="m" horiz-adv-x="1107" d="M680 635q-15 -418 -25 -602l-219 -21q7 108 12 201.5t7 158t3.5 116t1.5 85v53.5t-0.5 32.5t-0.5 13.5q0 105 -15.5 142.5t-46.5 37.5q-46 0 -74 -38t-28 -146l6 -611l-238 -22q13 183 13 389q0 303 -29 612q76 2 129 7t68 9l16 5l2 -121q46 74 103 118t118 44 q76 0 113.5 -28.5t56.5 -111.5q90 140 205 140q47 0 77 -8t55.5 -30.5t39 -64t20.5 -106t7 -160.5q0 -192 -25 -696l-219 -21q5 79 9 151.5t6.5 129.5t4 107t2 87.5t1 68t0 52t-0.5 35.5t-0.5 22t-0.5 9q0 102 -18.5 140t-51.5 38q-16 0 -27.5 -3t-30 -24t-30.5 -61 q4 -59 4 -129z" />
<glyph unicode="n" d="M700 18l-235 -12q41 301 41 672q0 184 -86 184q-33 0 -55 -18t-42 -70.5t-30 -162.5t-10 -279q0 -256 4 -291l-226 2q9 363 9 510q0 89 -7 469l234 6l-4 -102q84 157 231 157q207 0 207 -512q0 -87 -5 -180.5t-14.5 -219.5t-11.5 -153z" />
<glyph unicode="o" horiz-adv-x="684" d="M647 573q0 -142 -16.5 -249.5t-44 -174.5t-68 -108.5t-84.5 -57.5t-98 -16t-96 13.5t-81.5 51t-65 100t-41 166t-15.5 243.5q0 594 307 594q50 0 89.5 -11t81.5 -47t69.5 -95.5t45 -163.5t17.5 -245zM432 565q0 123 -12.5 195.5t-31.5 97.5t-48 25q-47 0 -69.5 -83.5 t-22.5 -273.5q0 -336 100 -336q84 0 84 375z" />
<glyph unicode="p" horiz-adv-x="735" d="M406 1106q54 0 98.5 -25t74 -65t52 -97t35 -114t20 -124t10 -118.5t2.5 -105.5q0 -237 -71 -361.5t-178 -124.5q-4 0 -11.5 1t-29 7t-42 15.5t-46.5 30.5t-46 49l19 -410h-225v1366l192 14v-55q63 117 146 117zM483 457q0 41 -1.5 81t-5 95t-12.5 100.5t-21.5 86.5 t-33 64t-47.5 23q-52 0 -78 -86t-26 -219v-39t0.5 -45.5t2.5 -52.5t4.5 -53t7 -55t11 -49t16 -45t21 -33.5t27 -24.5t33.5 -8q33 0 54.5 21t31 61.5t13 80.5t3.5 97z" />
<glyph unicode="q" horiz-adv-x="735" d="M684 -350l-221 10l8 426q-32 -47 -76 -73.5t-72 -29.5l-28 -3q-109 0 -184.5 134.5t-75.5 383.5q0 129 16 233t42 172t62 114t74.5 65.5t79.5 19.5q117 0 174 -139v98l176 -2zM471 543q0 360 -109 360q-40 0 -66 -52.5t-36 -124t-10 -155.5v-25v-58t1 -57t4 -58.5 t7.5 -51.5t12.5 -47.5t18.5 -35t26 -25.5t34.5 -8q38 0 62.5 30t35 83.5t14 101t5.5 109.5v14z" />
<glyph unicode="r" horiz-adv-x="675" d="M657 616q-109 -16 -211 -51q17 94 17 156q0 41 -6.5 71t-15 45t-20 23.5t-17.5 10t-11 1.5q-31 0 -52 -25.5t-31.5 -72t-14.5 -97t-4 -116.5q0 -58 4 -168l14 -393l-231 -16q0 285 -7 547.5t-13 382.5l-7 120l197 13l10 -113q24 60 60.5 101t74 57.5t62 22t45.5 5.5 q49 0 83 -31.5t50.5 -86t23.5 -109.5t7 -119q0 -8 -7 -158z" />
<glyph unicode="s" horiz-adv-x="563" d="M528 299q0 -84 -29 -147.5t-75.5 -97.5t-96 -50t-100.5 -16q-13 0 -34.5 1.5t-72 17.5t-81.5 44l8 228q43 -35 95.5 -55t83.5 -22l32 -3q59 32 59 104q0 65 -55 123l-30.5 30.5t-37 37.5t-35.5 40.5t-38 49t-32 51.5t-28 59.5t-16.5 62.5t-7.5 70q0 141 74.5 229.5 t193.5 88.5q100 0 223 -60l-16 -233q-31 28 -72.5 46t-67.5 22l-26 4q-39 -6 -65.5 -39.5t-26.5 -83.5q0 -38 14.5 -72t38 -60.5t52 -53t57.5 -57t53.5 -65.5t40.5 -85t18 -109z" />
<glyph unicode="t" horiz-adv-x="536" d="M154 1348l256 2q-18 -186 -25 -310q75 3 152 9l-7 -203q-51 2 -155 2q-15 -285 -15 -559q0 -46 5 -291l-220 -4q17 606 17 850q-104 -4 -154 -8l8 219q81 -10 144 -13q0 153 -6 306z" />
<glyph unicode="u" horiz-adv-x="743" d="M465 983l225 4q-14 -298 -14 -635q0 -247 4 -372l-199 -5v125q-22 -37 -53.5 -63.5t-56 -38t-54.5 -18t-39 -7t-20 -0.5q-215 45 -215 473q0 236 63 592l218 -4q-52 -329 -52 -551q0 -284 93 -284q112 0 112 465q0 75 -3 154.5t-6 121.5z" />
<glyph unicode="v" horiz-adv-x="647" d="M412 1042l237 -8q-16 -64 -32.5 -133.5t-29 -123.5t-29 -134t-25.5 -122.5t-26.5 -134.5t-23.5 -123t-25 -136t-24 -129l-229 -2q-25 202 -101.5 561.5t-95.5 470.5l240 2q5 -103 19.5 -222.5t36 -270t30.5 -228.5q19 136 44 393.5t34 339.5z" />
<glyph unicode="w" horiz-adv-x="976" d="M573 887q66 -303 105 -576q16 140 31 322.5t21 295.5l7 113l238 -8q-129 -683 -195 -1036l-229 -2q-37 285 -68 514q-29 -267 -75 -512l-230 -2q-19 156 -60.5 414t-73.5 438l-32 180l240 2q34 -401 59 -713q20 120 41 262.5t32 224.5l11 83h178z" />
<glyph unicode="x" horiz-adv-x="647" d="M633 31l-201 -39q-53 158 -104 287q-50 -132 -99 -283l-225 12q135 287 225 508q-25 59 -221 504l234 24q41 -150 86 -268q61 181 86 268l231 -18q-95 -199 -221 -502q26 -65 209 -493z" />
<glyph unicode="y" horiz-adv-x="745" d="M666 1036q20 -482 20 -880q0 -87 -3.5 -149t-12.5 -118.5t-25.5 -93.5t-41.5 -67t-61.5 -46.5t-84 -25t-111.5 -8.5q-126 0 -295 22l8 219l303 -16q50 0 69.5 26.5t19.5 106.5q0 34 -2 57q-50 -73 -146 -73q-63 0 -109 22t-74 58.5t-44.5 92.5t-22.5 114t-6 133 q0 65 -1 71q-1 1 0 2q7 75 32 561l231 -20q2 0 -7.5 -62t-22.5 -198t-13 -277q0 -266 101 -266q42 0 67 65.5t25 196.5q0 42 -29 559z" />
<glyph unicode="z" horiz-adv-x="577" d="M31 1057h530l-276 -860l260 6v-211l-531 -8l285 882l-262 -10z" />
<glyph unicode="{" horiz-adv-x="528" d="M496 1632l24 -213q-33 17 -104 17q-49 0 -83 -37t-34 -90q0 -37 38 -204.5t38 -209.5q0 -76 -47.5 -133t-122.5 -72q73 -17 116.5 -81t43.5 -140q0 -37 -30 -198t-30 -197q0 -59 34.5 -90t100.5 -31l62 4l-39 -231q-72 12 -132.5 34.5t-113 60.5t-82 97.5t-29.5 136.5 q0 49 35 182.5t35 182.5q0 64 -39 105.5t-104 41.5h-15v215q65 0 103.5 45t38.5 111q0 38 -25.5 166.5t-25.5 191.5q0 160 82 250t241 90q24 0 64 -4z" />
<glyph unicode="|" horiz-adv-x="395" d="M330 1602q-35 -276 -35 -738q0 -631 41 -1026h-70q-100 0 -196 -8q9 54 17.5 456.5t8.5 514.5q0 539 -26 801q98 -5 104 -5q18 0 156 5z" />
<glyph unicode="}" horiz-adv-x="526" d="M8 1419l25 213q40 4 63 4q160 0 242 -90t82 -250q0 -63 -25.5 -191.5t-25.5 -166.5q0 -66 38 -111t103 -45v-215h-16q-64 0 -103 -41.5t-39 -105.5q0 -49 35 -182.5t35 -182.5q0 -77 -29.5 -136.5t-82 -97.5t-112.5 -60.5t-132 -34.5l-39 231q30 -4 59 -4q67 0 102 31 t35 90q0 36 -29.5 197t-29.5 198q0 76 43.5 140t116.5 81q-75 15 -122.5 72t-47.5 133q0 42 37.5 209.5t37.5 204.5q0 53 -33.5 90t-82.5 37q-72 0 -105 -17z" />
<glyph unicode="~" horiz-adv-x="765" d="M631 907l94 -153q0 -2 -9 -21.5t-28.5 -50t-44 -59.5t-61.5 -49.5t-76 -20.5q-29 0 -59 18.5t-51 40t-49.5 40t-55.5 18.5q-78 0 -139 -119l-111 123q21 53 36.5 85t39.5 64.5t55 47t72 14.5t81 -17.5t66 -39t55 -39t50 -17.5q36 0 70 34t50 68z" />
<glyph unicode="&#xa1;" horiz-adv-x="342" d="M287 -336l-242 -2q58 576 64 1114l133 4q11 -491 45 -1116zM63 1028q0 47 35 81t82 34t81 -34t34 -81t-34 -81t-81 -34t-82 34t-35 81z" />
<glyph unicode="&#xa2;" horiz-adv-x="456" d="M401 1116l-63 -328q70 -13 90 -30l-12 -172q-35 39 -113 39q-47 0 -73.5 -74.5t-26.5 -198.5q0 -130 45.5 -199.5t159.5 -76.5l-5 -127q-18 -2 -51 -2q-88 0 -159 33l-43 -310h-89l66 348q-6 4 -11.5 9.5t-7.5 8.5l-2 3q-37 44 -56 133t-19 197q0 177 47 301 q45 121 188 125l47 321h88z" />
<glyph unicode="&#xa3;" horiz-adv-x="677" d="M49 717l111 2q-9 42 -31.5 133.5t-34.5 158t-12 124.5q0 139 89 233t235 94q112 0 227 -63l-31 -193q-56 56 -139 56q-95 0 -130.5 -49.5t-35.5 -153.5q0 -116 41 -334l162 6v-182h-148v-8q0 -238 -88 -365l379 21v-199h-596l-2 199q75 68 104 164t29 188h-123z" />
<glyph unicode="&#xa4;" horiz-adv-x="671" d="M408 688q0 31 -21.5 51.5t-52.5 20.5q-28 0 -50 -21t-22 -51q0 -28 22 -49t50 -21q30 0 52 21t22 49zM590 561l-129 -131q-14 19 -66 80q-30 -10 -59 -10q-33 0 -57 8q-42 -46 -66 -78l-141 141q37 28 80 64q-9 24 -9 53t11 62q-15 14 -43.5 36.5t-38.5 30.5l141 141 l66 -88q33 11 57 11q31 0 63 -13q47 55 70 80l131 -129q-15 -12 -82 -69q10 -33 10 -62q0 -35 -12 -65q31 -31 74 -62z" />
<glyph unicode="&#xa5;" horiz-adv-x="774" d="M94 633l135 4q-97 397 -200 778l250 21q12 -270 98 -742q83 411 125 746l246 -6q-117 -372 -224 -789l129 4l-6 -157l-164 -3l-16 -67v-4l186 6l-6 -158l-180 -2q3 -114 18 -272h-239q18 153 26 270h-170l-8 146l182 4v28l-12 47h-162z" />
<glyph unicode="&#xa6;" horiz-adv-x="399" d="M319 1602l-20 -754h-203l-24 754h247zM326 -162l-242 -8l16 821h205z" />
<glyph unicode="&#xa7;" horiz-adv-x="641" d="M588 641q0 -153 -68 -252q68 -129 68 -280q0 -90 -23.5 -161t-58 -111.5t-78.5 -66.5t-79.5 -35t-67.5 -9q-104 0 -209 49l10 252q99 -84 184 -84q60 0 92.5 43.5t32.5 117.5q0 114 -106 236q-5 5 -14 16q-44 50 -67.5 78t-60.5 81t-56 94.5t-34.5 99.5t-15.5 116 q0 155 78 265q-78 135 -78 268q0 96 27.5 172t74.5 122.5t105.5 70.5t124.5 24q116 0 235 -64l-18 -251q-78 98 -197 98q-58 0 -95.5 -53t-37.5 -129q0 -46 18.5 -89t47.5 -80t64.5 -76t71 -85t64.5 -98t47.5 -124.5t18.5 -154.5zM285 872l-19 19q-10 -42 -10 -78 q0 -63 31.5 -116t95.5 -124q8 36 8 64q0 113 -106 235z" />
<glyph unicode="&#xa8;" horiz-adv-x="483" d="M213 1294q0 -42 -32 -73t-75 -31t-74.5 30.5t-31.5 73.5q0 44 31.5 75.5t74.5 31.5t75 -31.5t32 -75.5zM483 1294q0 -43 -31.5 -73.5t-74.5 -30.5t-75 31t-32 73q0 44 32 75.5t75 31.5t74.5 -31.5t31.5 -75.5z" />
<glyph unicode="&#xa9;" horiz-adv-x="788" d="M520 492l19 -89q-24 -10 -53 -15.5t-46 -5.5l-16 -1q-25 0 -50.5 8t-53.5 31.5t-49.5 59.5t-35.5 97.5t-14 139.5q0 79 16.5 140t40.5 96t55.5 57t57 29.5t49.5 7.5q55 0 82 -23l-10 -90q-30 12 -53 12q-34 0 -59 -24t-36 -59t-18 -69.5t-8 -58.5v-24q0 -10 0.5 -25.5 t7.5 -56t18.5 -71t37.5 -56t61 -25.5q23 0 57 15zM631 719q0 101 -13.5 175t-34.5 116.5t-53 68t-62.5 33.5t-68.5 8q-235 0 -235 -424q0 -100 12 -173.5t31.5 -118t50 -71.5t62.5 -36.5t73 -9.5t74.5 11.5t64.5 41.5t52.5 77.5t34 124t12.5 177.5zM735 721 q0 -121 -18.5 -212.5t-49 -148.5t-76.5 -92t-94.5 -48t-109.5 -13q-60 0 -106 11t-90.5 42.5t-73.5 84t-46.5 140.5t-17.5 207q0 506 342 506q56 0 100.5 -9.5t91 -39.5t77.5 -80.5t51 -139t20 -208.5z" />
<glyph unicode="&#xaa;" horiz-adv-x="466" d="M410 1036q0 -135 -4 -252l-111 7l2 59q-22 -28 -53.5 -44t-52.5 -18l-21 -2q-57 0 -97 39t-40 90q0 64 65 107q22 14 50 31t42.5 26t33 21t27 20t17.5 18t12 19.5t3 20.5q0 65 -47 65q-24 0 -37 -18.5t-13 -46.5q0 -21 4 -35l-137 -2q-2 10 -2 30q0 33 9.5 60.5t25 44.5 t34.5 30t38 19.5t34.5 10t25.5 4.5l9 1q48 0 82.5 -13t53.5 -33.5t30 -53t14 -62t3 -71.5v-72zM188 885q98 0 101 184q-23 -28 -51.5 -49.5t-46.5 -30.5t-31 -25t-13 -40q0 -15 12 -27t29 -12z" />
<glyph unicode="&#xab;" horiz-adv-x="983" d="M469 377l-51 -187l-383 197v205l350 233l84 -196l-303 -127zM940 377l-51 -187l-383 197v205l352 233l82 -196l-303 -131z" />
<glyph unicode="&#xac;" horiz-adv-x="710" d="M633 840l16 -447l-205 -8l9 248q-205 3 -396 -17v203q255 0 574 21v-2z" />
<glyph unicode="&#xad;" horiz-adv-x="661" d="M606 780v-184l-549 -2v201z" />
<glyph unicode="&#xae;" horiz-adv-x="536" d="M496 1083q0 -100 -18 -169.5t-51.5 -106t-72.5 -51.5t-90 -15q-40 0 -71 7.5t-60.5 28.5t-49 56t-31 93t-11.5 137q0 338 227 338q48 0 84.5 -12t71 -43.5t53.5 -98t19 -164.5zM426 1081q0 83 -13 139.5t-37 83t-49 36.5t-57 10q-155 0 -155 -283q0 -82 11.5 -137.5 t33 -84t47 -39.5t59.5 -11q82 0 123 73l-80 -4l-61 148q0 -28 10 -146h-88q12 138 12 277q0 51 -4 157q29 7 68 7q19 0 37.5 -4t44 -16t41.5 -41t16 -72q0 -47 -21 -86t-63 -60q45 -92 92 -149q33 74 33 202zM248 1063v-4q30 6 47 30t19 45l1 21q0 4 -0.5 10t-3.5 21.5 t-8.5 28.5t-17 25.5t-27.5 16.5q-10 -79 -10 -194z" />
<glyph unicode="&#xaf;" horiz-adv-x="468" d="M469 1411v-186l-469 8q8 119 0 178q57 -3 174.5 -3t205.5 2z" />
<glyph unicode="&#xb0;" horiz-adv-x="434" d="M289 1219q0 30 -21.5 50.5t-52.5 20.5q-29 0 -50.5 -20.5t-21.5 -50.5q0 -28 22 -49t50 -21q30 0 52 21t22 49zM410 1219q0 -76 -58 -132.5t-135 -56.5t-134.5 56.5t-57.5 132.5q0 79 57.5 135.5t134.5 56.5t135 -56.5t58 -135.5z" />
<glyph unicode="&#xb1;" horiz-adv-x="675" d="M428 596l-4 -176h-184v174h-177v201l175 -4v178h200l-6 -185l180 -4v-184h-184zM63 293l549 -14v-185l-549 -2v201z" />
<glyph unicode="&#xb2;" horiz-adv-x="399" d="M356 1186q0 -83 -45.5 -164.5t-122.5 -171.5h164v-92h-311v94q40 44 65 75t58 79t50 96t17 94q0 30 -15.5 42.5t-49.5 12.5q-50 -2 -109 -51l-34 105q57 57 170 57q84 0 123.5 -50t39.5 -126z" />
<glyph unicode="&#xb3;" horiz-adv-x="411" d="M381 911q0 -44 -21 -79t-53 -54.5t-65.5 -29t-63.5 -9.5q-59 0 -143 41l20 117q26 -21 55 -33t44 -14l16 -2q33 0 53.5 21.5t20.5 50.5q0 34 -37.5 58.5t-93.5 27.5v79q49 21 80.5 54.5t31.5 70.5q0 20 -15.5 37t-43.5 17q-41 0 -103 -47l-38 94q79 59 178 59 q69 0 116.5 -42.5t47.5 -104.5q0 -45 -34 -87.5t-91 -74.5q36 -15 63.5 -36t41.5 -40t22 -36t10 -27z" />
<glyph unicode="&#xb4;" horiz-adv-x="358" d="M0 1255l197 340q30 -21 70.5 -52t65.5 -52l25 -21l-264 -284z" />
<glyph unicode="&#xb5;" horiz-adv-x="749" d="M485 983l226 4q-15 -320 -15 -635q0 -247 4 -372l-198 -5v125q-22 -37 -53.5 -63.5t-56 -38t-54.5 -18t-39 -7t-20 -0.5q-9 2 -33 11l28 -379h-211v841q0 230 64 592l217 -4q-51 -322 -51 -551q0 -284 92 -284q113 0 113 465q0 75 -3 154.5t-7 121.5z" />
<glyph unicode="&#xb6;" horiz-adv-x="995" d="M934 16l-195 2q0 43 1 129t1 129q0 469 -26 1022l-78 7q-6 -141 -6 -422q0 -432 28 -897l-237 8q8 321 10 479q-44 -16 -92 -16q-139 0 -226 134.5t-87 354.5q0 229 126 374.5t316 145.5q235 0 442 -39q-10 -300 -10 -538q0 -455 33 -873zM393 586q27 0 41 6v104 q0 258 -10 590q-52 -8 -89.5 -46t-55 -87t-27.5 -97t-11 -81l-1 -33q0 -7 0.5 -20t3 -50t8 -70.5t17 -74.5t27 -70.5t41 -50t56.5 -20.5z" />
<glyph unicode="&#xb7;" horiz-adv-x="333" d="M299 735q0 -54 -38.5 -92.5t-92.5 -38.5q-55 0 -94 38.5t-39 92.5q0 55 38.5 94t94.5 39q54 0 92.5 -39t38.5 -94z" />
<glyph unicode="&#xb8;" horiz-adv-x="266" d="M266 -213q0 -58 -40 -96.5t-99 -46.5q-40 -5 -68.5 -1.5t-43.5 10.5l-15 7v111q8 -8 36 -14.5t44 -6.5q57 0 57 45q0 24 -20.5 35.5t-46.5 11.5q-34 0 -58 -8l86 227h72l-35 -143q58 1 94.5 -35.5t36.5 -95.5z" />
<glyph unicode="&#xb9;" horiz-adv-x="352" d="M172 1356l125 -4q-16 -208 -16 -473v-123h-131q6 312 6 331q0 20 -1 67.5t-1 70.5l-82 -54l-74 70q107 67 174 115z" />
<glyph unicode="&#xba;" horiz-adv-x="434" d="M399 1073q0 -70 -13 -125t-32.5 -87.5t-45 -54t-49 -29t-46.5 -7.5q-21 0 -42.5 6.5t-46.5 26t-44 49.5t-32 83.5t-13 121.5q0 83 18.5 145t48.5 93t59 45t58 14q75 0 127.5 -68t52.5 -213zM270 1069q0 176 -55 176t-55 -194q0 -185 61 -185q49 0 49 203z" />
<glyph unicode="&#xbb;" horiz-adv-x="983" d="M565 190l-51 187l301 125l-301 127l84 196l350 -233v-205zM94 190l-51 187l301 121l-301 131l82 196l352 -233v-205z" />
<glyph unicode="&#xbc;" horiz-adv-x="860" d="M563 1305l158 -25q-217 -444 -477 -1141q0 1 -28 7t-68 12t-66 6q128 239 275.5 592.5t205.5 548.5zM639 647q-27 -161 -33 -287h78q2 41 2 119q0 69 -4 191h135q-10 -144 -10 -346q0 -86 4 -246h-139q8 124 10 196l-223 -2q34 204 47 375h133zM201 1356l125 -4 q-17 -221 -17 -473v-123h-131q6 312 6 331q0 20 -1 67.5t-1 70.5l-82 -54l-73 70q107 67 174 115z" />
<glyph unicode="&#xbd;" horiz-adv-x="868" d="M563 1305l158 -25q-217 -444 -477 -1141q0 1 -28 7t-68 12t-66 6q128 239 275.5 592.5t205.5 548.5zM201 1356l125 -4q-17 -221 -17 -473v-123h-131q6 312 6 331q0 20 -1 67.5t-1 70.5l-82 -54l-73 70q107 67 174 115zM825 467q-30 -151 -166 -301h164v-92h-311v94 q40 44 65 75t58 79t50 96t17 94q0 30 -15.5 42.5t-49.5 12.5q-50 -2 -109 -51l-34 105q57 57 170 57q84 0 123.5 -50t39.5 -126q0 -23 -2 -35z" />
<glyph unicode="&#xbe;" horiz-adv-x="888" d="M594 1305l158 -25q-221 -452 -478 -1141q0 1 -27.5 7t-67.5 12t-66 6q128 239 275.5 592.5t205.5 548.5zM670 647q-27 -161 -33 -287h78q2 41 2 119q0 69 -4 191h135q-10 -144 -10 -346q0 -86 4 -246h-140q10 154 11 196l-224 -2q36 216 48 375h133zM389 911 q0 -44 -21 -79t-53 -54.5t-65.5 -29t-63.5 -9.5q-59 0 -143 41l20 117q26 -21 55 -33t44 -14l16 -2q33 0 53.5 21.5t20.5 50.5q0 34 -37.5 58.5t-93.5 27.5v79q49 21 80.5 54.5t31.5 70.5q0 20 -15.5 37t-43.5 17q-40 0 -102 -47l-39 94q79 59 178 59q69 0 116.5 -42.5 t47.5 -104.5q0 -45 -34 -87.5t-91 -74.5q36 -15 63.5 -36t41.5 -40t22 -36t10 -27z" />
<glyph unicode="&#xbf;" horiz-adv-x="630" d="M27 10q0 104 26.5 186.5t68 144t85.5 121t87 147t64 192.5h136v-29q0 -75 -20 -150.5t-40 -113.5l-20 -39q-17 -29 -80.5 -118.5t-91 -153.5t-27.5 -140q0 -104 40.5 -153t104.5 -49q52 0 107.5 27.5t95.5 70.5l41 -158q-36 -35 -77.5 -61t-73 -38.5t-63.5 -20 t-45.5 -8.5t-22.5 -1q-124 0 -209.5 95t-85.5 249zM297 1042q0 47 34 81t81 34t81.5 -34t34.5 -81t-34.5 -80.5t-81.5 -33.5t-81 33.5t-34 80.5z" />
<glyph unicode="&#xc0;" horiz-adv-x="720" d="M723 8l-248 -16q-13 193 -20 280q-128 9 -168 9h-13q-12 -186 -16 -281l-250 4q130 752 197 1428l301 -5q80 -746 217 -1419zM358 1180q-42 -380 -71 -736q29 -2 88 -2h65q-32 338 -82 738zM184 1896l197 -340l-94 -69l-264 285q93 77 161 124z" />
<glyph unicode="&#xc1;" horiz-adv-x="720" d="M723 8l-248 -16q-13 193 -20 280q-128 9 -168 9h-13q-12 -186 -16 -281l-250 4q130 752 197 1428l301 -5q80 -746 217 -1419zM358 1180q-42 -380 -71 -736q29 -2 88 -2h65q-32 338 -82 738zM307 1556l197 340q30 -21 70.5 -52t65.5 -52l26 -20l-265 -285z" />
<glyph unicode="&#xc2;" horiz-adv-x="720" d="M723 8l-248 -16q-13 193 -20 280q-128 9 -168 9h-13q-12 -186 -16 -281l-250 4q130 752 197 1428l301 -5q80 -746 217 -1419zM358 1180q-42 -380 -71 -736q29 -2 88 -2h65q-32 338 -82 738zM592 1540l-156 -57l-78 235l-65 -241l-154 61l152 336h162z" />
<glyph unicode="&#xc3;" horiz-adv-x="720" d="M723 8l-248 -16q-13 193 -20 280q-128 9 -168 9h-13q-12 -186 -16 -281l-250 4q130 752 197 1428l301 -5q80 -746 217 -1419zM358 1180q-42 -380 -71 -736q29 -2 88 -2h65q-32 338 -82 738zM573 1769l86 -122q-3 -7 -8.5 -17.5t-24.5 -38t-40 -48.5t-54 -38.5t-67 -17.5 q-27 1 -53.5 16t-45 33t-44 32.5t-50.5 14.5q-32 0 -51.5 -20.5t-50.5 -75.5l-100 98q38 86 75 125t105 39q37 0 70 -13.5t52.5 -29.5t42 -29.5t40.5 -13.5q33 0 62.5 26.5t42.5 52.5z" />
<glyph unicode="&#xc4;" horiz-adv-x="720" d="M723 8l-248 -16q-13 193 -20 280q-128 9 -168 9h-13q-12 -186 -16 -281l-250 4q130 752 197 1428l301 -5q80 -746 217 -1419zM358 1180q-42 -380 -71 -736q29 -2 88 -2h65q-32 338 -82 738zM336 1581q0 -42 -32 -73t-75 -31t-74.5 30.5t-31.5 73.5q0 44 31.5 75.5 t74.5 31.5t75 -31.5t32 -75.5zM606 1581q0 -43 -31.5 -73.5t-74.5 -30.5t-75 31t-32 73q0 44 32 75.5t75 31.5t74.5 -31.5t31.5 -75.5z" />
<glyph unicode="&#xc5;" horiz-adv-x="718" d="M557 1509q0 -67 -47 -120q82 -741 213 -1381l-248 -16q-13 193 -20 280q-128 9 -168 9h-13q-12 -186 -16 -281l-250 4q130 758 195 1405q-31 45 -31 100q0 79 58 136t135 57t134.5 -57t57.5 -136zM358 1180q-42 -380 -71 -736q29 -2 88 -2h65q-32 338 -82 738zM436 1509 q0 31 -21.5 51.5t-52.5 20.5q-28 0 -49.5 -21t-21.5 -51q0 -28 21.5 -48.5t49.5 -20.5q31 0 52.5 20.5t21.5 48.5z" />
<glyph unicode="&#xc6;" horiz-adv-x="1001" d="M977 207v-209q-148 4 -213 4q-129 0 -311 -10l12 280q-128 9 -170 9h-12l-50 -281l-247 4q221 763 366 1428q156 -5 299 -5q141 0 307 13v-230q-135 23 -243 23h-39q-16 -216 -19 -498q35 -2 107 -2q63 0 96 2v-200q-82 4 -127 4q-13 0 -38 -1t-38 -1l-4 -357 q150 3 324 27zM467 1139q-110 -480 -152 -695q29 -2 88 -2h66q4 192 4 287q0 205 -6 410z" />
<glyph unicode="&#xc7;" horiz-adv-x="634" d="M467 -213q0 -58 -40 -96.5t-99 -46.5q-40 -5 -68.5 -1.5t-43.5 10.5l-15 7v111q8 -8 36 -14.5t44 -6.5q57 0 57 45q0 24 -21 35.5t-47 11.5q-33 0 -57 -8l70 182q-49 29 -90 80t-77 133t-56.5 208.5t-20.5 285.5q0 127 16 233.5t42 180.5t62 132t73 92.5t77.5 56.5 t72.5 30t62 8q11 0 29.5 -1.5t59.5 -13.5t65 -34l-20 -201q-56 27 -99 27q-46 0 -83 -29t-60 -75t-40 -102t-24.5 -112t-12 -102t-5.5 -75v-29q0 -11 0.5 -29.5t5 -72.5t12.5 -103t25 -109t40 -103t61 -72.5t85 -29.5q50 0 109 33l37 -198q-45 -21 -98.5 -33t-84.5 -14 l-30 -1q-22 0 -64 11l-16 -70q58 1 94.5 -35.5t36.5 -95.5z" />
<glyph unicode="&#xc8;" horiz-adv-x="614" d="M473 735v-200q-82 4 -127 4q-12 0 -38 -1t-38 -1l-4 -357q150 3 324 27v-209q-148 4 -213 4q-129 0 -311 -10q20 410 20 737q0 370 -20 707q120 -9 225 -9q114 0 280 13v-230q-135 23 -243 23h-39q-16 -216 -19 -498q35 -2 107 -2q63 0 96 2zM162 1894l196 -340l-94 -69 l-264 284q94 78 162 125z" />
<glyph unicode="&#xc9;" horiz-adv-x="614" d="M473 735v-200q-82 4 -127 4q-12 0 -38 -1t-38 -1l-4 -357q150 3 324 27v-209q-148 4 -213 4q-129 0 -311 -10q20 410 20 737q0 370 -20 707q120 -9 225 -9q114 0 280 13v-230q-135 23 -243 23h-39q-16 -216 -19 -498q35 -2 107 -2q63 0 96 2zM219 1548l197 340 q30 -21 70.5 -52t65.5 -52l26 -21l-265 -284z" />
<glyph unicode="&#xca;" horiz-adv-x="614" d="M473 735v-200q-82 4 -127 4q-12 0 -38 -1t-38 -1l-4 -357q150 3 324 27v-209q-148 4 -213 4q-129 0 -311 -10q20 410 20 737q0 370 -20 707q120 -9 225 -9q114 0 280 13v-230q-135 23 -243 23h-39q-16 -216 -19 -498q35 -2 107 -2q63 0 96 2zM553 1540l-156 -57l-78 235 l-65 -241l-154 61l152 336h162z" />
<glyph unicode="&#xcb;" horiz-adv-x="614" d="M473 735v-200q-82 4 -127 4q-12 0 -38 -1t-38 -1l-4 -357q150 3 324 27v-209q-148 4 -213 4q-129 0 -311 -10q20 410 20 737q0 370 -20 707q120 -9 225 -9q114 0 280 13v-230q-135 23 -243 23h-39q-16 -216 -19 -498q35 -2 107 -2q63 0 96 2zM299 1591q0 -43 -31.5 -73.5 t-74.5 -30.5t-75 31t-32 73q0 44 32 75.5t75 31.5t74.5 -31.5t31.5 -75.5zM569 1591q0 -43 -31.5 -73.5t-74.5 -30.5t-75 31t-32 73q0 44 32 75.5t75 31.5t74.5 -31.5t31.5 -75.5z" />
<glyph unicode="&#xcc;" horiz-adv-x="497" d="M473 213l-10 -199q-106 4 -160 4q-117 0 -264 -10l2 215q32 -4 92 -8q17 436 17 616q0 102 -9 406q-34 0 -108 -4l2 209q170 -10 309 -10q74 0 113 2l-6 -199q-15 0 -45 1t-46 1q-26 -344 -26 -715q0 -157 6 -313q43 0 133 4zM86 1894l197 -340l-95 -69l-264 284 q94 78 162 125z" />
<glyph unicode="&#xcd;" horiz-adv-x="497" d="M473 213l-10 -199q-106 4 -160 4q-117 0 -264 -10l2 215q32 -4 92 -8q17 436 17 616q0 102 -9 406q-34 0 -108 -4l2 209q170 -10 309 -10q74 0 113 2l-6 -199q-15 0 -45 1t-46 1q-26 -344 -26 -715q0 -157 6 -313q43 0 133 4zM223 1542l197 340q30 -21 70.5 -52t65.5 -52 l26 -21l-265 -284z" />
<glyph unicode="&#xce;" horiz-adv-x="497" d="M473 213l-10 -199q-106 4 -160 4q-117 0 -264 -10l2 215q32 -4 92 -8q17 436 17 616q0 102 -9 406q-34 0 -108 -4l2 209q170 -10 309 -10q74 0 113 2l-6 -199q-15 0 -45 1t-46 1q-26 -344 -26 -715q0 -157 6 -313q43 0 133 4zM479 1550l-155 -57l-78 236l-66 -242 l-153 61l151 336h162z" />
<glyph unicode="&#xcf;" horiz-adv-x="497" d="M473 213l-10 -199q-106 4 -160 4q-117 0 -264 -10l2 215q32 -4 92 -8q17 436 17 616q0 102 -9 406q-34 0 -108 -4l2 209q170 -10 309 -10q74 0 113 2l-6 -199q-15 0 -45 1t-46 1q-26 -344 -26 -715q0 -157 6 -313q43 0 133 4zM225 1608q0 -43 -31.5 -74t-74.5 -31t-75 31 t-32 74q0 44 32 75t75 31t74.5 -31t31.5 -75zM496 1608q0 -43 -32 -74t-75 -31t-74.5 31t-31.5 74q0 44 31.5 75t74.5 31t75 -31t32 -75z" />
<glyph unicode="&#xd0;" horiz-adv-x="761" d="M721 680q0 -128 -17 -233.5t-44.5 -177.5t-66 -127t-77.5 -86.5t-82.5 -51.5t-77.5 -26.5t-67 -6.5l-205 17q19 313 25 585h-107v201l109 -4q0 359 -17 672q98 7 167.5 1t106.5 -17l38 -11q36 -15 55 -23.5t57.5 -35.5t61.5 -57t53 -86.5t47 -126.5t29 -174.5t12 -231.5z M428 760v-185h-125q-3 -233 2 -428q53 7 93 49t62 99.5t35 136t17 142t4 133.5q0 58 -2 106t-8 109t-19.5 109t-33 93t-52 75.5t-73.5 43.5q-15 -255 -21 -479z" />
<glyph unicode="&#xd1;" horiz-adv-x="849" d="M528 1444l263 -2q-27 -449 -27 -795q0 -320 20 -610l-202 6q-28 92 -96 319.5t-117.5 388t-100.5 310.5q8 -661 33 -1038l-231 2q12 320 12 641q0 366 -16 782l280 -6q120 -513 232 -895q-8 284 -50 897zM637 1784l86 -123q-3 -7 -8.5 -17.5t-24.5 -38t-40 -48.5 t-54.5 -38.5t-67.5 -17.5q-33 1 -66 25t-64 47.5t-62 23.5q-32 0 -52 -21t-51 -75l-100 98q38 86 75 125t105 39q37 0 70 -13.5t52.5 -29.5t42 -29.5t40.5 -13.5q33 0 62.5 26.5t43.5 53.5z" />
<glyph unicode="&#xd2;" d="M743 700q0 -157 -18 -282t-49 -209t-75.5 -139.5t-96 -80t-111.5 -24.5q-61 0 -112 23t-96 77.5t-76.5 137.5t-49.5 209.5t-18 287.5q0 201 27 350.5t76 237t111 129t138 41.5q60 0 111.5 -24.5t96 -81.5t75.5 -143.5t49 -215.5t18 -293zM520 700q0 152 -10 264.5 t-27.5 177t-40 95.5t-49.5 31q-28 0 -50.5 -31.5t-40.5 -96.5t-28 -177t-10 -263q0 -544 129 -544q27 0 49.5 29.5t40 91.5t27.5 169.5t10 253.5zM211 1907l197 -340l-95 -70l-264 285q94 78 162 125z" />
<glyph unicode="&#xd3;" d="M743 700q0 -157 -18 -282t-49 -209t-75.5 -139.5t-96 -80t-111.5 -24.5q-61 0 -112 23t-96 77.5t-76.5 137.5t-49.5 209.5t-18 287.5q0 201 27 350.5t76 237t111 129t138 41.5q60 0 111.5 -24.5t96 -81.5t75.5 -143.5t49 -215.5t18 -293zM520 700q0 152 -10 264.5 t-27.5 177t-40 95.5t-49.5 31q-28 0 -50.5 -31.5t-40.5 -96.5t-28 -177t-10 -263q0 -544 129 -544q27 0 49.5 29.5t40 91.5t27.5 169.5t10 253.5zM377 1577l196 340q30 -21 70.5 -52t66.5 -52l25 -21l-264 -285z" />
<glyph unicode="&#xd4;" d="M743 700q0 -157 -18 -282t-49 -209t-75.5 -139.5t-96 -80t-111.5 -24.5q-61 0 -112 23t-96 77.5t-76.5 137.5t-49.5 209.5t-18 287.5q0 201 27 350.5t76 237t111 129t138 41.5q60 0 111.5 -24.5t96 -81.5t75.5 -143.5t49 -215.5t18 -293zM520 700q0 152 -10 264.5 t-27.5 177t-40 95.5t-49.5 31q-28 0 -50.5 -31.5t-40.5 -96.5t-28 -177t-10 -263q0 -544 129 -544q27 0 49.5 29.5t40 91.5t27.5 169.5t10 253.5zM618 1567l-155 -58l-78 236l-66 -242l-153 62l151 336h162z" />
<glyph unicode="&#xd5;" d="M743 700q0 -157 -18 -282t-49 -209t-75.5 -139.5t-96 -80t-111.5 -24.5q-61 0 -112 23t-96 77.5t-76.5 137.5t-49.5 209.5t-18 287.5q0 201 27 350.5t76 237t111 129t138 41.5q60 0 111.5 -24.5t96 -81.5t75.5 -143.5t49 -215.5t18 -293zM520 700q0 152 -10 264.5 t-27.5 177t-40 95.5t-49.5 31q-28 0 -50.5 -31.5t-40.5 -96.5t-28 -177t-10 -263q0 -544 129 -544q27 0 49.5 29.5t40 91.5t27.5 169.5t10 253.5zM600 1782l86 -123q-3 -7 -8.5 -17.5t-24.5 -38t-40 -48.5t-54 -38.5t-67 -17.5q-27 1 -53.5 16t-45 33t-44 32.5t-50.5 14.5 q-32 0 -51.5 -20.5t-50.5 -75.5l-101 98q38 86 75 125t105 39q37 0 70 -13.5t52.5 -29.5t42 -29.5t40.5 -13.5q33 0 62.5 26.5t42.5 53.5z" />
<glyph unicode="&#xd6;" d="M743 700q0 -157 -18 -282t-49 -209t-75.5 -139.5t-96 -80t-111.5 -24.5q-61 0 -112 23t-96 77.5t-76.5 137.5t-49.5 209.5t-18 287.5q0 201 27 350.5t76 237t111 129t138 41.5q60 0 111.5 -24.5t96 -81.5t75.5 -143.5t49 -215.5t18 -293zM520 700q0 152 -10 264.5 t-27.5 177t-40 95.5t-49.5 31q-28 0 -50.5 -31.5t-40.5 -96.5t-28 -177t-10 -263q0 -544 129 -544q27 0 49.5 29.5t40 91.5t27.5 169.5t10 253.5zM362 1610q0 -43 -31.5 -74t-74.5 -31t-74.5 31t-31.5 74q0 44 31.5 75t74.5 31t74.5 -31t31.5 -75zM633 1610q0 -43 -32 -74 t-75 -31t-74.5 31t-31.5 74q0 44 31.5 75t74.5 31t75 -31t32 -75z" />
<glyph unicode="&#xd7;" horiz-adv-x="624" d="M567 561l-129 -131q-62 82 -123 145q-74 -81 -125 -145l-141 141q75 58 148 121q-79 72 -148 125l141 141q68 -92 123 -155q47 47 133 145l132 -129q-86 -70 -152 -133q80 -76 141 -125z" />
<glyph unicode="&#xd8;" d="M752 1477q-35 -101 -84 -246q75 -193 75 -531q0 -157 -18 -282t-49 -209t-75.5 -139.5t-96 -80t-111.5 -24.5q-69 0 -123 29l-22 -84q-105 18 -185 18h-20q28 58 90 219q-92 189 -92 553q0 201 27 350.5t76 237t111 129t138 41.5q87 0 150 -49l24 84zM264 700 q0 -65 4 -163q104 313 203 641q-29 90 -78 90q-28 0 -50.5 -31.5t-40.5 -96.5t-28 -177t-10 -263zM520 700q0 57 -2 84q-116 -348 -186 -585q25 -43 61 -43q27 0 49.5 29.5t40 91.5t27.5 169.5t10 253.5z" />
<glyph unicode="&#xd9;" horiz-adv-x="741" d="M637 1448q41 -360 41 -848q0 -81 -7 -153t-21.5 -143t-41 -127.5t-63.5 -100.5t-90 -68t-119 -24q-291 0 -291 561q0 303 57 864l209 -4q-49 -563 -49 -885q0 -147 19.5 -239.5t62.5 -92.5q52 0 86.5 150.5t34.5 343.5q0 373 -27 743zM233 1884l197 -340l-94 -69 l-264 284q93 78 161 125z" />
<glyph unicode="&#xda;" horiz-adv-x="741" d="M637 1448q41 -360 41 -848q0 -81 -7 -153t-21.5 -143t-41 -127.5t-63.5 -100.5t-90 -68t-119 -24q-291 0 -291 561q0 303 57 864l209 -4q-49 -563 -49 -885q0 -147 19.5 -239.5t62.5 -92.5q52 0 86.5 150.5t34.5 343.5q0 373 -27 743zM322 1556l196 340q30 -21 70.5 -52 t65.5 -52l26 -20l-264 -285z" />
<glyph unicode="&#xdb;" horiz-adv-x="741" d="M637 1448q41 -360 41 -848q0 -81 -7 -153t-21.5 -143t-41 -127.5t-63.5 -100.5t-90 -68t-119 -24q-291 0 -291 561q0 303 57 864l209 -4q-49 -563 -49 -885q0 -147 19.5 -239.5t62.5 -92.5q52 0 86.5 150.5t34.5 343.5q0 373 -27 743zM588 1546l-156 -57l-78 235 l-65 -241l-154 61l152 336h162z" />
<glyph unicode="&#xdc;" horiz-adv-x="741" d="M637 1448q41 -360 41 -848q0 -81 -7 -153t-21.5 -143t-41 -127.5t-63.5 -100.5t-90 -68t-119 -24q-291 0 -291 561q0 303 57 864l209 -4q-49 -563 -49 -885q0 -147 19.5 -239.5t62.5 -92.5q52 0 86.5 150.5t34.5 343.5q0 373 -27 743zM332 1597q0 -42 -32 -73t-75 -31 t-74.5 30.5t-31.5 73.5q0 44 31.5 75.5t74.5 31.5t75 -31.5t32 -75.5zM602 1597q0 -43 -31.5 -73.5t-74.5 -30.5t-75 31t-32 73q0 44 32 75.5t75 31.5t74.5 -31.5t31.5 -75.5z" />
<glyph unicode="&#xdd;" horiz-adv-x="712" d="M481 1440l246 -6q-113 -357 -281 -1012v-62q0 -151 19 -368h-240q31 257 31 448q-115 477 -248 975l250 21q12 -270 98 -742q83 411 125 746zM309 1516l197 339q30 -21 70.5 -52t65.5 -51l26 -21l-265 -285z" />
<glyph unicode="&#xde;" horiz-adv-x="681" d="M659 631q-1 -8 -2.5 -21.5t-11 -54t-24 -78.5t-43 -87t-65 -87.5t-94 -72t-126.5 -48.5q0 -5 2 -76t4 -114h-244q51 738 21 1466q150 -10 252 -10l-25 -272l29 -2q44 -3 89 -20.5t93 -58.5t83 -99.5t53 -153.5t9 -211zM299 1012q-18 -350 -12 -660q48 18 83.5 57.5 t51.5 83t25.5 84.5t10.5 68l1 27q0 12 -1 32t-9.5 73.5t-23.5 96.5t-48 84t-78 54z" />
<glyph unicode="&#xdf;" horiz-adv-x="894" d="M432 1513q135 0 231.5 -99t96.5 -238q0 -69 -24.5 -133t-53.5 -102.5t-53.5 -83.5t-24.5 -81q0 -41 15 -76.5t39.5 -63t54 -55t59 -58.5t55 -66.5t42 -86.5t18.5 -112q0 -84 -29 -147.5t-75.5 -97.5t-96 -50t-100.5 -16q-13 0 -35 1.5t-72.5 17.5t-81.5 44l9 228 q43 -35 95.5 -55t83.5 -23l31 -2q28 15 44 42.5t16 61.5q0 38 -15.5 74t-40.5 65.5t-54.5 59.5t-59.5 63.5t-55 70t-40.5 86t-15.5 105.5q0 53 15 95t36.5 69.5t43 53t36.5 57.5t15 69q0 77 -32.5 118.5t-72.5 41.5q-49 0 -73.5 -40t-36 -146t-13.5 -320q-6 -427 -6 -786 l-194 -6q-11 470 -11 776v100h-90v179h92l5 114q0 155 95.5 253.5t227.5 98.5z" />
<glyph unicode="&#xe0;" horiz-adv-x="710" d="M653 637q0 -342 -8 -645l-174 10v135q-22 -40 -53 -69.5t-59 -43t-52.5 -21t-39.5 -8.5l-15 -1q-95 0 -162 78t-67 180q0 131 108 213q41 32 95 71t80 58.5t57.5 46t44.5 44.5t22.5 41.5t9.5 49.5q0 64 -21.5 97.5t-58.5 33.5q-41 0 -61 -38.5t-20 -88.5q0 -35 8 -71 l-230 -4q-4 46 -4 63q0 85 36 160.5t109.5 125.5t168.5 50q54 0 97 -14t72.5 -37.5t51 -60t34 -74t20 -88t9.5 -94.5t2 -99zM428 354q19 82 21 209q-18 -25 -40 -49t-35 -36l-12 -11q-147 -123 -147 -199q0 -29 19.5 -52t46.5 -23q43 0 87.5 47t59.5 114zM199 1567l196 -340 l-94 -70l-264 285q94 78 162 125z" />
<glyph unicode="&#xe1;" horiz-adv-x="710" d="M653 637q0 -342 -8 -645l-174 10v135q-22 -40 -53 -69.5t-59 -43t-52.5 -21t-39.5 -8.5l-15 -1q-95 0 -162 78t-67 180q0 131 108 213q41 32 95 71t80 58.5t57.5 46t44.5 44.5t22.5 41.5t9.5 49.5q0 64 -21.5 97.5t-58.5 33.5q-41 0 -61 -38.5t-20 -88.5q0 -35 8 -71 l-230 -4q-4 46 -4 63q0 85 36 160.5t109.5 125.5t168.5 50q54 0 97 -14t72.5 -37.5t51 -60t34 -74t20 -88t9.5 -94.5t2 -99zM428 354q19 82 21 209q-18 -25 -40 -49t-35 -36l-12 -11q-147 -123 -147 -199q0 -29 19.5 -52t46.5 -23q43 0 87.5 47t59.5 114zM344 1223l197 340 q30 -21 70.5 -52t65.5 -52l25 -21l-264 -285z" />
<glyph unicode="&#xe2;" horiz-adv-x="710" d="M653 637q0 -342 -8 -645l-174 10v135q-22 -40 -53 -69.5t-59 -43t-52.5 -21t-39.5 -8.5l-15 -1q-95 0 -162 78t-67 180q0 131 108 213q41 32 95 71t80 58.5t57.5 46t44.5 44.5t22.5 41.5t9.5 49.5q0 64 -21.5 97.5t-58.5 33.5q-41 0 -61 -38.5t-20 -88.5q0 -35 8 -71 l-230 -4q-4 46 -4 63q0 85 36 160.5t109.5 125.5t168.5 50q54 0 97 -14t72.5 -37.5t51 -60t34 -74t20 -88t9.5 -94.5t2 -99zM428 354q19 82 21 209q-18 -25 -40 -49t-35 -36l-12 -11q-147 -123 -147 -199q0 -29 19.5 -52t46.5 -23q43 0 87.5 47t59.5 114zM563 1214l-155 -57 l-78 236l-66 -242l-153 61l151 336h162z" />
<glyph unicode="&#xe3;" horiz-adv-x="710" d="M653 637q0 -342 -8 -645l-174 10v135q-22 -40 -53 -69.5t-59 -43t-52.5 -21t-39.5 -8.5l-15 -1q-95 0 -162 78t-67 180q0 131 108 213q41 32 95 71t80 58.5t57.5 46t44.5 44.5t22.5 41.5t9.5 49.5q0 64 -21.5 97.5t-58.5 33.5q-41 0 -61 -38.5t-20 -88.5q0 -35 8 -71 l-230 -4q-4 46 -4 63q0 85 36 160.5t109.5 125.5t168.5 50q54 0 97 -14t72.5 -37.5t51 -60t34 -74t20 -88t9.5 -94.5t2 -99zM428 354q19 82 21 209q-18 -25 -40 -49t-35 -36l-12 -11q-147 -123 -147 -199q0 -29 19.5 -52t46.5 -23q43 0 87.5 47t59.5 114zM559 1440l86 -123 q-3 -7 -8.5 -17.5t-24.5 -38t-40 -48.5t-54 -38.5t-67 -17.5q-27 1 -53.5 16t-45 33t-44 32.5t-50.5 14.5q-32 0 -51.5 -20.5t-50.5 -75.5l-101 98q38 85 75.5 124.5t105.5 39.5q47 0 85.5 -21.5t67.5 -43t51 -21.5q33 0 62.5 26.5t43.5 53.5z" />
<glyph unicode="&#xe4;" horiz-adv-x="710" d="M653 637q0 -342 -8 -645l-174 10v135q-22 -40 -53 -69.5t-59 -43t-52.5 -21t-39.5 -8.5l-15 -1q-95 0 -162 78t-67 180q0 131 108 213q41 32 95 71t80 58.5t57.5 46t44.5 44.5t22.5 41.5t9.5 49.5q0 64 -21.5 97.5t-58.5 33.5q-41 0 -61 -38.5t-20 -88.5q0 -35 8 -71 l-230 -4q-4 46 -4 63q0 85 36 160.5t109.5 125.5t168.5 50q54 0 97 -14t72.5 -37.5t51 -60t34 -74t20 -88t9.5 -94.5t2 -99zM428 354q19 82 21 209q-18 -25 -40 -49t-35 -36l-12 -11q-147 -123 -147 -199q0 -29 19.5 -52t46.5 -23q43 0 87.5 47t59.5 114zM322 1260 q0 -43 -32 -74t-75 -31t-74.5 31t-31.5 74q0 44 31.5 75t74.5 31t75 -31t32 -75zM592 1260q0 -43 -32 -74t-75 -31t-74.5 31t-31.5 74q0 44 31.5 75t74.5 31t75 -31t32 -75z" />
<glyph unicode="&#xe5;" horiz-adv-x="710" d="M653 637q0 -342 -8 -645l-174 10v135q-22 -40 -53 -69.5t-59 -43t-52.5 -21t-39.5 -8.5l-15 -1q-95 0 -162 78t-67 180q0 131 108 213q41 32 95 71t80 58.5t57.5 46t44.5 44.5t22.5 41.5t9.5 49.5q0 64 -21.5 97.5t-58.5 33.5q-41 0 -61 -38.5t-20 -88.5q0 -35 8 -71 l-230 -4q-4 46 -4 63q0 85 36 160.5t109.5 125.5t168.5 50q54 0 97 -14t72.5 -37.5t51 -60t34 -74t20 -88t9.5 -94.5t2 -99zM428 354q19 82 21 209q-18 -25 -40 -49t-35 -36l-12 -11q-147 -123 -147 -199q0 -29 19.5 -52t46.5 -23q43 0 87.5 47t59.5 114zM422 1356 q0 30 -21.5 50.5t-52.5 20.5q-29 0 -50.5 -20.5t-21.5 -50.5q0 -28 22 -49t50 -21q30 0 52 21t22 49zM543 1356q0 -76 -58 -132.5t-135 -56.5t-134.5 56.5t-57.5 132.5q0 79 57.5 135.5t134.5 56.5t135 -56.5t58 -135.5z" />
<glyph unicode="&#xe6;" horiz-adv-x="1079" d="M1018 215l26 -188q-149 -52 -294 -52q-94 0 -154 55.5t-100 159.5q-20 -55 -52.5 -95.5t-64.5 -59t-61.5 -29t-47.5 -11.5l-18 -1q-95 0 -162 78t-67 180q0 131 108 213q41 32 95 71t80 58.5t57.5 46t44.5 44.5t22.5 41.5t9.5 49.5q0 64 -21.5 97.5t-58.5 33.5 q-41 0 -61 -38.5t-20 -88.5q0 -35 8 -71l-230 -4q-4 46 -4 63q0 66 17 120.5t42 88t59 59.5t64.5 38t62 19.5t46 9t23.5 1.5q141 0 211 -96q77 96 186 96q129 0 201.5 -130t72.5 -392q0 -76 -6 -158l-354 -47q23 -184 119 -184q104 0 221 22zM281 193q161 0 168 370 q-18 -25 -40 -49t-35 -36l-12 -11q-147 -123 -147 -199q0 -29 19.5 -52t46.5 -23zM672 578v-31l166 31v38q0 63 -8.5 110t-20.5 68.5t-24 34.5t-21 15l-8 2q-23 -2 -39 -19t-24.5 -40.5t-13.5 -61.5t-6 -69.5t-1 -77.5z" />
<glyph unicode="&#xe7;" horiz-adv-x="546" d="M416 -233q0 -58 -40.5 -97t-99.5 -47q-40 -5 -68 -1t-43 11l-15 7v110q8 -8 35 -14t44 -6q58 0 58 45q0 24 -21 35.5t-47 11.5q-33 0 -57 -8l67 182q-58 32 -97.5 86t-59.5 127t-27.5 146.5t-7.5 166.5q0 56 1.5 99t8.5 107t18.5 112t34.5 100t54.5 86t80 56t109.5 22 q58 0 111.5 -16t74.5 -33l-16 -234q-40 51 -135 51q-60 0 -93.5 -99.5t-33.5 -270.5q0 -177 56.5 -272t197.5 -105l-6 -172q-46 -4 -66 -4q-71 0 -133 16l-16 -67q58 1 94.5 -35.5t36.5 -95.5z" />
<glyph unicode="&#xe8;" horiz-adv-x="663" d="M602 215l27 -188q-149 -52 -295 -52q-59 0 -107 23.5t-80 64.5t-55 92t-35.5 111.5t-18 116.5t-5.5 113q0 271 84 439.5t231 168.5q129 0 202 -130t73 -392q0 -62 -7 -158l-354 -47q23 -184 119 -184q78 0 221 22zM256 578v-31l166 31v38q0 63 -8.5 110t-20.5 68.5 t-24 34.5t-21 15l-8 2q-23 -2 -39 -19t-24.5 -40.5t-13.5 -61.5t-6 -69.5t-1 -77.5zM147 1559l197 -340l-94 -70l-264 285q93 78 161 125z" />
<glyph unicode="&#xe9;" horiz-adv-x="663" d="M602 215l27 -188q-149 -52 -295 -52q-59 0 -107 23.5t-80 64.5t-55 92t-35.5 111.5t-18 116.5t-5.5 113q0 271 84 439.5t231 168.5q129 0 202 -130t73 -392q0 -62 -7 -158l-354 -47q23 -184 119 -184q78 0 221 22zM256 578v-31l166 31v38q0 63 -8.5 110t-20.5 68.5 t-24 34.5t-21 15l-8 2q-23 -2 -39 -19t-24.5 -40.5t-13.5 -61.5t-6 -69.5t-1 -77.5zM309 1227l197 340q30 -21 70.5 -52t65.5 -52l26 -21l-265 -285z" />
<glyph unicode="&#xea;" horiz-adv-x="663" d="M602 215l27 -188q-149 -52 -295 -52q-59 0 -107 23.5t-80 64.5t-55 92t-35.5 111.5t-18 116.5t-5.5 113q0 271 84 439.5t231 168.5q129 0 202 -130t73 -392q0 -62 -7 -158l-354 -47q23 -184 119 -184q78 0 221 22zM256 578v-31l166 31v38q0 63 -8.5 110t-20.5 68.5 t-24 34.5t-21 15l-8 2q-23 -2 -39 -19t-24.5 -40.5t-13.5 -61.5t-6 -69.5t-1 -77.5zM555 1208l-156 -57l-77 235l-66 -241l-154 61l152 336h162z" />
<glyph unicode="&#xeb;" horiz-adv-x="663" d="M602 215l27 -188q-149 -52 -295 -52q-59 0 -107 23.5t-80 64.5t-55 92t-35.5 111.5t-18 116.5t-5.5 113q0 271 84 439.5t231 168.5q129 0 202 -130t73 -392q0 -62 -7 -158l-354 -47q23 -184 119 -184q78 0 221 22zM256 578v-31l166 31v38q0 63 -8.5 110t-20.5 68.5 t-24 34.5t-21 15l-8 2q-23 -2 -39 -19t-24.5 -40.5t-13.5 -61.5t-6 -69.5t-1 -77.5zM301 1247q0 -43 -31.5 -73.5t-74.5 -30.5t-75 31t-32 73q0 44 32 75.5t75 31.5t74.5 -31.5t31.5 -75.5zM571 1247q0 -43 -31.5 -73.5t-74.5 -30.5t-75 31t-32 73q0 44 32 75.5t75 31.5 t74.5 -31.5t31.5 -75.5z" />
<glyph unicode="&#xec;" horiz-adv-x="358" d="M307 1038q-24 -247 -22.5 -562.5t20.5 -424.5q-135 0 -258 -16q17 184 24 356t5 286t-6.5 201.5t-9.5 127.5l-5 41q67 -7 130 -9.5t93 -1.5zM29 1534l196 -340l-94 -70l-264 285q94 78 162 125z" />
<glyph unicode="&#xed;" horiz-adv-x="358" d="M307 1038q-24 -247 -22.5 -562.5t20.5 -424.5q-135 0 -258 -16q17 184 24 356t5 286t-6.5 201.5t-9.5 127.5l-5 41q67 -7 130 -9.5t93 -1.5zM143 1174l197 339q30 -21 70.5 -52t65.5 -51l26 -21l-264 -285z" />
<glyph unicode="&#xee;" horiz-adv-x="358" d="M307 1038q-24 -247 -22.5 -562.5t20.5 -424.5q-135 0 -258 -16q17 184 24 356t5 286t-6.5 201.5t-9.5 127.5l-5 41q67 -7 130 -9.5t93 -1.5zM412 1174l-156 -58l-78 236l-65 -242l-154 61l152 336h161z" />
<glyph unicode="&#xef;" horiz-adv-x="358" d="M307 1038q-24 -247 -22.5 -562.5t20.5 -424.5q-135 0 -258 -16q17 184 24 356t5 286t-6.5 201.5t-9.5 127.5l-5 41q67 -7 130 -9.5t93 -1.5zM158 1223q0 -43 -32 -74t-75 -31t-74.5 31t-31.5 74q0 44 31.5 75t74.5 31t75 -31t32 -75zM428 1223q0 -43 -31.5 -74t-74.5 -31 t-75 31t-32 74q0 44 32 75t75 31t74.5 -31t31.5 -75z" />
<glyph unicode="&#xf0;" horiz-adv-x="686" d="M512 1505l43 -133l-104 -53q196 -293 196 -746q0 -142 -16.5 -249.5t-44 -174.5t-68 -108.5t-84.5 -57.5t-98 -16t-96 13.5t-81.5 51t-65 100t-41 166t-15.5 243.5q0 594 307 594q-20 48 -59 102l-150 -76l-49 148l96 43q-69 60 -73 63l110 121q61 -26 139 -102zM432 565 q0 123 -12.5 195.5t-31.5 97.5t-48 25q-47 0 -69.5 -83.5t-22.5 -273.5q0 -336 100 -336q84 0 84 375z" />
<glyph unicode="&#xf1;" d="M700 18l-235 -12q41 301 41 672q0 184 -86 184q-33 0 -55 -18t-42 -70.5t-30 -162.5t-10 -279q0 -256 4 -291l-226 2q9 363 9 510q0 89 -7 469l234 6l-4 -102q84 157 231 157q207 0 207 -512q0 -87 -5 -180.5t-14.5 -219.5t-11.5 -153zM606 1430l86 -123 q-3 -7 -8.5 -17.5t-24.5 -38t-40 -48.5t-54 -38.5t-67 -17.5q-27 1 -53.5 16t-45 33t-44 32.5t-50.5 14.5q-32 0 -51.5 -20.5t-50.5 -75.5l-101 98q38 85 75.5 124.5t105.5 39.5q47 0 85.5 -21.5t67.5 -43t51 -21.5q33 0 62.5 26.5t42.5 53.5z" />
<glyph unicode="&#xf2;" horiz-adv-x="684" d="M647 573q0 -142 -16.5 -249.5t-44 -174.5t-68 -108.5t-84.5 -57.5t-98 -16t-96 13.5t-81.5 51t-65 100t-41 166t-15.5 243.5q0 594 307 594q50 0 89.5 -11t81.5 -47t69.5 -95.5t45 -163.5t17.5 -245zM432 565q0 123 -12.5 195.5t-31.5 97.5t-48 25q-47 0 -69.5 -83.5 t-22.5 -273.5q0 -336 100 -336q84 0 84 375zM145 1595l197 -340l-94 -69l-264 284q93 78 161 125z" />
<glyph unicode="&#xf3;" horiz-adv-x="684" d="M647 573q0 -142 -16.5 -249.5t-44 -174.5t-68 -108.5t-84.5 -57.5t-98 -16t-96 13.5t-81.5 51t-65 100t-41 166t-15.5 243.5q0 594 307 594q50 0 89.5 -11t81.5 -47t69.5 -95.5t45 -163.5t17.5 -245zM432 565q0 123 -12.5 195.5t-31.5 97.5t-48 25q-47 0 -69.5 -83.5 t-22.5 -273.5q0 -336 100 -336q84 0 84 375zM348 1255l197 340q30 -21 70.5 -52t66.5 -52l25 -21l-265 -284z" />
<glyph unicode="&#xf4;" horiz-adv-x="684" d="M647 573q0 -142 -16.5 -249.5t-44 -174.5t-68 -108.5t-84.5 -57.5t-98 -16t-96 13.5t-81.5 51t-65 100t-41 166t-15.5 243.5q0 594 307 594q50 0 89.5 -11t81.5 -47t69.5 -95.5t45 -163.5t17.5 -245zM432 565q0 123 -12.5 195.5t-31.5 97.5t-48 25q-47 0 -69.5 -83.5 t-22.5 -273.5q0 -336 100 -336q84 0 84 375zM567 1247l-155 -57l-78 235l-66 -241l-153 61l151 336h162z" />
<glyph unicode="&#xf5;" horiz-adv-x="684" d="M647 573q0 -142 -16.5 -249.5t-44 -174.5t-68 -108.5t-84.5 -57.5t-98 -16t-96 13.5t-81.5 51t-65 100t-41 166t-15.5 243.5q0 594 307 594q50 0 89.5 -11t81.5 -47t69.5 -95.5t45 -163.5t17.5 -245zM432 565q0 123 -12.5 195.5t-31.5 97.5t-48 25q-47 0 -69.5 -83.5 t-22.5 -273.5q0 -336 100 -336q84 0 84 375zM551 1464l86 -123l-8.5 -17t-24.5 -38.5t-40 -48.5t-54.5 -38t-67.5 -17q-33 1 -66 25t-64 47.5t-62 23.5q-32 0 -52 -21t-51 -75l-100 98q38 86 75 125t105 39q37 0 70 -13.5t52.5 -29.5t42 -29.5t40.5 -13.5q33 0 62.5 26.5 t43.5 53.5z" />
<glyph unicode="&#xf6;" horiz-adv-x="684" d="M647 573q0 -142 -16.5 -249.5t-44 -174.5t-68 -108.5t-84.5 -57.5t-98 -16t-96 13.5t-81.5 51t-65 100t-41 166t-15.5 243.5q0 594 307 594q50 0 89.5 -11t81.5 -47t69.5 -95.5t45 -163.5t17.5 -245zM432 565q0 123 -12.5 195.5t-31.5 97.5t-48 25q-47 0 -69.5 -83.5 t-22.5 -273.5q0 -336 100 -336q84 0 84 375zM313 1276q0 -43 -31.5 -74t-74.5 -31t-75 31t-32 74q0 44 32 75t75 31t74.5 -31t31.5 -75zM584 1276q0 -43 -32 -74t-75 -31t-74.5 31t-31.5 74q0 44 31.5 75t74.5 31t75 -31t32 -75z" />
<glyph unicode="&#xf7;" horiz-adv-x="636" d="M594 780v-184l-549 -2v201zM436 403q0 -49 -34.5 -83.5t-84.5 -34.5q-49 0 -83.5 34.5t-34.5 83.5q0 50 34.5 84.5t83.5 34.5t84 -35t35 -84zM436 979q0 -49 -35 -84t-84 -35t-83.5 34.5t-34.5 84.5t34.5 84.5t83.5 34.5t84 -35t35 -84z" />
<glyph unicode="&#xf8;" horiz-adv-x="684" d="M481 1198l164 -16q-26 -74 -67 -189q69 -135 69 -420q0 -142 -16.5 -249.5t-44 -174.5t-68 -108.5t-84.5 -57.5t-98 -16q-48 0 -94 15l-19 -72q-86 18 -164 18h-20q7 14 72 166q-74 135 -74 447q0 594 307 594q58 0 111 -21zM248 526v-55q35 101 131 395q-17 17 -39 17 q-47 0 -69.5 -83.5t-22.5 -273.5zM432 565v13q-73 -212 -123 -373q18 -15 39 -15q84 0 84 375z" />
<glyph unicode="&#xf9;" horiz-adv-x="743" d="M465 983l225 4q-14 -298 -14 -635q0 -247 4 -372l-199 -5v125q-22 -37 -53.5 -63.5t-56 -38t-54.5 -18t-39 -7t-20 -0.5q-215 45 -215 473q0 236 63 592l218 -4q-52 -329 -52 -551q0 -284 93 -284q112 0 112 465q0 75 -3 154.5t-6 121.5zM238 1495l196 -340l-94 -70 l-264 285q94 78 162 125z" />
<glyph unicode="&#xfa;" horiz-adv-x="743" d="M465 983l225 4q-14 -298 -14 -635q0 -247 4 -372l-199 -5v125q-22 -37 -53.5 -63.5t-56 -38t-54.5 -18t-39 -7t-20 -0.5q-215 45 -215 473q0 236 63 592l218 -4q-52 -329 -52 -551q0 -284 93 -284q112 0 112 465q0 75 -3 154.5t-6 121.5zM344 1130l197 340 q30 -21 70.5 -52t65.5 -52l25 -20l-264 -285z" />
<glyph unicode="&#xfb;" horiz-adv-x="743" d="M465 983l225 4q-14 -298 -14 -635q0 -247 4 -372l-199 -5v125q-22 -37 -53.5 -63.5t-56 -38t-54.5 -18t-39 -7t-20 -0.5q-215 45 -215 473q0 236 63 592l218 -4q-52 -329 -52 -551q0 -284 93 -284q112 0 112 465q0 75 -3 154.5t-6 121.5zM614 1155l-155 -57l-78 235 l-66 -241l-153 61l151 336h162z" />
<glyph unicode="&#xfc;" horiz-adv-x="743" d="M465 983l225 4q-14 -298 -14 -635q0 -247 4 -372l-199 -5v125q-22 -37 -53.5 -63.5t-56 -38t-54.5 -18t-39 -7t-20 -0.5q-215 45 -215 473q0 236 63 592l218 -4q-52 -329 -52 -551q0 -284 93 -284q112 0 112 465q0 75 -3 154.5t-6 121.5zM365 1198q0 -42 -32 -73t-75 -31 t-74.5 30.5t-31.5 73.5q0 44 31.5 75.5t74.5 31.5t75 -31.5t32 -75.5zM635 1198q0 -42 -32 -73t-75 -31t-74.5 30.5t-31.5 73.5q0 44 31.5 75.5t74.5 31.5t75 -31.5t32 -75.5z" />
<glyph unicode="&#xfd;" horiz-adv-x="745" d="M666 1036q20 -482 20 -880q0 -87 -3.5 -149t-12.5 -118.5t-25.5 -93.5t-41.5 -67t-61.5 -46.5t-84 -25t-111.5 -8.5q-126 0 -295 22l8 219l303 -16q50 0 69.5 26.5t19.5 106.5q0 34 -2 57q-50 -73 -146 -73q-63 0 -109 22t-74 58.5t-44.5 92.5t-22.5 114t-6 133 q0 65 -1 71q-1 1 0 2q7 75 32 561l231 -20q2 0 -7.5 -62t-22.5 -198t-13 -277q0 -266 101 -266q42 0 67 65.5t25 196.5q0 42 -29 559zM293 1167l196 340q30 -21 70.5 -52t66.5 -52l25 -21l-264 -284z" />
<glyph unicode="&#xfe;" horiz-adv-x="735" d="M406 1106q54 0 98.5 -25t74 -65t52 -97t35 -114t20 -124t10 -118.5t2.5 -105.5q0 -237 -71 -361.5t-178 -124.5q-4 0 -11.5 1t-29 7t-42.5 16t-47 31t-47 50l21 -412h-225v1811h192v-486q63 117 146 117zM483 457q0 41 -1.5 81t-5 95t-12.5 100.5t-21.5 86.5t-33 64 t-47.5 23q-52 0 -78 -86t-26 -219v-39t0.5 -45.5t2.5 -52.5t4.5 -53t7 -55t11 -49t16 -45t21 -33.5t27 -24.5t33.5 -8q33 0 54.5 21t31 61.5t13 80.5t3.5 97z" />
<glyph unicode="&#xff;" horiz-adv-x="745" d="M666 1036q20 -482 20 -880q0 -87 -3.5 -149t-12.5 -118.5t-25.5 -93.5t-41.5 -67t-61.5 -46.5t-84 -25t-111.5 -8.5q-126 0 -295 22l8 219l303 -16q50 0 69.5 26.5t19.5 106.5q0 34 -2 57q-50 -73 -146 -73q-63 0 -109 22t-74 58.5t-44.5 92.5t-22.5 114t-6 133 q0 65 -1 71q-1 1 0 2q7 75 32 561l231 -20q2 0 -7.5 -62t-22.5 -198t-13 -277q0 -266 101 -266q42 0 67 65.5t25 196.5q0 42 -29 559zM338 1229q0 -43 -32 -74t-75 -31t-74.5 31t-31.5 74q0 44 31.5 75t74.5 31t75 -31t32 -75zM608 1229q0 -43 -31.5 -74t-74.5 -31t-75 31 t-32 74q0 44 32 75t75 31t74.5 -31t31.5 -75z" />
<glyph unicode="&#x152;" horiz-adv-x="1095" d="M1071 207v-209q-263 11 -524 -6v24q-66 -51 -154 -51q-61 0 -112 23t-96 77.5t-76.5 137.5t-49.5 209.5t-18 287.5q0 201 27 350.5t76 237t111 129t138 41.5q89 0 156 -53q-2 10 -2 31q244 -16 506 4v-230q-139 26 -283 23q-14 -199 -18 -498q101 -6 202 0v-200 q-156 5 -202 2l-4 -357q149 3 323 27zM520 700q0 152 -10 264.5t-27.5 177t-40 95.5t-49.5 31q-28 0 -50.5 -31.5t-40.5 -96.5t-28 -177t-10 -263q0 -544 129 -544q27 0 49.5 29.5t40 91.5t27.5 169.5t10 253.5z" />
<glyph unicode="&#x153;" horiz-adv-x="1060" d="M999 215l27 -188q-149 -52 -295 -52q-61 0 -105.5 20t-84.5 71q-76 -99 -205 -99q-54 0 -96 13.5t-81.5 51t-65 100t-41 166t-15.5 243.5q0 594 307 594q148 0 221 -121q74 90 180 90q129 0 202 -130t73 -392q0 -76 -6 -158l-355 -47q23 -184 119 -184q104 0 221 22z M348 190q37 0 59.5 87t22.5 227q0 198 -19 288.5t-71 90.5q-47 0 -69.5 -83.5t-22.5 -273.5q0 -336 100 -336zM653 578v-31l166 31v38q0 63 -8.5 110t-20.5 68.5t-24 34.5t-20 15l-9 2q-23 -2 -39 -19t-24.5 -40.5t-13.5 -61.5t-6 -69.5t-1 -77.5z" />
<glyph unicode="&#x178;" horiz-adv-x="712" d="M481 1440l246 -6q-113 -357 -281 -1012v-62q0 -151 19 -368h-240q31 257 31 448q-115 477 -248 975l250 21q12 -270 98 -742q83 411 125 746zM338 1597q0 -42 -32 -73t-75 -31t-74.5 30.5t-31.5 73.5q0 44 31.5 75.5t74.5 31.5t75 -31.5t32 -75.5zM608 1597 q0 -43 -31.5 -73.5t-74.5 -30.5t-75 31t-32 73q0 44 32 75.5t75 31.5t74.5 -31.5t31.5 -75.5z" />
<glyph unicode="&#x2c6;" horiz-adv-x="452" d="M453 1247l-156 -57l-78 235l-65 -241l-154 61l152 336h161z" />
<glyph unicode="&#x2dc;" horiz-adv-x="589" d="M504 1487l86 -123q-3 -7 -8.5 -17.5t-24.5 -38t-40 -48.5t-54.5 -38.5t-67.5 -17.5q-33 1 -66 25t-64 47.5t-62 23.5q-32 0 -52 -21t-51 -75l-100 99q38 85 75 124t105 39q37 0 70 -13.5t52.5 -29.5t42 -29.5t40.5 -13.5q33 0 62.5 27t42.5 53z" />
<glyph unicode="&#x2000;" horiz-adv-x="958" />
<glyph unicode="&#x2001;" horiz-adv-x="1917" />
<glyph unicode="&#x2002;" horiz-adv-x="958" />
<glyph unicode="&#x2003;" horiz-adv-x="1917" />
<glyph unicode="&#x2004;" horiz-adv-x="639" />
<glyph unicode="&#x2005;" horiz-adv-x="479" />
<glyph unicode="&#x2006;" horiz-adv-x="319" />
<glyph unicode="&#x2007;" horiz-adv-x="319" />
<glyph unicode="&#x2008;" horiz-adv-x="239" />
<glyph unicode="&#x2009;" horiz-adv-x="383" />
<glyph unicode="&#x200a;" horiz-adv-x="106" />
<glyph unicode="&#x2010;" horiz-adv-x="661" d="M606 780v-184l-549 -2v201z" />
<glyph unicode="&#x2011;" horiz-adv-x="661" d="M606 780v-184l-549 -2v201z" />
<glyph unicode="&#x2012;" horiz-adv-x="661" d="M606 780v-184l-549 -2v201z" />
<glyph unicode="&#x2013;" horiz-adv-x="933" d="M879 780v-184l-822 -2v201z" />
<glyph unicode="&#x2014;" horiz-adv-x="1339" d="M57 795l1227 -15v-184l-1227 -2v201z" />
<glyph unicode="&#x2018;" horiz-adv-x="288" d="M29 1196q1 65 26 112.5t80 102.5l74 -35q-25 -26 -41 -73q41 -8 69.5 -41t28.5 -76q0 -50 -35 -84.5t-84 -34.5q-50 0 -84 36.5t-34 92.5z" />
<glyph unicode="&#x2019;" horiz-adv-x="286" d="M260 1292q0 -70 -25 -119.5t-81 -105.5l-74 35q25 27 39 74q-42 8 -69 40t-27 76q0 50 34.5 84.5t83.5 34.5t84 -34.5t35 -84.5z" />
<glyph unicode="&#x201a;" horiz-adv-x="305" d="M270 80q0 -70 -25 -119.5t-81 -105.5l-74 34q25 27 39 74q-42 8 -69 40.5t-27 76.5q0 50 34.5 84.5t84.5 34.5q49 0 83.5 -34.5t34.5 -84.5z" />
<glyph unicode="&#x201c;" horiz-adv-x="581" d="M322 1186q0 70 25 119.5t81 105.5l74 -35q-25 -26 -41 -73q41 -8 69.5 -41t28.5 -76q0 -50 -34.5 -84.5t-84.5 -34.5q-49 0 -83.5 34.5t-34.5 84.5zM29 1196q1 65 26 112.5t80 102.5l74 -35q-25 -26 -41 -73q41 -8 69.5 -41t28.5 -76q0 -50 -35 -84.5t-84 -34.5 q-50 0 -84 36.5t-34 92.5z" />
<glyph unicode="&#x201d;" horiz-adv-x="579" d="M260 1292q-1 -72 -26 -121t-80 -104l-74 35q25 27 39 74q-42 8 -69 40t-27 76q0 50 34.5 84.5t83.5 34.5t84 -34.5t35 -84.5zM553 1292q0 -70 -25 -119t-82 -106l-73 35q25 27 39 74q-42 8 -69.5 40t-27.5 76q0 50 34.5 84.5t84.5 34.5t84.5 -34.5t34.5 -84.5z" />
<glyph unicode="&#x201e;" horiz-adv-x="598" d="M270 80q-1 -72 -26 -121t-80 -104l-74 34q25 27 39 74q-42 8 -69 40.5t-27 76.5q0 50 34.5 84.5t84.5 34.5q49 0 83.5 -34.5t34.5 -84.5zM563 80q0 -70 -25 -119.5t-81 -105.5l-74 34q25 27 39 74q-42 8 -69 40.5t-27 76.5q0 50 34.5 84.5t83.5 34.5q50 0 84.5 -34.5 t34.5 -84.5z" />
<glyph unicode="&#x2022;" horiz-adv-x="555" d="M471 733q0 -78 -56 -135t-134 -57q-81 0 -139 57t-58 135q0 82 57.5 138.5t139.5 56.5q78 0 134 -57t56 -138z" />
<glyph unicode="&#x2026;" horiz-adv-x="909" d="M270 82q0 -50 -34.5 -84.5t-83.5 -34.5q-50 0 -84.5 34.5t-34.5 84.5t34.5 84.5t84.5 34.5q49 0 83.5 -34.5t34.5 -84.5zM573 82q0 -50 -34.5 -84.5t-83.5 -34.5t-84 34.5t-35 84.5t35 84.5t84 34.5t83.5 -34.5t34.5 -84.5zM877 82q0 -50 -34.5 -84.5t-84.5 -34.5 t-84.5 34.5t-34.5 84.5t34.5 84.5t84.5 34.5t84.5 -34.5t34.5 -84.5z" />
<glyph unicode="&#x202f;" horiz-adv-x="383" />
<glyph unicode="&#x2039;" horiz-adv-x="512" d="M469 377l-51 -187l-383 197v205l350 233l84 -196l-303 -127z" />
<glyph unicode="&#x203a;" horiz-adv-x="512" d="M94 190l-51 187l301 125l-301 127l84 196l350 -233v-205z" />
<glyph unicode="&#x205f;" horiz-adv-x="479" />
<glyph unicode="&#x20ac;" horiz-adv-x="817" d="M125 893l78 2q13 133 48.5 236.5t78.5 162.5t95 97.5t94.5 51.5t80.5 13q11 0 29.5 -1.5t59.5 -13.5t65 -34l-21 -201q-56 27 -98 27q-158 0 -209 -330l199 6l-52 -161h-163v-39q-2 -13 0 -29l149 4l-51 -162h-84q51 -332 215 -332q50 0 109 33l36 -198 q-45 -21 -98.5 -33t-83.5 -14l-31 -1q-41 0 -82 13.5t-88 51.5t-84.5 96.5t-69 157.5t-44.5 226h-176l32 148l136 4v49v25h-105z" />
<glyph unicode="&#x2122;" horiz-adv-x="903" d="M846 829l-115 -2q8 252 8 416q-51 -224 -69 -407l-95 2l-75 413q0 -369 8 -422l-133 -6q18 82 23 226t1 247l-4 103q31 -4 72 -5.5t67 -1.5l25 1l66 -392q13 75 24 174t16 161l5 61q78 -6 170 0q-8 -197 -6.5 -323t6.5 -186zM344 1399l-4 -80h-88q-14 -208 2 -494h-102 q20 359 16 494q-20 0 -51.5 -1t-42.5 -1v84q171 -5 270 -2z" />
<glyph unicode="&#x25fc;" horiz-adv-x="1044" d="M0 1044h1044v-1044h-1044v1044z" />
</font>
</defs>
</svg>
