<?xml version="1.0" standalone="no"?>
<!DOCTYPE svg PUBLIC "-//W3C//DTD SVG 1.1//EN" "http://www.w3.org/Graphics/SVG/1.1/DTD/svg11.dtd" >
<svg xmlns="http://www.w3.org/2000/svg" xmlns:xlink="http://www.w3.org/1999/xlink" version="1.1">
<metadata></metadata>
<defs>
<font id="rowboatregular" horiz-adv-x="827" >
<font-face units-per-em="2048" ascent="1448" descent="-600" />
<missing-glyph horiz-adv-x="907" />
<glyph horiz-adv-x="0" />
<glyph horiz-adv-x="682" />
<glyph unicode="&#x9;" horiz-adv-x="2048" />
<glyph unicode=" "  horiz-adv-x="907" />
<glyph unicode="&#x09;" horiz-adv-x="907" />
<glyph unicode="&#xa0;" horiz-adv-x="907" />
<glyph unicode="!" horiz-adv-x="581" d="M209 0q-13 14 -24 46t-10 72t22 64q23 28 60 44.5t86 11t89 -42.5q24 -27 21.5 -98.5t-21.5 -90.5q-34 -34 -116 -35t-107 29zM446 1520q4 -45 -5.5 -610t-16.5 -566q-14 -5 -76.5 -11t-111.5 -7.5t-56 4.5q1 7 -10 293t-22 581t-11 316q0 4 77 6.5t154 1t78 -7.5z" />
<glyph unicode="&#x22;" horiz-adv-x="1040" d="M561 1704q214 33 283 -6q-4 -107 -23.5 -242t-40.5 -205q-121 -36 -231 -20q48 294 12 473zM147 1686q112 51 291 30q-3 -100 -2 -207t4 -191l2 -83q-26 -11 -69 -15.5t-94.5 -5.5t-61.5 -2q-28 118 -49 268.5t-21 205.5z" />
<glyph unicode="#" horiz-adv-x="1390" d="M889 342l-82 -326l-195 66q12 54 64 262l-162 2q-9 -53 -23.5 -150.5t-21.5 -138.5q-10 2 -69.5 22t-113.5 39l-55 19l54 213l-152 2l19 183l180 2l35 145h-197l-10 223l262 -6l78 318l194 -68q-25 -139 -53 -256l147 -2q38 196 50 285q11 -2 70.5 -22.5t113.5 -39.5 l53 -20l-51 -209l143 -2l-10 -195h-182l-35 -141l227 4l-10 -213zM743 659l7 27l-158 -2q-5 -20 -15.5 -60t-13.5 -51q-1 -7 -4 -17.5t-4 -14.5l166 2q3 21 11.5 62.5t10.5 53.5z" />
<glyph unicode="$" horiz-adv-x="1048" d="M426 0v133q-194 23 -281 137q-51 69 -57 154h2q52 0 229 -10q3 -42 33.5 -81.5t73.5 -68.5v447l-12 4q-13 6 -119 47q-78 32 -113 55q-116 73 -116 205q0 138 103 231t257 107v115h186q-2 -44 -6 -119q56 -2 105 -17q31 -8 61 -24q3 -2 53 -35q40 -26 70 -73t44.5 -99 t21 -87t8.5 -63l-187 7q-7 81 -58.5 138.5t-125.5 82.5q-8 -256 -4 -402q22 -9 27 -10q54 -23 86 -37t73 -34t64 -36t50 -38t40.5 -44t26 -50t16 -61t2.5 -73q-1 -23 -9.5 -50t-32 -61.5t-58.5 -64t-96 -54.5t-138 -36q5 -61 19 -135q-12 -2 -71.5 -2t-112.5 1zM631 262 q88 62 88 174q0 109 -119 187q11 -166 31 -361zM426 868v316q-85 -33 -94 -142q-8 -101 94 -174z" />
<glyph unicode="%" horiz-adv-x="1239" d="M827 1432l215 -123q-8 -12 -66.5 -104.5t-88.5 -141t-83 -136.5t-97 -168t-82 -157q-174 -356 -269 -600q-11 4 -75.5 41t-123.5 72l-59 35zM946 27q-53 0 -95 22t-66.5 54.5t-40.5 74t-21 76.5t-4 65q6 101 66 169.5t161 68.5q98 0 145.5 -71.5t49.5 -176.5 q1 -37 -8.5 -81.5t-30 -91.5t-61.5 -78t-95 -31zM938 170q37 1 57.5 38t22.5 87q0 44 -27 75t-53 31q-39 0 -67.5 -30t-28.5 -76q2 -53 30 -89.5t66 -35.5zM258 1423q65 -3 112 -37.5t67.5 -84t28 -96.5t3.5 -85q-9 -100 -73 -165.5t-165 -59.5q-98 4 -141.5 77.5 t-40.5 178.5q1 37 12.5 81.5t34.5 90t65.5 74.5t96.5 26zM258 1280q-37 1 -59 -34.5t-25 -86.5q-3 -44 22 -76t52 -32q38 -2 68.5 26t31.5 74q2 53 -25 91t-65 38z" />
<glyph unicode="&#x26;" horiz-adv-x="1492" d="M874 420q3 36 -7.5 71t-39 69t-88 56.5t-143.5 26.5q-143 6 -231.5 -55.5t-94.5 -159.5q-4 -59 51 -109t125 -74.5t127 -25.5q108 -3 201 57.5t100 143.5zM879 944q9 37 -24.5 71t-85.5 54t-103 23q-89 4 -165 -17.5t-87 -70.5q-16 -60 64 -108t163 -48q86 0 156.5 24 t81.5 72zM1468 274q4 -3 -71.5 -55.5t-155 -104t-86.5 -51.5q-8 0 -75 80t-70 80q-1 0 -14.5 -21t-44.5 -50.5t-77 -59.5t-125.5 -51t-175.5 -21q-252 0 -401 112t-141 284q3 80 40.5 148t88 109t108 71t98.5 42t62 13q-32 9 -61 20.5t-68.5 33t-67 46.5t-46 62t-15.5 79 q3 32 19 64.5t53.5 67t90.5 60t136 41.5t184 15q218 -3 326 -78.5t111 -197.5q2 -67 -53 -130.5t-130.5 -98.5t-136.5 -31q45 -8 86.5 -26t68.5 -38t47 -39.5t29 -32.5l9 -12q57 72 102 106t131 82q5 2 7.5 3.5t6.5 3.5t7 4q4 4 28 -45t46 -100l22 -50q-44 -19 -65.5 -29.5 t-50.5 -30t-47.5 -45t-33.5 -61.5q-1 -2 73.5 -42t151.5 -81.5t80 -44.5z" />
<glyph unicode="'" horiz-adv-x="559" d="M485 1360q11 -22 17.5 -76t4 -118.5t-29 -122t-76.5 -76.5q-52 -19 -112 -31t-84 -12q-9 1 -12 23t0 30q65 86 65 135q-1 21 -28.5 46.5t-55.5 40.5l-27 15q-56 51 -8 158q28 44 108 51.5t152 -13t86 -50.5z" />
<glyph unicode="(" horiz-adv-x="849" d="M629 -109h-287q-9 21 -23.5 56.5t-52 138.5t-66 197.5t-52 210.5t-23.5 200t32 199t77.5 219t91.5 196.5t78 147.5l32 55l269 -12q-12 -17 -32.5 -47.5t-74 -122t-96 -179t-81.5 -203t-48 -210.5t14 -217t62 -228t80 -199t71 -147z" />
<glyph unicode=")" horiz-adv-x="823" d="M446 -109h-288q12 21 31 57t67.5 142t83.5 204.5t60 223t16 219.5t-46.5 208t-85 207t-93 175t-76.5 127l-31 45l268 12q13 -21 34 -57.5t74.5 -142t95 -202t75 -214t33.5 -201.5t-22.5 -197.5t-54.5 -215.5t-64 -192.5t-55 -144.5z" />
<glyph unicode="*" horiz-adv-x="1296" d="M502 563l-402 64l45 245l420 -114l-278 364l272 138l182 -488l320 334l135 -184l-256 -254l291 -76l-60 -207l-335 100l159 -346l-114 -149l-228 463l-286 -344l-187 200z" />
<glyph unicode="+" horiz-adv-x="1417" d="M817 -33l-276 2l39 514l-494 11l-10 227l536 37l-16 440l211 57l20 -514l426 35l43 -270l-516 -27z" />
<glyph unicode="," horiz-adv-x="612" d="M426 197q21 -28 27 -82t-13 -120t-63 -112q-72 -75 -180 -80q-27 -1 -16 36q3 9 34 79q15 33 14 45q-72 24 -94 92q-15 42 3.5 95t56.5 81q49 33 126 18.5t105 -52.5z" />
<glyph unicode="-" horiz-adv-x="1390" d="M1110 530l-788 -8l-13 248l813 -25z" />
<glyph unicode="." horiz-adv-x="571" d="M158 -4q-13 14 -24.5 47t-11 75t22.5 68q23 28 68 46t102 12t99 -45q26 -28 22.5 -103t-22.5 -94q-37 -37 -133 -37.5t-123 31.5z" />
<glyph unicode="/" horiz-adv-x="1040" d="M688 1456l225 -98q-10 -20 -55.5 -111.5t-72 -148t-68.5 -146t-77 -174.5t-65 -166q-118 -314 -204 -626l-273 118z" />
<glyph unicode="0" horiz-adv-x="911" d="M643 403q80 143 80 347q0 84 -13 154.5t-43 133.5t-87 100.5t-136 41.5q-122 4 -191.5 -115t-66.5 -315q2 -98 17 -183.5t43.5 -155t76.5 -110t109 -39.5q134 3 211 141zM436 0q-399 0 -399 743q-4 732 399 732q84 0 151 -28t112.5 -80t78 -116t51 -147.5t28 -161.5 t13.5 -170q15 -394 -122 -602q-114 -170 -312 -170z" />
<glyph unicode="1" horiz-adv-x="808" d="M45 1364l596 104q8 -376 6 -536q-1 -63 -2.5 -406.5t-7.5 -525.5q1 0 -76 -3l-154 -6l-77 -3l8 1261l-285 -10z" />
<glyph unicode="2" horiz-adv-x="1095" d="M260 1006l-190 -29q-1 16 -2.5 43t-4.5 97.5t-5.5 127.5t-4 109.5t-0.5 66.5q194 21 219 27v-178q28 37 77.5 67t110 49t128.5 25t133.5 -0.5t125 -33t103 -67.5t67 -108t17.5 -151q-4 -61 -40 -130t-84.5 -127.5t-125 -131t-134.5 -120.5t-143 -116t-122 -100 q26 0 313 -9.5t287 -13.5q0 -1 1.5 -34t3.5 -75.5t4 -88.5t2.5 -74t-1.5 -31h-919l10 324q69 61 166.5 139t166.5 131t144 121t119.5 124.5t70.5 125t19 137.5q-9 84 -133.5 106t-248.5 -35t-130 -167z" />
<glyph unicode="3" horiz-adv-x="1120" d="M41 225l262 35q-5 -74 44.5 -127.5t124 -68.5t149.5 -6t128 59t52 127q0 64 -23 116t-60 84t-82 56t-90 35t-82 17.5t-60 7.5l-23 1l-45 199q77 5 152 23.5t141 50.5t107 82.5t40 111.5q-1 63 -29 110.5t-78 68t-111 17t-133.5 -44t-139.5 -112.5q-145 8 -172 -6l-33 262 l172 27l16 -78q77 61 174.5 93t192.5 30t178 -29.5t140 -89.5t69 -146q10 -71 -6.5 -134.5t-51.5 -108t-80 -81.5t-92 -59.5t-86.5 -38t-64.5 -22.5l-25 -6q8 0 22.5 -0.5t56.5 -8.5t80 -22.5t84.5 -45.5t79.5 -74t56 -112.5t23 -156.5q0 -88 -30 -157t-81.5 -113 t-124 -71.5t-153 -37t-172.5 -4.5q-49 3 -97.5 14.5t-101.5 38t-95.5 64.5t-75.5 97.5t-46 133.5z" />
<glyph unicode="4" horiz-adv-x="1134" d="M266 805q336 -4 412 -4l-12 389zM909 -61h-243v686l-637 26l6 156l608 641l297 -18l-12 -631l170 2q-4 -111 -6 -187l-170 15z" />
<glyph unicode="5" horiz-adv-x="1163" d="M1092 1448l-64 -256q-139 27 -381 50.5t-330 19.5l-6 -373q188 17 337 -4.5t237 -69.5q37 -21 68.5 -47.5t63 -68t48.5 -93t25 -121.5t-7 -153q-4 -23 -6.5 -36.5t-11.5 -43t-19.5 -49t-31 -48.5t-45.5 -48t-63.5 -41t-84 -35t-108 -22t-135.5 -9q-103 0 -187.5 20 t-138 53t-93 72t-59.5 78.5t-31.5 72t-15.5 54.5l-4 21q-2 2 80.5 -3.5t166.5 -11.5l83 -6q1 -83 87 -124q87 -41 192 -15q118 29 169 124q32 59 29 136q-2 54 -36.5 95.5t-90 64.5t-126.5 39.5t-146.5 21t-149.5 7.5t-135.5 0.5t-105.5 0.5q6 502 6 748q199 12 456 12 q152 0 293 -3t206 -6z" />
<glyph unicode="6" horiz-adv-x="1130" d="M594 176q52 4 95 35.5t70 79.5t42.5 102t17.5 109q2 43 -10.5 90t-38.5 91t-73.5 71.5t-108.5 23.5q-93 -6 -158.5 -106t-67.5 -219q-1 -107 72.5 -195t159.5 -82zM657 1616q62 -5 111 -27.5t79 -55t52.5 -72.5t30.5 -79.5t14.5 -76.5t4.5 -64t-1 -41l-282 6q4 16 2 49 t-6 66.5t-23.5 59.5t-50.5 28q-42 3 -78 -12.5t-60.5 -41.5t-44 -63.5t-30.5 -75.5t-17 -79q-1 -7 -9 -45t-11 -60.5t-9 -68.5t-10 -104t-6 -130q37 124 134.5 195.5t257.5 58.5q82 -6 154 -56t118 -124t70 -162.5t18 -171.5q-5 -67 -28.5 -135.5t-67 -132t-101.5 -112 t-139 -74.5t-172 -19q-306 21 -407 272q-18 44 -31.5 92.5t-21.5 101t-13.5 96.5t-6.5 100t-1.5 90.5t2.5 89t4.5 74t5.5 66.5l4 48q26 323 167.5 467t397.5 123z" />
<glyph unicode="7" horiz-adv-x="907" d="M838 0h-217q-7 1127 -11 1139q-2 5 -132.5 -2t-259.5 -17l-130 -10q-18 365 -22 365v0v0v0v0v0v0v0h1v0v0v0v0h1v0v0h1v0v0h1v0h1v0h1v0h1v0h1v0h1v0h1h1v0h1v0h1h1v0h1h1h1h1v0h1h1h1h1h1h1h1h1h1h1h1h1h1h1h1h1h1h1h1h1h1h1h1h1h1h1h1h1h1h1h1h1h1h1h1h1h1h1h1h1h1h1h1 h1h1h1h1h1h1h1h1h1h1h1h1h1h1h1h1h1h1h1h1h1h1h1h1h1h1h1h1h1h1h1h1h1h1h1h1h1h1h1h1h1h1h1h1h1h1h1h1h1h1h1h1h1h1h1h1h1h1h1h1h1h1h1h1h1h1h1h1h1h1h1h1h1h1h1h1h1h1h1h1h1h1h1h1h2h1h1h1h1h1h1h1h1h1h1h2h1h1h1h1h1h1h1h1h2h1h1h1h1h1h1h2h1h1h1h1h1h1h2h1h1h1h1h1h2h1h1 h1h1h2h1h1h1h1h2h1h1h1h1h2h1h1h1h2h1h1h1h2h1h1h1h2h1h1h1h2h1h1h1h2h1h1h1h2h1h1h1h2h1h1h2h1h1h2h1h1h1h2h1h1h2h1h1h2h1h1h2h1h1h2h1h1h2h1h1h2h1h1h2h1h1h2h1h2h1h1h2h1h1h2h1h2h1h1h2h1h1h2h1h2h1h1h2h1h2h1h2h1h1h2h1h2h1h1h2h1h2h1h2h1h2h1h1h2h1h2h1h2h1h2h1h2h1h1 h2h1h2h1h2h1h2h1h2h1h2h1h2h1h2h1h2h1h2h1h2h1h2h1h2h1h2h1h2h1h2h2h1h2h1h2h1h2h1h2h1h2h1h2h2h1h2h1h2h1h2h2h1h2h1h2h1h2h2h1h2h1h2h1h2h2h1h2h1h2h2h1h2h1h2h2h1h2h2h1h2h1h2h2h1h2h2h1h2h1h2h2h1h2h2h1h2h2h1h2h2h1h2h2h1h2h2h1h2h2h1h2h2h1h2h2h1h2h2h1h2h2h1h2h2h2h1 h2h2h1h2h2h2h1h2h2h1h2h2h2h1h2h2h2h1h2h2h1h2h2h2h1h2h2h2h1h2h2h2h1h2h2h2h2h1h2h2h2h1h2h2h2h2h1h2h2h2h2h1h2h2h2h2h1h2h2h2h2h1h2h2h2h2h2h1h2h2h2h2h2h1h2h2h2h2h2h1h2h2h2h2h2h2h1h2h2h2h2h2h2h2h1h2h2h2h2h2h2h2h2h1h2h2h2h2h2h2h8v-1475z" />
<glyph unicode="8" horiz-adv-x="1165" d="M918 406q-2 59 -35 100t-80.5 59.5t-102 26t-98 5t-70.5 -10.5q-109 -29 -190.5 -99t-81.5 -145q-1 -61 43.5 -106t102 -63.5t110.5 -16.5q23 0 63.5 4.5t102.5 21t113.5 42t88 73.5t34.5 109zM893 1018q2 82 -38.5 134t-94 64.5t-105.5 19.5t-74 -1h-3.5h-2.5 q-147 -6 -232 -68.5t-69 -179.5q11 -72 87 -120t161 -56q14 -4 46.5 -0.5t73 6.5t84.5 18.5t80.5 36t61 59t25.5 87.5zM1106 1120q2 -56 -8.5 -107t-29 -89t-43 -71t-52 -56.5t-55.5 -42t-53 -30t-44.5 -19t-30.5 -10.5l-12 -3q7 0 18.5 -1t46 -6.5t65.5 -15t69.5 -30 t67 -47.5t49.5 -71.5t24 -98.5q3 -77 -27.5 -144.5t-84.5 -115.5t-124 -83.5t-144.5 -54t-147.5 -20.5q-34 1 -76 -0.5t-90.5 6t-96.5 18t-93 36.5t-80.5 60.5t-58.5 90.5t-27 127q-4 75 19 139t64 106t87.5 69t93.5 38q-312 63 -269 398q13 100 115.5 195t210.5 128 q22 7 60 14t93.5 13.5t116 5t123.5 -8.5t120 -30.5t102 -58.5t72.5 -94.5t29.5 -135.5z" />
<glyph unicode="9" horiz-adv-x="1169" d="M829 1208q-79 61 -168 67.5t-160 -30.5t-120 -109.5t-55 -160.5q-5 -79 22.5 -160t90 -136.5t143.5 -43.5q96 12 149.5 92.5t83.5 251.5q10 58 13.5 115.5t1.5 85.5zM1092 -82l-295 41q1 16 11.5 185.5t16.5 246.5q2 22 31 293q-84 -264 -375 -264q-111 0 -204 68.5 t-145 180t-50 236.5q1 67 20.5 140t60 145t95.5 129t134.5 92.5t170.5 36.5q71 1 129 -6.5t89.5 -18t53 -21.5t28.5 -18l7 -8v90q193 9 213 9q3 0 4.5 -151.5t1 -362t-3.5 -357.5q-4 -322 7 -686z" />
<glyph unicode=":" horiz-adv-x="520" d="M72 834q0 46 32.5 78t70 43.5t73.5 11.5q74 0 120 -34.5t46 -96.5q0 -61 -42.5 -104t-138.5 -46q-82 -3 -121.5 41.5t-39.5 106.5zM414 133q0 -46 -32 -78t-69.5 -43.5t-72.5 -11.5q-75 0 -121.5 34.5t-46.5 96.5q0 61 42.5 104t139.5 46q81 3 120.5 -41.5t39.5 -106.5z " />
<glyph unicode=";" horiz-adv-x="520" d="M74 885q0 49 32 83t69.5 46t72.5 12q74 0 120 -36.5t46 -102.5q0 -64 -42.5 -109.5t-138.5 -48.5q-81 -3 -120 44t-39 112zM412 205q-14 28 -77 42t-133.5 1.5t-97.5 -53.5q-17 -30 -13 -85.5t34 -84.5q4 -1 10.5 -4.5t22.5 -19t28 -38.5q9 -18 -4 -38t-30 -31l-17 -11 q-3 -8 0 -28.5t12 -20.5q20 -2 76.5 14.5t104.5 42.5q46 25 72 71.5t29 95t-2 87.5t-15 60z" />
<glyph unicode="&#x3c;" horiz-adv-x="1206" d="M170 512v256q201 60 412 123q123 38 301.5 92.5t183.5 56.5v-254l-666 -194q178 -88 328 -162q28 -14 100 -50.5t103 -51.5q72 -35 88 -41q-3 -32 -4 -92l-4 -86q-182 70 -512 237q-130 64 -228 115l-43 21.5t-38.5 19t-20.5 10.5z" />
<glyph unicode="=" horiz-adv-x="1390" d="M1110 305l-829 14l18 203l823 19zM1110 694l-788 -8l-13 248l813 -25z" />
<glyph unicode="&#x3e;" horiz-adv-x="1206" d="M1067 637v-256q-201 -60 -412 -123q-123 -38 -301.5 -92.5t-183.5 -56.5v253l666 193q-178 90 -328 164q-185 92 -203 102q-13 5 -42 20t-46 21q3 33 4 90l4 88q182 -70 512 -237q49 -24 126.5 -63.5t101.5 -51.5q72 -40 102 -51z" />
<glyph unicode="?" horiz-adv-x="1275" d="M385 129q-14 -16 -17 -70.5t21 -93.5q28 -37 105 -40t114 26q22 17 31 55t2.5 75.5t-23.5 53.5q-42 39 -121 36.5t-112 -42.5zM410 1004l-291 -11q0 3 -1 23t-1 30.5t0.5 33.5t3.5 39.5t8.5 40.5t15 44t22.5 42.5t32 44t43 40.5q51 41 166 67.5t243 30t253 -28.5t188 -97 q42 -43 63.5 -121.5t18.5 -165.5t-42.5 -176t-111.5 -148q-61 -49 -135 -83t-127.5 -56t-77.5 -49q-27 -30 -39.5 -90.5t-10.5 -105.5l1 -46l-264 -12q0 7 -0.5 18t0.5 45.5t4.5 67t14 75.5t26.5 78t43 68.5t63 52.5q44 24 129 59t144.5 71.5t111.5 97.5q39 44 38 133.5 t-42 146.5q-47 64 -138.5 88t-182.5 0t-138 -88q-13 -16 -20.5 -56t-8.5 -71z" />
<glyph unicode="@" horiz-adv-x="1220" d="M659 418q5 42 -16 73t-57 35q-47 8 -73.5 -13.5t-29.5 -55.5q-3 -42 16 -73t58 -38q35 -6 66.5 14.5t35.5 57.5zM1161 616q1 -40 -4.5 -92.5t-23 -118t-44.5 -122.5t-73.5 -103t-104.5 -63q-151 -43 -212 102q-3 7 -13 33q-48 -42 -151 -37q-58 3 -99.5 45t-58.5 94.5 t-15 102.5q3 73 52.5 132t115.5 56q54 -1 95 -20.5t59 -49.5q8 94 6 121q-9 143 -88 148q-27 1 -44 -38.5t-17 -60.5l-168 19q1 9 4 23.5t17.5 52t35 65.5t61 50t91.5 20q135 -6 190 -74.5t59 -238.5q2 -121 -4 -316q-1 -50 20.5 -65.5t47.5 -4.5q40 18 75 107.5t34 222.5 q-1 49 -9 98t-34 111.5t-67 110t-115 81.5t-171 37q-76 2 -140.5 -23t-110 -71t-77.5 -108.5t-46.5 -135t-12.5 -151.5q2 -101 24 -176t69.5 -131.5t132 -78.5t202.5 -5q10 -6 24.5 -29.5t32.5 -58.5t19 -37q-26 -16 -83.5 -22.5t-104.5 -5.5t-72 5q-399 58 -399 578 q0 59 7 116.5t24.5 119.5t44 115.5t67.5 102t93.5 83t124.5 54.5t157 19q127 -1 227 -36.5t163 -91.5t105.5 -134t60.5 -157.5t21 -168.5z" />
<glyph unicode="A" horiz-adv-x="1241" d="M834 621l-160 616l-164 -621zM8 0l527 1448h272l430 -1516l-219 5l-178 522l-381 -13l-133 -446q-4 -4 -83.5 -4t-156.5 2z" />
<glyph unicode="B" horiz-adv-x="1044" d="M801 412q-2 50 -56.5 91t-131 64t-152.5 39t-129 22l-53 5q-2 -67 -3 -258.5t-2 -224.5q7 0 19 0.5t48.5 3t72 7t83.5 14t89 22t82.5 33t70.5 45.5t46.5 60.5t15.5 76.5zM760 1028q2 65 -46.5 116.5t-119 79t-142 45t-121.5 22.5l-50 5l2 -487q10 0 27 1t66 7t93.5 14.5 t99.5 25.5t94.5 39t67.5 56.5t29 75.5zM1006 1130q2 -72 -19 -135t-56.5 -105.5t-79 -77t-88 -55t-81 -34t-59.5 -18.5l-23 -5q8 0 22.5 -1t57 -6.5t81 -15t86 -30.5t82.5 -48.5t60.5 -72.5t28.5 -100q6 -96 -53 -177.5t-156.5 -132.5t-212 -80.5t-227.5 -31.5l-308 -4 l-18 1475h33t86 -2.5t128.5 -7.5t149.5 -16.5t160 -28t150 -43t130 -60t89 -82t37 -105.5z" />
<glyph unicode="C" horiz-adv-x="1058" d="M764 1475h233l7 -601h-316q-2 1 0 15.5t-2 39.5t-8 54.5t-17.5 60.5t-31 56t-48.5 42t-69 19q-53 3 -105 -70t-85.5 -186t-36.5 -225q-2 -113 29 -225.5t88.5 -188.5t123.5 -80q59 -2 100.5 49.5t56.5 122t9 140.5q267 4 324 4q0 -66 -14.5 -132t-50.5 -134t-88.5 -119.5 t-135 -84t-184.5 -32.5q-129 0 -226.5 61t-154.5 167.5t-85 238.5t-28 287q0 126 28 245.5t78.5 217t129 160.5t172.5 71q72 6 128 -8.5t85.5 -40t48 -52t25.5 -45.5l8 -20q3 0 6 48t4 96z" />
<glyph unicode="D" horiz-adv-x="1161" d="M850 647q1 87 -14.5 160t-40.5 124.5t-64 93t-77 67.5t-87.5 44.5t-86.5 27t-83 13.5t-69 5h-52l9 -967q81 2 154 14t149.5 42t132 76.5t91.5 123.5t38 176zM1120 686q-1 -99 -20.5 -183.5t-53 -148.5t-84.5 -116t-108 -88.5t-130.5 -63.5t-145 -43.5t-158 -26 t-163.5 -13t-167 -3.5q-5 0 -12.5 362.5t-11.5 725.5l-5 362q282 -1 424 -23q374 -55 524 -288q112 -174 111 -453z" />
<glyph unicode="E" horiz-adv-x="935" d="M872 -23h-784q-2 90 -4 221.5t-8 486.5t-6.5 486.5t0.5 221.5q4 0 405.5 4t405.5 4q3 -8 3 -53t-2 -98l-3 -52q-3 0 -262 11t-271 10l19 -375h65q66 1 135 1h133.5t75.5 -1l12 -193l-383 -20q-10 -492 0 -492l469 29v-191z" />
<glyph unicode="F" horiz-adv-x="1030" d="M358 -61h-264q-11 310 -21 774.5t-10 716.5l910 20v-313l-633 53l-14 -348l501 26l4 -176l-473 -6v-747z" />
<glyph unicode="G" horiz-adv-x="1185" d="M633 -25q-96 0 -179 23.5t-144 64t-110.5 95.5t-82 116t-54.5 129t-32 130.5t-11 123.5q-1 57 7.5 125t28 143t47.5 147t70.5 138t93 115.5t118 79t143.5 29.5q67 0 118 -10.5t87.5 -33t53.5 -37.5t44 -44l11 182l237 2q11 -180 13 -270q2 -31 2.5 -113.5t-0.5 -99.5 q-11 -2 -136 4t-137 10q-33 106 -101.5 161t-193.5 38q-65 -8 -122 -68t-92.5 -144.5t-54.5 -178.5t-17 -175q2 -78 22.5 -159t58 -156.5t102.5 -121.5t146 -42q58 2 104 21.5t71.5 44.5t44 57t24 51.5t8.5 36.5l-155 -4l-7 186l486 23q-13 -139 -36 -222 q-83 -301 -319 -374q-72 -23 -157 -23z" />
<glyph unicode="H" horiz-adv-x="1134" d="M100 1495h258q13 -633 17 -639q2 -3 80.5 -3t156.5 1l78 2l23 418l309 10l-6 -1284h-309q-3 0 -4.5 172t-2.5 344v172l-383 -6l19 -682h-242z" />
<glyph unicode="I" horiz-adv-x="1040" d="M80 1395l864 26v-239l-274 10q-1 -63 -1.5 -155.5t-2 -341t-1.5 -341t1 -155.5q325 -13 327 -13q0 -13 -0.5 -32t-2 -70t-1.5 -70v-32q3 0 -92 3.5t-232 8t-274.5 9t-234.5 7.5l-97 4v150l310 22v1063l-281 21z" />
<glyph unicode="J" horiz-adv-x="1320" d="M170 1427l1096 5l-11 -213q-162 -18 -346 -23q1 -55 11 -195t10 -235q0 -265 -17 -380q-36 -254 -182 -338q-83 -48 -205 -48q-91 0 -165 25t-121 62t-82 91.5t-52.5 103t-28 106.5t-12.5 92t-2 69q369 4 375 4q1 0 -4 -32t-7.5 -78t2 -92.5t29.5 -78.5t70 -32 q41 0 73.5 17.5t52 44t33 68t19 80t8 89t1.5 86t-2.5 81t-1.5 64.5q0 44 -7 161.5t-14 214.5t-8 99q0 1 -104 -7.5t-228.5 -17t-163.5 -8.5z" />
<glyph unicode="K" horiz-adv-x="1167" d="M51 1475h271q10 -689 10 -738q79 90 271.5 323t264.5 318l242 -43q-83 -107 -295 -365t-280 -333q4 -14 12 -38t32 -85.5t48 -107.5t58.5 -83.5t66.5 -35.5q66 3 70 144l-1 52l314 -14q0 -35 -3 -71.5t-12.5 -84t-24.5 -89.5t-42 -84t-61.5 -72t-85.5 -49t-113 -19 q-43 0 -88 28t-82.5 72t-73.5 98t-63.5 108t-48 98t-31.5 72l-11 28q-28 -25 -104 -111v-405q-18 -3 -76 -3t-107 1l-49 2z" />
<glyph unicode="L" horiz-adv-x="892" d="M66 1475h217q6 -1127 10 -1139q2 -5 132 2t259 17l129 10q19 -365 25 -365v0v0v0v0v0v0v0h-1v0v0v0v0h-1v0v0h-1v0v0h-1v0h-1v0h-1v0h-1v0h-1v0h-1v0h-1h-1v0h-1v0h-1h-1v0h-1h-1h-1h-1v0h-1h-1h-1h-1h-1h-1h-1h-1h-1h-1h-1h-1h-1h-1h-1h-1h-1h-1h-1h-1h-1h-1h-1h-1h-1 h-1h-1h-1h-1h-1h-1h-1h-1h-1h-1h-1h-1h-1h-1h-1h-1h-1h-1h-1h-1h-1h-1h-1h-1h-1h-1h-1h-1h-1h-1h-1h-1h-1h-1h-1h-1h-1h-1h-1h-1h-1h-1h-1h-1h-1h-1h-1h-1h-1h-1h-1h-1h-1h-1h-1h-1h-1h-1h-1h-1h-1h-1h-1h-1h-1h-1h-1h-1h-1h-1h-1h-1h-1h-1h-1h-1h-1h-1h-1h-1h-1h-1h-1h-1 h-1h-1h-1h-1h-1h-1h-1h-1h-1h-1h-1h-1h-1h-1h-1h-1h-1h-1h-2h-1h-1h-1h-1h-1h-1h-1h-1h-1h-1h-2h-1h-1h-1h-1h-1h-1h-1h-1h-2h-1h-1h-1h-1h-1h-1h-2h-1h-1h-1h-1h-1h-1h-2h-1h-1h-1h-1h-1h-2h-1h-1h-1h-1h-2h-1h-1h-1h-1h-2h-1h-1h-1h-1h-2h-1h-1h-1h-2h-1h-1h-1h-2h-1h-1 h-1h-2h-1h-1h-1h-2h-1h-1h-1h-2h-1h-1h-1h-2h-1h-1h-1h-2h-1h-1h-2h-1h-1h-2h-1h-1h-1h-2h-1h-1h-2h-1h-1h-2h-1h-1h-2h-1h-1h-2h-1h-1h-2h-1h-1h-2h-1h-1h-2h-1h-1h-2h-1h-2h-1h-1h-2h-1h-1h-2h-1h-2h-1h-1h-2h-1h-1h-2h-1h-2h-1h-1h-2h-1h-2h-1h-2h-1h-1h-2h-1h-2h-1h-1 h-2h-1h-2h-1h-2h-1h-2h-1h-1h-2h-1h-2h-1h-2h-1h-2h-1h-2h-1h-1h-2h-1h-2h-1h-2h-1h-2h-1h-2h-1h-2h-1h-2h-1h-2h-1h-2h-1h-2h-1h-2h-1h-2h-1h-2h-1h-2h-1h-2h-1h-2h-2h-1h-2h-1h-2h-1h-2h-1h-2h-1h-2h-1h-2h-2h-1h-2h-1h-2h-1h-2h-2h-1h-2h-1h-2h-1h-2h-2h-1h-2h-1h-2h-1 h-2h-2h-1h-2h-1h-2h-2h-1h-2h-1h-2h-2h-1h-2h-2h-1h-2h-1h-2h-2h-1h-2h-2h-1h-2h-1h-2h-2h-1h-2h-2h-1h-2h-2h-1h-2h-2h-1h-2h-2h-1h-2h-2h-1h-2h-2h-1h-2h-2h-1h-2h-2h-1h-2h-2h-1h-2h-2h-1h-2h-2h-2h-1h-2h-2h-1h-2h-2h-2h-1h-2h-2h-1h-2h-2h-2h-1h-2h-2h-2h-1h-2h-2h-1 h-2h-2h-2h-1h-2h-2h-2h-1h-2h-2h-2h-1h-2h-2h-2h-2h-1h-2h-2h-2h-1h-2h-2h-2h-2h-1h-2h-2h-2h-2h-1h-2h-2h-2h-2h-1h-2h-2h-2h-2h-1h-2h-2h-2h-2h-2h-1h-2h-2h-2h-2h-2h-1h-2h-2h-2h-2h-2h-1h-2h-2h-2h-2h-2h-2h-1h-2h-2h-2h-2h-2h-2h-2h-1h-2h-2h-2h-2h-2h-2h-2h-2h-1h-2 h-2h-2h-2h-2h-2h-8v1475z" />
<glyph unicode="M" horiz-adv-x="1296" d="M35 0q33 1391 39 1391q3 0 154.5 -6.5t154.5 -6.5q2 0 28.5 -64t63.5 -155.5l74 -183t62.5 -154.5t25.5 -61l240 688q309 0 309 -6l74 -1397h-293l-4 862l-211 -485l-207 -6l-287 700q4 -71 10 -186.5t19 -360t20.5 -407t5.5 -162.5h-278z" />
<glyph unicode="N" horiz-adv-x="1093" d="M66 -37l22 1479q-4 7 246 0q-6 0 105 -219.5t225.5 -438t117.5 -215.5q1 2 10.5 221t20.5 436.5t16 217.5q32 0 112 -4t83 -10q3 -53 2 -346.5t-4 -633.5l-2 -341l-227 -9q-2 2 -121.5 223t-237 439t-117.5 215l3 -107q2 -108 5 -252.5t5.5 -299.5t4 -250t-0.5 -105h-268 z" />
<glyph unicode="O" horiz-adv-x="1112" d="M532 1397q94 0 174.5 -29.5t137 -78.5t101.5 -114t71.5 -134.5t43.5 -142.5t22.5 -134.5t2.5 -114.5q-7 -126 -46.5 -245.5t-106.5 -218t-171 -158.5t-229 -60q-101 0 -184.5 43t-139.5 113.5t-95.5 164t-57.5 191t-20 197.5q-1 50 6.5 110t25 130t44 137.5t67.5 130 t90.5 109.5t118 75.5t145.5 28.5zM526 1141q-80 3 -143 -64.5t-96 -175t-35 -231.5q-1 -89 27 -170t72 -134t95.5 -83.5t96.5 -28.5q92 5 168.5 67t118.5 155t42 194q0 80 -19 158t-57.5 149t-108.5 116t-161 48z" />
<glyph unicode="P" horiz-adv-x="1167" d="M358 1290l13 -723q157 30 246 73q223 106 227 323q1 59 -25.5 109t-69.5 82.5t-94.5 58.5t-104 39.5t-95.5 23t-70 12.5zM377 -63l-305 4l8 1566q169 -6 315 -26.5t280 -63t228.5 -104t149.5 -154.5t53 -209q-1 -80 -25.5 -149t-64 -120t-98 -94t-120 -72t-138 -53 t-144 -38.5t-145.5 -26.5z" />
<glyph unicode="Q" horiz-adv-x="1126" d="M586 401l143 103l55 -101q97 136 97 347q0 79 -22.5 156.5t-64 142t-107 104.5t-144.5 41q-116 0 -213 -134.5t-97 -309.5q0 -132 29 -239.5t97 -178.5t167 -70q60 3 109 21q-6 19 -18.5 48.5t-21.5 49.5zM717 33q-87 -33 -185 -33q-92 0 -169.5 38.5t-129.5 103.5 t-91 143t-60 164t-30.5 159t-8.5 135q2 104 18.5 203.5t54 197t92 170t138 117t186.5 44.5t193 -37.5t156 -103.5t114 -155t73.5 -192.5t29.5 -214.5q3 -87 -10.5 -185.5t-59 -216.5t-117.5 -200l95 -170q3 0 -61.5 -9t-131.5 -18.5t-70 -9.5q-2 0 -26 70z" />
<glyph unicode="R" horiz-adv-x="1036" d="M731 975q-1 63 -26.5 114.5t-67.5 84.5t-92 57.5t-104.5 36.5t-100.5 17t-84 3q35 -635 47 -639q5 -3 49 4.5t108 30t125.5 57t104.5 96.5t41 138zM997 1010q1 -68 -15.5 -127.5t-43 -103t-66.5 -81t-79 -62t-89 -45t-88 -31.5t-84.5 -20t-70 -12t-51.5 -6q-5 0 41 -67 t105.5 -135.5t86.5 -71.5t49.5 40t31.5 87.5t5 44.5q-2 0 58 -1t123.5 -2t68.5 -1q0 -1 1.5 -15.5t-3 -41t-9 -60t-16.5 -71t-25.5 -74.5t-35.5 -70.5t-47 -59.5t-60 -41.5t-75 -15.5q-70 0 -137.5 44.5t-114 106t-83 126.5t-54 107t-17.5 46q0 -414 -6 -420 q-3 -3 -53.5 3.5t-99.5 13.5l-50 8q-35 1473 -41 1473h21q28 -2 74.5 0.5t107.5 -3t129.5 -10.5t140 -22t139 -38t128 -58t105.5 -82t71.5 -110t27.5 -142z" />
<glyph unicode="S" horiz-adv-x="1150" d="M844 1475h254q2 0 3.5 -124.5t2.5 -248.5v-125l-270 6q-13 57 -52 109t-90 87t-109.5 51t-110.5 9.5t-93 -45.5t-57 -107q-9 -41 5 -78.5t40.5 -64t70 -53.5t79 -43t81.5 -36t66 -30q35 -18 83.5 -40.5t79.5 -37t69 -35t61.5 -38.5t48.5 -44.5t38 -56t20.5 -69.5t6.5 -88 q-1 -25 -5.5 -51t-18 -64.5t-35 -72t-60.5 -68.5t-90 -60t-127.5 -41t-169.5 -16q-81 0 -151 12.5t-119.5 34t-90 49t-66.5 58t-45 61t-29 58.5t-16 49.5t-8 35t-3 13.5q-2 2 80.5 2t166.5 -1l83 -1q1 -88 86 -143q81 -52 176 -38q106 16 149 109q23 51 23 117 q0 44 -19.5 81.5t-46.5 62.5t-69 48t-74 35t-75 27.5t-58 21.5q-17 7 -58.5 22.5t-67.5 26t-66.5 30t-67.5 37t-58 45t-49 57t-30.5 69t-12.5 84.5q0 182 134.5 297t332.5 115q65 0 123 -15t94 -35.5t62.5 -43.5t37.5 -38.5t11 -19.5v0v-1v0v0v1v0v0v1v0v1v1v0v1v1v1v1v1v1 v1v1v1v1v1v1v1v1v1v1v1v1v1v1v1v2v1v1v1v1v1v1v1v1v1v2v1v1v1v1v2v1v1v1v2v1v1v2v1v1v2v1v1v2v1v1v2v1v2v1v2v1v2v1v1v2v2v1v2v1v2v1v2v1v2v1v2v2v1v2v2v1v2v2v1v2v2v1v2v2v1v2v2v2v1v2v2v2v1v2v2v2v2v1v2v10z" />
<glyph unicode="T" horiz-adv-x="1107" d="M25 1413l1052 27v-283l-409 21q0 -1198 12 -1198v0v0v0v0v0v0h-1v0v0h-1v0h-1v0h-1v0h-1v0h-1h-1h-1h-1h-1h-1h-1h-1h-1h-1h-1h-1h-1h-1h-1h-1h-1h-1h-1h-1h-1h-1h-1h-1h-1h-1h-1h-1h-1h-1h-1h-1h-1h-1h-1h-1h-1h-1h-1h-1h-1h-1h-1h-1h-2h-1h-1h-1h-1h-1h-1h-1h-1h-1h-1 h-1h-2h-1h-1h-1h-1h-1h-1h-2h-1h-1h-1h-1h-2h-1h-1h-1h-1h-2h-1h-1h-1h-2h-1h-1h-2h-1h-1h-1h-2h-1h-1h-2h-1h-1h-2h-1h-1h-2h-1h-1h-2h-1h-2h-1h-1h-2h-1h-2h-1h-1h-2h-1h-2h-1h-2h-1h-2h-1h-2h-1h-1h-2h-1h-2h-1h-2h-1h-2h-1h-2h-2h-1h-2h-1h-2h-1h-2h-1h-2h-2h-1h-2h-1 h-2h-2h-1h-2h-1h-2h-2h-1h-2h-1h-2h-2h-1h-2h-2h-1h-2h-2h-1h-2h-2h-1h-2h-2h-2h-1h-2h-2h-1h-2h-2h-2h-1h-2h-2h-2h-1h-2h-2h-2h-1h-2h-2h-2h-2h-1h-2h-2h-2h-2h-2h-1h-2h-2h-2h-2h-2h-1h-2h-2h-2h-2h-9v1253q0 4 -159.5 8t-194.5 4q-4 0 -6 42t-2 84v42z" />
<glyph unicode="U" horiz-adv-x="1118" d="M80 1475h229l1 -208q13 -603 119 -836q57 -125 138 -124q60 1 105 63.5t68 161.5t37.5 218.5t16.5 239t1.5 218.5t-3.5 160l-4 62h252q14 -1430 -485 -1430q-84 0 -152 39t-117 107.5t-86 173.5t-60 225t-36.5 275t-18.5 311t-5 344z" />
<glyph unicode="V" horiz-adv-x="1226" d="M0 1475h342l256 -1127q27 71 72 188t139 364t155.5 411t59.5 164v0v0v0v0h1v0v0h1v0h1h1v0h1h1h1h1h1h1h1h1h1h1h1h1h1h1h1h1h1h1h1h1h1h1h1h1h1h1h1h1h1h1h1h1h1h1h1h1h1h1h1h2h1h1h1h1h1h1h2h1h1h1h1h2h1h1h1h2h1h1h1h2h1h1h2h1h1h2h1h1h2h1h1h2h1h2h1h1h2h1h2h1h2h1h2 h1h2h1h2h1h2h1h2h1h2h1h2h1h2h1h2h2h1h2h1h2h2h1h2h2h1h2h2h1h2h2h1h2h2h1h2h2h1h2h2h2h1h2h2h2h1h2h2h2h2h1h2h2h2h2h1h2h2h2h2h2h8l-533 -1475h-321q-3 0 -98 369t-189 737z" />
<glyph unicode="W" horiz-adv-x="1511" d="M0 1475h297q84 -996 84 -1002q0 -3 41.5 148t83 304t41.5 156q0 5 117 3l118 -3l310 -630q108 876 108 882q0 3 68.5 -1t140.5 -10l72 -5q3 0 -48.5 -315.5t-104.5 -631.5l-52 -315l-229 -18l-373 758l-150 -795h-313z" />
<glyph unicode="X" horiz-adv-x="1110" d="M43 1475h236l223 -480l200 480h345l-385 -760l407 -715h-172l-350 553l-211 -553h-293l315 891z" />
<glyph unicode="Y" horiz-adv-x="1015" d="M0 1475h229q240 -459 246 -465q3 -3 53 113.5t99 234.5l49 117h354l-457 -713l-18 -762h-223q-3 0 0 192t8 384l4 192z" />
<glyph unicode="Z" horiz-adv-x="1064" d="M164 1171q-6 172 0 172l852 13l-2 -244q-41 -50 -109 -131t-211 -253.5t-237 -287t-92 -114.5q26 0 313 -9.5t287 -13.5q0 -1 1.5 -34t3.5 -75.5t4 -88.5t2.5 -74t-1.5 -31h-920l11 324q44 53 115.5 140t222.5 270.5t250.5 306t97.5 122.5z" />
<glyph unicode="[" horiz-adv-x="561" d="M106 1638h392q-1 -17 -14.5 -86t-14.5 -104q0 -5 -61.5 0t-61.5 0q-12 -464 -6 -793q1 -56 6 -290t8 -355q1 -10 82.5 -5.5t81.5 -4.5q6 -164 8 -193h-413z" />
<glyph unicode="\" horiz-adv-x="976" d="M59 1356l228 98q4 -10 30 -82t37.5 -102.5t38.5 -102t46.5 -119.5t46.5 -113.5t54.5 -125t55.5 -115.5q151 -304 315 -577l-272 -117z" />
<glyph unicode="]" horiz-adv-x="561" d="M526 -172l-391 -21q0 19 14 98.5t15 112.5q0 5 60.5 0t60.5 0q13 510 8 793q-10 417 -17 655q0 10 -80.5 0.5t-80.5 -0.5q-1 15 -5 93.5t-4 99.5h414z" />
<glyph unicode="^" horiz-adv-x="1206" d="M541 1534h299q69 -102 145 -211q43 -60 105 -159t69 -109h-297l-205 319q-104 -69 -192 -145q-86 -78 -119 -107q-32 -28 -47 -43q-31 0 -129 2h-102q167 188 278 285q27 24 73 63.5t62 53.5q12 10 26 22t22.5 19t11.5 10z" />
<glyph unicode="_" horiz-adv-x="1474" d="M1477 -74v-248q-157 6 -822 15q-116 1 -336 -9t-315 -10l-2 254z" />
<glyph unicode="`" horiz-adv-x="940" d="M193 1653q52 -25 117.5 -52.5t117 -48t130.5 -50t115.5 -42.5t117 -41.5t92.5 -32.5l-64 -186q-306 132 -723 244z" />
<glyph unicode="a" d="M379 387q-64 8 -101.5 -32t-37.5 -87q-3 -58 24.5 -99t83.5 -50q50 -6 93 24t46 80q5 60 -26.5 109t-81.5 55zM754 -113q0 -4 -76 0t-111 7l-4 135q-83 -72 -239 -72q-69 0 -125.5 27.5t-90 72.5t-51.5 98.5t-18 108.5q0 111 71 204.5t173 100.5t173.5 -29t98.5 -94 q6 166 -6 289q-3 42 -10.5 74t-22 65t-42 51t-66.5 19q-26 0 -44.5 -20.5t-26.5 -50t-11.5 -51.5t-3.5 -36l-252 15q0 13 0.5 28t6 50.5t15.5 66t30.5 67t48 62t72.5 43t101 17.5q209 0 317.5 -134.5t108.5 -382.5q0 -214 -6 -441.5t-10 -289.5z" />
<glyph unicode="b" horiz-adv-x="1210" d="M104 1493l295 -2l-34 -447q11 2 30 4.5t76 7.5t112.5 5.5t130.5 -6.5t138 -23t126.5 -49t106 -79t65.5 -119t15 -164q-9 -108 -66.5 -198t-137 -148t-187 -103.5t-201 -69t-196.5 -39.5l10 -102q-57 0 -164 6t-127 6zM365 242q11 2 29.5 5.5t72.5 19.5t102.5 36.5 t108.5 57.5t102.5 81t71.5 109.5t29 140.5q0 59 -30 101t-78 62.5t-106.5 31.5t-116.5 10t-106 -4.5t-78 -8.5l-30 -5z" />
<glyph unicode="c" horiz-adv-x="974" d="M709 1040q2 13 2.5 49t0.5 65l-1 30h170l6 -467h-246q0 12 -1 29t-10 55.5t-24.5 68.5t-48.5 55t-78 27q-37 2 -74 -18t-72 -63t-55.5 -126.5t-17.5 -195.5q4 -156 73.5 -265t158.5 -112q49 -2 81 40t39.5 106.5t-0.5 140.5q218 6 281 6q0 -60 -8 -115.5t-33 -121 t-65.5 -113t-112.5 -79.5t-166 -32q-120 0 -210.5 49t-143 134.5t-78 190.5t-25.5 228q0 100 25.5 195.5t72 174t119 129.5t160.5 58q152 10 231 -61q22 -17 46 -51q4 -8 4 -11z" />
<glyph unicode="d" horiz-adv-x="1116" d="M784 158l-16 704q-24 1 -54.5 -1t-72 -10.5t-81 -22.5t-79.5 -39.5t-70.5 -59t-50.5 -83.5t-22 -111q-2 -69 10 -125.5t35 -94.5t54.5 -68t67.5 -45.5t74.5 -27.5t75.5 -13.5t70 -4t59 1.5zM741 1456h275l-10 -1517q-12 0 -61 -1.5t-100 -1.5t-95 3v81 q-79 -19 -159.5 -19.5t-156.5 16t-143 54t-118.5 91.5t-83 132t-36.5 171q-5 92 14.5 169.5t57 132t88 98t107.5 70.5t114 46.5t109.5 28t93 13t64.5 5.5h24z" />
<glyph unicode="e" horiz-adv-x="950" d="M311 741l443 7q-1 11 -3.5 29.5t-13.5 66t-25 83.5t-40 65t-58 28q-58 -1 -116 -34t-97.5 -78t-64.5 -91t-25 -76zM881 616l-586 -6q-6 -35 1 -105.5t25 -147t58 -131.5t92 -52q71 3 121.5 48.5t64.5 133.5q8 1 51.5 0t97 -4.5t58.5 -7.5q-10 -88 -72.5 -167.5t-148 -125 t-166.5 -45.5q-45 0 -96.5 13.5t-114 53.5t-111.5 100t-80 164t-28 236q3 124 27 222t66.5 163.5t95.5 110.5t119.5 67.5t134 29.5t143.5 1q59 -5 105 -38t71.5 -81.5t43 -106.5t23 -115.5t7 -104.5t-0.5 -76z" />
<glyph unicode="f" horiz-adv-x="987" d="M248 0q-33 439 -53 702q-1 13 -91.5 7.5t-91.5 3.5q2 154 0 174q168 -6 168 2q-5 96 -3 180.5t25.5 154t65.5 119.5t116 77.5t177 27.5q36 0 65.5 -2.5t71.5 -11.5t76 -25.5t70.5 -47t62.5 -72t45 -105t25 -142.5l-330 11q-1 78 -12.5 128.5t-29 70.5t-39.5 22t-42 -9 t-39 -30q-28 -28 -40.5 -87.5t-11 -125t2.5 -139.5l359 6l-11 -195l-329 13q0 -3 11 -181.5t21 -352t7 -173.5h-246z" />
<glyph unicode="g" horiz-adv-x="1157" d="M516 823q-68 -11 -115.5 -67.5t-66.5 -128t-17 -146.5q1 -33 11 -69.5t30.5 -73.5t48.5 -64.5t70.5 -41.5t91.5 -7q93 12 150 116.5t51 225.5q-8 107 -88 188t-166 68zM567 -614q-62 0 -113 18.5t-83.5 47.5t-57.5 68.5t-37.5 75.5t-20 75.5t-9.5 62.5t-2 41l282 16 q-1 -22 1.5 -49.5t10.5 -63.5t29.5 -59t53.5 -22q52 0 92 26t62.5 70.5t34.5 91t17 100.5q1 13 6 60.5t7 77.5t4 111.5t-4 160.5q-29 -128 -119.5 -206.5t-251.5 -78.5q-82 0 -157.5 45t-127.5 115t-83 156.5t-31 169.5q0 67 18 137t56.5 136.5t92.5 119t132.5 84.5 t169.5 33q52 0 97.5 -10t76.5 -26.5t56.5 -37t40.5 -40.5t25.5 -37t14.5 -27l4 -11l4 240q172 8 213 8q4 0 8 -354.5t4 -696.5q0 -321 -130 -474.5t-386 -153.5z" />
<glyph unicode="h" horiz-adv-x="1015" d="M84 1475h258q8 -674 12 -713q69 65 176.5 94.5t208.5 11t146 -85.5q29 -43 47 -96.5t22.5 -100.5t7 -96t-0.5 -81q-2 -85 -9 -159.5t-10 -148.5h-227q21 212 4 342.5t-68 175.5q-30 28 -81.5 31t-102.5 -14.5t-96.5 -52.5t-65.5 -78q-13 -27 -19 -76t-6 -102.5t2.5 -112 t6.5 -103.5t7 -77t3 -33h-219z" />
<glyph unicode="i" horiz-adv-x="505" d="M86 61q-1 -5 81 -6.5t164.5 1t82.5 5.5q0 22 -10.5 273t-21 492.5t-9.5 248.5q-6 10 -122.5 3t-144.5 -15q-6 -3 -13 -448t-7 -554zM68 1315q0 34 19.5 61t49.5 41.5t58.5 21.5t52.5 7q74 0 131 -35.5t57 -93.5q0 -31 -7 -53.5t-26.5 -46t-62.5 -36t-107 -12.5 q-53 0 -87.5 12t-50.5 34.5t-21.5 45.5t-5.5 54z" />
<glyph unicode="j" horiz-adv-x="520" d="M104 1022h273q1 -74 3 -187.5t5 -334t2 -285.5q-2 -215 -5 -269q-23 -349 -185 -470q-86 -65 -213 -70q-101 -4 -186.5 20.5t-142 65t-98.5 93t-62 100.5t-25 92q276 43 282 43q1 0 8.5 -25.5t22.5 -61.5t37 -72t59 -61.5t82 -25.5q37 0 65.5 16t46.5 38.5t31 61.5 t19.5 69.5t9.5 80.5t3.5 76t0.5 72v14q0 65 -8 320t-17 478zM82 1274q0 35 17 61.5t43.5 41t53 21.5t50.5 7q72 0 116 -34.5t44 -94.5q0 -61 -40.5 -103t-132.5 -45q-78 -3 -114.5 40.5t-36.5 105.5z" />
<glyph unicode="k" horiz-adv-x="1150" d="M68 1475h270q10 -689 10 -738q62 71 110 134.5t169 205.5q1 1 120 -20t121 -23q-23 -30 -99.5 -129t-126 -160t-91.5 -108q4 -14 12 -38t32 -85.5t48 -107.5t58.5 -83.5t66.5 -35.5q66 3 71 144l-1 52l313 -14q0 -35 -3 -71.5t-12.5 -84t-24.5 -89.5t-42 -84t-61.5 -72 t-85.5 -49t-113 -19q-59 0 -121 52t-109.5 126t-86.5 148t-60 126l-20 52q-29 -25 -105 -111v-405q-18 -3 -76 -3t-107 1l-48 2z" />
<glyph unicode="l" horiz-adv-x="456" d="M106 1475h248q-21 -392 2 -820q2 -45 8 -161.5t9.5 -179.5t11.5 -154t18 -160h-297v1475z" />
<glyph unicode="m" horiz-adv-x="1853" d="M1804 61h-227l3 180q0 518 -101 710q-50 95 -123 96q-55 1 -100.5 -22t-78 -59t-57 -93t-40 -112t-25.5 -129t-14.5 -131t-6 -131t-1 -115.5t1.5 -97.5q1 -37 1 -51h-229h-4q0 31 2 96t4.5 125t1.5 137.5t-6 142t-20.5 129t-39 109.5t-63 72.5t-92.5 26.5 q-64 -1 -114.5 -57.5t-81 -146.5t-52 -199t-30 -217.5t-13.5 -198t-5 -145.5l1 -56h-229q-1 37 -3.5 612t-9.5 715h217l-20 -424q30 106 69 186t74.5 124t76 71t70 35t60.5 8q131 0 201.5 -57.5t126.5 -189.5q64 159 188 253.5t275 94.5q74 0 132 -22t100 -77t72.5 -109 t49.5 -159t30.5 -183.5t17.5 -225.5t8 -241.5t3 -273.5z" />
<glyph unicode="n" horiz-adv-x="1189" d="M1141 106h-230q1 11 2 29.5t2 76t-0.5 113.5t-7.5 132t-16.5 141t-30.5 131t-47 112.5t-68 75t-92 27.5q-64 -1 -117 -57.5t-86.5 -146.5t-59.5 -199t-39.5 -217.5t-21.5 -198t-10 -145.5l-2 -56h-229q-1 41 -3 614t-9 713h217l-23 -469q30 106 72.5 190.5t85.5 135 t89 84.5t82 46.5t65 12.5q85 0 151.5 -25t116 -70t85 -120.5t59 -163t37.5 -212t20 -254t8 -300.5z" />
<glyph unicode="o" horiz-adv-x="972" d="M514 -23q-78 0 -144.5 23t-113 61.5t-83.5 90t-59.5 106t-36 111.5t-18 106t-2.5 90q7 133 59.5 239.5t155.5 173t242 66.5q83 0 150 -28t111.5 -74.5t74.5 -111.5t43.5 -135.5t15.5 -149.5q1 -47 -7 -103.5t-25 -122t-48.5 -125t-73 -109t-104.5 -79t-137 -29.5z M504 195q67 2 115 51.5t70 121t24 156.5q1 117 -69 198t-140 81q-104 0 -180.5 -79t-73.5 -200q4 -139 79 -235.5t175 -93.5z" />
<glyph unicode="p" horiz-adv-x="1134" d="M301 805l2 -725q10 1 26.5 4t64.5 15.5t91.5 28t96.5 43t91 60.5t64 81.5t25 103.5q-1 77 -27 140t-67 102.5t-90 69t-97.5 43.5t-89 22.5t-65.5 10.5zM287 -471h-219l10 1475q13 0 35 -1.5t90.5 -8t135 -16.5t157 -30.5t168 -46.5t156.5 -68t135 -92.5t91 -121 t35 -152.5q0 -69 -27 -130.5t-72 -107.5t-103.5 -85.5t-123.5 -67t-130 -50t-123.5 -35.5t-103.5 -22t-72 -13l-27 -3z" />
<glyph unicode="q" horiz-adv-x="1128" d="M526 825q-104 0 -182 -100t-78 -211q0 -106 87 -189t210 -67q100 14 169.5 98t60.5 195q-9 120 -87 197t-180 77zM803 156q-58 -71 -153.5 -112t-217.5 -34q-109 6 -202.5 81t-145 184.5t-51.5 220.5q0 67 18 137t56.5 136.5t92.5 119t132.5 84.5t169.5 33 q71 1 131 -14.5t96 -38t61.5 -45t35.5 -38.5l10 -16l18 104q18 1 60.5 -9t78.5 -20.5t37 -10.5q3 0 -3 -147t-18.5 -412.5t-15.5 -329.5q-6 -140 13 -213q8 -37 18 -60t28.5 -45t49 -34t76.5 -17l-9 -283q-26 -1 -56 2.5t-79.5 21.5t-90 49t-78.5 93t-54 146q-7 36 -11 72.5 t-6 61.5t-1.5 74.5t1.5 69.5t4.5 91t4.5 98z" />
<glyph unicode="r" horiz-adv-x="985" d="M336 -94l-262 -8q4 450 -2 600q-22 488 -33 649l211 18l2 -209q30 34 85.5 57t113.5 23q92 0 168.5 -24.5t127 -63t90 -91t61.5 -103.5t35.5 -105.5t18 -92.5t4.5 -69q-338 -4 -344 -4q-1 0 -1.5 36t-6 87t-17.5 102t-42.5 87t-75.5 36q-36 0 -64 -13.5t-46 -32 t-30.5 -53.5t-18.5 -60.5t-9.5 -71.5t-3.5 -68.5v-69.5v-7.5v-7v-7.5q0 -65 9.5 -198.5t19.5 -234.5z" />
<glyph unicode="s" horiz-adv-x="1048" d="M782 1239q191 2 191 0q2 -13 3.5 -117t1.5 -202l1 -97l-207 4q-6 112 -104 181q-85 60 -179 52q-97 -9 -132 -86q-12 -28 -15 -61q-3 -49 17.5 -88.5t69.5 -71t79.5 -46t94.5 -39.5q15 -6 22 -9q49 -20 77.5 -32t67.5 -30t60.5 -31.5t49 -32.5t42 -36.5t30.5 -41 t23 -48.5t11 -56.5t3 -67.5q-1 -28 -12.5 -60t-44.5 -72.5t-82 -72t-134.5 -53t-193.5 -21.5q-117 0 -204.5 29t-130 63t-70.5 86.5t-32.5 74.5t-7.5 52q-1 5 -1 6q0 3 86.5 -1t173.5 -10l86 -5q0 -88 72 -138.5t143.5 -11.5t71.5 168q0 23 -6 44.5t-14.5 39t-24.5 35 t-29 30t-36 27t-37.5 23t-40.5 20.5t-38.5 17.5t-39 16.5t-33.5 14q-21 9 -57 22.5t-61 23t-58.5 25t-56.5 30t-48 37t-40 46.5t-24.5 56.5t-9.5 70.5q0 150 122 247t294 97q39 0 75 -4.5t63 -12.5t51 -18t41 -21t31.5 -22.5t23.5 -21t15 -16.5t8.5 -10.5t2.5 -2.5v129z" />
<glyph unicode="t" horiz-adv-x="1216" d="M1083 1176q-1 -14 -3 -36.5t-6 -69.5t-6.5 -78.5t-2.5 -30.5q0 -1 -122.5 3.5t-244.5 9.5l-123 5q-32 -243 -34 -313q-2 -39 -3 -60.5t-1 -65t2 -70.5t7.5 -67t14 -65.5t23 -55t34 -47t46.5 -29.5t61 -13t59 36t37.5 90t20 106t10.5 90.5t4 37.5l313 -4q0 -32 -3.5 -71.5 t-16 -99t-31.5 -114.5t-54.5 -112.5t-82 -100t-116.5 -69.5t-154 -27q-85 0 -150.5 22.5t-106.5 62t-69.5 95t-40.5 121.5t-19 140.5t-5 152.5t2 158q1 43 7 126.5t7 104.5l-295 23q-10 213 -10 215l338 -2l37 290l288 -6l-51 -287z" />
<glyph unicode="u" horiz-adv-x="1216" d="M70 1030h229q-1 -17 -2.5 -46t-1 -112t6 -159t22.5 -168t44.5 -158.5t76.5 -111.5t114 -44q63 1 116 55.5t86.5 140.5t59.5 190.5t39 208.5t21 190t10 140l2 54h231q0 -52 0.5 -352t3 -563.5t7.5 -370.5h-217l22 469q-30 -106 -72.5 -190.5t-85.5 -135t-89 -84.5 t-81.5 -46.5t-64.5 -12.5q-85 0 -151.5 23t-116 64.5t-85 112.5t-59 155t-37.5 204.5t-20 248t-8 298.5z" />
<glyph unicode="v" horiz-adv-x="1206" d="M49 1151h322l227 -803q23 47 60.5 124t117 240t131 271.5t49.5 108.5q-3 0 59.5 -2t126.5 -4l64 -3q-58 -159 -181.5 -420.5t-221.5 -457t-101 -205.5h-301q-3 0 -91 288t-174 576z" />
<glyph unicode="w" horiz-adv-x="1511" d="M0 1229h297q84 -750 84 -756q0 -3 41.5 148t83 304t41.5 156q0 5 117 3l118 -3l310 -630q108 630 108 636q0 3 68.5 -1t140.5 -10l72 -5q3 0 -48.5 -254t-104.5 -508l-52 -254l-229 -18l-373 758l-150 -795h-313z" />
<glyph unicode="x" horiz-adv-x="1261" d="M25 1061l268 8l309 -389l297 405l268 15l-376 -615l436 -446l-195 -6l-368 332l-273 -355l-332 -10l433 553z" />
<glyph unicode="y" horiz-adv-x="1189" d="M-2 956l274 29q248 -563 254 -571q3 -3 64.5 159t121.5 325l60 163h381q-275 -466 -510 -903q-85 -158 -299 -650q-289 29 -295 29q-3 0 83.5 156.5t174.5 313.5l88 157z" />
<glyph unicode="z" horiz-adv-x="991" d="M66 770q14 137 20 137l815 58l23 -201q-34 -37 -90 -98.5t-174 -191t-195.5 -216t-75.5 -86.5l129 5q128 5 252.5 9t124.5 2l4 -50q4 -51 6 -90t0 -48h-846l9 121q37 40 97 105t187.5 203t210.5 229.5t80 91.5z" />
<glyph unicode="{" horiz-adv-x="561" d="M106 1638q21 30 76 37t106 -0.5t120 -21t90 -15.5q-1 -17 -14.5 -86t-14.5 -104q0 -5 -61.5 0t-61.5 0q-3 -81 -8 -430q0 -56 -26 -143t-52 -146l-27 -59q12 -22 30 -58t49 -126.5t34 -157.5q4 -67 5 -120t1.5 -112t1.5 -86q1 -10 82.5 -5.5t81.5 -4.5q6 -164 8 -193 q-42 -5 -108.5 -15.5t-105 -15.5t-83 -7t-72.5 7.5t-44 30.5q-15 20 -17 91t4 149t11 172t2 143q-6 88 -34.5 174t-53.5 128l-25 41q4 4 11.5 12t27 34.5t35 56.5t29 77.5t16.5 97.5q1 14 -8.5 114t-18 206t-7 207.5t20.5 127.5z" />
<glyph unicode="|" horiz-adv-x="456" d="M106 1638h248q-8 -156 -13 -465.5t-1 -517.5q12 -651 22 -848h-249z" />
<glyph unicode="}" horiz-adv-x="561" d="M420 -193q-27 -38 -97 -40.5t-174.5 18.5t-119.5 22q1 17 14 86.5t14 104.5q0 5 61.5 0t61.5 0q3 81 8 430q0 56 26 143t52 146l27 59q-12 22 -30 58t-49 126.5t-34 157.5q-4 67 -5 120t-1.5 112t-1.5 86q-1 10 -82.5 5.5t-81.5 4.5q-6 160 -8 192q42 5 108.5 15.5 t105 15.5t83.5 7t73 -7.5t44 -30.5q15 -20 17 -91t-4 -149t-11 -172t-2 -143q6 -88 34 -173.5t53 -127.5l25 -41q-4 -4 -11.5 -12t-26.5 -34.5t-34.5 -56.5t-29 -77.5t-16.5 -97.5q-1 -14 8.5 -114.5t18 -206.5t6.5 -207.5t-21 -127.5z" />
<glyph unicode="~" horiz-adv-x="1189" d="M70 635q-88 213 -90 215q0 3 50.5 23.5t144 41.5t179.5 19q65 -1 125.5 -19.5t100.5 -39.5t95 -38.5t109 -17.5q33 0 70.5 6.5t70 16t64 20.5t56.5 22.5t44 20.5t30 15l11 6l84 -217q-28 -9 -73 -22.5t-153.5 -35.5t-178.5 -20q-83 2 -239 50.5t-201 45.5 q-43 -2 -117.5 -25t-127.5 -45z" />
<glyph unicode="&#xa1;" horiz-adv-x="581" d="M354 1520q13 -14 24 -45.5t10.5 -72t-21.5 -65.5q-22 -28 -59 -44.5t-86.5 -10.5t-90.5 43q-24 27 -20.5 99t20.5 89q36 36 117 36.5t106 -29.5zM117 0q-4 45 5.5 610t16.5 568q28 8 134 15t110 -3q0 -3 21.5 -581t21.5 -609q0 -3 -77 -5.5t-154 -1.5t-78 7z" />
<glyph unicode="&#xa2;" horiz-adv-x="974" d="M379 12v152q-82 24 -144 78.5t-99 130.5t-55 165t-18 189q0 182 84 333t226 191v183h186q-9 -154 -10 -181q134 -22 188 -90q38 -47 62.5 -106.5t32.5 -103.5t16 -111l-207 -4q0 27 -4.5 62t-28.5 88.5t-65 76.5q0 -123 2 -205q4 -303 12 -541q47 32 71.5 106t14.5 155 q13 0 108 2t128 2q0 -53 -7 -103.5t-28 -108t-55 -101.5t-92.5 -77.5t-135.5 -41.5q3 -87 6 -140h-188zM377 352l-4 695q-60 -44 -97.5 -137.5t-33.5 -235.5q3 -101 40.5 -187t94.5 -135z" />
<glyph unicode="&#xa3;" horiz-adv-x="1245" d="M90 696q-88 193 -88 197l6 3q6 3 18 8t29 11.5t38.5 13.5t46 13.5t53 13t57.5 11t61.5 7t63.5 1.5q6 0 19.5 -1t19.5 -1v502h217l4 -574q91 -41 170 -41q33 0 70.5 6.5t70 16t64 20.5t56.5 22.5t44 20.5t30 15l11 6l84 -197q-28 -9 -73.5 -22.5t-154 -35.5t-178.5 -20 q-66 2 -194 37q4 -388 6 -393t132.5 2t260.5 17l129 10q17 -365 23 -365h-772v788q-12 3 -25 3q-43 -3 -117.5 -26.5t-127.5 -46.5z" />
<glyph unicode="&#xa5;" horiz-adv-x="1071" d="M346 545l-270 -2l-13 248l289 -9l2 109l-321 584h207q239 -336 245 -342q3 -3 53 82.5t99 172.5l49 87h356l-458 -590l-2 -111l295 -8l-13 -215l-286 -2l-13 -549h-223q-2 46 -1 179t5 366z" />
<glyph unicode="&#xa7;" horiz-adv-x="1048" d="M348 958q-49 19 -79 34.5t-65.5 42t-53 64t-17.5 85.5q0 123 99 201.5t239 78.5q40 0 76 -6t60.5 -16t45 -21.5t33.5 -23t21.5 -20.5t12 -13.5t3.5 -3.5v104q156 2 156 0l6 -338l-168 2q-6 96 -92 153q-75 49 -154 36q-79 -14 -99 -87q-4 -14 -5 -30q-1 -18 2 -34.5 t8 -29.5t17.5 -27t20.5 -23t27 -20.5t28.5 -17.5t32.5 -16.5t30.5 -13.5t33 -13t29.5 -12q46 -19 70.5 -29.5t59.5 -27.5t53 -29.5t41 -30.5t34 -36.5t22 -42t14.5 -51t2.5 -60.5q-1 -16 -6.5 -35.5t-20 -43.5t-36 -46t-57.5 -43.5t-81 -34.5q124 -51 175.5 -108t47.5 -166 q-1 -23 -10.5 -49t-36 -58.5t-66.5 -57.5t-109.5 -42.5t-157.5 -17.5q-68 0 -124.5 12t-92 28.5t-64 43t-42 46t-23.5 48t-12 38.5t-4 27q-1 5 -1 6q0 3 70 0t140 -7l71 -5q1 -71 59 -111.5t116 -8.5t58 137q0 135 -242 215q-18 6 -51.5 16.5t-49 15.5t-41 16t-41.5 23 t-36.5 31.5t-38.5 44.5q-30 40 -30 107q0 87 52.5 153t139.5 98zM469 586q31 -16 64.5 -17.5t63 11.5t48.5 48t19 87q0 55 -46 104q-36 17 -75 20.5t-72 -7t-55.5 -39t-26.5 -72.5q-5 -78 80 -135z" />
<glyph unicode="&#xa8;" horiz-adv-x="1177" d="M748 1241q26 -30 102 -27.5t111 37.5q19 19 20 68t-25 76q-41 38 -85.5 46.5t-78.5 -5.5t-57 -41q-21 -24 -20.5 -57.5t10.5 -57t23 -39.5zM395 1239q-27 -30 -95 -22t-105 45q-19 13 -19 75t29 82q118 82 205 -22q21 -25 21 -59.5t-11 -59t-25 -39.5z" />
<glyph unicode="&#xa9;" horiz-adv-x="1255" d="M569 1247q108 0 200.5 -26t157.5 -69.5t116 -102t82 -120t50.5 -127t25.5 -120.5t3 -102q-6 -90 -35 -177t-83 -165.5t-127 -138.5t-174 -95t-216 -35t-208.5 38.5t-154 101.5t-102.5 147t-60.5 170.5t-20.5 177.5q-1 45 6 98.5t25.5 116t46 122t72 116t99.5 98t131.5 67 t165.5 25.5zM573 1067q-86 -1 -156 -41.5t-113.5 -109.5t-68 -155.5t-26.5 -182.5q-2 -92 36.5 -176.5t97.5 -140t127 -87t126 -29.5q179 9 302.5 140t123.5 293q0 66 -14 131.5t-48 131t-84 115.5t-128.5 81t-174.5 30zM741 854q-4 4 -4 6q-12 19 -28 31q-56 44 -154 37 q-76 -5 -133 -55t-85 -123t-28 -154q0 -73 16.5 -135.5t51 -113.5t93.5 -80t138 -29q62 0 109 19t73.5 47t43 67t21.5 72t5 69l-184 -4q11 -70 -10 -121.5t-68 -50.5q-59 3 -104 67.5t-48 157.5q-2 67 11.5 117t36.5 76t47.5 38t48.5 11q36 -1 59.5 -21t32 -49.5t10.5 -44 t2 -26.5h162l-4 280h-111v-88z" />
<glyph unicode="&#xaa;" d="M381 918q-41 4 -63.5 -16.5t-22.5 -47.5q-2 -37 16 -62.5t54 -31.5q30 -5 57.5 14.5t28.5 50.5q3 36 -17 62t-53 31zM639 586q-64 0 -133 6l-2 82q-64 -41 -160 -41q-95 0 -149 67t-54 150q0 79 50.5 143t125.5 64q54 0 104.5 -23.5t78.5 -56.5q3 49 0 90q-4 66 -6 88 q-5 59 -31.5 104t-73.5 46q-11 0 -19 -6.5t-11.5 -15.5t-5.5 -23t-2 -23.5t0.5 -23t0.5 -15.5l-190 10q0 14 1 27.5t5.5 45.5t17.5 58t33 53t56 42.5t83 15.5q149 0 226.5 -93.5t77.5 -264.5q0 -185 -6 -345.5t-17 -160.5z" />
<glyph unicode="&#xab;" horiz-adv-x="1206" d="M674 762l-35 -297q94 -80 192 -168q97 -87 205 -180l76 272l-313 242q102 94 186 172q25 23 69.5 61.5t49.5 42.5q25 25 49 43q7 94 -8 207q-167 -115 -283 -219q-29 -28 -77 -72.5t-54 -50.5q-29 -25 -57 -53zM86 567v299q102 68 211 144q47 33 105 70.5t109.5 69 t55.5 34.5l43 -252l-385 -250q92 -104 168 -190q14 -15 105 -119q7 -8 22.5 -24.5t22.5 -24.5q-3 -113 -51 -191q-125 111 -236 238q-20 23 -60 70t-57 67q-41 44 -53 59z" />
<glyph unicode="&#xad;" horiz-adv-x="1390" d="M1110 530l-788 -8l-13 248l813 -25z" />
<glyph unicode="&#xae;" horiz-adv-x="1343" d="M1030 383h2q45 107 45 227q0 67 -11.5 125t-41.5 115t-77 97.5t-123 67t-175 29.5q-191 6 -297.5 -114.5t-101.5 -319.5q1 -79 15 -150t44 -135t73 -110t106 -72.5t139 -25.5q146 0 247 69q-47 7 -97.5 31.5t-89 54.5t-70.5 60t-49 49.5t-17 21.5q0 -213 -2 -215l-121 13 q-20 739 -22 739h14q25 3 73 0t105.5 -5.5t117.5 -18.5t109.5 -38.5t81 -64.5t31.5 -98q0 -51 -22 -92.5t-53 -66t-75 -44.5t-77 -28t-71.5 -16.5t-45.5 -10.5q-2 0 12 -17t39.5 -41.5t57 -49t71.5 -41.5t76 -17q43 0 77 9.5t53 23t31 27t16 23t3 9.5zM633 -27 q-557 0 -557 621q0 65 5.5 121.5t21 120t40.5 115t68 100t100 81.5t139 52.5t183 19.5t184.5 -18t143 -48.5t106.5 -76t76.5 -95t49.5 -111t29.5 -117.5t14.5 -122q7 -44 1 -110.5t-20 -131t-54 -135t-99 -124.5q-155 -142 -432 -142zM805 696q-1 47 -32.5 81.5t-78 50.5 t-90.5 23t-80 5q21 -324 27 -326q3 -1 29 3t64.5 15t74.5 28.5t61.5 49t24.5 70.5z" />
<glyph unicode="&#xaf;" horiz-adv-x="1390" d="M1110 1247l-788 -8l-13 248l813 -25z" />
<glyph unicode="&#xb0;" d="M401 1597q50 -2 88 -20.5t59.5 -44.5t34.5 -58.5t16.5 -60.5t0.5 -51q-10 -79 -68.5 -129.5t-154.5 -46.5q-92 3 -132.5 60t-37.5 140q1 29 11.5 63t32 69.5t61 58t89.5 20.5zM403 1468q-33 0 -51 -22.5t-20 -54.5q-3 -27 18 -47.5t43 -20.5q34 -2 59 15.5t25 47.5 q1 33 -21 57.5t-53 24.5z" />
<glyph unicode="&#xb2;" horiz-adv-x="653" d="M498 997q-40 -36 -117 -97.5t-88 -70.5q317 -16 317 -20t4 -82q0 -61 -8 -92h-522l6 190q49 42 141 112.5t129 102.5q121 108 111 201q-3 28 -40.5 41.5t-90.5 7.5q-55 -8 -92.5 -35.5t-40.5 -72.5l-125 -19q-1 25 -3 63.5t-4.5 110.5t-0.5 88q10 0 66.5 7t74.5 12v-86 q27 23 70 39t91.5 22t97 -2.5t87 -30.5t60.5 -66.5t18 -105.5q-8 -94 -141 -217z" />
<glyph unicode="&#xb3;" horiz-adv-x="669" d="M598 1290q23 -157 -178 -239q30 -6 57.5 -19.5t56 -38.5t45.5 -69t17 -101q0 -63 -27 -108.5t-74 -69.5t-102.5 -34t-120.5 -7q-36 3 -71 14t-71 34t-63.5 65t-37.5 98l174 23q-4 -53 31 -82t90 -31q53 -3 90 20.5t37 67.5q0 43 -23 75t-52.5 47.5t-67.5 24t-56 10 t-31 1.5l-31 131q101 5 174 40.5t72 90.5q0 28 -13.5 50t-38 32.5t-55 9t-69 -23t-76.5 -60.5q-91 0 -110 -10l-23 170l119 18l8 -35q75 49 168.5 56.5t166.5 -32.5t85 -118z" />
<glyph unicode="&#xb4;" d="M109 1157l-86 180l684 213l57 -161q-9 -3 -104.5 -33.5t-143.5 -47t-133 -45.5t-152 -55.5t-122 -50.5z" />
<glyph unicode="&#xb5;" horiz-adv-x="1378" d="M1303 188l-205 -100q-44 64 -64 186q-38 -89 -76 -140t-99.5 -80t-151.5 -29q-30 0 -60 8t-70.5 35.5t-76.5 71.5t-75 123.5t-69 185.5l-41 -676h-196q34 586 53 1579h229q2 -1 0 -34.5t1 -93.5t5.5 -135.5t13 -160.5t23.5 -169t36.5 -161t52 -136t71 -94t92.5 -36 q53 -1 92.5 26.5t63 72t39 109.5t20.5 129.5t6 141.5t-1.5 137t-4.5 125t-2 96h4v2h230q-1 -90 5.5 -208.5t22 -267t50 -287t82.5 -220.5z" />
<glyph unicode="&#xb6;" horiz-adv-x="1208" d="M1116 1411v-1450h-178q-4 1131 -6 1143q-3 5 -139 -6l4 -1151l-217 -13l8 730q-82 12 -147 27t-139 43.5t-123.5 66.5t-83 97.5t-34.5 133.5q-8 346 684 375q212 5 371 4z" />
<glyph unicode="&#xb7;" horiz-adv-x="571" d="M164 655q-13 14 -24 46t-10 72.5t22 64.5q23 27 65.5 44t96.5 11t94 -43q24 -27 21.5 -98t-21.5 -90q-34 -34 -126.5 -35.5t-117.5 28.5z" />
<glyph unicode="&#xb8;" horiz-adv-x="974" d="M289 -387v6q0 2 2 4q1 0 3 1t3 1q62 0 184 -12q0 -37 30.5 -56.5t70.5 -19.5q62 0 99.5 35.5t37.5 97.5q0 26 -12 45.5t-36.5 31.5t-46.5 19.5t-59.5 10.5t-57.5 4.5t-56.5 1.5h-42.5h-31q1 45 0.5 111t-0.5 112l151 6l-2 -114q25 2 74 2q67 0 112.5 -10t81 -36.5 t52 -75.5t16.5 -124q0 -129 -72.5 -184.5t-211.5 -55.5q-111 0 -190.5 48t-98.5 151z" />
<glyph unicode="&#xb9;" horiz-adv-x="1040" d="M274 655h-10q2 -3 2.5 -5t-0.5 -5q-14 -1 -40 -2t-40 -2l-92 -2l4 639l-145 -6l-6 82l329 57q7 -208 5 -285q-1 -42 -1.5 -138t-1.5 -179.5t-4 -153.5z" />
<glyph unicode="&#xba;" horiz-adv-x="927" d="M483 1251q-78 0 -135.5 -58.5t-54.5 -148.5q3 -105 59.5 -176.5t130.5 -68.5q74 1 114 72.5t42 172.5q3 86 -51 146.5t-105 60.5zM492 612q-73 0 -133.5 24.5t-100 65t-68 89.5t-43 103t-20.5 99.5t-4 83.5q10 161 106.5 269t262.5 108q84 0 147 -33t99 -90.5t53.5 -125 t19.5 -146.5q1 -36 -5.5 -79.5t-20 -95t-38.5 -99t-58.5 -87t-84.5 -63t-112 -23.5z" />
<glyph unicode="&#xbb;" horiz-adv-x="1206" d="M1176 412v301q-23 23 -52 59q-14 16 -53 62t-63 73q-97 110 -240 238q-6 -25 -19 -61t-20 -66t-8 -64q7 -7 22 -24t23 -25q15 -16 50 -57t54 -62l166 -190l-340 -205l49 -262q10 7 85.5 52t136.5 87zM625 813l-35 -297q-3 -3 -11 -10.5t-21.5 -19.5t-25.5 -23 q-60 -57 -133 -121q-99 -93 -268 -209q-16 58 -19 92t-1 103l354 319l-350 275l69 262l95 -76q95 -75 153 -127z" />
<glyph unicode="&#xbc;" horiz-adv-x="1435" d="M791 1456l225 -98q-10 -20 -55.5 -111.5t-72 -148t-68.5 -146t-77 -174.5t-65 -166q-122 -324 -205 -626l-272 118zM377 655q4 94 5 276.5t1 194.5q2 94 -4 285l-330 -57l6 -82l146 6l-4 -639l92 2q13 1 40 2t40 2q2 0 1.5 2.5t-2.5 4.5l-1 3h10zM1360 477v10 q-74 -2 -103 -2l9 373l-191 10l-370 -383l-3 -102l383 -14l-2 -406h164q4 261 6 406l103 -9q2 31 2 80q2 12 2 29v8zM1083 690l9 -203q-11 0 -90 1t-130 1z" />
<glyph unicode="&#xbd;" horiz-adv-x="1337" d="M1153 362q-40 -36 -115.5 -95.5t-89.5 -71.5q318 -16 318 -21q0 -4 4 -82q0 -59 -8 -92h-523l6 190q49 42 141.5 113t129.5 103q59 53 87.5 101t22.5 99q-3 28 -40.5 41.5t-90.5 7.5q-55 -8 -92.5 -35.5t-40.5 -72.5l-125 -19q-1 25 -3 63.5t-4.5 111t-0.5 88.5 q10 0 67 6.5t74 11.5v-86q33 28 87.5 45.5t114 17t111.5 -18t84 -66t27 -121.5q-8 -96 -141 -218zM281 1126q-1 -42 -1.5 -138t-1.5 -179.5t-4 -153.5h-10q2 -3 2.5 -5t-0.5 -5q-14 -1 -40 -2t-40 -2l-92 -2l4 639l-145 -6l-6 82l329 57q7 -208 5 -285zM688 1456l225 -98 q-10 -20 -55.5 -111.5t-72 -148t-68.5 -146t-77 -174.5t-65 -166q-118 -314 -204 -626l-273 118z" />
<glyph unicode="&#xbe;" horiz-adv-x="1654" d="M1337 487l-8 203l-211 -201q51 0 129.5 -1t89.5 -1zM1606 477v-8q0 -17 -2 -29q0 -49 -2 -80l-103 9l-6 -406h-164l2 406l-383 14l2 102l371 383l190 -10l-8 -373l103 2v-10zM598 1290q23 -157 -178 -239q30 -6 57.5 -19.5t56 -38.5t45.5 -69t17 -101q0 -63 -27 -108.5 t-74 -69.5t-102.5 -34t-120.5 -7q-36 3 -71 14t-71 34t-63.5 65t-37.5 98l174 23q-4 -53 31 -82t90 -31q53 -3 90 20.5t37 67.5q0 43 -23 75t-52.5 47.5t-67.5 24t-56 10t-31 1.5l-31 131q101 5 174 40.5t72 90.5q0 28 -13.5 50t-38 32.5t-55 9t-69 -23t-76.5 -60.5 q-91 0 -110 -10l-23 170l119 18l8 -35q75 49 168.5 56.5t166.5 -32.5t85 -118zM995 1456l226 -98q-10 -20 -55.5 -111.5t-72 -148t-68.5 -146t-77 -174.5t-65 -166q-122 -324 -205 -626l-272 118z" />
<glyph unicode="&#xbf;" horiz-adv-x="1275" d="M1133 391l-291 -10q-2 -123 -29 -160q-48 -64 -144 -88t-193 0t-144 88q-41 57 -42 147t38 134q52 60 117.5 97t153 70.5t134.5 59.5q49 26 82.5 77.5t46.5 106.5t19 106t5 83l-1 33l-264 -13q-2 -9 0.5 -47.5t-10.5 -101t-40 -92.5q-24 -27 -77.5 -49.5t-127.5 -56.5 t-135 -83q-72 -59 -111.5 -148t-42.5 -176t19 -165t64 -121q63 -65 188 -97t253 -29t243 29.5t166 67.5q24 19 43 40.5t32 44t22.5 42.5t15 44t8.5 40.5t3.5 39.5t0.5 33.5t-1 30.5t-1 23zM866 1255q-33 -40 -112 -42.5t-121 36.5q-17 16 -23.5 53.5t2.5 76t31 55.5 q37 29 114 25.5t105 -40.5q24 -39 21 -93.5t-17 -70.5z" />
<glyph unicode="&#xc0;" horiz-adv-x="1251" d="M18 0q310 -8 318 0l156 446l380 13l154 -522q196 -5 219 -5l-354 1516h-273zM748 1237l126 -616l-323 -5zM479 1898q97 -47 230 -98t308 -112t200 -70l-64 -195q-139 60 -359.5 133.5t-410.5 124.5z" />
<glyph unicode="&#xc1;" horiz-adv-x="1251" d="M342 1423l-90 201l770 256l57 -176q-15 -5 -197 -69.5t-312 -114.5t-228 -97zM874 621l-126 616l-197 -621zM18 0l600 1448h273l354 -1516l-219 5l-154 522l-380 -13l-156 -446q-4 -4 -83.5 -4t-156.5 2z" />
<glyph unicode="&#xc2;" horiz-adv-x="1251" d="M1157 1481h-231l-142 205q-36 -30 -120.5 -89t-128.5 -100q-61 2 -185 2q131 139 211 205q17 15 65.5 54.5t73.5 62.5h215q11 -6 63 -79t111 -161t68 -100zM874 621l-126 616l-197 -621zM18 0l600 1448h273l354 -1516l-219 5l-154 522l-380 -13l-156 -446q-4 -4 -83.5 -4 t-156.5 2z" />
<glyph unicode="&#xc3;" horiz-adv-x="1251" d="M399 1536q-65 186 -67 188t31 20t97 36t130 16q62 -1 118.5 -26t108.5 -49t105 -23q56 0 113 23t87 46l29 23l66 -188q-17 -8 -46.5 -20.5t-103 -32t-127.5 -17.5q-64 2 -184 45t-154 41q-33 -3 -83.5 -23.5t-84.5 -39.5zM874 621l-126 616l-197 -621zM18 0l600 1448h273 l354 -1516l-219 5l-154 522l-380 -13l-156 -446q-4 -4 -83.5 -4t-156.5 2z" />
<glyph unicode="&#xc4;" horiz-adv-x="1251" d="M18 0q310 -8 318 0l156 446l380 13l154 -522q196 -5 219 -5l-354 1516h-273zM748 1237l126 -616l-323 -5zM911 1528q26 -30 102 -27.5t111 37.5q19 19 20.5 67.5t-24.5 75.5q-41 38 -85.5 46.5t-78.5 -5.5t-57 -41q-21 -24 -21 -57.5t10 -56.5t23 -39zM559 1526 q-26 -31 -95 -23t-106 45q-19 13 -18.5 75.5t29.5 82.5q116 81 204 -23q21 -25 21 -59t-10.5 -58.5t-24.5 -39.5z" />
<glyph unicode="&#xc5;" horiz-adv-x="1251" d="M18 0q310 -8 318 0l156 446l380 13l154 -522q196 -5 219 -5l-354 1516h-273zM748 1237l126 -616l-323 -5zM770 2007q47 -2 83.5 -23t57 -51t32.5 -66.5t15 -68t0 -57.5q-10 -90 -65 -147.5t-145 -53.5q-45 2 -78 22t-51 52.5t-26 70.5t-7 82q1 33 11 72t30.5 79.5t58 66 t84.5 22.5zM772 1882q-33 0 -53 -31.5t-23 -76.5q-3 -38 19.5 -66.5t46.5 -30.5q35 -2 61.5 24t26.5 66q2 46 -21 80t-57 35z" />
<glyph unicode="&#xc6;" horiz-adv-x="1765" d="M1718 1421q3 -8 3 -57.5t-3 -107.5l-2 -58q-3 0 -262 11t-270 10l18 -375h410l14 -193l-385 -20q-10 -512 0 -512l469 28v-172q-124 1 -760 -4l25 488l-385 -13l-234 -446q-4 -4 -83.5 -4t-156.5 2l-77 2l852 1407q138 0 414 7t413 7zM1004 621l-21 616l-303 -621z" />
<glyph unicode="&#xc7;" horiz-adv-x="1058" d="M350 -387v6q0 2 2 4q1 0 3 1t3 1q22 0 205 -12q0 -37 30.5 -56.5t70.5 -19.5q62 0 99.5 35t37.5 96q0 21 -8 37.5t-25 28t-34 20t-44.5 13.5t-47 8.5t-51 4.5t-46 1.5t-43.5 0t-33 -0.5l-31 2q2 45 1 111t-1 112q-106 19 -183.5 86.5t-121.5 171t-64 225t-20 265.5 q0 126 28 245.5t78.5 217t129 160.5t172.5 71q72 6 128 -8.5t85.5 -40t48 -52t25.5 -45.5l8 -20q3 0 6 48t4 96l2 49h233l7 -601h-316q-2 1 0 15.5t-2 39.5t-8 54.5t-17.5 60.5t-31 56t-48.5 42t-69 19q-53 3 -105 -70t-85 -186t-35 -225q-3 -113 28 -225.5t88 -188 t123 -78.5q59 -3 100.5 48t56.5 121.5t9 140.5q267 4 324 4q0 -62 -10.5 -123t-38 -125.5t-69.5 -115t-111 -87.5t-156 -47l-2 -106q25 2 73 2q67 0 112.5 -10t81 -36.5t52.5 -75.5t17 -124q0 -130 -83 -195t-220 -65q-111 0 -202 57.5t-110 161.5z" />
<glyph unicode="&#xc8;" horiz-adv-x="892" d="M66 -23h784v170q-430 -28 -469 -28q-7 0 -3 256l3 256q367 20 383 20l-12 193h-410l-18 375q12 1 270.5 -10t261.5 -11q1 13 1.5 34t2.5 65.5t1.5 74t-3.5 29.5q-4 0 -405.5 -4t-405.5 -4t1 -354t12 -708zM152 1923q97 -47 227.5 -97.5t311.5 -114t198 -69.5l-64 -178 q-139 60 -359.5 133.5t-410.5 124.5z" />
<glyph unicode="&#xc9;" horiz-adv-x="892" d="M117 1485l-97 198l771 256l63 -174q-22 -8 -198.5 -70t-308.5 -112.5t-230 -97.5zM850 -23h-784q-2 90 -4 221.5t-8.5 486.5t-7 486.5t0.5 221.5q4 0 405.5 4t405.5 4q3 -8 3 -53t-3 -98l-2 -52q-3 0 -261.5 11t-270.5 10l18 -375h410l12 -193l-383 -20q-10 -512 0 -512 l469 28v-170z" />
<glyph unicode="&#xca;" horiz-adv-x="892" d="M870 1481h-231l-141 205q-36 -30 -121 -89.5t-129 -99.5q-61 2 -185 2q131 139 211 205q18 16 66.5 55t73.5 62h215q11 -6 62.5 -79.5t110.5 -160.5t68 -100zM850 -23h-784q-2 90 -4 221.5t-8.5 486.5t-7 486.5t0.5 221.5q4 0 405.5 4t405.5 4q3 -8 3 -53t-3 -98l-2 -52 q-3 0 -261.5 11t-270.5 10l18 -375h410l12 -193l-383 -20q-10 -512 0 -512l469 28v-170z" />
<glyph unicode="&#xcb;" horiz-adv-x="892" d="M66 -23h784v170q-430 -28 -469 -28q-7 0 -3 256l3 256q367 20 383 20l-12 193h-410l-18 375q12 1 270.5 -10t261.5 -11q1 13 1.5 34t2.5 65.5t1.5 74t-3.5 29.5q-4 0 -405.5 -4t-405.5 -4t1 -354t12 -708zM645 1507q26 -30 102 -27t111 38q19 19 20.5 67.5t-24.5 75.5 q-41 38 -85.5 46.5t-78.5 -5.5t-57 -41q-21 -24 -21 -57.5t10 -57t23 -39.5zM293 1505q-27 -30 -95.5 -22t-105.5 45q-19 13 -19 75.5t29 82.5q117 81 205 -23q21 -25 21 -59.5t-10.5 -59t-24.5 -39.5z" />
<glyph unicode="&#xcc;" horiz-adv-x="1019" d="M8 1395l936 26v-239l-274 10q-1 -64 -1.5 -158.5t-2 -348.5t-1.5 -348.5t1 -158.5q325 -12 327 -12q0 -10 -0.5 -25.5t-2 -56.5t-1.5 -56.5v-25.5q3 0 -95 3.5t-239.5 8t-283.5 9.5t-242 9l-100 3v108l309 23v1083l-322 21zM213 1980q97 -47 229.5 -97.5t308.5 -112 t199 -70.5l-63 -195q-139 60 -359.5 133.5t-410.5 124.5z" />
<glyph unicode="&#xcd;" horiz-adv-x="1019" d="M137 1444l-96 207l770 256l63 -183q-22 -8 -198.5 -70t-308.5 -112.5t-230 -97.5zM944 1421l-936 -26l8 -125l322 -21v-1083l-309 -23v-108q16 -1 43 -1.5t107.5 -3.5t157 -5.5t175 -6t179.5 -6t151.5 -5t109.5 -4t37 -1.5q-1 0 0 41t3 82l1 41l-327 12q-2 38 -1 263 t3 488l2 263l274 -10v239z" />
<glyph unicode="&#xce;" horiz-adv-x="1019" d="M870 1481h-231l-141 225q-27 -23 -79.5 -65t-93.5 -76.5t-77 -67.5q-61 2 -185 2q131 139 211 205q18 16 66.5 55t73.5 62h215q11 -6 62.5 -79.5t110.5 -160.5t68 -100zM944 1421l-936 -26l8 -125l322 -21v-1083l-309 -23v-108q16 -1 43 -1.5t107.5 -3.5t157 -5.5t175 -6 t179.5 -6t151.5 -5t109.5 -4t37 -1.5q-1 0 0 41t3 82l1 41l-327 12q-2 38 -1 263t3 488l2 263l274 -10v239z" />
<glyph unicode="&#xcf;" horiz-adv-x="1019" d="M8 1395l936 26v-239l-274 10q-1 -64 -1.5 -158.5t-2 -348.5t-1.5 -348.5t1 -158.5q325 -12 327 -12q0 -10 -0.5 -25.5t-2 -56.5t-1.5 -56.5v-25.5q3 0 -95 3.5t-239.5 8t-283.5 9.5t-242 9l-100 3v108l309 23v1083l-322 21zM645 1548q26 -30 102 -27t111 38 q19 19 20.5 67.5t-24.5 75.5q-41 38 -85.5 46.5t-78.5 -5.5t-57 -41q-21 -24 -21 -57.5t10 -57t23 -39.5zM293 1546q-27 -30 -95.5 -22t-105.5 45q-19 13 -19 75t29 82q118 82 205 -22q21 -25 21 -59.5t-10.5 -59t-24.5 -39.5z" />
<glyph unicode="&#xd0;" horiz-adv-x="1392" d="M279 565l-265 -2l-12 248l272 -8l-8 647q282 -1 424 -23q374 -55 524 -288q112 -174 111 -453q-1 -99 -20.5 -183.5t-53 -148.5t-84.5 -116t-108 -88.5t-130.5 -63.5t-145 -43.5t-158 -26t-163.5 -13t-167 -3.5q-8 0 -16 565zM481 1182l4 -385l330 -11l-12 -215l-316 -4 l5 -352q56 1 108.5 7.5t109.5 21t105.5 36t93 55.5t75.5 77t50.5 103t20.5 132q1 87 -14.5 160t-40.5 124.5t-64 93t-77 67.5t-87.5 44.5t-86.5 27t-83 13.5t-69 5h-52z" />
<glyph unicode="&#xd1;" horiz-adv-x="1093" d="M174 1536q-66 186 -68 188t31 20t97.5 36t130.5 16q49 -1 95.5 -16.5t77.5 -34t73.5 -33.5t84.5 -14q56 0 113.5 23t86.5 46l30 23l65 -188q-17 -8 -46.5 -20.5t-102.5 -32t-127 -17.5q-64 2 -184 45t-154 41q-33 -3 -83.5 -23.5t-85.5 -39.5zM66 -37l22 1479q-4 7 246 0 q-6 0 105 -209.5t225.5 -417.5t117.5 -205q1 2 10.5 211t20.5 416t16 207q32 0 112 -4t83 -10q3 -52 2 -336.5t-4 -613.5l-2 -330l-227 -9q-2 2 -121.5 213t-237 418.5t-117.5 204.5l3 -107q2 -108 5 -252.5t5.5 -299.5t4 -250t-0.5 -105h-268z" />
<glyph unicode="&#xd2;" horiz-adv-x="1112" d="M518 1430q96 0 178.5 -30.5t140.5 -80.5t103.5 -117.5t73 -139.5t45 -147t22.5 -139.5t2 -118.5q-5 -103 -30.5 -203t-73.5 -190.5t-113 -159t-155 -109t-193 -40.5t-186.5 44.5t-138 117t-92 169.5t-54 196.5t-18.5 203.5q-1 62 8.5 135.5t30.5 159t60 164t91 143 t129.5 103.5t169.5 39zM512 1167q-90 -1 -156.5 -71t-98.5 -178t-34 -238q-1 -91 29 -175t76.5 -139t100 -86.5t99.5 -29.5q142 9 240 139.5t98 290.5q0 65 -11.5 130.5t-38 131t-66 115t-101.5 80.5t-137 30zM270 1901q72 -36 181 -81t175.5 -70t198.5 -72t140 -50 l-52 -201q-134 60 -342 131t-381 115z" />
<glyph unicode="&#xd3;" horiz-adv-x="1112" d="M199 1444l-97 207l770 256l64 -183q-22 -8 -198.5 -70t-308.5 -112.5t-230 -97.5zM512 1167q75 1 137 -30t101.5 -80.5t66 -115t38 -131t11.5 -130.5q0 -160 -98 -290.5t-240 -139.5q-46 -2 -99.5 29.5t-100 86.5t-76.5 139t-29 175q2 130 34 238t98.5 178t156.5 71z M518 1430q-92 0 -169.5 -39t-129.5 -103.5t-91 -143t-60 -164t-30.5 -159t-8.5 -135.5q2 -104 18.5 -203.5t54 -196.5t92 -169.5t138 -117t186.5 -44.5t193 40.5t155 109t113 159t73.5 190.5t30.5 203q3 54 -2 118.5t-22.5 139.5t-45 147t-73 139.5t-103.5 117.5 t-140.5 80.5t-178.5 30.5z" />
<glyph unicode="&#xd4;" horiz-adv-x="1112" d="M973 1460h-232l-141 205q-161 -105 -250 -188q-82 3 -184 22q131 139 211 205q90 78 139 117l215 -21q11 -6 63 -79t111 -161t68 -100zM512 1167q75 1 137 -30t101.5 -80.5t66 -115t38 -131t11.5 -130.5q0 -160 -98 -290.5t-240 -139.5q-46 -2 -99.5 29.5t-100 86.5 t-76.5 139t-29 175q2 130 34 238t98.5 178t156.5 71zM518 1430q-92 0 -169.5 -39t-129.5 -103.5t-91 -143t-60 -164t-30.5 -159t-8.5 -135.5q2 -104 18.5 -203.5t54 -196.5t92 -169.5t138 -117t186.5 -44.5t193 40.5t155 109t113 159t73.5 190.5t30.5 203q3 54 -2 118.5 t-22.5 139.5t-45 147t-73 139.5t-103.5 117.5t-140.5 80.5t-178.5 30.5z" />
<glyph unicode="&#xd5;" horiz-adv-x="1112" d="M518 1430q96 0 178.5 -30.5t140.5 -80.5t103.5 -117.5t73 -139.5t45 -147t22.5 -139.5t2 -118.5q-5 -103 -30.5 -203t-73.5 -190.5t-113 -159t-155 -109t-193 -40.5t-186.5 44.5t-138 117t-92 169.5t-54 196.5t-18.5 203.5q-1 62 8.5 135.5t30.5 159t60 164t91 143 t129.5 103.5t169.5 39zM512 1167q-90 -1 -156.5 -71t-98.5 -178t-34 -238q-1 -91 29 -175t76.5 -139t100 -86.5t99.5 -29.5q142 9 240 139.5t98 290.5q0 65 -11.5 130.5t-38 131t-66 115t-101.5 80.5t-137 30zM727 1528q26 -30 102 -27.5t111 37.5q19 19 20.5 67.5 t-24.5 75.5q-41 38 -85.5 46.5t-78.5 -5.5t-57 -41q-21 -24 -21 -57.5t10 -56.5t23 -39zM375 1526q-26 -31 -95 -23t-106 45q-19 13 -19 75.5t29 82.5q117 81 205 -23q21 -25 21 -59t-10.5 -58.5t-24.5 -39.5z" />
<glyph unicode="&#xd6;" horiz-adv-x="1112" d="M518 1430q96 0 178.5 -30.5t140.5 -80.5t103.5 -117.5t73 -139.5t45 -147t22.5 -139.5t2 -118.5q-5 -103 -30.5 -203t-73.5 -190.5t-113 -159t-155 -109t-193 -40.5t-186.5 44.5t-138 117t-92 169.5t-54 196.5t-18.5 203.5q-1 62 8.5 135.5t30.5 159t60 164t91 143 t129.5 103.5t169.5 39zM512 1167q-90 -1 -156.5 -71t-98.5 -178t-34 -238q-1 -91 29 -175t76.5 -139t100 -86.5t99.5 -29.5q142 9 240 139.5t98 290.5q0 65 -11.5 130.5t-38 131t-66 115t-101.5 80.5t-137 30zM748 1548q26 -30 102 -27t111 38q19 19 20 67.5t-25 75.5 q-41 38 -85.5 46.5t-78.5 -5.5t-57 -41q-21 -24 -20.5 -57.5t10.5 -57t23 -39.5zM395 1546q-27 -30 -95 -22t-105 45q-19 13 -19 75t29 82q118 82 205 -22q21 -25 21 -59.5t-11 -59t-25 -39.5z" />
<glyph unicode="&#xd7;" horiz-adv-x="1296" d="M115 961l190 200l328 -393l313 410l174 -150l-286 -459l331 -286l-78 -170l-389 336l-288 -359l-228 152l332 395z" />
<glyph unicode="&#xd8;" horiz-adv-x="1112" d="M713 1393l53 110l227 -98q-33 -68 -86 -158q99 -120 141 -287.5t35 -302.5q-5 -103 -30.5 -203t-73.5 -190.5t-113 -159t-155 -109t-193 -40.5q-85 0 -166 33q-11 -35 -26 -92l-273 118l88 185q-105 195 -112 487q-1 62 8.5 135.5t30.5 159t60 164t91 143t129.5 103.5 t169.5 39q111 0 195 -37zM268 465l332 690q-44 12 -88 12q-90 -1 -156.5 -71t-98.5 -178t-34 -238q-3 -114 45 -215zM440 272q45 -23 88 -20q94 5 173 68.5t122 159.5t43 200q0 200 -90 340q-184 -330 -246 -498q-43 -112 -90 -250z" />
<glyph unicode="&#xd9;" horiz-adv-x="1216" d="M90 1475h229q0 -15 0.5 -41t3.5 -106t8.5 -157.5t17 -183t26.5 -196t40 -182.5t55.5 -157t74 -105.5t94.5 -39.5q64 1 115 63.5t82 161.5t53.5 218.5t32 239t15 218.5t5.5 160v62h232q1 -134 -5.5 -267t-24 -276.5t-44.5 -270t-71 -241t-100 -196.5t-133.5 -130.5 t-168.5 -48.5q-97 0 -177.5 56.5t-137.5 160t-99.5 239t-68.5 304.5t-39 344.5t-15 370.5zM315 1960q97 -47 228.5 -97.5t310.5 -113.5t199 -70l-64 -194q-139 60 -359.5 133.5t-410.5 124.5z" />
<glyph unicode="&#xda;" horiz-adv-x="1216" d="M281 1464l-97 219l770 256l64 -194q-15 -5 -197 -69.5t-312 -114.5t-228 -97zM319 1372h-229q3 -234 20.5 -431.5t57.5 -374.5t100 -300t151 -194.5t208 -71.5q91 0 168.5 48.5t133.5 130.5t100 196.5t71 241t44.5 270t24 276.5t5.5 267h-232v-39t-2.5 -101.5 t-6.5 -150.5t-14.5 -175t-24.5 -188t-37.5 -175.5t-53 -151t-72 -102t-92.5 -40.5q-65 -1 -117.5 57.5t-85 152.5t-56.5 207.5t-35 227.5t-17.5 208t-7.5 153z" />
<glyph unicode="&#xdb;" horiz-adv-x="1216" d="M90 1475h229q0 -15 0.5 -41t3.5 -106t8.5 -157.5t17 -183t26.5 -196t40 -182.5t55.5 -157t74 -105.5t94.5 -39.5q64 1 115 63.5t82 161.5t53.5 218.5t32 239t15 218.5t5.5 160v62h232q1 -134 -5.5 -267t-24 -276.5t-44.5 -270t-71 -241t-100 -196.5t-133.5 -130.5 t-168.5 -48.5q-97 0 -177.5 56.5t-137.5 160t-99.5 239t-68.5 304.5t-39 344.5t-15 370.5z" />
<glyph unicode="&#xdc;" horiz-adv-x="1216" d="M90 1475h229q0 -15 0.5 -41t3.5 -106t8.5 -157.5t17 -183t26.5 -196t40 -182.5t55.5 -157t74 -105.5t94.5 -39.5q64 1 115 63.5t82 161.5t53.5 218.5t32 239t15 218.5t5.5 160v62h232q1 -134 -5.5 -267t-24 -276.5t-44.5 -270t-71 -241t-100 -196.5t-133.5 -130.5 t-168.5 -48.5q-97 0 -177.5 56.5t-137.5 160t-99.5 239t-68.5 304.5t-39 344.5t-15 370.5zM829 1610q26 -30 102 -27.5t111 37.5q19 19 20.5 67.5t-24.5 75.5q-41 38 -85.5 46.5t-78.5 -5.5t-57 -41q-21 -24 -21 -57.5t10 -56.5t23 -39zM477 1608q-26 -31 -95 -23t-106 45 q-19 13 -18.5 75.5t29.5 82.5q117 81 205 -23q21 -25 21 -59t-11 -58.5t-25 -39.5z" />
<glyph unicode="&#xdd;" horiz-adv-x="1021" d="M129 1481l-96 217q292 113 770 258l65 -197q-127 -26 -352 -109.5t-387 -168.5zM199 1413h-209l323 -645q-1 -49 -2.5 -120t-5.5 -264t-4.5 -264t0.5 -120h223l19 762l456 651h-354q-12 -26 -32.5 -68t-63.5 -131.5t-73 -147.5t-32 -56z" />
<glyph unicode="&#xde;" horiz-adv-x="1185" d="M285 1237l14 -705q38 -2 95.5 3.5t139.5 26t150 54t117.5 97.5t52.5 147q2 69 -15.5 125.5t-49 94.5t-74 68t-90 45.5t-97 27.5t-95 13.5t-84 4t-64.5 -1.5zM326 0h-273l10 1681q12 0 60.5 1.5t99.5 1.5t96 -3v-307q79 19 169 20t179.5 -15.5t172.5 -54.5t147.5 -91.5 t105.5 -131.5t46 -171q5 -92 -18.5 -169.5t-68.5 -132t-105 -98t-127 -70.5t-134.5 -46.5t-129.5 -28t-109.5 -13t-76.5 -4.5l-28 -1z" />
<glyph unicode="&#xdf;" horiz-adv-x="1439" d="M707 1081q16 57 2 98t-45 69.5t-75 40t-87 11t-81.5 -17.5t-58.5 -47q-19 -29 -29.5 -78t-12 -117.5t-0.5 -115.5t6 -125t6 -92q0 -4 11 -182t21.5 -351.5t8.5 -173.5h-248q-68 881 -68 889q-5 96 -0.5 180.5t31.5 154t72 119.5t121.5 77.5t179.5 27.5q143 0 249.5 -20 t167 -50t96.5 -73.5t46 -82.5t6 -85.5t-12.5 -73.5t-20.5 -55q-58 -133 -31 -219.5t146 -133.5q157 -65 227 -156.5t58 -219.5q-3 -29 -15 -61t-45 -72.5t-82 -71.5t-134 -52.5t-193 -21.5q-305 0 -407 178q-30 52 -40 131q0 3 86.5 -1t172.5 -10l87 -5q1 -88 72.5 -138 t143 -10.5t71.5 168.5q0 55 -18 99.5t-51.5 76t-67.5 52t-80 39.5q-76 31 -124 58t-77 58.5t-40 60.5t-7 73.5t15 88.5t32 113q10 32 15 49z" />
<glyph unicode="&#xe0;" d="M748 -113q7 0 14.5 243.5t7.5 487.5q0 248 -108.5 382.5t-317.5 134.5q-56 0 -101 -17.5t-72.5 -43t-48 -62t-30.5 -67t-15.5 -66t-6 -50.5t-0.5 -28l252 -15v12v18.5t0.5 21.5t2.5 24.5t4.5 23.5t7.5 22.5t12 18t16.5 13t21.5 4.5q51 -1 88 -39.5t53.5 -87t20.5 -102.5 q7 -52 10 -131q4 -89 -4 -172q-26 56 -104 99.5t-168 43.5q-102 0 -173 -89.5t-71 -201.5q0 -55 18 -108.5t51.5 -98.5t90 -72.5t125.5 -27.5q156 0 239 72l4 -135q81 -7 181 -7zM379 373q51 -6 82 -48.5t26 -101.5q-3 -50 -46 -80t-93 -24q-56 9 -83.5 50t-24.5 99 q0 45 37 79t102 26zM166 1542q98 -47 207.5 -87t237 -80.5t175.5 -57.5l-63 -191q-89 39 -206.5 76.5t-203 61t-243.5 63.5z" />
<glyph unicode="&#xe1;" d="M109 1157l-86 201l684 213l57 -182q-9 -3 -104.5 -33.5t-143.5 -47t-133 -45.5t-152 -55.5t-122 -50.5zM379 373q-65 8 -102 -26t-37 -79q-3 -58 24.5 -99t83.5 -50q50 -6 93 24t46 80q5 59 -26 101.5t-82 48.5zM748 -113q-100 0 -181 7l-4 135q-83 -72 -239 -72 q-69 0 -125.5 27.5t-90 72.5t-51.5 98.5t-18 108.5q0 112 71 201.5t173 89.5q90 0 168 -43.5t104 -99.5q8 83 4 172q-3 79 -10 131q-4 54 -20.5 102.5t-53.5 87t-88 39.5q-12 0 -21.5 -4.5t-16.5 -13t-12 -18t-7.5 -22.5t-4.5 -23.5t-2.5 -24.5t-0.5 -21.5v-18.5v-12 l-252 15q0 13 0.5 28t6 50.5t15.5 66t30.5 67t48 62t72.5 43t101 17.5q209 0 317.5 -134.5t108.5 -382.5q0 -244 -7.5 -487.5t-14.5 -243.5z" />
<glyph unicode="&#xe2;" d="M829 1165h-231l-141 226q-27 -23 -79.5 -65t-93.5 -76.5t-77 -67.5q-61 2 -184 2q22 24 61 69t72 79.5t67 62.5q18 16 66 54.5t73 61.5l226 -6q11 -6 62.5 -79.5t110.5 -160.5t68 -100zM487 223q5 59 -26 101.5t-82 48.5q-65 8 -102 -26t-37 -79q-3 -58 24.5 -99 t83.5 -50q50 -6 93 24t46 80zM770 618q0 -244 -7.5 -487.5t-14.5 -243.5q-100 0 -181 7l-4 135q-83 -72 -239 -72q-69 0 -125.5 27.5t-90 72.5t-51.5 98.5t-18 108.5q0 112 71 201.5t173 89.5q90 0 168 -43.5t104 -99.5q8 83 4 172q-3 79 -10 131q-4 54 -20.5 102.5 t-53.5 87t-88 39.5q-12 0 -21.5 -4.5t-16.5 -13t-12 -18t-7.5 -22.5t-4.5 -23.5t-2.5 -24.5t-0.5 -21.5v-18.5v-12l-252 15q0 13 0.5 28t6 50.5t15.5 66t30.5 67t48 62t72.5 43t101 17.5q209 0 317.5 -134.5t108.5 -382.5z" />
<glyph unicode="&#xe3;" d="M115 1194q-58 209 -60 211q11 9 30 23t76 36.5t113 20.5q42 -1 81.5 -19t65.5 -38.5t61.5 -37.5t70.5 -16q47 0 96 26t74 52l25 25l55 -211q-15 -9 -39.5 -22.5t-87 -35.5t-107.5 -20q-54 3 -155 50.5t-129 45.5q-28 -3 -70.5 -25.5t-70.5 -43.5zM379 373q-65 8 -102 -26 t-37 -79q-3 -58 24.5 -99t83.5 -50q50 -6 93 24t46 80q5 59 -26 101.5t-82 48.5zM748 -113q-100 0 -181 7l-4 135q-83 -72 -239 -72q-69 0 -125.5 27.5t-90 72.5t-51.5 98.5t-18 108.5q0 112 71 201.5t173 89.5q90 0 168 -43.5t104 -99.5q8 83 4 172q-3 79 -10 131 q-4 54 -20.5 102.5t-53.5 87t-88 39.5q-12 0 -21.5 -4.5t-16.5 -13t-12 -18t-7.5 -22.5t-4.5 -23.5t-2.5 -24.5t-0.5 -21.5v-18.5v-12l-252 15q0 13 0.5 28t6 50.5t15.5 66t30.5 67t48 62t72.5 43t101 17.5q209 0 317.5 -134.5t108.5 -382.5q0 -244 -7.5 -487.5 t-14.5 -243.5z" />
<glyph unicode="&#xe4;" d="M748 -113q7 0 14.5 243.5t7.5 487.5q0 248 -108.5 382.5t-317.5 134.5q-56 0 -101 -17.5t-72.5 -43t-48 -62t-30.5 -67t-15.5 -66t-6 -50.5t-0.5 -28l252 -15v12v18.5t0.5 21.5t2.5 24.5t4.5 23.5t7.5 22.5t12 18t16.5 13t21.5 4.5q51 -1 88 -39.5t53.5 -87t20.5 -102.5 q7 -52 10 -131q4 -89 -4 -172q-26 56 -104 99.5t-168 43.5q-102 0 -173 -89.5t-71 -201.5q0 -55 18 -108.5t51.5 -98.5t90 -72.5t125.5 -27.5q156 0 239 72l4 -135q81 -7 181 -7zM379 373q51 -6 82 -48.5t26 -101.5q-3 -50 -46 -80t-93 -24q-56 9 -83.5 50t-24.5 99 q0 45 37 79t102 26zM563 1262q26 -30 102 -27.5t111 37.5q19 19 20.5 67.5t-24.5 75.5q-41 38 -85.5 46.5t-78.5 -5.5t-57 -41q-21 -24 -21 -57.5t10 -56.5t23 -39zM313 1260q-26 -31 -94.5 -23t-105.5 45q-19 13 -19 75.5t29 82.5q117 81 205 -23q21 -25 21 -59t-11 -58.5 t-25 -39.5z" />
<glyph unicode="&#xe5;" d="M748 -113q7 0 14.5 243.5t7.5 487.5q0 248 -108.5 382.5t-317.5 134.5q-56 0 -101 -17.5t-72.5 -43t-48 -62t-30.5 -67t-15.5 -66t-6 -50.5t-0.5 -28l252 -15v12v18.5t0.5 21.5t2.5 24.5t4.5 23.5t7.5 22.5t12 18t16.5 13t21.5 4.5q51 -1 88 -39.5t53.5 -87t20.5 -102.5 q7 -52 10 -131q4 -89 -4 -172q-26 56 -104 99.5t-168 43.5q-102 0 -173 -89.5t-71 -201.5q0 -55 18 -108.5t51.5 -98.5t90 -72.5t125.5 -27.5q156 0 239 72l4 -135q81 -7 181 -7zM379 373q51 -6 82 -48.5t26 -101.5q-3 -50 -46 -80t-93 -24q-56 9 -83.5 50t-24.5 99 q0 45 37 79t102 26zM401 1638q50 -2 88 -20.5t59.5 -44.5t34.5 -58.5t16.5 -60.5t0.5 -51q-10 -79 -68.5 -129.5t-154.5 -46.5q-92 3 -132.5 60t-37.5 140q1 29 11.5 63t32 69.5t61 58t89.5 20.5zM403 1509q-33 0 -51 -22.5t-20 -54.5q-3 -27 18 -47.5t43 -20.5 q34 -2 59 15.5t25 47.5q1 33 -21 57.5t-53 24.5z" />
<glyph unicode="&#xe6;" horiz-adv-x="1441" d="M805 743l442 5q-1 6 -2 16t-6 38.5t-11 54.5t-17.5 57.5t-25 54t-33 37.5t-42.5 14q-59 -1 -117.5 -34t-98 -77.5t-64.5 -90.5t-25 -75zM1374 616l-583 -6q-6 -21 -3 -62t8 -90.5t20 -101t34 -93t49 -66.5t66 -23q71 3 121.5 48.5t64.5 133.5q8 1 51.5 0t97 -4.5 t58.5 -7.5q-10 -88 -72.5 -167.5t-148 -125t-166.5 -45.5q-108 0 -211 72q-7 -191 -12 -191q-100 0 -181 7l-4 135q-83 -72 -239 -72q-69 0 -125.5 27.5t-90 72.5t-51.5 98.5t-18 108.5q0 112 71 201.5t173 89.5q90 0 168 -43.5t104 -99.5q8 83 4 172q-3 79 -10 131 q-4 54 -20.5 102.5t-53.5 87t-88 39.5q-33 0 -49.5 -35.5t-14.5 -70.5t1 -52l-254 15q0 13 0.5 28t6 50.5t15.5 66t30.5 67t48 62t72.5 43t101 17.5q214 0 326 -146q135 203 456 178q59 -5 105 -38t71.5 -81.5t43 -106.5t23 -115.5t7 -104.5t0.5 -76zM379 373 q-65 8 -101 -25.5t-38 -79.5q-3 -58 24.5 -99t83.5 -50q48 -6 92.5 24t48.5 80q3 59 -28 101.5t-82 48.5z" />
<glyph unicode="&#xe7;" horiz-adv-x="974" d="M289 -387v6q0 2 2 4q1 0 3 1t3 1q27 0 58 -2t68.5 -5.5t57.5 -4.5q0 -37 30.5 -56.5t70.5 -19.5q62 0 99.5 35t37.5 96q0 21 -7.5 37.5t-23 28t-31 20t-41 13.5t-43.5 8.5t-47.5 4.5t-43.5 1.5t-42 0t-32 -0.5l-31 2q1 45 0.5 111t-0.5 112q0 2 1 7t1 7q-86 24 -150.5 81 t-102.5 136.5t-56.5 172.5t-18.5 198q0 134 42.5 255t130.5 206t204 94q151 10 234 -61q18 -17 43 -51q5 -10 6 -11v144h170l6 -467h-246q0 12 -1 29t-10 55.5t-24.5 68.5t-48.5 55t-78 27q-37 2 -74 -18t-72 -63t-55.5 -126.5t-17.5 -195.5q4 -156 73.5 -265t158.5 -112 q49 -2 81 40t39.5 106.5t-0.5 140.5q218 6 281 6q0 -40 -3.5 -78.5t-14 -84.5t-27.5 -86t-45.5 -78.5t-65.5 -66.5t-90.5 -46.5t-118.5 -20.5l-2 -106q25 2 74 2q67 0 112.5 -10t81 -36.5t52 -75.5t16.5 -124q0 -129 -72 -184.5t-210 -55.5q-113 0 -192.5 48t-98.5 151z" />
<glyph unicode="&#xe8;" horiz-adv-x="940" d="M870 616q1 11 2 30t-0.5 74.5t-7 106t-22.5 113t-42.5 109t-71.5 80t-105 38.5q-76 6 -143.5 -1t-134 -29.5t-119.5 -67.5t-95.5 -110.5t-66.5 -163.5t-27 -222q-3 -132 28 -236t80 -164t111.5 -100t114 -53.5t96.5 -13.5q81 0 166.5 45.5t148 125t72.5 167.5 q-5 4 -58.5 7.5t-97 4.5t-51.5 0q-14 -88 -64.5 -133.5t-121.5 -48.5q-52 -3 -92 52t-58 131.5t-25 147t-1 105.5zM743 748l-442 -7q0 30 25 76t64.5 91t97.5 78t116 34q32 1 58 -26.5t40 -67.5t24 -80.5t14 -69.5zM268 1630q98 -47 207.5 -87t237 -80.5t176.5 -57.5 l-64 -197q-89 39 -206.5 76.5t-203 61t-243.5 63.5z" />
<glyph unicode="&#xe9;" horiz-adv-x="940" d="M190 1157l-86 203l684 213l58 -184q-13 -4 -104.5 -33.5t-142.5 -47t-134.5 -46t-151.5 -55t-123 -50.5zM301 741l442 7q-1 11 -3.5 29.5t-13 66t-24.5 83.5t-40 65t-58 28q-58 -1 -116 -34t-97.5 -78t-64.5 -91t-25 -76zM870 616l-585 -6q-6 -35 1 -105.5t25 -147 t58 -131.5t92 -52q71 3 121.5 48.5t64.5 133.5q8 1 51.5 0t97 -4.5t58.5 -7.5q-10 -88 -72.5 -167.5t-148 -125t-166.5 -45.5q-45 0 -96.5 13.5t-114 53.5t-111.5 100t-80 164t-28 236q3 124 27 222t66.5 163.5t95.5 110.5t119.5 67.5t134 29.5t143.5 1q59 -5 105 -38 t71.5 -81.5t42.5 -106.5t22.5 -115.5t7.5 -104.5t0 -76z" />
<glyph unicode="&#xea;" horiz-adv-x="940" d="M952 1194h-231l-141 225q-27 -23 -79.5 -65t-93.5 -76.5t-77 -67.5q-28 1 -100.5 12t-104.5 11q131 139 211 205q18 16 66 54.5t73 61.5l236 -20q11 -6 62.5 -79.5t110.5 -160.5t68 -100zM301 741l442 7q-1 11 -3.5 29.5t-13 66t-24.5 83.5t-40 65t-58 28 q-58 -1 -116 -34t-97.5 -78t-64.5 -91t-25 -76zM870 616l-585 -6q-6 -35 1 -105.5t25 -147t58 -131.5t92 -52q71 3 121.5 48.5t64.5 133.5q8 1 51.5 0t97 -4.5t58.5 -7.5q-10 -88 -72.5 -167.5t-148 -125t-166.5 -45.5q-45 0 -96.5 13.5t-114 53.5t-111.5 100t-80 164 t-28 236q3 124 27 222t66.5 163.5t95.5 110.5t119.5 67.5t134 29.5t143.5 1q59 -5 105 -38t71.5 -81.5t42.5 -106.5t22.5 -115.5t7.5 -104.5t0 -76z" />
<glyph unicode="&#xeb;" horiz-adv-x="940" d="M870 616q1 11 2 30t-0.5 74.5t-7 106t-22.5 113t-42.5 109t-71.5 80t-105 38.5q-76 6 -143.5 -1t-134 -29.5t-119.5 -67.5t-95.5 -110.5t-66.5 -163.5t-27 -222q-3 -132 28 -236t80 -164t111.5 -100t114 -53.5t96.5 -13.5q81 0 166.5 45.5t148 125t72.5 167.5 q-5 4 -58.5 7.5t-97 4.5t-51.5 0q-14 -88 -64.5 -133.5t-121.5 -48.5q-52 -3 -92 52t-58 131.5t-25 147t-1 105.5zM743 748l-442 -7q0 30 25 76t64.5 91t97.5 78t116 34q32 1 58 -26.5t40 -67.5t24 -80.5t14 -69.5zM655 1292q26 -30 102 -27t111 38q19 19 20.5 67.5 t-24.5 75.5q-41 38 -85.5 46.5t-78.5 -5.5t-57 -41q-21 -24 -21 -57.5t10 -57t23 -39.5zM385 1290q-27 -30 -95.5 -22t-105.5 45q-19 13 -18.5 75t29.5 82q117 81 204 -22q21 -25 21 -59.5t-10.5 -59t-24.5 -39.5z" />
<glyph unicode="&#xec;" horiz-adv-x="735" d="M217 0q-1 -5 81 -6.5t164.5 1t82.5 5.5q0 22 -10.5 273t-21 492.5t-9.5 248.5q-6 10 -122 2.5t-144 -15.5q-6 -3 -13.5 -450t-7.5 -551zM115 1532q99 -48 197.5 -86t235 -83.5t165.5 -55.5l-64 -201q-225 97 -631 201z" />
<glyph unicode="&#xed;" horiz-adv-x="735" d="M96 1096l-86 200l664 213l57 -182q-438 -143 -635 -231zM217 0q0 104 7.5 551t13.5 450q28 8 144 15.5t122 -2.5q-1 -7 9.5 -248.5t21 -492.5t10.5 -273q0 -3 -82.5 -5.5t-164.5 -1t-81 6.5z" />
<glyph unicode="&#xee;" horiz-adv-x="839" d="M829 1133h-231l-141 204q-27 -23 -79.5 -65t-93.5 -76.5t-77 -67.5q-29 1 -90.5 12t-93.5 11q135 142 210 205q18 16 66.5 55t73.5 62h215q11 -6 62.5 -79.5t110.5 -160.5t68 -100zM291 0q0 109 7 553.5t13 447.5q28 8 144.5 15.5t122.5 -2.5q-1 -7 9 -248.5t20.5 -492.5 t10.5 -273q0 -3 -82 -5.5t-164 -1t-81 6.5z" />
<glyph unicode="&#xef;" horiz-adv-x="786" d="M238 0q-1 -5 81 -6.5t164 1t82 5.5q0 22 -10.5 273t-21 492.5t-9.5 248.5q-6 10 -122 2.5t-144 -15.5q-6 -3 -13 -447.5t-7 -553.5zM530 1180q26 -30 102 -27.5t111 37.5q19 19 20.5 67.5t-24.5 75.5q-41 38 -85.5 46.5t-78.5 -5.5t-57 -41q-21 -24 -21 -57.5t10 -56.5 t23 -39zM240 1178q-26 -31 -95 -23t-106 45q-19 13 -19 75.5t29 82.5q117 81 205 -23q21 -25 21 -59t-10.5 -58.5t-24.5 -39.5z" />
<glyph unicode="&#xf0;" horiz-adv-x="1079" d="M522 918l-86 194l205 66q-56 87 -154 92q-31 1 -51.5 -29t-17.5 -61l-252 -4q-1 18 7 48.5t29 69t50 72.5t75 59t99 29q304 21 424 -209l127 41l57 -174q-9 -3 -54.5 -19t-70.5 -24q15 -64 21 -139l4 -58q5 -57 6.5 -84.5t3.5 -92t-1.5 -111.5t-9.5 -108t-20 -117.5 t-34 -106.5q-90 -224 -365 -242q-81 -6 -153 17t-123.5 66t-90.5 99.5t-60 117.5t-26 122q-7 99 30.5 201t116 176t175.5 82q144 11 230 -52.5t120 -174.5q-6 180 -35 329q-152 -63 -176 -75zM481 170q78 -6 143.5 72t63.5 174q-2 108 -60 197.5t-141 93.5 q-55 3 -97.5 -21.5t-65.5 -64t-34 -81t-9 -79.5q3 -67 25 -129t68 -109.5t107 -52.5z" />
<glyph unicode="&#xf1;" horiz-adv-x="1189" d="M184 1305q-73 227 -75 229q5 4 14 10t38.5 21t60.5 26.5t77.5 20.5t91.5 8q53 -1 104 -20.5t84.5 -41.5t79 -40.5t91.5 -18.5q28 0 57 6.5t52.5 16.5t46 22t39.5 24t29.5 22t19.5 16l7 6l70 -230q-19 -10 -51 -24.5t-112 -37.5t-138 -20q-55 2 -130.5 29t-139.5 51.5 t-97 22.5q-36 -3 -90.5 -27.5t-91.5 -47.5zM911 66h230q-2 171 -8 300.5t-20 253.5t-37.5 212t-59 163t-85 120t-116 70t-151.5 25q-29 0 -65 -12.5t-82 -46.5t-89 -84.5t-85.5 -135t-72.5 -190.5l23 469h-217q7 -140 9 -713t3 -614h229q0 13 1 35.5t5.5 92t11 137t19.5 159 t30 170t43 159.5t57 137.5t75 92.5t94 37q64 1 113 -44.5t76 -119t44.5 -163t22.5 -179.5t6 -164t-1 -121z" />
<glyph unicode="&#xf2;" horiz-adv-x="927" d="M492 -23q-78 0 -144.5 23t-113 61.5t-83.5 90t-59.5 106t-36 111.5t-18 106t-2.5 90q7 133 59.5 239.5t155.5 173t242 66.5q83 0 150 -28t111.5 -74.5t74.5 -111.5t43.5 -135.5t15.5 -149.5q1 -47 -7 -103.5t-25 -122t-48.5 -125t-73 -109t-104.5 -79t-137 -29.5z M481 195q67 2 115 51.5t70 121t24 156.5q1 117 -69 198t-140 81q-104 0 -180.5 -79t-73.5 -200q4 -139 79 -235.5t175 -93.5zM248 1524q98 -47 207 -87.5t237.5 -81t175.5 -57.5l-63 -192q-89 39 -206.5 76.5t-203 61t-243.5 63.5z" />
<glyph unicode="&#xf3;" horiz-adv-x="927" d="M150 1075l-87 201l685 213l57 -182q-9 -3 -104.5 -33.5t-143.5 -47t-133 -45.5t-152 -55.5t-122 -50.5zM481 195q-100 -3 -175 93.5t-79 235.5q-3 121 73.5 200t180.5 79q70 0 140 -81t69 -198q-2 -85 -24 -156.5t-70 -121t-115 -51.5zM492 -23q74 0 137 29.5t104.5 79 t73 109t48.5 125t25 122t7 103.5q-2 79 -15.5 149.5t-43.5 135.5t-74.5 111.5t-111.5 74.5t-150 28q-105 0 -190 -38.5t-141 -104.5t-88.5 -152t-37.5 -184q-2 -41 2.5 -90t18 -106t36 -111.5t59.5 -106t83.5 -90t113 -61.5t144.5 -23z" />
<glyph unicode="&#xf4;" horiz-adv-x="927" d="M891 1092h-232l-141 204q-32 -26 -112 -86t-125 -102q-28 1 -89 8.5t-94 7.5q120 128 197 191q26 22 75 68.5t64 60.5h215q11 -6 63 -82.5t110 -166t69 -103.5zM481 195q-100 -3 -175 93.5t-79 235.5q-3 121 73.5 200t180.5 79q70 0 140 -81t69 -198q-2 -85 -24 -156.5 t-70 -121t-115 -51.5zM492 -23q74 0 137 29.5t104.5 79t73 109t48.5 125t25 122t7 103.5q-2 79 -15.5 149.5t-43.5 135.5t-74.5 111.5t-111.5 74.5t-150 28q-139 0 -242 -66.5t-155.5 -173t-59.5 -239.5q-2 -41 2.5 -90t18 -106t36 -111.5t59.5 -106t83.5 -90t113 -61.5 t144.5 -23z" />
<glyph unicode="&#xf5;" horiz-adv-x="927" d="M141 1159q-59 201 -59 203l3 2q3 3 9.5 8t16 11t22 12.5t26.5 12.5t31.5 12t35 10t38.5 6.5t41 1.5q43 -1 84 -18t67.5 -37t63 -36t72.5 -16q31 1 63 11t56 24.5t43 29t29 24.5l10 10l57 -201q-15 -9 -40.5 -21.5t-90 -33.5t-111.5 -19q-54 3 -158 48.5t-135 43.5 q-28 -3 -71.5 -25t-73.5 -42zM481 195q-100 -3 -175 93.5t-79 235.5q-3 121 73.5 200t180.5 79q70 0 140 -81t69 -198q-2 -85 -24 -156.5t-70 -121t-115 -51.5zM492 -23q74 0 137 29.5t104.5 79t73 109t48.5 125t25 122t7 103.5q-2 79 -15.5 149.5t-43.5 135.5t-74.5 111.5 t-111.5 74.5t-150 28q-139 0 -242 -66.5t-155.5 -173t-59.5 -239.5q-2 -41 2.5 -90t18 -106t36 -111.5t59.5 -106t83.5 -90t113 -61.5t144.5 -23z" />
<glyph unicode="&#xf6;" horiz-adv-x="927" d="M492 -23q-78 0 -144.5 23t-113 61.5t-83.5 90t-59.5 106t-36 111.5t-18 106t-2.5 90q7 133 59.5 239.5t155.5 173t242 66.5q83 0 150 -28t111.5 -74.5t74.5 -111.5t43.5 -135.5t15.5 -149.5q1 -47 -7 -103.5t-25 -122t-48.5 -125t-73 -109t-104.5 -79t-137 -29.5z M481 195q67 2 115 51.5t70 121t24 156.5q1 117 -69 198t-140 81q-104 0 -180.5 -79t-73.5 -200q4 -139 79 -235.5t175 -93.5zM614 1176q26 -30 102 -27.5t111 37.5q19 19 20 68t-24 75q-40 38 -85.5 46.5t-79.5 -5.5t-56 -41q-21 -24 -21.5 -57t9.5 -57t24 -39zM338 1165 q-26 -29 -95 -21.5t-106 44.5q-19 16 -19 77t29 81q119 83 205 -23q21 -25 21 -59.5t-10.5 -59t-24.5 -39.5z" />
<glyph unicode="&#xf7;" horiz-adv-x="1390" d="M322 522l788 8l12 215l-813 25zM543 997q0 46 32.5 78t70 43.5t73.5 11.5q74 0 120 -34.5t46 -96.5q0 -61 -42 -103.5t-138 -45.5q-82 -3 -122 41t-40 106zM885 297q0 -46 -32 -78t-69.5 -43.5t-72.5 -11.5q-75 0 -121.5 34.5t-46.5 96.5q0 61 42.5 103.5t139.5 45.5 q81 3 120.5 -41t39.5 -106z" />
<glyph unicode="&#xf8;" horiz-adv-x="927" d="M590 1034l96 217l186 -98q-75 -148 -110 -221q118 -132 125 -387q1 -47 -7 -103.5t-25 -122t-48.5 -125t-73 -109t-104.5 -79t-137 -29.5q-46 0 -103 11q-31 -97 -61 -207q-11 4 -69 33.5t-111 57.5l-52 28l90 206q-85 92 -120.5 222t-30.5 237q5 98 37.5 184t88.5 152 t141 104.5t190 38.5q50 0 98 -10zM281 326l208 477h-8q-104 0 -180 -79t-72 -198q0 -108 52 -200zM457 197q8 -2 24 -2q99 3 152.5 99.5t56.5 231.5q0 92 -43 160q-63 -138 -115 -278q-17 -45 -75 -211z" />
<glyph unicode="&#xf9;" horiz-adv-x="1150" d="M37 1133h229q-1 -12 -2 -32t-2 -81.5t0.5 -121.5t7.5 -141.5t17 -151.5t31 -141.5t47 -121t68.5 -81t92.5 -30.5q63 1 116 45t86.5 114.5t59.5 155t39 169t21 154.5t10 113l2 44h232q1 -55 1 -307t2 -470t7 -325h-217l22 469q-30 -106 -72.5 -190.5t-85.5 -135t-89 -84.5 t-81.5 -46.5t-64.5 -12.5q-66 0 -121 17t-99 48.5t-79 81.5t-61.5 109.5t-46 140t-32 165t-21 192.5t-12.5 215.5t-5 239.5zM233 1612q97 -47 228.5 -97.5t310.5 -113.5t199 -70l-64 -194q-139 60 -359.5 133.5t-410.5 124.5z" />
<glyph unicode="&#xfa;" horiz-adv-x="1150" d="M190 1174l-96 217q292 113 770 258l66 -197q-127 -26 -353 -109.5t-387 -168.5zM266 1030h-229q2 -171 8 -298.5t20 -248t37.5 -204.5t59 -155t85 -112.5t116 -64.5t151.5 -23q29 0 64.5 12.5t81.5 46.5t89 84.5t85.5 135t72.5 190.5l-22 -469h217q-5 106 -7 371t-2 562 t-1 353h-232q0 -12 -1 -34t-5.5 -88.5t-11 -131t-19.5 -152.5t-29.5 -163.5t-42.5 -153t-57 -132t-74.5 -89t-93.5 -35.5q-65 -1 -114 42.5t-76 114t-45 156t-22.5 171t-6 156t1.5 115.5z" />
<glyph unicode="&#xfb;" horiz-adv-x="1150" d="M952 1174h-231l-141 225q-27 -23 -79.5 -65t-93.5 -76.5t-77 -67.5q-24 1 -88.5 5.5t-98.5 4.5q131 139 211 205q18 16 66.5 55t73.5 62l217 -9q11 -6 62.5 -79t110.5 -160.5t68 -99.5zM266 1010h-229q2 -149 6.5 -262.5t15 -223t27.5 -188.5t43 -149.5t61 -117t82 -80.5 t107 -49.5t135 -15.5q29 0 64.5 12.5t81.5 46.5t89 84.5t85.5 135t72.5 190.5l-22 -469h217q-5 107 -7 340.5t-2 500t-1 322.5h-232q0 -11 -1 -30t-5.5 -77t-11 -114.5t-19.5 -133.5t-29.5 -143t-42.5 -133.5t-57 -115.5t-74.5 -78t-93.5 -31q-65 -1 -114 41.5t-76 111.5 t-45 152t-22.5 166.5t-6 152.5t1.5 112z" />
<glyph unicode="&#xfc;" horiz-adv-x="1150" d="M37 1030h229q-1 -17 -2.5 -46t-1 -112t6 -159t22.5 -168t44.5 -158.5t76.5 -111.5t114 -44q63 1 115 53t83.5 135t55.5 183t35 199.5t17 182t7 134.5l1 51h252q1 -56 1 -343t2 -541.5t7 -360.5h-217l22 469q-30 -106 -72.5 -190.5t-85.5 -135t-89 -84.5t-81.5 -46.5 t-64.5 -12.5q-85 0 -151.5 23t-116 64.5t-85 112.5t-59 155t-37.5 204.5t-20 248t-8 298.5zM707 1282q26 -30 102 -27.5t111 37.5q19 19 20 68t-25 76q-41 38 -85.5 46.5t-78.5 -5.5t-57 -41q-21 -24 -20.5 -57.5t10.5 -57t23 -39.5zM354 1280q-27 -30 -95 -22t-105 45 q-19 13 -19 75t29 82q118 82 205 -22q21 -25 21 -59.5t-11 -59t-25 -39.5z" />
<glyph unicode="&#xfd;" horiz-adv-x="1177" d="M211 1133l-96 217q292 113 770 258l65 -197q-127 -26 -352 -109.5t-387 -168.5zM272 985l-274 -29l397 -792q-25 -40 -65.5 -105t-126 -202t-141.5 -228.5t-54 -91.5l295 -29l340 650l531 882h-381q-17 -40 -44 -105.5t-84.5 -203.5t-97 -228.5t-41.5 -88.5z" />
<glyph unicode="&#xfe;" horiz-adv-x="1093" d="M285 848l14 -705q30 -1 66.5 3t87 14.5t96.5 34.5t87 58.5t67 91t28 126.5q2 69 -10 125.5t-35 94.5t-54.5 68t-67.5 45.5t-74.5 27.5t-75.5 13.5t-70 4t-59 -1.5zM326 -451h-273l10 1723q12 0 60.5 1.5t99.5 1.5t96 -3v-287q79 19 159.5 20t156.5 -16t143 -54.5 t118.5 -91t83 -131.5t36.5 -171q5 -92 -14.5 -169.5t-57.5 -132t-88 -98.5t-107.5 -70.5t-114.5 -46t-109.5 -28.5t-93.5 -13.5t-65 -4.5l-24 -1z" />
<glyph unicode="&#xff;" horiz-adv-x="1177" d="M-2 956l274 29q248 -563 254 -571q3 -3 64.5 153.5t121.5 314.5l60 158h381l-510 -882l-340 -650q-289 29 -295 29q-3 0 94 156.5t195 313.5l98 157zM748 1241q26 -30 102 -27.5t111 37.5q19 19 20 68t-25 76q-41 38 -85.5 46.5t-78.5 -5.5t-57 -41q-21 -24 -20.5 -57.5 t10.5 -57t23 -39.5zM395 1239q-27 -30 -95 -22t-105 45q-19 13 -19 75t29 82q118 82 205 -22q21 -25 21 -59.5t-11 -59t-25 -39.5z" />
<glyph unicode="&#x152;" horiz-adv-x="1671" d="M1608 -25h-723q-2 58 -4 146q-149 -166 -363 -166q-103 0 -186.5 44.5t-138 117t-92 169.5t-54 196.5t-18.5 203.5q-1 62 8.5 135.5t30.5 159t60 164t91 143t129.5 103.5t169.5 39q207 0 346 -136q0 99 2 99q4 0 375 4t375 4q3 -8 3 -53t-3 -98l-2 -52q-3 0 -262.5 11 t-270.5 10l19 -375h66q65 1 134 1h133.5t75.5 -1l15 -193l-385 -20q-10 -512 0 -512l469 28v-172zM512 1167q-90 -1 -156.5 -71t-98.5 -178t-34 -238q-1 -91 29 -175t76.5 -138.5t100 -86t99.5 -28.5q94 5 173 68.5t122 159.5t43 200q0 65 -11.5 130.5t-38 131t-66 115 t-101.5 80.5t-137 30z" />
<glyph unicode="&#x153;" horiz-adv-x="1601" d="M950 743l443 5q-1 11 -3.5 29.5t-13 66t-24.5 83.5t-40 65t-57 28q-59 -1 -117.5 -34t-98 -77.5t-64.5 -90.5t-25 -75zM1520 616l-584 -6q-6 -21 -3 -62t8 -90.5t20 -101t34 -93t49 -66.5t66 -23q71 3 121.5 48.5t64.5 133.5q8 1 51.5 0t97 -4.5t58.5 -7.5 q-10 -88 -72.5 -167.5t-148 -125t-166.5 -45.5q-73 0 -163 39.5t-158 126.5q-109 -195 -303 -195q-78 0 -144.5 23t-113 61.5t-83.5 90t-59.5 106t-36 111.5t-18 106t-2.5 90q5 98 37.5 184t88.5 152t141 104.5t190 38.5q100 0 178 -45t114 -145q25 91 76.5 156.5t118.5 100 t140 48.5t153 8q59 -5 105 -38t71.5 -81.5t43 -106.5t23 -115.5t7 -104.5t0.5 -76zM723 479q0 39 -8.5 81.5t-27.5 86.5t-46 78t-69 56t-91 22q-104 0 -180 -79t-72 -198q3 -140 77.5 -237t174.5 -94q95 3 167.5 88.5t74.5 195.5z" />
<glyph unicode="&#x178;" horiz-adv-x="1021" d="M-10 1475h209q239 -377 245 -383q3 -3 53 93t99 193l49 97h354l-456 -631l-19 -844h-223q-3 0 0 212.5t7 425.5l5 212zM645 1548q26 -30 102 -27t111 38q19 19 20.5 67.5t-24.5 75.5q-41 38 -85.5 46.5t-78.5 -5.5t-57 -41q-21 -24 -21 -57.5t10 -57t23 -39.5zM293 1546 q-27 -30 -95.5 -22t-105.5 45q-19 13 -19 75t29 82q118 82 205 -22q21 -25 21 -59.5t-10.5 -59t-24.5 -39.5z" />
<glyph unicode="&#x2c6;" d="M829 1153h-231l-141 225q-27 -23 -79.5 -65t-93.5 -76.5t-77 -67.5q-61 2 -184 2q135 142 210 205q18 16 66.5 55t73.5 62h215q11 -6 62.5 -79.5t110.5 -160.5t68 -100z" />
<glyph unicode="&#x2dc;" d="M59 1208q-65 187 -67 189t31 19.5t97 35.5t130 16q62 -1 118.5 -26t108.5 -49t105 -23q56 0 113 23t87 46l29 23l66 -188q-17 -8 -46.5 -20.5t-103 -32t-127.5 -17.5q-64 2 -184 45t-154 41q-33 -3 -83.5 -23.5t-84.5 -39.5z" />
<glyph unicode="&#x2000;" horiz-adv-x="1003" />
<glyph unicode="&#x2001;" horiz-adv-x="2007" />
<glyph unicode="&#x2002;" horiz-adv-x="1003" />
<glyph unicode="&#x2003;" horiz-adv-x="2007" />
<glyph unicode="&#x2004;" horiz-adv-x="669" />
<glyph unicode="&#x2005;" horiz-adv-x="501" />
<glyph unicode="&#x2006;" horiz-adv-x="334" />
<glyph unicode="&#x2007;" horiz-adv-x="334" />
<glyph unicode="&#x2008;" horiz-adv-x="250" />
<glyph unicode="&#x2009;" horiz-adv-x="401" />
<glyph unicode="&#x200a;" horiz-adv-x="111" />
<glyph unicode="&#x2010;" horiz-adv-x="1390" d="M1110 530l-788 -8l-13 248l813 -25z" />
<glyph unicode="&#x2011;" horiz-adv-x="1390" d="M1110 530l-788 -8l-13 248l813 -25z" />
<glyph unicode="&#x2012;" horiz-adv-x="1390" d="M1110 530l-788 -8l-13 248l813 -25z" />
<glyph unicode="&#x2013;" horiz-adv-x="1390" d="M1110 530l-788 -8l-13 248l813 -25z" />
<glyph unicode="&#x2014;" horiz-adv-x="1390" d="M1233 530l-1014 -8l-12 248l1038 -25z" />
<glyph unicode="&#x2018;" horiz-adv-x="612" d="M137 973q-24 30 -30 88.5t15 130t71 121.5q81 81 202 86q31 1 18 -40q-3 -11 -39 -84q-17 -36 -16 -48q80 -26 107 -101q17 -45 -4 -103t-64 -89q-55 -34 -141 -18t-119 57z" />
<glyph unicode="&#x2019;" horiz-adv-x="612" d="M465 1360q24 -30 30.5 -88.5t-14.5 -130t-71 -121.5q-81 -81 -203 -86q-31 -1 -18 40q3 11 39 84q17 36 16 48q-81 27 -107 100q-17 45 4 103.5t64 89.5q55 34 141 18t119 -57z" />
<glyph unicode="&#x201a;" horiz-adv-x="587" d="M184 1696q111 42 291 8q-9 -83 -17 -203t-12 -199l-4 -79q-27 -8 -70 -9t-94 2t-61 3q-20 117 -28.5 267.5t-4.5 209.5z" />
<glyph unicode="&#x201c;" horiz-adv-x="1142" d="M139 1016q-10 21 -14.5 63t-0.5 93.5t29.5 104t69.5 83.5q46 32 75.5 42.5t84.5 6.5q10 -1 12 -14.5t-2.5 -34t-10 -40.5t-10.5 -36.5t-5 -19.5q1 -21 27.5 -40.5t52.5 -28.5l26 -9q35 -37 37 -84t-17.5 -83t-50.5 -58q-42 -22 -104.5 -20.5t-124 24t-74.5 51.5z M672 1016q-11 22 -17 65t-5 96.5t23.5 107.5t65.5 85q61 45 191 45q32 -1 5 -62l-13 -26q-24 -49 -23 -63q1 -21 28.5 -46.5t54.5 -41.5l28 -15q55 -51 8 -157q-29 -44 -109 -51.5t-151.5 13t-85.5 50.5z" />
<glyph unicode="&#x201d;" horiz-adv-x="1142" d="M1018 1360q10 -21 14.5 -63t0.5 -93.5t-29.5 -104t-69.5 -83.5q-46 -32 -75.5 -42.5t-84.5 -6.5q-10 1 -12 14.5t2.5 34t10.5 40.5t11 36.5t5 19.5q-1 21 -27.5 40.5t-53.5 28.5l-26 9q-35 37 -37 84t17.5 83t50.5 58q53 36 167.5 13t135.5 -68zM485 1360q11 -22 17 -65 t5 -96.5t-23.5 -107.5t-65.5 -85q-62 -45 -191 -45q-32 1 -5 63q4 9 13 27q23 48 23 61q-1 21 -28.5 46.5t-55.5 40.5l-27 15q-56 51 -8 158q28 44 108 51.5t152 -13t86 -50.5z" />
<glyph unicode="&#x201e;" horiz-adv-x="1040" d="M561 1704q214 33 283 -6q-4 -107 -23.5 -242t-40.5 -205q-121 -36 -231 -20q48 294 12 473zM147 1686q112 51 291 30q-3 -100 -2 -207t4 -191l2 -83q-26 -11 -69 -15.5t-94.5 -5.5t-61.5 -2q-28 118 -49 268.5t-21 205.5z" />
<glyph unicode="&#x2022;" horiz-adv-x="552" d="M258 952q65 -3 112 -37.5t67.5 -84t28 -96.5t3.5 -85q-9 -100 -73 -165.5t-165 -59.5q-98 4 -141.5 77.5t-40.5 178.5q1 37 12.5 81.5t34.5 90t65.5 74.5t96.5 26z" />
<glyph unicode="&#x2026;" horiz-adv-x="1898" d="M1075 131q-2 62 -42 105.5t-122 39.5q-96 -4 -138 -47.5t-40 -105.5q0 -61 47 -95t123 -32q34 0 71.5 12t69.5 44.5t31 78.5zM1350 150q0 -62 39.5 -106.5t121.5 -41.5q96 3 138.5 46t42.5 104q0 62 -46 96.5t-120 34.5q-36 0 -73.5 -11.5t-70 -43.5t-32.5 -78zM164 33 q-13 14 -24 46t-10 72t22 64q23 27 65.5 44t96.5 11t94 -43q24 -27 21.5 -98t-21.5 -90q-34 -34 -126.5 -35t-117.5 29z" />
<glyph unicode="&#x202f;" horiz-adv-x="401" />
<glyph unicode="&#x2039;" horiz-adv-x="657" d="M86 567v299q102 68 211 144q60 42 132 87.5t83 53.5l55 -264l-321 -205q71 -104 147 -190q14 -15 105 -119q7 -8 22.5 -24.5t22.5 -24.5q-2 -50 -12.5 -106t-20.5 -87l-10 -31q-27 24 -63 63.5t-99 112.5t-82 95q-20 23 -60 70t-57 67q-41 44 -53 59z" />
<glyph unicode="&#x203a;" horiz-adv-x="755" d="M643 713v-301q-103 -68 -209 -144q-124 -86 -239 -145l-31 268l319 205q-254 319 -295 358q26 106 58 174q7 -6 35 -31t37.5 -33.5t33.5 -31t39.5 -37.5t38 -39t45.5 -49q24 -27 63.5 -73t53.5 -62q33 -41 51 -59z" />
<glyph unicode="&#x205f;" horiz-adv-x="501" />
<glyph unicode="&#x20ac;" horiz-adv-x="892" d="M338 184q-42 47 -81.5 121t-61.5 139q-16 1 -72 3.5t-66 3.5q-3 13 -6.5 67.5t-5.5 63.5q16 1 129 -7q-1 10 0.5 29.5t1.5 20.5q0 2 -56.5 0t-56.5 0q6 117 11 145q110 -4 116 -4q3 53 50 167t114 146q94 42 229 54t238 -11l-18 -178q-208 24 -332 -10q-60 -16 -86 -55.5 t-31 -106.5q16 0 217.5 -9.5t216.5 -12.5l-4 -101l-426 -10q0 -4 -1 -11t-1 -19.5t2 -35.5l385 -6q6 -85 17 -137q-357 6 -412 8q18 -67 72 -109t127 -55q79 -13 136.5 -11.5t150.5 16.5v-138q-54 -13 -144 -22t-200 4.5t-152 60.5z" />
<glyph unicode="&#x2122;" horiz-adv-x="1718" d="M848 123q22 883 26 883q1 0 97.5 -4.5t97.5 -4.5q2 0 42.5 -99t80 -197t39.5 -97l151 436q197 0 197 -2l45 -886h-184l-2 546l-135 -307l-132 -4l-180 442q2 -45 6 -118t12 -227.5t13 -257.5t4 -103h-178zM797 1010l-748 -17q-2 -92 6 -92q21 0 146 -3.5t125 -6.5v-768v0 v0v0h1v0h1v0h1v0h1h1v0h1h1h1h1h1h1h1h1h1h1h1h1h1h1h1h1h1h1h1h1h1h1h1h1h1h1h1h1h1h1h1h1h1h1h1h2h1h1h1h1h1h1h1h2h1h1h1h1h2h1h1h1h2h1h1h1h2h1h1h2h1h1h2h1h1h2h1h2h1h1h2h1h2h1h2h1h1h2h1h2h1h2h1h2h1h2h2h1h2h1h2h1h2h1h2h2h1h2h2h1h2h1h2h2h1h2h2h2h1h2h2h1h2h2h2h1 h2h2h2h1h2h2h2h2h2h1h2h2h2h2h2h2h1h2h2h2h2h2h2h2h2h2h2h9q-3 0 -4.5 180t-1.5 361v180l260 -13v179z" />
<glyph unicode="&#x25fc;" horiz-adv-x="1095" d="M0 1096h1096v-1096h-1096v1096z" />
<glyph unicode="&#xfb01;" horiz-adv-x="2048" />
</font>
</defs>
</svg>
