<?xml version="1.0" standalone="no"?>
<!DOCTYPE svg PUBLIC "-//W3C//DTD SVG 1.1//EN" "http://www.w3.org/Graphics/SVG/1.1/DTD/svg11.dtd" >
<svg xmlns="http://www.w3.org/2000/svg">
<metadata></metadata>
<defs>
<font id="american_captain_eternalRg" horiz-adv-x="727" >
<font-face units-per-em="1000" ascent="750" descent="-250" />
<missing-glyph horiz-adv-x="225" />
<glyph horiz-adv-x="0" />
<glyph horiz-adv-x="333" />
<glyph unicode=" "  horiz-adv-x="225" />
<glyph unicode="&#x09;" horiz-adv-x="225" />
<glyph unicode="&#xa0;" horiz-adv-x="225" />
<glyph unicode="!" horiz-adv-x="348" d="M94 230l-49 497h258l-50 -497h-159zM174 -13q-59 0 -86 20.5t-27 79.5q0 58 27 78.5t86 20.5q58 0 85 -20.5t27 -78.5q0 -59 -27 -79.5t-85 -20.5z" />
<glyph unicode="&#x22;" horiz-adv-x="505" d="M67 382l-22 355h179l-26 -355h-131zM303 382l-23 355h180l-26 -355h-131z" />
<glyph unicode="#" horiz-adv-x="803" d="M160 0l34 195h-142l21 128h141l14 78h-148l22 127h148l34 199h125l-33 -199h106l35 199h125l-33 -199h142l-22 -127h-140l-14 -78h148l-23 -128h-147l-34 -195h-127l34 195h-106l-34 -195h-126zM341 323h107l13 78h-107z" />
<glyph unicode="$" horiz-adv-x="477" d="M177 0v62h-71l-38 149h97q39 0 44.5 20t-16.5 42q-6 7 -40 41t-52.5 56t-37 59t-18.5 71q0 128 141 150v77h126v-72h63l39 -150h-98q-96 0 -24 -71q5 -6 29 -30.5t38.5 -42.5t33.5 -44t29 -51.5t10 -49.5q0 -53 -29.5 -94t-100.5 -55v-67h-125z" />
<glyph unicode="%" horiz-adv-x="778" d="M194 441q-62 0 -105.5 43.5t-43.5 104.5t43.5 104.5t104.5 43.5t104.5 -43.5t43.5 -104.5q0 -62 -43 -105t-104 -43zM193 542q20 0 34 13.5t14 32.5q0 20 -14 34.5t-33 14.5q-20 0 -34.5 -14t-14.5 -33q0 -20 14 -34t34 -14zM316 0h-122l268 727h115zM586 -12 q-62 0 -106 43.5t-44 104.5t43.5 104.5t105.5 43.5q61 0 104.5 -43.5t43.5 -104.5t-43.5 -104.5t-103.5 -43.5zM585 90q19 0 32.5 13t14.5 32q1 20 -12.5 34t-33.5 15t-34.5 -13t-14.5 -34t14 -33.5t34 -13.5z" />
<glyph unicode="&#x26;" horiz-adv-x="876" d="M522 0h-346q-57 0 -91.5 33.5t-34.5 91.5v248q0 64 48 101t127 37l-46 60q-44 52 -23.5 104t87.5 52h459l42 -194h-266l134 -180l10 10q15 15 15 52v26h193v-68v-16t-0.5 -18.5t-2 -18t-4.5 -20t-9 -19t-14 -19.5l-71 -70l147 -192h-273l-34 46zM303 181h125l26 23 l-127 170h-24q-14 0 -20 -6t-6 -21v-141q0 -25 26 -25z" />
<glyph unicode="'" horiz-adv-x="270" d="M68 382l-23 355h180l-26 -355h-131z" />
<glyph unicode="(" horiz-adv-x="346" d="M329 -114q-139 0 -209 69.5t-70 229.5v357q0 160 70 229.5t209 69.5q5 0 14 -0.5t13 -0.5v-78q-47 2 -64.5 -7.5t-17.5 -41.5v-699q0 -32 17.5 -41.5t64.5 -7.5v-78q-4 0 -13 -0.5t-14 -0.5z" />
<glyph unicode=")" horiz-adv-x="346" d="M17 -114q-5 0 -14 0.5t-13 0.5v78q47 -2 64.5 7.5t17.5 41.5v699q0 32 -17.5 41.5t-64.5 7.5v78q4 0 13 0.5t14 0.5q139 0 209 -69.5t70 -229.5v-357q0 -160 -70 -229.5t-209 -69.5z" />
<glyph unicode="*" horiz-adv-x="522" d="M185 327l35 151l-104 -111l-71 130l140 38l-140 39l71 129l104 -109l-35 150h146l-35 -150l103 109l72 -129l-139 -39l139 -38l-71 -130l-104 111l35 -151h-146z" />
<glyph unicode="+" horiz-adv-x="654" d="M244 81v203h-197v161h197v202h170v-202h198v-161h-198v-203h-170z" />
<glyph unicode="," horiz-adv-x="324" d="M145 -94q21 47 21 80q-64 0 -92.5 23t-28.5 90q0 103 115 103q64 0 91.5 -25.5t27.5 -82.5q0 -44 -21.5 -103t-41.5 -85h-71z" />
<glyph unicode="-" horiz-adv-x="408" d="M52 242v182h304v-182h-304z" />
<glyph unicode="." horiz-adv-x="323" d="M162 -14q-61 0 -89 23t-28 84t28.5 85t88.5 24q59 0 87.5 -24t28.5 -85t-28 -84t-88 -23z" />
<glyph unicode="/" horiz-adv-x="356" d="M25 -10l142 747h164l-142 -747h-164z" />
<glyph unicode="0" d="M188 0q-60 0 -98 39.5t-38 98.5v453q0 58 38.5 97t97.5 39h349q60 0 99 -39t39 -97v-454q0 -59 -39.5 -98t-98.5 -39h-349zM326 194h73q44 0 44 44v255q0 20 -13 30.5t-35 10.5h-68q-43 0 -43 -41v-255q0 -44 42 -44z" />
<glyph unicode="1" horiz-adv-x="401" d="M20 533l79 194h249v-727h-239v533h-89z" />
<glyph unicode="2" horiz-adv-x="667" d="M40 0v142q0 191 141 255q40 20 108 34q62 13 79 28q18 15 18 41q0 33 -26 33h-298l38 194h395q64 0 98 -34.5t34 -91.5v-137q-5 -116 -111 -166q-29 -14 -91 -31t-94.5 -34.5t-32.5 -46.5h326l-40 -186h-544z" />
<glyph unicode="3" horiz-adv-x="667" d="M75 0l-40 194h302q17 0 20.5 4.5t3.5 16.5v96q0 12 -3 15t-13 3h-234l148 204h-209l44 194h536l-197 -262q87 3 132 -27.5t45 -114.5v-211q0 -57 -35.5 -84.5t-92.5 -27.5h-407z" />
<glyph unicode="4" horiz-adv-x="747" d="M398 0v135h-348v188l46 95v309h215v-309l-27 -82h114v391h223v-391h81v-201h-81v-135h-223z" />
<glyph unicode="5" horiz-adv-x="677" d="M571 727l40 -194h-331v-84h197q80 0 115 -33.5t35 -115.5v-148q0 -84 -43 -118t-135 -34h-356l-41 194h310q12 0 12 14v59q0 14 -12 14h-310v446h519z" />
<glyph unicode="6" horiz-adv-x="708" d="M192 727h409l40 -194h-320q-21 0 -27 -5.5t-6 -20.5v-49h242q126 0 126 -123v-214q0 -55 -34.5 -88t-89.5 -33h-351q-129 0 -129 120v477q0 58 35 94t105 36zM391 306h-74q-20 0 -27.5 -7.5t-7.5 -27.5v-56q0 -21 7 -29t27 -8h75q21 0 28 8t7 29v56q0 20 -7.5 27.5 t-27.5 7.5z" />
<glyph unicode="7" horiz-adv-x="668" d="M30 533l40 194h573l-243 -727h-272l193 533h-291z" />
<glyph unicode="8" horiz-adv-x="736" d="M553 0h-371q-54 0 -93 31.5t-39 86.5v203q0 42 63 70q-16 8 -29.5 26t-13.5 40v147q0 50 37 86.5t88 36.5h346q50 0 86.5 -36.5t36.5 -86.5v-147q0 -22 -12.5 -40.5t-29.5 -25.5q64 -28 64 -70v-203q0 -55 -39.5 -86.5t-93.5 -31.5zM317 167h101q13 0 24 11.5t11 25.5v51 q0 14 -10.5 25t-24.5 11h-101q-14 0 -24.5 -11t-10.5 -25v-51q0 -14 11 -25.5t24 -11.5zM324 458h87q12 0 22.5 10t10.5 23v45q0 13 -10.5 23t-22.5 10h-87q-12 0 -22.5 -10t-10.5 -23v-45q0 -13 10.5 -23t22.5 -10z" />
<glyph unicode="9" horiz-adv-x="709" d="M517 0h-415l-40 194h318q21 0 27 5.5t6 20.5v49h-235q-126 0 -126 123v214q0 54 33.5 87.5t87.5 33.5h354q130 0 130 -120v-477q0 -57 -34 -93.5t-106 -36.5zM315 421h70q20 0 27.5 7.5t7.5 27.5v56q0 21 -7 29t-27 8h-71q-21 0 -28 -8t-7 -29v-56q0 -20 7.5 -27.5 t27.5 -7.5z" />
<glyph unicode=":" horiz-adv-x="334" d="M168 327q-61 0 -89 23t-28 84t28.5 85t88.5 24q59 0 87.5 -24t28.5 -85t-28 -84t-88 -23zM168 -14q-61 0 -89 23t-28 84t28.5 85t88.5 24q59 0 87.5 -24t28.5 -85t-28 -84t-88 -23z" />
<glyph unicode=";" horiz-adv-x="334" d="M150 -94q21 47 21 80q-64 0 -92.5 23t-28.5 90q0 103 115 103q64 0 91.5 -25.5t27.5 -82.5q0 -44 -21.5 -103t-41.5 -85h-71zM168 327q-61 0 -89 23t-28 84t28.5 85t88.5 24q59 0 87.5 -24t28.5 -85t-28 -84t-88 -23z" />
<glyph unicode="&#x3c;" horiz-adv-x="532" d="M480 60l-435 213v178l435 214v-195l-266 -108l266 -110v-192z" />
<glyph unicode="=" horiz-adv-x="546" d="M60 162v157h426v-157h-426zM60 403v157h426v-157h-426z" />
<glyph unicode="&#x3e;" horiz-adv-x="532" d="M487 273l-435 -213v192l266 110l-266 108v195l435 -214v-178z" />
<glyph unicode="?" horiz-adv-x="622" d="M221 -13q-60 0 -86.5 20.5t-26.5 79.5q0 58 26.5 78.5t86.5 20.5q58 0 85 -20.5t27 -78.5q0 -59 -27 -79.5t-85 -20.5zM35 534l42 193h337q82 0 119 -34.5t37 -109.5v-145q0 -89 -28.5 -121.5t-115.5 -32.5h-100q-7 0 -8 -1t-1 -7v-45h-191v120q0 47 26 66t79 19h90 q24 0 24 20v58q0 20 -24 20h-286z" />
<glyph unicode="@" horiz-adv-x="881" d="M632 442h-85q-24 0 -24 -22v-114q0 -20 22 -20h87v156zM342 274v162q0 52 24 75.5t87 23.5h196v29q0 12 -1 16t-8.5 8t-24.5 4h-332q-31 0 -31 -30v-416q0 -10 4.5 -14t18.5 -4h473l-47 -128h-518q-68 0 -100 26t-32 85v486q-1 59 27 94.5t106 35.5h519q43 0 70.5 -11 t39 -32.5t15 -39.5t3.5 -44v-424h-199v33l-41 -33h-144q-60 0 -82.5 27t-22.5 71z" />
<glyph unicode="A" horiz-adv-x="744" d="M263 0h-238l183 727h327l184 -727h-238l-15 78h-187zM372 531l-61 -298h122z" />
<glyph unicode="B" horiz-adv-x="709" d="M52 0v727h436q90 0 122.5 -31.5t32.5 -117.5v-149q0 -50 -55 -58q26 -4 48.5 -24.5t22.5 -49.5v-144q0 -88 -32.5 -120.5t-120.5 -32.5h-454zM278 164h106q23 0 34.5 6t11.5 25v48q0 38 -45 38h-107v-117zM278 435h109q20 0 27.5 7.5t7.5 27.5v45q0 32 -46 32h-98v-112z " />
<glyph unicode="C" horiz-adv-x="611" d="M532 0h-324q-86 0 -121 33t-35 116v427q0 87 36.5 119t125.5 32h315l41 -194h-252q-20 0 -27.5 -7.5t-7.5 -27.5v-264q0 -26 7.5 -33t36.5 -7h254z" />
<glyph unicode="D" horiz-adv-x="710" d="M52 0v727h444q88 0 125 -37.5t37 -125.5v-400q0 -90 -36.5 -127t-125.5 -37h-444zM277 194h121q22 0 28.5 7t6.5 28v270q0 21 -7 28t-29 7h-120v-340z" />
<glyph unicode="E" horiz-adv-x="616" d="M582 533h-304v-88h259v-171h-259v-80h306l-48 -194h-484v727h490z" />
<glyph unicode="F" horiz-adv-x="612" d="M582 533h-304v-103h259v-172h-260v-258h-225v727h490z" />
<glyph unicode="G" horiz-adv-x="705" d="M610 533h-293q-20 0 -27.5 -7t-7.5 -28v-278q0 -21 7.5 -28t27.5 -7h121v98h-46v148h263v-421l-217 -49v39h-231q-89 0 -122 31.5t-33 116.5v423q0 88 33 122t122 34h363z" />
<glyph unicode="H" horiz-adv-x="729" d="M52 0v727h234v-272h157v272h234v-727h-234v270h-157v-270h-234z" />
<glyph unicode="I" horiz-adv-x="342" d="M57 0v727h228v-727h-228z" />
<glyph unicode="J" horiz-adv-x="691" d="M482 0h-269q-92 0 -127.5 32t-35.5 120v191h223v-125q0 -20 7.5 -27t27.5 -7h62q22 0 29.5 7t7.5 27v315h-207l40 194h399v-575q0 -89 -33 -120.5t-124 -31.5z" />
<glyph unicode="K" horiz-adv-x="722" d="M333 440l116 287h253l-149 -344l149 -383h-269l-89 264h-42v-264h-250v727h250v-287h31z" />
<glyph unicode="L" horiz-adv-x="576" d="M500 0h-448v727h234v-533h263z" />
<glyph unicode="M" horiz-adv-x="926" d="M52 0v727h286l123 -287l128 287h285v-727h-231v353l-182 -350l-178 350v-353h-231z" />
<glyph unicode="N" horiz-adv-x="735" d="M52 0v727h223l180 -326v326h228v-727h-224l-180 318v-318h-227z" />
<glyph unicode="O" d="M177 0q-56 0 -90.5 35t-34.5 90v476q0 55 34.5 90.5t90.5 35.5h372q56 0 91 -35.5t35 -90.5v-476q0 -55 -39 -90t-96 -35h-363zM314 194h98q20 0 27 7.5t7 27.5v270q0 21 -7.5 28t-27.5 7h-97q-21 0 -27.5 -7t-6.5 -27v-271q0 -21 6.5 -28t27.5 -7z" />
<glyph unicode="P" horiz-adv-x="702" d="M52 0v727h448q88 0 120 -32.5t32 -120.5v-237q0 -89 -32.5 -122t-121.5 -33h-213v-182h-233zM285 370h106q26 0 35 8.5t9 34.5v80q0 26 -9 34t-35 8h-106v-165z" />
<glyph unicode="Q" d="M177 0q-56 0 -90.5 35t-34.5 90v476q0 55 34.5 90.5t90.5 35.5h372q56 0 91 -35.5t35 -90.5v-477q0 -55 -39 -89.5t-96 -34.5h-74v-96h-207v96h-82zM314 194h98q20 0 27 7.5t7 27.5v270q0 21 -7.5 28t-27.5 7h-97q-21 0 -27.5 -7t-6.5 -27v-271q0 -21 6.5 -28t27.5 -7z " />
<glyph unicode="R" horiz-adv-x="712" d="M319 225h-30v-225h-237v727h448q86 0 125.5 -38.5t39.5 -123.5v-191q0 -49 -29 -82.5t-79 -33.5q40 -8 57 -59l70 -199h-255l-66 192q-13 33 -44 33zM285 390h89q38 0 51.5 11t13.5 41v58q0 43 -41 43h-113v-153z" />
<glyph unicode="S" horiz-adv-x="668" d="M459 0h-359l-40 194h305q14 0 14 15v50q0 17 -16 17h-162q-89 0 -120 30.5t-31 117.5v146q0 89 35 123t124 34h362l40 -194h-323q-13 0 -13 -15v-56q0 -16 15 -16h176q88 0 120 -30.5t32 -118.5v-144q0 -87 -35 -120t-124 -33z" />
<glyph unicode="T" horiz-adv-x="652" d="M25 533l41 194h520l41 -194h-178v-533h-246v533h-178z" />
<glyph unicode="U" horiz-adv-x="708" d="M492 0h-277q-94 0 -128.5 27.5t-34.5 115.5v584h227v-499q0 -19 8 -26.5t28 -7.5h78q21 0 28 7t7 27v499h228v-584q0 -88 -35 -115.5t-129 -27.5z" />
<glyph unicode="V" horiz-adv-x="759" d="M534 0h-308l-196 727h245l107 -501l108 501h239z" />
<glyph unicode="W" horiz-adv-x="1021" d="M430 0h-249l-151 727h241l60 -404l99 399h159l100 -399l59 404h243l-153 -727h-247l-81 351z" />
<glyph unicode="X" horiz-adv-x="704" d="M352 231l-68 -231h-259l145 354l-143 373h253l72 -263l71 263h253l-143 -373l146 -354h-261z" />
<glyph unicode="Y" horiz-adv-x="759" d="M20 727h275l90 -268l80 268h274l-232 -493v-234h-252v234z" />
<glyph unicode="Z" horiz-adv-x="623" d="M580 194l-40 -194h-535l266 535h-233l39 192h541l-255 -533h217z" />
<glyph unicode="[" horiz-adv-x="284" d="M50 837h224v-63h-46v-819h46v-65h-224v947z" />
<glyph unicode="\" horiz-adv-x="356" d="M189 737l142 -747h-164l-142 747h164z" />
<glyph unicode="]" horiz-adv-x="284" d="M10 837h224v-947h-224v65h46v819h-46v63z" />
<glyph unicode="^" horiz-adv-x="651" d="M30 469l200 258h193l198 -258h-203l-92 133l-92 -133h-204z" />
<glyph unicode="_" horiz-adv-x="614" d="M42 -144v144h530v-144h-530z" />
<glyph unicode="`" horiz-adv-x="432" d="M244 961l148 -182h-134l-218 182h204z" />
<glyph unicode="a" horiz-adv-x="622" d="M277 146h84v82h-84q-14 0 -21 -4t-8 -9t-1 -17v-25q0 -15 7 -21t23 -6zM264 0h-101q-123 0 -123 123v87q0 69 38.5 93t119.5 24h163v31q0 14 -5.5 19t-22.5 5h-252l44 169h323q58 0 91 -29.5t33 -84.5v-437h-211v47q-17 -25 -45.5 -36t-51.5 -11z" />
<glyph unicode="b" horiz-adv-x="641" d="M267 168h89q29 0 29 26v174q0 27 -29 27h-89v-227zM254 0h-204v727h217v-176h189q135 0 135 -134v-288q0 -63 -35 -96t-101 -33h-103q-72 0 -98 45v-45z" />
<glyph unicode="c" horiz-adv-x="533" d="M461 0h-284q-127 0 -127 119v306q0 61 35 93.5t97 32.5h277l45 -169h-210q-18 0 -23 -4.5t-5 -19.5v-162q0 -15 5.5 -19t23.5 -4h210z" />
<glyph unicode="d" horiz-adv-x="641" d="M284 168h89v227h-84q-15 0 -22.5 -5t-9 -10t-1.5 -14v-172q0 -26 28 -26zM591 0h-204v45q-29 -45 -99 -45h-103q-66 0 -100.5 33.5t-34.5 95.5v289q0 67 37 100t105 33h181v176h218v-727z" />
<glyph unicode="e" horiz-adv-x="618" d="M181 0q-62 0 -96.5 30.5t-34.5 85.5v305q0 130 131 130h255q131 0 131 -130v-135q0 -51 -55 -51h-255v-39q0 -15 4.5 -19t20.5 -4h286l-44 -173h-343zM257 339h117v40q0 17 -5 23.5t-22 6.5h-61q-16 0 -22.5 -7t-6.5 -23v-40z" />
<glyph unicode="f" horiz-adv-x="462" d="M50 0v595q0 66 37.5 99t104.5 33h205l45 -169h-139q-19 0 -26 -5.5t-7 -23.5v-93h146v-161h-146v-275h-220z" />
<glyph unicode="g" horiz-adv-x="643" d="M375 393h-89q-28 0 -28 -26v-170q0 -10 0.5 -14t7.5 -9.5t22 -5.5h87v225zM381 -31v77q-17 -25 -45 -35.5t-50 -10.5h-97q-139 0 -139 134v289q0 62 34.5 95t100.5 33h94q23 0 51 -10.5t45 -35.5v46h218v-582q0 -90 -45.5 -135t-147.5 -45h-280l-45 155h278 q15 0 21.5 5.5t6.5 19.5z" />
<glyph unicode="h" horiz-adv-x="653" d="M361 551h107q75 0 105 -28.5t30 -94.5v-428h-217v363q0 21 -8.5 26.5t-35.5 5.5h-40q-18 0 -26 -8.5t-8 -29.5v-357h-218v727h213v-222q28 46 98 46z" />
<glyph unicode="i" horiz-adv-x="328" d="M53 0v551h221v-551h-221zM262 595h-197l-32 147h262z" />
<glyph unicode="j" horiz-adv-x="330" d="M276 551v-584q0 -89 -48 -133.5t-151 -44.5h-94l-44 155h89q27 0 27 25v582h221zM264 595h-197l-32 147h262z" />
<glyph unicode="k" horiz-adv-x="643" d="M50 0v727h221v-359l106 183h231l-148 -247l180 -304h-252l-117 211v-211h-221z" />
<glyph unicode="l" horiz-adv-x="331" d="M53 0v727h225v-727h-225z" />
<glyph unicode="m" horiz-adv-x="985" d="M671 395h-36q-17 0 -24.5 -8t-7.5 -29v-358h-218v363q0 21 -8.5 26.5t-34.5 5.5h-38q-17 0 -25 -8t-8 -29v-358h-221v551h217v-46q28 46 98 46h93q51 0 78.5 -13t40.5 -43q22 56 110 56h108q76 0 108 -28.5t32 -94.5v-428h-220v363q0 21 -8.5 26.5t-35.5 5.5z" />
<glyph unicode="n" horiz-adv-x="648" d="M366 551h95q75 0 106 -28.5t31 -94.5v-428h-221v363q0 22 -7.5 27t-32.5 5h-31q-19 0 -27.5 -7.5t-8.5 -28.5v-359h-220v551h217v-46q28 46 99 46z" />
<glyph unicode="o" horiz-adv-x="643" d="M188 0q-138 0 -138 136v275q0 67 37.5 103.5t101.5 36.5h265q64 0 101.5 -36.5t37.5 -103.5v-273q0 -69 -37 -103.5t-102 -34.5h-266zM290 157h61q16 0 22 4.5t6 19.5v187q0 15 -6 20.5t-22 5.5h-61q-17 0 -22.5 -5t-5.5 -21v-185q0 -16 5.5 -21t22.5 -5z" />
<glyph unicode="p" horiz-adv-x="646" d="M359 393h-92v-225h86q22 0 28.5 7t6.5 19v173q0 26 -29 26zM264 551v-46q18 25 47 35.5t51 10.5h98q67 0 101.5 -33t34.5 -95v-289q0 -134 -136 -134h-101q-22 0 -50 10.5t-45 35.5v-257h-214v762h214z" />
<glyph unicode="q" horiz-adv-x="647" d="M380 393h-91q-16 0 -22.5 -5.5t-6.5 -20.5v-173q0 -8 1.5 -12.5t9.5 -9t22 -4.5h87v225zM671 -56l-99 -155h-192v257q-16 -25 -44.5 -35.5t-49.5 -10.5h-106q-67 0 -98.5 30.5t-31.5 98.5v294q0 62 34.5 95t100.5 33h101q21 0 49.5 -10.5t44.5 -35.5v46h217v-607h74z" />
<glyph unicode="r" horiz-adv-x="500" d="M368 551h70l42 -169h-167q-40 0 -40 -35v-347h-223v551h219v-43q28 43 99 43z" />
<glyph unicode="s" horiz-adv-x="564" d="M95 0l-56 173h255q-13 16 -45.5 32t-60 24.5t-84.5 25.5q-69 20 -69 97v75q0 62 37 93t103 31h296l54 -169h-307q123 -23 232 -92q76 -48 77 -129v-53q0 -108 -143 -108h-289z" />
<glyph unicode="t" horiz-adv-x="446" d="M373 0h-189q-134 0 -134 130v531l216 101v-211h139v-169h-138v-181q0 -18 5.5 -23.5t25.5 -5.5h118z" />
<glyph unicode="u" horiz-adv-x="648" d="M284 0h-96q-74 0 -106 32t-32 98v421h220v-356q0 -23 7.5 -30.5t33.5 -7.5h31q34 0 34 38v356h222v-551h-216v45q-29 -45 -98 -45z" />
<glyph unicode="v" horiz-adv-x="678" d="M205 0l-178 551h234l79 -331l79 331h232l-182 -551h-264z" />
<glyph unicode="w" horiz-adv-x="905" d="M147 0l-107 551h223l32 -316l71 316h174l71 -319l30 319h224l-108 -551h-254l-51 248q-30 -137 -51 -248h-254z" />
<glyph unicode="x" horiz-adv-x="627" d="M366 0l-52 138l-52 -138h-237l135 288l-130 263h228l56 -154q6 16 26 71t30 83h229l-132 -263l135 -288h-236z" />
<glyph unicode="y" horiz-adv-x="700" d="M190 45l-163 506h239l83 -327l86 327h238l-237 -762h-219l70 211h-30q-52 0 -67 45z" />
<glyph unicode="z" horiz-adv-x="572" d="M15 0l216 382h-190l45 169h471l-204 -382h174l-43 -169h-469z" />
<glyph unicode="{" horiz-adv-x="331" d="M149 364q67 -8 98.5 -60.5t28.5 -111.5q0 -12 -1 -34.5t-1.5 -36t-1 -34.5t1.5 -34.5t5 -30t9 -26.5t14 -19t20.5 -13t28.5 -4v-56h-66q-76 0 -124 24.5t-65.5 65.5t-22.5 94.5t5 110.5q4 41 3.5 70.5t-20 46t-61.5 15.5v65q42 -1 61.5 15.5t20 46t-3.5 70.5 q-10 57 -5 110.5t22.5 94.5t65.5 65.5t124 24.5h66v-56q-16 0 -28.5 -4t-20.5 -13t-14 -19t-9 -26.5t-5 -30t-1.5 -34.5t1 -34.5t1.5 -36t1 -34.5q3 -59 -28.5 -111t-98.5 -60z" />
<glyph unicode="|" horiz-adv-x="288" d="M50 -210v1037h188v-1037h-188z" />
<glyph unicode="}" horiz-adv-x="333" d="M184 364q-67 8 -98.5 60t-28.5 111q0 12 1 34.5t1.5 36t1 34.5t-1.5 34.5t-5 30t-9 26.5t-14 19t-20.5 13t-28.5 4v56h66q76 0 124 -24.5t65.5 -65.5t22.5 -94.5t-5 -110.5q-4 -41 -3.5 -70.5t20 -46t61.5 -15.5v-65q-42 1 -61.5 -15.5t-20 -46t3.5 -70.5 q10 -57 5 -110.5t-22.5 -94.5t-65.5 -65.5t-124 -24.5h-66v56q16 0 28.5 4t20.5 13t14 19t9 26.5t5 30t1.5 34.5t-1 34.5t-1.5 36t-1 34.5q-3 59 28.5 111.5t98.5 60.5z" />
<glyph unicode="~" horiz-adv-x="594" d="M121 228h-72q-11 64 -4 118t45 90t98 36q76 0 234 -69q25 -6 38 14.5t13 53.5h76q10 -59 1 -113t-43.5 -93t-90.5 -39q-50 0 -108 17q-48 17 -142 61q-23 11 -34 -15.5t-11 -60.5z" />
<glyph unicode="&#xa1;" horiz-adv-x="328" d="M35 -150l49 497h159l50 -497h-258zM164 590q58 0 85 -20.5t27 -79.5q0 -58 -27 -78.5t-85 -20.5q-59 0 -86 20.5t-27 78.5q0 59 27 79.5t86 20.5z" />
<glyph unicode="&#xa2;" horiz-adv-x="499" d="M347 0h-141v157q-66 0 -116 58t-50 149q0 89 51 147.5t115 58.5v157h141v-151h77l40 -139h-120q-60 0 -83 -13.5t-23 -59.5t23 -60t83 -14h120l-40 -139h-77v-151z" />
<glyph unicode="&#xa3;" horiz-adv-x="712" d="M182 0l-80 197h154l-43 99h-109l-64 146h109q-46 62 -46 134q0 38 7.5 62.5t30 46t68 32t117.5 10.5h268l42 -201h-235q-29 0 -22 -30l23 -54h143l72 -146h-150l47 -99h163l-48 -197h-447z" />
<glyph unicode="&#xa4;" horiz-adv-x="620" d="M50 191l60 55q-32 54 -32 117q0 62 32 118l-60 54l70 72l56 -52q61 42 134 42t133 -42l57 52l70 -72l-60 -54q32 -58 32 -118t-32 -116l60 -56l-70 -71l-57 52q-60 -42 -133 -42q-72 0 -133 42l-57 -52zM209 363q0 -45 29.5 -75.5t71.5 -30.5t71.5 30.5t29.5 75.5 t-29.5 76t-71.5 31t-71.5 -31t-29.5 -76z" />
<glyph unicode="&#xa5;" d="M243 239l-239 488h275l90 -268l80 268h274l-236 -488v-15h88v-63h-88v-39h88v-64h-88v-58h-244v58h-88v64h88v39h-88v63h88v15z" />
<glyph unicode="&#xa6;" horiz-adv-x="288" d="M50 370v457h188v-457h-188zM50 -210v447h188v-447h-188z" />
<glyph unicode="&#xa7;" horiz-adv-x="601" d="M503 707l-16 -148q-24 20 -69 32t-77 12q-35 0 -53.5 -10t-16.5 -25q3 -26 67 -43q151 -46 194 -126q33 -50 9.5 -112.5t-99.5 -102.5q80 -49 80 -132q0 -80 -63 -121t-173 -41q-106 0 -195 42l12 136q63 -49 157 -49q63 0 63 30q0 32 -112 60q-161 41 -161 167 q0 100 115 151q-44 23 -66.5 60.5t-22.5 78.5q0 80 62 125.5t184 45.5q96 0 181 -30zM264 372q-20 -11 -34.5 -27.5t-14.5 -34.5q0 -11 4.5 -19t17.5 -15.5t23.5 -12.5t36.5 -15.5t43 -17.5q46 25 46 57q0 11 -5 20t-11 15.5t-20 13.5t-23.5 11t-30.5 12t-32 13z" />
<glyph unicode="&#xa8;" horiz-adv-x="534" d="M136 772q-43 0 -69.5 28.5t-26.5 68.5q0 38 26.5 66t69.5 28q44 0 71 -28t27 -66q0 -41 -27 -69t-71 -28zM398 772q-42 0 -69.5 28.5t-27.5 68.5q0 38 27.5 66t69.5 28q44 0 70 -27.5t26 -66.5q0 -41 -25.5 -69t-70.5 -28z" />
<glyph unicode="&#xa9;" horiz-adv-x="818" d="M410 727q151 0 259.5 -105t108.5 -262q0 -159 -108.5 -264.5t-259.5 -105.5q-153 0 -261.5 105.5t-108.5 264.5q0 157 109 262t261 105zM410 665q-126 0 -211 -87.5t-85 -217.5q0 -133 85 -220t211 -87q125 0 209.5 87t84.5 220q0 130 -85 217.5t-209 87.5zM536 291h66 q-14 -72 -63 -114.5t-117 -42.5q-97 0 -156.5 64.5t-59.5 162.5q0 99 58 161.5t155 62.5q72 0 122 -40.5t60 -112.5h-65q-8 41 -39.5 65.5t-76.5 24.5q-66 0 -103 -45t-37 -115q0 -68 39.5 -116.5t102.5 -48.5q46 0 77 26t37 68z" />
<glyph unicode="&#xaa;" horiz-adv-x="587" d="M259 354h81v77h-81q-20 0 -24.5 -6t-4.5 -22v-23q0 -26 29 -26zM249 218h-94q-115 0 -115 115v81q0 65 36.5 88.5t111.5 23.5h152v26q0 14 -5.5 18.5t-21.5 4.5h-232l41 157h299q54 0 85 -27.5t31 -79.5v-407h-197v44q-31 -44 -91 -44z" />
<glyph unicode="&#xab;" horiz-adv-x="646" d="M344 540l-135 -270l135 -270h-166l-158 270l158 270h166zM616 540l-132 -270l132 -270h-169l-155 270l155 270h169z" />
<glyph unicode="&#xac;" horiz-adv-x="735" d="M50 301v169h635v-429h-182v260h-453z" />
<glyph unicode="&#xad;" horiz-adv-x="494" d="M52 275v174h390v-174h-390z" />
<glyph unicode="&#xae;" horiz-adv-x="828" d="M416 737q152 0 262 -106.5t110 -264.5q0 -161 -110 -268.5t-262 -107.5q-155 0 -265.5 107t-110.5 269q0 158 110.5 264.5t265.5 106.5zM416 674q-128 0 -214.5 -88t-86.5 -220q0 -136 86 -224t215 -88q126 0 211.5 88.5t85.5 223.5q0 132 -85.5 220t-211.5 88zM335 336 v-187h-63v431h163q149 0 149 -122q-3 -106 -109 -120l121 -189h-72l-115 187h-74zM335 389h80q24 0 39.5 2t32.5 9t25 22.5t8 39.5q0 67 -94 67h-91v-140z" />
<glyph unicode="&#xaf;" horiz-adv-x="589" d="M50 782v112h489v-112h-489z" />
<glyph unicode="&#xb0;" horiz-adv-x="421" d="M208 408q-69 0 -118.5 51t-49.5 120q0 71 49 121t119 50q71 0 122 -50.5t51 -120.5q0 -69 -51.5 -120t-121.5 -51zM208 520q24 0 41.5 18t17.5 41q0 25 -17.5 42t-41.5 17q-23 0 -40 -17t-17 -42q0 -23 17 -41t40 -18z" />
<glyph unicode="&#xb1;" horiz-adv-x="676" d="M624 0h-572v160h197v131h-197v175h197v206h177v-206h198v-175h-198v-131h198v-160z" />
<glyph unicode="&#xb2;" horiz-adv-x="562" d="M45 120v124q0 57 10 98t23 63.5t38 38.5t43 22t49 13q11 3 17 4q21 5 33 9t28 10.5t23.5 15t7.5 19.5q0 22 -40 22h-212l36 168h315q50 0 75.5 -28t25.5 -66v-116q-2 -61 -24.5 -98.5t-79.5 -63.5q-22 -9 -62 -18.5t-56.5 -20t-16.5 -34.5h239l-40 -162h-432z" />
<glyph unicode="&#xb3;" horiz-adv-x="546" d="M70 120l-40 166h258q14 0 17 3.5t3 14.5v91q0 9 -2.5 11.5t-10.5 2.5h-213l139 160h-181l40 158h431l-159 -207q74 2 111 -23.5t37 -98.5v-183q0 -95 -106 -95h-324z" />
<glyph unicode="&#xb4;" horiz-adv-x="432" d="M40 779l148 182h204l-218 -182h-134z" />
<glyph unicode="&#xb6;" horiz-adv-x="633" d="M593 727v-116h-24v-711h-126v707h-66v-707h-125v439q-113 0 -162.5 50t-49.5 143q0 94 53 144.5t146 50.5h354z" />
<glyph unicode="&#xb7;" horiz-adv-x="323" d="M162 255q-61 0 -89 23t-28 84t28.5 85t88.5 24q59 0 87.5 -24t28.5 -85t-28 -84t-88 -23z" />
<glyph unicode="&#xb8;" horiz-adv-x="404" d="M111 11h96v-55q81 4 114 -27.5t33 -73.5q0 -54 -39.5 -91.5t-134.5 -37.5q-80 0 -130 43l19 71q37 -25 72.5 -30t56.5 7.5t21 34.5q0 51 -108 33v126z" />
<glyph unicode="&#xb9;" horiz-adv-x="346" d="M98 120v440h-68l50 167h216v-607h-198z" />
<glyph unicode="&#xba;" horiz-adv-x="594" d="M180 218q-58 0 -94 34.5t-36 93.5v254q0 58 37.5 95t93.5 37h232q56 0 93.5 -37t37.5 -95v-252q0 -59 -37.5 -94.5t-93.5 -35.5h-233zM271 372h53q17 0 23 4.5t6 20.5v154q0 16 -6.5 21.5t-22.5 5.5h-53q-17 0 -23 -5.5t-6 -21.5v-152q0 -16 6 -21.5t23 -5.5z" />
<glyph unicode="&#xbb;" horiz-adv-x="646" d="M437 270l-135 270h166l158 -270l-158 -270h-166zM162 270l-132 270h169l155 -270l-155 -270h-169z" />
<glyph unicode="&#xbc;" horiz-adv-x="1328" d="M118 117v439h-68l50 168h216v-607h-198zM337 -15l266 754h143l-265 -754h-144zM1015 0v111h-288v159l39 83v254h184v-254l-23 -72h88v326h193v-326h70v-170h-70v-111h-193z" />
<glyph unicode="&#xbd;" horiz-adv-x="1242" d="M118 117v439h-68l50 168h216v-607h-198zM337 -15l266 754h143l-265 -754h-144zM730 0v124q0 34 3 62t10 49t13.5 36.5t20 27t21.5 18.5t26.5 13t27 8.5t29.5 7t29 6.5q50 7 76 30q11 8 11 20q0 17 -23 17h-44h-184l40 188h305q41 0 71 -29.5t30 -64.5v-116 q-2 -50 -9.5 -73.5t-35.5 -49.5q-27 -26 -62.5 -42t-60.5 -20.5t-43 -16.5t-18 -33h229v-162h-462z" />
<glyph unicode="&#xbe;" horiz-adv-x="1506" d="M90 117l-40 166h258q14 0 17 3.5t3 14.5v91q0 9 -2.5 11.5t-10.5 2.5h-213l139 160h-181l40 158h431l-159 -207q74 2 111 -23.5t37 -98.5v-183q0 -95 -106 -95h-324zM516 -15l265 754h143l-265 -754h-143zM1193 0v111h-288v159l39 83v254h184v-254l-23 -72h88v326h193 v-326h70v-170h-70v-111h-193z" />
<glyph unicode="&#xbf;" horiz-adv-x="627" d="M389 590q60 0 86.5 -20.5t26.5 -79.5q0 -58 -26.5 -78.5t-86.5 -20.5q-58 0 -85 20.5t-27 78.5q0 59 27 79.5t85 20.5zM575 43l-40 -193h-339q-82 0 -119 34.5t-37 109.5v145q0 89 28.5 121.5t115.5 32.5h100q7 0 8 1t1 7v45h191v-120q0 -47 -26 -66t-79 -19h-90 q-24 0 -24 -20v-58q0 -20 24 -20h286z" />
<glyph unicode="&#xc0;" horiz-adv-x="744" d="M263 0h-238l183 727h327l184 -727h-238l-15 78h-187zM372 531l-61 -298h122zM302 961l148 -182h-134l-218 182h204z" />
<glyph unicode="&#xc1;" horiz-adv-x="744" d="M25 0h238l16 78h187l15 -78h238l-184 727h-327zM311 233l61 298l61 -298h-122zM305 779l148 182h204l-218 -182h-134z" />
<glyph unicode="&#xc2;" horiz-adv-x="744" d="M25 0h238l16 78h187l15 -78h238l-184 727h-327zM311 233l61 298l61 -298h-122zM148 779l146 182h155l148 -182h-161l-65 92l-64 -92h-159z" />
<glyph unicode="&#xc3;" horiz-adv-x="744" d="M25 0h238l16 78h187l15 -78h238l-184 727h-327zM311 233l61 298l61 -298h-122zM238 778h-106q-9 78 28.5 127.5t120.5 49.5q36 0 96.5 -29t89.5 -29q43 0 40 58h108q9 -94 -26.5 -138.5t-126.5 -41.5q-37 1 -102 33t-88 31q-40 -3 -34 -61z" />
<glyph unicode="&#xc4;" horiz-adv-x="744" d="M25 0h238l16 78h187l15 -78h238l-184 727h-327zM311 233l61 298l61 -298h-122zM241 772q-43 0 -69.5 28.5t-26.5 68.5q0 38 26.5 66t69.5 28q44 0 71 -28t27 -66q0 -41 -27 -69t-71 -28zM503 772q-42 0 -69.5 28.5t-27.5 68.5q0 38 27.5 66t69.5 28q44 0 70 -27.5 t26 -66.5q0 -41 -25.5 -69t-70.5 -28z" />
<glyph unicode="&#xc5;" horiz-adv-x="744" d="M25 0h238l16 78h187l15 -78h238l-184 727h-327zM311 233l61 298l61 -298h-122zM371 762q-52 0 -88.5 37t-36.5 89t36.5 89.5t88.5 37.5t90 -37.5t38 -89.5t-37.5 -89t-90.5 -37zM371 844q18 0 31.5 13t13.5 31t-13.5 30t-31.5 12q-17 0 -30 -12t-13 -30t13 -31t30 -13z " />
<glyph unicode="&#xc6;" horiz-adv-x="1054" d="M1020 533h-304v-88h259v-171h-259v-80h306l-48 -194h-479l1 78h-187l-37 -78h-252l355 727h605zM496 531l-119 -298h119v298z" />
<glyph unicode="&#xc7;" horiz-adv-x="614" d="M532 0h-174v-44q81 4 114 -27.5t33 -73.5q0 -54 -39.5 -91.5t-134.5 -37.5q-80 0 -130 43l19 71q37 -25 72.5 -30t56.5 7.5t21 34.5q0 51 -108 33v115h-68q-85 0 -113.5 29t-28.5 113v444q0 87 31 114t121 27h325l41 -194h-252q-20 0 -27.5 -7.5t-7.5 -27.5v-264 q0 -26 7.5 -33t36.5 -7h254z" />
<glyph unicode="&#xc8;" horiz-adv-x="616" d="M582 533h-304v-88h259v-171h-259v-80h306l-48 -194h-484v727h490zM264 961l148 -182h-134l-218 182h204z" />
<glyph unicode="&#xc9;" horiz-adv-x="616" d="M582 533h-304v-88h259v-171h-259v-80h306l-48 -194h-484v727h490zM225 779l148 182h204l-218 -182h-134z" />
<glyph unicode="&#xca;" horiz-adv-x="616" d="M582 533h-304v-88h259v-171h-259v-80h306l-48 -194h-484v727h490zM83 779l146 182h155l148 -182h-161l-65 92l-64 -92h-159z" />
<glyph unicode="&#xcb;" horiz-adv-x="616" d="M582 533h-304v-88h259v-171h-259v-80h306l-48 -194h-484v727h490zM173 772q-43 0 -69.5 28.5t-26.5 68.5q0 38 26.5 66t69.5 28q44 0 71 -28t27 -66q0 -41 -27 -69t-71 -28zM435 772q-42 0 -69.5 28.5t-27.5 68.5q0 38 27.5 66t69.5 28q44 0 70 -27.5t26 -66.5 q0 -41 -25.5 -69t-70.5 -28z" />
<glyph unicode="&#xcc;" horiz-adv-x="342" d="M57 0v727h228v-727h-228zM91 961l148 -182h-134l-218 182h204z" />
<glyph unicode="&#xcd;" horiz-adv-x="342" d="M57 0v727h228v-727h-228zM100 779l148 182h204l-218 -182h-134z" />
<glyph unicode="&#xce;" horiz-adv-x="342" d="M57 0v727h228v-727h-228zM-54 779l146 182h155l148 -182h-161l-65 92l-64 -92h-159z" />
<glyph unicode="&#xcf;" horiz-adv-x="342" d="M57 0v727h228v-727h-228zM37 772q-43 0 -69.5 28.5t-26.5 68.5q0 38 26.5 66t69.5 28q44 0 71 -28t27 -66q0 -41 -27 -69t-71 -28zM299 772q-42 0 -69.5 28.5t-27.5 68.5q0 38 27.5 66t69.5 28q44 0 70 -27.5t26 -66.5q0 -41 -25.5 -69t-70.5 -28z" />
<glyph unicode="&#xd0;" horiz-adv-x="737" d="M20 276l20 170h39v281h444q88 0 125 -37.5t37 -125.5v-400q0 -90 -36.5 -127t-125.5 -37h-444v276h-59zM304 194h121q22 0 28.5 7t6.5 28v270q0 21 -7 28t-29 7h-120v-88h96l-20 -170h-76v-82z" />
<glyph unicode="&#xd1;" horiz-adv-x="735" d="M52 0v727h223l180 -326v326h228v-727h-224l-180 318v-318h-227zM237 778h-106q-9 78 28.5 127.5t120.5 49.5q36 0 96.5 -29t89.5 -29q43 0 40 58h108q9 -94 -26.5 -138.5t-126.5 -41.5q-37 1 -102 33t-88 31q-40 -3 -34 -61z" />
<glyph unicode="&#xd2;" d="M177 0q-56 0 -90.5 35t-34.5 90v476q0 55 34.5 90.5t90.5 35.5h372q56 0 91 -35.5t35 -90.5v-476q0 -55 -39 -90t-96 -35h-363zM314 194h98q20 0 27 7.5t7 27.5v270q0 21 -7.5 28t-27.5 7h-97q-21 0 -27.5 -7t-6.5 -27v-271q0 -21 6.5 -28t27.5 -7zM287 961l148 -182 h-134l-218 182h204z" />
<glyph unicode="&#xd3;" d="M177 0q-56 0 -90.5 35t-34.5 90v476q0 55 34.5 90.5t90.5 35.5h372q56 0 91 -35.5t35 -90.5v-476q0 -55 -39 -90t-96 -35h-363zM314 194h98q20 0 27 7.5t7 27.5v270q0 21 -7.5 28t-27.5 7h-97q-21 0 -27.5 -7t-6.5 -27v-271q0 -21 6.5 -28t27.5 -7zM290 779l148 182h204 l-218 -182h-134z" />
<glyph unicode="&#xd4;" d="M177 0q-56 0 -90.5 35t-34.5 90v476q0 55 34.5 90.5t90.5 35.5h372q56 0 91 -35.5t35 -90.5v-476q0 -55 -39 -90t-96 -35h-363zM314 194h98q20 0 27 7.5t7 27.5v270q0 21 -7.5 28t-27.5 7h-97q-21 0 -27.5 -7t-6.5 -27v-271q0 -21 6.5 -28t27.5 -7zM142 779l146 182h155 l148 -182h-161l-65 92l-64 -92h-159z" />
<glyph unicode="&#xd5;" d="M177 0q-56 0 -90.5 35t-34.5 90v476q0 55 34.5 90.5t90.5 35.5h372q56 0 91 -35.5t35 -90.5v-476q0 -55 -39 -90t-96 -35h-363zM314 194h98q20 0 27 7.5t7 27.5v270q0 21 -7.5 28t-27.5 7h-97q-21 0 -27.5 -7t-6.5 -27v-271q0 -21 6.5 -28t27.5 -7zM229 778h-106 q-9 78 28.5 127.5t120.5 49.5q36 0 96.5 -29t89.5 -29q43 0 40 58h108q9 -94 -26.5 -138.5t-126.5 -41.5q-37 1 -102 33t-88 31q-40 -3 -34 -61z" />
<glyph unicode="&#xd6;" d="M177 0q-56 0 -90.5 35t-34.5 90v476q0 55 34.5 90.5t90.5 35.5h372q56 0 91 -35.5t35 -90.5v-476q0 -55 -39 -90t-96 -35h-363zM314 194h98q20 0 27 7.5t7 27.5v270q0 21 -7.5 28t-27.5 7h-97q-21 0 -27.5 -7t-6.5 -27v-271q0 -21 6.5 -28t27.5 -7zM233 772 q-43 0 -69.5 28.5t-26.5 68.5q0 38 26.5 66t69.5 28q44 0 71 -28t27 -66q0 -41 -27 -69t-71 -28zM495 772q-42 0 -69.5 28.5t-27.5 68.5q0 38 27.5 66t69.5 28q44 0 70 -27.5t26 -66.5q0 -41 -25.5 -69t-70.5 -28z" />
<glyph unicode="&#xd7;" horiz-adv-x="616" d="M144 95l-104 108l161 162l-158 162l108 103l157 -160l157 158l109 -106l-160 -158l162 -160l-104 -109l-165 162z" />
<glyph unicode="&#xd8;" d="M26 4l41 50q-15 27 -15 66v486q0 55 32 88t88 33h382q27 0 49 -8l38 48l59 -43l-41 -52q16 -30 16 -66v-487q0 -55 -36.5 -87t-93.5 -32h-373q-26 0 -50 8l-42 -48zM280 500v-187l163 207q-6 14 -32 14h-97q-21 0 -27.5 -7t-6.5 -27zM314 194h98q20 0 27 7.5t7 27.5v184 l-163 -207q5 -12 31 -12z" />
<glyph unicode="&#xd9;" horiz-adv-x="708" d="M492 0h-277q-94 0 -128.5 27.5t-34.5 115.5v584h227v-499q0 -19 8 -26.5t28 -7.5h78q21 0 28 7t7 27v499h228v-584q0 -88 -35 -115.5t-129 -27.5zM278 961l148 -182h-134l-218 182h204z" />
<glyph unicode="&#xda;" horiz-adv-x="708" d="M215 0h277q94 0 129 27.5t35 115.5v584h-228v-499q0 -20 -7 -27t-28 -7h-78q-20 0 -28 7.5t-8 26.5v499h-227v-584q0 -88 34.5 -115.5t128.5 -27.5zM288 779l148 182h204l-218 -182h-134z" />
<glyph unicode="&#xdb;" horiz-adv-x="708" d="M215 0h277q94 0 129 27.5t35 115.5v584h-228v-499q0 -20 -7 -27t-28 -7h-78q-20 0 -28 7.5t-8 26.5v499h-227v-584q0 -88 34.5 -115.5t128.5 -27.5zM130 779l146 182h155l148 -182h-161l-65 92l-64 -92h-159z" />
<glyph unicode="&#xdc;" horiz-adv-x="708" d="M215 0h277q94 0 129 27.5t35 115.5v584h-228v-499q0 -20 -7 -27t-28 -7h-78q-20 0 -28 7.5t-8 26.5v499h-227v-584q0 -88 34.5 -115.5t128.5 -27.5zM223 772q-43 0 -69.5 28.5t-26.5 68.5q0 38 26.5 66t69.5 28q44 0 71 -28t27 -66q0 -41 -27 -69t-71 -28zM485 772 q-42 0 -69.5 28.5t-27.5 68.5q0 38 27.5 66t69.5 28q44 0 70 -27.5t26 -66.5q0 -41 -25.5 -69t-70.5 -28z" />
<glyph unicode="&#xdd;" horiz-adv-x="759" d="M20 727h275l90 -268l80 268h274l-232 -493v-234h-252v234zM317 779l148 182h204l-218 -182h-134z" />
<glyph unicode="&#xde;" horiz-adv-x="702" d="M52 0v727h233v-95h210q88 0 122.5 -33t34.5 -120v-229q0 -89 -34 -122t-123 -33h-210v-95h-233zM285 283h106q26 0 35 8.5t9 34.5v72q0 26 -9 34t-35 8h-106v-157z" />
<glyph unicode="&#xdf;" d="M50 0v502q0 118 74.5 181.5t219.5 63.5q138 0 217 -58.5t79 -143.5q0 -24 -14 -47.5t-30 -38.5t-29 -32.5t-11 -30.5q1 -11 39 -36q112 -74 112 -196q0 -60 -25 -99q-42 -65 -187 -65h-131l-40 164h75q27 0 40 1t26 6.5t15 17.5q3 17 -19 40t-51 42.5t-54.5 46 t-28.5 48.5q-2 22 11 44.5t30 38.5t31 35.5t14 35.5q-1 74 -91 66q-55 -6 -55 -77v-509h-217z" />
<glyph unicode="&#xe0;" horiz-adv-x="622" d="M277 146h84v82h-84q-14 0 -21 -4t-8 -9t-1 -17v-25q0 -15 7 -21t23 -6zM264 0h-101q-123 0 -123 123v87q0 69 38.5 93t119.5 24h163v31q0 14 -5.5 19t-22.5 5h-252l44 169h323q58 0 91 -29.5t33 -84.5v-437h-211v47q-17 -25 -45.5 -36t-51.5 -11zM264 785l148 -182h-134 l-218 182h204z" />
<glyph unicode="&#xe1;" horiz-adv-x="622" d="M277 146h84v82h-84q-14 0 -21 -4t-8 -9t-1 -17v-25q0 -15 7 -21t23 -6zM264 0h-101q-123 0 -123 123v87q0 69 38.5 93t119.5 24h163v31q0 14 -5.5 19t-22.5 5h-252l44 169h323q58 0 91 -29.5t33 -84.5v-437h-211v47q-17 -25 -45.5 -36t-51.5 -11zM240 592l148 182h204 l-218 -182h-134z" />
<glyph unicode="&#xe2;" horiz-adv-x="622" d="M277 146h84v82h-84q-14 0 -21 -4t-8 -9t-1 -17v-25q0 -15 7 -21t23 -6zM264 0h-101q-123 0 -123 123v87q0 69 38.5 93t119.5 24h163v31q0 14 -5.5 19t-22.5 5h-252l44 169h323q58 0 91 -29.5t33 -84.5v-437h-211v47q-17 -25 -45.5 -36t-51.5 -11zM106 603l146 182h155 l148 -182h-161l-65 92l-64 -92h-159z" />
<glyph unicode="&#xe3;" horiz-adv-x="622" d="M277 146h84v82h-84q-14 0 -21 -4t-8 -9t-1 -17v-25q0 -15 7 -21t23 -6zM264 0h-101q-123 0 -123 123v87q0 69 38.5 93t119.5 24h163v31q0 14 -5.5 19t-22.5 5h-252l44 169h323q58 0 91 -29.5t33 -84.5v-437h-211v47q-17 -25 -45.5 -36t-51.5 -11zM196 602h-106 q-9 78 28.5 127.5t120.5 49.5q36 0 96.5 -29t89.5 -29q43 0 40 58h108q9 -94 -26.5 -138.5t-126.5 -41.5q-37 1 -102 33t-88 31q-40 -3 -34 -61z" />
<glyph unicode="&#xe4;" horiz-adv-x="622" d="M277 146h84v82h-84q-14 0 -21 -4t-8 -9t-1 -17v-25q0 -15 7 -21t23 -6zM264 0h-101q-123 0 -123 123v87q0 69 38.5 93t119.5 24h163v31q0 14 -5.5 19t-22.5 5h-252l44 169h323q58 0 91 -29.5t33 -84.5v-437h-211v47q-17 -25 -45.5 -36t-51.5 -11zM197 596 q-43 0 -69.5 28.5t-26.5 68.5q0 38 26.5 66t69.5 28q44 0 71 -28t27 -66q0 -41 -27 -69t-71 -28zM459 596q-42 0 -69.5 28.5t-27.5 68.5q0 38 27.5 66t69.5 28q44 0 70 -27.5t26 -66.5q0 -41 -25.5 -69t-70.5 -28z" />
<glyph unicode="&#xe5;" horiz-adv-x="622" d="M277 146h84v82h-84q-14 0 -21 -4t-8 -9t-1 -17v-25q0 -15 7 -21t23 -6zM264 0h-101q-123 0 -123 123v87q0 69 38.5 93t119.5 24h163v31q0 14 -5.5 19t-22.5 5h-252l44 169h323q58 0 91 -29.5t33 -84.5v-437h-211v47q-17 -25 -45.5 -36t-51.5 -11zM329 586q-52 0 -88.5 37 t-36.5 89t36.5 89.5t88.5 37.5t90 -37.5t38 -89.5t-37.5 -89t-90.5 -37zM329 668q18 0 31.5 13t13.5 31t-13.5 30t-31.5 12q-17 0 -30 -12t-13 -30t13 -31t30 -13z" />
<glyph unicode="&#xe6;" horiz-adv-x="938" d="M845 0h-287q-22 0 -49 11t-42 36q-14 -25 -41.5 -36t-50.5 -11h-212q-123 0 -123 123v87q0 70 39 95t119 25h163v28q0 14 -5.5 19t-22.5 5h-249l44 169h628q131 0 131 -130v-135q0 -51 -55 -51h-258v-39q0 -15 5 -19t21 -4h288zM274 146h87v82h-87q-14 0 -21 -4t-8 -9 t-1 -17v-25q0 -15 7 -21t23 -6zM574 339h118v40q0 17 -5.5 23.5t-22.5 6.5h-61q-16 0 -22.5 -7t-6.5 -23v-40z" />
<glyph unicode="&#xe7;" horiz-adv-x="530" d="M461 0h-139v-44q81 4 114 -27.5t33 -73.5q0 -54 -39.5 -91.5t-134.5 -37.5q-80 0 -130 43l19 71q37 -25 72.5 -30t56.5 7.5t21 34.5q0 51 -108 33v115h-49q-127 0 -127 119v306q0 61 35 93.5t97 32.5h277l45 -169h-210q-18 0 -23 -4.5t-5 -19.5v-162q0 -15 5.5 -19 t23.5 -4h210z" />
<glyph unicode="&#xe8;" horiz-adv-x="618" d="M181 0q-62 0 -96.5 30.5t-34.5 85.5v305q0 130 131 130h255q131 0 131 -130v-135q0 -51 -55 -51h-255v-39q0 -15 4.5 -19t20.5 -4h286l-44 -173h-343zM257 339h117v40q0 17 -5 23.5t-22 6.5h-61q-16 0 -22.5 -7t-6.5 -23v-40zM240 785l148 -182h-134l-218 182h204z" />
<glyph unicode="&#xe9;" horiz-adv-x="618" d="M181 0q-62 0 -96.5 30.5t-34.5 85.5v305q0 130 131 130h255q131 0 131 -130v-135q0 -51 -55 -51h-255v-39q0 -15 4.5 -19t20.5 -4h286l-44 -173h-343zM257 339h117v40q0 17 -5 23.5t-22 6.5h-61q-16 0 -22.5 -7t-6.5 -23v-40zM230 603l148 182h204l-218 -182h-134z" />
<glyph unicode="&#xea;" horiz-adv-x="618" d="M181 0q-62 0 -96.5 30.5t-34.5 85.5v305q0 130 131 130h255q131 0 131 -130v-135q0 -51 -55 -51h-255v-39q0 -15 4.5 -19t20.5 -4h286l-44 -173h-343zM257 339h117v40q0 17 -5 23.5t-22 6.5h-61q-16 0 -22.5 -7t-6.5 -23v-40zM83 603l146 182h155l148 -182h-161l-65 92 l-64 -92h-159z" />
<glyph unicode="&#xeb;" horiz-adv-x="618" d="M181 0q-62 0 -96.5 30.5t-34.5 85.5v305q0 130 131 130h255q131 0 131 -130v-135q0 -51 -55 -51h-255v-39q0 -15 4.5 -19t20.5 -4h286l-44 -173h-343zM257 339h117v40q0 17 -5 23.5t-22 6.5h-61q-16 0 -22.5 -7t-6.5 -23v-40zM178 596q-43 0 -69.5 28.5t-26.5 68.5 q0 38 26.5 66t69.5 28q44 0 71 -28t27 -66q0 -41 -27 -69t-71 -28zM440 596q-42 0 -69.5 28.5t-27.5 68.5q0 38 27.5 66t69.5 28q44 0 70 -27.5t26 -66.5q0 -41 -25.5 -69t-70.5 -28z" />
<glyph unicode="&#xec;" horiz-adv-x="324" d="M53 0v551h218v-551h-218zM81 785l148 -182h-134l-218 182h204z" />
<glyph unicode="&#xed;" horiz-adv-x="320" d="M54 0v551h218v-551h-218zM96 603l148 182h204l-218 -182h-134z" />
<glyph unicode="&#xee;" horiz-adv-x="324" d="M53 0v551h218v-551h-218zM-62 603l146 182h155l148 -182h-161l-65 92l-64 -92h-159z" />
<glyph unicode="&#xef;" horiz-adv-x="324" d="M53 0v551h218v-551h-218zM31 596q-43 0 -69.5 28.5t-26.5 68.5q0 38 26.5 66t69.5 28q44 0 71 -28t27 -66q0 -41 -27 -69t-71 -28zM293 596q-42 0 -69.5 28.5t-27.5 68.5q0 38 27.5 66t69.5 28q44 0 70 -27.5t26 -66.5q0 -41 -25.5 -69t-70.5 -28z" />
<glyph unicode="&#xf0;" horiz-adv-x="636" d="M181 547l-25 70l113 32q-43 51 -95 93h242l36 -41l96 27l23 -70l-72 -21q92 -122 92 -270v-229q0 -69 -37 -103.5t-102 -34.5h-261q-141 0 -141 134v237q0 22 2 38t9 34.5t20 30.5t36 23t55.5 15.5t80 4.5t107.5 -7q-10 41 -43 75zM375 375h-68q-25 0 -34.5 -8t-9.5 -32 v-163q0 -15 5.5 -20t22.5 -5h56q16 0 22 4.5t6 18.5v205z" />
<glyph unicode="&#xf1;" horiz-adv-x="648" d="M366 551h95q75 0 106 -28.5t31 -94.5v-428h-221v363q0 22 -7.5 27t-32.5 5h-31q-19 0 -27.5 -7.5t-8.5 -28.5v-359h-220v551h217v-46q28 46 99 46zM188 602h-106q-9 78 28.5 127.5t120.5 49.5q36 0 96.5 -29t89.5 -29q43 0 40 58h108q9 -94 -26.5 -138.5t-126.5 -41.5 q-37 1 -102 33t-88 31q-40 -3 -34 -61z" />
<glyph unicode="&#xf2;" horiz-adv-x="643" d="M188 0q-138 0 -138 136v275q0 67 37.5 103.5t101.5 36.5h265q64 0 101.5 -36.5t37.5 -103.5v-273q0 -69 -37 -103.5t-102 -34.5h-266zM290 157h61q16 0 22 4.5t6 19.5v187q0 15 -6 20.5t-22 5.5h-61q-17 0 -22.5 -5t-5.5 -21v-185q0 -16 5.5 -21t22.5 -5zM244 785 l148 -182h-134l-218 182h204z" />
<glyph unicode="&#xf3;" horiz-adv-x="643" d="M188 0q-138 0 -138 136v275q0 67 37.5 103.5t101.5 36.5h265q64 0 101.5 -36.5t37.5 -103.5v-273q0 -69 -37 -103.5t-102 -34.5h-266zM290 157h61q16 0 22 4.5t6 19.5v187q0 15 -6 20.5t-22 5.5h-61q-17 0 -22.5 -5t-5.5 -21v-185q0 -16 5.5 -21t22.5 -5zM251 603 l148 182h204l-218 -182h-134z" />
<glyph unicode="&#xf4;" horiz-adv-x="643" d="M188 0q-138 0 -138 136v275q0 67 37.5 103.5t101.5 36.5h265q64 0 101.5 -36.5t37.5 -103.5v-273q0 -69 -37 -103.5t-102 -34.5h-266zM290 157h61q16 0 22 4.5t6 19.5v187q0 15 -6 20.5t-22 5.5h-61q-17 0 -22.5 -5t-5.5 -21v-185q0 -16 5.5 -21t22.5 -5zM97 603l146 182 h155l148 -182h-161l-65 92l-64 -92h-159z" />
<glyph unicode="&#xf5;" horiz-adv-x="643" d="M188 0q-138 0 -138 136v275q0 67 37.5 103.5t101.5 36.5h265q64 0 101.5 -36.5t37.5 -103.5v-273q0 -69 -37 -103.5t-102 -34.5h-266zM290 157h61q16 0 22 4.5t6 19.5v187q0 15 -6 20.5t-22 5.5h-61q-17 0 -22.5 -5t-5.5 -21v-185q0 -16 5.5 -21t22.5 -5zM186 602h-106 q-9 78 28.5 127.5t120.5 49.5q36 0 96.5 -29t89.5 -29q43 0 40 58h108q9 -94 -26.5 -138.5t-126.5 -41.5q-37 1 -102 33t-88 31q-40 -3 -34 -61z" />
<glyph unicode="&#xf6;" horiz-adv-x="643" d="M188 0q-138 0 -138 136v275q0 67 37.5 103.5t101.5 36.5h265q64 0 101.5 -36.5t37.5 -103.5v-273q0 -69 -37 -103.5t-102 -34.5h-266zM290 157h61q16 0 22 4.5t6 19.5v187q0 15 -6 20.5t-22 5.5h-61q-17 0 -22.5 -5t-5.5 -21v-185q0 -16 5.5 -21t22.5 -5zM189 596 q-43 0 -69.5 28.5t-26.5 68.5q0 38 26.5 66t69.5 28q44 0 71 -28t27 -66q0 -41 -27 -69t-71 -28zM451 596q-42 0 -69.5 28.5t-27.5 68.5q0 38 27.5 66t69.5 28q44 0 70 -27.5t26 -66.5q0 -41 -25.5 -69t-70.5 -28z" />
<glyph unicode="&#xf7;" horiz-adv-x="577" d="M45 291v142h487v-142h-487zM280 476q-44 0 -71.5 29.5t-27.5 71.5q0 40 27.5 68.5t71.5 28.5q45 0 73 -28.5t28 -68.5q0 -42 -28 -71.5t-73 -29.5zM280 50q-44 0 -71.5 29.5t-27.5 71.5q0 40 27.5 68.5t71.5 28.5q45 0 73 -28.5t28 -68.5q0 -42 -28 -71.5t-73 -29.5z" />
<glyph unicode="&#xf8;" horiz-adv-x="641" d="M563 584l55 -45l-47 -50q20 -31 20 -77v-274q0 -69 -37 -103.5t-102 -34.5h-264q-38 0 -62 8l-45 -49l-55 45l44 48q-20 32 -20 84v276q0 67 37.5 103.5t101.5 36.5h263q37 0 67 -15zM262 369v-110l113 121q-3 15 -24 15h-61q-17 0 -22.5 -5t-5.5 -21zM290 157h59 q16 0 22 4.5t6 19.5v98l-109 -118q5 -4 22 -4z" />
<glyph unicode="&#xf9;" horiz-adv-x="648" d="M284 0h-96q-74 0 -106 32t-32 98v421h220v-356q0 -23 7.5 -30.5t33.5 -7.5h31q34 0 34 38v356h222v-551h-216v45q-29 -45 -98 -45zM244 785l148 -182h-134l-218 182h204z" />
<glyph unicode="&#xfa;" horiz-adv-x="648" d="M284 0h-96q-74 0 -106 32t-32 98v421h220v-356q0 -23 7.5 -30.5t33.5 -7.5h31q34 0 34 38v356h222v-551h-216v45q-29 -45 -98 -45zM246 603l148 182h204l-218 -182h-134z" />
<glyph unicode="&#xfb;" horiz-adv-x="648" d="M284 0h-96q-74 0 -106 32t-32 98v421h220v-356q0 -23 7.5 -30.5t33.5 -7.5h31q34 0 34 38v356h222v-551h-216v45q-29 -45 -98 -45zM100 603l146 182h155l148 -182h-161l-65 92l-64 -92h-159z" />
<glyph unicode="&#xfc;" horiz-adv-x="648" d="M284 0h-96q-74 0 -106 32t-32 98v421h220v-356q0 -23 7.5 -30.5t33.5 -7.5h31q34 0 34 38v356h222v-551h-216v45q-29 -45 -98 -45zM192 596q-43 0 -69.5 28.5t-26.5 68.5q0 38 26.5 66t69.5 28q44 0 71 -28t27 -66q0 -41 -27 -69t-71 -28zM454 596q-42 0 -69.5 28.5 t-27.5 68.5q0 38 27.5 66t69.5 28q44 0 70 -27.5t26 -66.5q0 -41 -25.5 -69t-70.5 -28z" />
<glyph unicode="&#xfd;" horiz-adv-x="700" d="M190 45l-163 506h239l83 -327l86 327h238l-237 -762h-219l70 211h-30q-52 0 -67 45zM280 603l148 182h204l-218 -182h-134z" />
<glyph unicode="&#xfe;" horiz-adv-x="646" d="M359 393h-92v-225h86q22 0 28.5 7t6.5 19v173q0 26 -29 26zM264 727v-222q18 25 47 35.5t51 10.5h98q67 0 101.5 -33t34.5 -95v-289q0 -134 -136 -134h-101q-22 0 -50 10.5t-45 35.5v-257h-214v938h214z" />
<glyph unicode="&#xff;" horiz-adv-x="700" d="M190 45l-163 506h239l83 -327l86 327h238l-237 -762h-219l70 211h-30q-52 0 -67 45zM216 596q-43 0 -69.5 28.5t-26.5 68.5q0 38 26.5 66t69.5 28q44 0 71 -28t27 -66q0 -41 -27 -69t-71 -28zM478 596q-42 0 -69.5 28.5t-27.5 68.5q0 38 27.5 66t69.5 28q44 0 70 -27.5 t26 -66.5q0 -41 -25.5 -69t-70.5 -28z" />
<glyph unicode="&#x152;" horiz-adv-x="1014" d="M980 533h-304v-88h259v-171h-259v-80h306l-48 -194h-762q-56 0 -88 32.5t-32 87.5v486q0 55 32 88t88 33h768zM314 194h98q20 0 27 7.5t7 27.5v270q0 21 -7.5 28t-27.5 7h-97q-21 0 -27.5 -7t-6.5 -27v-271q0 -21 6.5 -28t27.5 -7z" />
<glyph unicode="&#x153;" horiz-adv-x="957" d="M863 0h-675q-138 0 -138 136v276q0 67 37.5 103.5t101.5 36.5l585 -1q132 0 132 -130v-135q0 -51 -55 -51h-258v-39q0 -15 4.5 -19t20.5 -4h289zM290 143h59q16 0 22 4.5t6 18.5v218q0 15 -6.5 20t-21.5 5h-59q-17 0 -22.5 -5t-5.5 -20v-216q0 -15 5.5 -20t22.5 -5z M593 339h117v40q0 17 -5.5 23.5t-22.5 6.5h-61q-28 0 -28 -30v-40z" />
<glyph unicode="&#x178;" horiz-adv-x="759" d="M20 727h275l90 -268l80 268h274l-232 -493v-234h-252v234zM254 772q-43 0 -69.5 28.5t-26.5 68.5q0 38 26.5 66t69.5 28q44 0 71 -28t27 -66q0 -41 -27 -69t-71 -28zM516 772q-42 0 -69.5 28.5t-27.5 68.5q0 38 27.5 66t69.5 28q44 0 70 -27.5t26 -66.5q0 -41 -25.5 -69 t-70.5 -28z" />
<glyph unicode="&#x2c6;" horiz-adv-x="529" d="M40 779l146 182h155l148 -182h-161l-65 92l-64 -92h-159z" />
<glyph unicode="&#x2dc;" horiz-adv-x="587" d="M158 778h-106q-9 78 28.5 127.5t120.5 49.5q36 0 96.5 -29t89.5 -29q43 0 40 58h108q9 -94 -26.5 -138.5t-126.5 -41.5q-37 1 -102 33t-88 31q-40 -3 -34 -61z" />
<glyph unicode="&#x2000;" horiz-adv-x="507" />
<glyph unicode="&#x2001;" horiz-adv-x="1015" />
<glyph unicode="&#x2002;" horiz-adv-x="507" />
<glyph unicode="&#x2003;" horiz-adv-x="1015" />
<glyph unicode="&#x2004;" horiz-adv-x="338" />
<glyph unicode="&#x2005;" horiz-adv-x="253" />
<glyph unicode="&#x2006;" horiz-adv-x="169" />
<glyph unicode="&#x2007;" horiz-adv-x="169" />
<glyph unicode="&#x2008;" horiz-adv-x="126" />
<glyph unicode="&#x2009;" horiz-adv-x="203" />
<glyph unicode="&#x200a;" horiz-adv-x="56" />
<glyph unicode="&#x2010;" horiz-adv-x="408" d="M52 242v182h304v-182h-304z" />
<glyph unicode="&#x2011;" horiz-adv-x="408" d="M52 242v182h304v-182h-304z" />
<glyph unicode="&#x2012;" horiz-adv-x="408" d="M52 242v182h304v-182h-304z" />
<glyph unicode="&#x2013;" horiz-adv-x="608" d="M52 242v182h504v-182h-504z" />
<glyph unicode="&#x2014;" horiz-adv-x="808" d="M52 242v182h704v-182h-704z" />
<glyph unicode="&#x2018;" horiz-adv-x="324" d="M179 763q-21 -47 -21 -80q64 0 92.5 -23t28.5 -90q0 -103 -115 -103q-64 0 -91.5 25.5t-27.5 82.5q0 44 21.5 103t41.5 85h71z" />
<glyph unicode="&#x2019;" horiz-adv-x="324" d="M145 461q21 47 21 80q-64 0 -92.5 23t-28.5 90q0 103 115 103q64 0 91.5 -25.5t27.5 -82.5q0 -44 -21.5 -103t-41.5 -85h-71z" />
<glyph unicode="&#x201a;" horiz-adv-x="324" d="M145 -94q21 47 21 80q-64 0 -92.5 23t-28.5 90q0 103 115 103q64 0 91.5 -25.5t27.5 -82.5q0 -44 -21.5 -103t-41.5 -85h-71z" />
<glyph unicode="&#x201c;" horiz-adv-x="606" d="M179 763q-21 -47 -21 -80q64 0 92.5 -23t28.5 -90q0 -103 -115 -103q-64 0 -91.5 25.5t-27.5 82.5q0 44 21.5 103t41.5 85h71zM461 763q-21 -47 -21 -80q64 0 92.5 -23t28.5 -90q0 -103 -115 -103q-64 0 -91.5 25.5t-27.5 82.5q0 44 21.5 103t41.5 85h71z" />
<glyph unicode="&#x201d;" horiz-adv-x="606" d="M427 461q21 47 21 80q-64 0 -92.5 23t-28.5 90q0 103 115 103q64 0 91.5 -25.5t27.5 -82.5q0 -44 -21.5 -103t-41.5 -85h-71zM145 461q21 47 21 80q-64 0 -92.5 23t-28.5 90q0 103 115 103q64 0 91.5 -25.5t27.5 -82.5q0 -44 -21.5 -103t-41.5 -85h-71z" />
<glyph unicode="&#x201e;" horiz-adv-x="618" d="M439 -94q21 47 21 80q-64 0 -92.5 23t-28.5 90q0 103 115 103q64 0 91.5 -25.5t27.5 -82.5q0 -44 -21.5 -103t-41.5 -85h-71zM145 -94q21 47 21 80q-64 0 -92.5 23t-28.5 90q0 103 115 103q64 0 91.5 -25.5t27.5 -82.5q0 -44 -21.5 -103t-41.5 -85h-71z" />
<glyph unicode="&#x2022;" horiz-adv-x="462" d="M231 184q-73 0 -124.5 52t-51.5 127q0 71 51.5 122t124.5 51q71 0 123.5 -51.5t52.5 -121.5q0 -75 -52 -127t-124 -52z" />
<glyph unicode="&#x2026;" horiz-adv-x="969" d="M162 -14q-61 0 -89 23t-28 84t28.5 85t88.5 24q59 0 87.5 -24t28.5 -85t-28 -84t-88 -23zM485 -14q-61 0 -89 23t-28 84t28.5 85t88.5 24q59 0 87.5 -24t28.5 -85t-28 -84t-88 -23zM808 -14q-61 0 -89 23t-28 84t28.5 85t88.5 24q59 0 87.5 -24t28.5 -85t-28 -84t-88 -23 z" />
<glyph unicode="&#x202f;" horiz-adv-x="203" />
<glyph unicode="&#x2039;" horiz-adv-x="374" d="M344 540l-135 -270l135 -270h-166l-158 270l158 270h166z" />
<glyph unicode="&#x203a;" horiz-adv-x="374" d="M165 270l-135 270h166l158 -270l-158 -270h-166z" />
<glyph unicode="&#x205f;" horiz-adv-x="253" />
<glyph unicode="&#x20ac;" horiz-adv-x="661" d="M631 200l-42 -200h-359q-91 0 -129.5 40.5t-38.5 129.5v88h-52v85h52v37h-52v84h52v92q0 93 39.5 130.5t133.5 37.5h341l42 -201h-275q-22 0 -30.5 -7.5t-7.5 -28.5v-23h273l-43 -84h-230v-37h230l-37 -85h-193v-22q-1 -21 7 -28.5t30 -7.5h289z" />
<glyph unicode="&#x2122;" horiz-adv-x="671" d="M259 727v-49h-84v-316h-60v316h-85v49h229zM486 370h-43l-86 252v-260h-60v365h81l87 -254l85 254h81v-365h-59v260z" />
<glyph unicode="&#x25fc;" horiz-adv-x="550" d="M0 550h550v-550h-550v550z" />
</font>
</defs>
</svg>
