<?xml version="1.0" encoding="utf-8"?>
<!-- Generator: Adobe Illustrator 24.2.1, SVG Export Plug-In . SVG Version: 6.00 Build 0)  -->
<svg version="1.1" id="Layer_1" xmlns="http://www.w3.org/2000/svg" xmlns:xlink="http://www.w3.org/1999/xlink" x="0px" y="0px"
	 viewBox="0 0 512 512" style="enable-background:new 0 0 512 512;" xml:space="preserve">
<style type="text/css">
	.st0{fill:#010101;}
	.st1{fill:#FFFFFF;}
</style>
<g>
	<circle class="st0" cx="255.51" cy="255.67" r="246.09"/>
</g>
<g>
	<path class="st1" d="M286.48,235.39c35.7,48.56,73.93,96.77,114.71,144.63l-75.15,2.87c-23.16-39.31-42.09-78.94-69.47-117.93
		c-29.17,39.81-50.78,80.46-74.9,120.71l-78.53,2.46c47.85-48.68,90.67-98.55,128.41-149.25c-31.54-42.81-66.47-85.3-103.11-127.42
		l73.46-1.75c19.87,32.44,35.49,65.6,57.89,97.7c24.92-36.83,41.43-74.9,59.62-112.95l89.44,2.23
		C364.42,142.38,323.34,188.49,286.48,235.39z"/>
</g>
</svg>
