<?xml version="1.0" encoding="utf-8"?>
<!-- Generator: Adobe Illustrator 25.1.0, SVG Export Plug-In . SVG Version: 6.00 Build 0)  -->
<svg version="1.1" id="Layer_1" xmlns="http://www.w3.org/2000/svg" xmlns:xlink="http://www.w3.org/1999/xlink" x="0px" y="0px"
	 viewBox="0 0 1695.7 945.7" style="enable-background:new 0 0 1695.7 945.7;" xml:space="preserve">
<style type="text/css">
	.st0{fill-rule:evenodd;clip-rule:evenodd;}
	.st1{fill-rule:evenodd;clip-rule:evenodd;fill:#020202;}
	.st2{fill-rule:evenodd;clip-rule:evenodd;fill:#EA803C;}
	.st3{fill-rule:evenodd;clip-rule:evenodd;fill:#533F8B;}
	.st4{fill-rule:evenodd;clip-rule:evenodd;fill:#5D9A83;}
	.st5{fill:none;stroke:#FB7C85;stroke-width:13;stroke-miterlimit:10;}
	.st6{fill:none;stroke:#4177B3;stroke-width:13;stroke-miterlimit:10;}
	.st7{fill-rule:evenodd;clip-rule:evenodd;fill:#EE2A74;}
</style>
<g transform="matrix(1.0, 0.0, 0.0, 1.0, 0.0, 0.0)">
	<path class="st0" d="M187.3,394c0.8,8.8-0.4,17.7-3.2,26.2c-2.4,8.8-6.8,16.9-12.5,24.1c-11.7,14.9-27,23.8-45.5,26.2
		c-0.8,0-1.6,0-2,0c-1.6,0-2.8,0.4-4.4,0.4c-6.8,0-14.1,0-21.7,0c-6.4,0-13.7,0.4-21.7,0.4c-8,0.4-15.7,0.8-23.8,1.2
		c-7.3,0.4-14.1,1.2-20.5,2c-5.6,0.8-11.2,1.6-16.5,3.2v-2c6.4-0.8,11.7-3.6,15.7-8.8c0,0,0.4-0.4,0.4-0.8l0.8-1.2
		c4.4-6.8,6.8-14.1,8-22.1c1.6-9.7,2-19.7,1.6-29.4c-0.4-10.9-0.8-22.1-2-33c-0.8-13.3-2-27-3.6-40.6c-1.2-12.5-3.2-24.6-6-37
		c-2-9.7-5.6-18.5-11.2-26.5c-2.8-4.8-7.3-8-12.9-9.3c-2-0.4-4.1-0.8-6-0.4v-2.4c15.3,0.4,30.2,0.4,45,0c14.9-0.4,29-1.2,42.6-2
		c8.8-0.8,17.3-1.2,25-2c7.6-0.8,14.5-1.2,20.5-1.6l10.9,2c9.7,2.4,16.5,6,20.5,11.2c4.4,5.6,6.4,12.1,6.4,18.9
		c0.4,5.6,0,10.9-0.8,16.1c-1.2,5.6-3.2,10.9-6.4,15.7c-4.1,5.6-8.5,10.5-14.1,14.1c-7.3,5.3-15.3,8.8-23.8,11.2
		c8.8,0.4,17.3,1.6,25.8,3.2c6.8,1.2,12.9,3.2,18.9,7.3c5.3,3.2,9.3,8,12.1,13.7C185.3,378.7,186.9,386.4,187.3,394L187.3,394
		 M149.1,410.5c-0.4-8-1.6-16.5-2.8-24.6c-1.2-6.8-3.2-13.3-6.4-19.3c-2.8-5.3-6.4-9.3-11.7-12.1c-5.6-3.2-12.1-4.4-18.5-3.6
		l-39.1,2.8c0.4,8.5,0.4,16.5,0.8,23.8s0.8,14.1,1.2,20.1c1.2,14.5,2,26.5,3.6,35.4c1.2,7.3,2.4,14.1,4.1,21.3
		c0.8,4.4,2.4,8.8,4.4,12.9l22.9-1.6c16.1-1.2,27.8-6,34.2-14.5C147.8,442.8,150.3,429,149.1,410.5L149.1,410.5 M138.6,308.4
		c-1.2-16.1-5.3-27.8-12.1-35c-6.8-7.3-17.3-10-31-9.3l-25.3,2c-1.6,0.8-2.4,3.6-2.8,8.5c-0.8,6-0.8,12.5-0.8,18.5
		c0,8.5,0.4,20.1,1.6,35.4l0.8,10.9c0.4,4.1,0.8,8,1.2,12.1l18.5-1.2c9.7-0.8,17.7-1.6,24.1-2.4c5.6-0.4,11.2-2.4,16.1-5.6
		c4.4-2.8,7.3-6.8,8.5-12.1C138.6,324.9,139,317.6,138.6,308.4L138.6,308.4"/>
	<path class="st0" d="M343,457.2c-2,0.8-4.4,1.6-6,2c-2,0.4-4.1,0.8-6,1.2c-8.8,0.8-16.5-1.6-22.9-7.3c0,0-0.4,0-0.4-0.4
		c-8-6.8-14.5-14.9-19.3-24.6c-8.5,23.8-21.3,36.6-38.6,37.9c-5.6,0.8-11.2-0.4-16.5-3.2c-5.3-2.4-9.3-6-12.9-10.5
		c-3.6-4.8-6.8-10-8.8-15.7c-2.4-6-3.6-12.5-4.1-18.9c-0.8-7.6,0-14.9,2-22.1c1.6-7.6,4.8-14.5,9.3-20.5
		c4.4-6.4,10.5-11.7,17.3-15.3c8-4.4,16.9-7.3,26.5-7.3c2.4,0,4.8-0.4,7.6-0.4c2.4,0,5.3,0,8,0.4c0.4-7.3,1.2-14.9,1.6-22.1
		c0.8-6.8,0.8-14.1,0.4-20.9c-0.4-4.1-0.8-8-2-12.1c-1.2-3.6-3.2-6.8-5.6-9.7c-2.8-2.8-6-4.8-9.7-6c-4.8-1.6-9.7-2-14.9-1.6h-0.4
		c-3.2,0.4-6.4,1.6-8.8,3.6c-3.2,2.4-5.6,5.3-7.6,8.5s-4.1,6.4-5.3,10c-1.2,3.2-2,6.4-1.6,10c0,3.2,1.6,6,4.1,8.5l0,0l0.4,0.4
		c2.8,2.4,7.3,3.2,13.7,2.8c0,2.8-0.4,5.3-1.2,7.6c-1.2,2.4-2.4,4.8-4.1,6.8c-2,1.6-4.1,3.2-6,4.8c-2,1.6-4.1,2-6.4,2.4
		c-2.4,0-4.4,0-6.8-0.8c-5.6-1.6-9.7-4.8-12.9-9.7c-1.6-2.8-2.8-5.6-2.8-8.5c-0.8-6.4,0.4-12.9,3.2-18.9s6.4-11.2,11.2-15.7
		c5.3-4.8,10.9-8.8,17.7-11.2c6.8-3.2,14.1-4.8,21.7-5.3c7.3-0.4,14.1-0.4,21.3,0.8c6.4,0.8,12.5,3.2,18.1,6.8
		c5.6,3.2,10,8,12.9,13.7c4.1,6.8,6,14.1,6.4,22.1v3.2c-1.2,16.9-2,31.8-2.4,44.3s0,23.8,0.4,33.4c0.4,9.3,2,18.5,4.1,27.4
		c1.2,6,3.6,11.2,6.8,16.5c2,3.6,4.8,6.4,8.5,8.5c3.2,1.6,6.4,2.4,10,2L343,457.2 M278.6,356.2c-1.6,0-3.2,0-4.1,0
		c-1.2,0-2.4,0-3.6,0c-6.4,0-12.1,2-16.9,6.4c-4.4,3.6-7.3,8-9.3,13.7c-2,5.6-3.6,11.7-3.6,17.7c-0.4,6-0.4,12.5,0,18.5
		c0.4,5.3,1.2,10.5,2,15.7c0.8,4.8,2.4,9.7,4.1,14.1c1.2,3.6,3.2,7.3,6,10c1.6,2,3.6,3.2,6,3.2l0,0c0.4,0,0.8,0,1.6,0
		c3.6,0,6.8-1.6,9.3-4.4c0,0,0.4-0.4,0.4-0.8l0,0l0,0c3.6-3.2,6-7.3,6.8-12.1c1.6-6,2.4-12.1,2.8-18.1c0.4-7.3,0.4-14.9-0.4-22.1
		L278.6,356.2"/>
	<path class="st0" d="M427.5,461.6c-3.2,0-6.4-0.4-10-0.8c-3.2,0-7.3-0.4-11.7,0c-4.4,0-9.7,0-15.3,0.4c-5.6,0.4-11.7,1.2-18.1,2
		s-13.3,2-20.1,3.6v-3.6c1.2,0.4,2.4,0.4,4.1,0.4c4.4-0.4,7.6-4.1,9.7-10.9c2.4-8.5,3.6-17.3,4.1-26.2c0.8-11.7,0.8-23.8,0-35.4
		c-0.4-12.9-1.2-26.2-2-39.1c-0.4-8-1.2-15.7-2-23.3c-0.8-7.3-1.2-14.1-1.6-20.1c-0.8-9.3-1.6-17.7-2.4-25.8
		c-0.8-6.8-2-13.7-4.1-20.5c-1.2-5.3-3.2-9.7-6.4-13.7c-1.6-2.4-4.1-4.1-7.3-4.4l0,0c-0.8,0-2,0-2.8,0c-2,0-3.6,0.4-5.3,1.2
		l-0.4-5.6c3.2,0.4,6.4,0.8,10,0.8c3.2,0,6.4,0.4,10.5,0.4s8,0,12.1-0.4s8-0.8,11.7-1.6c3.6-0.9,6.8-1.6,10-3.2c0,8,0,17.3,0.4,27
		c0,8.5,0.4,18.1,1.2,28.5c0.4,10.5,1.2,21.7,2,33.4c0.8,9.7,1.6,19.3,2.4,29.7c0.8,10,2,20.5,3.6,30.2c1.6,10,3.2,19.3,4.8,28.5
		c1.6,8,3.2,15.7,5.6,23.8c1.6,5.6,4.1,10.9,6.8,15.7c2.4,4.1,5.3,5.6,8.5,5.6c0.4,0,0.8,0,0.8-0.4c0.4,0,0.4,0,0.8,0L427.5,461.6"
		/>
	<path class="st0" d="M588.9,372.8c0.8,8.8,0,17.7-2.8,26.5c-2,8-5.6,15.7-10.9,22.6c-4.8,6.4-10.5,12.1-17.3,16.1
		c-6.8,4.4-14.1,6.8-22.1,7.3c-9.3,0.8-17.3-0.8-23.3-4.8s-12.1-11.2-18.1-21.7l2,25.8c-4.1-1.2-8.5-1.2-12.5-1.2
		c-4.4,0-8.8,0-12.9,0.4s-8,0.8-11.2,1.2c-3.2,0.4-6,0.8-9.3,1.6c-2.8,0.4-5.6,1.2-8.5,1.6v-2.8c4.4-2,7.6-4.8,9.7-8.8
		c2.8-4.4,4.4-8.8,5.3-14.1c1.2-6,1.6-11.7,1.6-17.7c0-6.4-0.4-13.3-0.8-20.9l-6.4-92.2c-0.4-8-1.6-15.7-2.4-23.8
		c-0.8-7.3-2.4-14.1-4.4-21.3c-1.2-5.6-3.6-10.5-7.3-15.3c-1.6-2.8-4.1-4.4-7.3-4.8h-0.4c-1.2,0-2-0.4-3.2,0v-2
		c2.8,0.4,5.6,0.4,8.5,0.4c7.3,0.4,14.9,0,22.1-0.8c4.8-0.4,9.7-0.8,14.9-1.2c5.6-0.8,11.2-1.6,16.9-2.8c-1.6,1.6-2.8,6-3.6,12.9
		c-0.8,7.6-0.8,15.3-0.8,22.9c0,8.8,0.4,17.7,0.8,26.5c0.4,9.3,0.8,17.3,1.6,23.8l1.2,16.5c2-4.8,4.4-9.3,6.8-13.7
		c2-3.6,4.8-7.3,8-10c3.2-2.8,6.8-4.8,10.9-6.4c5.3-1.6,10-2.8,15.7-2.8c7.3-0.8,14.5,0.4,21.7,2.8c7.3,2.8,13.3,6.8,18.1,12.9
		c6,7.3,10,15.3,12.9,24.1c4.1,12.1,6,24.1,6.4,36.6L588.9,372.8 M552.7,357.8c-1.6-19.7-5.3-35-11.2-46.3
		c-6-11.2-14.1-16.9-23.3-16.1c-5.3,0.4-9.3,2.4-12.9,6c-4.4,4.1-7.3,8.5-9.3,14.1c-2.8,6.4-4.4,13.3-4.8,20.5
		c-0.8,8.5-1.2,16.5-0.4,25c0.8,11.2,2.4,22.6,4.8,33.8c2,8.8,4.8,17.3,8.5,25.3c2.4,6,6,11.2,10.9,15.7c2.8,3.2,6.4,4.8,10.5,4.8
		h0.4h0.8c4.4-0.4,8-2.4,10.9-6c4.1-4.8,7.3-10,8.8-16.5c2.8-8.5,4.8-16.9,5.6-25.3C553.9,380.8,553.9,369.5,552.7,357.8
		L552.7,357.8"/>
	<path class="st0" d="M781.7,414.2c-3.2,0-6.4-0.4-10-0.4c-3.2,0-6.8-0.4-10.9-0.4c-4.1,0-8.5,0-12.9,0.4s-8.8,0.8-13.3,1.6
		c-4.4,0.8-8.5,1.6-12.9,3.2l-2.4-35.4c-3.6,15.7-8.8,27.4-16.1,35c-6.4,7.6-14.9,12.1-25,12.9c-0.4,0-0.8,0-1.2,0h-0.4
		c-16.5,1.2-29.4-4.8-38.6-17.7c-8.8-12.9-14.5-33.8-16.5-62l-0.8-12.9c-0.4-4.8-0.8-10.9-1.6-17.7c-0.4-6.8-1.6-14.1-2.4-21.7
		c-1.2-7.6-2.4-14.9-3.6-22.1c-1.2-6.4-2.8-12.9-4.8-19.3c-1.6-4.8-3.6-9.3-6.4-13.7c-2.4-3.6-5.3-5.3-8-4.8h-0.4l-0.4-3.2
		c3.2,0.4,6.4,0.8,10,0.8c3.2,0.4,6.8,0.4,10,0c4.1,0,8-0.4,12.1-0.4c4.1-0.4,8.5-0.8,12.5-1.6c4.1-0.8,8-1.6,11.7-3.2l10,141.6
		c1.2,17.3,3.6,29,7.3,36.2c3.6,7.3,9.3,10,16.5,9.7c12.1-0.8,20.9-9.3,26.5-25.3c5.6-15.7,7.3-38.2,5.3-67.2l-0.4-6.8
		c-0.4-4.1-0.8-8.8-1.2-14.9c-0.4-6-1.2-12.5-2.4-19.7c-1.2-6.8-2.4-14.1-4.1-20.9c-1.2-6.4-3.2-12.9-5.6-18.9
		c-1.6-4.8-4.1-9.3-7.3-13.7c-1.6-2.4-4.1-4.1-6.8-4.4h-0.4c-0.8,0-1.6,0-2.4,0c-0.8,0-1.6,0.4-2,0.4v-2.8c4.1,0.4,8,0.4,12.5,0.4
		c3.6,0,7.6,0.4,12.1,0c4.4,0,9.3,0,13.7-0.4s8.8-0.8,12.9-1.6c3.6-0.8,6.8-1.6,10-3.2c-0.8,9.3-1.2,19.3-1.2,29.4
		c0,8.8,0,19.3,0,30.2c0,11.2,0.8,22.6,1.6,34.6c0.8,11.7,2,22.9,4.1,34.2c1.6,10.5,3.6,20.5,6.8,30.6c2.4,8,6,15.3,10.9,22.1
		c3.2,5.3,8,8.5,13.7,9.7c0.4,0,0.4,0,0.8,0c0.4,0,0.8,0,1.2,0v3.6"/>
	<path class="st0" d="M1219.4,394c-2,0.8-4.1,1.6-6,2c-2,0.4-4.1,0.8-6,1.2c-8.8,0.8-16.5-1.6-23.3-7.3l0,0
		c-8-6.8-14.5-14.9-19.3-24.1c-8.5,23.8-21.3,36.6-38.6,37.9c-5.6,0.8-11.2-0.4-16.5-3.2c-5.3-2.4-9.3-6-12.9-10.5
		c-4.1-4.8-6.8-10-8.8-15.7c-2.4-6-3.6-12.5-4.1-18.9c-0.4-7.6,0-14.9,2-22.1c1.6-7.6,4.8-14.5,9.3-20.5
		c4.8-6.4,10.5-11.7,17.7-15.7c8-4.4,16.9-7.3,26.5-7.3c2.4,0,4.8-0.4,7.6-0.4c2.4,0,5.3,0,8,0.4c0.4-7.3,0.8-14.5,1.6-22.1
		c0.8-6.8,0.8-14.1,0.4-20.9c-0.4-4.1-0.8-8-2-12.1c-1.6-6-5.6-10.9-11.2-13.7c-1.2-0.8-2.8-1.2-4.4-2c-4.8-1.6-9.7-2-14.9-1.6h-0.4
		c-3.2,0.4-6.4,1.6-8.8,3.6c-2.8,2.4-5.6,5.3-7.6,8c-2.4,3.2-4.1,6.4-5.3,10c-1.2,3.2-1.6,6.4-1.6,10c0,3.2,1.2,6,3.6,8l0.4,0.4
		l0.4,0.4c2.8,2.4,7.3,3.2,13.7,2.8c0,2.4-0.4,5.3-1.2,7.3c-0.8,2.4-2.4,4.8-4.1,6.8c-1.6,2-3.6,3.6-5.6,5.3s-4.1,2.4-6.4,2.4
		c-2.4,0-4.8,0-6.8-0.8c-2.8-0.8-4.8-2-7.3-3.6c-2.4-1.6-4.4-3.6-6-6c-1.6-2.8-2.4-5.6-2.8-8.5c-0.4-6.4,0.4-12.9,3.2-18.9
		c2.8-6,6.4-11.2,11.2-15.7c5.3-4.8,10.9-8.8,17.7-11.2c6.8-3.2,14.1-4.8,21.7-5.3c7.3-0.4,14.1-0.4,21.3,0.8
		c6.4,0.8,12.5,3.2,18.1,6.4s10,8,12.9,13.7c4.1,6.8,6,14.1,6.4,22.1v3.2c-1.2,16.9-2,31.8-2.4,44.3s0,23.8,0.4,33.4
		c0.4,9.3,2,18.5,4.1,27.4c1.6,6,3.6,11.7,6.8,16.9c2,3.6,4.8,6.4,8.5,8.5c3.2,1.6,6.4,2,10,2L1219.4,394 M1155,293.1
		c-1.6,0-2.8,0-4.1,0s-2.4,0-3.6,0c-6.4,0-12.1,2.4-16.9,6.4c-4.4,3.6-7.3,8-9.3,13.7c-2,5.6-3.6,11.7-4.1,17.7
		c-0.4,6-0.4,12.5,0,18.5c0.4,5.3,1.2,10.5,2,15.7c0.8,4.8,2.4,9.7,4.1,14.1c1.2,3.6,3.2,7.3,6,10c1.6,2,3.6,3.2,6,3.2l0,0
		c0.4,0,0.8,0,1.6,0c4.1,0,7.3-1.6,10-4.4v-0.4l0,0l0,0c3.2-3.6,5.3-7.6,6.4-12.5c1.6-6,2.4-12.1,2.8-18.1c0.4-7.3,0.4-14.9,0-22.1
		L1155,293.1"/>
	<path class="st0" d="M1270.5,223c2-7.3,4.4-14.1,7.6-20.9c2-4.4,4.8-8.8,8.5-12.1c2.8-2.8,6.4-4.8,10-6c4.1-1.2,8.5-2,12.5-2
		c3.6-0.4,6.8-0.4,10.5,0c4.1,0.4,7.6,1.2,10.9,2.8c4.1,2,7.6,4.8,10.5,8c4.1,4.8,7.3,10,9.3,15.7c3.2,8,5.6,16.5,7.3,25.3
		c2.4,12.5,4.1,24.6,4.8,37c0.8,8.8,1.2,18.9,1.2,29.7c0,1.6,0,3.6,0,5.3l0.4,5.3c0.4,7.3,1.6,14.1,2.8,20.9
		c1.2,6.4,2.8,12.9,4.8,18.9c1.6,4.8,4.1,9.7,7.6,13.7c2,2.4,4.4,4.1,7.6,4.4c0.4,0,0.4,0,0.8,0c0.8,0,1.6,0,2.4,0l0.4,3.2
		c-3.2-0.4-6.4-0.8-10-1.2c-3.2,0-7.3-0.4-12.1-0.4c-5.3,0-10,0-15.3,0.4c-5.6,0.4-11.7,1.2-18.1,2c-6.8,1.2-13.3,2.4-19.7,4.4v-3.2
		c4.1-1.2,7.3-4.8,10-10.9c3.2-7.6,5.3-15.3,6-23.3c1.6-10.5,2-20.9,2.4-31.4c0-11.7,0-22.9-0.8-35c-0.8-11.2-2-21.7-3.6-31.8
		c-1.2-8.8-3.2-17.3-6-25.8c-2-6-4.8-11.7-8.5-17.3c-3.2-4.1-6.4-6-10.5-6c-13.7,1.2-22.6,11.2-26.5,30.6
		c-4.1,19.3-4.4,49.1-1.6,88.9c0.4,6.8,1.2,14.5,2.4,22.9c0.8,8,2.4,15.7,4.8,23.8c1.6,6.4,4.4,12.5,8,18.1
		c3.2,4.8,7.3,7.3,11.7,6.8l0.4,3.2c-4.1,0-8.5,0-13.7,0c-4.1,0-8.8,0-14.1,0s-10.9,0.4-16.1,0.8c-5.6,0.4-11.2,0.8-16.5,1.6
		c-5.3,0.8-10,2-14.9,3.2v-3.2c4.4-0.4,8-2.4,10.9-6l0.4-0.4c0.4-0.8,1.2-1.6,1.6-2.4c3.2-6,5.3-12.1,6-18.9
		c1.2-8.8,1.2-17.3,1.2-26.2c-0.4-9.7-0.8-19.7-1.6-30.2c-0.8-12.1-2-24.6-3.6-37.4c-1.6-12.1-3.6-24.1-6.4-35.8
		c-2-9.7-5.3-18.5-9.7-27.4c-3.6-7.3-8-10.9-13.3-11.2l0.8-4.8c4.1,1.6,8.5,2.4,12.9,2.8c4.1,0.4,8.5,0.4,12.5,0
		c4.1-0.4,7.6-0.8,11.2-1.6s6.8-1.6,9.7-2.4c3.2-1.2,6-2,8.8-3.2L1270.5,223"/>
	<path class="st0" d="M1551.8,367.5c-1.6,0-3.2,0-4.8,0c-2,0-3.6,0-5.6,0s-4.1,0-6.4,0.4c-3.6,0.4-7.3,0.8-11.2,1.2
		c-3.6,0.4-7.3,1.6-10.9,2.8c-3.2,1.2-6,2.4-8.8,4.4c-2.4,1.6-4.4,3.6-5.6,6.4l-3.2-35c-3.6,8.8-8.8,16.1-15.7,22.1
		c-6,5.6-13.3,8.8-21.3,9.3c-7.6,0.8-15.3-0.8-22.1-4.1c-7.3-3.2-14.1-8-19.3-13.7c-6-6-10.9-12.9-14.1-20.9c-4.1-8-6-16.9-6.4-25.8
		c-0.8-10,0-20.1,2.4-29.7c2-10,5.6-19.3,10.9-28.2c4.4-8.5,10-15.3,17.3-21.3c6.4-5.6,13.7-8.8,22.1-9.3c4.1-0.4,7.6,0,11.7,0.4
		c3.6,0.4,6.8,1.6,10,3.6c3.6,2,6.4,4.4,8.8,7.6c3.2,4.1,6.4,8,9.3,12.1c0-2.8,0-6,0.4-9.3c0-2.8,0-6,0-9.7c0-3.6-0.4-7.6-0.4-12.1
		c-0.4-6.8-1.2-13.3-2.4-20.1c-1.2-6.4-2.8-12.9-5.3-18.9c-2-5.3-4.8-9.7-8.8-13.7c-3.2-3.2-6.8-4.8-11.2-4.8h-0.4
		c-0.4,0-1.2,0-1.6,0l-0.4-4.4c4.1,0.4,8,0.4,12.5,0.4c3.6,0,7.3,0.4,11.7,0c4.4,0,8.8-0.4,13.3-0.8c4.4-0.4,8.8-0.8,13.3-2
		c3.6-0.4,6.8-1.6,10-3.2c-1.2,10.9-1.6,22.6-2,34.6c-0.4,10.5-0.4,22.1-0.4,35.4s0.4,26.5,1.6,40.2c0.8,12.5,2,25,4.1,37
		c1.6,10.9,3.6,21.7,6.4,32.6c2,8.5,5.6,16.1,10,23.8c4.1,6,8.8,9.3,14.1,10.5L1551.8,367.5 M1492.7,304.3c-0.4-8.8-2-18.1-4.4-26.5
		c-2-8-4.8-16.1-8.5-23.8c-2.8-6.4-6.8-12.1-11.7-16.9c-4.4-4.4-9.3-6.4-14.1-6c-4.4,0.4-8,2-11.2,5.6c0,0-0.4,0-0.4,0.4
		c-0.4,0.4-0.8,0.8-1.2,1.6c-4.1,5.6-6.4,11.7-7.6,18.1c-2,8.8-3.2,17.3-3.6,26.5c-0.4,10.5-0.4,21.3,0.4,31.8
		c1.2,18.5,4.8,32.6,10.5,42.6c5.6,10,12.5,14.9,21.3,14.1c0.4,0,0.8,0,0.8,0c0.4,0,0.4-0.4,0.8-0.4c10-2,17.7-8.8,22.9-20.9
		C1491.8,337.7,1493.9,322.4,1492.7,304.3L1492.7,304.3"/>
	<path class="st0" d="M1693.9,254.8c1.2,14.5,0.4,29.4-2.8,43.5c-2.4,13.7-6.4,26.5-12.5,39.1c-4.8,10.9-11.7,20.1-20.1,28.5
		c-7.6,7.3-16.5,11.7-25.3,12.1c-9.7,0.8-18.9-1.2-27-6.4c-9.3-5.3-16.9-12.5-23.3-21.3c-7.3-10-13.3-20.9-17.3-32.6
		c-4.8-13.3-7.6-27-8.5-40.6c-1.2-14.5-0.4-28.5,2.4-42.6c2.4-12.5,6.4-24.6,12.5-35.8c5.3-10,11.7-18.5,20.5-25.3
		c7.6-6.4,16.1-10,26.2-10.9c9.7-0.8,18.5,0.8,27.4,4.4c9.3,3.6,16.9,9.7,22.9,17.3c7.3,8.8,12.9,18.5,16.5,29.4
		C1690.7,226.7,1693.4,240.3,1693.9,254.8L1693.9,254.8 M1663.3,250.4c-0.8-14.1-2.4-27.8-4.8-41.4c-1.6-8.8-4.1-17.3-8.5-25.3
		c-3.2-6-7.3-10-12.1-12.5c-5.3-2.4-10.5-3.2-16.1-2.4c-13.7,1.2-22.6,11.7-26.5,32.6c-4.1,20.5-4.4,50.3-1.6,89.7
		c0.8,13.7,2.4,27,5.3,40.2c1.6,8.8,4.4,17.7,8.5,25.8c3.2,6.4,7.3,10.9,11.7,13.3c4.8,2.8,9.7,3.6,15.3,3.2
		c6.4-0.4,11.7-4.1,16.1-10.9c5.3-8.5,8.5-17.3,10-27c2.8-12.9,4.4-25.8,4.4-39.1C1664.9,281.4,1664.5,266.1,1663.3,250.4
		L1663.3,250.4"/>
	<path class="st0" d="M625.1,575.1h-1.2c-4.8-0.4-9.3,1.2-12.9,4.4l-0.4,0.4c-0.4,0.4-0.8,0.8-1.6,1.6c-4.8,5.3-8,11.2-10,17.7
		c-2.8,8.8-4.8,17.3-6,26.5c-1.6,10.5-2.4,20.9-2.8,31.8c-0.4,5.6-0.4,12.5,0,19.3c0,7.3,0,14.5,0.4,22.1c0,7.6,0.4,14.9,0.4,21.7
		s0,12.9,0,18.1c-0.4,7.3-1.2,14.9-3.2,21.7c-1.6,6.4-4.4,12.5-8.5,17.3c-4.4,5.3-10,8.8-16.9,10.9c-7.3,2.4-16.1,3.6-27.4,3.2
		c-13.7,0-25.3-5.3-35-14.9c0,0,0,0-0.4-0.4c-4.4-4.4-7.6-9.3-9.7-14.9c-2.4-5.6-3.2-11.2-2.8-17.3c0.4-4.8,1.6-9.3,3.2-13.7
		c2-5.3,4.8-9.7,8.5-13.7c3.6-4.4,8-7.6,12.9-10.5c5.3-2.8,10.5-4.1,16.5-3.6c4.1,0,7.3,1.6,9.7,4.4l0,0c2.8,2.8,4.1,7.6,3.6,14.5
		c0,2.8-0.8,5.3-1.6,8c-0.8,2.8-2,5.6-3.6,8.5c-1.2,2.4-3.2,4.4-5.3,6.4c-1.6,1.6-3.2,2.4-5.6,2.4H525c-2.4,0-3.6-1.2-3.6-3.2
		c0-1.6,0.4-3.2,1.2-4.8c0.8-2,1.6-4.1,2.8-6c0.8-2,2-4.1,2.8-6.4c0.8-2,1.2-3.6,1.6-6c0-3.2-0.8-5.3-2.8-5.3c-1.6,0-3.6,1.2-6,3.6
		c-2.8,3.2-4.8,6.4-6.8,10c-2.4,4.4-4.4,8.8-6,13.7c-1.6,4.8-2.4,9.7-2.8,14.9c-0.4,7.3,1.2,13.3,5.6,19.3
		c4.1,5.6,11.2,8.5,22.1,8.8c4.8,0,8.8-2,12.1-7.3c3.6-6,6.4-12.5,7.6-19.7c2-8.8,3.6-18.1,4.4-27.4c0.8-10,1.6-20.1,2-30.2
		c0.4-12.9,0.4-27-0.4-41.8c-0.8-14.1-2.4-27.8-4.8-41.8c-1.6-11.2-5.3-22.1-10.5-32.2c-4.4-8.8-10-13.3-17.3-13.7v-2.4
		c8.8,2,17.3,3.2,25.8,4.4c8.5,0.8,16.1,1.6,23.3,2c7.3,0.4,14.1,0.4,20.1,0c6,0,11.2-0.4,15.7-0.8c5.3-0.4,9.7-1.2,14.1-1.6v1.8"/>
	<path class="st0" d="M846.8,629.1c2.4-6.4,5.6-12.9,9.3-18.5c2.4-4.1,5.6-7.6,9.3-10.5c2.8-2.4,6.4-4.1,10-4.4
		c4.1-0.8,8-0.8,12.1-0.8c3.2,0,6.4,0.4,9.7,1.2c3.6,0.4,6.8,2,10,4.1c3.6,2.4,6.8,5.3,9.3,8.8c3.2,4.8,5.6,10,6.8,15.7
		c2,8,3.6,16.1,4.4,24.6c1.2,11.7,1.2,23.8,0.8,35.4c-0.4,8.5-1.2,17.7-2,28.2c-0.4,1.6-0.4,3.2-0.4,4.8v5.3
		c-0.4,6.8,0,13.3,0.4,20.1c0.4,6,1.2,12.1,2.8,18.1c1.2,4.8,2.8,9.3,5.6,13.7c1.6,2.8,3.6,4.4,6.4,5.3h0.4c0.8,0,1.6,0.4,2,0.4v3.2
		c-2.8-0.8-6-1.6-9.3-2c-3.2-0.4-6.8-1.2-10.9-1.6c-4.8-0.8-9.7-1.2-14.1-1.2c-5.3-0.4-10.9-0.4-16.9,0c-6.4,0.4-12.9,1.2-19.3,2.4
		v-3.2c4.1-0.8,7.3-3.6,10.5-9.3c3.6-6.8,6.4-13.7,8-21.3c2.4-9.7,4.4-19.3,5.6-29c1.2-10.9,2.4-21.7,2.8-32.6
		c0.4-10.5,0.4-20.5,0-30.2c-0.4-8.5-1.2-16.5-3.2-25c-1.2-6-3.2-11.7-6-16.9c-2.4-4.4-5.6-6.4-8.8-6.4c-12.9-0.4-22.6,8-28.2,26.2
		c-5.6,17.7-9.3,45.5-10.9,82.9c-0.4,6.4-0.4,13.7,0,21.7c0,7.6,0.8,15.3,2,22.6c0.8,6,2.8,12.1,5.6,17.7c2.4,4.8,6,7.3,10,7.6v3.2
		c-4.1-0.4-8-1.2-12.5-1.6c-4.1-0.4-8.5-1.2-13.3-1.6s-10-0.8-15.3-1.2c-5.3,0-10.5,0-15.7,0c-4.8,0-9.7,0.8-14.5,1.6v-3.2
		c4.1,0,7.6-1.6,10.5-4.4l0.4-0.4c0.4-0.4,1.2-1.2,1.6-2c3.6-5.3,6-10.9,7.3-17.3c2-8,3.2-16.1,3.6-24.6c0.8-9.3,1.2-18.5,1.6-28.5
		c0.4-11.2,0.4-23.3,0.4-35.4c0-11.7-0.8-22.9-2.4-34.2c-0.8-9.3-2.8-18.1-6-26.5c-2.8-7.3-6.4-10.9-11.2-11.7l1.2-4.4
		c3.6,2,7.6,3.2,11.7,4.1c4.1,0.8,7.6,1.2,11.7,1.6c3.6,0,7.3,0,10.9-0.4c3.2-0.4,6.4-0.8,9.3-1.2c3.2-0.8,6-1.2,8.8-2L846.8,629.1"
		/>
	<path class="st0" d="M1041.6,755.4h-0.4c-2.8-0.4-5.3-1.6-6.8-4.1c-2.4-2.4-3.2-4.8-3.2-8c0-0.4,0-0.4,0-0.8v-0.8
		c0-3.2,0.8-6,2-9.3s2.4-6,4.4-8.8c1.6-2.4,3.6-4.4,6-6.4c2-1.6,4.4-2.4,6.8-2.4c4.1,0,8,1.2,11.2,3.6c3.6,2,6.4,4.8,8.5,8.5
		c2.4,3.6,4.1,7.6,5.3,12.1c1.2,4.4,1.6,9.3,1.6,14.1c0,5.6-1.2,10.9-3.2,15.7c-2,5.3-4.8,10-8.8,13.7c-4.4,4.4-9.3,7.6-15.3,9.7
		c-6.8,2.4-14.1,3.6-21.7,3.2l-4.8-0.4c-6-0.4-12.1-2-17.7-4.4c-5.3-2-10-4.8-14.1-8.8c-4.1-4.1-6.8-8.8-8.8-14.1
		c-2.4-6-3.2-12.5-2.8-19.3c0.8-7.6,1.6-14.9,2.4-21.7c0.8-6.8,1.6-13.7,2.4-20.9c0.8-6.8,1.6-14.1,2.4-21.7s1.2-15.7,1.6-24.1
		c0.4-8.8,0.4-18.9,0.4-30.2c-1.6-0.8-2.8-1.2-4.4-1.2c-2.4-0.4-4.4-0.4-6.8-0.4c-2.8,0-5.3,0-8,0c-2.8,0-4.8,0-7.3,0.4
		c-2.4,0-4.8,0-7.6,0.4c6.4-2.8,13.3-5.3,20.1-6.8c6.4-1.2,12.1-3.2,17.7-6.4c6.4-3.6,11.2-8,15.3-14.1c4.8-6.4,8.8-16.1,12.5-29.4
		h4.4l-2,52.7c0.4,0.4,0.8,0.4,1.2,0.4h3.6c3.2,0,6.4,0,9.7-0.4c4.4-0.4,8.5-1.2,12.5-2.8c4.4-1.6,8.5-4.1,12.5-6.8
		c4.4-3.2,7.3-7.6,9.3-12.9c-0.4,3.2-0.8,6.4-1.2,9.7c-0.4,3.2-0.4,6-0.4,8.8c0,4.1,0,7.6,0.4,11.2c0.4,4.4,0.8,8.5,1.2,12.5
		c0.4,4.1,1.2,8.5,2,14.1h-0.8c-0.8-5.3-2.8-10-6.4-14.1c-3.2-3.6-6.8-6.4-11.2-8.5c-4.1-2-8.5-3.2-12.9-4.1
		c-3.6-0.8-7.6-1.2-11.2-1.2h-3.6c0,0,0,0-0.4,0l0,0h-1.6h-2c0,2,0,4.4,0,6.4l-0.4,6.8c-0.4,6-0.8,12.9-1.2,19.7s-1.2,14.1-1.6,20.9
		l-1.6,21.3c-0.4,7.3-0.8,14.1-1.2,20.5c-0.4,7.6-0.4,15.3,0,22.1c0,6,0.8,12.1,2,18.1c0.8,4.4,2.8,8.5,5.6,12.1
		c2,2.4,4.4,4.1,7.6,4.4h0.4c0.4,0,0.8,0,1.2,0c3.6,0.4,6.8-0.8,9.3-3.2c0,0,0.4,0,0.4-0.4l0.4-0.4c3.2-2.8,5.6-6,7.3-10
		c2-4.1,3.6-8.5,4.4-12.9s1.6-8.5,1.6-12.9c0.4-10.9-1.6-16.5-6.4-16.9c-2,0-3.6,0.4-5.3,1.6c-3.2,2.4-5.3,5.6-6.4,9.3
		c-0.4,1.6-0.8,3.6-0.8,5.6c0,1.6,0,2.8,0.8,3.6l0,0l0,0c1.2,1.2,2.8,2.4,4.4,2.8L1041.6,755.4"/>
	<path class="st0" d="M1217,701.9c-0.4,13.7-2.8,27.4-6.8,40.6c-3.6,12.5-8.8,24.1-16.1,35c-5.6,9.7-12.9,17.7-21.7,24.6
		c-8,6-16.5,9.3-25.3,8.8c-9.3-0.4-17.3-3.2-24.6-8.8c-8-6-14.9-13.7-19.7-22.6c-6-10-10-20.9-12.5-32.6
		c-3.2-12.9-4.4-25.8-3.6-39.1c0.4-13.7,2.4-26.5,6.8-39.4c3.6-11.7,8.8-22.6,15.7-32.2c5.6-8.8,12.9-16.1,21.7-21.7
		c7.6-5.6,16.1-8,25.8-7.3c8.8,0,17.3,2.4,25.3,6.8c8,4.4,14.9,10.9,19.7,18.5c6,8.8,10,18.9,12.5,29.4
		C1217,675.3,1217.8,688.6,1217,701.9L1217,701.9 M1188.8,695c0.8-13.3,0.8-26.2-0.4-39.4c-0.4-8.5-2-16.5-5.3-24.6
		c-2-5.3-5.3-9.7-10-12.9c-4.4-2.8-9.7-4.1-14.9-4.1c-12.9-0.4-22.6,8.8-28.2,27.8c-5.6,18.9-9.7,47.1-10.9,84.1
		c-0.8,12.9-0.4,25.3,0.4,38.2c0.4,8.5,2,16.9,5.3,25c1.6,5.6,4.8,10,9.3,13.7c4.1,2.8,8.8,4.4,13.7,4.4c6,0.4,11.2-2.4,16.1-8.5
		c5.6-7.3,9.7-15.3,12.5-24.1c4.1-11.7,6.8-23.8,8.5-35.8C1186.9,724,1188.5,709.6,1188.8,695L1188.8,695"/>
	<path class="st0" d="M1266.9,776.7c1.2,0.8,2.8,1.2,4.4,1.6c0.8,0,1.6,0,2-0.4l0,0l0.4-0.4c0.8-0.8,1.2-2,1.2-2.8v-0.4
		c0-1.6-0.4-2.8-1.2-4.4c-0.8-1.6-2-3.2-3.6-4.4c-1.6-1.6-3.2-2.8-5.3-4.1c-1.6-1.2-3.6-1.6-6-1.6c-1.6,0-2.8,0.4-4.1,1.2h-0.4l0,0
		l0,0c-1.6,1.6-2,4.1-2,6l0,0v0.8c0,4.4,0.8,8.5,2,12.5c1.2,4.4,3.2,8,5.6,11.7s5.6,6.4,9.3,8.5c3.6,2.4,7.6,3.6,12.1,3.6
		c4.8,0.4,9.3-0.8,13.3-2.8c4.4-1.6,8-4.4,11.7-7.3c3.2-2.8,6-6,8-9.7c2-2.8,3.2-6.4,3.2-10c0-6-1.6-11.7-5.3-16.9
		c-3.6-5.6-9.7-10-17.7-13.7c-9.7-4.1-19.3-8.5-28.2-13.7c-6.8-4.1-12.9-8.8-18.5-14.1c-4.4-4.4-8-9.7-10-15.7s-3.2-12.1-2.4-18.5
		c0-7.3,1.6-13.7,4.4-20.1c4.8-10.9,12.9-18.1,23.8-22.1c0.4,0,0.8-0.4,1.2-0.4c0.4,0,0.8-0.4,0.8-0.4c5.6-2,11.2-2.8,17.3-2.4
		c6.8,0,13.7,1.6,19.7,4.8c6.8,2.8,12.5,7.3,16.9,12.9c0.4,0.4,0.8,0.4,1.2,0.4l0,0l0,0l0,0h0.4c0,0,0.4,0,0.4-0.4
		c0,0,0.4,0,0.4-0.4l0.4-0.4l0.4-0.4l0.4-0.4c1.6-1.6,2.8-3.2,4.4-5.3c2-2.4,4.1-4.8,5.6-7.6l2,2.4c-1.6,2.8-2.8,5.6-4.1,8.8
		c-1.2,3.6-2,7.6-2.8,11.2c-0.8,5.3-1.2,10.9-1.6,16.1c0,3.2,0,6.4,0,9.7c0,3.2,0.4,6.8,0.4,10.9c0,0.4,0,0.8,0,1.2s0,0.8,0,1.2v0.4
		c0,0,0,0,0,0.4l0,0l0,0l0,0v0.4l0,0l0,0l0,0l0,0h-0.4l0,0h-2.4c-5.3-19.7-11.2-35-18.1-45c-4.8-8-11.7-12.9-20.9-15.3
		c-0.4,0-0.4,0-0.8,0c-2.4-0.4-4.8-0.8-7.3-0.8c-5.6-0.4-10.9,1.2-15.3,5.3l-0.4,0.4c-0.4,0.4-1.2,0.8-1.6,1.6
		c-5.3,5.3-7.6,11.7-7.6,18.9l0,0c-0.4,4.8,1.2,9.3,4.4,12.9l0.4,0.4c0.4,0.4,0.8,0.8,1.6,1.2c4.4,4.4,12.1,8.5,22.6,12.5
		c9.3,3.6,18.1,7.6,27,12.5c6.4,3.6,12.5,8,17.3,13.3c4.4,4.4,7.6,9.7,9.3,15.3c2,6,2.8,12.1,2.4,18.5c0,8.8-2.4,16.9-6.8,24.6
		c-4.1,6.8-9.3,12.9-16.1,17.7c-6,4.8-12.9,8.5-20.5,10.9c-6.8,2.4-13.7,3.6-20.5,3.2c-5.6,0-10.9-1.2-15.7-3.6
		c-5.3-2-10-4.8-14.5-8.5c-4.4-3.2-7.6-7.3-10.9-11.7c-2.8-4.1-4.1-8.5-3.6-13.3c0-4.1,1.2-7.6,3.2-10.9c2-2.8,4.4-5.3,7.6-7.3
		s6.4-3.2,9.7-3.6c3.2-0.8,6.8-1.2,10-0.8c6,0,11.2,2,15.3,6c4.1,3.6,5.6,9.3,5.3,16.9c0,2.4-0.8,4.1-2,6v0.4l-0.4,0.4
		c-1.6,1.6-3.6,2.4-6,2l0,0c-1.2,0-2-0.4-3.2-0.8c-1.2-0.4-2-1.2-2.8-2L1266.9,776.7"/>
	<path class="st1" d="M869.8,256.1c-2-0.8-4.4-0.8-6.8-0.8c-4.4,0.4-6.4,2.8-6,6.8c0.4,2.4,1.2,4.4,2.4,6.4c1.6,2.4,3.2,4.4,5.3,6.4
		c2,2,4.4,3.6,7.3,4.8c2.8,1.2,5.6,1.6,8.5,1.6c2,0,3.6-1.6,4.8-4.4s1.6-7.3,0.8-14.1c-0.8-5.3-2-10.5-4.8-15.3
		c-2.8-6-6.4-11.7-10.5-16.9c-4.1-5.3-8.8-9.7-14.5-13.3c-5.3-3.6-10.5-4.8-16.5-4.4c-5.6,0.4-10.5,2.8-14.5,7.3l-0.4,0.4
		c-4.4,5.6-7.6,12.5-9.7,19.3c-2.8,9.7-4.1,19.7-4.4,29.7c-0.4,12.9,0,25.8,0.8,38.6c1.2,17.3,3.6,35,6.4,51.9
		c2,11.7,5.3,23.3,10,34.2c4.1,8.8,8.8,14.9,14.5,18.5c6,3.6,12.9,5.3,19.7,4.4c16.1-1.2,27.8-8.8,35-22.6
		c7.3-13.7,11.7-33.8,12.9-60.8l4.8-0.4c-0.8,29.7-5.6,52.7-14.5,68.8c-8.8,16.1-23.3,25-43.5,26.5c-10.5,0.8-20.5-1.6-29.7-6.8
		c-10-5.6-18.9-12.9-26.2-22.1c-8.5-10-14.9-21.3-19.7-33.4c-5.6-12.9-8.8-26.5-9.7-40.6c-1.6-14.9-0.4-29.7,2.8-44.7
		c2.8-13.3,7.3-25.3,14.5-37c6-10.5,14.1-18.9,24.1-25.8c9.3-6.8,19.7-10.5,31.4-11.2c8-0.8,15.7,0,23.8,2c7.3,2,14.1,5.3,20.1,9.7
		s10.9,9.7,14.5,16.1c3.6,6.4,6,13.3,6.4,20.9v2c0.4,6.4,0,12.5-2.4,18.5c-1.6,4.4-4.1,8-7.3,11.2c-2.8,2.8-6,4.8-9.7,6
		c-3.2,1.2-6,1.6-9.3,2c-4.1,0-7.6-0.8-11.2-2.4c-4.1-2-7.6-4.8-10.9-7.6c-3.6-3.2-6.4-6.8-8.8-10.9c-2.4-3.6-3.6-7.6-4.1-12.1
		c-0.4-4.4,0.8-8.5,3.6-12.1c1.6-2,4.1-3.2,6.8-3.2c0,0,0,0,0.4,0c2.4,0,4.8,0,7.3,1.2c2.4,0.8,4.8,2,6.4,3.6L869.8,256.1"/>
</g>
<g transform="matrix(1.0, 0.0, 0.0, 1.0, 158.25, 96.25)">
	<path class="st2" d="M794.6,245.3c-4.8-12.9-4.4-25.8,1.6-38.6c6-12.5,15.7-21.3,29-26.2s26.2-4.4,39.1,1.2
		c12.8,5.7,21.7,15.3,26.9,28.2L794.6,245.3"/>
	<path class="st3" d="M784.9,267.9l-2.8-4.8c-4.4-8.5-6.8-17.3-7.6-26.5c-0.8-9.3,0.4-18.1,3.2-27.4c2.8-8.8,7.3-16.9,13.3-24.1
		c6-7.3,13.3-12.9,21.7-16.9l8.8,17.3c-6,3.2-11.2,7.3-15.7,12.5c-4.4,5.3-7.6,10.9-9.7,17.3c-2,6.4-2.8,13.3-2.4,20.1
		c0.4,6.8,2.4,13.3,5.6,19.3c3.2,6,7.3,11.2,12.5,15.3c5.3,4.4,10.9,7.6,17.3,10c6.4,2,13.3,2.8,19.7,2.4s13.3-2.4,19.3-5.6
		l8.8,17.3c-8.5,4.4-17.3,6.8-26.5,7.6c-9.3,0.8-18.5-0.4-27.4-3.2c-8-2.4-15.3-6.4-21.7-11.7C795,281.1,789.4,275,784.9,267.9"/>
	<path class="st4" d="M846.5,296.4c6.4,0,12.5-0.8,18.1-3.2s10.9-5.6,15.7-10c4.4-4.4,8-9.3,10.9-15.3c2.4-5.6,3.6-11.7,3.6-18.1
		l18.1,0.4c-0.4,8.8-2,17.3-5.3,25.3c-3.6,8-8.5,14.9-14.5,20.9c-5.6,5.6-12.1,9.7-18.9,12.9c-7.3,3.2-14.5,5.3-22.6,5.6h-5.3v-18.6
		"/>
</g>
<g transform="matrix(1.0, 0.0, 0.0, 1.0, 56.4, 49.9)">
	<path class="st5" d="M661.9,570.4c10.9,5.7,19.8,14.4,26.7,25.9c6.6,10.9,10.5,23,11.8,36.1c1.2,13.4-0.5,25.7-5.2,37.1
		c-5.1,12.2-13,21.8-23.9,28.6c-5.2,3.3-10.7,5.5-16.7,6.7l-18,0.6"/>
	<path class="st6" d="M660.3,713.8c-21.2,3.6-39.3-3.8-54.1-22.4c-6.5-8.1-11.3-17.3-14.6-27.6c-3.3-10.3-4.5-20.5-3.9-30.5
		c0.8-14.2,5.4-27.1,14-38.8"/>
	<path class="st4" d="M692.2,705.6c2.6,0,4.9,0.9,6.6,2.8c1.9,1.9,2.8,4.1,2.8,6.6c0,2.6-0.9,4.9-2.8,6.6c-1.8,1.9-4,2.8-6.6,2.8
		c-2.6,0-4.8-0.9-6.6-2.8c-1.9-1.8-2.8-4-2.8-6.6c0-2.6,0.9-4.8,2.8-6.6C687.4,706.5,689.6,705.6,692.2,705.6"/>
	<path class="st4" d="M711.4,687.1c2.6,0,4.8,0.9,6.6,2.8c1.9,1.9,2.8,4.1,2.8,6.6c0,2.6-0.9,4.9-2.8,6.7c-1.9,1.9-4.1,2.8-6.6,2.8
		s-4.8-0.9-6.6-2.8c-1.9-1.9-2.8-4.1-2.8-6.7c0-2.6,0.9-4.8,2.8-6.6C706.6,688,708.8,687.1,711.4,687.1"/>
	<path class="st4" d="M722.3,662.2c2.6,0,4.9,0.9,6.7,2.8c1.9,1.9,2.8,4.1,2.8,6.6s-0.9,4.8-2.8,6.6c-1.9,1.9-4.1,2.8-6.7,2.8
		c-2.6,0-4.8-0.9-6.6-2.8c-1.9-1.8-2.8-4-2.8-6.6c0-2.6,0.9-4.8,2.8-6.6C717.5,663.2,719.7,662.2,722.3,662.2"/>
	<path class="st7" d="M664.2,608.7l25.5-36.2l36.2,25.5L664.2,608.7"/>
</g>
</svg>
