<?xml version="1.0" encoding="utf-8"?>
<!-- Generator: Adobe Illustrator 24.2.3, SVG Export Plug-In . SVG Version: 6.00 Build 0)  -->
<svg version="1.1" id="Layer_1" xmlns="http://www.w3.org/2000/svg" xmlns:xlink="http://www.w3.org/1999/xlink" x="0px" y="0px"
	 viewBox="0 0 1695.65 945.65" style="enable-background:new 0 0 1695.65 945.65;" xml:space="preserve">
<style type="text/css">
	.st0{fill:#5D9A83;}
	.st1{fill:#4178B3;}
	.st2{fill:#F27A84;}
	.st3{fill:#EE2A74;}
	.st4{fill:#533F8B;}
	.st5{fill:#EA803C;}
</style>
<g>
	<g>
		<path d="M1079.81,799.97c0,0-25.24-2.33-53.02-0.11c-13.89,1.11-28.65,3.25-40.84,7.59l-4.43-55.55
			c-11.51,49.11-32.74,72.97-66.25,75.64c-52.2,4.16-80.42-35.51-87.52-124.58l-1.64-20.59c-3.74-46.93-15.55-158.75-43.8-156.5
			l-0.48,0.04l-0.42-5.27c0,0,24.29,2.4,50.62,0.3c12.93-1.03,26.74-3.1,37.97-7.36l17.71,222.19c4.27,53.63,15.01,73.5,38,71.67
			c37.83-3.02,55.81-55.53,48.64-145.55l-0.88-11.01c-2.86-35.91-14.23-148.25-48.22-145.54c-0.96,0.08-2.39,0.19-3.31,0.75
			l-0.38-4.79c0,0,31.51,2.31,60.24,0.02c14.37-1.15,27.66-3.65,36.49-7.73c0,0-4.22,74.07,1.7,148.29
			c5.84,73.26,21.33,146.72,59.81,151.85L1079.81,799.97z"/>
	</g>
	<g>
		<path d="M1160.25,548.76c15.44-54.24,30.67-62.68,60.35-65.05c31.6-2.52,73.84,1.34,84.87,139.73c1.15,14.37,1.89,29.73,2.3,47.04
			c-0.06,5.31,0.36,10.57,0.82,16.32c3.51,44.06,16.54,92.65,41.48,91.15l0.42,5.27c0,0-23.48-4.39-58.44-1.61
			c-17.72,1.41-37.71,4.45-59.36,11l-0.42-5.27c25.48-6.85,32.34-84.02,26.46-157.76c-5.61-70.39-22.24-127.86-45.7-125.99
			c-43.58,3.47-53.25,63.52-43.32,188.02c3.47,43.57,14.39,114.03,42.64,111.77l0.42,5.27c0,0-33.86-1.64-68.82,1.15
			c-17.72,1.41-35.32,4.26-49.46,8.28l-0.42-5.27c34.73-5.66,32.27-66.66,27.05-132.27c-5.99-75.18-20.56-173.29-53.47-175
			l1.34-7.33c12.91,4.75,26.95,5.56,39.88,4.53c25.38-2.02,46.79-11.44,46.79-11.44L1160.25,548.76z"/>
	</g>
	<g>
		<path d="M1599.72,772.99c0,0-11.61-0.52-26.45,0.66c-22.03,1.76-50.97,7.44-57.41,23.37l-5.34-54.99
			c-12.15,28.92-34.24,48.03-58.19,49.94c-47.88,3.82-94.55-43.55-99.09-100.53c-4.81-60.34,31.57-136,81.85-140.01
			c27.29-2.18,41.94,6.29,63.18,36.89c0,0,1.12-22.26-0.98-48.59c-3.24-40.7-14.11-92.36-48.11-89.65l-0.57-7.18
			c0,0,31.47,1.83,58.77-0.35c13.41-1.07,30.01-4.32,36.45-8.21c0,0-6.94,88.26-0.15,173.49c6.34,79.49,21.22,157.33,55.79,161.81
			L1599.72,772.99z M1444.38,559.36c-31.6,2.52-41.35,61.61-35.74,132c4.54,56.98,23.13,90.68,50.43,88.5
			c0.96-0.08,1.88-0.63,2.83-0.71c31.78-6.39,48.72-47.74,44.14-105.2C1501.58,617.93,1475.51,556.88,1444.38,559.36z"/>
	</g>
	<g>
		<circle class="st0" cx="747.39" cy="592.79" r="14.49"/>
	</g>
	<g>
		<circle class="st0" cx="700.84" cy="555.81" r="15.93"/>
	</g>
	<g>
		<circle class="st0" cx="747.39" cy="592.79" r="15.93"/>
	</g>
	<g>
		<circle class="st0" cx="774.16" cy="648.41" r="15.93"/>
	</g>
	<g>
		<circle class="st0" cx="781.65" cy="705.94" r="15.93"/>
	</g>
	<g>
		<circle class="st0" cx="768.04" cy="762.97" r="15.93"/>
	</g>
	<g>
		<circle class="st0" cx="774.16" cy="648.41" r="14.49"/>
	</g>
	<g>
		<circle class="st0" cx="781.65" cy="705.94" r="14.49"/>
	</g>
	<g>
		<circle class="st0" cx="768.04" cy="762.97" r="14.49"/>
	</g>
	<g>
		<path class="st1" d="M667.08,839.64c-70.21,18.11-141.8-24.12-159.92-94.32c-18.11-70.21,24.12-141.8,94.32-159.92L667.08,839.64z
			"/>
	</g>
	<g>
		<path class="st2" d="M585.01,565.43c70.21-18.11,141.8,24.12,159.92,94.32s-24.12,141.8-94.32,159.92L585.01,565.43z"/>
	</g>
	<g>
		<g>
			<polygon class="st3" points="540.2,555.91 483.04,652.81 560.07,632.93 			"/>
		</g>
	</g>
	<g>
		<path d="M425.06,781.25c0.9,11.31,3.4,20.73,3.4,20.73c-11.35-5.22-13.68-12.47-14.38-21.17l-0.38-4.78
			c-0.83-21.37,17.18-42.49,33.7-43.81c21.74-1.73,33.4,18.34,35.34,42.69c2.77,34.78-13.83,78.98-49.05,81.79
			c-41.3,3.29-75.67-27.22-78.62-64.17l-0.8-10c-4.89-61.3-15.76-60.44-47.93-57.87l-9.56,0.76c0,0-0.18,8.76,0.83,21.37
			c2.77,34.78,15.04,117.37,55.26,122.48l0.31,3.91c0,0-30.48-3.7-74.4-0.2c-21.74,1.73-46.82,5.48-73.42,11.98l-2.99-4.57
			c2.21,0.26,4.38,0.09,6.56-0.09c44.35-3.53,36.41-103.1,30.24-180.48l-3.05-38.26c-4.19-52.61-11.31-97.98-48.7-95
			c-2.17,0.17-4.78,0.38-7.35,1.02l-0.66-8.26c29.94,2.43,58.34,1.91,81.39,0.08c36.52-2.91,60.99-8.8,60.99-8.8
			c71.84-4.41,120.14,8.8,124.55,64.02c3.12,39.13-26.32,86.98-89.03,101.6c61.84,7.32,30.86,140.17,78.68,136.36
			c13.48-1.07,16.29-48.11,14.18-74.63c-1.32-16.52-4.53-29.39-9.75-28.98c-2.17,0.17-4.75,0.82-7.25,2.33
			C424.83,756.33,424.12,769.51,425.06,781.25z M312.14,555.74l-0.87,0.07c-24.78,1.98-21.43,87.9-17.9,132.24
			c1.46,18.26,2.93,31.27,2.93,31.27l21.3-1.7c60-4.78,71.48-36.32,66.87-94.15C381.12,581.31,353.01,552.48,312.14,555.74z"/>
	</g>
	<path d="M140.73,579.34c20.59-1.64,35.46,16.01,38.95,41.23c6.88,49.75-24.72,63.24-35.98,66.89l-3.84-8.41
		c20.4-11.94,27.07-24.26,24.62-47.5c0,0-11.31,7.03-18.5,7.6c-15.32,1.22-29.32-11.16-30.62-27.44
		C113.98,594.48,124.92,580.6,140.73,579.34z"/>
	<g>
		<path d="M255.71,491.52c0,0-55.3-0.04-104.94,4.23c-22.43,1.93-43.35,4.7-57.9,8.83l-0.29-3.34
			c47.28-9.36,42.58-80.61,36.54-150.77c-7.2-83.53-16.06-180.86-64.83-177.62l-0.33-3.82c47.23,1.22,95.52-1.98,137.05-5.56
			c27.68-2.39,51.99-4.96,71.08-6.6l17.08,2.86c30.42,7,40.97,23.4,42.98,46.79c2.88,33.41-9.31,70.53-70.05,91.15
			c61.36,3.37,92.94,12.67,98.03,71.86C364.81,423.94,327.79,485.31,255.71,491.52z M236.65,303.7l-61.1,5.26
			c0.83,26.38,2.33,49.33,4.01,68.9c7.81,90.69,20.91,108.8,20.91,108.8l35.8-3.08c50.6-4.36,69.11-29.52,64.09-87.75
			C295.59,340.46,284.38,299.59,236.65,303.7z M212.87,167.26l-39.62,3.41c0,0-9.82,3.25-1.68,97.76
			c0.95,10.98,1.97,22.91,3.6,36.23l29.12-2.51c60.14-5.18,82.54-7.59,77.48-66.3C277.41,185.27,255.83,163.56,212.87,167.26z"/>
	</g>
	<g>
		<path d="M521.88,488.79c0,0-23.32-2.8-58.17,0.2c-17.66,1.52-38.06,4.72-60.21,9.99l-0.49-5.73c1.95,0.31,4.38,0.59,6.29,0.42
			c27.68-2.39,23.05-95.27,16.18-174.99c-2.18-25.3-4.71-49.12-6.36-68.21c-4.89-56.8-11.75-102.85-37.04-100.67
			c-2.86,0.25-5.69,0.97-8.47,2.17l-0.74-8.59c0,0,25.71,2.59,51.01,0.41c12.41-1.07,25.17-3.61,34.43-7.77
			c0,0,1.38,66.24,7.67,139.27c7.65,88.78,24.42,210.92,52.58,208.49c0.96-0.08,1.87-0.64,2.82-0.72L521.88,488.79z"/>
	</g>
	<g>
		<path d="M726.5,458.18c-26.25,2.26-48.98-15.98-67.69-48.99c-12.19,37.12-32.54,57.62-59.75,59.97
			c-38.18,3.29-63.47-33.48-67.01-74.53c-3.99-46.3,20.33-98.89,85.25-104.48c7.64-0.66,15.79-0.88,24.51-0.19
			c0.45-22.64,4.13-47,2.36-67.52c-2.34-27.21-14.18-47.35-51.49-45.09l-0.48,0.04c-19.57,1.69-37.63,32.09-36.02,50.71
			c0.99,11.46,8.89,19.43,28.46,17.75c1.27,14.8-13.91,33.9-26.8,35.01c-12.89,1.11-34-9.57-35.73-29.62
			c-3.58-41.53,34.68-77.52,83.36-81.72c45.82-3.95,87.96,10.7,92.77,66.54l0.45,5.25c-3.11,53.16-3.6,92.15-1.01,122.23
			c6,69.69,26.1,85.27,47.18,84.41l0.45,5.25C738.79,455.67,732.7,457.64,726.5,458.18z M642.34,296.16
			c-4.81-0.07-8.2-0.26-12.02,0.07c-44.39,3.82-48.95,51.34-45.74,88.57c2.88,33.41,14.6,68.95,32.26,67.43
			c25.77-2.22,32.99-41.31,28.71-90.95L642.34,296.16z"/>
	</g>
	<g>
		<path d="M894.92,375.86l-0.95,0.08c-6.68,0.58-18.4-7.07-19.51-19.96c-1.69-19.57,10.93-46.14,26.2-47.46
			c28.16-2.43,48.85,25.61,51.56,57.11c3.04,35.32-16.14,74.96-71.51,79.73l-8.16,0.22c-42.21,1.23-76.64-18.88-80.83-67.57
			c-1.5-50.84,0.86-90.48-4.08-147.75c-1.32-15.27-3.19-31.46-5.71-49.52c-3.51-1.62-11.18-1.44-19.3-0.74
			c-16.71,1.44-37.02,5.59-37.02,5.59c43.89-26.38,83.66-16.82,96.58-106.9l7.64-0.66l7.53,87.35c0,0,2.9,0.23,7.68-0.18
			c17.18-1.48,56.91-9.23,67.62-46.7c-0.49,11.1-0.06,21.64,0.76,31.19c1.89,21.96,12.98,61.39,13.46,61.35l-1.39,0.6
			c-12.36-37.4-53.86-39.12-74.86-37.31c-7.64,0.66-12.37,1.55-12.37,1.55c1.09,7.12,1.75,14.76,2.41,22.39
			c3.54,41.05,3.68,92.97,7.46,136.88c4.48,52.03,13.75,92.58,39.52,90.36s32.22-44.61,30.04-69.91
			c-1.6-18.62-7.12-26.8-14.28-26.18c-12.89,1.11-18.13,18.39-17.18,29.37c0.49,5.73,3.04,7.43,10.97,10.12L894.92,375.86z"/>
	</g>
	<g>
		<path d="M1219.86,412.34c0,0-24.76-2.68-59.12,0.28c-17.19,1.48-36.63,4.6-57.34,9.75l-0.37-4.3
			c28.31-6.29,32.65-89.85,28.87-133.76c-4.32-50.12-12.12-96.09-45.58-93.69l-0.48,0.04c-30.07,2.59-51.27,35.67-47.28,81.97
			c0.18,7.68,0.85,21.08,2.21,36.84c4.19,48.69,15.69,131.85,41.46,129.63l0.48-0.04l1.43-0.12l0.37,4.3c0,0-32.87-1.98-67.24,0.98
			c-17.18,1.48-34.64,5.39-48.67,9.96l-0.45-5.25l4.3-0.37c31.02-2.67,25.53-88.75,17.43-182.79
			c-7.07-82.1-16.68-188.02-53.43-184.86l-0.48,0.04l-0.29-3.34c0,0,32.47,2.97,57.77,0.79c12.89-1.11,23.27-3.45,27.67-8.15
			c-1.09,20.77-0.61,37.56,0.79,53.79c2.55,29.59,8.15,55.56,11.96,94.18c16.63-30.28,33.27-37.97,59.05-40.19l2.86-0.25
			c64.6-3.64,78.01,23.57,81.46,63.67c1.77,20.52,0.84,43.2,2.61,63.73c2.43,28.16,13.75,92.58,40.11,102.81L1219.86,412.34z"/>
	</g>
	<g>
		<path d="M1496.73,71.57c24.82-2.14,36.03-5.99,36.03-5.99l2.84,32.93c8.95-30.1,20.93-41.71,42.89-43.61
			c29.59-2.55,51.14,18.68,53.07,41.11c2.43,28.16-26.16,47.94-46.21,49.66c-13.37,1.15-18.24-5.16-18.98-13.75
			c-0.66-7.64,1.9-16.99,4.67-23.96l3.38,0.19c-0.79,1.99-1.06,4.42-0.86,6.8c0.62,7.16,5.53,13.95,13.64,13.25
			c7.16-0.62,13.73-13.69,12.12-32.3c-1.52-17.66-14.69-30.95-28.53-29.76c-38.18,3.29-35.27,76.13-30.63,130.07
			c5.63,65.39,14.91,167.5,57.18,200.4l0.29,3.34c0,0-21.29-1.53-56.61,1.51c-17.66,1.52-39.06,4.33-63.2,8.81l-0.77-3.3
			c30.92-26.23,25-122.85,19.7-184.42c-5.35-62.05-14.68-142.51-47.95-143.49l-0.53-6.21C1468.05,73.56,1484.32,72.64,1496.73,71.57
			z"/>
	</g>
	<g>
		<path class="st4" d="M1214.57,290.21c-1.76-3.42-3.4-6.93-4.91-10.52c-15.14-36.05-15.34-75.83-0.56-112.03
			c14.78-36.2,42.77-64.47,78.82-79.61l15.62,37.18c-26.12,10.97-46.4,31.45-57.1,57.68c-10.71,26.22-10.56,55.05,0.41,81.16
			c10.98,26.13,31.46,46.4,57.68,57.1c26.22,10.71,55.05,10.57,81.16-0.41l15.62,37.18c-36.05,15.15-75.83,15.34-112.03,0.57
			C1256.69,345.2,1230.51,321.18,1214.57,290.21z"/>
	</g>
	<g>
		<path class="st0" d="M1343.66,354.8c26.26,1.58,51.53-7.14,71.21-24.58c19.68-17.43,31.39-41.49,32.98-67.73l37.36,2.26
			c-2.19,36.22-18.35,69.42-45.51,93.49c-24.46,21.67-55.2,33.59-87.53,34.15c-3.57,0.06-7.16-0.01-10.77-0.23L1343.66,354.8z"/>
	</g>
	<path class="st5" d="M1241.29,243.39c-15.91-55.24,15.98-112.91,71.22-128.82s112.91,15.98,128.82,71.22L1241.29,243.39z"/>
</g>
</svg>
