<svg xmlns="http://www.w3.org/2000/svg" x="0px" y="0px" width="500px" height="500px" viewBox="0 0 500 500">
    <defs><style>.cls-1{fill:#564713;}.cls-2{fill:#D8B230;}</style></defs>
    <g id="Layer_2" data-name="Layer 2">
        <g id="Avatar10">
            <path id="outline" class="cls-1" d="M 385 220.11 a 61.49 61.49 0 0 0 30.74 -17.45 q 19.13 -18.94 19.11 -45.9 T 415.76 110.65 A 62.17 62.17 0 0 0 375.89 92 h 0.2 Q 350 89.1 333.31 98 a 134.11 134.11 0 0 0 0.83 -22 l -0.21 -4.77 q -18.85 1.14 -46.32 2.49 L 285.53 50 q -49.25 6.95 -74.77 10.18 l -0.62 9.34 q -22.24 0.68 -48.4 0.42 q -7.58 20.1 2.5 41.33 Q 141.57 88.35 108.57 92 h 0.21 Q 85.85 93.91 68.9 110.65 A 63.21 63.21 0 0 0 50 156.76 q 0 27 18.9 45.9 q 13.55 13.53 31 17.45 Q 123.58 253.68 139.31 259 q 16 6.54 30.74 -1 q 1.22 2.4 2.29 4.57 l -2.7 11.84 Q 166 296.52 158 345.15 q -30.95 16.16 -29.08 56.08 l 0.2 10 H 229 l 2.91 -2.07 q 5.79 -4.33 10.38 -8.1 q 4.8 3.76 10.6 8.1 l 2.7 2.07 H 355.74 l 0.21 -10 q 1.86 -39.92 -29.08 -56.08 q -5 -30.12 -13.71 -80.18 a 31.43 31.43 0 0 0 1.45 -7.06 q 15 7.59 30.95 1 Q 361.3 253.67 385 220.11 Z"/>
            <path id="fill" class="cls-2" d="M 274.11 112.41 l -5 -37 l -48.81 6.23 L 216 112.41 q -19 -4.86 -20.14 -31.36 H 179.19 a 77.36 77.36 0 0 0 4.36 26.59 q 8.31 21.6 30.33 23.88 l -2.7 13.92 H 158.84 Q 153 109.79 117.3 109.3 q 0 6.6 -0.21 15.78 a 25.34 25.34 0 0 1 23 25.14 a 23.71 23.71 0 0 1 -7.47 17.65 a 24.28 24.28 0 0 1 -17.87 7.27 a 24.46 24.46 0 0 1 -17.65 -7.27 a 24 24 0 0 1 -7.27 -17.65 a 25.27 25.27 0 0 1 6.85 -17.66 q -3.24 -5 -7.68 -12 q -19.32 15.57 -16.2 38.42 q 1 12 11.42 23.47 q 2.49 2.49 5.4 5.19 q 3.73 2.7 7.69 5.2 a 36.37 36.37 0 0 0 14.33 4.36 q 31.77 49.49 52.13 34.06 a 7.14 7.14 0 0 0 1.25 -0.83 a 18.2 18.2 0 0 0 4.36 -8.31 l 12.25 7.27 l 28.46 0.62 l -0.21 7.07 q -11.88 -0.22 -20.15 -0.63 q -3.43 20.84 12.47 28.46 q -1.8 6.3 -4.37 16.61 h -10 l -10.38 76 v 0.21 l -0.21 0.21 v 0.21 q -23.65 3.18 -24.71 27.41 l 68.12 0.21 l 15.37 -11.21 l 0.83 -91.39 l -9.55 -3.53 l 1 -14.34 q 15.89 -0.14 26.37 -0.62 l 2.7 15 l -9.55 3.53 l 0.83 91.39 l 15.37 11.21 l 68.13 -0.21 q -1 -24.3 -24.93 -27.21 v -0.41 h -0.2 l 0.2 -0.42 l -10.38 -76 H 287 q -2.49 -10.38 -4.36 -16.4 q 16 -7.91 12.25 -28.46 q -8.1 0.21 -19.94 0.42 l -0.21 -7.07 l 28.46 -0.62 l 12.25 -7.27 a 18.21 18.21 0 0 0 4.37 8.31 a 3.64 3.64 0 0 1 1 1 q 20.57 15.16 52.35 -34.27 a 36.42 36.42 0 0 0 14.33 -4.36 q 3.94 -2.51 7.68 -5.2 q 2.91 -2.7 5.4 -5.19 Q 411 171 412 158.94 q 3.11 -22.84 -16.21 -38.42 q -4.35 7 -7.89 12.25 a 25.08 25.08 0 0 1 -0.21 35.1 a 25.32 25.32 0 0 1 -35.51 0 a 23.69 23.69 0 0 1 -7.48 -17.65 a 24.38 24.38 0 0 1 7.48 -17.87 a 23.63 23.63 0 0 1 15.58 -7.06 q -0.21 -9.35 -0.42 -16 q -36.5 0.56 -41.54 36.55 l -47.15 -0.2 l -2.49 -14.13 q 22 -2.28 30.32 -23.88 a 72.44 72.44 0 0 0 4.16 -22.23 H 294.05 Q 291.49 108 274.11 112.41 Z"/>
        </g>
    </g>
</svg>