<svg width="97" height="41" viewBox="0 0 97 41" fill="none" xmlns="http://www.w3.org/2000/svg">
<path d="M13.9226 14.252C13.5266 13.892 13.0226 14.036 12.1946 14.072C11.5826 14.072 10.8986 14.108 10.3946 14.108C9.71063 14.144 9.02663 14.072 8.48663 14.108C8.37863 14.144 8.23463 14.216 8.09063 14.216C7.51463 14.252 7.01063 14.036 6.50663 14.18C6.18263 14.684 6.61463 15.44 6.61463 16.124C6.61463 16.664 6.47063 17.168 6.65063 17.6C6.93863 17.852 7.58663 17.564 8.01863 17.744C8.73863 19.868 9.24263 22.136 9.81863 24.404C9.92663 24.944 10.1426 25.484 10.2506 26.06L11.3306 31.352C12.3386 31.82 14.1026 31.82 15.5066 31.748C15.8666 29.984 16.2266 28.076 16.6226 26.384C16.7666 25.772 16.7666 25.16 17.0546 24.62C17.3786 24.872 17.3786 25.304 17.5226 25.664C17.6666 26.024 17.8466 26.384 17.9186 26.78C17.9906 26.996 17.9546 27.248 17.9906 27.464C18.0626 27.788 18.2066 28.148 18.2786 28.472L18.5306 29.516C18.7106 30.236 18.7466 31.064 19.2146 31.532C20.3306 31.64 21.7346 31.316 22.8146 31.604C23.2106 31.388 23.1026 30.956 23.1746 30.596C23.2826 29.948 23.5346 29.192 23.6426 28.544C23.7506 28.004 23.8946 27.536 23.9306 27.104C24.0026 26.636 24.0386 26.132 24.0746 25.628L24.3266 24.224C24.3626 23.936 24.3266 23.684 24.3986 23.396C24.4346 23.144 24.5786 22.892 24.6146 22.64C24.6506 22.424 24.6146 22.208 24.6146 22.028C24.6506 21.884 24.7586 21.776 24.7586 21.632C24.8306 21.452 24.7946 21.272 24.8306 21.128C24.9746 20.228 25.4426 19.364 25.4786 18.428C25.6586 18.248 25.6226 17.888 25.8746 17.744C26.3786 17.708 26.8106 17.96 27.2066 17.852C27.5306 17.564 27.3146 17.06 27.2066 16.592C27.0986 16.16 27.0626 15.62 26.9906 15.152C26.9546 14.792 27.0626 14.468 26.8106 14.252C25.7306 14.216 24.5426 14.54 23.3906 14.468C23.2106 14.432 22.9946 14.324 22.7786 14.324L22.0226 14.252C21.6266 14.216 21.1586 14.036 20.7986 14.288C20.6546 14.756 20.7986 15.296 20.7986 15.836C20.7986 16.412 20.5466 16.988 20.8346 17.384C21.0506 17.6 21.6986 17.348 21.8426 17.636C21.9146 18.5 21.6626 19.364 21.6266 20.228C21.5906 20.516 21.6266 20.804 21.6266 21.092C21.5906 21.452 21.4106 21.776 21.3746 22.1C21.2306 23.036 21.1946 23.936 20.8706 24.764L20.1146 22.856C19.6106 21.488 19.0706 20.228 18.6026 18.86C18.4226 18.284 18.3146 17.672 18.0266 17.132L16.1906 16.988C15.7226 17.24 15.6506 17.816 15.4346 18.32C15.2186 18.788 14.9666 19.292 14.8586 19.796C14.7146 20.3 14.7506 20.804 14.6426 21.308C14.4986 22.064 14.1746 23.108 13.9946 23.72C13.9226 24.08 13.9946 24.476 13.7786 24.8C13.3826 23.828 13.3106 22.604 12.8786 21.236L12.1946 18.608C12.1226 18.32 11.9426 17.924 12.0146 17.78C12.3026 17.204 13.4546 17.672 13.9226 17.528C14.2826 17.132 13.9946 16.556 13.9586 16.016C13.9586 15.404 14.0306 14.792 13.9226 14.252ZM3.51862 35.996C4.41862 35.996 6.07463 35.708 8.48663 35.168L15.9386 34.88C16.1546 34.88 16.8746 34.952 18.1706 35.096C21.4106 35.06 23.6426 35.42 24.8306 35.42H26.2346C26.7746 35.348 28.4666 35.132 31.3106 34.916C32.0666 34.628 32.4626 34.232 32.4626 33.656C32.0306 31.28 31.9946 30.668 31.9946 30.668L32.5346 24.044V22.496C32.5346 22.244 32.4986 21.74 32.3906 20.948C32.0666 19.688 31.9226 18.968 31.9226 18.788C31.9226 18.788 33.1106 12.128 32.7146 11.084C32.7146 9.824 32.5346 8.888 32.2106 8.348C31.8506 8.096 31.4186 7.088 30.9506 5.288C30.5906 4.1 29.9066 3.164 28.8266 3.164C28.2506 3.2 27.9986 3.308 27.9986 3.452C27.9986 3.452 23.3906 2.768 16.8746 3.524L10.5026 3.452C10.2866 3.452 9.31463 3.236 7.01063 3.236L5.96663 3.38C5.82263 3.38 2.58262 3.704 2.58262 3.704C1.35862 3.848 0.782625 4.352 0.782625 5.324C0.782625 5.324 0.422625 8.96 0.458625 8.96L0.926625 14.828C0.926625 14.828 1.10662 16.628 1.32262 16.988L0.638625 20.48C0.530625 20.588 0.530625 20.66 0.530625 20.768V22.712C0.998625 27.176 2.40262 32.864 2.18662 34.16C2.18662 35.132 2.65462 35.744 3.51862 35.996ZM36.8597 13.1C35.6357 13.244 34.8437 13.604 33.9077 14.072C33.1157 14.468 32.5397 14.9 31.9277 15.368C31.3157 15.872 31.0637 16.088 30.6317 16.664C30.4517 16.916 30.2357 17.096 30.1277 17.276L29.6237 18.392C29.3357 19.112 29.1557 19.58 28.9757 20.408C28.6877 21.92 28.7237 23.54 28.9757 25.016C29.0837 25.772 29.1917 26.636 29.4077 27.068C29.4797 27.176 29.5157 27.284 29.5877 27.356C30.1637 28.436 30.6317 29.228 31.4957 29.912C31.7837 30.164 32.1437 30.488 32.4317 30.596C32.8997 30.848 33.5837 30.884 34.1597 31.064C34.7357 31.244 35.2397 31.532 35.8517 31.64C36.7877 31.82 37.6877 31.784 38.6597 31.64C40.2797 31.388 41.2517 31.028 42.3677 30.272C43.0517 29.804 43.7717 29.228 44.1677 28.724C44.3117 28.508 44.4197 28.148 44.5997 27.788C44.7797 27.5 44.9957 27.212 45.1037 26.888C45.2117 26.564 45.3197 26.204 45.4637 25.88C45.6077 25.52 45.8237 25.088 45.8957 24.836C46.0757 24.116 46.0397 23.072 46.0037 22.496C45.9677 22.244 46.0037 22.028 45.9677 21.812C45.8597 21.092 45.3197 20.156 45.1757 19.472C45.1397 19.328 45.1757 19.184 45.1037 19.04C45.1037 18.932 44.9597 18.896 44.9237 18.788C44.8517 18.68 44.8517 18.536 44.8157 18.428L44.4557 17.816C44.2397 17.42 44.0237 16.952 43.8077 16.628C43.6637 16.412 43.3037 16.124 43.1597 15.908C43.0877 15.872 43.0877 15.8 43.0517 15.728C42.6917 15.224 42.3677 15.152 41.8997 14.72C41.6117 14.468 41.4317 14.108 41.1437 13.928C40.9997 13.856 40.6397 13.784 40.3877 13.676C39.3077 13.316 38.0837 12.956 36.8597 13.1ZM36.6077 17.168C37.0757 16.988 37.6517 16.916 38.1917 16.952C38.7677 16.988 39.7397 17.672 40.0637 18.032C40.2437 18.248 40.3877 18.572 40.5677 18.86C41.1797 19.904 41.9717 21.2 41.9717 23C41.9717 25.088 41.1797 26.708 40.0637 27.68C39.7757 27.896 39.3437 28.256 38.9837 28.328C37.8317 28.616 35.9597 28.4 35.1317 27.86C34.8077 27.608 34.1957 26.924 33.9437 26.492C33.2237 25.34 32.8997 23.612 33.1157 21.668C33.2237 20.3 33.4037 19.112 34.1957 18.32C34.6997 17.816 35.7077 17.42 36.6077 17.168ZM24.8717 35.996C25.8077 35.996 27.4637 35.708 29.8757 35.168L37.3277 34.88C37.5437 34.88 38.2637 34.952 39.5597 35.096C42.7997 35.06 45.0317 35.42 46.2557 35.42H47.6597C48.1997 35.348 49.8917 35.132 52.7357 34.916C53.4917 34.628 53.8877 34.232 53.8877 33.656C53.4557 31.28 53.4197 30.668 53.4197 30.668L53.9597 24.044V22.496C53.9597 22.244 53.9237 21.74 53.7797 20.948C53.4917 19.688 53.3477 18.968 53.3477 18.788C53.3477 18.788 54.5357 12.128 54.1397 11.084C54.1397 9.824 53.9597 8.888 53.6357 8.348C53.2397 8.096 52.8437 7.088 52.3757 5.288C52.0157 4.1 51.2957 3.164 50.2157 3.164C49.6397 3.2 49.3877 3.308 49.3877 3.452C49.3877 3.452 44.7797 2.768 38.2637 3.524L31.8917 3.452C31.6397 3.452 30.7037 3.236 28.3637 3.236L27.3197 3.38C27.2117 3.38 23.9357 3.704 23.9357 3.704C22.7117 3.848 22.1357 4.352 22.1357 5.324C22.1357 5.324 21.7757 8.96 21.8117 8.96L22.2797 14.828C22.2797 14.828 22.4597 16.628 22.6757 16.988L21.9917 20.48C21.8837 20.588 21.8837 20.66 21.8837 20.768V22.712C22.3517 27.176 23.7557 32.864 23.5397 34.16C23.5397 35.132 24.0077 35.744 24.8717 35.996ZM63.3956 17.888C63.3596 18.392 62.9276 18.5 62.9276 18.968C62.8916 19.076 62.9996 19.364 63.0716 19.544C63.2516 20.12 63.5036 20.696 63.8636 21.02C64.9796 21.884 67.2476 21.596 68.0396 20.588C68.5796 19.904 69.0116 18.392 68.6156 17.384C68.4716 17.024 68.3636 16.88 68.2196 16.628C68.1476 16.52 68.1476 16.34 68.0756 16.232C68.0036 16.124 67.8236 16.088 67.7516 15.98C67.6796 15.836 67.6796 15.692 67.6076 15.584C67.4996 15.404 67.2836 15.224 67.1036 15.008L66.5996 14.432C66.3836 14.18 65.8076 13.928 65.4836 13.712L65.1596 13.424C65.0156 13.352 64.8356 13.388 64.6916 13.316C64.5476 13.244 64.4396 13.1 64.3316 13.064C63.8996 12.92 63.3956 12.992 62.9996 13.028C62.1356 13.1 61.6316 13.208 60.9836 13.46C60.0476 13.784 59.0756 14.072 58.2476 14.468C57.7796 14.684 57.4556 15.008 56.9876 15.116C56.7716 14.684 57.1676 13.964 56.8436 13.676C56.5196 13.496 56.3396 13.676 55.9796 13.676C55.3316 13.64 54.6836 13.532 54.0356 13.532C52.3076 13.532 50.5076 13.604 48.7076 13.712C48.5276 13.928 48.6356 14.288 48.5996 14.54C48.4916 15.476 48.1676 16.34 48.2756 17.42C48.4916 17.456 48.4556 17.744 48.6356 17.816C49.6076 17.816 50.6156 17.888 51.5876 17.852C52.4156 17.816 53.3156 17.456 54.0356 17.672C53.9996 20.696 53.7116 24.296 53.4956 27.464C51.9836 27.428 50.3276 27.14 48.9596 27.428C48.8876 27.932 48.8876 28.616 48.8156 29.3C48.7436 30.236 48.4196 31.28 48.8516 31.856C49.1036 32.036 49.3916 31.892 49.6796 31.964C50.2916 32.036 50.9396 32.324 51.4796 32.396C52.2716 32.504 53.1356 32.504 53.8916 32.468C54.6116 32.468 55.3316 32.288 56.0516 32.288C56.2316 32.252 56.3756 32.324 56.5556 32.324C57.5996 32.252 58.6796 32.072 59.7236 32.072C61.1276 32.036 62.4596 32.324 63.8276 32.072C63.8996 31.712 63.7556 31.352 63.7556 30.92C63.7556 30.164 64.0796 29.408 63.8636 28.76C63.3596 28.544 62.8196 28.544 62.3156 28.436C61.7756 28.328 61.3796 28.004 60.9116 27.896C59.9396 27.644 58.8956 27.932 57.8516 27.716C57.9596 26.672 57.7436 25.844 57.7436 24.908C57.7076 24.404 57.7796 23.936 57.7796 23.504C57.7796 23.324 57.6716 23.144 57.6716 23C57.5636 21.704 57.9236 21.128 58.3556 20.372C58.9676 19.328 59.6156 18.752 60.6236 18.212C61.2716 17.816 62.4956 17.456 63.3956 17.888ZM45.0716 35.996C45.9356 35.996 47.5556 35.708 49.8956 35.168L57.1676 34.88C57.3476 34.88 58.0676 34.952 59.3276 35.096C62.4596 35.06 64.6556 35.42 65.8076 35.42H67.1756C67.7156 35.348 69.3716 35.132 72.1076 34.916C72.8636 34.628 73.2236 34.232 73.2236 33.656C72.8276 31.28 72.7916 30.668 72.7916 30.668L73.2956 24.044V22.496C73.2956 22.244 73.2596 21.74 73.1516 20.948C72.8636 19.688 72.6836 18.968 72.6836 18.788C72.6836 18.788 73.8716 12.128 73.4756 11.084C73.4756 9.824 73.2956 8.888 72.9716 8.348C72.6116 8.096 72.2156 7.088 71.7836 5.288C71.4236 4.1 70.7396 3.164 69.6956 3.164C69.1196 3.2 68.8676 3.308 68.8676 3.452C68.8676 3.452 64.4036 2.768 58.0676 3.524L51.8756 3.452C51.6236 3.452 50.6876 3.236 48.4556 3.236L47.4476 3.38C47.3036 3.38 44.1356 3.704 44.1356 3.704C42.9836 3.848 42.4076 4.352 42.4076 5.324C42.4076 5.324 42.0476 8.96 42.0836 8.96L42.5156 14.828C42.5156 14.828 42.7316 16.628 42.9476 16.988L42.2276 20.48C42.1556 20.588 42.1556 20.66 42.1556 20.768V22.712C42.6236 27.176 43.9916 32.864 43.7756 34.16C43.7756 35.132 44.2076 35.744 45.0716 35.996ZM85.6737 7.88C85.2417 7.664 84.7377 7.808 84.2697 7.736C83.6217 7.628 83.0097 7.376 82.3617 7.34C82.0737 7.34 81.7857 7.376 81.4977 7.34C80.6337 7.268 79.8417 7.304 79.0137 7.484C78.7617 7.916 78.8697 8.636 78.9057 9.32C78.9417 9.968 78.7977 10.688 79.1217 11.084C79.8057 11.084 80.8137 10.976 81.6417 11.12C81.8217 11.552 82.0017 12.2 82.0017 12.776C82.0017 13.352 81.7497 13.964 81.7497 14.324C81.7497 14.432 81.8217 14.54 81.7137 14.612C80.5617 14.612 79.6617 14 78.5817 13.892C78.3297 13.856 78.0777 13.928 77.7897 13.892C77.6097 13.892 77.3937 13.784 77.2137 13.784C76.3857 13.784 75.4137 14.216 74.9817 14.504L74.5497 14.972C74.0457 15.44 73.6137 15.944 73.1457 16.376C72.9657 16.772 72.6417 17.06 72.3537 17.456C71.9217 18.104 71.6337 18.608 71.3097 19.4C71.2017 19.688 71.0577 19.976 70.9857 20.264C70.6977 21.38 70.6977 22.712 70.5897 23.972C70.4817 26.096 70.9857 27.824 71.8137 28.94C71.9577 29.12 72.0297 29.3 72.1377 29.48C72.3177 29.768 72.4617 30.092 72.6057 30.272C73.0377 30.92 73.6497 31.244 74.4057 31.532C74.9817 31.748 75.5217 31.928 76.2417 31.928C77.3937 32.468 78.8337 32.648 80.2017 32.288C81.2457 32 82.1457 31.28 82.9377 31.1C83.0817 31.316 83.1177 31.64 83.0457 31.964C83.4777 32 83.8737 31.892 84.3057 31.964C84.5217 31.964 84.7017 32.108 84.9177 32.144C85.0257 32.18 85.1697 32.108 85.3137 32.144C85.4217 32.18 85.4937 32.288 85.6017 32.288C85.7817 32.324 85.9977 32.252 86.1417 32.288C86.4297 32.324 86.6817 32.504 86.8977 32.54C87.7257 32.684 88.4457 32.324 89.3457 32.18C89.4897 31.424 89.4177 30.596 89.5617 29.84C89.5977 29.552 89.8137 29.228 89.5977 28.94C89.3097 28.796 89.0577 29.012 88.7697 29.012C88.4097 29.012 88.0497 28.832 87.6897 28.832C87.1497 28.796 86.5737 28.904 86.1417 28.616C85.8177 27.32 85.9257 25.916 85.7817 24.512C85.7817 24.224 85.6737 23.936 85.6377 23.612C85.6017 23.216 85.6377 22.82 85.6377 22.424C85.5657 21.272 85.3497 20.156 85.2417 19.004C85.1697 17.996 85.1697 17.024 85.0977 16.052C85.0617 15.728 84.9537 15.368 84.9177 15.044C84.8457 13.604 84.9177 11.912 85.1337 10.616C85.2417 10.112 85.2777 9.536 85.3857 9.032C85.4577 8.636 85.7457 8.312 85.6737 7.88ZM81.6777 24.008C81.6777 24.944 81.8937 25.844 81.7497 26.708C81.2817 27.068 80.7417 27.464 80.0937 27.752C79.5177 28.076 78.7617 28.4 78.1137 28.472C77.8977 28.508 77.6457 28.508 77.3937 28.508C76.6017 28.4 75.3417 27.608 74.8737 26.996C74.0457 25.808 74.2977 23.9 74.5497 22.208C74.8377 20.336 75.1257 19.436 76.2777 18.464C76.9257 17.924 77.6097 17.564 78.9777 17.708C79.4097 17.744 80.7417 18.14 81.1017 18.5C81.6057 19.04 81.2817 20.084 81.4617 21.092C81.4977 21.308 81.6417 21.452 81.7137 21.704C81.8937 22.388 81.7137 23.216 81.6777 24.008ZM67.8177 35.996C68.6817 35.996 70.3017 35.708 72.6417 35.168L79.9137 34.88C80.0937 34.88 80.8137 34.952 82.0737 35.096C85.2057 35.06 87.4017 35.42 88.5537 35.42H89.9217C90.4617 35.348 92.1177 35.132 94.8537 34.916C95.6097 34.628 95.9697 34.232 95.9697 33.656C95.5737 31.28 95.5377 30.668 95.5377 30.668L96.0417 24.044V22.496C96.0417 22.244 96.0057 21.74 95.8977 20.948C95.6097 19.688 95.4297 18.968 95.4297 18.788C95.4297 18.788 96.6177 12.128 96.2217 11.084C96.2217 9.824 96.0417 8.888 95.7177 8.348C95.3577 8.096 94.9617 7.088 94.5297 5.288C94.1697 4.1 93.4857 3.164 92.4417 3.164C91.8657 3.2 91.6137 3.308 91.6137 3.452C91.6137 3.452 87.1497 2.768 80.8137 3.524L74.6217 3.452C74.3697 3.452 73.4337 3.236 71.2017 3.236L70.1937 3.38C70.0497 3.38 66.8817 3.704 66.8817 3.704C65.7297 3.848 65.1537 4.352 65.1537 5.324C65.1537 5.324 64.7937 8.96 64.8297 8.96L65.2617 14.828C65.2617 14.828 65.4777 16.628 65.6937 16.988L64.9737 20.48C64.9017 20.588 64.9017 20.66 64.9017 20.768V22.712C65.3697 27.176 66.7377 32.864 66.5217 34.16C66.5217 35.132 66.9537 35.744 67.8177 35.996Z" fill="#95907C" fill-opacity="0.81"/>
<path d="M13.9226 11.252C13.5266 10.892 13.0226 11.036 12.1946 11.072C11.5826 11.072 10.8986 11.108 10.3946 11.108C9.71063 11.144 9.02663 11.072 8.48663 11.108C8.37863 11.144 8.23463 11.216 8.09063 11.216C7.51463 11.252 7.01063 11.036 6.50663 11.18C6.18263 11.684 6.61463 12.44 6.61463 13.124C6.61463 13.664 6.47063 14.168 6.65063 14.6C6.93863 14.852 7.58663 14.564 8.01863 14.744C8.73863 16.868 9.24263 19.136 9.81863 21.404C9.92663 21.944 10.1426 22.484 10.2506 23.06L11.3306 28.352C12.3386 28.82 14.1026 28.82 15.5066 28.748C15.8666 26.984 16.2266 25.076 16.6226 23.384C16.7666 22.772 16.7666 22.16 17.0546 21.62C17.3786 21.872 17.3786 22.304 17.5226 22.664C17.6666 23.024 17.8466 23.384 17.9186 23.78C17.9906 23.996 17.9546 24.248 17.9906 24.464C18.0626 24.788 18.2066 25.148 18.2786 25.472L18.5306 26.516C18.7106 27.236 18.7466 28.064 19.2146 28.532C20.3306 28.64 21.7346 28.316 22.8146 28.604C23.2106 28.388 23.1026 27.956 23.1746 27.596C23.2826 26.948 23.5346 26.192 23.6426 25.544C23.7506 25.004 23.8946 24.536 23.9306 24.104C24.0026 23.636 24.0386 23.132 24.0746 22.628L24.3266 21.224C24.3626 20.936 24.3266 20.684 24.3986 20.396C24.4346 20.144 24.5786 19.892 24.6146 19.64C24.6506 19.424 24.6146 19.208 24.6146 19.028C24.6506 18.884 24.7586 18.776 24.7586 18.632C24.8306 18.452 24.7946 18.272 24.8306 18.128C24.9746 17.228 25.4426 16.364 25.4786 15.428C25.6586 15.248 25.6226 14.888 25.8746 14.744C26.3786 14.708 26.8106 14.96 27.2066 14.852C27.5306 14.564 27.3146 14.06 27.2066 13.592C27.0986 13.16 27.0626 12.62 26.9906 12.152C26.9546 11.792 27.0626 11.468 26.8106 11.252C25.7306 11.216 24.5426 11.54 23.3906 11.468C23.2106 11.432 22.9946 11.324 22.7786 11.324L22.0226 11.252C21.6266 11.216 21.1586 11.036 20.7986 11.288C20.6546 11.756 20.7986 12.296 20.7986 12.836C20.7986 13.412 20.5466 13.988 20.8346 14.384C21.0506 14.6 21.6986 14.348 21.8426 14.636C21.9146 15.5 21.6626 16.364 21.6266 17.228C21.5906 17.516 21.6266 17.804 21.6266 18.092C21.5906 18.452 21.4106 18.776 21.3746 19.1C21.2306 20.036 21.1946 20.936 20.8706 21.764L20.1146 19.856C19.6106 18.488 19.0706 17.228 18.6026 15.86C18.4226 15.284 18.3146 14.672 18.0266 14.132L16.1906 13.988C15.7226 14.24 15.6506 14.816 15.4346 15.32C15.2186 15.788 14.9666 16.292 14.8586 16.796C14.7146 17.3 14.7506 17.804 14.6426 18.308C14.4986 19.064 14.1746 20.108 13.9946 20.72C13.9226 21.08 13.9946 21.476 13.7786 21.8C13.3826 20.828 13.3106 19.604 12.8786 18.236L12.1946 15.608C12.1226 15.32 11.9426 14.924 12.0146 14.78C12.3026 14.204 13.4546 14.672 13.9226 14.528C14.2826 14.132 13.9946 13.556 13.9586 13.016C13.9586 12.404 14.0306 11.792 13.9226 11.252ZM3.51862 32.996C4.41862 32.996 6.07463 32.708 8.48663 32.168L15.9386 31.88C16.1546 31.88 16.8746 31.952 18.1706 32.096C21.4106 32.06 23.6426 32.42 24.8306 32.42H26.2346C26.7746 32.348 28.4666 32.132 31.3106 31.916C32.0666 31.628 32.4626 31.232 32.4626 30.656C32.0306 28.28 31.9946 27.668 31.9946 27.668L32.5346 21.044V19.496C32.5346 19.244 32.4986 18.74 32.3906 17.948C32.0666 16.688 31.9226 15.968 31.9226 15.788C31.9226 15.788 33.1106 9.128 32.7146 8.084C32.7146 6.824 32.5346 5.888 32.2106 5.348C31.8506 5.096 31.4186 4.088 30.9506 2.288C30.5906 1.1 29.9066 0.163998 28.8266 0.163998C28.2506 0.2 27.9986 0.307998 27.9986 0.451998C27.9986 0.451998 23.3906 -0.232001 16.8746 0.524L10.5026 0.451998C10.2866 0.451998 9.31463 0.235999 7.01063 0.235999L5.96663 0.379999C5.82263 0.379999 2.58262 0.704 2.58262 0.704C1.35862 0.847998 0.782625 1.352 0.782625 2.324C0.782625 2.324 0.422625 5.96 0.458625 5.96L0.926625 11.828C0.926625 11.828 1.10662 13.628 1.32262 13.988L0.638625 17.48C0.530625 17.588 0.530625 17.66 0.530625 17.768V19.712C0.998625 24.176 2.40262 29.864 2.18662 31.16C2.18662 32.132 2.65462 32.744 3.51862 32.996ZM36.8597 10.1C35.6357 10.244 34.8437 10.604 33.9077 11.072C33.1157 11.468 32.5397 11.9 31.9277 12.368C31.3157 12.872 31.0637 13.088 30.6317 13.664C30.4517 13.916 30.2357 14.096 30.1277 14.276L29.6237 15.392C29.3357 16.112 29.1557 16.58 28.9757 17.408C28.6877 18.92 28.7237 20.54 28.9757 22.016C29.0837 22.772 29.1917 23.636 29.4077 24.068C29.4797 24.176 29.5157 24.284 29.5877 24.356C30.1637 25.436 30.6317 26.228 31.4957 26.912C31.7837 27.164 32.1437 27.488 32.4317 27.596C32.8997 27.848 33.5837 27.884 34.1597 28.064C34.7357 28.244 35.2397 28.532 35.8517 28.64C36.7877 28.82 37.6877 28.784 38.6597 28.64C40.2797 28.388 41.2517 28.028 42.3677 27.272C43.0517 26.804 43.7717 26.228 44.1677 25.724C44.3117 25.508 44.4197 25.148 44.5997 24.788C44.7797 24.5 44.9957 24.212 45.1037 23.888C45.2117 23.564 45.3197 23.204 45.4637 22.88C45.6077 22.52 45.8237 22.088 45.8957 21.836C46.0757 21.116 46.0397 20.072 46.0037 19.496C45.9677 19.244 46.0037 19.028 45.9677 18.812C45.8597 18.092 45.3197 17.156 45.1757 16.472C45.1397 16.328 45.1757 16.184 45.1037 16.04C45.1037 15.932 44.9597 15.896 44.9237 15.788C44.8517 15.68 44.8517 15.536 44.8157 15.428L44.4557 14.816C44.2397 14.42 44.0237 13.952 43.8077 13.628C43.6637 13.412 43.3037 13.124 43.1597 12.908C43.0877 12.872 43.0877 12.8 43.0517 12.728C42.6917 12.224 42.3677 12.152 41.8997 11.72C41.6117 11.468 41.4317 11.108 41.1437 10.928C40.9997 10.856 40.6397 10.784 40.3877 10.676C39.3077 10.316 38.0837 9.956 36.8597 10.1ZM36.6077 14.168C37.0757 13.988 37.6517 13.916 38.1917 13.952C38.7677 13.988 39.7397 14.672 40.0637 15.032C40.2437 15.248 40.3877 15.572 40.5677 15.86C41.1797 16.904 41.9717 18.2 41.9717 20C41.9717 22.088 41.1797 23.708 40.0637 24.68C39.7757 24.896 39.3437 25.256 38.9837 25.328C37.8317 25.616 35.9597 25.4 35.1317 24.86C34.8077 24.608 34.1957 23.924 33.9437 23.492C33.2237 22.34 32.8997 20.612 33.1157 18.668C33.2237 17.3 33.4037 16.112 34.1957 15.32C34.6997 14.816 35.7077 14.42 36.6077 14.168ZM24.8717 32.996C25.8077 32.996 27.4637 32.708 29.8757 32.168L37.3277 31.88C37.5437 31.88 38.2637 31.952 39.5597 32.096C42.7997 32.06 45.0317 32.42 46.2557 32.42H47.6597C48.1997 32.348 49.8917 32.132 52.7357 31.916C53.4917 31.628 53.8877 31.232 53.8877 30.656C53.4557 28.28 53.4197 27.668 53.4197 27.668L53.9597 21.044V19.496C53.9597 19.244 53.9237 18.74 53.7797 17.948C53.4917 16.688 53.3477 15.968 53.3477 15.788C53.3477 15.788 54.5357 9.128 54.1397 8.084C54.1397 6.824 53.9597 5.888 53.6357 5.348C53.2397 5.096 52.8437 4.088 52.3757 2.288C52.0157 1.1 51.2957 0.163998 50.2157 0.163998C49.6397 0.2 49.3877 0.307998 49.3877 0.451998C49.3877 0.451998 44.7797 -0.232001 38.2637 0.524L31.8917 0.451998C31.6397 0.451998 30.7037 0.235999 28.3637 0.235999L27.3197 0.379999C27.2117 0.379999 23.9357 0.704 23.9357 0.704C22.7117 0.847998 22.1357 1.352 22.1357 2.324C22.1357 2.324 21.7757 5.96 21.8117 5.96L22.2797 11.828C22.2797 11.828 22.4597 13.628 22.6757 13.988L21.9917 17.48C21.8837 17.588 21.8837 17.66 21.8837 17.768V19.712C22.3517 24.176 23.7557 29.864 23.5397 31.16C23.5397 32.132 24.0077 32.744 24.8717 32.996ZM63.3956 14.888C63.3596 15.392 62.9276 15.5 62.9276 15.968C62.8916 16.076 62.9996 16.364 63.0716 16.544C63.2516 17.12 63.5036 17.696 63.8636 18.02C64.9796 18.884 67.2476 18.596 68.0396 17.588C68.5796 16.904 69.0116 15.392 68.6156 14.384C68.4716 14.024 68.3636 13.88 68.2196 13.628C68.1476 13.52 68.1476 13.34 68.0756 13.232C68.0036 13.124 67.8236 13.088 67.7516 12.98C67.6796 12.836 67.6796 12.692 67.6076 12.584C67.4996 12.404 67.2836 12.224 67.1036 12.008L66.5996 11.432C66.3836 11.18 65.8076 10.928 65.4836 10.712L65.1596 10.424C65.0156 10.352 64.8356 10.388 64.6916 10.316C64.5476 10.244 64.4396 10.1 64.3316 10.064C63.8996 9.92 63.3956 9.992 62.9996 10.028C62.1356 10.1 61.6316 10.208 60.9836 10.46C60.0476 10.784 59.0756 11.072 58.2476 11.468C57.7796 11.684 57.4556 12.008 56.9876 12.116C56.7716 11.684 57.1676 10.964 56.8436 10.676C56.5196 10.496 56.3396 10.676 55.9796 10.676C55.3316 10.64 54.6836 10.532 54.0356 10.532C52.3076 10.532 50.5076 10.604 48.7076 10.712C48.5276 10.928 48.6356 11.288 48.5996 11.54C48.4916 12.476 48.1676 13.34 48.2756 14.42C48.4916 14.456 48.4556 14.744 48.6356 14.816C49.6076 14.816 50.6156 14.888 51.5876 14.852C52.4156 14.816 53.3156 14.456 54.0356 14.672C53.9996 17.696 53.7116 21.296 53.4956 24.464C51.9836 24.428 50.3276 24.14 48.9596 24.428C48.8876 24.932 48.8876 25.616 48.8156 26.3C48.7436 27.236 48.4196 28.28 48.8516 28.856C49.1036 29.036 49.3916 28.892 49.6796 28.964C50.2916 29.036 50.9396 29.324 51.4796 29.396C52.2716 29.504 53.1356 29.504 53.8916 29.468C54.6116 29.468 55.3316 29.288 56.0516 29.288C56.2316 29.252 56.3756 29.324 56.5556 29.324C57.5996 29.252 58.6796 29.072 59.7236 29.072C61.1276 29.036 62.4596 29.324 63.8276 29.072C63.8996 28.712 63.7556 28.352 63.7556 27.92C63.7556 27.164 64.0796 26.408 63.8636 25.76C63.3596 25.544 62.8196 25.544 62.3156 25.436C61.7756 25.328 61.3796 25.004 60.9116 24.896C59.9396 24.644 58.8956 24.932 57.8516 24.716C57.9596 23.672 57.7436 22.844 57.7436 21.908C57.7076 21.404 57.7796 20.936 57.7796 20.504C57.7796 20.324 57.6716 20.144 57.6716 20C57.5636 18.704 57.9236 18.128 58.3556 17.372C58.9676 16.328 59.6156 15.752 60.6236 15.212C61.2716 14.816 62.4956 14.456 63.3956 14.888ZM45.0716 32.996C45.9356 32.996 47.5556 32.708 49.8956 32.168L57.1676 31.88C57.3476 31.88 58.0676 31.952 59.3276 32.096C62.4596 32.06 64.6556 32.42 65.8076 32.42H67.1756C67.7156 32.348 69.3716 32.132 72.1076 31.916C72.8636 31.628 73.2236 31.232 73.2236 30.656C72.8276 28.28 72.7916 27.668 72.7916 27.668L73.2956 21.044V19.496C73.2956 19.244 73.2596 18.74 73.1516 17.948C72.8636 16.688 72.6836 15.968 72.6836 15.788C72.6836 15.788 73.8716 9.128 73.4756 8.084C73.4756 6.824 73.2956 5.888 72.9716 5.348C72.6116 5.096 72.2156 4.088 71.7836 2.288C71.4236 1.1 70.7396 0.163998 69.6956 0.163998C69.1196 0.2 68.8676 0.307998 68.8676 0.451998C68.8676 0.451998 64.4036 -0.232001 58.0676 0.524L51.8756 0.451998C51.6236 0.451998 50.6876 0.235999 48.4556 0.235999L47.4476 0.379999C47.3036 0.379999 44.1356 0.704 44.1356 0.704C42.9836 0.847998 42.4076 1.352 42.4076 2.324C42.4076 2.324 42.0476 5.96 42.0836 5.96L42.5156 11.828C42.5156 11.828 42.7316 13.628 42.9476 13.988L42.2276 17.48C42.1556 17.588 42.1556 17.66 42.1556 17.768V19.712C42.6236 24.176 43.9916 29.864 43.7756 31.16C43.7756 32.132 44.2076 32.744 45.0716 32.996ZM85.6737 4.88C85.2417 4.664 84.7377 4.808 84.2697 4.736C83.6217 4.628 83.0097 4.376 82.3617 4.34C82.0737 4.34 81.7857 4.376 81.4977 4.34C80.6337 4.268 79.8417 4.304 79.0137 4.484C78.7617 4.916 78.8697 5.636 78.9057 6.32C78.9417 6.968 78.7977 7.688 79.1217 8.084C79.8057 8.084 80.8137 7.976 81.6417 8.12C81.8217 8.552 82.0017 9.2 82.0017 9.776C82.0017 10.352 81.7497 10.964 81.7497 11.324C81.7497 11.432 81.8217 11.54 81.7137 11.612C80.5617 11.612 79.6617 11 78.5817 10.892C78.3297 10.856 78.0777 10.928 77.7897 10.892C77.6097 10.892 77.3937 10.784 77.2137 10.784C76.3857 10.784 75.4137 11.216 74.9817 11.504L74.5497 11.972C74.0457 12.44 73.6137 12.944 73.1457 13.376C72.9657 13.772 72.6417 14.06 72.3537 14.456C71.9217 15.104 71.6337 15.608 71.3097 16.4C71.2017 16.688 71.0577 16.976 70.9857 17.264C70.6977 18.38 70.6977 19.712 70.5897 20.972C70.4817 23.096 70.9857 24.824 71.8137 25.94C71.9577 26.12 72.0297 26.3 72.1377 26.48C72.3177 26.768 72.4617 27.092 72.6057 27.272C73.0377 27.92 73.6497 28.244 74.4057 28.532C74.9817 28.748 75.5217 28.928 76.2417 28.928C77.3937 29.468 78.8337 29.648 80.2017 29.288C81.2457 29 82.1457 28.28 82.9377 28.1C83.0817 28.316 83.1177 28.64 83.0457 28.964C83.4777 29 83.8737 28.892 84.3057 28.964C84.5217 28.964 84.7017 29.108 84.9177 29.144C85.0257 29.18 85.1697 29.108 85.3137 29.144C85.4217 29.18 85.4937 29.288 85.6017 29.288C85.7817 29.324 85.9977 29.252 86.1417 29.288C86.4297 29.324 86.6817 29.504 86.8977 29.54C87.7257 29.684 88.4457 29.324 89.3457 29.18C89.4897 28.424 89.4177 27.596 89.5617 26.84C89.5977 26.552 89.8137 26.228 89.5977 25.94C89.3097 25.796 89.0577 26.012 88.7697 26.012C88.4097 26.012 88.0497 25.832 87.6897 25.832C87.1497 25.796 86.5737 25.904 86.1417 25.616C85.8177 24.32 85.9257 22.916 85.7817 21.512C85.7817 21.224 85.6737 20.936 85.6377 20.612C85.6017 20.216 85.6377 19.82 85.6377 19.424C85.5657 18.272 85.3497 17.156 85.2417 16.004C85.1697 14.996 85.1697 14.024 85.0977 13.052C85.0617 12.728 84.9537 12.368 84.9177 12.044C84.8457 10.604 84.9177 8.912 85.1337 7.616C85.2417 7.112 85.2777 6.536 85.3857 6.032C85.4577 5.636 85.7457 5.312 85.6737 4.88ZM81.6777 21.008C81.6777 21.944 81.8937 22.844 81.7497 23.708C81.2817 24.068 80.7417 24.464 80.0937 24.752C79.5177 25.076 78.7617 25.4 78.1137 25.472C77.8977 25.508 77.6457 25.508 77.3937 25.508C76.6017 25.4 75.3417 24.608 74.8737 23.996C74.0457 22.808 74.2977 20.9 74.5497 19.208C74.8377 17.336 75.1257 16.436 76.2777 15.464C76.9257 14.924 77.6097 14.564 78.9777 14.708C79.4097 14.744 80.7417 15.14 81.1017 15.5C81.6057 16.04 81.2817 17.084 81.4617 18.092C81.4977 18.308 81.6417 18.452 81.7137 18.704C81.8937 19.388 81.7137 20.216 81.6777 21.008ZM67.8177 32.996C68.6817 32.996 70.3017 32.708 72.6417 32.168L79.9137 31.88C80.0937 31.88 80.8137 31.952 82.0737 32.096C85.2057 32.06 87.4017 32.42 88.5537 32.42H89.9217C90.4617 32.348 92.1177 32.132 94.8537 31.916C95.6097 31.628 95.9697 31.232 95.9697 30.656C95.5737 28.28 95.5377 27.668 95.5377 27.668L96.0417 21.044V19.496C96.0417 19.244 96.0057 18.74 95.8977 17.948C95.6097 16.688 95.4297 15.968 95.4297 15.788C95.4297 15.788 96.6177 9.128 96.2217 8.084C96.2217 6.824 96.0417 5.888 95.7177 5.348C95.3577 5.096 94.9617 4.088 94.5297 2.288C94.1697 1.1 93.4857 0.163998 92.4417 0.163998C91.8657 0.2 91.6137 0.307998 91.6137 0.451998C91.6137 0.451998 87.1497 -0.232001 80.8137 0.524L74.6217 0.451998C74.3697 0.451998 73.4337 0.235999 71.2017 0.235999L70.1937 0.379999C70.0497 0.379999 66.8817 0.704 66.8817 0.704C65.7297 0.847998 65.1537 1.352 65.1537 2.324C65.1537 2.324 64.7937 5.96 64.8297 5.96L65.2617 11.828C65.2617 11.828 65.4777 13.628 65.6937 13.988L64.9737 17.48C64.9017 17.588 64.9017 17.66 64.9017 17.768V19.712C65.3697 24.176 66.7377 29.864 66.5217 31.16C66.5217 32.132 66.9537 32.744 67.8177 32.996Z" fill="#D9D3B6"/>
</svg>
