<svg xmlns="http://www.w3.org/2000/svg" viewBox="0 0 500 500"><defs><style>.cls-1{fill:#663D3D;}.cls-2{fill:#FF9999;}</style></defs><g id="Layer_2" data-name="Layer 2"><g id="Avatar13"><path id="outline" class="cls-1" d="M 263 50 Q 226.88 64.34 176.81 84.66 q -10.9 68.48 -17.12 102.49 q 44.73 -36.81 64.62 -53.71 l 19.9 7.92 q 1.28 44.71 2.57 75.1 Q 235.65 228 219.6 244.92 q -28 2.78 -43.86 4.7 q -9 -18.83 -36.8 -65.68 Q 112.63 254.11 100 295 q 41.72 51.78 61.83 84.52 q 62.48 25.25 103.35 42.36 Q 307.75 399 377.5 361.52 q 33.17 -66.1 56.7 -115.11 q -40 -101.62 -61.4 -157 Q 297.91 64.13 263 50 Z"/><path id="fill" class="cls-2" d="M 265.18 75.89 q -22.91 6.42 -71.47 26.53 q -4.06 18.83 -9 41.72 l 37 -33.38 L 265.39 123.6 l 0.86 8.13 q 5.77 59.49 6.63 94.79 l 0.21 5.13 l -3.63 3.64 q -15.63 15 -37.66 37.44 l -0.86 0.86 Q 186 275.3 163.55 277 q -19.47 -34.66 -22.68 -44.5 Q 133.8 262.24 127.6 288.78 Q 159.7 329.22 180 355.11 q 49.43 19.25 86.87 33.59 q 46 -28.24 91.57 -50.5 Q 403.4 247.48 405.53 246 h 0.22 A 1125.58 1125.58 0 0 1 355.68 113.33 Q 303.9 91.94 265.18 75.89 Z"/></g></g></svg>