<svg width="99.13" height="101" xmlns="http://www.w3.org/2000/svg">
 <g>
  <title>Layer 1</title>
  <g id="Layer_2" data-name="Layer 2">
   <g id="Layer_1-2" data-name="Layer 1">
    <g id="_finalRND_decor_0_Layer0_0_FILL" data-name=" finalRND decor 0 Layer0 0 FILL">
     <path class="cls-1" d="m0.32,27.7a0.52,0.52 0 0 0 0.41,0.21l0.14,0l0.27,-0.21l-0.82,0m4,-24.25a2.53,2.53 0 0 1 -0.06,-1.18a0.35,0.35 0 0 0 -0.24,-0.34a0.35,0.35 0 0 0 -0.38,0.07l-0.07,0.07a0.29,0.29 0 0 1 -0.27,0.17a0.53,0.53 0 0 0 -0.54,0.3l-0.13,0.14a0.63,0.63 0 0 0 -0.34,0.5a0.27,0.27 0 0 1 -0.14,0.27l0,0.07a0.32,0.32 0 0 0 -0.1,0.41a0.34,0.34 0 0 0 0.37,0.2a3.28,3.28 0 0 1 1.18,0.17a3.3,3.3 0 0 1 0.78,0.27a1.2,1.2 0 0 0 0.34,0.17l0.14,-0.13a0.44,0.44 0 0 0 -0.07,-0.17l-0.1,-0.14a3.46,3.46 0 0 1 -0.34,-0.85m3.12,-2.16a2.69,2.69 0 0 1 1.15,-0.29a5.4,5.4 0 0 1 2.47,1l1.63,1l0,0.47a2.07,2.07 0 0 1 -0.2,0.58a0.93,0.93 0 0 1 -0.41,0.4a1.15,1.15 0 0 1 -0.48,0.24l-2.4,0.51l0,0.1l0.64,0.17l0.68,0a2.23,2.23 0 0 0 0.64,-0.13a1.94,1.94 0 0 0 0.61,-0.24a2.08,2.08 0 0 0 0.58,-0.41a0.8,0.8 0 0 0 0.24,-0.27a0.4,0.4 0 0 0 0,0.17a2.64,2.64 0 0 0 0.61,1.29a5.15,5.15 0 0 0 0.47,0.47a2.51,2.51 0 0 0 0.68,0.41a2.54,2.54 0 0 0 0.81,0.13a2.46,2.46 0 0 0 1,-0.2a1.53,1.53 0 0 0 0.73,-0.69a1,1 0 0 0 0.2,-0.51a0.72,0.72 0 0 0 0,-0.54l-0.12,-0.31l-0.21,-0.2a1.62,1.62 0 0 0 -0.4,-0.24l-0.21,-0.07l-0.28,0a1.58,1.58 0 0 0 -0.4,0.07a1.25,1.25 0 0 0 -0.58,0.51a0.75,0.75 0 0 0 -0.1,0.34l0.07,0.27c0,0.15 0.12,0.23 0.23,0.23l0.14,0.07a0.1,0.1 0 0 0 0,-0.13l-0.13,-0.24a0.73,0.73 0 0 1 0.13,-0.41a0.79,0.79 0 0 1 0.38,-0.23a1.37,1.37 0 0 1 0.3,0a1.25,1.25 0 0 1 0.31,0a0.85,0.85 0 0 1 0.47,0.44a1.08,1.08 0 0 1 -0.13,0.71a1.66,1.66 0 0 1 -0.58,0.51a1.75,1.75 0 0 1 -1.46,0.16a1.4,1.4 0 0 1 -0.61,-0.3a1.1,1.1 0 0 1 -0.47,-0.37a2.6,2.6 0 0 1 -0.68,-1.19a0.68,0.68 0 0 1 -0.07,-0.27a0.32,0.32 0 0 0 0.07,-0.2a1.74,1.74 0 0 0 0.1,-0.92l0,0a0.13,0.13 0 0 0 0,-0.1l0.2,0.13a1.75,1.75 0 0 0 0.92,0.14a2.47,2.47 0 0 0 1.45,-0.85a4.92,4.92 0 0 0 0.54,-1.45a5.14,5.14 0 0 1 -1,1.08a1.29,1.29 0 0 1 -1.12,0.41a1.4,1.4 0 0 1 -0.51,-0.1l-1.63,-1a21.15,21.15 0 0 1 3.26,-0.53a7,7 0 0 1 2,0.21l-0.27,0.27a2.66,2.66 0 0 0 -0.47,1.05a1.59,1.59 0 0 0 0.24,1.25a1.65,1.65 0 0 0 1.05,0.71a2.23,2.23 0 0 0 1.18,0a3,3 0 0 0 0.58,-0.17a4.81,4.81 0 0 0 0.54,-0.41a2.08,2.08 0 0 0 0.37,-0.68a1.68,1.68 0 0 0 0,-0.71a3.36,3.36 0 0 0 -0.58,-1.08a2.16,2.16 0 0 0 -0.32,-0.35a5.91,5.91 0 0 1 1.26,-0.15c1.64,-0.09 2.87,-0.15 3.69,-0.17a17.76,17.76 0 0 1 1.83,0a1.51,1.51 0 0 1 0.77,0.21a1.24,1.24 0 0 1 0.48,0.57a0.53,0.53 0 0 1 -0.14,0.68a0.73,0.73 0 0 1 -0.78,0.27l-0.17,0a0.22,0.22 0 0 0 0.17,-0.13a0.36,0.36 0 0 0 0.17,-0.34a0.51,0.51 0 0 0 -0.17,-0.38a0.42,0.42 0 0 0 -0.33,-0.17a0.55,0.55 0 0 0 -0.38,0.17a0.71,0.71 0 0 0 -0.2,0.38a0.58,0.58 0 0 0 0.2,0.34a0.23,0.23 0 0 0 0.14,0.13l0.13,0.1a0.76,0.76 0 0 0 0.44,0.21a1.58,1.58 0 0 0 1,-0.31a1.06,1.06 0 0 0 0.3,-0.47a0.82,0.82 0 0 0 0,-0.58a1.45,1.45 0 0 0 -0.61,-0.81a1.63,1.63 0 0 0 -1,-0.31c-0.41,0 -1,-0.08 -1.86,-0.1s-2.08,0 -3.73,0a8.27,8.27 0 0 0 -1.9,0.2a2.26,2.26 0 0 0 -0.37,0.11a6.05,6.05 0 0 0 -3.34,-0.35a10.5,10.5 0 0 0 -3.32,1.19a15.3,15.3 0 0 0 -1.32,-0.78a4.61,4.61 0 0 0 -1.56,-0.44a3.16,3.16 0 0 0 -0.91,0.07a2.75,2.75 0 0 0 -0.81,0.27a3.34,3.34 0 0 0 -1.32,1a4,4 0 0 0 -0.68,1.59a3.53,3.53 0 0 0 0.1,1.62a1,1 0 0 0 0.17,0.61a0.72,0.72 0 0 0 -0.58,-0.13a2.82,2.82 0 0 0 -1.62,-0.14a3.08,3.08 0 0 0 -1.56,0.75a3.79,3.79 0 0 0 -1,1.28a2,2 0 0 0 -0.27,0.78a3.4,3.4 0 0 0 -0.07,0.88a3.85,3.85 0 0 0 0.44,1.56a8,8 0 0 0 0.71,1.32l0,0a13.19,13.19 0 0 0 -1.23,3.27a6.69,6.69 0 0 0 0.3,3.39a1.32,1.32 0 0 0 -0.1,0.3a8,8 0 0 0 -0.24,1.93l0,3.73c0,0.4 0,1 0.07,1.86a1.64,1.64 0 0 0 0.34,1a1.35,1.35 0 0 0 0.74,0.64a1.26,1.26 0 0 0 0.61,0a1.27,1.27 0 0 0 0.48,-0.33a1.44,1.44 0 0 0 0.3,-1a1.12,1.12 0 0 0 -0.2,-0.44a0.57,0.57 0 0 0 -0.1,-0.13a0.33,0.33 0 0 1 -0.07,-0.14a0.63,0.63 0 0 0 -0.41,-0.13a0.51,0.51 0 0 0 -0.37,0.13a0.58,0.58 0 0 0 -0.17,0.41a0.52,0.52 0 0 0 0.17,0.34a0.47,0.47 0 0 0 0.37,0.17a0.57,0.57 0 0 0 0.41,-0.17a1.47,1.47 0 0 0 0.07,-0.17a0.38,0.38 0 0 1 0.07,0.17a1.09,1.09 0 0 1 -0.31,0.74a0.58,0.58 0 0 1 -0.71,0.14a1.06,1.06 0 0 1 -0.58,-0.48a1.64,1.64 0 0 1 -0.17,-0.76l0.24,-5.56c0.07,-0.44 0.11,-0.9 0.17,-1.24a1.93,1.93 0 0 0 0.4,0.37a2.48,2.48 0 0 0 1,0.58a1.47,1.47 0 0 0 0.78,0a1.24,1.24 0 0 0 0.64,-0.37a1.61,1.61 0 0 0 0.44,-0.51a1.61,1.61 0 0 0 0.21,-0.54a3.33,3.33 0 0 0 0,-1.22a1.82,1.82 0 0 0 -0.74,-1.05a1.32,1.32 0 0 0 -1.22,-0.2a2.53,2.53 0 0 0 -1,0.44a0.49,0.49 0 0 0 -0.27,0.23a5.85,5.85 0 0 1 -0.21,-2a14.9,14.9 0 0 1 0.51,-3.22c0.16,0.27 0.39,0.61 0.68,1a3.76,3.76 0 0 1 0.3,0.61a0.69,0.69 0 0 1 0.17,0.54a1.71,1.71 0 0 1 -0.54,1.14a6.66,6.66 0 0 1 -1.15,0.92a3,3 0 0 0 1.43,-0.65a1.88,1.88 0 0 0 0.74,-2.33l-0.1,-0.17l0,0a0.09,0.09 0 0 1 0.07,0l0,0a1.79,1.79 0 0 0 0.92,-0.1l0.17,-0.07a1.24,1.24 0 0 1 0.27,0a3,3 0 0 1 1.22,0.68c0.09,0.11 0.21,0.28 0.37,0.51a3.4,3.4 0 0 1 0.3,0.61a2,2 0 0 1 -0.17,1.49a1.25,1.25 0 0 1 -0.57,0.54a0.94,0.94 0 0 1 -0.68,0.13a0.79,0.79 0 0 1 -0.44,-0.44l0,-0.3l0,-0.31a0.65,0.65 0 0 1 0.31,-0.4a0.35,0.35 0 0 1 0.39,-0.11l0.41,0.21a0.13,0.13 0 0 0 0,-0.14a0.75,0.75 0 0 0 -0.31,-0.27c0,-0.05 -0.13,-0.07 -0.27,-0.07a0.8,0.8 0 0 0 -0.3,0.1a1.17,1.17 0 0 0 -0.48,0.58a0.92,0.92 0 0 0 -0.1,0.44l0.1,0.44a0.92,0.92 0 0 0 0.24,0.44l0.17,0.17l0.27,0.13a0.91,0.91 0 0 0 0.54,0a1.06,1.06 0 0 0 0.44,-0.21a1.48,1.48 0 0 0 0.71,-0.77a2,2 0 0 0 0.24,-0.95a2.9,2.9 0 0 0 -0.14,-0.85a2.2,2.2 0 0 0 -0.37,-0.61l-0.44,-0.51a2.82,2.82 0 0 0 -1.32,-0.57a0.21,0.21 0 0 0 -0.17,-0.07l0.27,-0.24a1.46,1.46 0 0 0 0.41,-0.57l0.3,-0.65a2,2 0 0 0 0.11,-0.61a2.79,2.79 0 0 0 -0.07,-0.67a3,3 0 0 0 -0.17,-0.68l0,0a3.92,3.92 0 0 0 -0.17,0.61l-0.3,1.32a2.18,2.18 0 0 1 -0.14,0.54a2.17,2.17 0 0 1 -0.27,0.55a0.69,0.69 0 0 1 -0.4,0.33a0.81,0.81 0 0 1 -0.28,0.14a0.31,0.31 0 0 1 -0.2,0.07l-0.47,0l-0.21,-0.34s-0.27,-0.47 -0.74,-1.29a5.88,5.88 0 0 1 -1,-2.44a2.52,2.52 0 0 1 0.3,-1.18a2.47,2.47 0 0 1 0.75,-1a2.46,2.46 0 0 1 1.12,-0.58a2.06,2.06 0 0 1 1.18,0.07a1.46,1.46 0 0 1 0.85,0.74a1.72,1.72 0 0 1 0.07,1.16a1.58,1.58 0 0 1 -0.82,0.88a1.12,1.12 0 0 1 -0.57,0.12a1.33,1.33 0 0 1 -0.61,-0.13a1,1 0 0 1 -0.39,-0.51a0.59,0.59 0 0 1 0.1,-0.58a0.65,0.65 0 0 1 0.54,-0.3a0.68,0.68 0 0 1 0.65,0.3a0.79,0.79 0 0 0 -0.65,-0.44a0.73,0.73 0 0 0 -0.74,0.31a0.94,0.94 0 0 0 -0.21,0.78a1.55,1.55 0 0 0 0.41,0.74a1.52,1.52 0 0 0 1.63,0.2a1.94,1.94 0 0 0 1.27,-1.14a1.47,1.47 0 0 0 0.13,-0.3l0,0l0,1.59c0,0.45 0,0.73 0,0.82a3,3 0 0 0 0.21,0.84a6.44,6.44 0 0 0 0.54,0.71a3.81,3.81 0 0 0 0.85,0.38a1.81,1.81 0 0 0 0.92,-0.04a1.44,1.44 0 0 0 0.78,-0.71a2,2 0 0 0 0.24,-1a1.51,1.51 0 0 0 -0.3,-0.92a0.9,0.9 0 0 0 -0.85,-0.37a0.61,0.61 0 0 0 -0.34,0.1a0.34,0.34 0 0 0 -0.17,0.3l0,0.07c0.07,0.07 0.22,0 0.44,-0.1a0.51,0.51 0 0 1 0.31,-0.13a0.86,0.86 0 0 1 0.47,0.84a1.48,1.48 0 0 1 -0.23,1.06a1.51,1.51 0 0 1 -0.74,0.54a2,2 0 0 1 -1,-0.17a1.63,1.63 0 0 1 -1,-1.42a2.88,2.88 0 0 1 0,-0.78c0.09,-0.52 0.14,-0.91 0.17,-1.18a5.21,5.21 0 0 0 -0.04,-1.13a2.4,2.4 0 0 0 -0.39,-1.07a3,3 0 0 0 1.15,0.4a4.39,4.39 0 0 0 1.15,0c0.22,0 0.6,-0.09 1.12,-0.13a1.82,1.82 0 0 1 0.81,0a1.63,1.63 0 0 1 1.39,1a1.27,1.27 0 0 1 0.1,1a1,1 0 0 1 -0.51,0.71a2,2 0 0 1 -1,0.27a0.87,0.87 0 0 1 -0.81,-0.47l0,0a0.94,0.94 0 0 1 0.14,-0.34c0.09,-0.2 0.11,-0.32 0.07,-0.37l-0.14,0a0.3,0.3 0 0 0 -0.31,0.17a0.61,0.61 0 0 0 -0.1,0.34a0.81,0.81 0 0 0 0.41,0.84a1.36,1.36 0 0 0 0.91,0.31a1.93,1.93 0 0 0 1,-0.27a1.19,1.19 0 0 0 0.62,-0.79a1.54,1.54 0 0 0 0,-0.95a1.52,1.52 0 0 0 -0.34,-0.81a3,3 0 0 0 -0.66,-0.57a3,3 0 0 0 -0.85,-0.21a5.46,5.46 0 0 0 -0.81,0l-1.53,0l0,-0.06a0.58,0.58 0 0 1 0.24,-0.1a2.17,2.17 0 0 0 1.21,-1.19a1.65,1.65 0 0 0 -0.2,-1.66a1.08,1.08 0 0 0 -0.78,-0.37a0.75,0.75 0 0 0 -0.78,0.16a0.82,0.82 0 0 0 -0.27,0.78a0.6,0.6 0 0 0 0.37,0.55a0.54,0.54 0 0 1 -0.27,-0.55a0.56,0.56 0 0 1 0.31,-0.57a0.73,0.73 0 0 1 0.61,-0.05a0.83,0.83 0 0 1 0.44,0.37a1,1 0 0 1 0,1.15a1.57,1.57 0 0 1 -0.91,0.81a1.29,1.29 0 0 1 -1.12,-0.1a1.58,1.58 0 0 1 -0.66,-0.86a2.39,2.39 0 0 1 0,-1.22a3.15,3.15 0 0 1 0.45,-1.15a2.29,2.29 0 0 1 1,-0.74m10.55,0.26a0.49,0.49 0 0 1 0.23,0.14a2,2 0 0 1 0.55,0.51a1.06,1.06 0 0 1 0.3,0.54a0.39,0.39 0 0 1 -0.07,0.34l-0.17,0.13l-0.3,0.17a0.91,0.91 0 0 1 -0.61,0a0.65,0.65 0 0 1 -0.47,-0.27c-0.12,-0.09 -0.16,-0.26 -0.14,-0.51s0.19,-0.53 0.24,-0.64a2.43,2.43 0 0 1 0.44,-0.41m-16.36,16.6a1,1 0 0 1 -0.16,-0.24a1.41,1.41 0 0 1 0.44,-0.41a1.93,1.93 0 0 1 0.67,-0.27a1,1 0 0 1 0.51,0.14a0.59,0.59 0 0 1 0.24,0.47a1,1 0 0 1 0,0.65l-0.14,0.23l-0.13,0.24l-0.34,0a1.75,1.75 0 0 1 -1.09,-0.84m0.48,-17.58l-1.49,0l-0.04,1.49l1.87,0.37l-0.34,-1.86z" fill="#b9aea4" id="svg_1"/>
    </g>
    <g id="Layer0_3_FILL" data-name="Layer0 3 FILL">
     <path class="cls-2" d="m31.13,0.71a1.11,1.11 0 0 0 -0.35,0.8a1,1 0 0 0 0.35,0.85a1.09,1.09 0 0 0 0.8,0.3a1.38,1.38 0 0 0 0.85,-0.3a1.51,1.51 0 0 0 0.35,-0.85a1.07,1.07 0 0 0 -0.35,-0.8a1.07,1.07 0 0 0 -0.78,-0.35a1.15,1.15 0 0 0 -0.87,0.35z" fill="#9f9286" id="svg_2"/>
    </g>
    <g id="_finalRND_decor_0_Layer0_0_FILL-2" data-name=" finalRND decor 0 Layer0 0 FILL">
     <path class="cls-1" d="m0.32,27.7a0.52,0.52 0 0 0 0.41,0.21l0.14,0l0.27,-0.21l-0.82,0m4,-24.25a2.53,2.53 0 0 1 -0.06,-1.18a0.35,0.35 0 0 0 -0.24,-0.34a0.35,0.35 0 0 0 -0.38,0.07l-0.07,0.07a0.29,0.29 0 0 1 -0.27,0.17a0.53,0.53 0 0 0 -0.54,0.3l-0.13,0.14a0.63,0.63 0 0 0 -0.34,0.5a0.27,0.27 0 0 1 -0.14,0.27l0,0.07a0.32,0.32 0 0 0 -0.1,0.41a0.34,0.34 0 0 0 0.37,0.2a3.28,3.28 0 0 1 1.18,0.17a3.3,3.3 0 0 1 0.78,0.27a1.2,1.2 0 0 0 0.34,0.17l0.14,-0.13a0.44,0.44 0 0 0 -0.07,-0.17l-0.1,-0.14a3.46,3.46 0 0 1 -0.34,-0.85m3.12,-2.16a2.69,2.69 0 0 1 1.15,-0.29a5.4,5.4 0 0 1 2.47,1l1.63,1l0,0.47a2.07,2.07 0 0 1 -0.2,0.58a0.93,0.93 0 0 1 -0.41,0.4a1.15,1.15 0 0 1 -0.48,0.24l-2.4,0.51l0,0.1l0.64,0.17l0.68,0a2.23,2.23 0 0 0 0.64,-0.13a1.94,1.94 0 0 0 0.61,-0.24a2.08,2.08 0 0 0 0.58,-0.41a0.8,0.8 0 0 0 0.24,-0.27a0.4,0.4 0 0 0 0,0.17a2.64,2.64 0 0 0 0.61,1.29a5.15,5.15 0 0 0 0.47,0.47a2.51,2.51 0 0 0 0.68,0.41a2.54,2.54 0 0 0 0.81,0.13a2.46,2.46 0 0 0 1,-0.2a1.53,1.53 0 0 0 0.73,-0.69a1,1 0 0 0 0.2,-0.51a0.72,0.72 0 0 0 0,-0.54l-0.12,-0.31l-0.21,-0.2a1.62,1.62 0 0 0 -0.4,-0.24l-0.21,-0.07l-0.28,0a1.58,1.58 0 0 0 -0.4,0.07a1.25,1.25 0 0 0 -0.58,0.51a0.75,0.75 0 0 0 -0.1,0.34l0.07,0.27c0,0.15 0.12,0.23 0.23,0.23l0.14,0.07a0.1,0.1 0 0 0 0,-0.13l-0.13,-0.24a0.73,0.73 0 0 1 0.13,-0.41a0.79,0.79 0 0 1 0.38,-0.23a1.37,1.37 0 0 1 0.3,0a1.25,1.25 0 0 1 0.31,0a0.85,0.85 0 0 1 0.47,0.44a1.08,1.08 0 0 1 -0.13,0.71a1.66,1.66 0 0 1 -0.58,0.51a1.75,1.75 0 0 1 -1.46,0.16a1.4,1.4 0 0 1 -0.61,-0.3a1.1,1.1 0 0 1 -0.47,-0.37a2.6,2.6 0 0 1 -0.68,-1.19a0.68,0.68 0 0 1 -0.07,-0.27a0.32,0.32 0 0 0 0.07,-0.2a1.74,1.74 0 0 0 0.1,-0.92l0,0a0.13,0.13 0 0 0 0,-0.1l0.2,0.13a1.75,1.75 0 0 0 0.92,0.14a2.47,2.47 0 0 0 1.45,-0.85a4.92,4.92 0 0 0 0.54,-1.45a5.14,5.14 0 0 1 -1,1.08a1.29,1.29 0 0 1 -1.12,0.41a1.4,1.4 0 0 1 -0.51,-0.1l-1.63,-1a21.15,21.15 0 0 1 3.26,-0.53a7,7 0 0 1 2,0.21l-0.27,0.27a2.66,2.66 0 0 0 -0.47,1.05a1.59,1.59 0 0 0 0.24,1.25a1.65,1.65 0 0 0 1.05,0.71a2.23,2.23 0 0 0 1.18,0a3,3 0 0 0 0.58,-0.17a4.81,4.81 0 0 0 0.54,-0.41a2.08,2.08 0 0 0 0.37,-0.68a1.68,1.68 0 0 0 0,-0.71a3.36,3.36 0 0 0 -0.58,-1.08a2.16,2.16 0 0 0 -0.32,-0.35a5.91,5.91 0 0 1 1.26,-0.15c1.64,-0.09 2.87,-0.15 3.69,-0.17a17.76,17.76 0 0 1 1.83,0a1.51,1.51 0 0 1 0.77,0.21a1.24,1.24 0 0 1 0.48,0.57a0.53,0.53 0 0 1 -0.14,0.68a0.73,0.73 0 0 1 -0.78,0.27l-0.17,0a0.22,0.22 0 0 0 0.17,-0.13a0.36,0.36 0 0 0 0.17,-0.34a0.51,0.51 0 0 0 -0.17,-0.38a0.42,0.42 0 0 0 -0.33,-0.17a0.55,0.55 0 0 0 -0.38,0.17a0.71,0.71 0 0 0 -0.2,0.38a0.58,0.58 0 0 0 0.2,0.34a0.23,0.23 0 0 0 0.14,0.13l0.13,0.1a0.76,0.76 0 0 0 0.44,0.21a1.58,1.58 0 0 0 1,-0.31a1.06,1.06 0 0 0 0.3,-0.47a0.82,0.82 0 0 0 0,-0.58a1.45,1.45 0 0 0 -0.61,-0.81a1.63,1.63 0 0 0 -1,-0.31c-0.41,0 -1,-0.08 -1.86,-0.1s-2.08,0 -3.73,0a8.27,8.27 0 0 0 -1.9,0.2a2.26,2.26 0 0 0 -0.37,0.11a6.05,6.05 0 0 0 -3.34,-0.35a10.5,10.5 0 0 0 -3.32,1.19a15.3,15.3 0 0 0 -1.32,-0.78a4.61,4.61 0 0 0 -1.56,-0.44a3.16,3.16 0 0 0 -0.91,0.07a2.75,2.75 0 0 0 -0.81,0.27a3.34,3.34 0 0 0 -1.32,1a4,4 0 0 0 -0.68,1.59a3.53,3.53 0 0 0 0.1,1.62a1,1 0 0 0 0.17,0.61a0.72,0.72 0 0 0 -0.58,-0.13a2.82,2.82 0 0 0 -1.62,-0.14a3.08,3.08 0 0 0 -1.56,0.75a3.79,3.79 0 0 0 -1,1.28a2,2 0 0 0 -0.27,0.78a3.4,3.4 0 0 0 -0.07,0.88a3.85,3.85 0 0 0 0.44,1.56a8,8 0 0 0 0.71,1.32l0,0a13.19,13.19 0 0 0 -1.23,3.27a6.69,6.69 0 0 0 0.3,3.39a1.32,1.32 0 0 0 -0.1,0.3a8,8 0 0 0 -0.24,1.93l0,3.73c0,0.4 1.11,2.65 1.15,3.48c0,0.34 -1,-1 -0.74,-0.64a1.35,1.35 0 0 0 0.74,0.64a1.26,1.26 0 0 0 0.61,0a1.27,1.27 0 0 0 0.48,-0.33a1.44,1.44 0 0 0 0.3,-1a1.12,1.12 0 0 0 -0.2,-0.44a0.57,0.57 0 0 0 -0.1,-0.13a0.33,0.33 0 0 1 -0.07,-0.14a0.63,0.63 0 0 0 -0.41,-0.13a0.51,0.51 0 0 0 -0.37,0.13a0.58,0.58 0 0 0 -0.17,0.41a0.52,0.52 0 0 0 0.17,0.34a0.47,0.47 0 0 0 0.37,0.17a0.57,0.57 0 0 0 0.41,-0.17a1.47,1.47 0 0 0 0.07,-0.17a0.38,0.38 0 0 1 0.07,0.17a1.09,1.09 0 0 1 -0.31,0.74a0.58,0.58 0 0 1 -0.71,0.14a1.06,1.06 0 0 1 -0.58,-0.48a1.64,1.64 0 0 1 -0.17,-0.74l0.24,-5.56c0.07,-0.44 0.11,-0.9 0.17,-1.24a1.93,1.93 0 0 0 0.4,0.37a2.48,2.48 0 0 0 1,0.58a1.47,1.47 0 0 0 0.78,0a1.24,1.24 0 0 0 0.64,-0.37a1.61,1.61 0 0 0 0.44,-0.51a1.61,1.61 0 0 0 0.21,-0.54a3.33,3.33 0 0 0 0,-1.22a1.82,1.82 0 0 0 -0.74,-1.05a1.32,1.32 0 0 0 -1.22,-0.2a2.53,2.53 0 0 0 -1,0.44a0.49,0.49 0 0 0 -0.27,0.23a5.85,5.85 0 0 1 -0.21,-2a14.9,14.9 0 0 1 0.51,-3.22c0.16,0.27 0.39,0.61 0.68,1a3.76,3.76 0 0 1 0.3,0.61a0.69,0.69 0 0 1 0.17,0.54a1.71,1.71 0 0 1 -0.54,1.14a6.66,6.66 0 0 1 -1.15,0.92a3,3 0 0 0 1.43,-0.65a1.88,1.88 0 0 0 0.74,-2.33l-0.1,-0.17l0,0a0.09,0.09 0 0 1 0.07,0l0,0a1.79,1.79 0 0 0 0.92,-0.1l0.17,-0.07a1.24,1.24 0 0 1 0.27,0a3,3 0 0 1 1.22,0.68c0.09,0.11 0.21,0.28 0.37,0.51a3.4,3.4 0 0 1 0.3,0.61a2,2 0 0 1 -0.17,1.49a1.25,1.25 0 0 1 -0.57,0.54a0.94,0.94 0 0 1 -0.68,0.13a0.79,0.79 0 0 1 -0.44,-0.44l0,-0.3l0,-0.31a0.65,0.65 0 0 1 0.31,-0.4a0.35,0.35 0 0 1 0.39,-0.11l0.41,0.21a0.13,0.13 0 0 0 0,-0.14a0.75,0.75 0 0 0 -0.31,-0.27c0,-0.05 -0.13,-0.07 -0.27,-0.07a0.8,0.8 0 0 0 -0.3,0.1a1.17,1.17 0 0 0 -0.48,0.58a0.92,0.92 0 0 0 -0.1,0.44l0.1,0.44a0.92,0.92 0 0 0 0.24,0.44l0.17,0.17l0.27,0.13a0.91,0.91 0 0 0 0.54,0a1.06,1.06 0 0 0 0.44,-0.21a1.48,1.48 0 0 0 0.71,-0.77a2,2 0 0 0 0.24,-0.95a2.9,2.9 0 0 0 -0.14,-0.85a2.2,2.2 0 0 0 -0.37,-0.61l-0.44,-0.51a2.82,2.82 0 0 0 -1.32,-0.57a0.21,0.21 0 0 0 -0.17,-0.07l0.27,-0.24a1.46,1.46 0 0 0 0.41,-0.57l0.3,-0.65a2,2 0 0 0 0.11,-0.61a2.79,2.79 0 0 0 -0.07,-0.67a3,3 0 0 0 -0.17,-0.68l0,0a3.92,3.92 0 0 0 -0.17,0.61l-0.3,1.32a2.18,2.18 0 0 1 -0.14,0.54a2.17,2.17 0 0 1 -0.27,0.55a0.69,0.69 0 0 1 -0.4,0.33a0.81,0.81 0 0 1 -0.28,0.14a0.31,0.31 0 0 1 -0.2,0.07l-0.47,0l-0.21,-0.34s-0.27,-0.47 -0.74,-1.29a5.88,5.88 0 0 1 -1,-2.44a2.52,2.52 0 0 1 0.3,-1.18a2.47,2.47 0 0 1 0.75,-1a2.46,2.46 0 0 1 1.12,-0.58a2.06,2.06 0 0 1 1.18,0.07a1.46,1.46 0 0 1 0.85,0.74a1.72,1.72 0 0 1 0.07,1.16a1.58,1.58 0 0 1 -0.82,0.88a1.12,1.12 0 0 1 -0.57,0.12a1.33,1.33 0 0 1 -0.61,-0.13a1,1 0 0 1 -0.39,-0.51a0.59,0.59 0 0 1 0.1,-0.58a0.65,0.65 0 0 1 0.54,-0.3a0.68,0.68 0 0 1 0.65,0.3a0.79,0.79 0 0 0 -0.65,-0.44a0.73,0.73 0 0 0 -0.74,0.31a0.94,0.94 0 0 0 -0.21,0.78a1.55,1.55 0 0 0 0.41,0.74a1.52,1.52 0 0 0 1.63,0.2a1.94,1.94 0 0 0 1.27,-1.14a1.47,1.47 0 0 0 0.13,-0.3l0,0l0,1.59c0,0.45 0,0.73 0,0.82a3,3 0 0 0 0.21,0.84a6.44,6.44 0 0 0 0.54,0.71a3.81,3.81 0 0 0 0.85,0.38a1.81,1.81 0 0 0 0.92,-0.04a1.44,1.44 0 0 0 0.78,-0.71a2,2 0 0 0 0.24,-1a1.51,1.51 0 0 0 -0.3,-0.92a0.9,0.9 0 0 0 -0.85,-0.37a0.61,0.61 0 0 0 -0.34,0.1a0.34,0.34 0 0 0 -0.17,0.3l0,0.07c0.07,0.07 0.22,0 0.44,-0.1a0.51,0.51 0 0 1 0.31,-0.13a0.86,0.86 0 0 1 0.47,0.84a1.48,1.48 0 0 1 -0.23,1.06a1.51,1.51 0 0 1 -0.74,0.54a2,2 0 0 1 -1,-0.17a1.63,1.63 0 0 1 -1,-1.42a2.88,2.88 0 0 1 0,-0.78c0.09,-0.52 0.14,-0.91 0.17,-1.18a5.21,5.21 0 0 0 -0.04,-1.13a2.4,2.4 0 0 0 -0.39,-1.07a3,3 0 0 0 1.15,0.4a4.39,4.39 0 0 0 1.15,0c0.22,0 0.6,-0.09 1.12,-0.13a1.82,1.82 0 0 1 0.81,0a1.63,1.63 0 0 1 1.39,1a1.27,1.27 0 0 1 0.1,1a1,1 0 0 1 -0.51,0.71a2,2 0 0 1 -1,0.27a0.87,0.87 0 0 1 -0.81,-0.47l0,0a0.94,0.94 0 0 1 0.14,-0.34c0.09,-0.2 0.11,-0.32 0.07,-0.37l-0.14,0a0.3,0.3 0 0 0 -0.31,0.17a0.61,0.61 0 0 0 -0.1,0.34a0.81,0.81 0 0 0 0.41,0.84a1.36,1.36 0 0 0 0.91,0.31a1.93,1.93 0 0 0 1,-0.27a1.19,1.19 0 0 0 0.62,-0.79a1.54,1.54 0 0 0 0,-0.95a1.52,1.52 0 0 0 -0.34,-0.81a3,3 0 0 0 -0.66,-0.57a3,3 0 0 0 -0.85,-0.21a5.46,5.46 0 0 0 -0.81,0l-1.53,0l0,-0.06a0.58,0.58 0 0 1 0.24,-0.1a2.17,2.17 0 0 0 1.21,-1.19a1.65,1.65 0 0 0 -0.2,-1.66a1.08,1.08 0 0 0 -0.78,-0.37a0.75,0.75 0 0 0 -0.78,0.16a0.82,0.82 0 0 0 -0.27,0.78a0.6,0.6 0 0 0 0.37,0.55a0.54,0.54 0 0 1 -0.27,-0.55a0.56,0.56 0 0 1 0.31,-0.57a0.73,0.73 0 0 1 0.61,-0.05a0.83,0.83 0 0 1 0.44,0.37a1,1 0 0 1 0,1.15a1.57,1.57 0 0 1 -0.91,0.81a1.29,1.29 0 0 1 -1.12,-0.1a1.58,1.58 0 0 1 -0.66,-0.86a2.39,2.39 0 0 1 0,-1.22a3.15,3.15 0 0 1 0.45,-1.15a2.29,2.29 0 0 1 1,-0.74m10.55,0.26a0.49,0.49 0 0 1 0.23,0.14a2,2 0 0 1 0.55,0.51a1.06,1.06 0 0 1 0.3,0.54a0.39,0.39 0 0 1 -0.07,0.34l-0.17,0.13l-0.3,0.17a0.91,0.91 0 0 1 -0.61,0a0.65,0.65 0 0 1 -0.47,-0.27c-0.12,-0.09 -0.16,-0.26 -0.14,-0.51s0.19,-0.53 0.24,-0.64a2.43,2.43 0 0 1 0.44,-0.41m-16.36,16.6a1,1 0 0 1 -0.16,-0.24a1.41,1.41 0 0 1 0.44,-0.41a1.93,1.93 0 0 1 0.67,-0.27a1,1 0 0 1 0.51,0.14a0.59,0.59 0 0 1 0.24,0.47a1,1 0 0 1 0,0.65l-0.14,0.23l-0.13,0.24l-0.34,0a1.75,1.75 0 0 1 -1.09,-0.84m0.48,-17.58l-1.49,0l-0.04,1.49l1.87,0.37l-0.34,-1.86z" fill="#b9aea4" id="svg_3"/>
    </g>
    <g id="Layer0_3_FILL-2" data-name="Layer0 3 FILL">
     <path class="cls-2" d="m36.13,0.71a1.11,1.11 0 0 0 -0.35,0.8a1,1 0 0 0 0.35,0.85a1.09,1.09 0 0 0 0.8,0.3a1.38,1.38 0 0 0 0.85,-0.3a1.51,1.51 0 0 0 0.35,-0.85a1.07,1.07 0 0 0 -0.35,-0.8a1.07,1.07 0 0 0 -0.78,-0.35a1.15,1.15 0 0 0 -0.87,0.35z" fill="#9f9286" id="svg_4"/>
    </g>
    <g id="Layer0_3_FILL-3" data-name="Layer0 3 FILL">
     <path class="cls-2" d="m41.13,0.71a1.11,1.11 0 0 0 -0.35,0.8a1,1 0 0 0 0.35,0.85a1.09,1.09 0 0 0 0.8,0.3a1.38,1.38 0 0 0 0.85,-0.3a1.51,1.51 0 0 0 0.35,-0.85a1.07,1.07 0 0 0 -0.35,-0.8a1.07,1.07 0 0 0 -0.78,-0.35a1.15,1.15 0 0 0 -0.87,0.35z" fill="#9f9286" id="svg_5"/>
    </g>
    <g id="Layer0_3_FILL-4" data-name="Layer0 3 FILL">
     <path class="cls-2" d="m46.13,0.71a1.11,1.11 0 0 0 -0.35,0.8a1,1 0 0 0 0.35,0.85a1.09,1.09 0 0 0 0.8,0.3a1.38,1.38 0 0 0 0.85,-0.3a1.51,1.51 0 0 0 0.35,-0.85a1.07,1.07 0 0 0 -0.35,-0.8a1.07,1.07 0 0 0 -0.78,-0.35a1.15,1.15 0 0 0 -0.87,0.35z" fill="#9f9286" id="svg_6"/>
    </g>
    <g id="Layer0_3_FILL-6" data-name="Layer0 3 FILL">
     <path class="cls-2" d="m2.28,32.05a1.09,1.09 0 0 0 -0.8,-0.35a0.92,0.92 0 0 0 -0.85,0.35a1.07,1.07 0 0 0 -0.3,0.8a1.4,1.4 0 0 0 0.3,0.85a1.52,1.52 0 0 0 0.85,0.35a1.13,1.13 0 0 0 0.8,-0.35a1.13,1.13 0 0 0 0.35,-0.8a1.15,1.15 0 0 0 -0.35,-0.85z" fill="#9f9286" id="svg_8"/>
    </g>
    <g id="Layer0_3_FILL-7" data-name="Layer0 3 FILL">
     <path class="cls-2" d="m2.28,37.05a1.09,1.09 0 0 0 -0.8,-0.35a0.92,0.92 0 0 0 -0.85,0.35a1.07,1.07 0 0 0 -0.3,0.8a1.4,1.4 0 0 0 0.3,0.85a1.52,1.52 0 0 0 0.85,0.35a1.13,1.13 0 0 0 0.8,-0.35a1.13,1.13 0 0 0 0.35,-0.8a1.15,1.15 0 0 0 -0.35,-0.85z" fill="#9f9286" id="svg_9"/>
    </g>
    <g id="Layer0_3_FILL-8" data-name="Layer0 3 FILL">
     <path class="cls-2" d="m2.28,42.05a1.09,1.09 0 0 0 -0.8,-0.35a0.92,0.92 0 0 0 -0.85,0.35a1.07,1.07 0 0 0 -0.3,0.8a1.4,1.4 0 0 0 0.3,0.85a1.52,1.52 0 0 0 0.85,0.35a1.13,1.13 0 0 0 0.8,-0.35a1.13,1.13 0 0 0 0.35,-0.8a1.15,1.15 0 0 0 -0.35,-0.85z" fill="#9f9286" id="svg_10"/>
    </g>
    <g id="Layer0_3_FILL-9" data-name="Layer0 3 FILL">
     <path class="cls-2" d="m2.28,47.05a1.09,1.09 0 0 0 -0.8,-0.35a0.92,0.92 0 0 0 -0.85,0.35a1.07,1.07 0 0 0 -0.3,0.8a1.4,1.4 0 0 0 0.3,0.85a1.52,1.52 0 0 0 0.85,0.35a1.13,1.13 0 0 0 0.8,-0.35a1.13,1.13 0 0 0 0.35,-0.8a1.15,1.15 0 0 0 -0.35,-0.85z" fill="#9f9286" id="svg_11"/>
    </g>
    <g id="_finalRND_decor_0_Layer0_0_FILL-3" data-name=" finalRND decor 0 Layer0 0 FILL">
     <path class="cls-1" d="m98.58791,27.7l-0.81,0l0.27,0.21l0.13,0a0.51,0.51 0 0 0 0.41,-0.21m-4,-24.25a3.46,3.46 0 0 1 -0.34,0.85l-0.07,0.14a0.73,0.73 0 0 0 -0.07,0.17l0.14,0.13a1.08,1.08 0 0 0 0.34,-0.17a3.3,3.3 0 0 1 0.78,-0.27a3.28,3.28 0 0 1 1.18,-0.17a0.36,0.36 0 0 0 0.38,-0.2a0.33,0.33 0 0 0 -0.11,-0.41l0,-0.07a0.27,0.27 0 0 1 -0.14,-0.27a0.62,0.62 0 0 0 -0.33,-0.5l-0.14,-0.14a0.53,0.53 0 0 0 -0.54,-0.3a0.32,0.32 0 0 1 -0.27,-0.17l-0.13,-0.07a0.34,0.34 0 0 0 -0.41,-0.07a0.35,0.35 0 0 0 -0.23,0.34a2.66,2.66 0 0 1 -0.07,1.18m-3.12,-2.16a2.29,2.29 0 0 1 1,0.74a3,3 0 0 1 0.54,1.12a2.51,2.51 0 0 1 0,1.22a1.64,1.64 0 0 1 -0.75,0.81a1.29,1.29 0 0 1 -1.12,0.1a1.57,1.57 0 0 1 -0.91,-0.81a1,1 0 0 1 0,-1.15a0.87,0.87 0 0 1 0.44,-0.37a0.72,0.72 0 0 1 0.61,0.1a0.55,0.55 0 0 1 0.31,0.57a0.54,0.54 0 0 1 -0.27,0.55a0.6,0.6 0 0 0 0.37,-0.55a0.78,0.78 0 0 0 -0.27,-0.78a0.74,0.74 0 0 0 -0.78,-0.16a1.08,1.08 0 0 0 -0.78,0.37a1.65,1.65 0 0 0 -0.2,1.66a2.15,2.15 0 0 0 1.22,1.22a0.54,0.54 0 0 1 0.23,0.1l0,0l-1.55,0a5.6,5.6 0 0 0 -0.82,0a2.84,2.84 0 0 0 -0.84,0.21a2.83,2.83 0 0 0 -0.71,0.57a1.38,1.38 0 0 0 -0.34,0.81a1.54,1.54 0 0 0 0,0.95a1.21,1.21 0 0 0 0.68,0.75a1.93,1.93 0 0 0 1,0.27a1.38,1.38 0 0 0 0.92,-0.31a0.81,0.81 0 0 0 0.4,-0.84a0.61,0.61 0 0 0 -0.1,-0.34c-0.09,-0.14 -0.19,-0.19 -0.3,-0.17l-0.07,0s0,0.17 0.07,0.37a0.86,0.86 0 0 1 0.13,0.34l0,0a0.86,0.86 0 0 1 -0.81,0.47a2,2 0 0 1 -1,-0.27a1,1 0 0 1 -0.51,-0.71a1.27,1.27 0 0 1 0.11,-1a1.61,1.61 0 0 1 1.38,-1a1.86,1.86 0 0 1 0.82,0c0.52,0 0.89,0.09 1.11,0.13a4.47,4.47 0 0 0 1.16,0a3.15,3.15 0 0 0 1.15,-0.4a2.19,2.19 0 0 0 -0.43,1.14a4.18,4.18 0 0 0 0,1.12c0,0.27 0.08,0.66 0.17,1.18a2.88,2.88 0 0 1 0,0.78a1.63,1.63 0 0 1 -1,1.42a2,2 0 0 1 -1,0.17a1.51,1.51 0 0 1 -0.74,-0.54a1.58,1.58 0 0 1 -0.24,-1.05a0.85,0.85 0 0 1 0.48,-0.84a0.48,0.48 0 0 1 0.3,0.13c0.23,0.14 0.37,0.17 0.44,0.1l0,-0.06a0.32,0.32 0 0 0 -0.17,-0.3a0.58,0.58 0 0 0 -0.34,-0.1a0.9,0.9 0 0 0 -0.84,0.37a1.46,1.46 0 0 0 -0.31,0.92a2,2 0 0 0 0.24,1a1.44,1.44 0 0 0 0.78,0.71a1.84,1.84 0 0 0 1,0.07a4,4 0 0 0 0.84,-0.38a6.44,6.44 0 0 0 0.54,-0.71a2.47,2.47 0 0 0 0.21,-0.84c0,-0.09 0,-0.37 0,-0.82l0,-1.59l0,0a1.42,1.42 0 0 0 0.14,0.3a1.89,1.89 0 0 0 1.22,1.15a1.5,1.5 0 0 0 1.62,-0.2a1.47,1.47 0 0 0 0.41,-0.74a0.93,0.93 0 0 0 -0.2,-0.78a0.75,0.75 0 0 0 -0.75,-0.31a0.76,0.76 0 0 0 -0.64,0.44a0.73,0.73 0 0 1 1.18,0a0.57,0.57 0 0 1 0.1,0.58a0.93,0.93 0 0 1 -0.34,0.51a1.32,1.32 0 0 1 -0.6,0.13a1.16,1.16 0 0 1 -0.58,-0.13a1.56,1.56 0 0 1 -0.81,-0.88a1.72,1.72 0 0 1 0.06,-1.16a1.46,1.46 0 0 1 0.85,-0.74a2.09,2.09 0 0 1 1.19,-0.07a2.43,2.43 0 0 1 1.11,0.58a2.47,2.47 0 0 1 0.75,1a2.52,2.52 0 0 1 0.3,1.18a5.88,5.88 0 0 1 -1.12,2.4c-0.47,0.82 -0.72,1.24 -0.74,1.29l-0.2,0.34l-0.48,0a0.32,0.32 0 0 1 -0.2,-0.07a0.7,0.7 0 0 1 -0.27,-0.14a0.68,0.68 0 0 1 -0.41,-0.33a2.17,2.17 0 0 1 -0.27,-0.55a2.77,2.77 0 0 1 -0.14,-0.54l-0.23,-1.22a3.06,3.06 0 0 0 -0.17,-0.61l0,0a3.1,3.1 0 0 0 -0.16,0.68a2.36,2.36 0 0 0 -0.07,0.67a2,2 0 0 0 0.1,0.61l0.3,0.65a1.46,1.46 0 0 0 0.41,0.57l0.27,0.24a0.22,0.22 0 0 0 -0.17,0.07a2.87,2.87 0 0 0 -1.32,0.57l-0.44,0.51a2.48,2.48 0 0 0 -0.37,0.61a2.9,2.9 0 0 0 -0.14,0.85a2,2 0 0 0 0.24,0.95a1.52,1.52 0 0 0 0.71,0.77a1.06,1.06 0 0 0 0.44,0.21a0.91,0.91 0 0 0 0.54,0l0.27,-0.13l0.17,-0.17a0.92,0.92 0 0 0 0.24,-0.44l0.1,-0.44a0.92,0.92 0 0 0 -0.1,-0.44a1.16,1.16 0 0 0 -0.47,-0.58a0.86,0.86 0 0 0 -0.31,-0.1a0.38,0.38 0 0 0 -0.27,0.07a0.72,0.72 0 0 0 -0.3,0.27a0.12,0.12 0 0 0 0,0.14l0.41,-0.21a0.38,0.38 0 0 1 0.34,0.14a0.68,0.68 0 0 1 0.3,0.4l0,0.31l0,0.3a0.79,0.79 0 0 1 -0.44,0.44a0.94,0.94 0 0 1 -0.68,-0.13a1.25,1.25 0 0 1 -0.57,-0.54a2,2 0 0 1 -0.17,-1.49a4.24,4.24 0 0 1 0.3,-0.61c0.16,-0.23 0.29,-0.4 0.38,-0.51a2.93,2.93 0 0 1 1.22,-0.68a1.24,1.24 0 0 1 0.27,0l0.17,0.07a1.74,1.74 0 0 0 0.91,0.1l0,0s0,0 0.07,0l0,0l-0.1,0.17a2.15,2.15 0 0 0 -0.14,0.91a2,2 0 0 0 0.89,1.42a3,3 0 0 0 1.42,0.65a7.09,7.09 0 0 1 -1.14,-1.05a1.77,1.77 0 0 1 -0.44,-1.12a0.73,0.73 0 0 1 0.17,-0.54a4.82,4.82 0 0 1 0.3,-0.61c0.3,-0.41 0.52,-0.75 0.68,-1a13.76,13.76 0 0 1 0.51,3.22a5.86,5.86 0 0 1 -0.2,2a0.57,0.57 0 0 0 -0.27,-0.23a2.65,2.65 0 0 0 -1,-0.44a1.31,1.31 0 0 0 -1.22,0.2a1.79,1.79 0 0 0 -0.75,1.05a3.13,3.13 0 0 0 0,1.22a1.57,1.57 0 0 0 0.2,0.54a1.74,1.74 0 0 0 0.44,0.51a1.24,1.24 0 0 0 0.64,0.37a1.47,1.47 0 0 0 0.78,0a2.36,2.36 0 0 0 1,-0.58a2.24,2.24 0 0 0 0.41,-0.37c0,0.34 0.06,0.76 0.13,1.25l0.24,5.56a1.64,1.64 0 0 1 -0.17,0.74a1.06,1.06 0 0 1 -0.58,0.48a0.58,0.58 0 0 1 -0.71,-0.14a1.08,1.08 0 0 1 -0.3,-0.74a0.35,0.35 0 0 1 0.06,-0.17l0.07,0.17a0.58,0.58 0 0 0 0.41,0.17a0.45,0.45 0 0 0 0.37,-0.17a0.52,0.52 0 0 0 0.17,-0.34a0.58,0.58 0 0 0 -0.17,-0.41a0.49,0.49 0 0 0 -0.37,-0.13a0.65,0.65 0 0 0 -0.41,0.13a0.33,0.33 0 0 1 -0.07,0.14a1.13,1.13 0 0 0 -0.1,0.13a1.28,1.28 0 0 0 -0.2,0.44a1.49,1.49 0 0 0 0.3,1a1.46,1.46 0 0 0 0.48,0.33a1.26,1.26 0 0 0 0.61,0a1.35,1.35 0 0 0 0.74,-0.64a1.64,1.64 0 0 0 0.34,-1c0.05,-0.84 0.07,-1.46 0.07,-1.86l0,-3.74a7.48,7.48 0 0 0 -0.24,-1.93a1,1 0 0 0 -0.1,-0.3a6.68,6.68 0 0 0 0.31,-3.39a13.21,13.21 0 0 0 -1.19,-3.29l0,0a7.32,7.32 0 0 0 0.71,-1.32a3.85,3.85 0 0 0 0.35,-1.59a3.4,3.4 0 0 0 -0.07,-0.88a2,2 0 0 0 -0.27,-0.78a3.79,3.79 0 0 0 -1,-1.28a3.05,3.05 0 0 0 -1.55,-0.75a2.85,2.85 0 0 0 -1.63,0.14a0.72,0.72 0 0 0 -0.58,0.13a0.89,0.89 0 0 0 0.17,-0.61a3.53,3.53 0 0 0 0.07,-1.57a4.15,4.15 0 0 0 -0.72,-1.53a3.34,3.34 0 0 0 -1.32,-1a2.75,2.75 0 0 0 -0.78,-0.27a3.16,3.16 0 0 0 -0.91,-0.07a4.61,4.61 0 0 0 -1.56,0.44q-0.47,0.24 -1.32,0.78a10.5,10.5 0 0 0 -3.32,-1.25a6.05,6.05 0 0 0 -3.35,0.31a2,2 0 0 0 -0.37,-0.11a8.21,8.21 0 0 0 -1.9,-0.2q-2.47,0 -3.72,0c-0.84,0 -1.46,0.06 -1.87,0.1a1.63,1.63 0 0 0 -1,0.31a1.5,1.5 0 0 0 -0.61,0.81a0.82,0.82 0 0 0 0,0.58a1,1 0 0 0 0.31,0.47a1.55,1.55 0 0 0 1,0.31a0.73,0.73 0 0 0 0.44,-0.21a0.58,0.58 0 0 0 0.13,-0.1a0.2,0.2 0 0 0 0.14,-0.13a0.58,0.58 0 0 0 0.2,-0.34a0.71,0.71 0 0 0 -0.2,-0.38a0.53,0.53 0 0 0 -0.37,-0.17a0.42,0.42 0 0 0 -0.34,0.17a0.55,0.55 0 0 0 -0.17,0.38a0.38,0.38 0 0 0 0.17,0.34a0.22,0.22 0 0 0 0.17,0.13l-0.17,0a0.73,0.73 0 0 1 -0.78,-0.27a0.54,0.54 0 0 1 -0.14,-0.68a1.24,1.24 0 0 1 0.48,-0.57a1.58,1.58 0 0 1 0.74,-0.21a17.83,17.83 0 0 1 1.83,0c0.81,0 2,0.08 3.69,0.17a5.9,5.9 0 0 1 1.25,0.17a2.16,2.16 0 0 0 -0.37,0.37a3.81,3.81 0 0 0 -0.58,1.08a2.09,2.09 0 0 0 0,0.71a2.08,2.08 0 0 0 0.37,0.68a6,6 0 0 0 0.55,0.41a2.64,2.64 0 0 0 0.57,0.17a2.26,2.26 0 0 0 1.19,0a1.65,1.65 0 0 0 1.05,-0.71a1.59,1.59 0 0 0 0.23,-1.25a2.53,2.53 0 0 0 -0.47,-1l-0.27,-0.27a7,7 0 0 1 2,-0.21a21,21 0 0 1 3.22,0.48l-1.56,1a1.39,1.39 0 0 1 -0.5,0.1a1.27,1.27 0 0 1 -1.12,-0.41a4.88,4.88 0 0 1 -1,-1.08a4.89,4.89 0 0 0 0.64,1.42a2.46,2.46 0 0 0 1.46,0.85a1.71,1.71 0 0 0 0.91,-0.14l0.2,-0.13a0.13,0.13 0 0 0 0,0.1l0,0a1.85,1.85 0 0 0 0.1,0.92a0.32,0.32 0 0 0 0.07,0.2a0.54,0.54 0 0 1 -0.07,0.27a2.6,2.6 0 0 1 -0.68,1.19a1.1,1.1 0 0 1 -0.47,0.37a1.4,1.4 0 0 1 -0.61,0.3a1.75,1.75 0 0 1 -1.46,-0.16a1.72,1.72 0 0 1 -0.57,-0.51a1.09,1.09 0 0 1 -0.14,-0.71a0.84,0.84 0 0 1 0.48,-0.44a1.13,1.13 0 0 1 0.3,0a1.52,1.52 0 0 1 0.31,0a0.81,0.81 0 0 1 0.37,0.23a0.73,0.73 0 0 1 0.13,0.41l-0.13,0.24a0.1,0.1 0 0 0 0,0.13l0.14,-0.07c0.11,0 0.19,-0.08 0.24,-0.23l0.06,-0.27a0.75,0.75 0 0 0 -0.1,-0.34a1.18,1.18 0 0 0 -0.57,-0.51a1.64,1.64 0 0 0 -0.41,-0.07l-0.28,0l-0.2,0.07a1.77,1.77 0 0 0 -0.41,0.24l-0.2,0.2l-0.14,0.27a0.72,0.72 0 0 0 0,0.54a1,1 0 0 0 0.2,0.51a1.53,1.53 0 0 0 0.75,0.71a2.46,2.46 0 0 0 0.95,0.2a2.54,2.54 0 0 0 0.81,-0.13a2.37,2.37 0 0 0 0.68,-0.41a5.15,5.15 0 0 0 0.47,-0.47a2.64,2.64 0 0 0 0.61,-1.29a0.39,0.39 0 0 0 0,-0.17a0.69,0.69 0 0 0 0.23,0.27a2.08,2.08 0 0 0 0.58,0.41a1.94,1.94 0 0 0 0.61,0.24a2.31,2.31 0 0 0 0.64,0.13l0.68,0l0.64,-0.17l0,-0.1l-2.4,-0.51a1.21,1.21 0 0 1 -0.5,-0.24a0.86,0.86 0 0 1 -0.4,-0.4a2.07,2.07 0 0 1 -0.21,-0.58l0,-0.42l1.61,-0.93a5.44,5.44 0 0 1 2.47,-1a2.65,2.65 0 0 1 1.15,0.27m-10.49,0.23a3.35,3.35 0 0 1 0.44,0.41l0.23,0.64a0.57,0.57 0 0 1 -0.13,0.51a0.67,0.67 0 0 1 -0.48,0.27a0.91,0.91 0 0 1 -0.61,0l-0.3,-0.17l-0.17,-0.13a0.39,0.39 0 0 1 -0.07,-0.34a1.09,1.09 0 0 1 0.31,-0.54a2.11,2.11 0 0 1 0.54,-0.51a0.53,0.53 0 0 1 0.24,-0.14m16.32,16.6a1.75,1.75 0 0 1 -1.09,0.84a1.84,1.84 0 0 1 -0.33,0s-0.07,-0.12 -0.14,-0.24l-0.14,-0.23a1.2,1.2 0 0 1 0,-0.65a0.65,0.65 0 0 1 0.24,-0.47a1,1 0 0 1 0.51,-0.14a2.09,2.09 0 0 1 0.68,0.27a1.53,1.53 0 0 1 0.44,0.41a1,1 0 0 1 -0.17,0.24m-0.81,-15.75l1.9,-0.45l0,-1.49l-1.54,0l-0.36,1.94z" fill="#b9aea4" id="svg_13"/>
    </g>
    <g id="Layer0_3_FILL-11" data-name="Layer0 3 FILL">
     <path class="cls-2" d="m66.92791,0.36a1.07,1.07 0 0 0 -0.8,0.35a1.11,1.11 0 0 0 -0.35,0.8a1.51,1.51 0 0 0 0.35,0.85a1.4,1.4 0 0 0 0.85,0.3a1.09,1.09 0 0 0 0.8,-0.3a1,1 0 0 0 0.35,-0.85a1.11,1.11 0 0 0 -0.35,-0.8a1.13,1.13 0 0 0 -0.85,-0.35z" fill="#9f9286" id="svg_14"/>
    </g>
    <g id="_finalRND_decor_0_Layer0_0_FILL-4" data-name=" finalRND decor 0 Layer0 0 FILL">
     <path class="cls-1" d="m98.58791,27.7l-0.81,0l0.27,0.21l0.13,0a0.51,0.51 0 0 0 0.41,-0.21m-4,-24.25a3.46,3.46 0 0 1 -0.34,0.85l-0.07,0.14a0.73,0.73 0 0 0 -0.07,0.17l0.14,0.13a1.08,1.08 0 0 0 0.34,-0.17a3.3,3.3 0 0 1 0.78,-0.27a3.28,3.28 0 0 1 1.18,-0.17a0.36,0.36 0 0 0 0.38,-0.2a0.33,0.33 0 0 0 -0.11,-0.41l0,-0.07a0.27,0.27 0 0 1 -0.14,-0.27a0.62,0.62 0 0 0 -0.33,-0.5l-0.14,-0.14a0.53,0.53 0 0 0 -0.54,-0.3a0.32,0.32 0 0 1 -0.27,-0.17l-0.13,-0.07a0.34,0.34 0 0 0 -0.41,-0.07a0.35,0.35 0 0 0 -0.23,0.34a2.66,2.66 0 0 1 -0.07,1.18m-3.12,-2.16a2.29,2.29 0 0 1 1,0.74a3,3 0 0 1 0.54,1.12a2.51,2.51 0 0 1 0,1.22a1.64,1.64 0 0 1 -0.75,0.81a1.29,1.29 0 0 1 -1.12,0.1a1.57,1.57 0 0 1 -0.91,-0.81a1,1 0 0 1 0,-1.15a0.87,0.87 0 0 1 0.44,-0.37a0.72,0.72 0 0 1 0.61,0.1a0.55,0.55 0 0 1 0.31,0.57a0.54,0.54 0 0 1 -0.27,0.55a0.6,0.6 0 0 0 0.37,-0.55a0.78,0.78 0 0 0 -0.27,-0.78a0.74,0.74 0 0 0 -0.78,-0.16a1.08,1.08 0 0 0 -0.78,0.37a1.65,1.65 0 0 0 -0.2,1.66a2.15,2.15 0 0 0 1.22,1.22a0.54,0.54 0 0 1 0.23,0.1l0,0l-1.55,0a5.6,5.6 0 0 0 -0.82,0a2.84,2.84 0 0 0 -0.84,0.21a2.83,2.83 0 0 0 -0.71,0.57a1.38,1.38 0 0 0 -0.34,0.81a1.54,1.54 0 0 0 0,0.95a1.21,1.21 0 0 0 0.68,0.75a1.93,1.93 0 0 0 1,0.27a1.38,1.38 0 0 0 0.92,-0.31a0.81,0.81 0 0 0 0.4,-0.84a0.61,0.61 0 0 0 -0.1,-0.34c-0.09,-0.14 -0.19,-0.19 -0.3,-0.17l-0.07,0s0,0.17 0.07,0.37a0.86,0.86 0 0 1 0.13,0.34l0,0a0.86,0.86 0 0 1 -0.81,0.47a2,2 0 0 1 -1,-0.27a1,1 0 0 1 -0.51,-0.71a1.27,1.27 0 0 1 0.11,-1a1.61,1.61 0 0 1 1.38,-1a1.86,1.86 0 0 1 0.82,0c0.52,0 0.89,0.09 1.11,0.13a4.47,4.47 0 0 0 1.16,0a3.15,3.15 0 0 0 1.15,-0.4a2.19,2.19 0 0 0 -0.43,1.14a4.18,4.18 0 0 0 0,1.12c0,0.27 0.08,0.66 0.17,1.18a2.88,2.88 0 0 1 0,0.78a1.63,1.63 0 0 1 -1,1.42a2,2 0 0 1 -1,0.17a1.51,1.51 0 0 1 -0.74,-0.54a1.58,1.58 0 0 1 -0.24,-1.05a0.85,0.85 0 0 1 0.48,-0.84a0.48,0.48 0 0 1 0.3,0.13c0.23,0.14 0.37,0.17 0.44,0.1l0,-0.06a0.32,0.32 0 0 0 -0.17,-0.3a0.58,0.58 0 0 0 -0.34,-0.1a0.9,0.9 0 0 0 -0.84,0.37a1.46,1.46 0 0 0 -0.31,0.92a2,2 0 0 0 0.24,1a1.44,1.44 0 0 0 0.78,0.71a1.84,1.84 0 0 0 1,0.07a4,4 0 0 0 0.84,-0.38a6.44,6.44 0 0 0 0.54,-0.71a2.47,2.47 0 0 0 0.21,-0.84c0,-0.09 0,-0.37 0,-0.82l0,-1.59l0,0a1.42,1.42 0 0 0 0.14,0.3a1.89,1.89 0 0 0 1.22,1.15a1.5,1.5 0 0 0 1.62,-0.2a1.47,1.47 0 0 0 0.41,-0.74a0.93,0.93 0 0 0 -0.2,-0.78a0.75,0.75 0 0 0 -0.75,-0.31a0.76,0.76 0 0 0 -0.64,0.44a0.73,0.73 0 0 1 1.18,0a0.57,0.57 0 0 1 0.1,0.58a0.93,0.93 0 0 1 -0.34,0.51a1.32,1.32 0 0 1 -0.6,0.13a1.16,1.16 0 0 1 -0.58,-0.13a1.56,1.56 0 0 1 -0.81,-0.88a1.72,1.72 0 0 1 0.06,-1.16a1.46,1.46 0 0 1 0.85,-0.74a2.09,2.09 0 0 1 1.19,-0.07a2.43,2.43 0 0 1 1.11,0.58a2.47,2.47 0 0 1 0.75,1a2.52,2.52 0 0 1 0.3,1.18a5.88,5.88 0 0 1 -1.12,2.4c-0.47,0.82 -0.72,1.24 -0.74,1.29l-0.2,0.34l-0.48,0a0.32,0.32 0 0 1 -0.2,-0.07a0.7,0.7 0 0 1 -0.27,-0.14a0.68,0.68 0 0 1 -0.41,-0.33a2.17,2.17 0 0 1 -0.27,-0.55a2.77,2.77 0 0 1 -0.14,-0.54l-0.23,-1.22a3.06,3.06 0 0 0 -0.17,-0.61l0,0a3.1,3.1 0 0 0 -0.16,0.68a2.36,2.36 0 0 0 -0.07,0.67a2,2 0 0 0 0.1,0.61l0.3,0.65a1.46,1.46 0 0 0 0.41,0.57l0.27,0.24a0.22,0.22 0 0 0 -0.17,0.07a2.87,2.87 0 0 0 -1.32,0.57l-0.44,0.51a2.48,2.48 0 0 0 -0.37,0.61a2.9,2.9 0 0 0 -0.14,0.85a2,2 0 0 0 0.24,0.95a1.52,1.52 0 0 0 0.71,0.77a1.06,1.06 0 0 0 0.44,0.21a0.91,0.91 0 0 0 0.54,0l0.27,-0.13l0.17,-0.17a0.92,0.92 0 0 0 0.24,-0.44l0.1,-0.44a0.92,0.92 0 0 0 -0.1,-0.44a1.16,1.16 0 0 0 -0.47,-0.58a0.86,0.86 0 0 0 -0.31,-0.1a0.38,0.38 0 0 0 -0.27,0.07a0.72,0.72 0 0 0 -0.3,0.27a0.12,0.12 0 0 0 0,0.14l0.41,-0.21a0.38,0.38 0 0 1 0.34,0.14a0.68,0.68 0 0 1 0.3,0.4l0,0.31l0,0.3a0.79,0.79 0 0 1 -0.44,0.44a0.94,0.94 0 0 1 -0.68,-0.13a1.25,1.25 0 0 1 -0.57,-0.54a2,2 0 0 1 -0.17,-1.49a4.24,4.24 0 0 1 0.3,-0.61c0.16,-0.23 0.29,-0.4 0.38,-0.51a2.93,2.93 0 0 1 1.22,-0.68a1.24,1.24 0 0 1 0.27,0l0.17,0.07a1.74,1.74 0 0 0 0.91,0.1l0,0s0,0 0.07,0l0,0l-0.1,0.17a2.15,2.15 0 0 0 -0.14,0.91a2,2 0 0 0 0.89,1.42a3,3 0 0 0 1.42,0.65a7.09,7.09 0 0 1 -1.14,-1.05a1.77,1.77 0 0 1 -0.44,-1.12a0.73,0.73 0 0 1 0.17,-0.54a4.82,4.82 0 0 1 0.3,-0.61c0.3,-0.41 0.52,-0.75 0.68,-1a13.76,13.76 0 0 1 0.51,3.22a5.86,5.86 0 0 1 -0.2,2a0.57,0.57 0 0 0 -0.27,-0.23a2.65,2.65 0 0 0 -1,-0.44a1.31,1.31 0 0 0 -1.22,0.2a1.79,1.79 0 0 0 -0.75,1.05a3.13,3.13 0 0 0 0,1.22a1.57,1.57 0 0 0 0.2,0.54a1.74,1.74 0 0 0 0.44,0.51a1.24,1.24 0 0 0 0.64,0.37a1.47,1.47 0 0 0 0.78,0a2.36,2.36 0 0 0 1,-0.58a2.24,2.24 0 0 0 0.41,-0.37c0,0.34 0.06,0.76 0.13,1.25l0.24,5.56a1.64,1.64 0 0 1 -0.17,0.74a1.06,1.06 0 0 1 -0.58,0.48a0.58,0.58 0 0 1 -0.71,-0.14a1.08,1.08 0 0 1 -0.3,-0.74a0.35,0.35 0 0 1 0.06,-0.17l0.07,0.17a0.58,0.58 0 0 0 0.41,0.17a0.45,0.45 0 0 0 0.37,-0.17a0.52,0.52 0 0 0 0.17,-0.34a0.58,0.58 0 0 0 -0.17,-0.41a0.49,0.49 0 0 0 -0.37,-0.13a0.65,0.65 0 0 0 -0.41,0.13a0.33,0.33 0 0 1 -0.07,0.14a1.13,1.13 0 0 0 -0.1,0.13a1.28,1.28 0 0 0 -0.2,0.44a1.49,1.49 0 0 0 0.3,1a1.46,1.46 0 0 0 0.48,0.33a1.26,1.26 0 0 0 0.61,0a1.35,1.35 0 0 0 0.74,-0.64c0.23,-0.32 -0.74,1 -0.74,0.64c0,-0.83 1.15,-3.08 1.15,-3.48l0,-3.76a7.48,7.48 0 0 0 -0.24,-1.93a1,1 0 0 0 -0.1,-0.3a6.68,6.68 0 0 0 0.31,-3.39a13.21,13.21 0 0 0 -1.19,-3.29l0,0a7.32,7.32 0 0 0 0.71,-1.32a3.85,3.85 0 0 0 0.35,-1.59a3.4,3.4 0 0 0 -0.07,-0.88a2,2 0 0 0 -0.27,-0.78a3.79,3.79 0 0 0 -1,-1.28a3.05,3.05 0 0 0 -1.55,-0.75a2.85,2.85 0 0 0 -1.63,0.14a0.72,0.72 0 0 0 -0.58,0.13a0.89,0.89 0 0 0 0.17,-0.61a3.53,3.53 0 0 0 0.07,-1.57a4.15,4.15 0 0 0 -0.72,-1.53a3.34,3.34 0 0 0 -1.32,-1a2.75,2.75 0 0 0 -0.78,-0.27a3.16,3.16 0 0 0 -0.91,-0.07a4.61,4.61 0 0 0 -1.56,0.44q-0.47,0.24 -1.32,0.78a10.5,10.5 0 0 0 -3.32,-1.25a6.05,6.05 0 0 0 -3.35,0.31a2,2 0 0 0 -0.37,-0.11a8.21,8.21 0 0 0 -1.9,-0.2q-2.47,0 -3.72,0c-0.84,0 -1.46,0.06 -1.87,0.1a1.63,1.63 0 0 0 -1,0.31a1.5,1.5 0 0 0 -0.61,0.81a0.82,0.82 0 0 0 0,0.58a1,1 0 0 0 0.31,0.47a1.55,1.55 0 0 0 1,0.31a0.73,0.73 0 0 0 0.44,-0.21a0.58,0.58 0 0 0 0.13,-0.1a0.2,0.2 0 0 0 0.14,-0.13a0.58,0.58 0 0 0 0.2,-0.34a0.71,0.71 0 0 0 -0.2,-0.38a0.53,0.53 0 0 0 -0.37,-0.17a0.42,0.42 0 0 0 -0.34,0.17a0.55,0.55 0 0 0 -0.17,0.38a0.38,0.38 0 0 0 0.17,0.34a0.22,0.22 0 0 0 0.17,0.13l-0.17,0a0.73,0.73 0 0 1 -0.78,-0.27a0.54,0.54 0 0 1 -0.14,-0.68a1.24,1.24 0 0 1 0.48,-0.57a1.58,1.58 0 0 1 0.74,-0.21a17.83,17.83 0 0 1 1.83,0c0.81,0 2,0.08 3.69,0.17a5.9,5.9 0 0 1 1.25,0.17a2.16,2.16 0 0 0 -0.37,0.37a3.81,3.81 0 0 0 -0.58,1.08a2.09,2.09 0 0 0 0,0.71a2.08,2.08 0 0 0 0.37,0.68a6,6 0 0 0 0.55,0.41a2.64,2.64 0 0 0 0.57,0.17a2.26,2.26 0 0 0 1.19,0a1.65,1.65 0 0 0 1.05,-0.71a1.59,1.59 0 0 0 0.23,-1.25a2.53,2.53 0 0 0 -0.47,-1l-0.27,-0.27a7,7 0 0 1 2,-0.21a21,21 0 0 1 3.22,0.48l-1.56,1a1.39,1.39 0 0 1 -0.5,0.1a1.27,1.27 0 0 1 -1.12,-0.41a4.88,4.88 0 0 1 -1,-1.08a4.89,4.89 0 0 0 0.64,1.42a2.46,2.46 0 0 0 1.46,0.85a1.71,1.71 0 0 0 0.91,-0.14l0.2,-0.13a0.13,0.13 0 0 0 0,0.1l0,0a1.85,1.85 0 0 0 0.1,0.92a0.32,0.32 0 0 0 0.07,0.2a0.54,0.54 0 0 1 -0.07,0.27a2.6,2.6 0 0 1 -0.68,1.19a1.1,1.1 0 0 1 -0.47,0.37a1.4,1.4 0 0 1 -0.61,0.3a1.75,1.75 0 0 1 -1.46,-0.16a1.72,1.72 0 0 1 -0.57,-0.51a1.09,1.09 0 0 1 -0.14,-0.71a0.84,0.84 0 0 1 0.48,-0.44a1.13,1.13 0 0 1 0.3,0a1.52,1.52 0 0 1 0.31,0a0.81,0.81 0 0 1 0.37,0.23a0.73,0.73 0 0 1 0.13,0.41l-0.13,0.24a0.1,0.1 0 0 0 0,0.13l0.14,-0.07c0.11,0 0.19,-0.08 0.24,-0.23l0.06,-0.27a0.75,0.75 0 0 0 -0.1,-0.34a1.18,1.18 0 0 0 -0.57,-0.51a1.64,1.64 0 0 0 -0.41,-0.07l-0.28,0l-0.2,0.07a1.77,1.77 0 0 0 -0.41,0.24l-0.2,0.2l-0.14,0.27a0.72,0.72 0 0 0 0,0.54a1,1 0 0 0 0.2,0.51a1.53,1.53 0 0 0 0.75,0.71a2.46,2.46 0 0 0 0.95,0.2a2.54,2.54 0 0 0 0.81,-0.13a2.37,2.37 0 0 0 0.68,-0.41a5.15,5.15 0 0 0 0.47,-0.47a2.64,2.64 0 0 0 0.61,-1.29a0.39,0.39 0 0 0 0,-0.17a0.69,0.69 0 0 0 0.23,0.27a2.08,2.08 0 0 0 0.58,0.41a1.94,1.94 0 0 0 0.61,0.24a2.31,2.31 0 0 0 0.64,0.13l0.68,0l0.64,-0.17l0,-0.1l-2.4,-0.51a1.21,1.21 0 0 1 -0.5,-0.24a0.86,0.86 0 0 1 -0.4,-0.4a2.07,2.07 0 0 1 -0.21,-0.58l0,-0.42l1.61,-0.93a5.44,5.44 0 0 1 2.47,-1a2.65,2.65 0 0 1 1.15,0.27m-10.49,0.23a3.35,3.35 0 0 1 0.44,0.41l0.23,0.64a0.57,0.57 0 0 1 -0.13,0.51a0.67,0.67 0 0 1 -0.48,0.27a0.91,0.91 0 0 1 -0.61,0l-0.3,-0.17l-0.17,-0.13a0.39,0.39 0 0 1 -0.07,-0.34a1.09,1.09 0 0 1 0.31,-0.54a2.11,2.11 0 0 1 0.54,-0.51a0.53,0.53 0 0 1 0.24,-0.14m16.32,16.6a1.75,1.75 0 0 1 -1.09,0.84a1.84,1.84 0 0 1 -0.33,0s-0.07,-0.12 -0.14,-0.24l-0.14,-0.23a1.2,1.2 0 0 1 0,-0.65a0.65,0.65 0 0 1 0.24,-0.47a1,1 0 0 1 0.51,-0.14a2.09,2.09 0 0 1 0.68,0.27a1.53,1.53 0 0 1 0.44,0.41a1,1 0 0 1 -0.17,0.24m-0.81,-15.75l1.9,-0.45l0,-1.49l-1.54,0l-0.36,1.94z" fill="#b9aea4" id="svg_15"/>
    </g>
    <g id="Layer0_3_FILL-12" data-name="Layer0 3 FILL">
     <path class="cls-2" d="m61.92791,0.36a1.07,1.07 0 0 0 -0.8,0.35a1.11,1.11 0 0 0 -0.35,0.8a1.51,1.51 0 0 0 0.35,0.85a1.4,1.4 0 0 0 0.85,0.3a1.09,1.09 0 0 0 0.8,-0.3a1,1 0 0 0 0.35,-0.85a1.11,1.11 0 0 0 -0.35,-0.8a1.13,1.13 0 0 0 -0.85,-0.35z" fill="#9f9286" id="svg_16"/>
    </g>
    <g id="Layer0_3_FILL-13" data-name="Layer0 3 FILL">
     <path class="cls-2" d="m56.92791,0.36a1.07,1.07 0 0 0 -0.8,0.35a1.11,1.11 0 0 0 -0.35,0.8a1.51,1.51 0 0 0 0.35,0.85a1.4,1.4 0 0 0 0.85,0.3a1.09,1.09 0 0 0 0.8,-0.3a1,1 0 0 0 0.35,-0.85a1.11,1.11 0 0 0 -0.35,-0.8a1.13,1.13 0 0 0 -0.85,-0.35z" fill="#9f9286" id="svg_17"/>
    </g>
    <g id="Layer0_3_FILL-14" data-name="Layer0 3 FILL">
     <path class="cls-2" d="m51.92791,0.36a1.07,1.07 0 0 0 -0.8,0.35a1.11,1.11 0 0 0 -0.35,0.8a1.51,1.51 0 0 0 0.35,0.85a1.4,1.4 0 0 0 0.85,0.3a1.09,1.09 0 0 0 0.8,-0.3a1,1 0 0 0 0.35,-0.85a1.11,1.11 0 0 0 -0.35,-0.8a1.13,1.13 0 0 0 -0.85,-0.35z" fill="#9f9286" id="svg_18"/>
    </g>
    <g id="Layer0_3_FILL-16" data-name="Layer0 3 FILL">
     <path class="cls-2" d="m96.28791,32.9a1.09,1.09 0 0 0 0.35,0.8a1.11,1.11 0 0 0 0.8,0.35a1.58,1.58 0 0 0 0.85,-0.35a1.4,1.4 0 0 0 0.3,-0.85a1.07,1.07 0 0 0 -0.3,-0.8a0.94,0.94 0 0 0 -0.85,-0.35a1.07,1.07 0 0 0 -0.8,0.35a1.12,1.12 0 0 0 -0.35,0.85z" fill="#9f9286" id="svg_20"/>
    </g>
    <g id="Layer0_3_FILL-17" data-name="Layer0 3 FILL">
     <path class="cls-2" d="m96.28791,37.9a1.09,1.09 0 0 0 0.35,0.8a1.11,1.11 0 0 0 0.8,0.35a1.58,1.58 0 0 0 0.85,-0.35a1.4,1.4 0 0 0 0.3,-0.85a1.07,1.07 0 0 0 -0.3,-0.8a0.94,0.94 0 0 0 -0.85,-0.35a1.07,1.07 0 0 0 -0.8,0.35a1.12,1.12 0 0 0 -0.35,0.85z" fill="#9f9286" id="svg_21"/>
    </g>
    <g id="Layer0_3_FILL-18" data-name="Layer0 3 FILL">
     <path class="cls-2" d="m96.28791,42.9a1.09,1.09 0 0 0 0.35,0.8a1.11,1.11 0 0 0 0.8,0.35a1.58,1.58 0 0 0 0.85,-0.35a1.4,1.4 0 0 0 0.3,-0.85a1.07,1.07 0 0 0 -0.3,-0.8a0.94,0.94 0 0 0 -0.85,-0.35a1.07,1.07 0 0 0 -0.8,0.35a1.12,1.12 0 0 0 -0.35,0.85z" fill="#9f9286" id="svg_22"/>
    </g>
    <g id="Layer0_3_FILL-19" data-name="Layer0 3 FILL">
     <path class="cls-2" d="m96.28791,47.9a1.09,1.09 0 0 0 0.35,0.8a1.11,1.11 0 0 0 0.8,0.35a1.58,1.58 0 0 0 0.85,-0.35a1.4,1.4 0 0 0 0.3,-0.85a1.07,1.07 0 0 0 -0.3,-0.8a0.94,0.94 0 0 0 -0.85,-0.35a1.07,1.07 0 0 0 -0.8,0.35a1.12,1.12 0 0 0 -0.35,0.85z" fill="#9f9286" id="svg_23"/>
    </g>
    <g id="_finalRND_decor_0_Layer0_0_FILL-5" data-name=" finalRND decor 0 Layer0 0 FILL">
     <path class="cls-1" d="m0.32,72.78449l0.82,0l-0.27,-0.2l-0.14,0a0.54,0.54 0 0 0 -0.41,0.2m4,24.25a3.42,3.42 0 0 1 0.34,-0.84l0.07,-0.14a0.51,0.51 0 0 0 0.07,-0.17l-0.14,-0.13a1,1 0 0 0 -0.34,0.16a3,3 0 0 1 -0.78,0.28a3.06,3.06 0 0 1 -1.18,0.16a0.35,0.35 0 0 0 -0.37,0.21a0.3,0.3 0 0 0 0.1,0.4l0,0.07a0.28,0.28 0 0 1 0.14,0.27a0.65,0.65 0 0 0 0.34,0.51l0.13,0.14a0.53,0.53 0 0 0 0.54,0.3a0.29,0.29 0 0 1 0.27,0.17l0.07,0.07a0.36,0.36 0 0 0 0.41,0.07a0.35,0.35 0 0 0 0.24,-0.34a2.58,2.58 0 0 1 0.06,-1.19m3.12,2.17a2.39,2.39 0 0 1 -1,-0.75a3,3 0 0 1 -0.54,-1.11a2.39,2.39 0 0 1 0,-1.22a1.64,1.64 0 0 1 0.74,-0.82a1.32,1.32 0 0 1 1.12,-0.1a1.55,1.55 0 0 1 0.91,0.82a1,1 0 0 1 0,1.15a0.88,0.88 0 0 1 -0.44,0.37a0.77,0.77 0 0 1 -0.61,-0.1a0.57,0.57 0 0 1 -0.31,-0.58a0.52,0.52 0 0 1 0.27,-0.54a0.58,0.58 0 0 0 -0.37,0.54a0.82,0.82 0 0 0 0.27,0.78a0.75,0.75 0 0 0 0.78,0.17a1.11,1.11 0 0 0 0.78,-0.37a1.66,1.66 0 0 0 0.2,-1.66a2.14,2.14 0 0 0 -1.21,-1.22a0.75,0.75 0 0 1 -0.24,-0.1l0,0l1.61,0a3.65,3.65 0 0 0 0.81,0a3,3 0 0 0 0.85,-0.2a3.29,3.29 0 0 0 0.71,-0.57a1.52,1.52 0 0 0 0.34,-0.82a1.55,1.55 0 0 0 0,-1a1.19,1.19 0 0 0 -0.68,-0.74a1.93,1.93 0 0 0 -1,-0.27a1.4,1.4 0 0 0 -0.91,0.3a0.84,0.84 0 0 0 -0.41,0.85a0.63,0.63 0 0 0 0.1,0.34a0.31,0.31 0 0 0 0.31,0.17l0.07,0s0,-0.17 -0.07,-0.37a0.88,0.88 0 0 1 -0.14,-0.34l0,0a0.89,0.89 0 0 1 0.81,-0.48a2,2 0 0 1 1,0.28a1,1 0 0 1 0.51,0.71a1.27,1.27 0 0 1 -0.1,1a1.66,1.66 0 0 1 -1.39,1a2.18,2.18 0 0 1 -0.81,0a11,11 0 0 1 -1.12,-0.14a5.48,5.48 0 0 0 -1.15,0a3.21,3.21 0 0 0 -1.15,0.41a2.4,2.4 0 0 0 0.44,-1.15a5.21,5.21 0 0 0 0,-1.12c0,-0.27 -0.08,-0.67 -0.17,-1.19a2.88,2.88 0 0 1 0,-0.78a1.64,1.64 0 0 1 1,-1.42a2.23,2.23 0 0 1 1,-0.17a1.64,1.64 0 0 1 0.74,0.54a1.5,1.5 0 0 1 0.24,1a0.87,0.87 0 0 1 -0.47,0.85a0.51,0.51 0 0 1 -0.31,-0.13c-0.22,-0.14 -0.37,-0.17 -0.44,-0.11l0,0.07a0.34,0.34 0 0 0 0.17,0.31a0.71,0.71 0 0 0 0.34,0.1a0.93,0.93 0 0 0 0.85,-0.37a1.53,1.53 0 0 0 0.3,-0.92a2,2 0 0 0 -0.24,-1a1.44,1.44 0 0 0 -0.78,-0.71a1.71,1.71 0 0 0 -0.94,-0.07a3.78,3.78 0 0 0 -0.85,0.37a7.57,7.57 0 0 0 -0.54,0.71a3.11,3.11 0 0 0 -0.21,0.85q0,0.14 0,0.81l0,1.59l0,0a1.37,1.37 0 0 0 -0.13,-0.31a2,2 0 0 0 -1.22,-1.15a1.5,1.5 0 0 0 -1.63,0.21a1.55,1.55 0 0 0 -0.41,0.74a0.94,0.94 0 0 0 0.21,0.78a0.71,0.71 0 0 0 0.74,0.3a0.77,0.77 0 0 0 0.65,-0.44a0.68,0.68 0 0 1 -0.65,0.31a0.66,0.66 0 0 1 -0.54,-0.31a0.57,0.57 0 0 1 -0.1,-0.57a0.91,0.91 0 0 1 0.34,-0.51a1.33,1.33 0 0 1 0.61,-0.13a1.12,1.12 0 0 1 0.57,0.13a1.54,1.54 0 0 1 0.82,0.88a1.69,1.69 0 0 1 -0.07,1.15a1.47,1.47 0 0 1 -0.85,0.75a2.15,2.15 0 0 1 -1.18,0.07a2.57,2.57 0 0 1 -1.12,-0.58a2.55,2.55 0 0 1 -0.75,-1a2.56,2.56 0 0 1 -0.3,-1.19a5.93,5.93 0 0 1 1.05,-2.44l0.74,-1.28l0.21,-0.34l0.47,0a0.31,0.31 0 0 1 0.2,0.07a0.78,0.78 0 0 1 0.28,0.13a0.75,0.75 0 0 1 0.4,0.34a2.27,2.27 0 0 1 0.27,0.54a2.18,2.18 0 0 1 0.14,0.54l0.23,1.22a3.92,3.92 0 0 0 0.17,0.61l0,0a3.17,3.17 0 0 0 0.17,-0.68a2.83,2.83 0 0 0 0.07,-0.68a2.13,2.13 0 0 0 -0.07,-0.37l-0.3,-0.64a1.5,1.5 0 0 0 -0.41,-0.58a1.84,1.84 0 0 1 -0.27,-0.23a0.24,0.24 0 0 0 0.17,-0.07a2.74,2.74 0 0 0 1.32,-0.58c0.18,-0.2 0.33,-0.37 0.44,-0.51a2,2 0 0 0 0.37,-0.6a3,3 0 0 0 0.14,-0.85a1.94,1.94 0 0 0 -0.24,-1a1.46,1.46 0 0 0 -0.71,-0.78a1.05,1.05 0 0 0 -0.44,-0.2a0.84,0.84 0 0 0 -0.54,0l-0.27,0.14l-0.17,0.17a0.84,0.84 0 0 0 -0.24,0.44l-0.1,0.44a1,1 0 0 0 0.1,0.44a1.1,1.1 0 0 0 0.48,0.57a0.66,0.66 0 0 0 0.3,0.1a0.41,0.41 0 0 0 0.27,-0.06a0.75,0.75 0 0 0 0.31,-0.27a0.13,0.13 0 0 0 0,-0.14l-0.41,0.2a0.34,0.34 0 0 1 -0.33,-0.13a0.65,0.65 0 0 1 -0.31,-0.41l0,-0.3l0,-0.31a0.86,0.86 0 0 1 0.44,-0.44a0.94,0.94 0 0 1 0.68,0.14a1.16,1.16 0 0 1 0.57,0.54a2,2 0 0 1 0.17,1.49a3.76,3.76 0 0 1 -0.3,0.61l-0.37,0.51a3,3 0 0 1 -1.22,0.67a0.84,0.84 0 0 1 -0.27,0l-0.17,-0.07a1.69,1.69 0 0 0 -0.92,-0.1l0,0a0.11,0.11 0 0 1 -0.07,0l0,0l0.1,-0.17a2,2 0 0 0 0.14,-0.91a2.05,2.05 0 0 0 -0.88,-1.43a3,3 0 0 0 -1.46,-0.55a6.23,6.23 0 0 1 1.12,1a1.71,1.71 0 0 1 0.44,1.12a0.69,0.69 0 0 1 -0.17,0.54a3.76,3.76 0 0 1 -0.3,0.61c-0.29,0.4 -0.52,0.74 -0.68,1a14.82,14.82 0 0 1 -0.51,-3.21a5.93,5.93 0 0 1 0.21,-2a0.54,0.54 0 0 0 0.27,0.24a2.66,2.66 0 0 0 1.05,0.44a1.32,1.32 0 0 0 1.22,-0.2a1.82,1.82 0 0 0 0.74,-1a3.34,3.34 0 0 0 0,-1.22a1.61,1.61 0 0 0 -0.21,-0.54a1.51,1.51 0 0 0 -0.44,-0.51a1.17,1.17 0 0 0 -0.64,-0.37a1.47,1.47 0 0 0 -0.78,0a2.58,2.58 0 0 0 -1,0.57a2.25,2.25 0 0 0 -0.4,0.37c0,-0.33 -0.07,-0.75 -0.14,-1.25l-0.19,-5.72a1.72,1.72 0 0 1 0.17,-0.75a1,1 0 0 1 0.58,-0.47a0.59,0.59 0 0 1 0.71,0.13a1.13,1.13 0 0 1 0.31,0.75a0.43,0.43 0 0 1 -0.07,0.17a1,1 0 0 0 -0.07,-0.17a0.57,0.57 0 0 0 -0.41,-0.17a0.47,0.47 0 0 0 -0.37,0.17a0.48,0.48 0 0 0 -0.17,0.34a0.54,0.54 0 0 0 0.17,0.4a0.51,0.51 0 0 0 0.37,0.14a0.64,0.64 0 0 0 0.41,-0.14a0.32,0.32 0 0 1 0.07,-0.13a0.61,0.61 0 0 0 0.1,-0.14a1.05,1.05 0 0 0 0.2,-0.44a1.4,1.4 0 0 0 -0.3,-1a1.29,1.29 0 0 0 -0.48,-0.34a1.57,1.57 0 0 0 -0.61,0a1.41,1.41 0 0 0 -0.74,0.65a1.62,1.62 0 0 0 -0.34,1c0,0.83 -0.07,1.45 -0.07,1.86l0,3.73a8,8 0 0 0 0.24,1.93a1.32,1.32 0 0 0 0.1,0.3a6.68,6.68 0 0 0 -0.3,3.39a13.12,13.12 0 0 0 1.18,3.28l0,0a8,8 0 0 0 -0.71,1.32a3.85,3.85 0 0 0 -0.44,1.55a3.35,3.35 0 0 0 0.07,0.88a1.9,1.9 0 0 0 0.27,0.78a3.92,3.92 0 0 0 1.05,1.29a3.25,3.25 0 0 0 1.56,0.75a2.91,2.91 0 0 0 1.62,-0.06a0.7,0.7 0 0 0 0.58,-0.14a1,1 0 0 0 -0.17,0.61a3.57,3.57 0 0 0 -0.1,1.63a4,4 0 0 0 0.71,1.52a3.37,3.37 0 0 0 1.32,1a3.55,3.55 0 0 0 0.78,0.27a3.16,3.16 0 0 0 0.91,0.07a4.85,4.85 0 0 0 1.56,-0.44a15.3,15.3 0 0 0 1.32,-0.78a10.48,10.48 0 0 0 3.32,1.18a6,6 0 0 0 3.35,-0.3a1.56,1.56 0 0 0 0.37,0.1a7.75,7.75 0 0 0 1.9,0.2c1.65,0 2.89,0 3.73,0s1.45,0 1.86,-0.1a1.69,1.69 0 0 0 1,-0.3a1.52,1.52 0 0 0 0.61,-0.81a0.82,0.82 0 0 0 0,-0.58a1.06,1.06 0 0 0 -0.3,-0.47a1.58,1.58 0 0 0 -1,-0.31a0.75,0.75 0 0 0 -0.44,0.2a0.88,0.88 0 0 0 -0.13,0.11a0.2,0.2 0 0 0 -0.14,0.13a0.52,0.52 0 0 0 -0.2,0.34a0.65,0.65 0 0 0 0.2,0.37a0.51,0.51 0 0 0 0.38,0.17a0.39,0.39 0 0 0 0.33,-0.17a0.48,0.48 0 0 0 0.17,-0.37a0.35,0.35 0 0 0 -0.17,-0.34a0.2,0.2 0 0 0 -0.17,-0.13l0.17,0a0.73,0.73 0 0 1 0.78,0.27a0.52,0.52 0 0 1 0.14,0.67a1.27,1.27 0 0 1 -0.48,0.58a1.5,1.5 0 0 1 -0.77,0.2a17.14,17.14 0 0 1 -1.83,0c-0.82,0 -2.05,-0.08 -3.69,-0.17a5.91,5.91 0 0 1 -1.26,-0.17a2.59,2.59 0 0 0 0.37,-0.37a3.31,3.31 0 0 0 0.58,-1.09a1.67,1.67 0 0 0 0,-0.71a2,2 0 0 0 -0.37,-0.67a3.85,3.85 0 0 0 -0.54,-0.41a2.4,2.4 0 0 0 -0.58,-0.17a2.34,2.34 0 0 0 -1.18,0a1.68,1.68 0 0 0 -1.05,0.71a1.61,1.61 0 0 0 -0.24,1.26a2.79,2.79 0 0 0 0.47,1l0.27,0.27a7,7 0 0 1 -2,0.2a19.82,19.82 0 0 1 -3.22,-0.47l1.63,-1a1.4,1.4 0 0 1 0.51,-0.1a1.28,1.28 0 0 1 1.12,0.4a5.51,5.51 0 0 1 0.9,1.11a5.1,5.1 0 0 0 -0.65,-1.43a2.51,2.51 0 0 0 -1.45,-0.84a1.73,1.73 0 0 0 -0.92,0.13l-0.2,0.14a0.15,0.15 0 0 0 0,-0.1l0,0a1.7,1.7 0 0 0 -0.1,-0.91a0.31,0.31 0 0 0 -0.07,-0.2a0.72,0.72 0 0 1 0.07,-0.28a2.57,2.57 0 0 1 0.68,-1.18a1.1,1.1 0 0 1 0.47,-0.37a1.53,1.53 0 0 1 0.61,-0.31a1.75,1.75 0 0 1 1.46,0.17a1.48,1.48 0 0 1 0.58,0.51a1.08,1.08 0 0 1 0.13,0.71a0.85,0.85 0 0 1 -0.47,0.44l-0.31,0l-0.3,0a0.75,0.75 0 0 1 -0.38,-0.24a0.7,0.7 0 0 1 -0.13,-0.4s0.07,-0.13 0.13,-0.24a0.12,0.12 0 0 0 0,-0.14l-0.14,0.07c-0.11,0 -0.19,0.08 -0.23,0.24l-0.07,0.27a0.78,0.78 0 0 0 0.1,0.34a1.37,1.37 0 0 0 0.58,0.51a2,2 0 0 0 0.4,0.06l0.27,0l0.21,-0.06a2,2 0 0 0 0.4,-0.24l0.21,-0.2l0.13,-0.27a0.75,0.75 0 0 0 0,-0.55a1,1 0 0 0 -0.2,-0.5a1.55,1.55 0 0 0 -0.75,-0.72a2.66,2.66 0 0 0 -1,-0.2a2.56,2.56 0 0 0 -0.81,0.14a2.77,2.77 0 0 0 -0.68,0.4a5.46,5.46 0 0 0 -0.47,0.48a2.57,2.57 0 0 0 -0.61,1.28a0.47,0.47 0 0 0 0,0.17a1.05,1.05 0 0 0 -0.24,-0.27a2.06,2.06 0 0 0 -0.58,-0.4a1.56,1.56 0 0 0 -0.61,-0.24a2.19,2.19 0 0 0 -0.64,-0.14l-0.68,0l-0.64,0.17l0,0.1l2.4,0.51a1.13,1.13 0 0 1 0.48,0.23a1,1 0 0 1 0.41,0.41a2.07,2.07 0 0 1 0.2,0.58l0,0.47l-1.63,0.88a5.4,5.4 0 0 1 -2.47,1a2.69,2.69 0 0 1 -1.15,-0.27m10.5,-0.24a2.38,2.38 0 0 1 -0.44,-0.4c-0.05,-0.12 -0.13,-0.33 -0.24,-0.65s0,-0.42 0.14,-0.51a0.72,0.72 0 0 1 0.47,-0.27a1.06,1.06 0 0 1 0.61,0l0.3,0.17l0.32,0.19a0.39,0.39 0 0 1 0.07,0.34a1.06,1.06 0 0 1 -0.3,0.54a2.35,2.35 0 0 1 -0.55,0.51a0.48,0.48 0 0 1 -0.23,0.13m-16.35,-16.59a1.77,1.77 0 0 1 1.09,-0.85a1.37,1.37 0 0 1 0.34,0a2.41,2.41 0 0 0 0.13,0.23l0.14,0.24a1,1 0 0 1 0,0.64a0.59,0.59 0 0 1 -0.24,0.48a1,1 0 0 1 -0.51,0.13a1.93,1.93 0 0 1 -0.67,-0.27a1.37,1.37 0 0 1 -0.44,-0.4a1,1 0 0 1 0.16,-0.24m0.82,15.75l-1.87,0.37l0,1.49l1.53,0l0.34,-1.86z" fill="#b9aea4" id="svg_25"/>
    </g>
    <g id="Layer0_3_FILL-21" data-name="Layer0 3 FILL">
     <path class="cls-2" d="m32,100.13449a1.11,1.11 0 0 0 0.8,-0.35a1.09,1.09 0 0 0 0.35,-0.8a1.45,1.45 0 0 0 -0.35,-0.85a1.38,1.38 0 0 0 -0.85,-0.3a1.09,1.09 0 0 0 -0.8,0.3a1,1 0 0 0 -0.35,0.85a1.13,1.13 0 0 0 0.35,0.8a1.19,1.19 0 0 0 0.85,0.35z" fill="#9f9286" id="svg_26"/>
    </g>
    <g id="_finalRND_decor_0_Layer0_0_FILL-6" data-name=" finalRND decor 0 Layer0 0 FILL">
     <path class="cls-1" d="m0.32,72.78449l0.82,0l-0.27,-0.2l-0.14,0a0.54,0.54 0 0 0 -0.41,0.2m4,24.25a3.42,3.42 0 0 1 0.34,-0.84l0.07,-0.14a0.51,0.51 0 0 0 0.07,-0.17l-0.14,-0.13a1,1 0 0 0 -0.34,0.16a3,3 0 0 1 -0.78,0.28a3.06,3.06 0 0 1 -1.18,0.16a0.35,0.35 0 0 0 -0.37,0.21a0.3,0.3 0 0 0 0.1,0.4l0,0.07a0.28,0.28 0 0 1 0.14,0.27a0.65,0.65 0 0 0 0.34,0.51l0.13,0.14a0.53,0.53 0 0 0 0.54,0.3a0.29,0.29 0 0 1 0.27,0.17l0.07,0.07a0.36,0.36 0 0 0 0.41,0.07a0.35,0.35 0 0 0 0.24,-0.34a2.58,2.58 0 0 1 0.06,-1.19m3.12,2.17a2.39,2.39 0 0 1 -1,-0.75a3,3 0 0 1 -0.54,-1.11a2.39,2.39 0 0 1 0,-1.22a1.64,1.64 0 0 1 0.74,-0.82a1.32,1.32 0 0 1 1.12,-0.1a1.55,1.55 0 0 1 0.91,0.82a1,1 0 0 1 0,1.15a0.88,0.88 0 0 1 -0.44,0.37a0.77,0.77 0 0 1 -0.61,-0.1a0.57,0.57 0 0 1 -0.31,-0.58a0.52,0.52 0 0 1 0.27,-0.54a0.58,0.58 0 0 0 -0.37,0.54a0.82,0.82 0 0 0 0.27,0.78a0.75,0.75 0 0 0 0.78,0.17a1.11,1.11 0 0 0 0.78,-0.37a1.66,1.66 0 0 0 0.2,-1.66a2.14,2.14 0 0 0 -1.21,-1.22a0.75,0.75 0 0 1 -0.24,-0.1l0,0l1.61,0a3.65,3.65 0 0 0 0.81,0a3,3 0 0 0 0.85,-0.2a3.29,3.29 0 0 0 0.71,-0.57a1.52,1.52 0 0 0 0.34,-0.82a1.55,1.55 0 0 0 0,-1a1.19,1.19 0 0 0 -0.68,-0.74a1.93,1.93 0 0 0 -1,-0.27a1.4,1.4 0 0 0 -0.91,0.3a0.84,0.84 0 0 0 -0.41,0.85a0.63,0.63 0 0 0 0.1,0.34a0.31,0.31 0 0 0 0.31,0.17l0.07,0s0,-0.17 -0.07,-0.37a0.88,0.88 0 0 1 -0.14,-0.34l0,0a0.89,0.89 0 0 1 0.81,-0.48a2,2 0 0 1 1,0.28a1,1 0 0 1 0.51,0.71a1.27,1.27 0 0 1 -0.1,1a1.66,1.66 0 0 1 -1.39,1a2.18,2.18 0 0 1 -0.81,0a11,11 0 0 1 -1.12,-0.14a5.48,5.48 0 0 0 -1.15,0a3.21,3.21 0 0 0 -1.15,0.41a2.4,2.4 0 0 0 0.44,-1.15a5.21,5.21 0 0 0 0,-1.12c0,-0.27 -0.08,-0.67 -0.17,-1.19a2.88,2.88 0 0 1 0,-0.78a1.64,1.64 0 0 1 1,-1.42a2.23,2.23 0 0 1 1,-0.17a1.64,1.64 0 0 1 0.74,0.54a1.5,1.5 0 0 1 0.24,1a0.87,0.87 0 0 1 -0.47,0.85a0.51,0.51 0 0 1 -0.31,-0.13c-0.22,-0.14 -0.37,-0.17 -0.44,-0.11l0,0.07a0.34,0.34 0 0 0 0.17,0.31a0.71,0.71 0 0 0 0.34,0.1a0.93,0.93 0 0 0 0.85,-0.37a1.53,1.53 0 0 0 0.3,-0.92a2,2 0 0 0 -0.24,-1a1.44,1.44 0 0 0 -0.78,-0.71a1.71,1.71 0 0 0 -0.94,-0.07a3.78,3.78 0 0 0 -0.85,0.37a7.57,7.57 0 0 0 -0.54,0.71a3.11,3.11 0 0 0 -0.21,0.85q0,0.14 0,0.81l0,1.59l0,0a1.37,1.37 0 0 0 -0.13,-0.31a2,2 0 0 0 -1.22,-1.15a1.5,1.5 0 0 0 -1.63,0.21a1.55,1.55 0 0 0 -0.41,0.74a0.94,0.94 0 0 0 0.21,0.78a0.71,0.71 0 0 0 0.74,0.3a0.77,0.77 0 0 0 0.65,-0.44a0.68,0.68 0 0 1 -0.65,0.31a0.66,0.66 0 0 1 -0.54,-0.31a0.57,0.57 0 0 1 -0.1,-0.57a0.91,0.91 0 0 1 0.34,-0.51a1.33,1.33 0 0 1 0.61,-0.13a1.12,1.12 0 0 1 0.57,0.13a1.54,1.54 0 0 1 0.82,0.88a1.69,1.69 0 0 1 -0.07,1.15a1.47,1.47 0 0 1 -0.85,0.75a2.15,2.15 0 0 1 -1.18,0.07a2.57,2.57 0 0 1 -1.12,-0.58a2.55,2.55 0 0 1 -0.75,-1a2.56,2.56 0 0 1 -0.3,-1.19a5.93,5.93 0 0 1 1.05,-2.44l0.74,-1.28l0.21,-0.34l0.47,0a0.31,0.31 0 0 1 0.2,0.07a0.78,0.78 0 0 1 0.28,0.13a0.75,0.75 0 0 1 0.4,0.34a2.27,2.27 0 0 1 0.27,0.54a2.18,2.18 0 0 1 0.14,0.54l0.23,1.22a3.92,3.92 0 0 0 0.17,0.61l0,0a3.17,3.17 0 0 0 0.17,-0.68a2.83,2.83 0 0 0 0.07,-0.68a2.13,2.13 0 0 0 -0.07,-0.37l-0.3,-0.64a1.5,1.5 0 0 0 -0.41,-0.58a1.84,1.84 0 0 1 -0.27,-0.23a0.24,0.24 0 0 0 0.17,-0.07a2.74,2.74 0 0 0 1.32,-0.58c0.18,-0.2 0.33,-0.37 0.44,-0.51a2,2 0 0 0 0.37,-0.6a3,3 0 0 0 0.14,-0.85a1.94,1.94 0 0 0 -0.24,-1a1.46,1.46 0 0 0 -0.71,-0.78a1.05,1.05 0 0 0 -0.44,-0.2a0.84,0.84 0 0 0 -0.54,0l-0.27,0.14l-0.17,0.17a0.84,0.84 0 0 0 -0.24,0.44l-0.1,0.44a1,1 0 0 0 0.1,0.44a1.1,1.1 0 0 0 0.48,0.57a0.66,0.66 0 0 0 0.3,0.1a0.41,0.41 0 0 0 0.27,-0.06a0.75,0.75 0 0 0 0.31,-0.27a0.13,0.13 0 0 0 0,-0.14l-0.41,0.2a0.34,0.34 0 0 1 -0.33,-0.13a0.65,0.65 0 0 1 -0.31,-0.41l0,-0.3l0,-0.31a0.86,0.86 0 0 1 0.44,-0.44a0.94,0.94 0 0 1 0.68,0.14a1.16,1.16 0 0 1 0.57,0.54a2,2 0 0 1 0.17,1.49a3.76,3.76 0 0 1 -0.3,0.61l-0.37,0.51a3,3 0 0 1 -1.22,0.67a0.84,0.84 0 0 1 -0.27,0l-0.17,-0.07a1.69,1.69 0 0 0 -0.92,-0.1l0,0a0.11,0.11 0 0 1 -0.07,0l0,0l0.1,-0.17a2,2 0 0 0 0.14,-0.91a2.05,2.05 0 0 0 -0.88,-1.43a3,3 0 0 0 -1.46,-0.55a6.23,6.23 0 0 1 1.12,1a1.71,1.71 0 0 1 0.44,1.12a0.69,0.69 0 0 1 -0.17,0.54a3.76,3.76 0 0 1 -0.3,0.61c-0.29,0.4 -0.52,0.74 -0.68,1a14.82,14.82 0 0 1 -0.51,-3.21a5.93,5.93 0 0 1 0.21,-2a0.54,0.54 0 0 0 0.27,0.24a2.66,2.66 0 0 0 1.05,0.44a1.32,1.32 0 0 0 1.22,-0.2a1.82,1.82 0 0 0 0.74,-1a3.34,3.34 0 0 0 0,-1.22a1.61,1.61 0 0 0 -0.21,-0.54a1.51,1.51 0 0 0 -0.44,-0.51a1.17,1.17 0 0 0 -0.64,-0.37a1.47,1.47 0 0 0 -0.78,0a2.58,2.58 0 0 0 -1,0.57a2.25,2.25 0 0 0 -0.4,0.37c0,-0.33 -0.07,-0.75 -0.14,-1.25l-0.19,-5.72a1.72,1.72 0 0 1 0.17,-0.75a1,1 0 0 1 0.58,-0.47a0.59,0.59 0 0 1 0.71,0.13a1.13,1.13 0 0 1 0.31,0.75a0.43,0.43 0 0 1 -0.07,0.17a1,1 0 0 0 -0.07,-0.17a0.57,0.57 0 0 0 -0.41,-0.17a0.47,0.47 0 0 0 -0.37,0.17a0.48,0.48 0 0 0 -0.17,0.34a0.54,0.54 0 0 0 0.17,0.4a0.51,0.51 0 0 0 0.37,0.14a0.64,0.64 0 0 0 0.41,-0.14a0.32,0.32 0 0 1 0.07,-0.13a0.61,0.61 0 0 0 0.1,-0.14a1.05,1.05 0 0 0 0.2,-0.44a1.4,1.4 0 0 0 -0.3,-1a1.29,1.29 0 0 0 -0.48,-0.34a1.57,1.57 0 0 0 -0.61,0a1.41,1.41 0 0 0 -0.74,0.65c-0.23,0.31 0.74,-1 0.74,-0.65c0,0.84 -1.15,3.08 -1.15,3.49l0,3.73a8,8 0 0 0 0.24,1.93a1.32,1.32 0 0 0 0.1,0.3a6.68,6.68 0 0 0 -0.3,3.39a13.12,13.12 0 0 0 1.18,3.28l0,0a8,8 0 0 0 -0.71,1.32a3.85,3.85 0 0 0 -0.44,1.55a3.35,3.35 0 0 0 0.07,0.88a1.9,1.9 0 0 0 0.27,0.78a3.92,3.92 0 0 0 1.05,1.29a3.25,3.25 0 0 0 1.56,0.75a2.91,2.91 0 0 0 1.62,-0.04a0.7,0.7 0 0 0 0.58,-0.14a1,1 0 0 0 -0.17,0.61a3.57,3.57 0 0 0 -0.1,1.63a4,4 0 0 0 0.71,1.52a3.37,3.37 0 0 0 1.32,1a3.55,3.55 0 0 0 0.78,0.27a3.16,3.16 0 0 0 0.91,0.07a4.85,4.85 0 0 0 1.56,-0.44a15.3,15.3 0 0 0 1.32,-0.78a10.48,10.48 0 0 0 3.32,1.18a6,6 0 0 0 3.35,-0.3a1.56,1.56 0 0 0 0.37,0.1a7.75,7.75 0 0 0 1.9,0.2c1.65,0 2.89,0 3.73,0s1.45,0 1.86,-0.1a1.69,1.69 0 0 0 1,-0.3a1.52,1.52 0 0 0 0.61,-0.81a0.82,0.82 0 0 0 0,-0.58a1.06,1.06 0 0 0 -0.3,-0.47a1.58,1.58 0 0 0 -1,-0.31a0.75,0.75 0 0 0 -0.44,0.2a0.88,0.88 0 0 0 -0.13,0.11a0.2,0.2 0 0 0 -0.14,0.13a0.52,0.52 0 0 0 -0.2,0.34a0.65,0.65 0 0 0 0.2,0.37a0.51,0.51 0 0 0 0.38,0.17a0.39,0.39 0 0 0 0.33,-0.17a0.48,0.48 0 0 0 0.17,-0.37a0.35,0.35 0 0 0 -0.17,-0.34a0.2,0.2 0 0 0 -0.17,-0.13l0.17,0a0.73,0.73 0 0 1 0.78,0.27a0.52,0.52 0 0 1 0.14,0.67a1.27,1.27 0 0 1 -0.48,0.58a1.5,1.5 0 0 1 -0.77,0.2a17.14,17.14 0 0 1 -1.83,0c-0.82,0 -2.05,-0.08 -3.69,-0.17a5.91,5.91 0 0 1 -1.26,-0.17a2.59,2.59 0 0 0 0.37,-0.37a3.31,3.31 0 0 0 0.58,-1.09a1.67,1.67 0 0 0 0,-0.71a2,2 0 0 0 -0.37,-0.67a3.85,3.85 0 0 0 -0.54,-0.41a2.4,2.4 0 0 0 -0.58,-0.17a2.34,2.34 0 0 0 -1.18,0a1.68,1.68 0 0 0 -1.05,0.71a1.61,1.61 0 0 0 -0.24,1.26a2.79,2.79 0 0 0 0.47,1l0.27,0.27a7,7 0 0 1 -2,0.2a19.82,19.82 0 0 1 -3.22,-0.47l1.63,-1a1.4,1.4 0 0 1 0.51,-0.1a1.28,1.28 0 0 1 1.12,0.4a5.51,5.51 0 0 1 0.9,1.11a5.1,5.1 0 0 0 -0.65,-1.43a2.51,2.51 0 0 0 -1.45,-0.84a1.73,1.73 0 0 0 -0.92,0.13l-0.2,0.14a0.15,0.15 0 0 0 0,-0.1l0,0a1.7,1.7 0 0 0 -0.1,-0.91a0.31,0.31 0 0 0 -0.07,-0.2a0.72,0.72 0 0 1 0.07,-0.28a2.57,2.57 0 0 1 0.68,-1.18a1.1,1.1 0 0 1 0.47,-0.37a1.53,1.53 0 0 1 0.61,-0.31a1.75,1.75 0 0 1 1.46,0.17a1.48,1.48 0 0 1 0.58,0.51a1.08,1.08 0 0 1 0.13,0.71a0.85,0.85 0 0 1 -0.47,0.44l-0.31,0l-0.3,0a0.75,0.75 0 0 1 -0.38,-0.24a0.7,0.7 0 0 1 -0.13,-0.4s0.07,-0.13 0.13,-0.24a0.12,0.12 0 0 0 0,-0.14l-0.14,0.07c-0.11,0 -0.19,0.08 -0.23,0.24l-0.07,0.27a0.78,0.78 0 0 0 0.1,0.34a1.37,1.37 0 0 0 0.58,0.51a2,2 0 0 0 0.4,0.06l0.27,0l0.21,-0.06a2,2 0 0 0 0.4,-0.24l0.21,-0.2l0.13,-0.27a0.75,0.75 0 0 0 0,-0.55a1,1 0 0 0 -0.2,-0.5a1.55,1.55 0 0 0 -0.75,-0.72a2.66,2.66 0 0 0 -1,-0.2a2.56,2.56 0 0 0 -0.81,0.14a2.77,2.77 0 0 0 -0.68,0.4a5.46,5.46 0 0 0 -0.47,0.48a2.57,2.57 0 0 0 -0.61,1.28a0.47,0.47 0 0 0 0,0.17a1.05,1.05 0 0 0 -0.24,-0.27a2.06,2.06 0 0 0 -0.58,-0.4a1.56,1.56 0 0 0 -0.61,-0.24a2.19,2.19 0 0 0 -0.64,-0.14l-0.68,0l-0.64,0.17l0,0.1l2.4,0.51a1.13,1.13 0 0 1 0.48,0.23a1,1 0 0 1 0.41,0.41a2.07,2.07 0 0 1 0.2,0.58l0,0.47l-1.63,0.88a5.4,5.4 0 0 1 -2.47,1a2.69,2.69 0 0 1 -1.15,-0.27m10.5,-0.24a2.38,2.38 0 0 1 -0.44,-0.4c-0.05,-0.12 -0.13,-0.33 -0.24,-0.65s0,-0.42 0.14,-0.51a0.72,0.72 0 0 1 0.47,-0.27a1.06,1.06 0 0 1 0.61,0l0.3,0.17l0.32,0.19a0.39,0.39 0 0 1 0.07,0.34a1.06,1.06 0 0 1 -0.3,0.54a2.35,2.35 0 0 1 -0.55,0.51a0.48,0.48 0 0 1 -0.23,0.13m-16.35,-16.59a1.77,1.77 0 0 1 1.09,-0.85a1.37,1.37 0 0 1 0.34,0a2.41,2.41 0 0 0 0.13,0.23l0.14,0.24a1,1 0 0 1 0,0.64a0.59,0.59 0 0 1 -0.24,0.48a1,1 0 0 1 -0.51,0.13a1.93,1.93 0 0 1 -0.67,-0.27a1.37,1.37 0 0 1 -0.44,-0.4a1,1 0 0 1 0.16,-0.24m0.82,15.75l-1.87,0.37l0,1.49l1.53,0l0.34,-1.86z" fill="#b9aea4" id="svg_27"/>
    </g>
    <g id="Layer0_3_FILL-22" data-name="Layer0 3 FILL">
     <path class="cls-2" d="m37,100.13449a1.11,1.11 0 0 0 0.8,-0.35a1.09,1.09 0 0 0 0.35,-0.8a1.45,1.45 0 0 0 -0.35,-0.85a1.38,1.38 0 0 0 -0.85,-0.3a1.09,1.09 0 0 0 -0.8,0.3a1,1 0 0 0 -0.35,0.85a1.13,1.13 0 0 0 0.35,0.8a1.19,1.19 0 0 0 0.85,0.35z" fill="#9f9286" id="svg_28"/>
    </g>
    <g id="Layer0_3_FILL-23" data-name="Layer0 3 FILL">
     <path class="cls-2" d="m42,100.13449a1.11,1.11 0 0 0 0.8,-0.35a1.09,1.09 0 0 0 0.35,-0.8a1.45,1.45 0 0 0 -0.35,-0.85a1.38,1.38 0 0 0 -0.85,-0.3a1.09,1.09 0 0 0 -0.8,0.3a1,1 0 0 0 -0.35,0.85a1.13,1.13 0 0 0 0.35,0.8a1.19,1.19 0 0 0 0.85,0.35z" fill="#9f9286" id="svg_29"/>
    </g>
    <g id="Layer0_3_FILL-24" data-name="Layer0 3 FILL">
     <path class="cls-2" d="m47,100.13449a1.11,1.11 0 0 0 0.8,-0.35a1.09,1.09 0 0 0 0.35,-0.8a1.45,1.45 0 0 0 -0.35,-0.85a1.38,1.38 0 0 0 -0.85,-0.3a1.09,1.09 0 0 0 -0.8,0.3a1,1 0 0 0 -0.35,0.85a1.13,1.13 0 0 0 0.35,0.8a1.19,1.19 0 0 0 0.85,0.35z" fill="#9f9286" id="svg_30"/>
    </g>
    <g id="Layer0_3_FILL-26" data-name="Layer0 3 FILL">
     <path class="cls-2" d="m2.63,67.59449a1.11,1.11 0 0 0 -0.35,-0.8a1.13,1.13 0 0 0 -0.8,-0.35a1.45,1.45 0 0 0 -0.85,0.35a1.4,1.4 0 0 0 -0.3,0.85a1.09,1.09 0 0 0 0.3,0.8a0.94,0.94 0 0 0 0.85,0.35a1.13,1.13 0 0 0 0.8,-0.35a1.17,1.17 0 0 0 0.35,-0.85z" fill="#9f9286" id="svg_32"/>
    </g>
    <g id="Layer0_3_FILL-27" data-name="Layer0 3 FILL">
     <path class="cls-2" d="m2.63,62.59449a1.11,1.11 0 0 0 -0.35,-0.8a1.13,1.13 0 0 0 -0.8,-0.35a1.45,1.45 0 0 0 -0.85,0.35a1.4,1.4 0 0 0 -0.3,0.85a1.09,1.09 0 0 0 0.3,0.8a0.94,0.94 0 0 0 0.85,0.35a1.13,1.13 0 0 0 0.8,-0.35a1.17,1.17 0 0 0 0.35,-0.85z" fill="#9f9286" id="svg_33"/>
    </g>
    <g id="Layer0_3_FILL-28" data-name="Layer0 3 FILL">
     <path class="cls-2" d="m2.63,57.59449a1.11,1.11 0 0 0 -0.35,-0.8a1.13,1.13 0 0 0 -0.8,-0.35a1.45,1.45 0 0 0 -0.85,0.35a1.4,1.4 0 0 0 -0.3,0.85a1.09,1.09 0 0 0 0.3,0.8a0.94,0.94 0 0 0 0.85,0.35a1.13,1.13 0 0 0 0.8,-0.35a1.17,1.17 0 0 0 0.35,-0.85z" fill="#9f9286" id="svg_34"/>
    </g>
    <g id="Layer0_3_FILL-29" data-name="Layer0 3 FILL">
     <path class="cls-2" d="m2.63,52.59449a1.11,1.11 0 0 0 -0.35,-0.8a1.13,1.13 0 0 0 -0.8,-0.35a1.45,1.45 0 0 0 -0.85,0.35a1.4,1.4 0 0 0 -0.3,0.85a1.09,1.09 0 0 0 0.3,0.8a0.94,0.94 0 0 0 0.85,0.35a1.13,1.13 0 0 0 0.8,-0.35a1.17,1.17 0 0 0 0.35,-0.85z" fill="#9f9286" id="svg_35"/>
    </g>
    <g id="_finalRND_decor_0_Layer0_0_FILL-7" data-name=" finalRND decor 0 Layer0 0 FILL">
     <path class="cls-1" d="m98.58791,72.78449a0.53,0.53 0 0 0 -0.41,-0.2l-0.13,0l-0.27,0.2l0.81,0m-4,24.25a2.71,2.71 0 0 1 0.07,1.19a0.35,0.35 0 0 0 0.23,0.34a0.36,0.36 0 0 0 0.41,-0.07l0.07,-0.07a0.32,0.32 0 0 1 0.27,-0.17a0.53,0.53 0 0 0 0.54,-0.3l0.14,-0.14a0.64,0.64 0 0 0 0.33,-0.51a0.28,0.28 0 0 1 0.14,-0.27l0,-0.07a0.32,0.32 0 0 0 0.11,-0.4a0.36,0.36 0 0 0 -0.38,-0.21a3.06,3.06 0 0 1 -1.18,-0.16a3,3 0 0 1 -0.78,-0.28a1,1 0 0 0 -0.34,-0.16l-0.14,0.13a1,1 0 0 0 0.07,0.17l0.07,0.14a3.42,3.42 0 0 1 0.34,0.84m-3.12,2.17a2.65,2.65 0 0 1 -1.15,0.27a5.44,5.44 0 0 1 -2.47,-1l-1.63,-0.88l0,-0.47a2.07,2.07 0 0 1 0.21,-0.58a0.88,0.88 0 0 1 0.4,-0.41a1.19,1.19 0 0 1 0.48,-0.23l2.4,-0.51l0,-0.1l-0.64,-0.17l-0.68,0a2.27,2.27 0 0 0 -0.64,0.14a1.56,1.56 0 0 0 -0.61,0.24a2.06,2.06 0 0 0 -0.58,0.4a0.87,0.87 0 0 0 -0.23,0.27a0.47,0.47 0 0 0 0,-0.17a2.57,2.57 0 0 0 -0.61,-1.28a5.46,5.46 0 0 0 -0.47,-0.48a2.6,2.6 0 0 0 -0.68,-0.4a2.56,2.56 0 0 0 -0.81,-0.14a2.66,2.66 0 0 0 -0.95,0.2a1.55,1.55 0 0 0 -0.75,0.72a1,1 0 0 0 -0.2,0.5a0.75,0.75 0 0 0 0,0.55l0.14,0.27l0.2,0.2a2.25,2.25 0 0 0 0.41,0.24l0.2,0.06l0.27,0a2.1,2.1 0 0 0 0.41,-0.06a1.29,1.29 0 0 0 0.57,-0.51a0.78,0.78 0 0 0 0.1,-0.34l-0.06,-0.27q-0.08,-0.24 -0.24,-0.24l-0.14,-0.07a0.12,0.12 0 0 0 0,0.14a1.55,1.55 0 0 1 0.13,0.24a0.7,0.7 0 0 1 -0.13,0.4a0.77,0.77 0 0 1 -0.37,0.24l-0.31,0l-0.3,0a0.84,0.84 0 0 1 -0.48,-0.44a1.09,1.09 0 0 1 0.14,-0.71a1.53,1.53 0 0 1 0.57,-0.51a1.76,1.76 0 0 1 1.46,-0.17a1.53,1.53 0 0 1 0.61,0.31a1.1,1.1 0 0 1 0.47,0.37a2.57,2.57 0 0 1 0.68,1.18a0.58,0.58 0 0 1 0.07,0.28a0.31,0.31 0 0 0 -0.07,0.2a1.81,1.81 0 0 0 -0.1,0.91l0,0a0.15,0.15 0 0 0 0,0.1l-0.2,-0.14a1.7,1.7 0 0 0 -0.91,-0.13a2.5,2.5 0 0 0 -1.46,0.84a5.07,5.07 0 0 0 -0.64,1.43a5.22,5.22 0 0 1 1,-1.09a1.26,1.26 0 0 1 1.12,-0.4a1.39,1.39 0 0 1 0.5,0.1l1.63,1a19.67,19.67 0 0 1 -3.22,0.47a7.06,7.06 0 0 1 -2,-0.2l0.27,-0.27a2.65,2.65 0 0 0 0.47,-1a1.61,1.61 0 0 0 -0.23,-1.26a1.68,1.68 0 0 0 -1.05,-0.71a2.38,2.38 0 0 0 -1.19,0a2.17,2.17 0 0 0 -0.57,0.17a4.6,4.6 0 0 0 -0.55,0.41a2,2 0 0 0 -0.37,0.67a2.08,2.08 0 0 0 0,0.71a3.73,3.73 0 0 0 0.58,1.09a2.59,2.59 0 0 0 0.37,0.37a5.9,5.9 0 0 1 -1.25,0.17c-1.65,0.09 -2.88,0.15 -3.69,0.17a17.18,17.18 0 0 1 -1.83,0a1.56,1.56 0 0 1 -0.78,-0.2a1.27,1.27 0 0 1 -0.48,-0.58a0.53,0.53 0 0 1 0.14,-0.67a0.73,0.73 0 0 1 0.78,-0.27l0.17,0a0.2,0.2 0 0 0 -0.17,0.13a0.37,0.37 0 0 0 -0.17,0.34a0.51,0.51 0 0 0 0.17,0.37a0.4,0.4 0 0 0 0.34,0.17a0.49,0.49 0 0 0 0.37,-0.17a0.65,0.65 0 0 0 0.2,-0.37a0.52,0.52 0 0 0 -0.2,-0.34a0.19,0.19 0 0 0 -0.14,-0.13a0.54,0.54 0 0 0 -0.13,-0.11a0.72,0.72 0 0 0 -0.44,-0.2a1.55,1.55 0 0 0 -1,0.31a1,1 0 0 0 -0.31,0.47a0.82,0.82 0 0 0 0,0.58a1.57,1.57 0 0 0 0.61,0.81a1.69,1.69 0 0 0 1,0.3c0.41,0 1,0.08 1.87,0.1s2.07,0 3.72,0a7.69,7.69 0 0 0 1.9,-0.2a1.44,1.44 0 0 0 0.37,-0.1a6,6 0 0 0 3.35,0.3a10.48,10.48 0 0 0 3.32,-1.18q0.85,0.54 1.32,0.78a4.85,4.85 0 0 0 1.56,0.44a3.16,3.16 0 0 0 0.91,-0.07a3.55,3.55 0 0 0 0.78,-0.27a3.37,3.37 0 0 0 1.32,-1a4.18,4.18 0 0 0 0.72,-1.52a3.58,3.58 0 0 0 -0.11,-1.63a0.91,0.91 0 0 0 -0.17,-0.61a0.7,0.7 0 0 0 0.58,0.14a2.94,2.94 0 0 0 1.63,0.14a3.22,3.22 0 0 0 1.55,-0.75a3.92,3.92 0 0 0 1,-1.29a1.9,1.9 0 0 0 0.27,-0.78a3.35,3.35 0 0 0 0.07,-0.88a3.85,3.85 0 0 0 -0.44,-1.55a7.32,7.32 0 0 0 -0.71,-1.32l0,0a13.14,13.14 0 0 0 1.19,-3.28a6.67,6.67 0 0 0 -0.31,-3.39a1,1 0 0 0 0.1,-0.3a7.54,7.54 0 0 0 0.24,-1.93l0,-3.84c0,-0.41 0,-1 -0.07,-1.86a1.62,1.62 0 0 0 -0.34,-1a1.41,1.41 0 0 0 -0.74,-0.65a1.57,1.57 0 0 0 -0.61,0a1.47,1.47 0 0 0 -0.48,0.34a1.45,1.45 0 0 0 -0.3,1a1.2,1.2 0 0 0 0.2,0.44l0.1,0.14a0.32,0.32 0 0 1 0.07,0.13a0.66,0.66 0 0 0 0.41,0.14a0.5,0.5 0 0 0 0.37,-0.14a0.54,0.54 0 0 0 0.17,-0.4a0.48,0.48 0 0 0 -0.17,-0.34a0.45,0.45 0 0 0 -0.37,-0.17a0.58,0.58 0 0 0 -0.41,0.17l-0.07,0.17a0.38,0.38 0 0 1 -0.06,-0.17a1.12,1.12 0 0 1 0.3,-0.75a0.59,0.59 0 0 1 0.71,-0.13a1,1 0 0 1 0.58,0.47a1.72,1.72 0 0 1 0.17,0.75l-0.24,5.55c-0.07,0.5 -0.11,0.92 -0.13,1.25a2.68,2.68 0 0 0 -0.41,-0.37a2.45,2.45 0 0 0 -1,-0.57a1.47,1.47 0 0 0 -0.78,0a1.17,1.17 0 0 0 -0.64,0.37a1.62,1.62 0 0 0 -0.44,0.51a1.57,1.57 0 0 0 -0.2,0.54a3.13,3.13 0 0 0 0,1.22a1.79,1.79 0 0 0 0.75,1a1.31,1.31 0 0 0 1.22,0.2a2.8,2.8 0 0 0 1,-0.44a0.65,0.65 0 0 0 0.27,-0.24a6,6 0 0 1 0.2,2a13.68,13.68 0 0 1 -0.51,3.21a11.21,11.21 0 0 0 -0.68,-1a4.82,4.82 0 0 1 -0.3,-0.61a0.73,0.73 0 0 1 -0.17,-0.54a1.77,1.77 0 0 1 0.44,-1.12a6.59,6.59 0 0 1 1.12,-1a3,3 0 0 0 -1.42,0.64a2.07,2.07 0 0 0 -0.89,1.43a2.17,2.17 0 0 0 0.14,0.91l0.1,0.17l0,0l-0.07,0l0,0a1.64,1.64 0 0 0 -0.91,0.1l-0.17,0.07a0.84,0.84 0 0 1 -0.27,0a2.91,2.91 0 0 1 -1.22,-0.67l-0.38,-0.51a4.82,4.82 0 0 1 -0.3,-0.61a2,2 0 0 1 0.17,-1.49a1.16,1.16 0 0 1 0.57,-0.54a1,1 0 0 1 0.68,-0.14a0.86,0.86 0 0 1 0.44,0.44l0,0.31l0,0.3a0.67,0.67 0 0 1 -0.3,0.41a0.37,0.37 0 0 1 -0.34,0.13l-0.41,-0.2a0.12,0.12 0 0 0 0,0.14a0.72,0.72 0 0 0 0.3,0.27a0.45,0.45 0 0 0 0.27,0.06a0.7,0.7 0 0 0 0.31,-0.1a1.09,1.09 0 0 0 0.47,-0.57a1,1 0 0 0 0.1,-0.44l-0.1,-0.44a0.84,0.84 0 0 0 -0.24,-0.44l-0.17,-0.17l-0.27,-0.14a0.84,0.84 0 0 0 -0.54,0a1.05,1.05 0 0 0 -0.44,0.2a1.5,1.5 0 0 0 -0.71,0.78a1.94,1.94 0 0 0 -0.24,1a3,3 0 0 0 0.14,0.85a2.27,2.27 0 0 0 0.37,0.6c0.11,0.14 0.26,0.31 0.44,0.51a2.78,2.78 0 0 0 1.32,0.58a0.26,0.26 0 0 0 0.17,0.07a1.84,1.84 0 0 1 -0.27,0.23a1.5,1.5 0 0 0 -0.41,0.58l-0.3,0.64a2.09,2.09 0 0 0 -0.1,0.61a2.39,2.39 0 0 0 0.07,0.68a3.26,3.26 0 0 0 0.16,0.68l0,0a3.06,3.06 0 0 0 0.17,-0.61l0.23,-1.22a2.77,2.77 0 0 1 0.14,-0.54a2.27,2.27 0 0 1 0.27,-0.54a0.74,0.74 0 0 1 0.41,-0.34a0.67,0.67 0 0 1 0.27,-0.13a0.32,0.32 0 0 1 0.2,-0.07l0.48,0l0.2,0.34l0.74,1.28a5.93,5.93 0 0 1 1.05,2.44a3.05,3.05 0 0 1 -1.05,2.17a2.53,2.53 0 0 1 -1.11,0.58a2.18,2.18 0 0 1 -1.19,-0.07a1.47,1.47 0 0 1 -0.85,-0.75a1.69,1.69 0 0 1 -0.06,-1.15a1.53,1.53 0 0 1 0.81,-0.88a1.16,1.16 0 0 1 0.58,-0.13a1.32,1.32 0 0 1 0.6,0.13a0.86,0.86 0 0 1 0.34,0.51a0.55,0.55 0 0 1 -0.1,0.57a0.71,0.71 0 0 1 -1.18,0a0.74,0.74 0 0 0 0.64,0.44a0.73,0.73 0 0 0 0.75,-0.3a0.93,0.93 0 0 0 0.2,-0.78a1.47,1.47 0 0 0 -0.41,-0.74a1.48,1.48 0 0 0 -1.62,-0.21a1.94,1.94 0 0 0 -1.22,1.15a1.32,1.32 0 0 0 -0.14,0.31l0,0l0,-1.59q0,-0.67 0,-0.81a2.53,2.53 0 0 0 -0.21,-0.85a7.57,7.57 0 0 0 -0.54,-0.71a3.91,3.91 0 0 0 -0.84,-0.37a1.74,1.74 0 0 0 -1,0.07a1.44,1.44 0 0 0 -0.78,0.71a2,2 0 0 0 -0.24,1a1.48,1.48 0 0 0 0.31,0.92a0.92,0.92 0 0 0 0.84,0.37a0.67,0.67 0 0 0 0.34,-0.1a0.33,0.33 0 0 0 0.17,-0.31l0,-0.07c-0.07,-0.06 -0.21,0 -0.44,0.11a0.48,0.48 0 0 1 -0.3,0.13a0.86,0.86 0 0 1 -0.48,-0.85a1.61,1.61 0 0 1 0.24,-1a1.64,1.64 0 0 1 0.74,-0.54a2.23,2.23 0 0 1 1,0.17a1.64,1.64 0 0 1 1,1.42a2.88,2.88 0 0 1 0,0.78c-0.09,0.52 -0.15,0.92 -0.17,1.19a4.18,4.18 0 0 0 0,1.12a2.19,2.19 0 0 0 0.44,1.08a3.35,3.35 0 0 0 -1.15,-0.41a5.58,5.58 0 0 0 -1.16,0a10.68,10.68 0 0 1 -1.11,0.14a2.22,2.22 0 0 1 -0.82,0a1.65,1.65 0 0 1 -1.38,-1a1.28,1.28 0 0 1 -0.11,-1a1,1 0 0 1 0.51,-0.71a2.06,2.06 0 0 1 1,-0.28a0.88,0.88 0 0 1 0.81,0.48l0,0a0.81,0.81 0 0 1 -0.13,0.34c-0.1,0.2 -0.12,0.33 -0.07,0.37l0.07,0c0.11,0 0.21,0 0.3,-0.17a0.63,0.63 0 0 0 0.1,-0.34a0.83,0.83 0 0 0 -0.4,-0.85a1.43,1.43 0 0 0 -0.92,-0.3a1.93,1.93 0 0 0 -1,0.27a1.22,1.22 0 0 0 -0.68,0.74a1.55,1.55 0 0 0 0,1a1.39,1.39 0 0 0 0.34,0.82a3.07,3.07 0 0 0 0.71,0.57a2.87,2.87 0 0 0 0.84,0.2a3.74,3.74 0 0 0 0.82,0l1.55,0l0,0a0.7,0.7 0 0 1 -0.23,0.1a2.12,2.12 0 0 0 -1.22,1.22a1.66,1.66 0 0 0 0.2,1.66a1.11,1.11 0 0 0 0.78,0.37a0.74,0.74 0 0 0 0.78,-0.17a0.77,0.77 0 0 0 0.27,-0.78a0.58,0.58 0 0 0 -0.37,-0.54a0.52,0.52 0 0 1 0.27,0.54a0.56,0.56 0 0 1 -0.31,0.58a0.76,0.76 0 0 1 -0.61,0.1a0.92,0.92 0 0 1 -0.44,-0.37a1,1 0 0 1 0,-1.15a1.55,1.55 0 0 1 0.91,-0.82a1.32,1.32 0 0 1 1.12,0.1a1.71,1.71 0 0 1 0.75,0.82a2.5,2.5 0 0 1 0,1.22a2.88,2.88 0 0 1 -0.54,1.11a2.39,2.39 0 0 1 -1,0.75m-10.49,-0.24a0.51,0.51 0 0 1 -0.24,-0.13a2.53,2.53 0 0 1 -0.54,-0.51a1.09,1.09 0 0 1 -0.31,-0.54a0.39,0.39 0 0 1 0.07,-0.34l0.17,-0.14l0.3,-0.17a1.06,1.06 0 0 1 0.61,0a0.75,0.75 0 0 1 0.48,0.27a0.57,0.57 0 0 1 0.13,0.51l-0.23,0.65a3.25,3.25 0 0 1 -0.44,0.4m16.32,-16.59a1,1 0 0 1 0.17,0.24a1.48,1.48 0 0 1 -0.44,0.4a2.09,2.09 0 0 1 -0.68,0.27a1,1 0 0 1 -0.51,-0.13a0.65,0.65 0 0 1 -0.24,-0.48a1.16,1.16 0 0 1 0,-0.64l0.14,-0.24l0.14,-0.23a1.24,1.24 0 0 1 0.33,0a1.77,1.77 0 0 1 1.09,0.85m-0.3,17.46l1.49,0l0,-1.49l-1.86,-0.37l0.37,1.86z" fill="#b9aea4" id="svg_37"/>
    </g>
    <g id="Layer0_3_FILL-31" data-name="Layer0 3 FILL">
     <path class="cls-2" d="m67.77791,99.78449a1.13,1.13 0 0 0 0.35,-0.8a0.94,0.94 0 0 0 -0.35,-0.85a1.09,1.09 0 0 0 -0.8,-0.3a1.4,1.4 0 0 0 -0.85,0.3a1.45,1.45 0 0 0 -0.35,0.85a1.13,1.13 0 0 0 0.35,0.8a1.11,1.11 0 0 0 0.8,0.35a1.17,1.17 0 0 0 0.85,-0.35z" fill="#9f9286" id="svg_38"/>
    </g>
    <g id="_finalRND_decor_0_Layer0_0_FILL-8" data-name=" finalRND decor 0 Layer0 0 FILL">
     <path class="cls-1" d="m98.58791,72.78449a0.53,0.53 0 0 0 -0.41,-0.2l-0.13,0l-0.27,0.2l0.81,0m-4,24.25a2.71,2.71 0 0 1 0.07,1.19a0.35,0.35 0 0 0 0.23,0.34a0.36,0.36 0 0 0 0.41,-0.07l0.07,-0.07a0.32,0.32 0 0 1 0.27,-0.17a0.53,0.53 0 0 0 0.54,-0.3l0.14,-0.14a0.64,0.64 0 0 0 0.33,-0.51a0.28,0.28 0 0 1 0.14,-0.27l0,-0.07a0.32,0.32 0 0 0 0.11,-0.4a0.36,0.36 0 0 0 -0.38,-0.21a3.06,3.06 0 0 1 -1.18,-0.16a3,3 0 0 1 -0.78,-0.28a1,1 0 0 0 -0.34,-0.16l-0.14,0.13a1,1 0 0 0 0.07,0.17l0.07,0.14a3.42,3.42 0 0 1 0.34,0.84m-3.12,2.17a2.65,2.65 0 0 1 -1.15,0.27a5.44,5.44 0 0 1 -2.47,-1l-1.63,-0.88l0,-0.47a2.07,2.07 0 0 1 0.21,-0.58a0.88,0.88 0 0 1 0.4,-0.41a1.19,1.19 0 0 1 0.48,-0.23l2.4,-0.51l0,-0.1l-0.64,-0.17l-0.68,0a2.27,2.27 0 0 0 -0.64,0.14a1.56,1.56 0 0 0 -0.61,0.24a2.06,2.06 0 0 0 -0.58,0.4a0.87,0.87 0 0 0 -0.23,0.27a0.47,0.47 0 0 0 0,-0.17a2.57,2.57 0 0 0 -0.61,-1.28a5.46,5.46 0 0 0 -0.47,-0.48a2.6,2.6 0 0 0 -0.68,-0.4a2.56,2.56 0 0 0 -0.81,-0.14a2.66,2.66 0 0 0 -0.95,0.2a1.55,1.55 0 0 0 -0.75,0.72a1,1 0 0 0 -0.2,0.5a0.75,0.75 0 0 0 0,0.55l0.14,0.27l0.2,0.2a2.25,2.25 0 0 0 0.41,0.24l0.2,0.06l0.27,0a2.1,2.1 0 0 0 0.41,-0.06a1.29,1.29 0 0 0 0.57,-0.51a0.78,0.78 0 0 0 0.1,-0.34l-0.06,-0.27q-0.08,-0.24 -0.24,-0.24l-0.14,-0.07a0.12,0.12 0 0 0 0,0.14a1.55,1.55 0 0 1 0.13,0.24a0.7,0.7 0 0 1 -0.13,0.4a0.77,0.77 0 0 1 -0.37,0.24l-0.31,0l-0.3,0a0.84,0.84 0 0 1 -0.48,-0.44a1.09,1.09 0 0 1 0.14,-0.71a1.53,1.53 0 0 1 0.57,-0.51a1.76,1.76 0 0 1 1.46,-0.17a1.53,1.53 0 0 1 0.61,0.31a1.1,1.1 0 0 1 0.47,0.37a2.57,2.57 0 0 1 0.68,1.18a0.58,0.58 0 0 1 0.07,0.28a0.31,0.31 0 0 0 -0.07,0.2a1.81,1.81 0 0 0 -0.1,0.91l0,0a0.15,0.15 0 0 0 0,0.1l-0.2,-0.14a1.7,1.7 0 0 0 -0.91,-0.13a2.5,2.5 0 0 0 -1.46,0.84a5.07,5.07 0 0 0 -0.64,1.43a5.22,5.22 0 0 1 1,-1.09a1.26,1.26 0 0 1 1.12,-0.4a1.39,1.39 0 0 1 0.5,0.1l1.63,1a19.67,19.67 0 0 1 -3.22,0.47a7.06,7.06 0 0 1 -2,-0.2l0.27,-0.27a2.65,2.65 0 0 0 0.47,-1a1.61,1.61 0 0 0 -0.23,-1.26a1.68,1.68 0 0 0 -1.05,-0.71a2.38,2.38 0 0 0 -1.19,0a2.17,2.17 0 0 0 -0.57,0.17a4.6,4.6 0 0 0 -0.55,0.41a2,2 0 0 0 -0.37,0.67a2.08,2.08 0 0 0 0,0.71a3.73,3.73 0 0 0 0.58,1.09a2.59,2.59 0 0 0 0.37,0.37a5.9,5.9 0 0 1 -1.25,0.17c-1.65,0.09 -2.88,0.15 -3.69,0.17a17.18,17.18 0 0 1 -1.83,0a1.56,1.56 0 0 1 -0.78,-0.2a1.27,1.27 0 0 1 -0.48,-0.58a0.53,0.53 0 0 1 0.14,-0.67a0.73,0.73 0 0 1 0.78,-0.27l0.17,0a0.2,0.2 0 0 0 -0.17,0.13a0.37,0.37 0 0 0 -0.17,0.34a0.51,0.51 0 0 0 0.17,0.37a0.4,0.4 0 0 0 0.34,0.17a0.49,0.49 0 0 0 0.37,-0.17a0.65,0.65 0 0 0 0.2,-0.37a0.52,0.52 0 0 0 -0.2,-0.34a0.19,0.19 0 0 0 -0.14,-0.13a0.54,0.54 0 0 0 -0.13,-0.11a0.72,0.72 0 0 0 -0.44,-0.2a1.55,1.55 0 0 0 -1,0.31a1,1 0 0 0 -0.31,0.47a0.82,0.82 0 0 0 0,0.58a1.57,1.57 0 0 0 0.61,0.81a1.69,1.69 0 0 0 1,0.3c0.41,0 1,0.08 1.87,0.1s2.07,0 3.72,0a7.69,7.69 0 0 0 1.9,-0.2a1.44,1.44 0 0 0 0.37,-0.1a6,6 0 0 0 3.35,0.3a10.48,10.48 0 0 0 3.32,-1.18q0.85,0.54 1.32,0.78a4.85,4.85 0 0 0 1.56,0.44a3.16,3.16 0 0 0 0.91,-0.07a3.55,3.55 0 0 0 0.78,-0.27a3.37,3.37 0 0 0 1.32,-1a4.18,4.18 0 0 0 0.72,-1.52a3.58,3.58 0 0 0 -0.11,-1.63a0.91,0.91 0 0 0 -0.17,-0.61a0.7,0.7 0 0 0 0.58,0.14a2.94,2.94 0 0 0 1.63,0.14a3.22,3.22 0 0 0 1.55,-0.75a3.92,3.92 0 0 0 1,-1.29a1.9,1.9 0 0 0 0.27,-0.78a3.35,3.35 0 0 0 0.07,-0.88a3.85,3.85 0 0 0 -0.44,-1.55a7.32,7.32 0 0 0 -0.71,-1.32l0,0a13.14,13.14 0 0 0 1.19,-3.28a6.67,6.67 0 0 0 -0.31,-3.39a1,1 0 0 0 0.1,-0.3a7.54,7.54 0 0 0 0.24,-1.93l0,-3.84c0,-0.41 -1.11,-2.65 -1.15,-3.49c0,-0.34 1,1 0.74,0.65a1.41,1.41 0 0 0 -0.74,-0.65a1.57,1.57 0 0 0 -0.61,0a1.47,1.47 0 0 0 -0.48,0.34a1.45,1.45 0 0 0 -0.3,1a1.2,1.2 0 0 0 0.2,0.44l0.1,0.14a0.32,0.32 0 0 1 0.07,0.13a0.66,0.66 0 0 0 0.41,0.14a0.5,0.5 0 0 0 0.37,-0.14a0.54,0.54 0 0 0 0.17,-0.4a0.48,0.48 0 0 0 -0.17,-0.34a0.45,0.45 0 0 0 -0.37,-0.17a0.58,0.58 0 0 0 -0.41,0.17l-0.07,0.17a0.38,0.38 0 0 1 -0.06,-0.17a1.12,1.12 0 0 1 0.3,-0.75a0.59,0.59 0 0 1 0.71,-0.13a1,1 0 0 1 0.58,0.47a1.72,1.72 0 0 1 0.17,0.75l-0.24,5.55c-0.07,0.5 -0.11,0.92 -0.13,1.25a2.68,2.68 0 0 0 -0.41,-0.37a2.45,2.45 0 0 0 -1,-0.57a1.47,1.47 0 0 0 -0.78,0a1.17,1.17 0 0 0 -0.64,0.37a1.62,1.62 0 0 0 -0.44,0.51a1.57,1.57 0 0 0 -0.2,0.54a3.13,3.13 0 0 0 0,1.22a1.79,1.79 0 0 0 0.75,1a1.31,1.31 0 0 0 1.22,0.2a2.8,2.8 0 0 0 1,-0.44a0.65,0.65 0 0 0 0.27,-0.24a6,6 0 0 1 0.2,2a13.68,13.68 0 0 1 -0.51,3.21a11.21,11.21 0 0 0 -0.68,-1a4.82,4.82 0 0 1 -0.3,-0.61a0.73,0.73 0 0 1 -0.17,-0.54a1.77,1.77 0 0 1 0.44,-1.12a6.59,6.59 0 0 1 1.12,-1a3,3 0 0 0 -1.42,0.64a2.07,2.07 0 0 0 -0.89,1.43a2.17,2.17 0 0 0 0.14,0.91l0.1,0.17l0,0l-0.07,0l0,0a1.64,1.64 0 0 0 -0.91,0.1l-0.17,0.07a0.84,0.84 0 0 1 -0.27,0a2.91,2.91 0 0 1 -1.22,-0.67l-0.38,-0.51a4.82,4.82 0 0 1 -0.3,-0.61a2,2 0 0 1 0.17,-1.49a1.16,1.16 0 0 1 0.57,-0.54a1,1 0 0 1 0.68,-0.14a0.86,0.86 0 0 1 0.44,0.44l0,0.31l0,0.3a0.67,0.67 0 0 1 -0.3,0.41a0.37,0.37 0 0 1 -0.34,0.13l-0.41,-0.2a0.12,0.12 0 0 0 0,0.14a0.72,0.72 0 0 0 0.3,0.27a0.45,0.45 0 0 0 0.27,0.06a0.7,0.7 0 0 0 0.31,-0.1a1.09,1.09 0 0 0 0.47,-0.57a1,1 0 0 0 0.1,-0.44l-0.1,-0.44a0.84,0.84 0 0 0 -0.24,-0.44l-0.17,-0.17l-0.27,-0.14a0.84,0.84 0 0 0 -0.54,0a1.05,1.05 0 0 0 -0.44,0.2a1.5,1.5 0 0 0 -0.71,0.78a1.94,1.94 0 0 0 -0.24,1a3,3 0 0 0 0.14,0.85a2.27,2.27 0 0 0 0.37,0.6c0.11,0.14 0.26,0.31 0.44,0.51a2.78,2.78 0 0 0 1.32,0.58a0.26,0.26 0 0 0 0.17,0.07a1.84,1.84 0 0 1 -0.27,0.23a1.5,1.5 0 0 0 -0.41,0.58l-0.3,0.64a2.09,2.09 0 0 0 -0.1,0.61a2.39,2.39 0 0 0 0.07,0.68a3.26,3.26 0 0 0 0.16,0.68l0,0a3.06,3.06 0 0 0 0.17,-0.61l0.23,-1.22a2.77,2.77 0 0 1 0.14,-0.54a2.27,2.27 0 0 1 0.27,-0.54a0.74,0.74 0 0 1 0.41,-0.34a0.67,0.67 0 0 1 0.27,-0.13a0.32,0.32 0 0 1 0.2,-0.07l0.48,0l0.2,0.34l0.74,1.28a5.93,5.93 0 0 1 1.05,2.44a3.05,3.05 0 0 1 -1.05,2.17a2.53,2.53 0 0 1 -1.11,0.58a2.18,2.18 0 0 1 -1.19,-0.07a1.47,1.47 0 0 1 -0.85,-0.75a1.69,1.69 0 0 1 -0.06,-1.15a1.53,1.53 0 0 1 0.81,-0.88a1.16,1.16 0 0 1 0.58,-0.13a1.32,1.32 0 0 1 0.6,0.13a0.86,0.86 0 0 1 0.34,0.51a0.55,0.55 0 0 1 -0.1,0.57a0.71,0.71 0 0 1 -1.18,0a0.74,0.74 0 0 0 0.64,0.44a0.73,0.73 0 0 0 0.75,-0.3a0.93,0.93 0 0 0 0.2,-0.78a1.47,1.47 0 0 0 -0.41,-0.74a1.48,1.48 0 0 0 -1.62,-0.21a1.94,1.94 0 0 0 -1.22,1.15a1.32,1.32 0 0 0 -0.14,0.31l0,0l0,-1.59q0,-0.67 0,-0.81a2.53,2.53 0 0 0 -0.21,-0.85a7.57,7.57 0 0 0 -0.54,-0.71a3.91,3.91 0 0 0 -0.84,-0.37a1.74,1.74 0 0 0 -1,0.07a1.44,1.44 0 0 0 -0.78,0.71a2,2 0 0 0 -0.24,1a1.48,1.48 0 0 0 0.31,0.92a0.92,0.92 0 0 0 0.84,0.37a0.67,0.67 0 0 0 0.34,-0.1a0.33,0.33 0 0 0 0.17,-0.31l0,-0.07c-0.07,-0.06 -0.21,0 -0.44,0.11a0.48,0.48 0 0 1 -0.3,0.13a0.86,0.86 0 0 1 -0.48,-0.85a1.61,1.61 0 0 1 0.24,-1a1.64,1.64 0 0 1 0.74,-0.54a2.23,2.23 0 0 1 1,0.17a1.64,1.64 0 0 1 1,1.42a2.88,2.88 0 0 1 0,0.78c-0.09,0.52 -0.15,0.92 -0.17,1.19a4.18,4.18 0 0 0 0,1.12a2.19,2.19 0 0 0 0.44,1.08a3.35,3.35 0 0 0 -1.15,-0.41a5.58,5.58 0 0 0 -1.16,0a10.68,10.68 0 0 1 -1.11,0.14a2.22,2.22 0 0 1 -0.82,0a1.65,1.65 0 0 1 -1.38,-1a1.28,1.28 0 0 1 -0.11,-1a1,1 0 0 1 0.51,-0.71a2.06,2.06 0 0 1 1,-0.28a0.88,0.88 0 0 1 0.81,0.48l0,0a0.81,0.81 0 0 1 -0.13,0.34c-0.1,0.2 -0.12,0.33 -0.07,0.37l0.07,0c0.11,0 0.21,0 0.3,-0.17a0.63,0.63 0 0 0 0.1,-0.34a0.83,0.83 0 0 0 -0.4,-0.85a1.43,1.43 0 0 0 -0.92,-0.3a1.93,1.93 0 0 0 -1,0.27a1.22,1.22 0 0 0 -0.68,0.74a1.55,1.55 0 0 0 0,1a1.39,1.39 0 0 0 0.34,0.82a3.07,3.07 0 0 0 0.71,0.57a2.87,2.87 0 0 0 0.84,0.2a3.74,3.74 0 0 0 0.82,0l1.55,0l0,0a0.7,0.7 0 0 1 -0.23,0.1a2.12,2.12 0 0 0 -1.22,1.22a1.66,1.66 0 0 0 0.2,1.66a1.11,1.11 0 0 0 0.78,0.37a0.74,0.74 0 0 0 0.78,-0.17a0.77,0.77 0 0 0 0.27,-0.78a0.58,0.58 0 0 0 -0.37,-0.54a0.52,0.52 0 0 1 0.27,0.54a0.56,0.56 0 0 1 -0.31,0.58a0.76,0.76 0 0 1 -0.61,0.1a0.92,0.92 0 0 1 -0.44,-0.37a1,1 0 0 1 0,-1.15a1.55,1.55 0 0 1 0.91,-0.82a1.32,1.32 0 0 1 1.12,0.1a1.71,1.71 0 0 1 0.75,0.82a2.5,2.5 0 0 1 0,1.22a2.88,2.88 0 0 1 -0.54,1.11a2.39,2.39 0 0 1 -1,0.75m-10.49,-0.24a0.51,0.51 0 0 1 -0.24,-0.13a2.53,2.53 0 0 1 -0.54,-0.51a1.09,1.09 0 0 1 -0.31,-0.54a0.39,0.39 0 0 1 0.07,-0.34l0.17,-0.14l0.3,-0.17a1.06,1.06 0 0 1 0.61,0a0.75,0.75 0 0 1 0.48,0.27a0.57,0.57 0 0 1 0.13,0.51l-0.23,0.65a3.25,3.25 0 0 1 -0.44,0.4m16.32,-16.59a1,1 0 0 1 0.17,0.24a1.48,1.48 0 0 1 -0.44,0.4a2.09,2.09 0 0 1 -0.68,0.27a1,1 0 0 1 -0.51,-0.13a0.65,0.65 0 0 1 -0.24,-0.48a1.16,1.16 0 0 1 0,-0.64l0.14,-0.24l0.14,-0.23a1.24,1.24 0 0 1 0.33,0a1.77,1.77 0 0 1 1.09,0.85m-0.3,17.44l1.49,0l0,-1.49l-1.86,-0.37l0.37,1.86z" fill="#b9aea4" id="svg_39"/>
    </g>
    <g id="Layer0_3_FILL-32" data-name="Layer0 3 FILL">
     <path class="cls-2" d="m62.77791,99.78449a1.13,1.13 0 0 0 0.35,-0.8a0.94,0.94 0 0 0 -0.35,-0.85a1.09,1.09 0 0 0 -0.8,-0.3a1.4,1.4 0 0 0 -0.85,0.3a1.45,1.45 0 0 0 -0.35,0.85a1.13,1.13 0 0 0 0.35,0.8a1.11,1.11 0 0 0 0.8,0.35a1.17,1.17 0 0 0 0.85,-0.35z" fill="#9f9286" id="svg_40"/>
    </g>
    <g id="Layer0_3_FILL-33" data-name="Layer0 3 FILL">
     <path class="cls-2" d="m57.77791,99.78449a1.13,1.13 0 0 0 0.35,-0.8a0.94,0.94 0 0 0 -0.35,-0.85a1.09,1.09 0 0 0 -0.8,-0.3a1.4,1.4 0 0 0 -0.85,0.3a1.45,1.45 0 0 0 -0.35,0.85a1.13,1.13 0 0 0 0.35,0.8a1.11,1.11 0 0 0 0.8,0.35a1.17,1.17 0 0 0 0.85,-0.35z" fill="#9f9286" id="svg_41"/>
    </g>
    <g id="Layer0_3_FILL-34" data-name="Layer0 3 FILL">
     <path class="cls-2" d="m52.77791,99.78449a1.13,1.13 0 0 0 0.35,-0.8a0.94,0.94 0 0 0 -0.35,-0.85a1.09,1.09 0 0 0 -0.8,-0.3a1.4,1.4 0 0 0 -0.85,0.3a1.45,1.45 0 0 0 -0.35,0.85a1.13,1.13 0 0 0 0.35,0.8a1.11,1.11 0 0 0 0.8,0.35a1.17,1.17 0 0 0 0.85,-0.35z" fill="#9f9286" id="svg_42"/>
    </g>
    <g id="Layer0_3_FILL-36" data-name="Layer0 3 FILL">
     <path class="cls-2" d="m96.63791,68.44449a1.11,1.11 0 0 0 0.8,0.35a1,1 0 0 0 0.85,-0.35a1.09,1.09 0 0 0 0.3,-0.8a1.4,1.4 0 0 0 -0.3,-0.85a1.51,1.51 0 0 0 -0.85,-0.35a1.11,1.11 0 0 0 -0.8,0.35a1.07,1.07 0 0 0 -0.35,0.8a1.13,1.13 0 0 0 0.35,0.85z" fill="#9f9286" id="svg_44"/>
    </g>
    <g id="Layer0_3_FILL-37" data-name="Layer0 3 FILL">
     <path class="cls-2" d="m96.63791,63.44449a1.11,1.11 0 0 0 0.8,0.35a1,1 0 0 0 0.85,-0.35a1.09,1.09 0 0 0 0.3,-0.8a1.4,1.4 0 0 0 -0.3,-0.85a1.51,1.51 0 0 0 -0.85,-0.35a1.11,1.11 0 0 0 -0.8,0.35a1.07,1.07 0 0 0 -0.35,0.8a1.13,1.13 0 0 0 0.35,0.85z" fill="#9f9286" id="svg_45"/>
    </g>
    <g id="Layer0_3_FILL-38" data-name="Layer0 3 FILL">
     <path class="cls-2" d="m96.63791,58.44449a1.11,1.11 0 0 0 0.8,0.35a1,1 0 0 0 0.85,-0.35a1.09,1.09 0 0 0 0.3,-0.8a1.4,1.4 0 0 0 -0.3,-0.85a1.51,1.51 0 0 0 -0.85,-0.35a1.11,1.11 0 0 0 -0.8,0.35a1.07,1.07 0 0 0 -0.35,0.8a1.13,1.13 0 0 0 0.35,0.85z" fill="#9f9286" id="svg_46"/>
    </g>
    <g id="Layer0_3_FILL-39" data-name="Layer0 3 FILL">
     <path class="cls-2" d="m96.63791,53.44449a1.11,1.11 0 0 0 0.8,0.35a1,1 0 0 0 0.85,-0.35a1.09,1.09 0 0 0 0.3,-0.8a1.4,1.4 0 0 0 -0.3,-0.85a1.51,1.51 0 0 0 -0.85,-0.35a1.11,1.11 0 0 0 -0.8,0.35a1.07,1.07 0 0 0 -0.35,0.8a1.13,1.13 0 0 0 0.35,0.85z" fill="#9f9286" id="svg_47"/>
    </g>
   </g>
  </g>
 </g>

</svg>