<svg xmlns="http://www.w3.org/2000/svg" viewBox="0 0 304.51 103.7"><defs><style>.cls-1{fill:#39c9fe;}.cls-2{fill:#00a;}</style></defs><g id="Layer_2" data-name="Layer 2"><g id="Layer_1-2" data-name="Layer 1"><g id="round1"><path class="cls-1" d="M251,13.22l-.11.06q-.43.44-7.34,1.44a40.56,40.56,0,0,1-16.12-.93h-.12l-.11.09a.6.6,0,0,0,0,.12l.66,21.39-.3-.23,0,0q-15-12.15-23.46-7l-.06,0,0,0q-1.53.82-6.43,1.29a3.24,3.24,0,0,0-.17-.32l0,0v0q-5.35-6.34-11.63-5.48t-13.56,9.07l-.38.4.1-5.2a.33.33,0,0,0-.06-.23h0a.4.4,0,0,0-.19-.15l0,0a.57.57,0,0,0-.26,0h0a160.63,160.63,0,0,1-19.5,3.36,102.64,102.64,0,0,1-17.39-1.06l-1.73-.33c-1.49-.57-2.88-1.05-4.19-1.42L121,25.89h0a69.25,69.25,0,0,0-15.27-2.37l-2-.1-3.28-.09a.46.46,0,0,0-.27.11l0,0a.43.43,0,0,0-.13.27q-.21,3.66-.36,7.11a7,7,0,0,1-3.13-.38l0,0q-7-5.51-20.88-3.45a39.42,39.42,0,0,0-14,4.47,25.12,25.12,0,0,0-2.2,1.41l-.95.74Q54.64,30.15,49.94,26,46,11.58,26.65,8.59h-.06A102.75,102.75,0,0,0,7.19,9c-2,.24-4,.53-6,.89a.39.39,0,0,0-.23.15h0a.46.46,0,0,0-.08.25L.42,97.52a.32.32,0,0,0,.09.23l0,0a.35.35,0,0,0,.19.17l0,0a.36.36,0,0,0,.25,0H1A68.56,68.56,0,0,1,22.72,96h0c0,.16,0,.39,0,.67a.35.35,0,0,0,.07.15.17.17,0,0,0,.15,0,.14.14,0,0,0,.14,0,.17.17,0,0,0,.07-.15q.52-6.4.86-11.17,3.6.39,5.82.74,1,10.53,1.1,10.56h0a.43.43,0,0,0,.26.15,138.23,138.23,0,0,1,19.63,4.5.28.28,0,0,0,.25,0,.26.26,0,0,0,.19-.12h0a.43.43,0,0,0,.09-.21v0q.48-4.71.78-8.83c.19-.6.38-1.21.55-1.84,0,.55-.07,1.09-.11,1.63v.13h0c.08.33.16.65.26,1h0q2.91,10.73,19.54,9.61T95.93,93.1a22.87,22.87,0,0,0,3.58-6.79,1.6,1.6,0,0,0,.08-.26c.26.14.52.26.76.36q4.2,13,19.15,11.07A15.62,15.62,0,0,0,128.34,93l.42-.4-.5,6.28h0a.55.55,0,0,0,.06.26.48.48,0,0,0,.19.16q8.3,3.75,25.43,2.5h0a.43.43,0,0,0,.25-.1h0a.41.41,0,0,0,.13-.24v0a92.91,92.91,0,0,0,16.14-2.58.34.34,0,0,0,.23-.15h0a.34.34,0,0,0,.09-.25l.06-6c2.7-.68,4.72-1.11,6.07-1.31a7.58,7.58,0,0,1,1.52-.09c.2,0,.31,0,.32.07,0,1.78,0,3.59,0,5.45h0a.45.45,0,0,0,.06.24v0a.48.48,0,0,0,.2.15.44.44,0,0,0,.25,0h0a45.49,45.49,0,0,1,20.79.1.39.39,0,0,0,.26,0h0a.35.35,0,0,0,.19-.17v0a.35.35,0,0,0,.08-.24c.06-1.55.12-3.08.17-4.59a3.93,3.93,0,0,0,.68-.15q5.13,8.31,15.25,8.78h.11a16.72,16.72,0,0,0,9.64-3.34l.36-.27,0,4.76a.37.37,0,0,0,.11.27.33.33,0,0,0,.25.15,42.76,42.76,0,0,0,21.43-2.12h0a.32.32,0,0,0,.19-.17v0a.41.41,0,0,0,.08-.24l2.39-86.31a.13.13,0,0,0,0-.12.22.22,0,0,0-.1-.09Z"/><path class="cls-2" d="M256.39,3l-.87.33a54.45,54.45,0,0,1-21.43,3.47l-.63,0V14.7a30.1,30.1,0,0,1-5.69-1.1l-.81-.21v8.38q-10.22-2.93-15.84-1.06l0,0h0a15,15,0,0,0-5.41,3.62q-1.6-6.76-11.17-9.39l-.11,0a15.28,15.28,0,0,0-14.87,6.29l.07-5.29-.89.38q-9.42,4.13-23.5,6h0a96.56,96.56,0,0,1-20.1-.83l-.72-.08-.08,7.45c-1.65-.3-3.39-.66-5.21-1.06l.09-7.24-.53-.1a195.88,195.88,0,0,1-22.25-5.57l-.85-.25.11,8c-.94-.06-1.9-.1-2.88-.13q-6.23-7.79-20.58-4.23h0Q65.29,23.57,62.43,30a26.81,26.81,0,0,0-2.78,1.65q-.57-13.49-9-21.6l0,0,0,0Q33.27-2.44,7.62,1.12L7,1.18l.15,7q-3.35.4-6.68,1L0,9.27l.06,89,.77-.15a81.73,81.73,0,0,1,22.5-1.22l.7,0V88.47c2,.32,4,.7,6,1.14l.06,8,.53.06a137,137,0,0,1,20.81,4.8l.74.23.09-.76c.23-2.25.42-4.41.59-6.47q4,9.17,19.72,8.1,17.17-1.19,24-10a22.25,22.25,0,0,0,3.3-5.95q4.64,12.63,19.74,10.62h0a16.41,16.41,0,0,0,8.1-3.64l-.4,5.06.44.17a48.18,48.18,0,0,0,19.48,2.66h0a99.07,99.07,0,0,0,23.84-3l.48-.13.07-6.94a56,56,0,0,1,6.22-1.22v6.87l.78-.17a44.53,44.53,0,0,1,21.91.13l.77.17,0-.76c0-1.3.09-2.57.12-3.83q5.35,7.47,15.17,7.91h.09a18.2,18.2,0,0,0,9.13-2.77l0,4.17.53.06a43.69,43.69,0,0,0,22.81-2.22l.42-.15-.06-5.39,7-2.42L256.39,3m-8.82,11.31.82,85.4a42.38,42.38,0,0,1-21.22,2.1l.05-5.61-1,.78a16.4,16.4,0,0,1-9.41,3.26h-.07q-10.06-.47-15.08-8.84c0-.41,0-.82,0-1.23q1.35-42.91-1.9-56.65a11.19,11.19,0,0,1,4.38-5l0,0q8.25-5,23,7l1,.81V15.06a31.16,31.16,0,0,0,5.23.93,35.08,35.08,0,0,0,14.11-1.65m-50.63,15a15.37,15.37,0,0,1,1.48,4.08q-5.14,11.11-2.87,40.45.84,10.39,4.23,16.86c.18.36.37.71.57,1-.06,1.59-.13,3.21-.19,4.86a46.08,46.08,0,0,0-21-.13c0-1.85,0-3.67,0-5.45q.08-43.54-.69-49A11.66,11.66,0,0,0,177,37.17a2.55,2.55,0,0,0-3.08-1.23c-.82.2-1.74,1.08-2.78,2.64l-.1.15-.66,59.68a97.41,97.41,0,0,1-21.3,2.83c-.45,0-.91,0-1.37,0q.12-4.7.21-10.38.41-22.18.7-59.34l.82-.06a156,156,0,0,0,22-3.62l-.13,6.32,1.14-1.24q7.13-8,13.31-8.93t11.25,5.33M129,29.09l.1,0q2.73.62,5.21,1.08a71.45,71.45,0,0,0,13,1.41q-.28,36.62-.68,58.66-.1,6.09-.23,11a47,47,0,0,1-17.73-2.44l.59-7.4-1.22,1.18a15.15,15.15,0,0,1-8.61,4.4Q104.8,99,100.71,86.18a1.57,1.57,0,0,0,0-.23c0-.12,0-.23,0-.34q3-9.26,3.28-25.3.32-19.19-3.91-26.87.19-4.68.48-9.68l3.26.08,2,.11a68.91,68.91,0,0,1,15.16,2.34q-.16,6.47-.17,18.94,0,14.46.07,25a.57.57,0,0,0-.11.38c0,.76.09,1.49.13,2.2v.13q-.08,1.39.25,7.19c.28,5.12,1.53,7.87,3.75,8.23,1.34.38,2.31-.82,2.92-3.62a57.15,57.15,0,0,0,.8-10.72q.11-14.15.49-44.91m71.41,60.07a45.11,45.11,0,0,1-3.59-15.4q-2.1-26.82,2.09-38.18,2.72,14.3,1.5,53.58M59.7,33.21a24.06,24.06,0,0,1,2.15-1.39,38.93,38.93,0,0,1,13.86-4.4q13.74-2,20.58,3.38a10.17,10.17,0,0,1,2.41,2.94q-1.56,35.1.64,51.72c-.07.25-.15.48-.23.7a23.15,23.15,0,0,1-3.51,6.69q-6.64,8.33-23.15,9.47Q56.22,103.43,53.33,93v0a8.06,8.06,0,0,1-.23-.91c.11-1.59.21-3.13.29-4.61q1.08-19.93-2.45-24.18l0,0-.55-.83q.06-18.91,5.76-26a19.52,19.52,0,0,1,3.51-3.32m40.17,3q3,7.81,2.77,24.1-.23,13.46-2.39,22.06-1.65-15.94-.38-46.16m-50.31-10q2.76,15,0,21.62Q46.91,54.05,39,52.31L37.17,52l-.24.69,1.65.85a28.23,28.23,0,0,1,10.58,9.41,155,155,0,0,0,1.46,23.23q.51,3.28,1.19,6-.3,4.13-.79,8.84a137.45,137.45,0,0,0-19.69-4.52L31.1,61.22l0,0q-.63-5.4-7.7-5.31l-.62,0v39.7A84,84,0,0,0,1.33,96.74L1.27,10.32q3-.52,6-.89A102.3,102.3,0,0,1,26.59,9q19,3,23,17.2m2.56,61.24c0-.2-.07-.4-.1-.61a143.39,143.39,0,0,1-1.59-22q2.61,4.81,1.71,22c0,.19,0,.37,0,.55M23.4,22l-.64,0v20.6l.38.15q5.1,2.13,7.3-1.33,2.1-3.09,1.5-11.23v0Q31.06,22,23.4,22M71.71,62.74v0c0,6.1,0,11.87.09,17.33q.15,8.75,3.11,9.35a2.72,2.72,0,0,0,3-.53,6.2,6.2,0,0,0,1.61-3.43l0,0v-.06q1.7-30.7.65-42.29l0,0v0c-.54-2.51-1.86-3.74-4-3.71q-4.09-.12-4.26,7.47-.15,6.84-.21,16m156.1-19,0,0v0q-.81-3.75-4-3.7c-2.73-.08-4.14,2.4-4.25,7.47q-.15,6.84-.21,16v0q-.09,9.15.08,17.33.16,8.74,3.11,9.35a2.72,2.72,0,0,0,3-.53,6.17,6.17,0,0,0,1.61-3.43l0,0v-.07Q228.85,55.35,227.81,43.77Z"/><path class="cls-1" d="M297.32,9.82a.48.48,0,0,0-.23-.17l-9.63-2.56h-.19l-.19.08a145.08,145.08,0,0,1-20.16,14.47,0,0,0,0,1,0,0l0,0q-3.51,2-6.88,3.6a.47.47,0,0,0-.17.15.46.46,0,0,0-.06.23V35.92a.41.41,0,0,0,.06.23.46.46,0,0,0,.22.17.36.36,0,0,0,.25,0l6.64-1.8q3.8-1,5.88.07s0,0,0,0q2.16,1.06,2.56,4.21l0,.06V95.09a.42.42,0,0,0,.06.21.36.36,0,0,0,.15.15.42.42,0,0,0,.21.06,107.11,107.11,0,0,1,21,1.71.31.31,0,0,0,.25,0,.25.25,0,0,0,.17-.15.38.38,0,0,0,.08-.23V10.07A.32.32,0,0,0,297.32,9.82Z"/><path class="cls-2" d="M290.13,0l-.26.23Q277,12.68,266.6,16.2l-.42.17,0,4.74q-3.51,2-6.88,3.58l-.35.17V37.57l8.22-2.22q3.42-.9,5.31,0a4.38,4.38,0,0,1,2.12,3.51V96.38h.65a105.2,105.2,0,0,1,22.26,1.82l.76.15V90.48q2.61.84,5.37,2l.89.34-.12-89.52L290.13,0m-2.77,7.51L297,10.07V96.82a107.26,107.26,0,0,0-21.13-1.73V38.8l0,0q-.45-3.42-2.8-4.55t-6.19-.11l-6.65,1.8V25.66q3.38-1.57,6.9-3.62h0a0,0,0,0,0,0,0A146.56,146.56,0,0,0,287.36,7.51Z"/></g></g></g></svg>