
<svg xmlns="http://www.w3.org/2000/svg" version="1.1" xmlns:xlink="http://www.w3.org/1999/xlink" preserveAspectRatio="none" x="0px" y="0px" width="500px" height="500px" viewBox="0 0 500 500">
<defs>
<g id="avatar7v2_9_Layer1_0_FILL">
<path fill="#3E401F" stroke="none" d="
M 8.5 -34.45
L 8.45 -34.45
Q -6.71875 -40.555859375 -17.55 -27.75
L -18.05 -27.75 -18.6 -27.05
Q -22.71171875 -22.08046875 -22.5 -15.9 -22.703125 -15.7060546875 -22.9 -15.55 -25.0203125 -13.9140625 -25.55 -10.75
L -26.3 -10.6
Q -26.6517578125 -10.5380859375 -27.4 -10.45
L -28.25 -10.3 -28.75 -9.6
Q -30.313671875 -7.3736328125 -31.6 -5.55 -38.00625 -1.4546875 -42.55 1.4
L -43.45 2 -43.45 3.05
Q -43.504296875 6.179296875 -43.35 8.3
L -43.3 9.35 -42.3 9.9
Q -35.6236328125 13.534765625 -31.05 15.9 -30.9775390625 19.3619140625 -30.85 23.7
L -30.8 25.05 -29.55 25.5
Q -26.2619140625 26.775390625 -22.3 28.3 -13.6240234375 31.625390625 -1.6 36.3
L -0.85 36.6 -0.15 36.3
Q 20.4904296875 28.37890625 29.3 25.2
L 30.7 24.75 30.65 23.25
Q 30.49296875 18.737109375 30.45 16.05 37.72578125 12.7671875 42.3 10.75
L 43.5 10.25 43.5 2.85 42.8 2.25
Q 33.7388671875 -5.8361328125 29.15 -10
L 28.7 -10.35 28.2 -10.45
Q 26.323828125 -10.8408203125 24.3 -11.25 23.355078125 -13.737109375 21.9 -14.6 22.7802734375 -20.9392578125 16.05 -28.5 12.57265625 -32.3791015625 8.6 -34.4
L 8.5 -34.45 Z"/>
</g>

<g id="avatar7v2_9_Layer0_0_FILL">
<path fill="#9C9D4D" stroke="none" d="
M 19.65 -7.1
Q 20.05 -8.75 19.25 -9.6 18.75 -10.1 17.65 -10.3 17.1 -10.45 16.55 -10.1 16.35 -9.9 16.15 -10.1 15.95 -10.15 15.95 -10.35 16.45 -13.2 16.55 -14.45 16.8 -16.5 16.25 -18.2 15.15 -21.85 10.8 -25.75 5.5 -30.45 -0.4 -30.45 -6.4 -30.45 -11.7 -25.9 -16.05 -22.1 -17.15 -18.4 -17.6 -16.8 -17.45 -14.55 -17.25 -13.25 -16.85 -10.35 -16.8 -10.15 -17.05 -10.1 -17.2 -9.9 -17.45 -10.1 -18 -10.45 -18.55 -10.3 -19.75 -10.1 -20.2 -9.55 -21.05 -8.6 -20.45 -6.7
L -25.45 -5.65 -30.45 0 -38.3 4.5 -38.3 5.9 -25.45 13.8 -25.1 21.45 -0.25 30.5 24.9 21.15 24.9 13.1 38.3 6.75 38.3 5.2 25.15 -5.9 19.65 -7.1 Z"/>
</g>
</defs>

<g transform="matrix( 5.106536865234375, 0, 0, 5.106536865234375, 250.4,257.7) ">
<g transform="matrix( 1, 0, 0, 1, 0,0) ">
<g transform="matrix( 1, 0, 0, 1, 0,0) ">
<use xlink:href="#avatar7v2_9_Layer1_0_FILL"/>
</g>

<g transform="matrix( 1, 0, 0, 1, 0,0) ">
<use xlink:href="#avatar7v2_9_Layer0_0_FILL"/>
</g>
</g>
</g>
</svg>
