<svg xmlns="http://www.w3.org/2000/svg" viewBox="0 0 296.19 239.66"><defs><style>.cls-1{fill:#745e47;}.cls-2{fill:#614e3a;}</style></defs><g id="Layer_2" data-name="Layer 2"><g id="Layer_1-2" data-name="Layer 1"><path class="cls-1" d="M293.56,238.26,291.81,2.41q-10.2,12.15-14.14,16.77L275.3,218.42q11.77,11.94,18.26,19.84M18,18.92Q9.18,10.4,4.42,5.69L2.89,236.5,19.44,217Z"/><path class="cls-2" d="M277.67,19v.13Q285.64,9,290.36,3.2L1.84,2.93Q8.31,8.78,20.58,19.62l256.17.48c.26-.34.57-.72.92-1.14M19.88,218.81q-6.16,5.85-16.42,17.87l286.86-.31q-6.44-7.85-15.37-17.73Q253.52,220.2,19.88,218.81Z"/><path d="M296.19,239.66V0H0V239.66H296.19M289.31,6.92V230.33q-3.06-2.67-10.77-9.15V20.32A23.77,23.77,0,0,0,281,17.38c1-1.4,1.68-2.32,2.06-2.75q6-7.28,6.26-7.71M14.23,13A86.56,86.56,0,0,0,7.14,6.44H285.42q-4.21,5.47-8.28,10.94H18.35A35.35,35.35,0,0,0,14.23,13M6.66,10.77q4.9,4.52,9.8,8.89V219.08q-1.35,2.05-1.62,2.58-.64.75-8.18,8.54V10.77M9.81,232.65c1-1.17,2.73-3.06,5.12-5.69a46.58,46.58,0,0,0,3.64-4.42h256.6c.23.17,1.2,1.27,2.89,3.28a87.55,87.55,0,0,0,6.79,6.83H9.81m263.43-210V217.94H21.72V22.68Z"/></g></g></svg>