<svg xmlns="http://www.w3.org/2000/svg" viewBox="0 0 315.27 104.14"><defs><style>.cls-1{fill:#39c9fe;}.cls-2{fill:#00a;}</style></defs><g id="Layer_2" data-name="Layer 2"><g id="Layer_1-2" data-name="Layer 1"><path class="cls-1" d="M251,13.66l-.11.06q-.43.42-7.34,1.44a40.56,40.56,0,0,1-16.12-.93h-.12l-.11.08a.69.69,0,0,0,0,.13l.66,21.38-.3-.23s0,0,0,0q-15-12.15-23.46-7l-.06,0,0,0q-1.53.82-6.43,1.29c-.05-.11-.11-.21-.17-.32l0,0v0q-5.35-6.34-11.63-5.48T172.07,33.1l-.38.4.1-5.21a.35.35,0,0,0-.06-.23h0a.58.58,0,0,0-.19-.15l0,0a.57.57,0,0,0-.26,0h0a162.77,162.77,0,0,1-19.5,3.37q-11.67,0-17.39-1.06l-1.73-.34c-1.49-.57-2.88-1-4.19-1.42L121,26.33h0A69.25,69.25,0,0,0,105.73,24l-2-.11-3.28-.08a.45.45,0,0,0-.27.1l0,0a.43.43,0,0,0-.13.28q-.21,3.64-.36,7.11a7.31,7.31,0,0,1-3.13-.38s0,0,0,0q-7-5.51-20.88-3.44a39.43,39.43,0,0,0-14,4.46,25.18,25.18,0,0,0-2.2,1.42l-.95.74q-3.85-3.48-8.55-7.58Q46,12,26.65,9h-.06a101.91,101.91,0,0,0-19.4.43c-2,.23-4,.53-6,.88a.39.39,0,0,0-.23.15h0a.5.5,0,0,0-.08.26L.42,98a.34.34,0,0,0,.09.24l0,0a.33.33,0,0,0,.19.16s0,0,0,0a.53.53,0,0,0,.25,0H1a68.56,68.56,0,0,1,21.77-1.93h0c0,.17,0,.39,0,.68a.35.35,0,0,0,.07.15.21.21,0,0,0,.15,0,.16.16,0,0,0,.14,0,.18.18,0,0,0,.07-.15q.52-6.4.86-11.17,3.6.38,5.82.74,1,10.51,1.1,10.55h0a.35.35,0,0,0,.26.15,138.31,138.31,0,0,1,19.63,4.51.36.36,0,0,0,.25,0,.31.31,0,0,0,.19-.13h0a.4.4,0,0,0,.09-.21v0q.48-4.69.78-8.82c.19-.6.38-1.22.55-1.84,0,.54-.07,1.08-.11,1.63v.12h0c.08.33.16.65.26,1h0q2.91,10.73,19.54,9.6t23.46-9.65a22.75,22.75,0,0,0,3.58-6.79,1.47,1.47,0,0,0,.08-.25l.76.36q4.2,13,19.15,11.06a15.5,15.5,0,0,0,8.84-4.53l.42-.4-.5,6.29h0a.54.54,0,0,0,.06.25.51.51,0,0,0,.19.17q8.3,3.75,25.43,2.49h0a.37.37,0,0,0,.25-.1h0a.41.41,0,0,0,.13-.23v0a93.86,93.86,0,0,0,16.14-2.59.36.36,0,0,0,.23-.14h0a.36.36,0,0,0,.09-.26l.06-6q4-1,6.07-1.31a8.2,8.2,0,0,1,1.52-.08.66.66,0,0,1,.32.06q0,2.67,0,5.46h0a.41.41,0,0,0,.06.23v0a.48.48,0,0,0,.2.15.37.37,0,0,0,.25,0h0a45.49,45.49,0,0,1,20.79.11.57.57,0,0,0,.26,0h0a.39.39,0,0,0,.19-.17v0a.34.34,0,0,0,.08-.23c.06-1.56.12-3.09.17-4.59a3.93,3.93,0,0,0,.68-.15q5.13,8.3,15.25,8.78h.11a16.73,16.73,0,0,0,9.64-3.35l.36-.27,0,4.76a.37.37,0,0,0,.11.27.33.33,0,0,0,.25.15,42.75,42.75,0,0,0,21.43-2.11h0a.35.35,0,0,0,.19-.17v0a.4.4,0,0,0,.08-.23l2.39-86.31a.15.15,0,0,0,0-.13.25.25,0,0,0-.23-.1Z"/><path class="cls-2" d="M256.39,3.46l-.87.34a54.63,54.63,0,0,1-21.43,3.47l-.63,0v7.89a31.77,31.77,0,0,1-5.69-1.1l-.81-.22V22.2q-10.22-2.93-15.84-1.06l0,0h0a15.08,15.08,0,0,0-5.41,3.62q-1.6-6.76-11.17-9.39l-.11,0a15.26,15.26,0,0,0-14.87,6.28l.07-5.29-.89.38q-9.42,4.13-23.5,6h0a96.51,96.51,0,0,1-20.1-.82l-.72-.09-.08,7.45q-2.47-.45-5.21-1.06l.09-7.23-.53-.11a195.72,195.72,0,0,1-22.25-5.56l-.85-.26.11,8L102.81,23q-6.23-7.79-20.58-4.23h0Q65.29,24,62.43,30.45a26.81,26.81,0,0,0-2.78,1.65q-.57-13.49-9-21.6l0,0,0,0Q33.27-2,7.62,1.56L7,1.62l.15,7q-3.35.4-6.68,1L0,9.7l.06,89,.77-.15a82.11,82.11,0,0,1,22.5-1.23l.7,0V88.9c2,.32,4,.7,6,1.14l.06,8,.53.06a138.31,138.31,0,0,1,20.81,4.81l.74.23.09-.76c.23-2.26.42-4.42.59-6.48q4,9.18,19.72,8.11,17.17-1.2,24-10a22.18,22.18,0,0,0,3.3-5.94q4.64,12.61,19.74,10.62h0a16.5,16.5,0,0,0,8.1-3.64l-.4,5.05.44.17A48.35,48.35,0,0,0,147.27,103h0a99.56,99.56,0,0,0,23.84-3l.48-.12.07-6.94a56,56,0,0,1,6.22-1.23v6.88l.78-.17a44.65,44.65,0,0,1,21.91.12l.77.17,0-.76c0-1.29.09-2.57.12-3.83q5.35,7.47,15.17,7.91h.09a18.2,18.2,0,0,0,9.13-2.77l0,4.17.53.06a43.69,43.69,0,0,0,22.81-2.22l.42-.15-.06-5.39,7-2.41-.23-89.8m-8.82,11.32.82,85.4a42.49,42.49,0,0,1-21.22,2.09l.05-5.61-1,.79a16.39,16.39,0,0,1-9.41,3.25h-.07q-10.06-.47-15.08-8.84c0-.41,0-.82,0-1.23Q203,47.72,199.76,34a11.24,11.24,0,0,1,4.38-5l0,0q8.25-5,23,7l1,.8V15.5a33.33,33.33,0,0,0,5.23.93,35.08,35.08,0,0,0,14.11-1.65m-50.63,15a15.33,15.33,0,0,1,1.48,4.09Q193.28,45,195.55,74.3q.84,10.4,4.23,16.86c.18.36.37.71.57,1-.06,1.59-.13,3.22-.19,4.87a45.8,45.8,0,0,0-21-.13q0-2.79,0-5.46.08-43.54-.69-49A11.72,11.72,0,0,0,177,37.6a2.55,2.55,0,0,0-3.08-1.23c-.82.2-1.74,1.08-2.78,2.65l-.1.15-.66,59.67a97.4,97.4,0,0,1-21.3,2.84l-1.37,0q.12-4.7.21-10.39.41-22.17.7-59.34l.82-.06a154.6,154.6,0,0,0,22-3.62l-.13,6.33,1.14-1.25q7.13-8,13.31-8.93t11.25,5.33M129,29.52a.2.2,0,0,0,.1,0q2.73.62,5.21,1.08a71.59,71.59,0,0,0,13,1.42q-.28,36.62-.68,58.66-.1,6.08-.23,11a46.82,46.82,0,0,1-17.73-2.43l.59-7.41-1.22,1.19a15.28,15.28,0,0,1-8.61,4.4q-14.64,1.94-18.73-10.87a2,2,0,0,0,0-.24c0-.11,0-.23,0-.34q3-9.26,3.28-25.3.32-19.17-3.91-26.86.19-4.68.48-9.69l3.26.08,2,.11a68.86,68.86,0,0,1,15.16,2.35q-.16,6.45-.17,18.93,0,14.48.07,25a.6.6,0,0,0-.11.38c0,.76.09,1.5.13,2.2v.13q-.08,1.4.25,7.19.42,7.69,3.75,8.23,2,.57,2.92-3.61a57.28,57.28,0,0,0,.8-10.73q.11-14.13.49-44.91M200.41,89.6a45.17,45.17,0,0,1-3.59-15.4q-2.1-26.82,2.09-38.19,2.72,14.3,1.5,53.59M59.7,33.65a24.12,24.12,0,0,1,2.15-1.4,39.13,39.13,0,0,1,13.86-4.4q13.74-2,20.58,3.38a10.44,10.44,0,0,1,2.41,2.94q-1.56,35.11.64,51.73c-.07.24-.15.47-.23.69a23,23,0,0,1-3.51,6.69q-6.64,8.34-23.15,9.48-16.23,1.09-19.12-9.29v0a8.06,8.06,0,0,1-.23-.91c.11-1.59.21-3.13.29-4.61Q54.47,68,50.94,63.75l0,0L50.43,63Q50.49,44,56.19,37a18.85,18.85,0,0,1,3.51-3.32m40.17,3q3,7.82,2.77,24.09-.23,13.45-2.39,22.07-1.65-16-.38-46.16m-50.31-10q2.76,15,0,21.62Q46.91,54.5,39,52.75l-1.82-.34-.24.7,1.65.84a28.17,28.17,0,0,1,10.58,9.42,154.83,154.83,0,0,0,1.46,23.22q.51,3.28,1.19,6c-.2,2.76-.46,5.7-.79,8.85A137.53,137.53,0,0,0,31.33,97L31.1,61.65l0,0q-.63-5.4-7.7-5.31l-.62,0V96A84,84,0,0,0,1.33,97.17L1.27,10.76q3-.54,6-.89a102.3,102.3,0,0,1,19.36-.42q19,2.94,23,17.19m2.56,61.24c0-.19-.07-.4-.1-.61a143.19,143.19,0,0,1-1.59-22q2.61,4.81,1.71,22c0,.19,0,.38,0,.55M23.4,22.43l-.64,0V43l.38.15q5.1,2.11,7.3-1.34,2.1-3.07,1.5-11.23v0q-.89-8.19-8.54-8.15M71.71,63.18v0c0,6.09,0,11.87.09,17.32q.15,8.74,3.11,9.35a2.68,2.68,0,0,0,3-.53,6.2,6.2,0,0,0,1.61-3.42l0,0v-.07q1.7-30.7.65-42.29l0,0v0c-.54-2.5-1.86-3.74-4-3.7q-4.09-.14-4.26,7.47-.15,6.84-.21,16m156.1-19,0,0v0c-.54-2.5-1.87-3.74-4-3.7-2.73-.09-4.14,2.4-4.25,7.46q-.15,6.85-.21,16v0q-.09,9.15.08,17.33.16,8.74,3.11,9.35a2.7,2.7,0,0,0,3-.53,6.13,6.13,0,0,0,1.61-3.43l0,0v-.06Q228.85,55.79,227.81,44.2Z"/><path class="cls-1" d="M297.3,12.49l-.06,0Q286.1,3.48,271,7l-.46.11-.11,0q-14.92,7.71-13.68,32.49a.36.36,0,0,0,.08.23A.38.38,0,0,0,257,40a.39.39,0,0,0,.26,0,64.76,64.76,0,0,1,18.7-2.9.29.29,0,0,0,.21-.06.36.36,0,0,0,.15-.15.45.45,0,0,0,0-.23c-.07-1.66-.11-3.21-.11-4.63q0-6.88,1.23-10.18a5,5,0,0,1,2.26-2.92.35.35,0,0,0,.19-.17l0,0h0a.2.2,0,0,1,.14-.06c.35,0,.68,0,1,0h0l.25,0h0l.36,0,0,0a5.89,5.89,0,0,1,2.86,1.32h0q9.45,8.43-28.07,66a.4.4,0,0,0-.06.23q0,7,0,12.69a.55.55,0,0,0,.06.26.41.41,0,0,0,.21.14.39.39,0,0,0,.26,0q18.4-4.9,48.14,2.49a.46.46,0,0,0,.26,0,.4.4,0,0,0,.19-.15.44.44,0,0,0,.08-.25l-.08-13.41a.4.4,0,0,0-.09-.24.31.31,0,0,0-.19-.14,81.09,81.09,0,0,0-25.21-5.31l-.4,0,.25-.34Q297,61.54,303.31,49.15a.2.2,0,0,0,0-.08Q313.7,25.55,297.3,12.49Z"/><path class="cls-2" d="M278.13,1.11A23.12,23.12,0,0,0,271.66,6l-.85.19-.55.12h-.08l-.06,0q-15.75,8-14.18,34.17l0,.82.83-.27a63.47,63.47,0,0,1,19.86-3.11l.66,0,0-.66c-.1-1.9-.15-3.65-.15-5.24v-.09c2.31-.23,4.71-.37,7.21-.4a73.24,73.24,0,0,1,.09-10.45q7.8,8.86-28.62,64.75l-.11.17v.19q0,7.62,0,13.71v.8l.81-.19q18.63-5.28,49.28,2.48l.81.19,0-8.25c2.32.5,4.69,1,7.13,1.67l-.11-14.66A81.34,81.34,0,0,0,288,76.44q16.94-20.56,23.25-33,10.49-23.74-6.07-36.93-11.44-9.25-27-5.44m3.75,17.24h0c-.14,0-.29-.05-.45-.06l-.27,0c-.31,0-.65-.05-1-.05a.61.61,0,0,0-.44.19l-.11.11a5.25,5.25,0,0,0-2.47,3.17Q275.88,25,275.87,32c0,1.43,0,3,.11,4.65a64.78,64.78,0,0,0-18.81,2.92q-1.23-24.46,13.45-32.09l.47-.11Q286,3.94,297,12.81h0Q313.19,25.74,302.9,49l0,0q-6.29,12.36-23.17,32.85l-.8,1,1.25.06a80.8,80.8,0,0,1,25.08,5.27l.09,13.41Q275.52,94.1,257,99q0-5.69,0-12.69,37.75-58,28-66.57A6.42,6.42,0,0,0,281.88,18.35Z"/></g></g></svg>