<svg xmlns="http://www.w3.org/2000/svg" height="500px" width="500px" viewBox="0 0 500 500">
    <defs><style>.cls-1{fill:#102757;}.cls-2{fill:#2a63d9;}</style></defs>
    <g id="Layer_2" data-name="Layer 2">
        <g id="Avatar11">
            <path id="outline" class="cls-1" d="M 363 137.75 l -0.83 -6 l -5.39 2.91 a 76.43 76.43 0 0 0 -8.92 6.22 l 3.94 -31.94 q -14.8 9.52 -34.85 25.3 Q 304.09 70.77 249.3 50 q -2.64 23.9 -6.23 56.63 q -5.43 -30.84 -9.33 -53.31 q -59.44 21.62 -68.87 94 Q 144.47 145.57 127.94 144 l 0.62 3.12 a 68.72 68.72 0 0 0 5.19 14.52 l -15.14 -6 Q 120.37 186 130.84 202.06 q -29.73 -1.4 -53.93 17 H 76.7 q -33.24 26.82 -25.1 66.8 v 0.21 l 0.21 0.41 Q 62.55 316 102.22 313.05 q -1.86 66.52 55.18 77.17 q 2.91 9.28 5 17.84 l 0.83 3.11 h 3.32 q 111.06 0.21 159.94 -1.25 l 2.7 -0.2 l 1 -2.29 q 11.73 -25 14.94 -45.63 q 13.14 -54.1 -37.34 -77.38 q -1.56 -10.26 -2.91 -19.5 Q 375.63 231.4 363 137.75 Z"/>
            <path id="fill" class="cls-2" d="M 291.41 118.25 a 91.08 91.08 0 0 0 -29 -35.47 q -0.21 18.47 0.21 45.64 q -13.49 -1.87 -35.27 -4.15 Q 225.65 107.05 223 82.78 Q 203 102.28 194.12 121.16 q -8.51 19.08 -8.92 48.75 q -21.16 -2.7 -35.89 -5.19 a 332.17 332.17 0 0 0 24.06 25.93 q -11 -3.32 -26.76 -7.47 q 16.19 46 38.79 61.2 A 87.42 87.42 0 0 0 210.71 256 q -2.9 16.38 -5.81 34.64 q -33.18 20.75 -30.28 64.1 Q 163 350.39 158 343.13 q -7.47 -10.59 -5.39 -22 A 54.43 54.43 0 0 1 161.34 300 a 28.14 28.14 0 0 1 1.45 -2.91 q 21.38 -31.11 0 -56.22 a 62.31 62.31 0 0 0 -15.56 -10.58 a 52.85 52.85 0 0 0 -16.39 -3.73 q -4.14 0.21 -6.43 0.41 a 54.15 54.15 0 0 0 -15.14 3.32 a 1.82 1.82 0 0 0 -0.83 0.21 a 16.6 16.6 0 0 1 -2.7 1.25 c -1.24 0.55 -2.55 1.17 -3.94 1.86 a 48.5 48.5 0 0 0 -15.56 13.49 a 45 45 0 0 0 -8.92 18.46 c -0.14 1.11 -0.34 2.28 -0.62 3.53 a 10.43 10.43 0 0 0 0.42 2.9 a 25.43 25.43 0 0 0 4.14 10.17 a 18.53 18.53 0 0 0 7.47 6.22 a 18.81 18.81 0 0 0 9.34 2.07 a 20.11 20.11 0 0 0 9.33 -2.69 a 19.72 19.72 0 0 0 7.26 -6.64 A 55.8 55.8 0 0 0 118 272.8 a 76.3 76.3 0 0 1 3.53 -8.3 a 29.35 29.35 0 0 1 6.43 -7.88 a 4.27 4.27 0 0 1 1.45 -1.25 a 10.32 10.32 0 0 1 7.68 0.42 a 13.77 13.77 0 0 1 5.18 5 a 16.91 16.91 0 0 1 2.29 7 a 44.2 44.2 0 0 1 -0.21 7.26 q -0.63 2.49 -11.62 26.76 q -11 24.07 0.83 47.3 q 10 18.89 43.77 24.69 q 1.45 7.05 3.74 14.52 q 85.26 -0.42 131.52 -3.53 q 24.06 -71.56 -29.66 -87.33 q -3.12 -23.66 -5.61 -44.19 A 87.93 87.93 0 0 0 314.85 229 q 28 -30.28 28.42 -64.52 q -5.81 4.15 -10.37 8.09 q -1.86 1.66 -17.22 14.52 q 12 -12 14.11 -37.34 Q 311.94 161.41 302.61 166 Q 303.45 144.18 291.41 118.25 Z"/>
        </g>
    </g>
</svg>