
<svg xmlns="http://www.w3.org/2000/svg" version="1.1" xmlns:xlink="http://www.w3.org/1999/xlink" preserveAspectRatio="none" x="0px" y="0px" width="500px" height="500px" viewBox="0 0 500 500">
<defs>
<g id="avatar0_2_Layer1_0_FILL">
<path fill="#5C1A22" stroke="none" d="
M 24.55 -30.55
L 24.6 -30.5
Q 24.48515625 -31.5853515625 24.25 -32.5 23.7 -34.75 21.05 -38.35 19.85 -39.6 16.65 -39.9 15.2412109375 -39.6033203125 14.05 -38.9
L 13.4 -38.55
Q 10.742578125 -36.6109375 9.25 -30.6 9.2228515625 -30.6302734375 8.95 -30.1 5.7 -30 0.05 -29.5 -2.65 -28.95 -8.4 -28.9 -8.63984375 -28.909765625 -8.8 -29.15
L -8.85 -29.2
Q -10.448828125 -31.4375 -11.95 -33.7
L -12.95 -35.05
Q -15.520703125 -38.2310546875 -19.45 -37.95 -19.75 -37.95 -20.7 -37.65 -24.7833984375 -35.7228515625 -24.65 -31.15
L -24.65 -31.1
Q -24.601171875 -30.0978515625 -24.6 -29
L -24.6 -28.95
Q -24.4978515625 -23.938671875 -22.55 -19.25 -22.7689453125 -18.191796875 -23 -17.2 -23.75 -13.5 -23.8 -12.95
L -23.8 -12.95
Q -24.1587890625 -9.6919921875 -23.95 -6.5 -25 -5.15 -27.3 -2.6 -29.25 -0.3 -30.3 1.55 -31.5 3.7 -31.95 6.1 -32.4 8.3 -32.15 10.05 -31.7833984375 12.580078125 -30 14.3 -29.9900390625 14.3578125 -30 14.4 -29.9654296875 14.4759765625 -29.95 14.5 -29.2921875 17.8490234375 -26.05 19.2 -23.95 19.6 -23.2 19.6 -22.599609375 22.5490234375 -21.15 25.3 -19.190625 29.082421875 -15.55 30.7 -15.121484375 32.7380859375 -14.2 34.6 -13.4478515625 36.098828125 -12.35 37.4
L -12.2 37.6
Q -10.6537109375 39.3939453125 -8.5 39.85 -7.7 40 -6.7 39.85 -4.7 39.6 -3.55 38.2 -2.8212890625 38.101171875 -2.2 37.8 -0.3212890625 37.2890625 1.45 34.05 2.2828125 38.2455078125 5.5 39.6 9.121875 40.5158203125 11.15 37.05 13.649609375 38.3275390625 14.85 36.1 19.1607421875 34.79921875 19.85 32.1
L 19.85 32.05
Q 20.14375 30.7447265625 20.25 29.35 20.864453125 28.8634765625 21.5 28.35
L 21.55 28.3 21.55 28.3
Q 23.07265625 26.987109375 23.8 25.25 25.8583984375 20.3625 25.95 15.35
L 26.1 15.2
Q 29.213671875 15.24765625 31 12.4
L 30.9 12.45
Q 32.4 9.35 32.25 7.7 32.02421875 5.3298828125 31.35 3.3
L 31.3 3.25 31.3 3.25
Q 29.712890625 -1.0037109375 27.35 -5.05
L 27.35 -5.1
Q 26.556640625 -6.457421875 26.1 -7.95
L 26.1 -8
Q 25.7076171875 -9.1978515625 25.75 -10.5 25.45 -23.9 24.55 -30.55
M 9.05 -30.1
L 9.05 -30.15 10.7 -30.1
Q 10.4962890625 -30.098828125 10.3 -30.1
L 9.05 -30.1 9.05 -30.1 9.05 -30.1 Z"/>
</g>

<g id="avatar0_2_Layer0_0_FILL">
<path fill="#E74255" stroke="none" d="
M 18.9 -32.9
Q 18.75 -33.45 17.75 -34.65 17.45 -35.25 16.45 -34.55 15.3 -33.7 15.1 -33 14.75 -32.3 14.5 -31.55 13.85 -28.85 13.2 -27.2 12.7 -25.65 12.4 -24.8 11.4 -24.9 10.15 -25.15
L 8.3 -25.15 2.15 -24.5
Q -3.9 -23.85 -4.7 -23.85
L -8.3 -23.9
Q -9.15 -23.85 -10.2 -24.15 -11.2 -24.45 -11.8 -25.1 -12.7 -25.85 -12.95 -26.25
L -16.1 -30.95
Q -17.25 -32.6 -18.1 -32.9 -18.7 -33.05 -19 -32.95 -20.2 -31.85 -19.35 -28.05 -19.3 -25.45 -19.15 -25.05 -18.75 -23.15 -18.15 -21.5 -17.55 -20.3 -17.25 -19.65 -17.4 -19.4 -18.35 -15.45
L -18.95 -12.25
Q -19.1 -11.5 -19.1 -9.7
L -18.7 -4.85
Q -20.6 -3.25 -26.25 4.5 -27.25 6.35 -27.25 8.1
L -27.15 9.5
Q -26.85 10.8 -25.85 10.8
L -24.9 10.6
Q -25.2 11.6 -25.2 12.35 -25.2 14.55 -23.2 14.55 -22.35 14.55 -20.25 13.55 -19.35 13.1 -18.95 12.8
L -18.85 14.15
Q -18.55 16.6 -18.35 18.3 -16.95 25.9 -11.2 26.75
L -10.35 30.9
Q -9.6 33.85 -8.3 34.55 -6.95 35.5 -6.15 32.7 -5.85 32.8 -5.05 33.1 -3.75 33.6 -3.45 31.15 -2.45 31.6 -2.2 31.6 -1.2 31.6 -0.85 29.85
L -0.7 27.6
Q 3.65 27.45 5 27.35
L 5 27.45 5.6 31.2
Q 6.45 34.85 7.7 34.85 8.5 34.85 8.95 33.9
L 9.45 32.7
Q 9.65 33 9.95 33.2 10.3 33.6 10.75 33.6 11.65 33.6 12.1 32.5
L 12.4 31.15 12.95 31.7
Q 13.35 31.9 13.65 31.9 14.8 31.9 15.15 29.95 15.3 26.7 15.25 26.35 16.7 26.2 18.1 24.75 21.1 21.2 20.95 12.2 22.9 12 23.35 10.8 23.75 9.55 23.35 8.6
L 24.1 9.35
Q 24.95 10.15 25.9 10.15 26.45 10.15 26.85 9.65 28.55 5.95 20.85 -6.2
L 20.55 -11.25
Q 20.55 -12.55 20.65 -13.6
L 20.65 -16.9
Q 20.55 -19.5 20.35 -21
L 20.35 -24.15
Q 20.05 -25.25 19.9 -27.1
L 19.55 -29.65
Q 19.15 -32.3 18.9 -32.9 Z"/>
</g>
</defs>

<g transform="matrix( 5.106536865234375, 0, 0, 5.106536865234375, 250.4,257.7) ">
<g transform="matrix( 1, 0, 0, 1, 0,0) ">
<g transform="matrix( 1, 0, 0, 1, 0,0) ">
<use xlink:href="#avatar0_2_Layer1_0_FILL"/>
</g>

<g transform="matrix( 1, 0, 0, 1, 0,0) ">
<use xlink:href="#avatar0_2_Layer0_0_FILL"/>
</g>
</g>
</g>
</svg>
