
<svg xmlns="http://www.w3.org/2000/svg" version="1.1" xmlns:xlink="http://www.w3.org/1999/xlink" preserveAspectRatio="none" x="0px" y="0px" width="500px" height="500px" viewBox="0 0 500 500">
<defs>
<g id="avatar5v2_7_Layer1_0_FILL">
<path fill="#3F214C" stroke="none" d="
M 10.95 -33.9
Q 10.6046875 -34.0833984375 10.2 -34.1 3.9884765625 -35.9228515625 -1.55 -35.6 -2.1875 -35.6001953125 -2.8 -35.55 -8.512890625 -35.1009765625 -15.55 -31.5 -15.9396484375 -31.3796875 -16.35 -31.1 -22.2916015625 -27.99453125 -24.7 -25.3
L -25.2 -23.95 -25.25 -23.9 -24.7 -25.3
Q -27.125 -22.81953125 -28.7 -17.6 -28.896484375 -17.18203125 -28.9 -16.8 -29.474609375 -14.9306640625 -29.8 -13.1
L -29.8 -13.05
Q -31.590625 -2.0212890625 -25.9 10.4 -26.2546875 11.1111328125 -27.45 12.4
L -27.4 12.3
Q -27.796484375 12.7431640625 -28 13.35
L -28.1 13.65 -28.1 14
Q -28.1041015625 14.4626953125 -27.95 14.9
L -27.95 14.95
Q -25.199609375 22.8529296875 -20.15 24.85
L -20.25 24.85
Q -19.79375 25.10546875 -19.1 25.1
L -18.85 25.05
Q -17.7408203125 25.1240234375 -17.35 26.8
L -17.2 27.25
Q -17.15 27.35 -17.1 27.45
L -16.75 27.95
Q -16.530859375 28.2544921875 -15.95 28.45 -15.16875 28.8197265625 -14.25 29.25 -11.7087890625 33.59296875 -5.6 34.2 -1.2923828125 37.24140625 4.45 34.1 5.428125 34.9220703125 6.85 34.95
L 6.8 34.9
Q 9.3802734375 35.5099609375 13.85 31.65
L 13.9 31.6 13.95 31.55
Q 14.2236328125 31.3228515625 14.4 31.05 14.66171875 30.5732421875 14.7 30 14.7333984375 29.719921875 14.75 29.4 17.103125 28.391015625 17.9 26.65
L 18.15 25.95
Q 18.5259765625 24.98828125 19.4 24.85 24.208203125 24.398828125 26.1 21.5 26.126953125 21.464453125 26.15 21.4 26.4896484375 20.9779296875 26.8 20.4
L 26.8 20.45
Q 28.0576171875 18.419140625 29.6 14.9
L 29.65 14.8 29.7 14.7
Q 29.87421875 14.2017578125 29.85 13.85
L 29.8 13.45 29.75 13.2
Q 29.6517578125 12.910546875 29.55 12.7
L 29.3 12.3
Q 28.1845703125 10.971875 26.85 9.35 26.696484375 9.1369140625 26.5 8.9 26.5763671875 8.92109375 26.7 8.75
L 27.3 8.2 27.3 7.55
Q 27.735546875 5.8427734375 28.8 2.35
L 28.8 2.3 28.9 1.9 28.95 1.85
Q 30.3126953125 -2.5470703125 30.25 -5.65
L 30.25 -5.7
Q 30.25 -5.8 30.25 -5.85
L 30.25 -6
Q 30.051953125 -9.1203125 29.85 -11.55
L 29.85 -11.6
Q 29.560546875 -15.8724609375 26.2 -21.55 23.5037109375 -26.1982421875 20.4 -29.05
L 19.8 -29.55 19.8 -29.55
Q 16.896875 -32.1552734375 10.95 -33.9 Z"/>
</g>

<g id="avatar5v2_7_Layer0_0_FILL">
<path fill="#9D53BE" stroke="none" d="
M 16.9 -25.5
Q 14.5 -27.8 9 -29.35 2.95 -31.15 -2.4 -30.65 -7.45 -30.2 -13.7 -26.95 -19 -24.25 -21.1 -22 -22.9 -20 -24.1 -15.8 -25.5 -11.05 -25.1 -6.15 -24.65 -1.8 -22.7 4.6 -21.65 7.85 -20.55 10.95 -20.35 11.65 -21.5 13.1 -22 13.85 -22.55 14.45
L -21.2 17
Q -19.65 19.6 -19.05 19.7 -16.85 20.05 -16.35 20.2 -14.3 20.75 -13.85 21.7 -13.45 22.45 -13.05 22.95 -12.8 23.35 -12.7 23.65 -12.65 24.1 -11.05 24.85 -10.3 25.2 -9.55 25.5
L -9.7 25.7
Q -9.75 26.05 -9.55 26.7 -9.35 27.35 -8.7 27.8 -8.15 28.15 -7.7 28 -7.45 27.95 -7.1 26.65
L -6.9 25.35 -5.95 25.3 -6.05 28.35
Q -6.05 28.85 -5.3 29 -4.9 29.15 -4.05 29.2 -3.65 29.25 -3.55 28.35
L -3.55 27.35 -3 27.2
Q -2.45 27.15 -2.6 27.9 -2.6 28.2 -2.6 29.2 -2.6 30.2 -2.45 30.25 -2.05 30.8 -0.6 30.75 0.1 30.75 0.8 30.6
L 0.45 27.35 1.2 26.9
Q 2.25 26.55 2.95 26.8 4 26.25 5.25 26.1 5.85 26.1 6.25 26.2
L 6.55 27.45
Q 6.85 28.8 7.25 29.35 7.85 30.15 8.95 29
L 9.95 27.7 9.95 26.5
Q 11.8 25.45 12.95 24.45 13.1 24.35 13.6 22.95 14.05 21.55 14.95 20.95 15.8 20.4 18 20.1 20.3 19.85 20.7 19.7 21.6 19.3 22.9 17.4 24.2 15.5 24.2 14.45 23.6 13.7 22.95 12.75 21.7 10.9 21.7 9.95 21.7 8.9 22.3 6.6 22.75 4.7 24.1 0.25 25.2 -3.3 25.2 -5.8 25 -8.9 24.8 -11.3 24.5 -14.65 21.85 -19.15 19.55 -23.05 16.9 -25.5
M -2.7 6.05
Q -2.7 7.65 -4.4 10 -6 12.3 -7.2 12.5 -8 12.7 -10.75 12.15 -13.6 11.6 -14.4 11.7 -15.6 11.8 -16.85 8.9 -18 6.05 -17.75 4.05 -17.75 3.95 -17.7 3.9 -17.25 1.7 -13.35 1.55 -10.85 1.4 -7.2 2 -5.05 2.4 -3.9 3.35 -3.1 4 -2.8 5 -2.7 5.5 -2.7 6.05
M -3.55 15.65
Q -3.35 14.95 -2.35 13.6 -1.2 12.2 -0.85 11.7 -0.25 10.75 0 10.45 0.55 9.85 1.15 10 1.65 10.15 3.4 12.6 4.3 13.85 5.5 15.5 5.65 15.7 5.7 16.15 5.8 16.65 5.75 17.4 5.7 18.8 5.5 19.35 5.2 19.85 4 19.7 2.8 19.45 2.3 18.85 1.75 18.05 1.55 17.8 1.2 17.4 0.95 17.4 0.6 17.4 0.2 18 -0.1 18.4 -0.55 19.35 -0.9 20.1 -2.05 20.1 -3.25 20.1 -3.9 19.2 -4.1 18.85 -3.95 17.7 -3.95 17.45 -3.9 17.2 -3.8 16.45 -3.55 15.65
M 18.15 8.35
Q 18.15 10.15 17.05 11.05 16.15 11.75 13.1 12.85 10.6 13.7 8.95 13.05 8.3 12.9 7.55 12.35 6.75 11.7 6.25 11.35 4 9.7 3.75 6.2 3.75 5.7 3.9 5.3 4.3 4.1 5.85 3.4 6.35 3.15 9.95 2.2 11.7 1.7 14.3 2.1 16.55 2.4 17.75 3 18.2 3.25 18.4 3.8 18.5 4.3 18.45 5 18.35 5.95 18.15 8.35 Z"/>
</g>
</defs>

<g transform="matrix( 5.106536865234375, 0, 0, 5.106536865234375, 250.4,257.7) ">
<g transform="matrix( 1, 0, 0, 1, 0,0) ">
<g transform="matrix( 1, 0, 0, 1, 0,0) ">
<use xlink:href="#avatar5v2_7_Layer1_0_FILL"/>
</g>

<g transform="matrix( 1, 0, 0, 1, 0,0) ">
<use xlink:href="#avatar5v2_7_Layer0_0_FILL"/>
</g>
</g>
</g>
</svg>
