
<svg xmlns="http://www.w3.org/2000/svg" version="1.1" xmlns:xlink="http://www.w3.org/1999/xlink" preserveAspectRatio="none" x="0px" y="0px" width="500px" height="500px" viewBox="0 0 500 500">
<defs>
<g id="avatar7v2_8_Layer1_0_FILL">
<path fill="#3E401F" stroke="none" d="
M 5.6 -43.15
Q 4.482421875 -44.4115234375 2.55 -43.3 1.11875 -42.478515625 -0.9 -40.05 -4.6421875 -44.2005859375 -6.2 -43.25 -6.26171875 -43.2015625 -6.35 -43.15 -7.575 -41.657421875 -9.05 -35.45 -10.281640625 -30.03125 -10.65 -28.6 -14.8359375 -27.51796875 -17.05 -26.45 -18.0322265625 -25.9669921875 -18.6 -25.4 -18.6017578125 -25.3513671875 -18.65 -25.35 -19.4498046875 -24.5986328125 -19.45 -23.4 -19.453515625 -23.3638671875 -19.45 -23.35 -19.405859375 -23.0470703125 -19.3 -22.8
L -24.9 -23.2
Q -25.09140625 -23.210546875 -25.25 -23.1 -25.3890625 -22.9974609375 -25.45 -22.85 -25.4751953125 -22.6439453125 -25.4 -22.5 -21.951171875 -15.3708984375 -21.15 -13.7 -26.4455078125 -11.4599609375 -27.65 -8.95 -27.6671875 -8.8759765625 -27.7 -8.85 -28.4759765625 -5.8427734375 -25.7 -3.75 -28.0009765625 5.46328125 -29.75 15.2 -29.7509765625 15.373828125 -29.65 15.5 -29.55234375 15.687109375 -29.4 15.75 -21.967578125 18.288671875 -18.15 19.5 -16.937109375 23.01953125 -14.55 29.45 -14.450390625 29.63046875 -14.3 29.7 -14.1076171875 29.80390625 -13.95 29.75 -12.8828125 29.50546875 -11.45 29.1 -10.991015625 30.783984375 -10.3 33.15 -14.7673828125 34.2216796875 -14.7 37 -14.7048828125 37.048828125 -14.7 37.1 -14.4275390625 38.7814453125 -12 39.75
L -11.95 39.75
Q -6.8046875 41.5587890625 0.25 38.8 8.8498046875 42.5994140625 14.4 39.95 14.4634765625 39.9396484375 14.5 39.9 14.955859375 39.621484375 15.35 39.2 16.9318359375 37.4736328125 15.55 35.75 14.5208984375 34.34296875 11.25 32.95
L 12.55 28.75
Q 14.53203125 28.89609375 16.1 29 16.2904296875 29.005859375 16.4 28.9 16.5716796875 28.80859375 16.6 28.65 18.6109375 21.9662109375 19.45 18.65
L 29.15 15.95
Q 29.3642578125 15.929296875 29.45 15.75 29.578515625 15.6140625 29.55 15.4 28.1576171875 6.063671875 25.45 -3.8 29.402734375 -6.7701171875 28.65 -9.8 28.6640625 -9.8376953125 28.65 -9.9 27.613671875 -12.9365234375 22.05 -14.2 25.1552734375 -19.6302734375 27 -23 27.108984375 -23.1791015625 27.05 -23.4 27.00859375 -23.56640625 26.85 -23.7 26.68828125 -23.783203125 26.5 -23.75 22.898828125 -23.116015625 17.95 -22.3 19.6890625 -23.91640625 19.4 -25.1
L 19.35 -25.15
Q 19.0556640625 -26.4501953125 17.9 -27.55
L 17.85 -27.6
Q 16.9248046875 -28.3673828125 15.5 -29
L 15.5 -29
Q 12.8279296875 -30.3142578125 9.8 -31 7.6208984375 -39.567578125 5.65 -43.05 5.6294921875 -43.0787109375 5.6 -43.15
M -6 29.7
L -6.05 29.55 -6.1 29.45 -6.15 29.35 -5.8 29.45 -6 29.7 Z"/>
</g>

<g id="avatar7v2_8_Layer0_0_FILL">
<path fill="#9C9D4D" stroke="none" d="
M 11.6 -25.55
Q 10.9 -25.8 8.3 -25.9
L 6 -25.9
Q 4.25 -35.55 3.75 -36.55 3.3 -37.3 3.05 -37.4 2.7 -37.5 2.35 -36.7 1.5 -35.2 0.8 -34.05 -0.45 -32.2 -0.5 -32.15 -0.7 -32 -1.55 -33.2
L -3.95 -36.15
Q -4.35 -36.5 -4.5 -36.4 -4.7 -36.3 -5.6 -30.75
L -6.5 -25.2
Q -8.5 -24.75 -10.2 -24.25 -14 -23.25 -14.15 -22.85 -14.35 -22.5 -11.1 -22.35
L -7.15 -22.35 -7.95 -15.3 -17.65 -17.1
Q -17.6 -17 -16.35 -15.15 -14.8 -12.75 -13.6 -10.75 -15.2 -10.65 -17.2 -10.25 -21.05 -9.4 -22.6 -7.6 -23.4 -6.7 -22.4 -6.2 -21.95 -6 -21.3 -5.9
L -23.65 12.9 -15.2 16 -11.85 24.5 -8 24.5
Q -6.6 32.45 -6.55 33.3
L -4.7 33.2 -4.85 33.9
Q -5.2 34.6 -5.7 34.95 -6.15 35.25 -7.5 35.55
L -9.7 36.05
Q -10.95 36.4 -11 36.6 -11.15 36.85 -10.05 36.95 -9.35 37.05 -8.45 36.95 -4.8 36.35 -3.7 35.3
L -3.6 36.3 -2.45 36.3 -3.55 24.45 4.35 24.4 3.7 36.9 4.95 36.95 4.95 35.75 5.6 36.35
Q 6.9 37.15 9.15 37.4 10.45 37.5 11.3 37.35 13.4 37.05 10.9 36.4 8.85 36 8.7 35.95 7.3 35.6 6.9 35.35 6.4 35 6 34.2
L 5.75 33.5 7.6 33.55 8.6 24.4 13.4 24.35 15.75 14.05 23.65 13.1 20.4 -6.4 21.4 -6.65
Q 22.35 -7 22.6 -7.7 22.9 -8.5 20.25 -9.45 17.85 -10.3 14.35 -11 15.1 -12.1 16.7 -14.7 18.25 -17.25 18.3 -17.5
L 8.05 -15.25 6.85 -23.05 13.3 -24
Q 14.05 -24.1 13.35 -24.7 12.65 -25.2 11.6 -25.55 Z"/>
</g>
</defs>

<g transform="matrix( 5.106536865234375, 0, 0, 5.106536865234375, 250.4,257.7) ">
<g transform="matrix( 1, 0, 0, 1, 0,0) ">
<g transform="matrix( 1, 0, 0, 1, 0,0) ">
<use xlink:href="#avatar7v2_8_Layer1_0_FILL"/>
</g>

<g transform="matrix( 1, 0, 0, 1, 0,0) ">
<use xlink:href="#avatar7v2_8_Layer0_0_FILL"/>
</g>
</g>
</g>
</svg>
