
<svg xmlns="http://www.w3.org/2000/svg" version="1.1" xmlns:xlink="http://www.w3.org/1999/xlink" preserveAspectRatio="none" x="0px" y="0px" width="500px" height="500px" viewBox="0 0 500 500">
<defs>
<g id="avatar2v2_3_Layer2_0_FILL">
<path fill="#564713" stroke="none" d="
M 16.2 -34.4
L 15.45 -34.35
Q -8.034375 -32.700390625 -19.65 -32
L -20.35 -31.95 -47.25 -7.7 -45.85 -6.2
Q -32.8943359375 7.633203125 -29.25 12.25
L -27.85 13.95 -27.1 13.2
Q -27.6232421875 20.350390625 -28.5 32.25
L -28.65 34.4 29.1 34.4 28.9 32.15
Q 27.5736328125 20.0525390625 26.75 12.4 27.126953125 12.6224609375 27.5 12.85
L 29.05 13.8 47.15 -10.35 16.2 -34.4 Z"/>
</g>

<g id="avatar2v2_3_Layer1_0_FILL">
<path fill="#D8B230" stroke="none" d="
M 39.6 -9.55
L 15.7 -27.6 -18.35 -26.5 -39.65 -7.85 -27 6.65 -20.45 1.6
Q -21.6 17.9 -22.7 29
L 22.95 29
Q 21.45 16.75 19.55 1.15
L 27.85 6.45 39.6 -9.55 Z"/>
</g>
</defs>

<g transform="matrix( 5.106536865234375, 0, 0, 5.106536865234375, 250.4,257.7) ">
<g transform="matrix( 1, 0, 0, 1, 0,0) ">
<g transform="matrix( 1, 0, 0, 1, 0,0) ">
<use xlink:href="#avatar2v2_3_Layer2_0_FILL"/>
</g>

<g transform="matrix( 1, 0, 0, 1, 0,0) ">
<use xlink:href="#avatar2v2_3_Layer1_0_FILL"/>
</g>
</g>
</g>
</svg>
