<svg xmlns="http://www.w3.org/2000/svg" viewBox="0 0 500 500">
    <defs><style>.cls-1{fill:#102757;}.cls-2{fill:#2a63d9;}</style></defs>
    <g id="Layer_2" data-name="Layer 2">
        <g id="Avatar12">
            <path id="outline" class="cls-1" d="M 306.3 170.4 q 32.08 -19 79.58 -47.31 Q 388.63 92.52 391.71 50 L 102.89 54.28 q 2.46 47 3.54 69.92 q 29.09 21.54 48.28 35.21 q -18.83 6.81 -47.12 17.28 q 21.87 12.88 61.65 28.85 Q 132.37 223.42 100 240.67 L 176.67 266.5 q -37.43 14.46 -61.74 24 q 43.68 22.44 68.76 31.71 l 1.16 20.93 q 12.33 18.57 51.92 81.6 l 48.78 -80.88 q 0.82 -12.56 2.11 -28.15 a 559.34 559.34 0 0 0 55.89 -6.39 Q 329 296.29 309.9 279 q 17.5 -0.6 50.41 -2.12 Q 326 239 311 224.31 l 51.27 -26.09 Q 341.75 187.63 306.3 170.4 Z"/>
            <path id="fill" class="cls-2" d="M 275.63 184.24 l 0.62 -26.37 Q 306 142.3 360.07 108.22 l 3.64 -29 q -56.19 2.24 -234 6.48 l 1.1 26.09 Q 175.37 144.23 202 162.67 l -0.09 12.79 q -28.66 4.53 -50.35 7.7 Q 182.7 193.34 202 200.49 l 0.08 11.84 q -23.58 12 -56.71 25.88 q 39.89 11.68 56.8 17.51 l 0 25.51 q -20.7 4.23 -48.75 10.15 q 28.6 6 50 11 L 206.78 330 q 16.52 29.9 28.13 49.79 q 9.84 -15.39 30.09 -48.14 l 3.07 -33.34 q 18.59 -0.71 37.92 -2.75 a 212.46 212.46 0 0 0 -37.76 -25.95 l 0.53 -13.58 q 25.63 2 52.25 5 q -29.3 -26.85 -44.62 -40.3 q 23.42 -11.06 44.16 -19.77 q -26 -9.45 -44.92 -16.71"/>
        </g>
    </g>
</svg>