
<svg xmlns="http://www.w3.org/2000/svg" version="1.1" xmlns:xlink="http://www.w3.org/1999/xlink" preserveAspectRatio="none" x="0px" y="0px" width="500px" height="500px" viewBox="0 0 500 500">
<defs>
<g id="avatar5v2_0_Layer1_0_FILL">
<path fill="#3F214C" stroke="none" d="
M 5.35 -32.05
L 4.9 -31.7
Q 0.776171875 -28.12734375 -2 -25.65 -3.9125 -27.9607421875 -6.5 -31.05
L -7.05 -31.7 -7.9 -31.75
Q -18.1865234375 -32.2998046875 -25.05 -32.7
L -26.15 -32.75 -37.8 -16.7 -37.6 -15.8
Q -36.1119140625 -8.358984375 -33.5 5.65
L -33.35 6.35 0.5 35.25 1.8 34.05
Q 10.412109375 26.062890625 27.05 10.5
L 27.4 10.2 37.9 -16.95 37.3 -17.8
Q 30.715625 -27.30859375 26.5 -33.7
L 25.8 -34.75 24.55 -34.6
Q 17.0205078125 -33.4748046875 5.95 -32.15
L 5.35 -32.05 Z"/>
</g>

<g id="avatar5v2_0_Layer0_0_FILL">
<path fill="#9D53BE" stroke="none" d="
M 30.85 -15.95
L 21.95 -28.4 7.9 -27.05
Q 2.3 -21.45 -1.35 -17.65 -4.4 -20.65 -8.5 -24.6
L -15.05 -25.65 -23.75 -25.6 -30.8 -14.15 -27.45 2.05 -11.5 17.8 0.45 28.1 22.45 7.3 30.85 -15.95 Z"/>
</g>
</defs>

<g transform="matrix( 5.106536865234375, 0, 0, 5.106536865234375, 250.4,257.7) ">
<g transform="matrix( 1, 0, 0, 1, 0,0) ">
<g transform="matrix( 1, 0, 0, 1, 0,0) ">
<use xlink:href="#avatar5v2_0_Layer1_0_FILL"/>
</g>

<g transform="matrix( 1, 0, 0, 1, 0,0) ">
<use xlink:href="#avatar5v2_0_Layer0_0_FILL"/>
</g>
</g>
</g>
</svg>
