
<svg xmlns="http://www.w3.org/2000/svg" version="1.1" xmlns:xlink="http://www.w3.org/1999/xlink" preserveAspectRatio="none" x="0px" y="0px" width="500px" height="500px" viewBox="0 0 500 500">
<defs>
<g id="avatar3v2_6_Layer2_0_FILL">
<path fill="#244E31" stroke="none" d="
M 15.1 -26
L 8.8 -26 8.8 -36.8 -2.8 -36.8 -2.8 -34 -6.05 -34 -6.05 -26 -15.1 -26 -15.1 -17.35 -20.05 -17.35 -20.05 -13.75 -23.4 -13.75 -23.4 -10.15 -26.7 -10.15 -26.7 -4.3 -30 -4.3 -30 21.35 -26.7 21.35 -26.7 26.05 -23.4 26.05 -23.4 29.6 -20.05 29.6 -20.05 33.2 -14.8 33.2 -14.8 36.8 14.8 36.8 14.8 33.2 20.05 33.2 20.05 29.6 23.4 29.6 23.4 26.05 26.7 26.05 26.7 21.35 30 21.35 30 -4.3 26.7 -4.3 26.7 -10.15 23.4 -10.15 23.4 -13.75 20.05 -13.75 20.05 -17.35 15.1 -17.35 15.1 -26 Z"/>
</g>

<g id="avatar3v2_6_Layer1_0_FILL">
<path fill="#5BC37A" stroke="none" d="
M 18.65 -5.5
L 18.65 -8.55 15.7 -8.55 15.7 -11.6 9.95 -11.6 9.95 -20.7 1.25 -20.7 1.25 -29.8 -1.65 -29.8 -1.65 -20.7 -10.35 -20.7 -10.35 -11.6 -16.15 -11.6 -16.15 -8.55 -19 -8.55 -19 -5.5 -21.9 -5.5 -21.9 0.6 -24.85 0.6 -24.85 15.8 -21.9 15.8 -21.9 21.85 -19 21.85 -19 24.9 -16.15 24.9 -16.15 27.95 -10.35 27.95 -10.35 31 9.95 31 9.95 27.95 15.7 27.95 15.7 24.9 18.65 24.9 18.65 21.85 21.55 21.85 21.55 15.8 24.45 15.8 24.45 0.6 21.55 0.6 21.55 -5.5 18.65 -5.5
M 1.25 -32.85
L 1.25 -29.8 4.15 -29.8 4.15 -32.85 1.25 -32.85 Z"/>
</g>
</defs>

<g transform="matrix( 5.106536865234375, 0, 0, 5.106536865234375, 250.4,257.7) ">
<g transform="matrix( 1, 0, 0, 1, 0,0) ">
<g transform="matrix( 1, 0, 0, 1, 0,0) ">
<use xlink:href="#avatar3v2_6_Layer2_0_FILL"/>
</g>

<g transform="matrix( 1, 0, 0, 1, 0,0) ">
<use xlink:href="#avatar3v2_6_Layer1_0_FILL"/>
</g>
</g>
</g>
</svg>
