<?xml version="1.0" encoding="UTF-8" standalone="no"?>
<!DOCTYPE svg PUBLIC "-//W3C//DTD SVG 1.1//EN" "http://www.w3.org/Graphics/SVG/1.1/DTD/svg11.dtd">
<svg width="100%" height="100%" viewBox="0 0 1080 1080" version="1.1" xmlns="http://www.w3.org/2000/svg" xmlns:xlink="http://www.w3.org/1999/xlink" xml:space="preserve" xmlns:serif="http://www.serif.com/" style="fill-rule:evenodd;clip-rule:evenodd;stroke-linejoin:round;stroke-miterlimit:2;">
    <g transform="matrix(1.90627,0,0,1.90627,492.605,269.424)">
        <path d="M0,-10.508L-7.484,4.974L-6.388,22.938L22.708,13.865L35.571,12.441L59.539,16.447L57.719,0.889L48.355,-14.424L33.161,-21.706L13.754,-20.522L0,-10.508ZM68.23,-24.034L59.703,-8.622L59.703,9.874L89.697,2.388L102.798,1.732L126.798,7.342L125.918,-8.732L117.39,-25.025L102.468,-33.446L82.762,-33.446L68.23,-24.034Z" style="fill:rgb(138,99,78);fill-rule:nonzero;"/>
    </g>
    <g transform="matrix(1.90627,0,0,1.90627,615.514,285.535)">
        <path d="M0,3.682C4.964,-1.198 28.414,-12.473 57.756,1.949C57.756,1.949 56.207,9.953 52.597,14.413C44.316,24.645 26.181,36.475 9.398,19.873C5.719,16.233 1.441,10.45 0,3.682M58.506,-5.751C34.689,-22.151 6.389,-12.78 -1.053,-3.449C-1.267,-6.966 -0.841,-12.685 0.106,-16.301C2.239,-24.801 6.923,-31.051 14.156,-35.051C21.289,-39.085 28.856,-39.718 36.856,-36.951C44.756,-34.184 50.756,-28.851 54.856,-20.951C57.278,-16.285 58.294,-10.585 58.506,-5.751M-13.244,27.199C-17.777,35.199 -24.094,40.149 -32.194,42.049C-40.327,44.015 -47.861,42.332 -54.794,36.999C-60.365,32.76 -64.249,27.194 -66.444,20.299C-66.444,20.299 -57.127,11.349 -35.164,7.826C-18.375,5.134 -8.394,10.399 -8.394,10.399C-8.666,16.313 -10.283,21.913 -13.244,27.199M-68.294,11.349C-69.1,3.248 -67.533,-4.319 -63.594,-11.351C-59.094,-19.384 -52.777,-24.351 -44.644,-26.251C-36.577,-28.184 -29.061,-26.484 -22.094,-21.151C-15.161,-15.851 -10.811,-8.468 -9.044,0.999C-9.011,1.179 -8.978,1.363 -8.944,1.549C-20.797,-6.848 -45.403,-7.613 -68.294,11.349M65.556,-26.901C59.789,-38.068 51.306,-45.618 40.106,-49.551C28.873,-53.384 18.206,-52.484 8.106,-46.851C-0.113,-42.27 -6.013,-35.653 -9.594,-27.001C-10.617,-28.056 -11.701,-29.073 -12.844,-30.051C-22.144,-38.051 -32.577,-41.134 -44.144,-39.301C-55.611,-37.535 -64.911,-31.434 -72.044,-21.001C-79.077,-10.501 -81.827,1.282 -80.294,14.349C-78.727,27.415 -73.311,37.932 -64.044,45.899C-54.744,53.932 -44.327,57.066 -32.794,55.299C-21.261,53.465 -11.944,47.299 -4.844,36.799C-4.411,36.165 -3.994,35.515 -3.594,34.849C-1.857,32.002 -0.423,29.052 0.706,25.999C5.418,30.82 11.084,34.387 17.706,36.699C28.906,40.599 39.556,39.715 49.656,34.049C59.789,28.349 66.423,19.549 69.556,7.649C72.623,-4.218 71.289,-15.734 65.556,-26.901" style="fill-rule:nonzero;"/>
    </g>
</svg>
