<svg xmlns="http://www.w3.org/2000/svg" xmlns:xlink="http://www.w3.org/1999/xlink" viewBox="0 0 329.81 169.12"><defs><style>.cls-1{fill:#666;}.cls-2{fill:url(#linear-gradient);}.cls-3{fill:url(#linear-gradient-2);}.cls-4{fill:url(#linear-gradient-3);}.cls-5{fill:url(#linear-gradient-4);}.cls-6{fill:url(#linear-gradient-5);}.cls-7{fill:url(#linear-gradient-6);}.cls-8{fill:url(#linear-gradient-7);}.cls-9{fill:url(#linear-gradient-8);}.cls-10{fill:url(#linear-gradient-9);}.cls-11{fill:url(#linear-gradient-10);}</style><linearGradient id="linear-gradient" x1="866.86" y1="-307.79" x2="920.66" y2="-307.79" gradientTransform="matrix(0.26, 0, 0, -0.26, -106, -39.9)" gradientUnits="userSpaceOnUse"><stop offset="0" stop-color="#f75a26"/><stop offset="1" stop-color="#fa6d1d"/></linearGradient><linearGradient id="linear-gradient-2" x1="674.46" y1="-307.79" x2="838.66" y2="-307.79" gradientTransform="matrix(0.26, 0, 0, -0.26, -106, -39.9)" gradientUnits="userSpaceOnUse"><stop offset="0" stop-color="#c31286"/><stop offset="1" stop-color="#f14a39"/></linearGradient><linearGradient id="linear-gradient-3" x1="950.36" y1="-307.79" x2="1165.06" y2="-307.79" gradientTransform="matrix(0.26, 0, 0, -0.26, -106, -39.9)" gradientUnits="userSpaceOnUse"><stop offset="0" stop-color="#fc8818"/><stop offset="1" stop-color="#fdd82c"/></linearGradient><linearGradient id="linear-gradient-4" x1="1189.56" y1="-307.79" x2="1425.01" y2="-307.79" gradientTransform="matrix(0.26, 0, 0, -0.26, -106, -39.9)" gradientUnits="userSpaceOnUse"><stop offset="0" stop-color="#e7da26"/><stop offset="1" stop-color="#378954"/></linearGradient><linearGradient id="linear-gradient-5" x1="1448.11" y1="-307.79" x2="1621.61" y2="-307.79" gradientTransform="matrix(0.26, 0, 0, -0.26, -106, -39.9)" gradientUnits="userSpaceOnUse"><stop offset="0" stop-color="#30776a"/><stop offset="0.47" stop-color="#1d33b2"/><stop offset="1" stop-color="#6520a0"/></linearGradient><linearGradient id="linear-gradient-6" x1="646.46" y1="-505.29" x2="855.46" y2="-505.29" gradientTransform="matrix(0.26, 0, 0, -0.26, -100.08, 1.66)" xlink:href="#linear-gradient-2"/><linearGradient id="linear-gradient-7" x1="835.46" y1="-505.36" x2="1045.76" y2="-505.36" gradientTransform="matrix(0.26, 0, 0, -0.26, -100.08, 1.66)" gradientUnits="userSpaceOnUse"><stop offset="0" stop-color="#f45130"/><stop offset="1" stop-color="#feb512"/></linearGradient><linearGradient id="linear-gradient-8" x1="1058.01" y1="-507.51" x2="1234.11" y2="-507.51" gradientTransform="matrix(0.26, 0, 0, -0.26, -100.08, 1.66)" gradientUnits="userSpaceOnUse"><stop offset="0" stop-color="#ffbf1a"/><stop offset="1" stop-color="#cadb1c"/></linearGradient><linearGradient id="linear-gradient-9" x1="1454.11" y1="-505.29" x2="1637.01" y2="-505.29" gradientTransform="matrix(0.26, 0, 0, -0.26, -100.08, 1.66)" xlink:href="#linear-gradient-5"/><linearGradient id="linear-gradient-10" x1="1255.41" y1="-505.29" x2="1429.36" y2="-505.29" gradientTransform="matrix(0.26, 0, 0, -0.26, -100.08, 1.66)" gradientUnits="userSpaceOnUse"><stop offset="0" stop-color="#b0d819"/><stop offset="1" stop-color="#388b53"/></linearGradient></defs><g id="Layer_2" data-name="Layer 2"><g id="Layer_1-2" data-name="Layer 1"><path class="cls-1" d="M43.11,40.9H0L71.14,81.84H85.25L57.63,65.94H83.7l-13-7.48H44.62L27.16,48.41h29l-13-7.51m21.54,0H50.52l71.14,40.94h14.13L64.65,40.9m64.18,0H115.5l39.34,22.64q7.29,4.2,10.12,5.63h-.18q-4.34-1.67-8.95-3.34L87.64,40.9H72.44l71.14,40.94H156.9L117.82,59.35Q110.07,54.9,106,52.73h.18q2.85,1.14,9,3.39l70.52,25.72H200L128.83,40.9m46,0H158.06L206.4,81.84h15.29l-11.41-9.11h22.29l20.27,9.11h15.39L174.81,40.9m8.89,10.88a52.36,52.36,0,0,0-5.11-3.57h.35q4,2.15,7.44,3.69L217,65.66H201L183.7,51.78M217.29,40.9H203.15l71.14,40.94h45.56l-13-7.48H275.43Z"/><path class="cls-1" d="M79.15,137.55q.3,5.07,13.31,13.3a118.67,118.67,0,0,0,27.62,12.65q15.27,4.83,27.38,4.84,12.43,0,12.25-5t-13.14-13.18a120.43,120.43,0,0,0-27.7-12.82q-15.16-4.86-27.23-4.87-12.78,0-12.49,5.09m17,4.73q-1-3.09,5.73-3.09a45.67,45.67,0,0,1,15,3,84.86,84.86,0,0,1,17,8.4q8.17,5.16,9,8.09c.49,1.94-1.46,2.91-5.83,2.91a47.08,47.08,0,0,1-15-3,81.15,81.15,0,0,1-16.82-8.15q-8-5.08-9-8.16m-5,13.58c-1.68-.57-3.32-1.09-4.94-1.57s-3.16-.91-4.64-1.26a37.44,37.44,0,0,0-4.09-.8l-.15-.1a11,11,0,0,0,3.85-1.4,2.5,2.5,0,0,0,1.24-2.13,4.59,4.59,0,0,0-1.4-2.76,20.85,20.85,0,0,0-4.26-3.36Q61.84,133,38,133.05H14.67l54.86,34.68H84.26l-21-13.27h4a16.59,16.59,0,0,1,3,.31c1.07.19,2.27.48,3.61.86s2.7.83,4.24,1.36,3.23,1.14,5.07,1.82l24.29,8.92h16.92L95.83,157.48c-1.49-.53-3-1.07-4.67-1.62M62.78,143.45c2.29,1.45,3.25,2.67,2.86,3.65s-2.16,1.45-5.32,1.45H53.93L38.66,138.9h6.66q10.27,0,17.46,4.55m72.6-10.4H122.74l31.68,20q24.14,15.27,46.9,15.27,23.49,0-1.23-15.63L169,133.05H156.4l32.28,20.41q12.85,8.13,2.44,8.13-10.6,0-23.92-8.42l-31.82-20.12m110.57,0H226.76l54.86,34.68H300.8q13.11,0,13.35-4.84T301.54,150Q274.79,133,246,133.05m3.07,6.36h6a56.66,56.66,0,0,1,17.09,2.85,72,72,0,0,1,16.78,7.79q8.31,5.25,8.61,8.3c.2,2-2.35,3.05-7.63,3.05h-6l-34.78-22m-28.76-6.36h-10.8l30.33,19.18q5.63,3.56,7.82,4.76h-.14q-3.39-1.41-7-2.83l-53.54-21.11H174.58l54.86,34.68h10.81l-30.14-19.06q-6-3.76-9.17-5.61h.15c1.48.64,3.85,1.6,7.09,2.88l55.4,21.79h11.54Z"/><path class="cls-2" d="M135.77,0H121.64V81.85h14.13Z"/><path class="cls-3" d="M114.24,15V0H71.12V81.85H85.23V50.07h26.08v-15H85.23V15Z"/><path class="cls-4" d="M200,0H186.61V45.27c0,5.6.12,9.34.35,11.24h-.17c-1-2.21-2-4.44-3.15-6.67L158.76,0H143.57V81.85h13.31v-45q0-8.91-.33-13.23h.17q.87,2.27,3.14,6.79L185.7,81.85H200Z"/><path class="cls-5" d="M245.93,0H229.18l-22.8,81.85h15.29l4.42-18.21h22.28l4.45,18.21h15.39L245.93,0M237,14.61h.36a45.86,45.86,0,0,0,1,7.37l6.75,27.52h-16l6.81-27.74A40.67,40.67,0,0,0,237,14.61Z"/><path class="cls-6" d="M288.41,0H274.28V81.85h45.56V66.9H288.41Z"/><path class="cls-7" d="M110.1,144.94a34.63,34.63,0,0,0-2.46-3,18.73,18.73,0,0,0-2.65-2.44,9,9,0,0,0-2.82-1.55v-.19a23.64,23.64,0,0,0,6.06-2.72,18.83,18.83,0,0,0,4.61-4.12,18.12,18.12,0,0,0,3-5.34,19.58,19.58,0,0,0,1-6.51q0-18.28-23.82-18.28H69.68V168H84.42V142.23h4a5.58,5.58,0,0,1,2.56.6,8.38,8.38,0,0,1,2.23,1.68,21,21,0,0,1,2.11,2.63c.7,1,1.43,2.2,2.19,3.52L107.64,168h16.93L112.2,148.08c-.64-1-1.34-2.08-2.1-3.14m-8.76-24A9.54,9.54,0,0,1,98.43,128a10.46,10.46,0,0,1-7.62,2.81H84.42v-18.7h6.65Q101.35,112.09,101.34,120.9Z"/><path class="cls-8" d="M127.05,109.47q-7.74,9.82-7.73,25.77,0,15.09,7.61,24.5a24.29,24.29,0,0,0,19.74,9.38,24.56,24.56,0,0,0,20.16-9.71q7.71-9.69,7.71-25.53,0-15.42-7.43-24.83a23.73,23.73,0,0,0-19.54-9.43,24.81,24.81,0,0,0-20.52,9.85m9.56,9.17q3.93-6,10.61-6a11.61,11.61,0,0,1,10.23,5.8q3.72,5.82,3.73,16.27,0,10-3.85,15.69A12,12,0,0,1,146.9,156q-6.36,0-10.29-5.8t-3.93-15.8Q132.68,124.6,136.61,118.64Z"/><path class="cls-9" d="M190.39,100.75H177.76v38.8q0,29.56,22.77,29.57,23.47,0,23.47-30.27v-38.1H211.41V140.3Q211.41,156,201,156q-10.6,0-10.61-16.31Z"/><path class="cls-10" d="M301,100.75H281.78V168H301q13.11,0,21-9.38t7.86-25.06q0-32.76-28.85-32.76m-7,12.33h6q8.08,0,12.57,5.52T317,133.69q0,10.19-4.51,16.07A14.83,14.83,0,0,1,300,155.67h-6Z"/><path class="cls-11" d="M275.28,100.75H264.47v37.16q0,6.89.29,9.23h-.14c-.78-1.82-1.63-3.64-2.55-5.48l-20.14-40.91H229.6V168h10.8V131c0-4.88-.09-8.5-.29-10.88h.15c.47,1.25,1.32,3.1,2.55,5.57L263.74,168h11.54Z"/></g></g></svg>