
<svg xmlns="http://www.w3.org/2000/svg" version="1.1" xmlns:xlink="http://www.w3.org/1999/xlink" preserveAspectRatio="none" x="0px" y="0px" width="500px" height="500px" viewBox="0 0 500 500">
<defs>
<g id="avatar4v2_1_Layer2_0_FILL">
<path fill="#275451" stroke="none" d="
M 11.45 -10.4
Q 14.0828125 -20.4529296875 11.4 -26.6 8.46015625 -33.83515625 -1.3 -35.85 -19.7240234375 -39.6775390625 -24.2 -24.95 -29.583203125 -26.5015625 -33.8 -27.8
L -35.55 -28.3 -36.2 -26.6
Q -39.033984375 -19.5609375 -37.3 -15.25 -36.16015625 -11.8951171875 -32.6 -10.1
L -34.55 -8.45 -34.65 -8.3
Q -36.0615234375 -6.4244140625 -35.55 -4.85 -35.2720703125 -3.2919921875 -33.25 -2.15 -31.4357421875 -1.0263671875 -27.4 -0.35 -38.186328125 17.86484375 -25.95 35.75
L -25.4 36.65 26.3 36.65 26.85 35.7
Q 42.7724609375 11.1875 35.95 -6.95
L 35.05 -9.65 32.8 -7.8
Q 32.1291015625 -7.22265625 31.55 -6.75 30.02890625 -7.7150390625 27.65 -7.05 25.7025390625 -6.5025390625 22.9 -4.25 18.36171875 -9.2359375 11.45 -10.4 Z"/>
</g>

<g id="avatar4v2_1_Layer1_0_FILL">
<path fill="#61D3CA" stroke="none" d="
M 4.6 -4.5
Q 9.95 -22.2 2.6 -27.35 -6.1 -32 -14.2 -28.3 -19.1 -25.85 -20.1 -18.95 -21.9 -17.7 -26.4 -19.4 -28.55 -20.4 -29.45 -20.75 -30.9 -21.35 -31.1 -21.15 -31.2 -21.15 -31.25 -21.1 -35.2 -13.7 -18.7 -11.55 -30.9 -6.4 -26.3 -5.4 -23.65 -4.8 -19.15 -4 -29.3 10.75 -24.95 22.95 -23.95 25.45 -22.55 28.2 -21.95 29.45 -21.2 30.7
L 22.5 30.7
Q 35.4 11.6 31.65 -0.5 29.6 3.55 26.5 7.05 29.4 1.55 28.4 -0.65 25.05 1.35 23.05 3.6 14.95 -5.7 4.6 -4.5 Z"/>
</g>
</defs>

<g transform="matrix( 5.106536865234375, 0, 0, 5.106536865234375, 250.4,257.7) ">
<g transform="matrix( 1, 0, 0, 1, 0,0) ">
<g transform="matrix( 1, 0, 0, 1, 0,0) ">
<use xlink:href="#avatar4v2_1_Layer2_0_FILL"/>
</g>

<g transform="matrix( 1, 0, 0, 1, 0,0) ">
<use xlink:href="#avatar4v2_1_Layer1_0_FILL"/>
</g>
</g>
</g>
</svg>
