
<svg xmlns="http://www.w3.org/2000/svg" version="1.1" xmlns:xlink="http://www.w3.org/1999/xlink" preserveAspectRatio="none" x="0px" y="0px" width="500px" height="500px" viewBox="0 0 500 500">
<defs>
<g id="avatar9v2_4_Layer1_0_FILL">
<path fill="#663D3D" stroke="none" d="
M 4.95 -36.35
L 4.3 -36.25
Q -9.2353515625 -33.7755859375 -17.75 -32.35
L -18.45 -32.2 -18.9 -31.7
Q -27.33203125 -22.2818359375 -33.05 -15.15
L -33.4 -14.75 -33.5 -14.2
Q -35.0748046875 -2.7392578125 -36.15 4.4
L -36.25 5.05 -35.95 5.65
Q -31.2748046875 14.3884765625 -24.45 27.4
L -24.15 28 -23.55 28.3
Q -14.32578125 32.749609375 -7.55 36.1
L -6.95 36.35 -6.3 36.25
Q 7.7365234375 33.8251953125 16.9 32.25
L 17.65 32.15 18.15 31.55
Q 22.46484375 26.1595703125 30.2 16.7
L 30.45 16.4 36.3 -3.4 24.1 -26.45 4.95 -36.35 Z"/>
</g>

<g id="avatar9v2_4_Layer0_0_FILL">
<path fill="#FF9999" stroke="none" d="
M -23 3.2
L -30.2 5.45 -20.5 23.2 -7.9 29.85 -8.95 17.2 -23 3.2
M -17 -25.85
L -28 -13.3 -30.4 3.4 -23.2 1.15 -23.05 1.05 -15.45 -17.65 -17 -25.85
M 25.1 13.5
L 9.75 6.75 -6.95 17.3 -5.85 30.3 15 26.95 25 13.8 25.1 13.5
M 18.85 -22.5
L 3.5 -30.05
Q -5.3 -28.8 -14.05 -27.5
L -14.6 -27.45 -15.25 -27.35 -13.5 -18.15 6.15 -15.45 18.85 -22.5
M 8.35 5.3
L 5.45 -13.5 -13.85 -16.15 -21.3 2.1 -7.85 15.5 8.35 5.3
M 30.75 -2.55
L 20.6 -21.15 7.4 -13.85 10.3 4.8 25.8 11.6 30.75 -2.55 Z"/>

<path fill="#FAD4D4" stroke="none" d="
M 7.4 -13.85
L 20.6 -21.15 20.25 -21.8 18.85 -22.5 6.15 -15.45 -13.5 -18.15 -15.25 -27.35 -14.6 -27.45 -15.75 -27.3 -17 -25.85 -15.45 -17.65 -23.05 1.05 -23.2 1.15 -30.4 3.4 -30.6 4.7 -30.2 5.45 -23 3.2 -8.95 17.2 -7.9 29.85 -6.75 30.45 -5.85 30.3 -6.95 17.3 9.75 6.75 25.1 13.5 25.8 11.6 10.3 4.8 7.4 -13.85
M 5.45 -13.5
L 8.35 5.3 -7.85 15.5 -21.3 2.1 -13.85 -16.15 5.45 -13.5 Z"/>
</g>
</defs>

<g transform="matrix( 5.106536865234375, 0, 0, 5.106536865234375, 250.4,257.7) ">
<g transform="matrix( 1, 0, 0, 1, 0,0) ">
<g transform="matrix( 1, 0, 0, 1, 0,0) ">
<use xlink:href="#avatar9v2_4_Layer1_0_FILL"/>
</g>

<g transform="matrix( 1, 0, 0, 1, 0,0) ">
<use xlink:href="#avatar9v2_4_Layer0_0_FILL"/>
</g>
</g>
</g>
</svg>
