<?xml version="1.0" encoding="UTF-8" standalone="no"?>
<!DOCTYPE svg PUBLIC "-//W3C//DTD SVG 1.1//EN" "http://www.w3.org/Graphics/SVG/1.1/DTD/svg11.dtd">
<svg width="100%" height="100%" viewBox="0 0 1080 1080" version="1.1" xmlns="http://www.w3.org/2000/svg" xmlns:xlink="http://www.w3.org/1999/xlink" xml:space="preserve" xmlns:serif="http://www.serif.com/" style="fill-rule:evenodd;clip-rule:evenodd;stroke-linejoin:round;stroke-miterlimit:2;">
    <g transform="matrix(1.90627,0,0,1.90627,912.713,958.541)">
        <path d="M0,-390.15C-7.1,-394.25 -11.4,-396.3 -12.9,-396.3C-14.667,-396.3 -38.85,-394.733 -85.45,-391.6C-136.217,-388.2 -168.9,-386.133 -183.5,-385.4C-207,-384.2 -247.133,-380.6 -303.9,-374.6C-365.033,-368.133 -400.583,-363.35 -410.55,-360.25C-419.617,-357.417 -425.05,-352.25 -426.85,-344.75C-427.783,-341.017 -427.783,-337.567 -426.85,-334.4L-382,-31.25L-311.3,6.15L-236.55,-3.9C-182.617,-11.167 -145.45,-16.217 -125.05,-19.05C-104.65,-21.883 -69.083,-27.483 -18.35,-35.85C7.017,-40.05 30.367,-43.95 51.7,-47.55C54.3,-94.817 56.583,-142.633 58.55,-191C62.517,-287.733 62.933,-338.933 59.8,-344.6C56.4,-350.833 44.117,-361.15 22.95,-375.55C14.617,-381.217 6.967,-386.083 0,-390.15" style="fill:rgb(92,66,56);fill-rule:nonzero;"/>
    </g>
    <g transform="matrix(1.90627,0,0,1.90627,114.749,958.541)">
        <path d="M0,-348.8C1.1,-350.567 3.05,-352.133 5.85,-353.5C7.25,-354.133 8.517,-354.617 9.65,-354.95C6.05,-354.75 2.583,-353.75 -0.75,-351.95C-7.317,-348.283 -9.817,-342.433 -8.25,-334.4C-6.683,-326.367 1.267,-273.417 15.6,-175.55C22.767,-126.65 29.767,-78.55 36.6,-31.25L107.3,6.15L72.75,-299.55C58.55,-306.45 39.533,-316.267 15.7,-329C1.6,-336.567 -3.633,-343.167 0,-348.8" style="fill:rgb(66,50,42);fill-rule:nonzero;"/>
    </g>
    <g transform="matrix(1.90627,0,0,1.90627,194.19,337.967)">
        <path d="M0,-0.904C-13.109,-7.473 -21.652,-12.099 -25.629,-14.781C-29.607,-17.433 -32.395,-20.25 -33.992,-23.234L-35.167,-26.895L-44.75,-16.679L31.054,25.991L41.405,9.492C39.054,10.035 36.493,10.457 33.721,10.758C28.206,11.391 24.379,11.18 22.239,10.125C14.163,6.178 6.75,2.501 0,-0.904" style="fill:rgb(138,99,78);fill-rule:nonzero;"/>
    </g>
    <g transform="matrix(1.90627,0,0,1.90627,687.409,853.332)">
        <path d="M0,-278.263L48.276,-282.602C76.03,-285.134 96.069,-286.897 108.394,-287.891C128.614,-289.548 144.179,-290.513 155.088,-290.784L155.178,-290.784C157.408,-290.784 160.03,-289.744 163.043,-287.665C166.659,-285.164 168.965,-282.105 169.959,-278.489L170.592,-276.229C171.285,-273.758 171.692,-272.206 171.812,-271.573L161.145,-1.854C135.139,3.962 84.09,12.973 8.001,25.177C-78.305,39.009 -143.832,48.004 -188.582,52.163L-220.811,-234.372C-221.625,-240.007 -220.856,-244.392 -218.506,-247.526C-215.312,-251.775 -208.893,-254.653 -199.25,-256.159C-175.624,-259.806 -142.039,-263.964 -98.495,-268.635C-63.147,-272.432 -30.315,-275.641 0,-278.263M100.619,-332.55C104.567,-332.55 107.595,-331.872 109.705,-330.516C112.146,-329.01 116.44,-326.358 122.587,-322.561C128.464,-318.824 134.204,-314.952 139.809,-310.944L147.946,-305.022C136.675,-304.54 121.563,-303.516 102.608,-301.949C90.374,-300.954 71.826,-299.312 46.965,-297.022C20.868,-294.641 4.806,-293.195 -1.22,-292.682C-31.596,-290.061 -64.578,-286.851 -100.167,-283.054C-143.893,-278.353 -177.658,-274.15 -201.465,-270.443C-215.718,-268.243 -225.527,-263.135 -230.891,-255.12C-234.99,-249.002 -236.406,-241.439 -235.14,-232.428L-205.036,48.23C-207.537,47.386 -209.963,46.392 -212.313,45.247C-218.732,42.113 -225.211,38.693 -231.75,34.986C-239.103,30.827 -245.491,26.895 -250.916,23.188C-252.392,22.194 -253.733,20.808 -254.939,19.03C-256.174,17.192 -256.912,15.429 -257.153,13.741L-299.734,-277.178C-300.336,-282.843 -299.206,-287.333 -296.343,-290.648C-293.692,-293.692 -289.443,-295.862 -283.597,-297.157C-253.402,-302.853 -189.049,-310.115 -90.539,-318.945C4.475,-327.473 68.195,-332.008 100.619,-332.55M133.12,-338.381C126.761,-342.299 122.301,-345.056 119.74,-346.653C114.436,-349.908 108.063,-351.535 100.619,-351.535C35.137,-348.04 -27.272,-343.851 -86.607,-338.969C-174.057,-331.797 -241.483,-324.083 -288.885,-315.826C-298.589,-314.018 -306.363,-309.648 -312.209,-302.717C-318.357,-295.485 -320.752,-287.258 -319.396,-278.037L-272.567,30.647C-260.303,39.175 -247.993,46.889 -235.637,53.79C-223.252,60.691 -210.053,67.185 -196.041,73.272C-152.165,68.33 -81.439,58.024 16.137,42.354C101.267,28.643 155.735,19.376 179.542,14.555L191.023,-276.5C191.385,-287.529 187.211,-297.203 178.502,-305.52C175.489,-308.382 171.119,-311.848 165.394,-315.916C157.498,-321.521 152.662,-325.017 150.884,-326.403C145.158,-330.501 139.237,-334.494 133.12,-338.381" style="fill-rule:nonzero;"/>
    </g>
    <g transform="matrix(1.90627,0,0,1.90627,929.797,920.111)">
        <path d="M0,-362.474C-1.293,-362.465 -2.689,-362.445 -4.138,-362.418L-4.159,-364.508C-31.43,-364.327 -93.553,-360.033 -190.526,-351.626C-283.581,-343.58 -343.369,-337.598 -369.887,-333.68L-370.791,-333.545C-380.796,-332.068 -387.712,-330.908 -391.539,-330.064C-397.626,-328.708 -402.251,-327.036 -405.416,-325.047C-408.971,-322.847 -411.382,-319.834 -412.648,-316.006C-413.974,-312.089 -414.26,-306.861 -413.507,-300.321C-412.874,-294.777 -406.952,-249.063 -395.742,-163.179C-384.11,-74.191 -376.923,-19.783 -374.181,0.045L-370.368,-0.489C-370.247,0.399 -370.13,1.253 -370.023,2.034L-365.548,1.401C-368.38,-19.211 -375.552,-73.589 -387.064,-161.732C-398.364,-248.189 -404.286,-293.888 -404.828,-298.83C-405.461,-304.375 -405.28,-308.729 -404.286,-311.893C-403.291,-315.117 -401.287,-317.649 -398.274,-319.487C-395.531,-321.175 -391.373,-322.606 -385.798,-323.781C-382.242,-324.565 -375.628,-325.665 -365.954,-327.081L-365.096,-327.216C-338.637,-331.134 -278.941,-337.101 -186.006,-345.116C-89.214,-353.494 -27.196,-357.773 0.045,-357.954L0,-362.474Z" style="fill-rule:nonzero;"/>
    </g>
    <g transform="matrix(1.90627,0,0,1.90627,581.717,632.864)">
        <path d="M0,-65.871C1.536,-68.582 1.943,-71.475 1.22,-74.547L-2.214,-89.144C-2.606,-90.74 -3.284,-92.217 -4.248,-93.572C-5.242,-94.898 -6.432,-95.982 -7.818,-96.826C-9.204,-97.669 -10.725,-98.212 -12.382,-98.453C-14.009,-98.664 -15.605,-98.543 -17.172,-98.091L-70.993,-82.546C-74.126,-81.612 -76.476,-79.744 -78.043,-76.942C-79.579,-74.111 -79.91,-71.113 -79.037,-67.95L-74.97,-53.263C-74.548,-51.697 -73.81,-50.25 -72.755,-48.925C-71.731,-47.629 -70.481,-46.575 -69.005,-45.762C-65.902,-44.105 -62.723,-43.758 -59.47,-44.722L-52.781,-46.711L-46.862,-24.568C-50.868,-26.676 -55.357,-27.324 -60.328,-26.511C-64.004,-25.908 -67.498,-24.492 -70.812,-22.263C-74.156,-20.004 -76.928,-17.187 -79.127,-13.812C-81.356,-10.408 -82.772,-6.793 -83.375,-2.967C-83.977,0.859 -83.721,4.67 -82.607,8.466C-81.341,12.834 -79.308,16.721 -76.506,20.125C-73.704,23.499 -70.315,26.195 -66.338,28.214C-59.741,31.648 -51.968,32.793 -43.021,31.648C-39.676,31.257 -36.016,30.443 -32.039,29.208C-20.652,25.593 -12.548,19.628 -7.727,11.313C-2.907,2.998 -1.883,-6.808 -4.655,-18.106L-14.506,-58.144L-6.824,-60.448C-3.841,-61.322 -1.567,-63.129 0,-65.871" style="fill-rule:nonzero;"/>
    </g>
    <g transform="matrix(1.90627,0,0,1.90627,618.759,545.688)">
        <path d="M0,17.413C-0.994,15.937 -1.702,14.265 -2.124,12.397C-2.907,8.993 -2.711,5.784 -1.536,2.772C-0.422,-0.09 1.16,-1.823 3.209,-2.425L4.067,-2.606C5.061,-2.727 6.161,-2.455 7.366,-1.793C8.661,-1.039 9.791,0.075 10.755,1.551C11.719,3.058 12.412,4.76 12.834,6.658C13.617,10.092 13.406,13.286 12.201,16.238C11.087,18.98 9.52,20.667 7.502,21.299C6.146,21.721 4.775,21.525 3.389,20.712C2.094,19.989 0.964,18.889 0,17.413M26.933,-33.29C21.962,-36.333 16.63,-38.231 10.936,-38.984C5.242,-39.737 -0.407,-39.285 -6.01,-37.628C-18,-34.073 -27.114,-26.421 -33.35,-14.672C-39.556,-2.922 -41.047,9.354 -37.824,22.158C-36.227,28.515 -33.501,34.254 -29.644,39.375C-25.788,44.436 -21.164,48.443 -15.771,51.396C-8.059,55.583 0.105,57.15 8.722,56.095C11.313,55.764 13.813,55.207 16.223,54.423C27.49,50.838 36.197,43.487 42.343,32.371C48.489,21.224 50.281,9.475 47.72,-2.877C46.395,-9.294 43.924,-15.154 40.309,-20.456C36.694,-25.788 32.235,-30.066 26.933,-33.29" style="fill-rule:nonzero;"/>
    </g>
    <g transform="matrix(1.90627,0,0,1.90627,771.233,526.908)">
        <path d="M0,-15.801C0.844,-15.861 1.717,-15.605 2.621,-15.033C3.826,-14.28 4.881,-13.135 5.784,-11.598C6.658,-10.092 7.276,-8.36 7.637,-6.402C8.24,-3.058 7.999,0.076 6.914,2.998C5.89,5.739 4.489,7.381 2.711,7.924C1.687,8.255 0.603,8.074 -0.542,7.381C-1.747,6.628 -2.787,5.498 -3.66,3.992C-4.564,2.456 -5.212,0.723 -5.603,-1.205C-6.236,-4.549 -5.995,-7.697 -4.88,-10.649C-3.856,-13.451 -2.44,-15.123 -0.633,-15.665L0,-15.801M-19.07,-57.692C-19.401,-59.289 -20.004,-60.75 -20.878,-62.075C-21.781,-63.401 -22.881,-64.485 -24.176,-65.329C-25.502,-66.203 -26.933,-66.745 -28.469,-66.956C-30.006,-67.197 -31.527,-67.091 -33.034,-66.639L-65.028,-57.421C-68.01,-56.547 -70.3,-54.724 -71.897,-51.953C-73.463,-49.181 -73.9,-46.229 -73.207,-43.096L-69.999,-28.544C-69.667,-26.978 -69.035,-25.532 -68.101,-24.206C-67.167,-22.911 -66.037,-21.856 -64.712,-21.043C-61.88,-19.356 -58.897,-18.979 -55.764,-19.913L-50.748,-21.405L-37.056,42.991C-36.453,46.034 -34.811,48.323 -32.13,49.86C-30.111,50.974 -27.957,51.396 -25.668,51.125C-24.975,51.034 -24.312,50.884 -23.679,50.673L-9.49,46.199C-7.351,45.476 -5.543,44.241 -4.067,42.494C0.633,42.915 5.317,42.388 9.987,40.912C20.561,37.568 28.846,30.428 34.841,19.492C40.836,8.526 42.81,-3.103 40.761,-15.394C39.677,-21.902 37.477,-27.837 34.163,-33.199C30.819,-38.592 26.662,-42.915 21.691,-46.168C17.202,-49.121 12.367,-50.989 7.185,-51.772C2.034,-52.525 -3.133,-52.149 -8.315,-50.642C-11.297,-49.769 -14.19,-48.518 -16.991,-46.892L-19.07,-57.692" style="fill-rule:nonzero;"/>
    </g>
    <g transform="matrix(1.90627,0,0,1.90627,619.879,890.09)">
        <path d="M0,-121.274C-0.994,-122.6 -2.184,-123.684 -3.57,-124.528C-4.986,-125.371 -6.507,-125.913 -8.134,-126.154C-9.761,-126.365 -11.358,-126.245 -12.924,-125.793L-66.745,-110.203C-69.878,-109.299 -72.228,-107.431 -73.795,-104.599C-75.361,-101.797 -75.708,-98.815 -74.834,-95.651L-70.767,-80.965C-69.833,-77.651 -67.83,-75.15 -64.757,-73.463C-61.684,-71.776 -58.521,-71.43 -55.267,-72.424L-48.534,-74.412L-42.614,-52.224C-46.591,-54.363 -51.079,-55.026 -56.08,-54.213C-59.756,-53.61 -63.25,-52.194 -66.564,-49.965C-69.908,-47.705 -72.695,-44.888 -74.924,-41.514C-77.124,-38.11 -78.525,-34.495 -79.127,-30.669C-79.73,-26.843 -79.474,-23.032 -78.359,-19.236C-77.094,-14.898 -75.06,-11.011 -72.258,-7.577C-69.487,-4.203 -66.112,-1.491 -62.136,0.557C-55.357,3.962 -47.57,5.091 -38.773,3.947C-35.399,3.525 -31.753,2.711 -27.837,1.506C-16.449,-2.109 -8.33,-8.074 -3.48,-16.389C1.341,-24.704 2.365,-34.51 -0.407,-45.807L-10.303,-85.845L-2.621,-88.105C0.392,-89.009 2.666,-90.816 4.203,-93.528C5.769,-96.269 6.191,-99.176 5.468,-102.249L2.034,-116.845C1.642,-118.442 0.964,-119.918 0,-121.274" style="fill-rule:nonzero;"/>
    </g>
    <g transform="matrix(1.90627,0,0,1.90627,672.685,788.268)">
        <path d="M0,-22.625C1.085,-22.715 2.199,-22.444 3.344,-21.812C4.639,-21.028 5.769,-19.899 6.733,-18.422C7.697,-16.946 8.39,-15.259 8.812,-13.361C9.595,-9.927 9.384,-6.733 8.179,-3.781C7.065,-1.039 5.498,0.648 3.48,1.28C2.124,1.702 0.753,1.506 -0.633,0.693C-1.928,-0.03 -3.058,-1.13 -4.022,-2.606C-5.016,-4.082 -5.724,-5.754 -6.146,-7.622C-6.959,-10.996 -6.763,-14.205 -5.558,-17.247C-4.444,-20.079 -2.862,-21.812 -0.813,-22.444L0,-22.625ZM43.698,-22.896C42.373,-29.313 39.902,-35.173 36.287,-40.475C32.642,-45.807 28.183,-50.085 22.911,-53.309C17.91,-56.352 12.578,-58.25 6.914,-59.003C1.22,-59.756 -4.429,-59.304 -10.032,-57.647C-22.022,-54.092 -31.136,-46.44 -37.372,-34.691C-43.608,-22.941 -45.114,-10.665 -41.891,2.139C-40.264,8.526 -37.522,14.265 -33.666,19.356C-29.81,24.448 -25.186,28.454 -19.793,31.377C-12.081,35.564 -3.916,37.131 4.7,36.076C7.23,35.745 9.731,35.203 12.201,34.45C23.469,30.864 32.175,23.514 38.321,12.397C44.467,1.22 46.259,-10.544 43.698,-22.896" style="fill-rule:nonzero;"/>
    </g>
    <g transform="matrix(1.90627,0,0,1.90627,832.051,713.41)">
        <path d="M0,2.997C0.603,6.341 0.361,9.474 -0.723,12.396C-1.778,15.138 -3.193,16.795 -4.971,17.367C-6.025,17.638 -7.095,17.443 -8.179,16.78C-9.384,16.027 -10.439,14.897 -11.343,13.391C-12.247,11.884 -12.879,10.167 -13.241,8.239C-13.903,4.865 -13.677,1.702 -12.563,-1.251C-11.538,-4.053 -10.122,-5.725 -8.315,-6.267L-7.682,-6.402C-6.839,-6.463 -5.95,-6.207 -5.016,-5.634C-3.811,-4.881 -2.772,-3.736 -1.898,-2.2C-0.994,-0.663 -0.362,1.069 0,2.997M26.526,-23.8C23.182,-29.193 19.025,-33.516 14.054,-36.77C9.565,-39.722 4.73,-41.59 -0.452,-42.373C-5.634,-43.127 -10.815,-42.75 -15.997,-41.244C-19.01,-40.34 -21.902,-39.09 -24.674,-37.493L-26.752,-48.248C-27.054,-49.845 -27.641,-51.321 -28.515,-52.677C-29.388,-54.002 -30.488,-55.087 -31.814,-55.93C-33.139,-56.804 -34.57,-57.346 -36.107,-57.557C-37.673,-57.798 -39.194,-57.693 -40.671,-57.241L-72.665,-48.022C-75.678,-47.148 -77.967,-45.326 -79.534,-42.554C-81.131,-39.783 -81.582,-36.83 -80.89,-33.697L-77.681,-19.146C-76.928,-15.862 -75.15,-13.362 -72.349,-11.644C-71.023,-10.831 -69.577,-10.319 -68.01,-10.108C-66.474,-9.927 -64.953,-10.063 -63.446,-10.515L-58.385,-12.006L-44.738,52.389C-44.075,55.462 -42.418,57.752 -39.767,59.258C-37.809,60.373 -35.67,60.795 -33.35,60.523C-32.567,60.433 -31.904,60.282 -31.362,60.072L-17.172,55.598C-14.973,54.905 -13.165,53.67 -11.749,51.892C-7.05,52.314 -2.365,51.787 2.305,50.311C12.879,46.967 21.179,39.827 27.204,28.891C33.199,17.955 35.173,6.341 33.124,-5.951C32.039,-12.488 29.84,-18.438 26.526,-23.8" style="fill-rule:nonzero;"/>
    </g>
    <g transform="matrix(1.90627,0,0,1.90627,25.906,70.4675)">
        <path d="M303.32,315.511C303.23,315.18 303.034,314.924 302.733,314.743C302.431,314.562 302.115,314.517 301.784,314.607L248.324,330.243C247.963,330.333 247.692,330.529 247.511,330.83C247.33,331.162 247.3,331.493 247.42,331.824L251.397,346.511C251.487,346.843 251.683,347.099 251.985,347.279C252.286,347.43 252.617,347.46 252.979,347.37L269.337,342.489C269.669,342.399 269.985,342.444 270.286,342.625C270.588,342.775 270.783,343.016 270.874,343.348L283.617,392.017C285.726,400.091 284.069,405.333 278.646,407.743C276.628,408.617 274.429,408.918 272.049,408.647C269.85,408.376 268.238,407.698 267.213,406.613C265.466,404.745 264.803,402.697 265.225,400.468C265.617,398.329 266.837,396.581 268.885,395.226C269.428,394.864 269.593,394.367 269.383,393.734C267.093,387.619 263.101,385.028 257.407,385.962C253.129,386.655 249.454,389.095 246.381,393.282C242.977,397.892 242.028,402.832 243.534,408.105C245.372,414.491 249.168,419.101 254.922,421.933C261.791,425.247 270.377,425.292 280.68,422.068C289.929,419.146 296.24,414.431 299.614,407.924C302.717,401.989 303.23,394.894 301.151,386.64L288.905,338.015C288.814,337.684 288.859,337.368 289.04,337.066C289.221,336.765 289.477,336.554 289.808,336.434L305.941,331.689C306.272,331.599 306.513,331.403 306.664,331.101C306.845,330.77 306.905,330.439 306.845,330.107L303.32,315.511ZM373.273,356.047C371.134,345.954 366.058,338.257 358.044,332.955C350,327.682 341.369,326.402 332.151,329.113C322.841,331.855 315.777,337.85 310.957,347.099C306.136,356.348 304.977,366.049 307.477,376.201C309.947,386.083 315.204,393.509 323.248,398.48C331.292,403.39 339.803,404.445 348.78,401.643C357.638,398.841 364.461,393.012 369.251,384.154C374.011,375.297 375.352,365.928 373.273,356.047ZM349.413,346.873C353.751,350.097 356.583,354.721 357.909,360.746C359.204,366.681 358.647,372.255 356.237,377.466C353.827,382.648 350.257,385.977 345.527,387.453C340.767,388.93 336.218,388.101 331.879,384.968C327.511,381.835 324.619,377.301 323.203,371.366C321.757,365.34 322.254,359.677 324.694,354.374C327.104,349.042 330.75,345.638 335.63,344.162C340.45,342.716 345.045,343.619 349.413,346.873ZM442.233,361.379C446.842,352.673 448.303,343.409 446.616,333.588C444.899,323.525 440.41,315.813 433.149,310.45C425.859,305.088 417.936,303.672 409.38,306.203C403.174,308.01 397.841,311.746 393.383,317.41C393.051,317.831 392.66,317.997 392.208,317.907C391.726,317.786 391.439,317.485 391.349,317.003L386.243,291.29C386.182,290.959 386.017,290.703 385.745,290.522C385.474,290.341 385.173,290.296 384.842,290.386L353.073,299.695C352.742,299.786 352.486,299.982 352.305,300.283C352.124,300.614 352.064,300.946 352.124,301.277L355.242,315.783C355.333,316.114 355.514,316.37 355.785,316.551C356.086,316.732 356.387,316.762 356.689,316.641L370.968,312.439C371.3,312.348 371.601,312.379 371.872,312.529C372.143,312.71 372.324,312.966 372.415,313.297L387.689,387.273C387.749,387.574 387.915,387.8 388.186,387.951C388.457,388.101 388.743,388.132 389.044,388.041L403.324,383.522C403.626,383.432 403.867,383.236 404.047,382.935C404.228,382.664 404.288,382.377 404.228,382.076L403.189,376.834C409.545,379.937 416.128,380.419 422.937,378.28C431.191,375.689 437.623,370.056 442.233,361.379ZM432.336,337.971C433.39,343.876 432.743,349.374 430.393,354.465C428.043,359.557 424.669,362.795 420.27,364.181C415.872,365.567 411.699,364.663 407.753,361.47C403.776,358.276 401.215,353.742 400.071,347.868C398.896,341.872 399.498,336.269 401.878,331.057C404.228,325.815 407.662,322.516 412.181,321.16C416.67,319.805 420.888,320.784 424.835,324.098C428.781,327.382 431.282,332.006 432.336,337.971ZM281.674,224.454C282.005,224.334 282.261,224.123 282.442,223.821C282.623,223.52 282.668,223.204 282.578,222.872L279.053,208.276C278.963,207.945 278.767,207.689 278.465,207.508C278.164,207.327 277.848,207.282 277.516,207.372L224.057,222.963C223.726,223.083 223.47,223.294 223.289,223.595C223.108,223.927 223.063,224.258 223.153,224.59L227.13,239.231C227.22,239.562 227.416,239.819 227.718,239.999C228.049,240.18 228.38,240.21 228.712,240.09L245.07,235.254C245.402,235.164 245.733,235.194 246.065,235.345C246.366,235.525 246.562,235.782 246.652,236.113L259.35,284.782C261.489,292.856 259.847,298.098 254.425,300.508C252.376,301.382 250.177,301.683 247.827,301.412C245.598,301.141 243.971,300.463 242.946,299.378C241.199,297.541 240.536,295.492 240.958,293.233C241.38,291.094 242.615,289.346 244.664,287.991C245.206,287.629 245.372,287.132 245.161,286.499C242.811,280.384 238.819,277.793 233.185,278.727C228.877,279.45 225.187,281.875 222.114,286.002C218.74,290.642 217.806,295.598 219.312,300.87C221.12,307.257 224.916,311.866 230.7,314.698C237.539,318.012 246.11,318.057 256.413,314.833C265.662,311.911 271.988,307.196 275.393,300.689C278.496,294.754 278.993,287.659 276.884,279.405L264.637,230.781C264.577,230.449 264.637,230.133 264.818,229.832C264.999,229.53 265.255,229.319 265.586,229.199L281.674,224.454ZM286.69,239.863C281.87,249.112 280.71,258.813 283.211,268.966C285.681,278.847 290.953,286.273 299.027,291.244C307.071,296.155 315.566,297.194 324.514,294.362C333.401,291.591 340.225,285.776 344.985,276.919C349.775,268.062 351.116,258.692 349.007,248.811C346.868,238.719 341.792,231.021 333.778,225.719C325.734,220.447 317.118,219.167 307.929,221.878C298.62,224.619 291.541,230.615 286.69,239.863ZM300.428,247.139C302.868,241.807 306.514,238.402 311.364,236.926C316.184,235.48 320.778,236.384 325.147,239.638C329.515,242.861 332.362,247.485 333.688,253.511C334.983,259.416 334.411,264.974 331.97,270.186C329.56,275.367 325.99,278.711 321.26,280.218C316.5,281.694 311.951,280.866 307.613,277.732C303.245,274.599 300.353,270.065 298.937,264.13C297.521,258.105 298.018,252.441 300.428,247.139ZM361.524,183.286C361.223,183.106 360.907,183.06 360.575,183.151L328.807,192.415C328.476,192.535 328.219,192.746 328.039,193.047C327.858,193.349 327.798,193.68 327.858,194.042L331.021,208.547C331.081,208.879 331.262,209.135 331.563,209.316C331.835,209.496 332.136,209.527 332.467,209.406L346.702,205.203C347.033,205.113 347.35,205.143 347.651,205.294C347.922,205.475 348.088,205.731 348.148,206.062L363.467,279.992C363.528,280.324 363.693,280.565 363.964,280.715C364.236,280.866 364.522,280.896 364.823,280.806L379.103,276.287C379.404,276.196 379.645,276.001 379.826,275.699C379.977,275.428 380.022,275.142 379.962,274.841L378.967,269.599C385.294,272.702 391.862,273.184 398.67,271.045C406.925,268.454 413.372,262.82 418.011,254.144C422.621,245.437 424.082,236.173 422.395,226.352C420.678,216.29 416.189,208.578 408.928,203.215C401.608,197.822 393.669,196.391 385.113,198.922C378.877,200.79 373.56,204.541 369.161,210.174C368.83,210.596 368.423,210.762 367.941,210.671C367.489,210.581 367.203,210.28 367.083,209.768L362.021,184.055C361.961,183.723 361.795,183.467 361.524,183.286ZM387.915,213.925C392.434,212.569 396.667,213.548 400.613,216.862C404.53,220.146 407.03,224.77 408.115,230.736C409.169,236.64 408.522,242.138 406.172,247.23C403.792,252.321 400.402,255.56 396.004,256.946C391.606,258.331 387.433,257.428 383.486,254.234C379.54,251.071 376.979,246.537 375.804,240.632C374.629,234.637 375.232,229.033 377.612,223.822C379.962,218.58 383.396,215.281 387.915,213.925Z" style="fill:rgb(255,255,245);fill-rule:nonzero;"/>
    </g>
    <g transform="matrix(1.90627,0,0,1.90627,25.906,70.4675)">
        <path d="M68.105,157.418L67.941,156.034L50.982,180.442L-0,248.992L20.251,277.65L5.651,329.858L94.563,384.416L93.443,374.763L94.01,375.566L73.377,201.815L68.21,157.277L68.105,157.418Z" style="fill-rule:nonzero;"/>
    </g>
    <g transform="matrix(-0.475736,-1.84595,-1.84595,0.475736,187.026,608.144)">
        <path d="M-72.616,19.238L-59.036,19.238L12.247,45.946L-23.075,66.063L-72.616,19.238Z" style="fill:rgb(146,153,160);fill-rule:nonzero;"/>
    </g>
    <g transform="matrix(1.90627,0,0,1.90627,152.663,710.003)">
        <path d="M0,-151.084L-42.921,-87.425L17.892,0L0,-151.084Z" style="fill:rgb(184,198,215);fill-rule:nonzero;"/>
    </g>
    <g transform="matrix(1.90627,0,0,1.90627,25.906,70.4675)">
        <path d="M113.005,129.93C116.681,132.793 118.836,134.164 119.469,134.043C120.644,133.802 143.079,130.939 186.774,125.455C188.552,125.214 189.622,124.295 189.984,122.698C190.345,121.07 189.788,119.729 188.311,118.675L177.824,108.143C176.86,107.419 175.805,107.133 174.66,107.284L104.371,114.833C102.624,115.013 101.539,115.887 101.117,117.454C100.695,119.021 101.177,120.362 102.563,121.477C104.854,123.315 108.334,126.133 113.005,129.93ZM453.917,84.638C452.772,83.854 451.521,83.493 450.165,83.553L382.136,86.672C380.479,86.793 379.545,87.501 379.334,88.797C379.153,90.092 379.801,91.268 381.278,92.322C387.214,96.541 391.207,99.344 393.256,100.73C397.716,103.804 400.217,105.295 400.76,105.205C401.061,105.145 409.845,104.497 427.112,103.261C445.675,101.905 457.834,100.941 463.59,100.368C465.248,100.187 466.121,99.434 466.212,98.108C466.332,96.782 465.624,95.607 464.087,94.582L453.917,84.638Z" style="fill-rule:nonzero;"/>
    </g>
    <g transform="matrix(1.90627,0,0,1.90627,25.906,70.4675)">
        <path d="M114.316,118.403L124.577,125.907L177.915,119.217L168.197,111.623L114.316,118.403ZM454.821,94.401L446.007,87.078L397.641,90.152L409.89,98.062L454.821,94.401Z" style="fill:rgb(247,205,119);fill-rule:nonzero;"/>
    </g>
    <g transform="matrix(1.90627,0,0,1.90627,25.906,70.4675)">
        <path d="M146.237,108.019L158.568,117.725C158.779,117.876 160.045,118.78 162.365,120.437C164.533,121.93 167.426,124.055 171.044,126.811L209.104,122.607C196.596,111.701 186.921,103.371 180.081,97.618C180.242,94.807 179.989,91.625 179.319,88.072C178.415,83.433 177.06,79.531 175.252,76.368C173.444,73.205 171.697,71.698 170.01,71.849L122.561,75.916C120.904,76.067 119.804,77.844 119.262,81.248C118.72,84.623 118.885,88.629 119.759,93.269C120.663,97.908 122.018,101.81 123.826,104.973C125.634,108.136 127.381,109.643 129.068,109.492L146.237,108.019ZM376.662,87.406L395.472,105.973C410.499,104.2 425.371,102.588 440.085,101.137C427.69,90.144 418.222,82.29 411.679,77.573C411.864,74.978 411.67,72.061 411.097,68.821C410.344,64.423 409.094,60.702 407.347,57.66C405.63,54.647 403.926,53.201 402.24,53.321L354.746,56.575C353.089,56.726 351.943,58.398 351.311,61.591C350.679,64.815 350.739,68.626 351.491,73.024C352.275,77.423 353.525,81.143 355.243,84.186C356.99,87.229 358.693,88.675 360.349,88.524L376.662,87.406Z" style="fill-rule:nonzero;"/>
    </g>
    <g transform="matrix(1.90627,0,0,1.90627,25.906,70.4675)">
        <path d="M152.027,100.996L167.382,112.528L183.655,110.358L168.219,98.802C168.583,98.327 168.864,97.642 169.062,96.748C169.482,95.001 169.438,92.922 168.926,90.512C168.444,88.132 167.66,86.129 166.576,84.502C165.522,82.875 164.467,82.107 163.413,82.197L133.678,85.044C132.624,85.134 131.901,86.068 131.509,87.846C131.116,89.623 131.163,91.717 131.645,94.127C132.127,96.507 132.909,98.51 133.994,100.137C135.049,101.764 136.103,102.517 137.158,102.397L152.027,100.996ZM382.58,80.362L397.686,92.186L413.959,90.333L398.76,78.489C399.124,78.03 399.41,77.368 399.619,76.503C400.04,74.726 400.04,72.632 399.619,70.222C399.197,67.812 398.459,65.778 397.404,64.121C396.35,62.495 395.295,61.726 394.241,61.817L364.461,64.031C363.407,64.091 362.653,65.01 362.202,66.788C361.78,68.565 361.795,70.659 362.247,73.069C362.668,75.479 363.407,77.498 364.461,79.124C365.515,80.781 366.57,81.565 367.624,81.474L382.58,80.362Z" style="fill:rgb(247,205,119);fill-rule:nonzero;"/>
    </g>
    <g transform="matrix(1.90627,0,0,1.90627,637.605,187.576)">
        <path d="M0,-6.132C4.761,-4.625 7.549,-2.004 8.362,1.733C9.176,5.56 9.146,13.229 8.272,24.741C7.82,30.497 7.293,35.876 6.69,40.878L38.467,40.878C41.299,34.278 44.042,26.534 46.694,17.644C51.997,-0.165 54.242,-14.781 53.429,-26.202C53.067,-31.294 50.807,-36.116 46.648,-40.666C42.309,-45.428 36.222,-49.466 28.387,-52.78C10.246,-60.435 -13.636,-63.011 -43.258,-60.51C-74.116,-57.918 -95.903,-52.931 -108.62,-45.548C-120.373,-38.738 -126.912,-28.221 -128.238,-13.997C-129.323,-2.576 -125.872,12.672 -117.886,31.747C-113.879,41.27 -109.765,49.647 -105.546,56.879L-70.515,49.24C-71.509,45.021 -72.534,40.245 -73.589,34.911C-75.668,24.304 -76.843,16.303 -77.114,10.909C-77.416,4.551 -74.478,0.091 -68.3,-2.471C-62.484,-4.881 -51.108,-6.629 -34.173,-7.714C-18.051,-8.769 -6.66,-8.241 0,-6.132" style="fill-rule:nonzero;"/>
    </g>
    <g transform="matrix(1.90627,0,0,1.90627,675.087,197.057)">
        <path d="M0,-14.812C1.356,-9.599 1.341,-1.658 -0.045,9.009C-0.768,14.373 -1.612,19.195 -2.576,23.474L13.651,24.242C15.007,18.125 16.333,11.676 17.629,4.896C20.25,-8.665 21.471,-17.102 21.29,-20.417C20.868,-29.337 16.243,-36.584 7.413,-42.159C-6.027,-50.657 -27.874,-53.881 -58.13,-51.832C-88.837,-49.753 -110.097,-43.259 -121.909,-32.35C-130.227,-24.666 -133.451,-15.43 -131.583,-4.642C-130.136,3.736 -127.409,13.53 -123.401,24.74C-121.382,30.375 -119.514,35.151 -117.796,39.069L-99.354,35.95C-100.71,32.635 -102.141,28.627 -103.648,23.926C-106.601,14.524 -108.349,6.403 -108.891,-0.438C-109.584,-8.996 -106.044,-15.626 -98.269,-20.327C-89.801,-25.389 -75.864,-28.493 -56.457,-29.638C-36.87,-30.783 -22.842,-30.166 -14.374,-27.785C-6.479,-25.555 -1.687,-21.231 0,-14.812" style="fill:rgb(57,44,38);fill-rule:nonzero;"/>
    </g>
    <g transform="matrix(1.90627,0,0,1.90627,25.906,70.4675)">
        <path d="M236.933,167.075C235.853,165.729 233.827,162.432 230.855,157.182C229.126,154.14 228.027,153.394 227.558,154.944C226.861,157.181 227.088,160.219 228.239,164.057C229.755,169.161 232.672,173.259 236.987,176.351C242.679,180.438 249.423,181.148 257.22,178.483C261.138,177.156 264.477,175.413 267.235,173.254C258.681,174.007 251.068,173.211 244.396,170.863C242.293,170.098 240.412,169.239 238.754,168.285L236.933,167.075ZM377.34,134.632C376.817,133.283 375.974,134.142 374.811,137.208C372.772,142.596 371.39,145.945 370.665,147.253C369.448,148.749 367.528,150.317 364.907,151.958C359.635,155.236 353.5,157.271 346.501,158.065L348.953,159.24C350.967,160.122 353.003,160.717 355.06,161.025C361.634,162.084 367.071,160.275 371.37,155.599C374.604,152.078 376.646,147.868 377.495,142.97C378.115,139.347 378.064,136.568 377.34,134.632Z" style="fill:rgb(66,50,42);fill-rule:nonzero;"/>
    </g>
</svg>
