<svg id="Layer_1" data-name="Layer 1" xmlns="http://www.w3.org/2000/svg" viewBox="0 0 729.38 656.03"><path d="M948,152.75q-14.43-8.33-17.49-8.33-3.59,0-98.34,6.37-103.23,6.92-132.92,8.4-47.77,2.44-163.21,14.64Q411.78,187,391.51,193.29q-18.43,5.76-22.09,21a26.27,26.27,0,0,0,0,14l60.79,410.94L526.05,690l101.33-13.63Q737,661.57,778.53,655.81T923.17,633q51.57-8.53,95-15.86,5.29-96.1,9.29-194.45,8.07-196.7,1.69-208.22-6.91-12.67-49.95-42Q962.2,161,948,152.75" transform="translate(-317.42 -50.11)" fill="#5c4238"/><path d="M380.6,208.81q2.23-3.6,7.93-6.37a39.73,39.73,0,0,1,5.15-2,33.26,33.26,0,0,0-14.1,4.07q-13.35,7.46-10.16,23.79t32.33,215.33q14.56,99.44,28.46,195.61L526.05,690l-46.83-414.4q-28.87-14-77.34-39.92-28.67-15.39-21.28-26.84" transform="translate(-317.42 -50.11)" fill="#42322a"/><path d="M437.09,239.11q-26.65-13.37-34.74-18.81T391,208.84l-1.59-5-13,13.85,102.76,57.84,14-22.36a88.82,88.82,0,0,1-10.42,1.72q-11.21,1.28-15.56-.86-16.42-8-30.15-14.95" transform="translate(-317.42 -50.11)" fill="#8a634e"/><path d="M787.82,229.61l65.45-5.88q56.43-5.16,81.49-7.17,41.12-3.37,63.3-3.92h.12q4.53,0,10.66,4.22,7.35,5.08,9.38,12.44l.85,3.07q1.41,5,1.66,6.31L1006.27,604.3q-52.89,11.82-207.6,36.64-175.48,28.13-266.48,36.58L488.5,289.11q-1.65-11.46,3.12-17.83,6.5-8.64,26.11-11.71,48-7.41,136.58-16.91,71.87-7.72,133.51-13M924.22,156q8,0,12.32,2.76L954,169.56q12,7.6,23.35,15.75l11,8q-22.92,1-61.46,4.16-24.88,2-75.43,6.68-53.07,4.84-65.32,5.88Q724.4,215.4,652,223.11q-88.9,9.57-137.32,17.1-29,4.47-39.88,20.77-8.34,12.43-5.76,30.76l40.8,380.45a82.54,82.54,0,0,1-9.86-4q-13-6.37-26.35-13.91-15-8.46-26-16a20.59,20.59,0,0,1-5.45-5.64,17.24,17.24,0,0,1-3-7.17L381.51,231.08q-1.22-11.52,4.6-18.26,5.38-6.19,17.28-8.82,61.39-11.58,261.7-29.54Q858.29,157.12,924.22,156m44.06-7.91q-12.93-8-18.14-11.21-10.78-6.61-25.92-6.62-133.15,7.11-253.8,17-177.81,14.58-274.2,31.37-19.73,3.67-31.62,17.77-12.5,14.7-9.74,33.46l63.48,418.44q24.95,17.34,50.06,31.37t53.68,26.41q89.2-10,287.62-41.91,173.1-27.88,221.51-37.69L1046.77,232q.74-22.42-17-39.34A168.3,168.3,0,0,0,1012,178.57q-16.06-11.4-19.67-14.22-11.64-8.32-24.08-16.24" transform="translate(-317.42 -50.11)"/><path d="M960.19,162.94c-1.75,0-3.65,0-5.61.08l0-2.83q-55.45.36-252.63,17.46Q512.71,194,458.78,202l-1.22.19q-20.35,3-28.13,4.72-12.37,2.75-18.81,6.8a22.25,22.25,0,0,0-9.8,12.25q-2.7,8-1.17,21.27,1.29,11.27,24.08,185.9Q447.39,614,453,654.36l5.17-.72c.16,1.2.32,2.36.47,3.42l6.06-.86q-5.76-41.91-29.16-221.14-23-175.8-24.08-185.84-1.29-11.28.73-17.71a18,18,0,0,1,8.15-10.3q5.58-3.42,16.91-5.82,7.23-1.59,26.9-4.47l1.17-.18q53.79-8,242.76-24.27,196.82-17,252.21-17.4Z" transform="translate(-317.42 -50.11)"/><path d="M409.74,263.5l-.22-1.87-23,33.08-69.11,92.93,27.45,38.84-19.79,70.78,120.53,74-1.52-13.08.77,1.09-28-235.54-7-60.37Z" transform="translate(-317.42 -50.11)"/><path d="M431.31,534.29l-4.6-17.83-59.17-84.53L353.08,485.1Z" transform="translate(-317.42 -50.11)" fill="#9299a0"/><path d="M407.56,300.09l-58.18,86.29,82.43,118.51Z" transform="translate(-317.42 -50.11)" fill="#b8c6d7"/><path d="M470.61,226.24q7.47,5.82,8.76,5.57,2.38-.48,91.24-11.64a4.63,4.63,0,0,0,4.35-3.73,5,5,0,0,0-2.27-5.46l-14.22-14.27a5.63,5.63,0,0,0-4.28-1.17L458.9,205.77a4.63,4.63,0,0,0-4.41,3.56,4.92,4.92,0,0,0,2,5.45Q461.12,218.52,470.61,226.24Zm462.13-61.4a8.18,8.18,0,0,0-5.09-1.47l-92.22,4.23c-2.24.16-3.51,1.12-3.79,2.88s.63,3.35,2.63,4.78q12.08,8.58,16.24,11.4,9.06,6.24,10.17,6.06.62-.12,35.72-2.63,37.76-2.76,49.45-3.92,3.38-.37,3.55-3.07t-2.88-4.78Z" transform="translate(-317.42 -50.11)"/><path d="M472.39,210.61l13.9,10.18,72.31-9.07-13.18-10.3ZM934,178.08,922,168.15l-65.57,4.17L873.06,183Z" transform="translate(-317.42 -50.11)" fill="#f7cd77"/><path d="M515.66,196.54l16.71,13.15,5.15,3.68q4.41,3,11.76,8.64l51.6-5.7q-25.44-22.17-39.35-33.87a53.63,53.63,0,0,0-1-12.94A51.86,51.86,0,0,0,555,153.63q-3.68-6.44-7.11-6.12L483.56,153c-2.24.2-3.74,2.61-4.47,7.23a48.23,48.23,0,0,0,.67,16.29,52.13,52.13,0,0,0,5.52,15.87q3.68,6.43,7.1,6.12ZM828,168.6l25.5,25.16q30.56-3.6,60.48-6.55-25.2-22.35-38.51-31.94a48.65,48.65,0,0,0-.79-11.87,45.77,45.77,0,0,0-5.08-15.13q-3.5-6.12-6.92-5.88l-64.38,4.41c-2.25.21-3.8,2.47-4.66,6.8a43.27,43.27,0,0,0,.24,15.5A47.84,47.84,0,0,0,799,164.23q3.56,6.2,6.92,5.88Z" transform="translate(-317.42 -50.11)"/><path d="M523.51,187l20.81,15.63,22.06-2.94L545.45,184a7,7,0,0,0,1.15-2.78,19.17,19.17,0,0,0-.19-8.45,22.55,22.55,0,0,0-3.18-8.15q-2.15-3.32-4.29-3.13l-40.31,3.86c-1.43.13-2.41,1.39-2.94,3.8a20.78,20.78,0,0,0,.19,8.52,22.57,22.57,0,0,0,3.18,8.14q2.15,3.32,4.29,3.07Zm312.53-28,20.47,16,22.06-2.51L858,156.51a7,7,0,0,0,1.16-2.69,21.32,21.32,0,0,0,0-8.52,22.46,22.46,0,0,0-3-8.27c-1.43-2.2-2.86-3.25-4.29-3.12l-40.37,3c-1.42.08-2.45,1.33-3.06,3.74a20.67,20.67,0,0,0,.06,8.51,22.05,22.05,0,0,0,3,8.21c1.43,2.24,2.86,3.31,4.29,3.18Z" transform="translate(-317.42 -50.11)" fill="#f7cd77"/><path d="M752.41,125.08q9.68,3.06,11.33,10.66,1.66,7.77-.12,31.19-.92,11.7-2.14,21.87h43.07a291.86,291.86,0,0,0,11.15-31.49q10.78-36.23,9.13-59.44-.74-10.35-9.19-19.61-8.82-9.67-24.75-16.42Q754,46.27,693.77,51.36,631,56.64,605.17,71.64q-23.91,13.86-26.6,42.77-2.21,23.24,14,62a294,294,0,0,0,16.72,34.07l47.49-10.35q-2-8.58-4.17-19.43-4.23-21.57-4.78-32.53-.6-12.93,12-18.14,11.83-4.91,46.26-7.11,32.79-2.15,46.33,2.15" transform="translate(-317.42 -50.11)"/><path d="M779.06,120.05q2.76,10.61-.06,32.29-1.47,10.91-3.43,19.61l22,1q2.74-12.44,5.39-26.22,5.32-27.59,5-34.32Q807.07,94.32,789.11,83,761.78,65.7,700.26,69.87q-62.43,4.23-86.45,26.41-16.92,15.61-13.12,37.56,2.94,17,11.09,39.83,4.11,11.45,7.6,19.42l25-4.23q-2.76-6.74-5.82-16.3-6-19.11-7.11-33-1.41-17.41,14.4-27,17.22-10.29,56.68-12.62,39.83-2.33,57.05,2.51,16,4.55,19.48,17.59" transform="translate(-317.42 -50.11)" fill="#392c26"/><path d="M638.6,276.59q-2.19-2.73-8.24-13.41-3.51-6.18-4.47-3-1.41,4.55.93,12.35a30.76,30.76,0,0,0,11.85,16.67q11.58,8.31,27.43,2.89A45.74,45.74,0,0,0,679.68,285q-17.4,1.53-31-3.24a48.55,48.55,0,0,1-7.65-3.5Zm190.33-44q-1.06-2.75-3.43,3.5a139.14,139.14,0,0,1-5.62,13.61,31.81,31.81,0,0,1-7.8,6.38,59.35,59.35,0,0,1-25,8.28l3.32,1.59a32.54,32.54,0,0,0,8.28,2.42q13.37,2.16,22.11-7.35a33.15,33.15,0,0,0,8.3-17.12C830,239,829.91,235.24,828.93,232.61Z" transform="translate(-317.42 -50.11)" fill="#42322a"/><g id="Layer_8" data-name="Layer 8"><g id="Layer_12" data-name="Layer 12"><g id="Layer_11" data-name="Layer 11"><path d="M668.31,451.19a5.94,5.94,0,0,1-3.67-.73l-1.4-.8a6,6,0,0,1-2.83-3.62l-4.72-17.23a6,6,0,0,1,4.24-7.33l13.13-3.54a27.57,27.57,0,0,1,4-.78,17.63,17.63,0,0,1,8.89,1.08A15.54,15.54,0,0,1,692.13,441a19.24,19.24,0,0,1-10.71,6.73l-12.27,3.3A4,4,0,0,1,668.31,451.19Z" transform="translate(-317.42 -50.11)" fill="#fff"/><path d="M677.8,423.1a11.53,11.53,0,0,1,5.87.65,8.29,8.29,0,0,1,4.83,6,8.41,8.41,0,0,1-1.14,7.66,13.32,13.32,0,0,1-7.48,4.54l-12.25,3.31-1.41-.8-4.71-17.2,13.14-3.55a19.7,19.7,0,0,1,3.15-.61m-1.37-11.95a33,33,0,0,0-4.93.95l-13.16,3.55a11.93,11.93,0,0,0-8.44,14.65l4.71,17.23a12,12,0,0,0,5.62,7.23l1.4.79A12.11,12.11,0,0,0,669,457a12.27,12.27,0,0,0,1.79-.34L683,453.38a24.9,24.9,0,0,0,14-8.92,21.43,21.43,0,0,0-5.37-30,22.2,22.2,0,0,0-3.32-1.89,23.47,23.47,0,0,0-11.87-1.49Z" transform="translate(-317.42 -50.11)"/><path d="M658.7,420.47a6,6,0,0,1-6.47-4.36L648,400.63a5.91,5.91,0,0,1,.59-4.54l.8-1.39a6,6,0,0,1,3.65-2.79l9.48-2.57a23.83,23.83,0,0,1,3.45-.65,15.8,15.8,0,0,1,8.45,1.17,13.75,13.75,0,0,1,7.6,9.38A13.43,13.43,0,0,1,680.2,411a17.27,17.27,0,0,1-10,6.43l-10.6,2.85Z" transform="translate(-317.42 -50.11)" fill="#fff"/><path d="M666.64,394.62a9.84,9.84,0,0,1,5.28.68,7.87,7.87,0,0,1,4.29,5.49,7.68,7.68,0,0,1-.94,6.79,11.39,11.39,0,0,1-6.64,4L658,414.43l-4.23-15.35.8-1.39,9.51-2.55a14.63,14.63,0,0,1,2.54-.5m-1.38-11.95a28.54,28.54,0,0,0-4.31.84l-9.51,2.55a12,12,0,0,0-7.28,5.59l-.8,1.4a11.86,11.86,0,0,0-1.18,9.08l4.23,15.45a12,12,0,0,0,13,8.74,9.76,9.76,0,0,0,1.79-.34l10.61-2.86a23.1,23.1,0,0,0,13.33-8.75,20.71,20.71,0,0,0-6.05-28.8,21.71,21.71,0,0,0-2.15-1.23,21.94,21.94,0,0,0-11.65-1.67Z" transform="translate(-317.42 -50.11)"/><path d="M733.25,435.4c-6.88.78-12-2.57-13.76-9a11.7,11.7,0,0,1,2.24-10.67,18.09,18.09,0,0,1,9.61-5.66,39.88,39.88,0,0,1,5.84-1.13,33.39,33.39,0,0,1,5.83-.14,6,6,0,0,1,5.38,4.4l.38,1.41a15.36,15.36,0,0,1-1.83,12.85,17.35,17.35,0,0,1-10.41,7.24,20.27,20.27,0,0,1-3.28.66Z" transform="translate(-317.42 -50.11)" fill="#fff"/><path d="M737.86,415a26.46,26.46,0,0,1,4.71-.12l.4,1.44a9.37,9.37,0,0,1-1.08,8,11.47,11.47,0,0,1-6.94,4.76,19.39,19.39,0,0,1-2.41.48c-3.87.44-6.29-1.1-7.24-4.58a5.79,5.79,0,0,1,1.13-5.38A12.12,12.12,0,0,1,732.9,416a33.72,33.72,0,0,1,5-1m-1.37-12a48.22,48.22,0,0,0-6.73,1.32,23.63,23.63,0,0,0-12.7,7.66,18.09,18.09,0,0,0,2.88,25.53,18.42,18.42,0,0,0,14,3.79,31.65,31.65,0,0,0,4.19-.82A23.43,23.43,0,0,0,752,430.72a21.12,21.12,0,0,0,2.6-17.64l-.4-1.43a12,12,0,0,0-10.73-8.79A39.47,39.47,0,0,0,736.49,403Z" transform="translate(-317.42 -50.11)"/><path d="M838.27,406.61a18.16,18.16,0,0,1-12.55-3.17A28.34,28.34,0,0,1,817,372.1a18.14,18.14,0,0,1,12.3-10.3,20.49,20.49,0,0,1,3.23-.63,17.84,17.84,0,0,1,12.61,3.2,29.38,29.38,0,0,1,8.74,31.42A18.26,18.26,0,0,1,841.38,406a23.39,23.39,0,0,1-3.11.6Z" transform="translate(-317.42 -50.11)" fill="#fff"/><path d="M833.2,367.1a11.85,11.85,0,0,1,8.44,2.15,19.14,19.14,0,0,1,6.82,11.11,19.49,19.49,0,0,1-.1,13,12.16,12.16,0,0,1-8.56,6.85,18.74,18.74,0,0,1-2.21.43,12.07,12.07,0,0,1-8.46-2.15,22.54,22.54,0,0,1-6.62-24,12,12,0,0,1,8.34-7,17.12,17.12,0,0,1,2.35-.46m-1.37-12a27.88,27.88,0,0,0-4.13.8,24,24,0,0,0-16.2,13.66,34.21,34.21,0,0,0,10.81,38.67A24.33,24.33,0,0,0,839,412.46a28.39,28.39,0,0,0,4-.77,24,24,0,0,0,16.45-13.59,35.24,35.24,0,0,0-10.79-38.63,24.14,24.14,0,0,0-16.79-4.28Z" transform="translate(-317.42 -50.11)"/><path d="M645.33,471.29a6,6,0,0,1-6.48-4.37L635.3,454a5.91,5.91,0,0,1,.6-4.54,6,6,0,0,1,3.63-2.79l4.25-1.15-9.92-36.06-4.26,1.15a4.46,4.46,0,0,1-.9.16,6,6,0,0,1-6.48-4.36l-3.53-12.94a6,6,0,0,1,4.24-7.33l36.31-9.8a50.67,50.67,0,0,1,7.61-1.49A30.75,30.75,0,0,1,683.31,377,24.17,24.17,0,0,1,697,393.41a23.45,23.45,0,0,1-.18,14.63c6.43,2.95,10.89,8.5,13.05,16.41a27.11,27.11,0,0,1-2.93,21.9c-4,6.67-11.41,11.51-22.06,14.38l-38.76,10.46A6.59,6.59,0,0,1,645.33,471.29Zm25.41-33.06,7.56-2a7.77,7.77,0,0,0,4.23-2.37c.22-.28.64-.84.18-2.53s-1.06-2-1.37-2a5.79,5.79,0,0,0-2.86-.24,15.69,15.69,0,0,0-2.25.44l-7.34,2Zm-8.49-31,4.8-1.3a6,6,0,0,0,3.3-1.77c.13-.16.39-.54,0-1.77s-.8-1.56-1-1.64a4.12,4.12,0,0,0-2-.18,13,13,0,0,0-1.65.32l-4.81,1.3Z" transform="translate(-317.42 -50.11)" fill="#fff"/><path d="M667.59,380.78a24.61,24.61,0,0,1,13.27,1.69A18.29,18.29,0,0,1,691.21,395q2.73,10-3.23,15.93l.24.88q12.42,1.59,15.87,14.19a21.22,21.22,0,0,1-2.29,17.23q-4.77,8-18.39,11.67l-38.77,10.45-3.52-12.94,7.84-2.11,2.2-.6-13-47.59-2.21.59-7.84,2.12-3.55-12.93,36.34-9.82a47.72,47.72,0,0,1,6.7-1.29M658,414.51l10.61-2.86a11.43,11.43,0,0,0,6.64-4,7.68,7.68,0,0,0,.94-6.79A7.85,7.85,0,0,0,672,395.3a9.84,9.84,0,0,0-5.28-.68,14.63,14.63,0,0,0-2.54.5L653.53,398l.3,1.09,4.23,15.47m8.5,31L679.92,442a13.32,13.32,0,0,0,7.48-4.54,8.41,8.41,0,0,0,1.14-7.66,8.29,8.29,0,0,0-4.83-6,11.53,11.53,0,0,0-5.87-.65,19.7,19.7,0,0,0-3.15.61l-13.14,3.55,4.71,17.2.3,1.1m-.3-76.67a59.66,59.66,0,0,0-8.48,1.66l-36.34,9.81A11.94,11.94,0,0,0,613,395L616.53,408a12,12,0,0,0,13,8.74h.22l6.76,24.76a11.92,11.92,0,0,0-6.92,14.13l3.53,12.93a12.09,12.09,0,0,0,14.78,8.4l38.77-10.45c12-3.27,20.72-9,25.57-17.09A33.21,33.21,0,0,0,715.7,423a30.77,30.77,0,0,0-11.93-17.75,31.54,31.54,0,0,0-.95-13.28A30.26,30.26,0,0,0,686,371.62a37,37,0,0,0-19.68-2.73Z" transform="translate(-317.42 -50.11)"/><path d="M731.1,449.22a25.78,25.78,0,0,1-14.68-2.33,24.61,24.61,0,0,1-9.73-33.58l.32-.57-.42-.24a14.38,14.38,0,0,1-7-9.42c-1.08-4-1.14-10.11,4.8-16.52,4.13-4.47,10.14-7.71,18.39-10a47.2,47.2,0,0,1,6.68-1.3,26.35,26.35,0,0,1,17.76,3.63c6.22,4,10.53,10.37,12.86,18.9l3.31,12.08,12.33.28a6,6,0,0,1,5.7,4.52A21,21,0,0,1,780,430.48,20.23,20.23,0,0,1,766.9,440a25.21,25.21,0,0,1-3.85.76h0a17.47,17.47,0,0,1-10.87-2,28.25,28.25,0,0,1-15.42,9.4A39,39,0,0,1,731.1,449.22Zm0-25.67a4.09,4.09,0,0,0,.7,0,9.9,9.9,0,0,0,1.51-.32,5.56,5.56,0,0,0,3.37-2.09c-.75.14-1.51.32-2.27.52a7.2,7.2,0,0,0-3.37,1.61h0Z" transform="translate(-317.42 -50.11)" fill="#fff"/><path d="M730.12,381.26A20.36,20.36,0,0,1,743.89,384a25.49,25.49,0,0,1,10.35,15.45L759.88,420c.4,1.43,1.1,2,2.16,2h.39c1.24-.34,1.64-1.29,1.2-2.91l-.84-3.12,12.75.3a15.22,15.22,0,0,1-.84,11.43,14.44,14.44,0,0,1-9.39,6.61,21.19,21.19,0,0,1-3,.57,11,11,0,0,1-11.74-6.15q-2.76,10.28-15.46,13.7a33.52,33.52,0,0,1-4.77.94,19.71,19.71,0,0,1-11.27-1.74,18.66,18.66,0,0,1-7.1-25.54c.21-.37.44-.74.68-1.1q4.77-6.63,15.26-9.48a34,34,0,0,1,5-1,19.62,19.62,0,0,1,6.79.28l-1.2-4.39a7.86,7.86,0,0,0-9.06-6.35,15.7,15.7,0,0,0-2.17.42,19,19,0,0,0-5.62,2.47,4.51,4.51,0,0,1,.83,1.65,6.53,6.53,0,0,1-.81,5.58,8.77,8.77,0,0,1-5.37,3.5,13.73,13.73,0,0,1-1.91.38,8.31,8.31,0,0,1-5-.86,8.7,8.7,0,0,1-4-5.73q-1.53-5.61,3.41-10.93c3.29-3.57,8.48-6.29,15.54-8.21a42.15,42.15,0,0,1,5.8-1.13m2.4,48.21A19.39,19.39,0,0,0,735,429a11.47,11.47,0,0,0,6.94-4.76,9.37,9.37,0,0,0,1.08-8l-.4-1.44a26.46,26.46,0,0,0-4.71.12,33.72,33.72,0,0,0-5,1,12.12,12.12,0,0,0-6.47,3.62,5.79,5.79,0,0,0-1.13,5.38c.95,3.48,3.37,5,7.24,4.58m-3.79-60.08h0a54,54,0,0,0-7.56,1.47c-9.38,2.53-16.34,6.34-21.25,11.63-6,6.59-8.27,14.46-6.16,22.17a21.61,21.61,0,0,0,5.59,9.95,30.94,30.94,0,0,0,14.34,37.68,32,32,0,0,0,18,2.93,45.26,45.26,0,0,0,6.54-1.28,36.55,36.55,0,0,0,15.42-8,24.82,24.82,0,0,0,10,.81,34.91,34.91,0,0,0,4.75-.91,26.1,26.1,0,0,0,16.77-12.35,26.66,26.66,0,0,0,2-20.15,12,12,0,0,0-11.37-9l-7.84-.18L766,396.41a37.2,37.2,0,0,0-15.36-22.32,32.11,32.11,0,0,0-21.76-4.56Z" transform="translate(-317.42 -50.11)"/><path d="M782.92,364.47a15.12,15.12,0,0,1-9.42-2,15.44,15.44,0,0,1-5.84-21.16,15.61,15.61,0,0,1,9.51-7.3,18.72,18.72,0,0,1,2.46-.47A15.52,15.52,0,0,1,785.37,364a17.11,17.11,0,0,1-2.45.48Z" transform="translate(-317.42 -50.11)" fill="#fff"/><path d="M780.25,339.52a9,9,0,0,1,5.74,1.22,9.5,9.5,0,0,1,3.6,13,9.61,9.61,0,0,1-5.87,4.5,10.23,10.23,0,0,1-1.56.3,9.54,9.54,0,0,1-3.47-18.72,6.94,6.94,0,0,1,1.56-.3m-1.38-11.95a25.14,25.14,0,0,0-3.33.66,21.48,21.48,0,0,0,8,42.12,22.5,22.5,0,0,0,3.35-.64A21.48,21.48,0,0,0,792,330.3a21.75,21.75,0,0,0-13.12-2.73Z" transform="translate(-317.42 -50.11)"/><path d="M791.87,459.14a24.32,24.32,0,0,1-12.48-1.69,18.71,18.71,0,0,1-10.89-12.67c-.24-.84-2.18-8.36.48-13.6a14.37,14.37,0,0,1,2.67-3.7,15.08,15.08,0,0,1,6.6-3.75,18,18,0,0,1,3.11-.61,19.9,19.9,0,0,1,5.45.13c-2.28-9.12-5.75-21.7-9.32-34l-12,3.23a6.52,6.52,0,0,1-.9.18,6,6,0,0,1-6.48-4.38l-3.47-12.67a6,6,0,0,1,4.21-7.34h0l32.6-8.79.91-.18a6.1,6.1,0,0,1,3.67.76,6,6,0,0,1,2.8,3.61l16,58.56a32.65,32.65,0,0,1-.82,22.2c-3,6.83-8.85,11.45-17.29,13.72A31.54,31.54,0,0,1,791.87,459.14Z" transform="translate(-317.42 -50.11)" fill="#fff"/><path d="M793.07,365.23l16,58.56c2,7,1.75,13.09-.54,18.22s-6.72,8.59-13.34,10.38a31.54,31.54,0,0,1-4,.77,17.92,17.92,0,0,1-9.38-1.23,12.72,12.72,0,0,1-7.5-8.74c-.76-2.87-1.07-7.15,0-9.36a8.62,8.62,0,0,1,1.54-2.15,9.19,9.19,0,0,1,4.13-2.27,10.68,10.68,0,0,1,2-.4,13.78,13.78,0,0,1,5.27.42c.78.24,2.63,1.35,2.59,2.95,0,.75-2,.81-3.11,2.42a4,4,0,0,0-.12,4,4.58,4.58,0,0,0,4.53,2,5.26,5.26,0,0,0,1.85-.58,5.58,5.58,0,0,0,2.4-3.5C796.62,433,781.6,382,781.6,382l-17.71,4.77-3.47-12.68L779.25,369l13.8-3.72m-1.37-11.95a10.75,10.75,0,0,0-1.78.34l-13.82,3.72-18.81,5.08a11.94,11.94,0,0,0-8.46,14.66l3.47,12.68a12,12,0,0,0,13,8.74,11.11,11.11,0,0,0,1.81-.34l6.25-1.69c2,7.25,4,14.5,5.74,20.81a25.66,25.66,0,0,0-2.59.62,21.19,21.19,0,0,0-9.08,5.24,20.1,20.1,0,0,0-3.79,5.23c-3.49,6.89-1.59,15.41-.92,17.92A24.51,24.51,0,0,0,777,462.94a30.29,30.29,0,0,0,15.57,2.15,42.53,42.53,0,0,0,5.81-1.11c12.8-3.47,18.59-11.21,21.2-17.11,3.41-7.66,3.79-16.47,1.14-26.14l-16-58.57a12,12,0,0,0-13-8.74Z" transform="translate(-317.42 -50.11)"/><path d="M838.75,420.13a33.25,33.25,0,0,1-21-4.38c-8-4.74-13.64-12.37-16.45-22.66A35.87,35.87,0,0,1,804,365.53a33.62,33.62,0,0,1,21.76-16.67,42.63,42.63,0,0,1,6.33-1.23,33,33,0,0,1,21,4.34c8,4.74,13.5,12.38,16.33,22.74a35.87,35.87,0,0,1-2.79,27.52A33.65,33.65,0,0,1,844.91,419a38.1,38.1,0,0,1-6.16,1.2ZM833.88,373a11.49,11.49,0,0,0-1.44.3,6,6,0,0,0-4.44,3.61,13.57,13.57,0,0,0,0,8.94,13.3,13.3,0,0,0,4.56,7.72,6,6,0,0,0,4.37,1.12,7.25,7.25,0,0,0,1.3-.24,6.17,6.17,0,0,0,4.63-3.48,18.15,18.15,0,0,0-4.69-16.89,5.9,5.9,0,0,0-4.29-1.08Z" transform="translate(-317.42 -50.11)" fill="#fff"/><path d="M841.64,369.21a11.85,11.85,0,0,0-8.44-2.15,17.12,17.12,0,0,0-2.35.46,12,12,0,0,0-8.34,7,22.54,22.54,0,0,0,6.62,24,12.07,12.07,0,0,0,8.46,2.15,18.74,18.74,0,0,0,2.21-.43,12.16,12.16,0,0,0,8.56-6.85,19.49,19.49,0,0,0,.1-13A19.14,19.14,0,0,0,841.64,369.21ZM837,393.11a3.12,3.12,0,0,1-2.21-.62,3.17,3.17,0,0,1-1.12-2c-.12-.58-.26-1.18-.4-1.75a83.63,83.63,0,0,1-2-8.23,3,3,0,0,1,2.65-3.3,3.06,3.06,0,0,1,3.33,2.62c.16,1,.38,2,.62,3,.62,2.31,1.32,4.62,1.81,7A3,3,0,0,1,837,393.11Z" transform="translate(-317.42 -50.11)"/><path d="M875.21,373.19c-3.25-11.94-9.66-20.73-19.05-26.3a39.08,39.08,0,0,0-24.77-5.14,52.54,52.54,0,0,0-7.24,1.39,40.1,40.1,0,0,0-25.47,19.62,41.69,41.69,0,0,0-3.25,32c3.25,11.83,9.71,20.67,19.2,26.24a39.12,39.12,0,0,0,24.8,5.16,46.79,46.79,0,0,0,7.06-1.35,40,40,0,0,0,25.41-19.72A41.62,41.62,0,0,0,875.21,373.19Zm-13.9,26.25a27.76,27.76,0,0,1-18,13.8,36.69,36.69,0,0,1-5.28,1,27.1,27.1,0,0,1-17.29-3.58q-10-6-13.71-19.08a30.19,30.19,0,0,1,2.2-23.16,27.85,27.85,0,0,1,18-13.76,37.06,37.06,0,0,1,5.44-1.05,26.8,26.8,0,0,1,17.22,3.54q10,6,13.62,19.18a29.89,29.89,0,0,1-2.21,23Z" transform="translate(-317.42 -50.11)"/><path d="M688.22,411.8,688,411q6-6,3.23-15.93a18.29,18.29,0,0,0-10.35-12.51q-8-3.64-20-.4L624.49,392,628,404.93l10-2.7,13,47.59-10,2.71,3.52,12.94,38.83-10.63q13.59-3.68,18.39-11.67a21.22,21.22,0,0,0,2.29-17.23Q700.66,413.4,688.22,411.8Zm-41.89-9.31a11.1,11.1,0,0,1,10.93-10.78,9.05,9.05,0,0,1,3.57.58,10.9,10.9,0,0,1,7.76-3.39,11.29,11.29,0,0,1,7.6,3.11,10.85,10.85,0,0,1,3.27,7.77c-.44,3.7-.36,7.29-2.41,10.61-2.78,4.56-7.82,6.35-12.93,6.65C655.74,417.52,645.75,411.9,646.33,402.49Zm40.33,44.18c-5.56,3.05-13.34,4.52-19.43,2.39-9.27-3.22-13.4-11.95-11.49-21.19,1.22-6,7.9-8.84,13.37-7.62a2.94,2.94,0,0,1,.86.3,16.62,16.62,0,0,1,1.67-1.46c7.78-5.79,18.53-.73,22,7.35a15.6,15.6,0,0,1-6.94,20.23Z" transform="translate(-317.42 -50.11)" fill="#fff"/><path d="M762.81,415.89l.84,3.12c.44,1.62,0,2.57-1.2,2.91s-2.11-.3-2.55-1.89l-5.72-20.63A25.49,25.49,0,0,0,743.83,384q-7.41-4.84-19.57-1.56c-7.06,2-12.25,4.64-15.54,8.21s-4.43,7.19-3.41,10.93a8.7,8.7,0,0,0,4,5.73,9.13,9.13,0,0,0,6.9.48,8.77,8.77,0,0,0,5.37-3.5,6.53,6.53,0,0,0,.81-5.58,4.51,4.51,0,0,0-.83-1.65,19,19,0,0,1,5.62-2.47,9.62,9.62,0,0,1,7.24.42,8.28,8.28,0,0,1,4,5.51l1.2,4.39a24.66,24.66,0,0,0-11.79.69q-10.49,2.83-15.26,9.48A18.67,18.67,0,0,0,718.06,441c.32.2.64.4,1,.59q6.63,3.35,16,.79,12.69-3.42,15.46-13.7,4.56,8.31,14.7,5.58a14.44,14.44,0,0,0,9.39-6.61,15.22,15.22,0,0,0,.84-11.43ZM747.32,430a107.51,107.51,0,0,1-17.26,7.16,10.82,10.82,0,1,1-5.7-20.88h0c1.31-.38,2.59-.78,3.87-1.24l1.25-.48h.16c2.18-1.07,4.39-2.09,6.57-3.14a11.23,11.23,0,0,1,14.94,3.8C754.18,419.73,752.46,427.46,747.32,430Z" transform="translate(-317.42 -50.11)" fill="#fff"/><path d="M778.75,339.82A9.48,9.48,0,0,0,772,351.44l0,.09a9.61,9.61,0,1,0,6.85-11.73l-.09,0Z" transform="translate(-317.42 -50.11)" fill="#fff"/><path d="M760.44,374.07l3.47,12.68L781.62,382s15,51,13.84,54.68a5.63,5.63,0,0,1-2.41,3.5,5,5,0,0,1-6.38-1.33,4,4,0,0,1,.12-4c1-1.61,3.11-1.67,3.11-2.43,0-1.59-1.8-2.7-2.59-2.94a13.43,13.43,0,0,0-7.28,0,9.19,9.19,0,0,0-4.13,2.27,8.62,8.62,0,0,0-1.54,2.15c-1.13,2.21-.82,6.49,0,9.36a12.72,12.72,0,0,0,7.5,8.74,20.17,20.17,0,0,0,13.41.46q9.93-2.68,13.34-10.38c2.29-5.13,2.45-11.21.54-18.22l-16-58.56L779.31,369Z" transform="translate(-317.42 -50.11)" fill="#fff"/><path d="M850,357.1a28.27,28.27,0,0,0-22.66-2.49,27.85,27.85,0,0,0-18.05,13.76,30.19,30.19,0,0,0-2.2,23.16q3.6,13.16,13.71,19.08a30.19,30.19,0,0,0,40.55-11.23,29.87,29.87,0,0,0,2.29-23.1Q860,363,850,357.1Zm-2.42,44.23c-8.65,8.11-21.64,6.51-27.4-4-4-7.17-5.61-17.11-3-25a11.65,11.65,0,0,1,7.24-7.47,15.37,15.37,0,0,1,5.12-3.41c11-4.48,20.59,4.62,23.34,14.52C855.2,384.52,854.32,395.1,847.56,401.33Z" transform="translate(-317.42 -50.11)" fill="#fff"/><path d="M835.2,396.67c15.36,0,15.38-23.72,0-23.72S819.8,396.67,835.2,396.67Z" transform="translate(-317.42 -50.11)"/><path d="M833.56,379.17A1.93,1.93,0,0,1,834,379l.54-.12h.1c.12,0,1.22.93,2.21,4.5a10.72,10.72,0,0,1,.52,5,6.49,6.49,0,0,1-.74.26h-.42l-.18-.12a8.54,8.54,0,0,1-2.17-4.38,8.67,8.67,0,0,1-.3-4.94v-.12Z" transform="translate(-317.42 -50.11)" fill="#5c4238"/><path d="M958.38,460.39c-1,.26-1.06.46-1.27.92a9.37,9.37,0,0,0,.25,5.69,8.63,8.63,0,0,0,2.6,5c.44.3.66.46,1.63.18a2.84,2.84,0,0,0,1.44-.74,10.33,10.33,0,0,0-.42-5.85,9.17,9.17,0,0,0-2.63-5.14C959.68,460.25,959.46,460.09,958.38,460.39Z" transform="translate(-317.42 -50.11)" fill="none"/><path d="M900.38,477,893,479a8.68,8.68,0,0,1-1.6.3l2.24,8.24,10,1.56C902.69,485.16,901.54,481.1,900.38,477Z" transform="translate(-317.42 -50.11)" fill="none"/><path d="M638.31,550,623,554h-.22l2,7.51,4-1.09a11,11,0,0,1,11.67,4.1,10.68,10.68,0,0,1,6-7.65l-2.63-10.29a10.91,10.91,0,0,1-5.43,3.42Z" transform="translate(-317.42 -50.11)" fill="none"/><path d="M724.74,536a5.71,5.71,0,0,0-1.14,5.38q1.71,6.23,9.65,4.1a11.45,11.45,0,0,0,7-4.76,9.41,9.41,0,0,0,1.07-8l-.38-1.42a29,29,0,0,0-9.67,1.08A12.08,12.08,0,0,0,724.74,536Z" transform="translate(-317.42 -50.11)"/><path d="M980.24,430.2a41.88,41.88,0,0,0-52.4,10.14,11.19,11.19,0,0,0-1.45-1.47,20.36,20.36,0,0,0-8.66-25.71,20.65,20.65,0,0,0-28,7.71,20.3,20.3,0,0,0,1.65,22.56l-7.5,2a10.84,10.84,0,0,0-8,11.07c-7.56-4.7-16.94-5.62-27.91-2.67-9.17,2.49-16,6.17-20.72,11.31a27.5,27.5,0,0,0-4.31,6.23,34.1,34.1,0,0,0-27.15-3.46c-1.39.38-2.73.82-4,1.29l-2-7.64a10.89,10.89,0,0,0-13.36-7.61h0l-27,7.29a10.8,10.8,0,0,0-7.67,13.26v0l3,10.93a10.89,10.89,0,0,0,12.57,7.79l3.51,12.9a33.88,33.88,0,0,0-12.43-14.81c-7.66-5-17.21-6-28.4-2.93-9.19,2.47-15.94,6.17-20.72,11.31a28,28,0,0,0-2.64,3.39c-.32-.2-.65-.4-1-.58a29.24,29.24,0,0,0-21.19-1.83A31.57,31.57,0,0,0,663.24,506a10.77,10.77,0,0,0-4.34.28h0l-19.57,5.36-2-7.17A10.9,10.9,0,0,0,624,496.83h0l-21.92,6-16.27,4.38-29.5,8a10.81,10.81,0,0,0-7.66,13.27v0l8.81,32.23a10.93,10.93,0,0,0,13.27,7.67h0l15.25-4.22h.2l2,7.51-4,1.09A10.82,10.82,0,0,0,576.46,586L580,599a10.9,10.9,0,0,0,13.36,7.61h0l22.32-6,22.4-6a10.81,10.81,0,0,0,7.9-8.81,10.93,10.93,0,0,0,11.31,3.63l40.87-11a10.81,10.81,0,0,0,7.67-13.27h0l-.66-2.43a27.09,27.09,0,0,0,7.26,5.29c6.9,3.45,14.9,4,23.8,1.58a34.9,34.9,0,0,0,15.43-8.25,25.45,25.45,0,0,0,14.72,0,27.24,27.24,0,0,0,11.47-6,10.91,10.91,0,0,0,7.44.64h0l9.34-2.55a11.16,11.16,0,0,0,4.19-2.23,52.43,52.43,0,0,0,12.2-1.86c11.57-3.12,20.21-9.28,25.75-18.24a26,26,0,0,0,3.73,2.31c6.9,3.45,14.9,4,23.8,1.56a34.69,34.69,0,0,0,15.44-8.25,23.2,23.2,0,0,0,10,1,3.6,3.6,0,0,0,.12.44,23.48,23.48,0,0,0,13.66,15.93,30.7,30.7,0,0,0,20.62.95c12.35-3.32,18-10.79,20.45-16.45a36.16,36.16,0,0,0,1.71-22.84,39.83,39.83,0,0,0,24.36.62,38.43,38.43,0,0,0,24.71-19.07,40.62,40.62,0,0,0,3.43-31.45C995.6,444.22,989.36,435.6,980.24,430.2ZM632,571.83l3.31,12.06-22.42,6-22.32,6-3.53-12.94,14.56-4-13-47.69-10.79,2.91,5.28,19.3-15.24,4.24L559,525.43l29.52-8,16.25-4.38,21.94-6,8.82,32.24-15.3,4L615,524l-10.81,2.91,13.06,47.69,14.58-4ZM646.67,557a10.68,10.68,0,0,0-6,7.65A11,11,0,0,0,629,560.5l-4,1.09-2-7.51h.22l15.28-4h0a10.91,10.91,0,0,0,5.43-3.42Zm51.5-25.17a12.92,12.92,0,0,1-7.34,6.69,9.05,9.05,0,0,1-6.56,0c-1.66-.74-4.21-2.61-4-4.8a4,4,0,0,1,2.27-2.92c.64-.3,1-.18,2.3-.68a3.64,3.64,0,0,0,1.65-.94,2.67,2.67,0,0,0,0-2.83c-1.77-2.46-5.44-2.38-9-1.45a10.28,10.28,0,0,0-3.63,1.79c-3,2.39-4.51,6.69-4.47,12.87l5.66,20.71,17-4.56,3.27,11.94-40.85,11-3.27-12,8.69-2.31L651.34,533l-8.48,2.37-3.45-12.61,22.18-6,2,7.13a17.86,17.86,0,0,1,13.47-12.71,18.24,18.24,0,0,1,13.4,1,15.58,15.58,0,0,1,8,10.39A13.25,13.25,0,0,1,698.17,531.78ZM773,544.09a14.31,14.31,0,0,1-9.4,6.61q-10.17,2.74-14.7-5.58-2.77,10.27-15.46,13.7-9.39,2.55-16.05-.79a17.14,17.14,0,0,1-8.9-11.55,16.78,16.78,0,0,1,2.49-15q4.74-6.63,15.24-9.46a24.53,24.53,0,0,1,11.79-.71l-1.2-4.38a8.37,8.37,0,0,0-4-5.52,9.68,9.68,0,0,0-7.23-.42,19.76,19.76,0,0,0-5.62,2.47,4.65,4.65,0,0,1,.82,1.65,6.59,6.59,0,0,1-.78,5.58,8.92,8.92,0,0,1-5.39,3.52,9.13,9.13,0,0,1-6.9-.49,8.71,8.71,0,0,1-4-5.74c-1-3.74.12-7.37,3.4-10.93s8.49-6.29,15.55-8.21q12.15-3.24,19.57,1.56a25.6,25.6,0,0,1,10.35,15.47l5.61,20.59c.44,1.61,1.29,2.25,2.55,2s1.65-1.31,1.2-2.93l-.84-3.1,13.14,2a14.31,14.31,0,0,1-1.21,9.66Zm55-19.56q-6,10.4-19.75,14.1a34.44,34.44,0,0,1-17.37.68l1,3.4-9.33,2.55L764.81,480l-9.74,2.71-3-11,27-7.29,6.14,22.41a24,24,0,0,1,13.33-8.43A23,23,0,0,1,818,481.16q8.57,5.54,12.39,19.48T828,524.53Zm63.38-45.24a8.68,8.68,0,0,0,1.6-.3l7.36-2c1.16,4,2.31,8.12,3.39,12.07l-10-1.56Zm.32,36.84q-10.17,2.7-14.7-5.58-2.73,10.27-15.47,13.7a22.17,22.17,0,0,1-16-.79,17.22,17.22,0,0,1-8.9-11.55,16.81,16.81,0,0,1,2.48-15q4.75-6.63,15.25-9.48a24.41,24.41,0,0,1,11.79-.69l-1.21-4.38a8.3,8.3,0,0,0-4-5.52,9.61,9.61,0,0,0-7.24-.42,19.38,19.38,0,0,0-5.59,2.45,4.61,4.61,0,0,1,.8,1.67,6.59,6.59,0,0,1-.78,5.58,8.84,8.84,0,0,1-5.4,3.5,9,9,0,0,1-6.9-.49,8.67,8.67,0,0,1-4-5.74q-1.51-5.6,3.41-10.91t15.55-8.2q12.15-3.29,19.59,1.55a25.6,25.6,0,0,1,10.33,15.45l5.63,20.63c.44,1.59,1.29,2.23,2.55,2s1.64-1.29,1.22-2.9l-.86-3.13,13.14,2a13.12,13.12,0,0,1-9.39,16c-.4.1-.81.19-1.22.26Zm43.62-10.49a26.91,26.91,0,0,1-.55,18.22q-3.39,7.68-13.35,10.37a19.9,19.9,0,0,1-13.4-.46,12.68,12.68,0,0,1-7.5-8.74c-.78-2.85-1.08-7.13,0-9.36a7.81,7.81,0,0,1,1.55-2.15,9.28,9.28,0,0,1,4-2.27,13.63,13.63,0,0,1,7.28,0c.8.22,2.64,1.35,2.6,3,0,.73-2,.79-3.13,2.41a4.08,4.08,0,0,0,0,4,4.94,4.94,0,0,0,6.36,1.33,5.55,5.55,0,0,0,2.43-3.52c1.16-3.7-13.84-54.68-13.84-54.68l-17.71,4.78-3.47-12.69,18.81-5.08L919.27,447Zm-19.48-70.06a9.71,9.71,0,0,1-13.13,3.55,9.5,9.5,0,0,1-3.54-13,9.65,9.65,0,0,1,13.12-3.51A9.5,9.5,0,0,1,915.88,435.58ZM986,481.76a27.75,27.75,0,0,1-18.05,13.8A28.42,28.42,0,0,1,945.34,493q-10-6-13.69-19.1a30,30,0,0,1,2.2-23.14,27.83,27.83,0,0,1,18-13.76,28.3,28.3,0,0,1,22.66,2.47q10,6,13.62,19.18A30,30,0,0,1,986,481.78Z" transform="translate(-317.42 -50.11)"/><path d="M852.85,501.43a5.69,5.69,0,0,0-1.14,5.38c1.14,4.16,4.35,5.54,9.66,4.1a11.54,11.54,0,0,0,6.94-4.76,9.41,9.41,0,0,0,1.07-8l-.38-1.44a30.06,30.06,0,0,0-9.67,1.08A12,12,0,0,0,852.85,501.43Z" transform="translate(-317.42 -50.11)"/><path d="M955.51,450a12,12,0,0,0-8.34,7,22.59,22.59,0,0,0,6.62,24A13.44,13.44,0,0,0,972.31,477c.26-.39.49-.8.71-1.21a19.55,19.55,0,0,0,.1-13.05,19.3,19.3,0,0,0-6.82-11.11A12.29,12.29,0,0,0,955.51,450ZM963,471.44s-.18.4-1.44.74-1.19.12-1.63-.18a8.63,8.63,0,0,1-2.6-5,9.37,9.37,0,0,1-.25-5.69c.21-.46.31-.66,1.27-.92a2,2,0,0,1,1.6,0,9.2,9.2,0,0,1,2.63,5.14A10.28,10.28,0,0,1,963,471.44Z" transform="translate(-317.42 -50.11)"/><polygon points="286.73 477.07 297.54 474.14 302.82 493.44 318.12 489.44 309.29 457.2 287.35 463.11 271.11 467.49 241.59 475.46 250.41 507.7 265.65 503.48 260.36 484.18 271.17 481.27 284.23 528.95 269.65 532.89 273.18 545.83 295.5 539.82 317.92 533.76 314.61 521.7 314.37 520.84 299.79 524.74 286.73 477.07" fill="#fff"/><path d="M677.09,511.15a17.86,17.86,0,0,0-13.47,12.71l-2-7.13-22.18,6,3.45,12.61,8.48-2.37,8.57,31.42-8.73,2.35,3.27,11.95,40.85-11-3.27-11.94-16.94,4.68-5.66-20.71c0-6.18,1.45-10.48,4.47-12.87a10.28,10.28,0,0,1,3.63-1.79c3.53-.94,7.2-1,9,1.45a2.67,2.67,0,0,1,0,2.83,3.64,3.64,0,0,1-1.65.94c-1.26.5-1.66.38-2.3.67a4,4,0,0,0-2.27,2.93c-.28,2.19,2.27,4,4,4.8a9.05,9.05,0,0,0,6.56,0,12.92,12.92,0,0,0,7.34-6.69,13.3,13.3,0,0,0,.32-9.2,15.58,15.58,0,0,0-8-10.39A18.27,18.27,0,0,0,677.09,511.15Z" transform="translate(-317.42 -50.11)" fill="#fff"/><path d="M761.94,535.48c.45,1.62,0,2.6-1.2,2.93s-2.11-.3-2.55-2l-5.63-20.61a25.6,25.6,0,0,0-10.35-15.47q-7.44-4.8-19.57-1.56c-7.06,2-12.26,4.64-15.55,8.21s-4.43,7.19-3.4,10.93a8.71,8.71,0,0,0,4,5.74,9.13,9.13,0,0,0,6.9.49,8.92,8.92,0,0,0,5.39-3.52,6.59,6.59,0,0,0,.78-5.58,4.65,4.65,0,0,0-.82-1.65,19.82,19.82,0,0,1,5.61-2.47,9.71,9.71,0,0,1,7.24.42,8.37,8.37,0,0,1,4,5.52l1.2,4.38a24.53,24.53,0,0,0-11.79.71q-10.5,2.82-15.24,9.46a16.78,16.78,0,0,0-2.49,15A17.14,17.14,0,0,0,717.4,558q6.66,3.34,16.05.79,12.69-3.4,15.46-13.7,4.53,8.31,14.7,5.58a13.13,13.13,0,0,0,10.84-15.12c-.06-.34-.13-.68-.21-1l-13.14-2Zm-20.67-2.78a9.41,9.41,0,0,1-1.07,8,11.45,11.45,0,0,1-7,4.76q-8,2.15-9.65-4.1a5.72,5.72,0,0,1,1.14-5.38,12.11,12.11,0,0,1,6.48-3.62,29,29,0,0,1,9.67-1.08Z" transform="translate(-317.42 -50.11)" fill="#fff"/><path d="M798.56,478.39a24,24,0,0,0-13.33,8.43l-6.14-22.4-27,7.28,3,11,9.74-2.63,17.73,65.25,9.33-2.55-1-3.4a34.44,34.44,0,0,0,17.37-.68Q822,534.94,828,524.55t2.35-23.91Q826.6,486.84,818,481.2A23,23,0,0,0,798.56,478.39Zm9,47.4c-3.13.83-13.64,2.37-17.93-13.28s5.59-19.6,8.7-20.46,13.66-2.37,17.93,13.29S810.68,524.93,807.55,525.79Z" transform="translate(-317.42 -50.11)" fill="#fff"/><path d="M902.35,499.84l-13.14-2,.86,3.13c.42,1.61,0,2.56-1.22,2.9s-2-.3-2.55-2l-5.63-20.63a25.6,25.6,0,0,0-10.33-15.45q-7.44-4.85-19.59-1.55-10.59,2.87-15.55,8.2t-3.41,10.91a8.67,8.67,0,0,0,4,5.74,9.09,9.09,0,0,0,6.9.5,8.9,8.9,0,0,0,5.4-3.51,6.59,6.59,0,0,0,.78-5.58,4.61,4.61,0,0,0-.8-1.67,19.38,19.38,0,0,1,5.59-2.45,9.61,9.61,0,0,1,7.24.42,8.3,8.3,0,0,1,4,5.52l1.21,4.38a24.41,24.41,0,0,0-11.79.69q-10.47,2.85-15.25,9.48a16.81,16.81,0,0,0-2.48,15,17.22,17.22,0,0,0,8.9,11.55,22.17,22.17,0,0,0,16,.79q12.72-3.44,15.47-13.7,4.53,8.31,14.7,5.58A13.14,13.14,0,0,0,902.59,501c-.07-.4-.16-.81-.26-1.21Zm-33-1.69a9.41,9.41,0,0,1-1.07,8,11.54,11.54,0,0,1-6.94,4.76c-5.31,1.44-8.52,0-9.66-4.1a5.69,5.69,0,0,1,1.14-5.38,12.07,12.07,0,0,1,6.48-3.64,30.06,30.06,0,0,1,9.67-1.08Z" transform="translate(-317.42 -50.11)" fill="#fff"/><path d="M886.7,455.89l3.47,12.69,17.71-4.78s15,51,13.84,54.68a5.55,5.55,0,0,1-2.43,3.52,4.94,4.94,0,0,1-6.36-1.33,4.08,4.08,0,0,1,0-4c1.07-1.62,3.11-1.68,3.13-2.41,0-1.6-1.8-2.73-2.6-2.95a13.63,13.63,0,0,0-7.28,0,9.28,9.28,0,0,0-4,2.27,7.81,7.81,0,0,0-1.55,2.15c-1.14,2.23-.84,6.51,0,9.36a12.68,12.68,0,0,0,7.5,8.74,19.9,19.9,0,0,0,13.4.46q10-2.68,13.35-10.37a26.93,26.93,0,0,0,.55-18.23l-16-58.56-13.86,3.7Z" transform="translate(-317.42 -50.11)" fill="#fff"/><path d="M905,421.64a9.55,9.55,0,1,0,5,18.42h0a9.55,9.55,0,1,0-5-18.42Z" transform="translate(-317.42 -50.11)" fill="#fff"/><path d="M974.64,439.48A28.3,28.3,0,0,0,952,437a27.83,27.83,0,0,0-18.05,13.76,30,30,0,0,0-2.2,23.14q3.6,13.17,13.69,19.1A28.42,28.42,0,0,0,968,495.58a27.75,27.75,0,0,0,18-13.8,30,30,0,0,0,2.29-23.12Q984.64,445.4,974.64,439.48ZM973,475.79a13.44,13.44,0,0,1-18,5.83,11.32,11.32,0,0,1-1.22-.7,22.59,22.59,0,0,1-6.62-24,12,12,0,0,1,8.34-7,12.29,12.29,0,0,1,10.79,1.67,19.3,19.3,0,0,1,6.82,11.11,19.55,19.55,0,0,1-.1,13.05Z" transform="translate(-317.42 -50.11)" fill="#fff"/><path d="M801.19,502.51c-.7.18-2.81.76-1,7.17s3.85,5.83,4.55,5.65,2.79-.75,1-7.17S801.87,502.33,801.19,502.51Z" transform="translate(-317.42 -50.11)" fill="#fff"/><path d="M798.3,492.05c-3.11.86-13,4.82-8.7,20.46s14.8,14.11,17.93,13.28,13-4.82,8.7-20.45S801.45,491.22,798.3,492.05Zm6.38,23.28c-.7.18-2.81.76-4.55-5.65s.34-7,1-7.17,2.79-.76,4.53,5.65-.32,7-1,7.17Z" transform="translate(-317.42 -50.11)"/></g><g id="Layer_6" data-name="Layer 6"><path d="M804.7,515.33c-.7.18-2.81.76-4.55-5.65s.34-7,1-7.17,2.79-.76,4.53,5.65S805.38,515.15,804.7,515.33Z" transform="translate(-317.42 -50.11)" fill="#5c4238"/></g></g></g></svg>