
<svg xmlns="http://www.w3.org/2000/svg" version="1.1" xmlns:xlink="http://www.w3.org/1999/xlink" preserveAspectRatio="none" x="0px" y="0px" width="500px" height="500px" viewBox="0 0 500 500">
<defs>
<g id="avatar1v2_5_Layer2_0_FILL">
<path fill="#5E3016" stroke="none" d="
M 20.6 -25.6
L 16.95 -27.3
Q 3.9681640625 -33.5919921875 -4.85 -30.35 -13.475 -27.3607421875 -18.1 -15.5 -33.35625 -10.994921875 -30.55 4 -37.2310546875 10.9916015625 -36.85 17.6 -36.6677734375 24.621484375 -28.55 31.05
L -28.05 31.5 27.65 31.65 28.15 31.2
Q 32.13203125 28.141015625 33.7 25.45
L 33.7 25.5
Q 41.1728515625 13.21171875 33.45 5 31.0990234375 2.3638671875 27.15 0.15 29.271875 -8.6197265625 25.2 -13.65 21.4740234375 -18.6490234375 11.85 -19.9 12.74140625 -21.5283203125 17 -23.75
L 20.6 -25.6 Z"/>
</g>

<g id="avatar1v2_5_Layer1_0_FILL">
<path fill="#EC7839" stroke="none" d="
M -3.35 -23.9
Q -10.35 -21.65 -13.05 -10.65 -26.85 -7.95 -24.4 6.05 -26.9 7.75 -28.35 10.05 -30.1 12.7 -30.2 15.9 -30.35 20.15 -27.75 23.15 -26.55 24.5 -24.6 25.25
L 25.4 25.25
Q 26.35 24.6 27.25 23.7 30.5 20.45 30.8 15.7 31.15 10.75 27.6 7.4 24.05 4 20.1 3.15 21.25 -0.05 21.25 -2.6 21.3 -7.25 18.45 -10.6 15.55 -13.9 10.9 -14 6.2 -14.1 4.9 -17.3 3.55 -20.5 8.15 -23.75 4.35 -26.45 -3.35 -23.9 Z"/>
</g>
</defs>

<g transform="matrix( 5.106536865234375, 0, 0, 5.106536865234375, 250.4,257.7) ">
<g transform="matrix( 1, 0, 0, 1, 0,0) ">
<g transform="matrix( 1, 0, 0, 1, 0,0) ">
<use xlink:href="#avatar1v2_5_Layer2_0_FILL"/>
</g>

<g transform="matrix( 1, 0, 0, 1, 0,0) ">
<use xlink:href="#avatar1v2_5_Layer1_0_FILL"/>
</g>
</g>
</g>
</svg>
