<svg width="108" height="40" viewBox="0 0 108 40" fill="none" xmlns="http://www.w3.org/2000/svg">
<path d="M29.7972 35.293C29.6947 35.5264 29.6423 35.8099 29.6423 36.0171C29.6423 36.5602 30.083 36.8961 30.8572 36.8961C32.0459 36.8961 32.9249 36.1982 33.2607 34.1805L33.4418 32.7322H33.2869C32.4341 33.5588 31.3479 34.1019 30.0044 34.1019C28.013 34.1019 25.6095 33.0943 25.6095 29.3449C25.6095 24.4592 28.5561 21.6412 31.8148 21.6412C34.3231 21.6412 35.2021 23.0371 35.5118 23.6065H35.6666L36.5718 21.9009H39.9068L37.7343 34.1805C37.1126 37.7227 35.1997 39.9976 30.6762 39.9976C26.6695 39.9976 25.1426 38.6541 25.1426 36.9199C25.1426 36.1958 25.376 35.5764 25.6071 35.2144L29.7948 35.293H29.7972ZM33.9087 30.0953L34.709 25.9838C34.5018 25.2858 33.9325 24.8213 33.1845 24.8213C31.4003 24.8213 30.3403 26.8628 30.3403 28.9828C30.3403 30.6122 31.1931 31.1029 32.0459 31.1029C32.6414 31.1029 33.3894 30.767 33.9063 30.0953H33.9087Z" fill="#F7F8F9"/>
<path d="M39.519 29.657C39.519 24.8999 42.2346 21.6436 45.5957 21.6436C47.7944 21.6436 48.6972 22.6774 49.2403 23.5826H49.3951L50.3003 21.9033H53.7138L52.2131 30.4859C52.1369 30.8742 51.9797 31.7008 52.6776 31.7008C52.9873 31.7008 53.3232 31.5984 53.5566 31.4935L53.1421 34.4164C52.4704 34.6236 51.0483 34.8308 50.2455 34.8308C48.5399 34.8308 47.892 34.1853 47.7372 33.0205H47.6086C46.9368 33.6922 45.6695 34.8308 43.6781 34.8308C41.6867 34.8308 39.5166 33.5112 39.5166 29.6593L39.519 29.657ZM48.4637 25.8313C48.2827 25.3406 47.8444 24.8237 47.094 24.8237C45.7243 24.8237 44.4046 26.5293 44.4046 29.4521C44.4046 31.1315 45.0764 31.6746 45.9054 31.6746C46.6295 31.6746 47.1988 31.2601 47.6109 30.717L48.4637 25.8313Z" fill="#F7F8F9"/>
<path d="M60.1262 24.0733C60.8242 22.6512 62.0128 21.6436 64.0305 21.6436C66.1505 21.6436 67.2106 22.575 67.6751 24.1258H67.8299C68.5279 22.8323 69.5617 21.6436 71.5793 21.6436C73.959 21.6436 75.4311 22.8061 75.4311 25.3406C75.4311 25.8051 75.3787 26.3482 75.2763 26.8652L74.6308 30.4859C74.5521 30.9266 74.4497 31.6746 75.1477 31.6746C75.4311 31.6746 75.7694 31.5722 76.0005 31.4673L75.586 34.414C74.9142 34.6212 73.4921 34.8285 72.7156 34.8285C70.6979 34.8285 69.8714 33.8732 69.8714 32.3725C69.8714 32.0367 69.9238 31.6746 69.9762 31.3387L70.7503 26.8652C70.8028 26.5555 70.8289 26.1934 70.8289 25.96C70.8289 25.2096 70.5193 24.8237 69.7427 24.8237C68.8637 24.8237 67.9061 25.6241 67.4416 28.2611L66.3554 34.5688H61.8056L63.1753 26.8652C63.2277 26.5555 63.2777 26.1934 63.2777 25.96C63.2777 25.2096 62.9681 24.8237 62.1915 24.8237C61.3125 24.8237 60.3311 25.6241 59.8642 28.2611L58.7518 34.5688H54.1758L55.7003 25.9338C55.7765 25.443 55.829 24.8213 55.131 24.8213C54.8475 24.8213 54.5355 24.8975 54.3306 25.0024L54.6927 22.0033C55.3144 21.8223 56.6055 21.6412 57.4845 21.6412C59.3187 21.6412 59.9928 22.7013 59.9928 23.5541C59.9928 23.6827 59.9928 23.8899 59.9666 24.071H60.1215L60.1262 24.0733Z" fill="#F7F8F9"/>
<path d="M84.3001 21.6436C87.816 21.6436 89.9361 23.3754 89.9361 25.8575C89.9361 26.7627 89.6788 27.9252 89.3144 28.6755H81.301C81.2224 29.09 81.1962 29.4759 81.1962 29.788C81.1962 31.1839 81.8179 31.8056 82.8256 31.8056C83.938 31.8056 84.9194 31.3411 84.9194 30.1262L89.0809 30.1524C89.0809 33.4087 86.2629 34.8308 82.7208 34.8308C78.7141 34.8308 76.7227 32.8918 76.7227 29.8404C76.7227 25.393 78.8165 21.646 84.2977 21.646L84.3001 21.6436ZM85.6698 26.5293C85.746 26.322 85.7984 26.0386 85.7984 25.7289C85.7984 24.7713 85.1529 24.3068 84.2215 24.3068C83.0328 24.3068 82.1014 24.9523 81.6893 26.5293H85.6698Z" fill="#F7F8F9"/>
<path d="M94.0736 30.3811C94.0212 30.5884 93.9711 30.7956 93.9711 31.0267C93.9711 31.6722 94.3332 32.2677 95.7815 32.2677C97.075 32.2677 97.6681 31.7508 97.6681 31.0791C97.6681 30.5359 97.2274 30.2263 96.3746 30.019L94.7715 29.6308C92.0821 28.9852 90.9197 28.0014 90.9197 26.2172C90.9197 23.4516 93.0921 21.6412 97.5371 21.6412C101.982 21.6412 102.89 23.6327 102.89 24.9238C102.89 25.2596 102.837 25.6741 102.735 25.9838L98.7544 26.01C98.8306 25.8027 98.8568 25.5693 98.8568 25.312C98.8568 24.8475 98.4947 24.252 97.2536 24.252C96.0126 24.252 95.3909 24.8213 95.3909 25.4407C95.3909 26.1386 96.0626 26.3459 96.8392 26.5269L98.6495 26.9414C101.26 27.5369 102.32 28.6994 102.32 30.2501C102.32 32.8085 100.458 34.8261 95.5457 34.8261C90.9959 34.8261 89.8311 32.8609 89.8311 31.4388C89.8311 31.1291 89.8835 30.7408 89.9859 30.4049L94.0712 30.3787L94.0736 30.3811Z" fill="#F7F8F9"/>
<path d="M8.92091 20.3621C8.3111 23.8256 6.3435 25.7646 3.15865 25.7646C1.88423 25.7646 0.805145 25.5431 0 25.3216L0.969509 22.0533C1.46737 22.2201 1.99381 22.3868 2.57742 22.3868C3.29681 22.3868 3.79705 21.777 4.07337 20.1977L6.48404 6.37445H11.3864L8.92091 20.3644V20.3621ZM7.50834 0.693176H12.3845L11.7199 4.40447H6.84373L7.50834 0.693176Z" fill="#F7F8F9"/>
<path d="M11.1362 14.6832C11.1362 9.58552 14.0447 6.09576 17.6464 6.09576C19.9999 6.09576 20.9694 7.20343 21.553 8.17294H21.7198L22.6893 6.37209H26.3458L24.7379 15.5693C24.6545 15.9862 24.4878 16.8723 25.2357 16.8723C25.5692 16.8723 25.9289 16.7627 26.1767 16.6508L25.7336 19.7809C25.0142 20.0024 23.4897 20.2239 22.6297 20.2239C20.8003 20.2239 20.1095 19.5307 19.9427 18.2849H19.8046C19.0852 19.0043 17.7274 20.2239 15.5931 20.2239C13.4587 20.2239 11.1338 18.8113 11.1338 14.6832H11.1362ZM20.7217 10.5836C20.5287 10.0572 20.0571 9.50215 19.2543 9.50215C17.787 9.50215 16.3744 11.3292 16.3744 14.4617C16.3744 16.2625 17.0938 16.8437 17.9823 16.8437C18.7588 16.8437 19.3663 16.4007 19.8093 15.8194L20.7241 10.5836H20.7217Z" fill="#F7F8F9"/>
<path d="M34.821 6.09339C39.5852 6.09339 40.8334 8.61363 40.8334 10.1096C40.8334 10.8028 40.6404 11.4126 40.4737 11.8271L35.6809 11.8819C35.7643 11.5222 35.8477 11.2173 35.8477 10.8004C35.8477 10.1072 35.5428 9.49739 34.5447 9.49739C32.7986 9.49739 31.7457 11.8795 31.7457 14.6213C31.7457 15.979 32.3008 16.8366 33.2965 16.8366C34.4327 16.8366 35.2641 15.9219 35.2641 14.4545L40.0283 14.4831C40.0283 17.5584 38.7253 20.2168 33.1297 20.2168C29.0564 20.2168 26.7314 18.111 26.7314 14.7594C26.7314 10.1882 29.1135 6.08862 34.821 6.08862V6.09339Z" fill="#F7F8F9"/>
<path d="M53.9896 16.7056C54.2397 16.7056 54.5423 16.6508 54.7924 16.5674L54.2111 19.8356C53.4632 20.0858 52.4651 20.2239 51.5242 20.2239C49.5565 20.2239 49.0301 19.0043 48.7824 18.1729C48.3679 16.8152 47.7295 14.8761 47.4532 14.3497H46.1502L45.1807 19.9452H40.2783L43.7943 0H48.699L46.7052 11.2482L47.7581 11.1386C48.3393 10.5836 50.6952 6.84374 51.2478 6.37446H56.4003L56.2883 6.92949C55.7071 7.42735 52.577 11.8056 51.7457 12.7203C52.022 13.192 52.7152 15.0191 53.1868 16.1553C53.3798 16.5698 53.6299 16.708 53.9896 16.708V16.7056Z" fill="#F7F8F9"/>
<path d="M58.6991 0H63.5752L62.1889 7.70129H62.327C63.075 6.86994 64.1827 6.09338 65.8454 6.09338C67.9225 6.09338 70.3332 7.45117 70.3332 11.384C70.3332 17.949 66.4552 20.2215 63.4919 20.2215C61.2765 20.2215 60.3332 19.0591 59.8616 18.3373H59.7234L58.7825 19.9452H55.126L58.6991 0ZM60.7501 15.9004C60.9716 16.4269 61.5529 16.8414 62.2722 16.8414C63.7134 16.8414 65.3475 15.1787 65.3475 11.8818C65.3475 10.081 64.4614 9.49976 63.6014 9.49976C62.9368 9.49976 62.1341 9.97141 61.6624 10.5812L60.7477 15.9004H60.7501Z" fill="#F7F8F9"/>
<path d="M78.6443 6.09338C83.2441 6.09338 85.2379 8.3921 85.2379 11.6603C85.2379 16.5912 82.5509 20.2215 77.3699 20.2215C72.7701 20.2215 70.8311 17.949 70.8311 14.7094C70.8311 9.77847 73.4347 6.09338 78.6443 6.09338ZM80.2236 11.6603C80.2236 10.193 79.5852 9.49977 78.5895 9.49977C76.8172 9.49977 75.7929 11.3268 75.7929 14.6808C75.7929 16.1768 76.4575 16.8414 77.4271 16.8414C79.1731 16.8414 80.226 15.0405 80.226 11.6603H80.2236Z" fill="#F7F8F9"/>
<path d="M92.4674 8.69938C92.7175 9.50215 92.9391 10.2501 93.0772 10.9147H93.1892C93.6037 10.0548 94.0753 9.36399 94.6304 8.58742L96.2097 6.37208H101.417L101.334 6.84374L96.2073 12.9943L97.7318 16.0148C98.0367 16.5698 98.425 16.708 98.7561 16.708C99.0872 16.708 99.4207 16.6246 99.6709 16.515L99.0896 19.8404C98.3702 20.0334 97.3174 20.2287 96.3479 20.2287C94.7685 20.2287 94.0491 19.4259 93.6323 18.2063L93.2988 17.2082C93.0487 16.4602 92.9105 15.8242 92.7723 15.1858H92.6342C92.2459 16.0434 91.7742 16.7365 91.2764 17.4559L89.5041 19.95H84.2969L84.3802 19.5069L89.6161 13.1062L88.2297 10.3097C87.9796 9.75465 87.5103 9.61649 87.122 9.61649C86.7885 9.61649 86.486 9.69986 86.2073 9.80944L86.8171 6.48642C87.5365 6.29348 88.5632 6.09814 89.5589 6.09814C91.2764 6.09814 91.8576 6.76275 92.2197 7.92759L92.4674 8.70415V8.69938Z" fill="#F7F8F9"/>
<path d="M105.255 22.3297H105.455C105.691 22.3297 105.879 22.2511 105.879 22.0605C105.879 21.8938 105.755 21.7818 105.488 21.7818C105.376 21.7818 105.298 21.7937 105.252 21.8033V22.3297H105.255ZM105.245 23.3588H104.821V21.5245C104.988 21.5031 105.224 21.4674 105.526 21.4674C105.872 21.4674 106.029 21.5222 106.153 21.6127C106.265 21.6913 106.343 21.8247 106.343 22.0033C106.343 22.2273 106.177 22.3726 105.965 22.4393V22.4607C106.143 22.5155 106.234 22.6608 106.289 22.9085C106.346 23.1872 106.389 23.2897 106.422 23.3564H105.974C105.919 23.2897 105.884 23.1325 105.829 22.9085C105.796 22.718 105.684 22.6298 105.448 22.6298H105.248V23.3564L105.245 23.3588ZM104.116 22.4083C104.116 23.2254 104.731 23.8733 105.548 23.8709C106.341 23.8828 106.944 23.2206 106.944 22.4178C106.944 21.6008 106.339 20.9433 105.524 20.9433C104.731 20.9433 104.116 21.6032 104.116 22.4083ZM107.413 22.4083C107.413 23.4374 106.586 24.2544 105.536 24.2544C104.485 24.2544 103.647 23.4397 103.645 22.4107C103.642 21.3816 104.481 20.5765 105.543 20.5765C106.582 20.5765 107.411 21.3792 107.411 22.4083" fill="#F7F8F9"/>
</svg>
