<svg xmlns="http://www.w3.org/2000/svg" viewBox="0 0 110.15 57.8" preserveAspectRatio="none">
	<defs>
		<style>.cls-1{fill:#fff;stroke:#000;stroke-miterlimit:10;stroke-width:5px;}</style>
	</defs>
	<title>Asset 1</title>
	<g id="Layer_2" data-name="Layer 2">
		<g id="Layer_1-2" data-name="Layer 1">
			<g id="Layer0_4_FILL" data-name="Layer0 4 FILL">
				<path class="cls-1" d="M30.45,2.5H20.3l-9.1.8a10.57,10.57,0,0,1-1.65.05c-.4.17-.77.33-1.1.5a11.51,11.51,0,0,0-4,3.1C4.3,7.5,4.15,8.09,4,8.7a71.42,71.42,0,0,0-1.5,7.15v6.9c.1,1.93.17,3.87.2,5.8,0,.17.07.32.1.45a19.27,19.27,0,0,1,.05,9.25q0,3.53-.1,8c.16.78.33,1.46.5,2a11.2,11.2,0,0,0,3.15,5.2A9.27,9.27,0,0,0,9.25,55.1h13.8q2.84-.18,5.7-.3,8.3-.34,25-.35,3.11,0,6.15.15c.45,0,2,.2,4.65.5H67.4c.23,0,.53.07.9.1a43.57,43.57,0,0,0,7.2-.1h25.85q3.75-2.15,5.9-7.5c0-2.69,0-5.8.1-9.35a17.25,17.25,0,0,1-.45-6.35c.1-.93.25-1.9.45-2.9,0-.13.07-.28.1-.45q.1-2.1.15-4.2a19.58,19.58,0,0,1,0-6.45l.1-.6V10.8h0c0-.22-.07-.43-.1-.65-.06-.47-.11-.89-.15-1.25a.46.46,0,0,1-.05-.1,15,15,0,0,0-2.45-4.35,17.35,17.35,0,0,0-1.55-1,24.07,24.07,0,0,0-3.9-.45q-1.31,0-4.5,0c-2,0-4.2,0-6.5.05l-.9,0c-1.47.07-3.68.1-6.65.1l-38.75.1q-4.8,0-7.2-.2c-1.71-.26-3.21-.47-4.5-.65"/>
			</g>
		</g>
	</g>
</svg>