<svg preserveAspectRatio="none" xmlns="http://www.w3.org/2000/svg" viewBox="0 0 439.38 7.86"><title>Asset 2</title><g id="Layer_2" data-name="Layer 2"><g id="Layer_1-2" data-name="Layer 1"><g id="Layer0_0_FILL" data-name="Layer0 0 FILL"><path d="M386.08,7.7q6.65-.19,19.85-.85h23.3l2.3.05c.46,0,.91,0,1.35-.05h2q.54,0,1.2-.15l.55-.1a3.82,3.82,0,0,1,.65-.25c.23-.13.48-.27.75-.4l.55-.35a2.19,2.19,0,0,1,.25-.4,4,4,0,0,1,.4-.35,1.63,1.63,0,0,1,.15-.4V3.35a1.63,1.63,0,0,1-.15-.4A1.24,1.24,0,0,1,439,2.6a2.51,2.51,0,0,0-.4-.4c-.1-.1-.24-.22-.4-.35a6.55,6.55,0,0,1-.55-.4,11.94,11.94,0,0,1-1.15-.35c-.54-.1-1.07-.18-1.6-.25h-2.25a240.27,240.27,0,0,0-25.85-.4c-3.14.13-6,.27-8.75.4h-58.9Q331.27.6,326.28.5q-19-.34-54.55.3h-84.4a31.73,31.73,0,0,0-4.65-.5q-11-.3-16.3-.3T153.43.25Q144.77.6,140.38.7c-.5,0-1,.05-1.5.05H83.33a7.31,7.31,0,0,0-.8-.05Q69.72.36,65.53.55c-1,.07-1.84.13-2.6.2q-4.41,0-8.8,0A15,15,0,0,0,51,.5L16.53.3A105.36,105.36,0,0,0,5.08.75a9.58,9.58,0,0,0-3.95,1.1A2.36,2.36,0,0,0,0,3.5a2.27,2.27,0,0,0,.5,1.8c.86,1.1,2.4,1.77,4.6,2a25,25,0,0,0,3.25,0c.66,0,1.7-.1,3.1-.2,1.16,0,2.95,0,5.35.15l25.9-.35c.83,0,1.61,0,2.35-.05h3.65q1,.25,2.25.45a39.54,39.54,0,0,0,6.7,0c1.4-.1,3.46-.27,6.2-.5H77.83q1.65,0,3.6.15,18,.64,45.6.2,4.35,0,20.65-.35h77.95l.8.3a21.12,21.12,0,0,0,6.5.7q12.09,0,43.35-.8l8.45-.2H331l21.75.65Q373,8.1,386.08,7.7Z"/></g></g></g></svg>