<svg xmlns="http://www.w3.org/2000/svg" viewBox="0 0 313.16 408.13"><defs><style>.cls-1{fill:#fff;}</style></defs><title>Asset 3</title><g id="Layer_2" data-name="Layer 2"><g id="Layer_1-2" data-name="Layer 1"><g id="Symbol_1_0_Layer0_0_FILL" data-name="Symbol 1 0 Layer0 0 FILL"><path d="M290.18,0l-9.34.07a54.07,54.07,0,0,0-6.79.36c-1.34.2-3.25.53-5.73,1H199.73l-1.18.08h-3.9a6,6,0,0,0-.94-.08H46.26C43.74,1,41.81.64,40.47.44a54.13,54.13,0,0,0-6.8-.36L24.34,0A96.68,96.68,0,0,0,14.18.3l-1.3.14a3.58,3.58,0,0,1-1.12.22c-1,.48-2.09,1-3.19,1.66A14.36,14.36,0,0,0,3.49,6.21a19.43,19.43,0,0,0-1.84,4.32A62.12,62.12,0,0,0,0,17.74a48.66,48.66,0,0,1,.47,6.48V31q.06,7.71,1.18,20.39V157.54q.36,22.26.59,44.6c.12,1.2.22,2.36.3,3.46q3.38,40.65.12,71.2.06,46.33-.53,113.06h.35a22.74,22.74,0,0,0,1,6.12,14.27,14.27,0,0,0,4.9,7.71A13,13,0,0,0,13.65,406a27.44,27.44,0,0,0,3.72.43v.07h3.07l57,.22a28.22,28.22,0,0,0,3.42-.14l.6-.15h31.9l1.77.15a320,320,0,0,0,32.14.28c3.15-.09,6.49-.24,10-.43h36.45a12.57,12.57,0,0,0,2.66.87,50.81,50.81,0,0,0,21.26-.65,5.09,5.09,0,0,1,.83-.22h41.47q7.21.22,16.84.07a12.31,12.31,0,0,0,1.41-.07h12.59a2.88,2.88,0,0,0,.71.07c.75,0,1.47,0,2.18-.07h7.21a47.46,47.46,0,0,0,4.9-3.38,12.37,12.37,0,0,0,2.9-3,14,14,0,0,0,1.53-4.39l1.36-5.19q-.06-41.08.3-113.71a342.36,342.36,0,0,1-1.24-49q.4-10.66,1.36-22.19c.07-1.1.17-2.26.29-3.46q.18-16.21.41-32.43-1.59-34.15-.23-49.72c.12-1.49.25-3,.41-4.61v-64q.7-8.14-.29-40.14L312,9.38a19.08,19.08,0,0,0-1.84-4.83A10.09,10.09,0,0,0,307,1.45h-3.19A4.4,4.4,0,0,1,301.7.52s-.06,0-.06-.08L300.34.3A96.68,96.68,0,0,0,290.18,0m6.32,11.6c.59.29,1.32.68,2.18,1.16a9.56,9.56,0,0,1,3.49,6.12V384.45a52.85,52.85,0,0,1-1,5.7,10.94,10.94,0,0,1-1.54,4,6.5,6.5,0,0,1-2.84,2.09,13.6,13.6,0,0,1-3.25,1.08H24.16l-.12-.14a25.53,25.53,0,0,1-3.9-.29C17,396.27,14.89,395,13.82,393a12.9,12.9,0,0,1-1.12-4.54,12,12,0,0,1,.12-3.46,4,4,0,0,0-.36-.79.79.79,0,0,0-.17-.29V19.76a28.46,28.46,0,0,1,1.06-4.33A7.31,7.31,0,0,1,14.59,13a5,5,0,0,1,1.83-1.37H296.5M152.12,3.18c-2.72-.05-5.61-.05-8.69,0q-1.23,0-7.5-.14,13.13,0,16.19.14m153.65,215v3.1C305.62,223.09,305.62,222.05,305.77,218.21Z"/><path class="cls-1" d="M298.68,12.77c-.86-.48-1.59-.87-2.18-1.16H16.42A5,5,0,0,0,14.59,13a7.31,7.31,0,0,0-1.24,2.45,28.46,28.46,0,0,0-1.06,4.33V383.88a.79.79,0,0,1,.17.29,4,4,0,0,1,.36.79,12,12,0,0,0-.12,3.46A12.9,12.9,0,0,0,13.82,393c1.07,2,3.17,3.31,6.32,3.89a25.53,25.53,0,0,0,3.9.29l.12.14H293.54a13.6,13.6,0,0,0,3.25-1.08,6.5,6.5,0,0,0,2.84-2.09,10.94,10.94,0,0,0,1.54-4,52.85,52.85,0,0,0,1-5.7V18.89A9.56,9.56,0,0,0,298.68,12.77Z"/></g></g></g></svg>