<svg xmlns="http://www.w3.org/2000/svg" viewBox="0 0 105.15 52.8" preserveAspectRatio="none">
	<title>Asset 39</title>
	<g id="Layer_2" data-name="Layer 2">
		<g id="Layer_1-2" data-name="Layer 1">
			<g id="Layer0_4_FILL" data-name="Layer0 4 FILL">
				<path d="M28,0H17.8L8.7.8a10.57,10.57,0,0,1-1.65,0c-.4.17-.77.33-1.1.5a11.51,11.51,0,0,0-4,3.1C1.8,5,1.65,5.59,1.5,6.2A71.42,71.42,0,0,0,0,13.35v6.9c.1,1.93.17,3.87.2,5.8,0,.17.07.32.1.45a19.27,19.27,0,0,1,0,9.25q0,3.53-.1,8c.16.78.33,1.46.5,2A11.2,11.2,0,0,0,3.9,51,9.27,9.27,0,0,0,6.75,52.6h13.8q2.84-.18,5.7-.3,8.3-.34,25-.35,3.11,0,6.15.15c.45,0,2,.2,4.65.5H64.9c.23,0,.53.07.9.1a43.57,43.57,0,0,0,7.2-.1H98.85q3.75-2.15,5.9-7.5c0-2.69,0-5.8.1-9.35a17.25,17.25,0,0,1-.45-6.35c.1-.93.25-1.9.45-2.9,0-.13.07-.28.1-.45q.1-2.1.15-4.2a19.58,19.58,0,0,1,0-6.45l.1-.6V8.3h0c0-.22-.07-.43-.1-.65-.06-.47-.11-.89-.15-1.25a.46.46,0,0,1-.05-.1A15,15,0,0,0,102.4,2,17.35,17.35,0,0,0,100.85,1,24.07,24.07,0,0,0,97,.55q-1.31,0-4.5,0c-2,0-4.2,0-6.5,0l-.9.05c-1.47.07-3.68.1-6.65.1L39.65.85q-4.8,0-7.2-.2C30.74.39,29.24.18,28,0"/>
			</g>
		</g>
	</g>
</svg>