<svg xmlns="http://www.w3.org/2000/svg" viewBox="0 0 34.57 35.57"><defs><style>.cls-1{fill:#9c9d3e;}</style></defs><title>Asset 21</title><g id="Layer_2" data-name="Layer 2"><g id="Layer_1-2" data-name="Layer 1"><g id="Layer0_3_FILL" data-name="Layer0 3 FILL"><path class="cls-1" d="M17.17,0h-.35a6.06,6.06,0,0,1-1.55.45h-.9a15.72,15.72,0,0,0-2.6.1,8.74,8.74,0,0,0-4.85,2.3A16,16,0,0,0,4.32,6,37.39,37.39,0,0,0,2.52,9.3,25.35,25.35,0,0,0,0,19,15.59,15.59,0,0,0,2.47,28.5a14.1,14.1,0,0,0,3.2,3.4,16.38,16.38,0,0,0,11.2,3.65A28.18,28.18,0,0,0,24.47,34a11.23,11.23,0,0,0,3.65-1.7,13.75,13.75,0,0,0,2.65-3.6q1.61-3,2.25-4.3a18,18,0,0,0,1.4-4.6,14.77,14.77,0,0,0-1.15-8.15,4.37,4.37,0,0,1-.15-.7A16.7,16.7,0,0,0,29.22,5a17.56,17.56,0,0,0-3.95-3A8.57,8.57,0,0,0,22.47.7a5,5,0,0,0-1-.2A18,18,0,0,0,17.17,0Z"/></g></g></g></svg>