<svg xmlns="http://www.w3.org/2000/svg" viewBox="0 0 46.38 47.63"><defs><style>.cls-1{fill:#536000;}</style></defs><title>Asset 37</title><g id="Layer_2" data-name="Layer 2"><g id="Layer_1-2" data-name="Layer 1"><ellipse class="cls-1" cx="23.37" cy="23.77" rx="19.72" ry="19.32"/><g id="Layer0_2_FILL" data-name="Layer0 2 FILL"><path d="M31.73.55A23.77,23.77,0,0,0,25.93,0a36.48,36.48,0,0,0-7.8.85,7.4,7.4,0,0,0-.7.25,15.14,15.14,0,0,0-3.55.75,12.25,12.25,0,0,0-5.8,4.4,3.13,3.13,0,0,0-.3.5,6.65,6.65,0,0,0-.65.65A21.8,21.8,0,0,0,.48,21.7a25.47,25.47,0,0,0,.3,11.2,13.64,13.64,0,0,0,2.1,4.8,19.66,19.66,0,0,0,4.85,3.85,53.38,53.38,0,0,0,8.9,4.5,21.37,21.37,0,0,0,9.65,1.5,22.85,22.85,0,0,0,10.2-4,18.45,18.45,0,0,0,3.9-3.4,25.16,25.16,0,0,0,2.35-3.9,0,0,0,0,1,.05-.05,22.31,22.31,0,0,0,3.6-12.5,23,23,0,0,0-1-6.75A20.36,20.36,0,0,0,44,12.05,22,22,0,0,0,37.13,3.5,18.22,18.22,0,0,0,31.73.55M23,6.65h.35a16.43,16.43,0,0,1,12.05,5,16.7,16.7,0,0,1,3.9,6c.07.37.14.72.2,1a25.48,25.48,0,0,1,.35,4.4,20.92,20.92,0,0,1-.35,4.3,29.12,29.12,0,0,1-2.25,5.7l-.65,1.3q-.54.65-1.2,1.35a16.5,16.5,0,0,1-12,4.95,16.34,16.34,0,0,1-12-4.95,16.78,16.78,0,0,1-4.15-6.55,6.73,6.73,0,0,0-.15-1.3C7,27,6.87,26.5,6.83,26.3a11.24,11.24,0,0,1,.3-2.75,25,25,0,0,1,2.35-7l1.75-3c.27-.5.65-1.28,1.15-2.35a16.63,16.63,0,0,1,3.7-2.8,15.15,15.15,0,0,1,2.65-1.1q.86-.1,2.1-.15A7.44,7.44,0,0,0,23,6.65Z"/></g></g></g></svg>